<?xml version="1.0" standalone="no"?>
<!DOCTYPE svg PUBLIC "-//W3C//DTD SVG 1.1//EN" "http://www.w3.org/Graphics/SVG/1.1/DTD/svg11.dtd" >
<svg>
<metadata>
Created by FontForge 20110222 at Tue Aug 21 23:03:22 2012
 By Stefan Warting
Copyright (C) 2005, 2008 Hoefler &#38; Frere-Jones. http://www.typography.com
</metadata>
<defs>
<font id="GothamNarrow-MediumItalic" horiz-adv-x="353" >
  <font-face 
    font-family="Gotham Narrow Medium"
    font-weight="350"
    font-style="italic"
    font-stretch="condensed"
    units-per-em="1000"
    panose-1="0 0 0 0 0 0 0 0 0 0"
    ascent="800"
    descent="-200"
    x-height="533"
    cap-height="700"
    bbox="-286 -261 1070 986"
    underline-thickness="50"
    underline-position="-50"
    slope="-14"
    stemh="101"
    stemv="122"
    unicode-range="U+0020-FB04"
  />
<missing-glyph horiz-adv-x="500" 
d="M0 -200v1000h500v-1000h-500zM50 -76l172 376l-172 376v-752zM71 -150h358l-179 390zM250 360l179 390h-358zM450 -76v752l-172 -376z" />
    <glyph glyph-name="f_f" unicode="ff" horiz-adv-x="695" 
d="M22 0l104 431h-60l27 102h59l8 34c12 52 30 90 58 117c31 30 73 44 126 44c35 0 64 -6 85 -14l-26 -98c-17 6 -39 10 -56 10c-39 0 -60 -22 -70 -64l-8 -29h114l-27 -102h-111l-104 -431h-119zM369 0l104 431h-60l27 102h59l8 34c12 52 30 90 58 117c31 30 73 44 126 44
c35 0 64 -6 85 -14l-26 -98c-17 6 -39 10 -56 10c-39 0 -60 -22 -70 -64l-8 -29h114l-27 -102h-111l-104 -431h-119z" />
    <glyph glyph-name="fi" unicode="fi" horiz-adv-x="604" 
d="M22 0l104 431h-60l27 102h59l8 34c12 52 30 90 58 117c31 30 73 44 126 44c35 0 64 -6 85 -14l-26 -98c-17 6 -39 10 -56 10c-39 0 -60 -22 -70 -64l-8 -29h114l-27 -102h-111l-104 -431h-119zM350 0l131 533h118l-130 -533h-119zM494 607l30 116h126l-31 -116h-125z" />
    <glyph glyph-name="fl" unicode="fl" horiz-adv-x="604" 
d="M22 0l104 431h-60l27 102h59l8 34c12 52 30 90 58 117c31 30 73 44 126 44c35 0 64 -6 85 -14l-26 -98c-17 6 -39 10 -56 10c-39 0 -60 -22 -70 -64l-8 -29h114l-27 -102h-111l-104 -431h-119zM350 0l177 722h118l-176 -722h-119z" />
    <glyph glyph-name="f_f_i" unicode="ffi" horiz-adv-x="951" 
d="M22 0l104 431h-60l27 102h59l8 34c12 52 30 90 58 117c31 30 73 44 126 44c35 0 64 -6 85 -14l-26 -98c-17 6 -39 10 -56 10c-39 0 -60 -22 -70 -64l-8 -29h114l-27 -102h-111l-104 -431h-119zM369 0l104 431h-60l27 102h59l8 34c12 52 30 90 58 117c31 30 73 44 126 44
c35 0 64 -6 85 -14l-26 -98c-17 6 -39 10 -56 10c-39 0 -60 -22 -70 -64l-8 -29h114l-27 -102h-111l-104 -431h-119zM698 0l131 533h118l-130 -533h-119zM842 607l30 116h126l-31 -116h-125z" />
    <glyph glyph-name="f_f_l" unicode="ffl" horiz-adv-x="951" 
d="M22 0l104 431h-60l27 102h59l8 34c12 52 30 90 58 117c31 30 73 44 126 44c35 0 64 -6 85 -14l-26 -98c-17 6 -39 10 -56 10c-39 0 -60 -22 -70 -64l-8 -29h114l-27 -102h-111l-104 -431h-119zM369 0l104 431h-60l27 102h59l8 34c12 52 30 90 58 117c31 30 73 44 126 44
c35 0 64 -6 85 -14l-26 -98c-17 6 -39 10 -56 10c-39 0 -60 -22 -70 -64l-8 -29h114l-27 -102h-111l-104 -431h-119zM698 0l177 722h118l-176 -722h-119z" />
    <glyph glyph-name=".notdef" horiz-adv-x="500" 
d="M0 -200v1000h500v-1000h-500zM50 -76l172 376l-172 376v-752zM71 -150h358l-179 390zM250 360l179 390h-358zM450 -76v752l-172 -376z" />
    <glyph glyph-name="A" unicode="A" horiz-adv-x="656" 
d="M-46 0l427 705h118l82 -705h-123l-17 169h-260l-98 -169h-129zM249 276h180l-24 281z" />
    <glyph glyph-name="B" unicode="B" horiz-adv-x="611" 
d="M10 0l171 700h213c146 0 215 -71 215 -165c0 -102 -69 -161 -153 -181c59 -24 100 -69 100 -141c0 -136 -116 -213 -285 -213h-261zM156 107h132c92 0 148 41 148 113c0 50 -37 82 -108 82h-127zM227 404h113c92 0 148 40 148 111c0 48 -34 78 -104 78h-113z" />
    <glyph glyph-name="C" unicode="C" horiz-adv-x="604" 
d="M332 -10c-161 0 -273 107 -273 283c0 120 47 252 130 336c65 64 139 101 233 101c103 0 177 -49 226 -118l-95 -79c-37 54 -77 86 -139 86c-51 0 -96 -25 -133 -61c-57 -58 -97 -160 -97 -261c0 -106 58 -176 148 -176c50 0 94 22 139 60l69 -84
c-56 -53 -124 -87 -208 -87z" />
    <glyph glyph-name="D" unicode="D" horiz-adv-x="661" 
d="M10 0l171 700h162c112 0 182 -32 227 -77c51 -49 73 -119 73 -206c0 -101 -38 -222 -122 -305c-73 -73 -173 -112 -308 -112h-203zM473 544c-28 28 -72 46 -139 46h-60l-116 -480h71c80 0 152 25 202 76c60 60 87 152 87 227c0 56 -16 102 -45 131z" />
    <glyph glyph-name="E" unicode="E" horiz-adv-x="561" 
d="M10 0l171 700h436l-28 -108h-315l-44 -186h280l-28 -107h-280l-44 -191h321l-29 -108h-440z" />
    <glyph glyph-name="F" unicode="F" horiz-adv-x="554" 
d="M10 0l171 700h440l-28 -110h-319l-45 -194h283l-29 -109h-282l-69 -287h-122z" />
    <glyph glyph-name="G" unicode="G" horiz-adv-x="662" 
d="M337 -10c-143 0 -279 96 -279 285c0 121 47 245 130 327c70 69 156 108 257 108c110 0 179 -42 228 -95l-87 -84c-37 39 -82 68 -151 68c-61 0 -113 -25 -157 -69c-58 -59 -94 -158 -94 -252c0 -112 69 -178 161 -178c41 0 76 10 101 22l39 163h-140l28 105h255l-88 -347
c-58 -33 -121 -53 -203 -53z" />
    <glyph glyph-name="H" unicode="H" horiz-adv-x="652" 
d="M10 0l171 700h122l-71 -292h260l69 292h122l-171 -700h-122l73 296h-260l-71 -296h-122z" />
    <glyph glyph-name="I" unicode="I" horiz-adv-x="285" 
d="M17 0l171 700h122l-171 -700h-122z" />
    <glyph glyph-name="J" unicode="J" horiz-adv-x="471" 
d="M160 -9c-93 0 -154 45 -191 110l88 75c31 -51 61 -73 100 -73c29 0 49 11 67 29c21 20 37 54 52 118l107 450h125l-115 -478c-21 -87 -43 -133 -81 -172c-42 -41 -92 -59 -152 -59z" />
    <glyph glyph-name="K" unicode="K" horiz-adv-x="617" 
d="M10 0l171 700h122l-83 -341l327 341h157l-305 -301l147 -399h-132l-108 312l-130 -127l-44 -185h-122z" />
    <glyph glyph-name="L" unicode="L" horiz-adv-x="521" 
d="M10 0l171 700h122l-143 -590h296l-29 -110h-417z" />
    <glyph glyph-name="M" unicode="M" horiz-adv-x="748" 
d="M10 0l171 700h126l89 -327l243 327h140l-171 -700h-122l120 501l-256 -332h-4l-96 330l-120 -499h-120z" />
    <glyph glyph-name="N" unicode="N" horiz-adv-x="674" 
d="M10 0l171 700h113l175 -490l117 490h119l-171 -700h-103l-182 505l-119 -505h-120z" />
    <glyph glyph-name="O" unicode="O" horiz-adv-x="701" 
d="M424 711c159 0 259 -115 259 -281c0 -119 -47 -258 -132 -344c-61 -61 -140 -97 -234 -97c-159 0 -258 115 -258 281c0 118 46 259 131 343c62 62 140 98 234 98zM331 100c50 0 92 22 128 58c63 62 100 178 100 264c0 108 -54 177 -148 177c-50 0 -93 -20 -129 -57
c-62 -63 -99 -178 -99 -264c0 -108 54 -178 148 -178z" />
    <glyph glyph-name="P" unicode="P" horiz-adv-x="583" 
d="M10 0l171 700h172c89 0 151 -17 196 -63c34 -34 52 -80 52 -140c0 -71 -25 -136 -73 -184c-55 -54 -140 -87 -244 -87h-98l-54 -226h-122zM449 560c-24 23 -56 30 -102 30h-73l-61 -258h77c65 0 112 18 144 49c28 29 41 66 41 108c0 31 -10 54 -26 71z" />
    <glyph glyph-name="Q" unicode="Q" horiz-adv-x="701" 
d="M424 711c159 0 259 -115 259 -281c0 -112 -42 -241 -117 -328l52 -72l-99 -67l-42 67c-47 -27 -100 -41 -160 -41c-159 0 -258 115 -258 281c0 118 46 259 131 343c62 62 140 98 234 98zM331 100c31 0 59 8 85 23l-81 113l100 67l62 -99c39 64 62 150 62 218
c0 108 -52 177 -148 177c-50 0 -93 -20 -129 -57c-62 -62 -99 -178 -99 -264c0 -108 52 -178 148 -178z" />
    <glyph glyph-name="Q.alt" horiz-adv-x="701" 
d="M424 711c159 0 259 -115 259 -281c0 -112 -42 -241 -117 -328l52 -72l-99 -67l-42 67c-47 -27 -100 -41 -160 -41c-159 0 -258 115 -258 281c0 118 46 259 131 343c62 62 140 98 234 98zM331 100c31 0 59 8 85 23l-81 113l100 67l62 -99c39 64 62 150 62 218
c0 108 -52 177 -148 177c-50 0 -93 -20 -129 -57c-62 -62 -99 -178 -99 -264c0 -108 52 -178 148 -178z" />
    <glyph glyph-name="R" unicode="R" horiz-adv-x="622" 
d="M391 0l-97 242h-4h-101l-57 -242h-122l171 700h200c89 0 153 -21 194 -63c33 -34 51 -79 51 -135c0 -71 -24 -129 -65 -171c-28 -28 -70 -58 -140 -75l106 -256h-136zM217 348h103c63 0 110 15 143 47c24 25 37 58 37 98c0 28 -8 50 -25 67c-21 21 -55 30 -102 30h-98z
" />
    <glyph glyph-name="S" unicode="S" horiz-adv-x="541" 
d="M246 -10c-107 0 -195 49 -253 127l92 78c52 -62 103 -98 167 -98c58 0 100 38 100 88c0 37 -23 66 -100 119c-93 64 -141 118 -141 195c0 58 23 107 56 142c43 43 102 69 172 69c101 0 173 -47 224 -104l-84 -83c-45 50 -89 80 -144 80c-62 0 -97 -42 -97 -83
c0 -39 23 -66 103 -120c87 -59 139 -114 139 -197c0 -59 -22 -108 -60 -146c-42 -42 -107 -67 -174 -67z" />
    <glyph glyph-name="T" unicode="T" horiz-adv-x="520" 
d="M134 0l141 588h-182l30 112h486l-30 -112h-182l-143 -588h-120z" />
    <glyph glyph-name="U" unicode="U" horiz-adv-x="655" 
d="M288 -11c-136 0 -223 75 -223 206c0 31 6 67 17 107l95 398h121l-100 -412c-6 -27 -10 -51 -10 -77c0 -68 42 -110 113 -110c41 0 74 13 100 39c29 29 51 71 65 129l104 431h120l-108 -449c-21 -83 -52 -145 -95 -188c-48 -48 -112 -74 -199 -74z" />
    <glyph glyph-name="V" unicode="V" horiz-adv-x="622" 
d="M187 -5l-67 705h129l34 -528l289 528h135l-412 -705h-108z" />
    <glyph glyph-name="W" unicode="W" horiz-adv-x="956" 
d="M155 -5l-30 705h124l8 -515l265 517h104l22 -517l252 515h137l-376 -705h-112l-22 498l-260 -498h-112z" />
    <glyph glyph-name="X" unicode="X" horiz-adv-x="595" 
d="M-44 0l296 366l-122 334h134l75 -244l182 244h152l-285 -349l128 -351h-134l-83 262l-193 -262h-150z" />
    <glyph glyph-name="Y" unicode="Y" horiz-adv-x="558" 
d="M149 0l69 284l-122 416h132l75 -307l222 307h146l-334 -426l-67 -274h-121z" />
    <glyph glyph-name="Z" unicode="Z" horiz-adv-x="578" 
d="M-19 0l23 90l446 504h-317l27 106h476l-23 -90l-447 -504h332l-27 -106h-490z" />
    <glyph glyph-name="a" unicode="a" horiz-adv-x="508" 
d="M143 -10c-84 0 -138 58 -138 142c0 54 18 103 54 139c37 36 92 57 155 57c50 0 92 -11 131 -25l3 12c4 19 7 37 7 53c0 40 -25 69 -93 69c-41 0 -81 -11 -119 -28l-27 96c46 20 101 34 165 34c123 0 190 -55 190 -146c0 -30 -6 -62 -15 -97l-70 -296h-116l16 64
c-38 -45 -84 -74 -143 -74zM192 74c62 0 111 56 126 118l10 43c-25 10 -61 18 -94 18c-35 0 -62 -11 -81 -30s-30 -49 -30 -79c0 -42 26 -70 69 -70z" />
    <glyph glyph-name="a.alt" horiz-adv-x="575" 
d="M201 -9c-92 0 -166 76 -166 214c0 101 37 204 101 268c45 45 102 70 159 70c72 0 118 -41 144 -96l20 86h119l-131 -533h-118l16 66c-42 -44 -86 -75 -144 -75zM254 91c32 0 60 14 86 39c44 44 71 119 71 190c0 75 -43 122 -101 122c-29 0 -59 -13 -83 -38
c-42 -42 -70 -116 -70 -190c0 -76 34 -123 97 -123z" />
    <glyph glyph-name="b" unicode="b" horiz-adv-x="575" 
d="M280 -9c-71 0 -118 41 -144 96l-20 -87h-118l175 722h119l-62 -255c42 45 86 76 144 76c92 0 166 -76 166 -214c0 -102 -37 -203 -101 -268c-45 -44 -101 -70 -159 -70zM264 92c28 0 60 12 84 37c43 43 70 116 70 190c0 76 -34 123 -94 123c-33 0 -64 -14 -90 -40
c-43 -44 -69 -119 -69 -188c0 -75 40 -122 99 -122z" />
    <glyph glyph-name="c" unicode="c" horiz-adv-x="467" 
d="M240 -10c-121 0 -206 83 -206 220c0 97 38 193 99 254c49 48 108 78 179 78c92 0 141 -41 176 -95l-88 -69c-23 37 -49 62 -91 62c-33 0 -62 -15 -86 -39c-43 -44 -71 -122 -71 -188c0 -80 42 -122 94 -122c38 0 65 19 98 46l60 -77c-42 -39 -92 -70 -164 -70z" />
    <glyph glyph-name="d" unicode="d" horiz-adv-x="575" 
d="M329 0l16 66c-42 -44 -86 -75 -144 -75c-92 0 -166 76 -166 214c0 101 37 204 101 268c45 44 101 70 159 70c72 0 118 -41 144 -96l66 275h119l-177 -722h-118zM252 92c32 0 63 14 89 40c44 43 70 119 70 188c0 75 -41 122 -99 122c-29 0 -60 -13 -85 -37
c-43 -43 -70 -116 -70 -190c0 -76 34 -123 95 -123z" />
    <glyph glyph-name="e" unicode="e" horiz-adv-x="521" 
d="M471 224h-325v-8c0 -80 39 -130 106 -130c45 0 77 16 114 44l52 -81c-46 -35 -101 -59 -171 -59c-132 0 -212 87 -212 226c0 94 38 189 100 251c46 46 104 76 176 76c113 0 183 -81 183 -196c0 -35 -6 -77 -23 -123zM215 407c-25 -25 -45 -63 -57 -105h220
c5 18 6 31 6 51c0 52 -26 93 -81 93c-34 0 -64 -15 -88 -39z" />
    <glyph glyph-name="f" unicode="f" horiz-adv-x="347" 
d="M22 0l104 431h-60l27 102h59l8 34c12 52 30 90 58 117c31 30 73 44 126 44c35 0 64 -6 85 -14l-26 -98c-17 6 -39 10 -56 10c-39 0 -60 -22 -70 -64l-8 -29h114l-27 -102h-111l-104 -431h-119z" />
    <glyph glyph-name="g" unicode="g" horiz-adv-x="573" 
d="M206 -152c-79 0 -166 26 -231 72l59 83c52 -38 112 -60 166 -60c44 0 75 15 99 38c21 22 35 51 46 92l11 44c-48 -51 -94 -78 -153 -78c-89 0 -165 63 -165 182c0 90 37 188 99 251c46 45 101 71 158 71c79 0 118 -47 140 -100l22 90h118l-109 -454
c-20 -84 -43 -130 -81 -168c-42 -43 -99 -63 -179 -63zM249 135c36 0 68 16 93 41c30 30 61 89 61 158c0 64 -37 109 -95 109c-35 0 -61 -14 -86 -39c-39 -39 -62 -111 -62 -166c0 -68 35 -103 89 -103z" />
    <glyph glyph-name="h" unicode="h" horiz-adv-x="539" 
d="M-2 0l175 722h119l-60 -251c34 39 79 72 139 72c80 0 133 -52 133 -140c0 -26 -7 -62 -16 -100l-72 -303h-120l74 305c7 25 9 49 9 62c0 44 -24 68 -69 68c-56 0 -101 -50 -116 -116l-78 -319h-118z" />
    <glyph glyph-name="i" unicode="i" horiz-adv-x="256" 
d="M4 0l131 533h118l-130 -533h-119zM148 607l30 116h126l-31 -116h-125z" />
    <glyph glyph-name="j" unicode="j" horiz-adv-x="258" 
d="M-43 -153c-30 0 -56 4 -76 11l25 92c10 -3 22 -6 34 -6c37 0 60 23 70 69l127 520h118l-131 -538c-26 -107 -83 -148 -167 -148zM150 607l30 116h125l-30 -116h-125z" />
    <glyph glyph-name="k" unicode="k" horiz-adv-x="502" 
d="M-2 0l176 722h119l-97 -404l208 215h151l-224 -209l99 -324h-131l-67 241l-75 -73l-41 -168h-118z" />
    <glyph glyph-name="l" unicode="l" horiz-adv-x="256" 
d="M4 0l177 722h118l-176 -722h-119z" />
    <glyph glyph-name="m" unicode="m" horiz-adv-x="828" 
d="M-2 0l130 533h118l-14 -62c37 41 77 72 135 72c61 0 105 -36 122 -95c43 58 101 95 169 95c83 0 136 -53 136 -134c0 -32 -7 -68 -16 -106l-74 -303h-118l74 306c6 26 9 49 9 62c0 44 -24 67 -67 67c-52 0 -98 -47 -113 -112l-79 -323h-118l74 306c6 25 9 49 9 62
c0 43 -25 67 -67 67c-54 0 -98 -49 -114 -116l-78 -319h-118z" />
    <glyph glyph-name="n" unicode="n" horiz-adv-x="537" 
d="M-2 0l130 533h118l-14 -62c34 39 79 72 139 72c80 0 133 -52 133 -140c0 -26 -7 -62 -16 -100l-72 -303h-120l74 305c7 25 9 49 9 62c0 44 -24 68 -69 68c-56 0 -101 -50 -116 -116l-78 -319h-118z" />
    <glyph glyph-name="o" unicode="o" horiz-adv-x="556" 
d="M310 543c129 0 210 -92 210 -228c0 -95 -37 -189 -98 -250c-47 -48 -107 -76 -176 -76c-129 0 -210 93 -210 227c0 96 36 189 98 251c47 48 107 76 176 76zM252 92c32 0 61 14 84 37c43 44 68 122 68 183c0 84 -40 128 -100 128c-32 0 -61 -15 -84 -37
c-44 -43 -68 -122 -68 -183c0 -84 40 -128 100 -128z" />
    <glyph glyph-name="p" unicode="p" horiz-adv-x="575" 
d="M280 -9c-71 0 -118 41 -144 96l-56 -237h-119l167 683h118l-16 -66c42 45 86 76 144 76c92 0 166 -76 166 -214c0 -102 -37 -203 -101 -268c-45 -44 -101 -70 -159 -70zM264 92c28 0 60 12 84 37c43 43 70 116 70 190c0 76 -34 123 -94 123c-33 0 -64 -14 -90 -40
c-43 -44 -69 -119 -69 -188c0 -75 40 -122 99 -122z" />
    <glyph glyph-name="q" unicode="q" horiz-adv-x="575" 
d="M201 -9c-92 0 -166 76 -166 214c0 101 37 203 101 267c45 45 102 71 160 71c71 0 117 -41 143 -96l20 86h119l-166 -683h-119l52 216c-42 -44 -86 -75 -144 -75zM252 92c32 0 63 14 89 40c44 43 70 119 70 188c0 75 -41 122 -99 122c-29 0 -60 -13 -85 -37
c-43 -43 -70 -116 -70 -190c0 -76 34 -123 95 -123z" />
    <glyph glyph-name="r" unicode="r" horiz-adv-x="358" 
d="M-2 0l130 533h118l-23 -96c45 68 99 111 180 105l-33 -124h-7c-90 0 -158 -51 -188 -174l-59 -244h-118z" />
    <glyph glyph-name="s" unicode="s" horiz-adv-x="425" 
d="M182 -10c-80 0 -150 36 -205 97l71 72c48 -52 92 -77 137 -77c39 0 70 26 70 59c0 30 -20 49 -81 89c-73 47 -109 87 -109 151c0 85 70 160 183 160c75 0 139 -37 181 -80l-66 -77c-47 46 -82 66 -121 66c-37 0 -64 -25 -64 -56c0 -29 18 -46 81 -86
c82 -53 110 -98 110 -155c0 -91 -79 -163 -187 -163z" />
    <glyph glyph-name="t" unicode="t" horiz-adv-x="352" 
d="M162 -7c-71 0 -114 38 -114 99c0 21 5 43 10 65l66 274h-60l26 102h59l34 140h119l-34 -140h110l-26 -102h-109l-67 -275c-2 -10 -3 -20 -3 -26c0 -20 15 -32 41 -32c21 0 44 6 63 15l-25 -102c-24 -12 -56 -18 -90 -18z" />
    <glyph glyph-name="u" unicode="u" horiz-adv-x="539" 
d="M169 -10c-80 0 -133 52 -133 140c0 26 6 62 15 100l73 303h119l-74 -304c-6 -26 -9 -50 -9 -62c0 -44 24 -69 69 -69c56 0 102 50 116 116l78 319h119l-130 -533h-119l15 62c-34 -38 -79 -72 -139 -72z" />
    <glyph glyph-name="v" unicode="v" horiz-adv-x="510" 
d="M133 -4l-52 537h122l19 -386l203 386h127l-312 -537h-107z" />
    <glyph glyph-name="w" unicode="w" horiz-adv-x="747" 
d="M100 -4l-14 537h120l-4 -364l182 365h103l8 -366l172 365h118l-278 -537h-107l-10 363l-184 -363h-106z" />
    <glyph glyph-name="x" unicode="x" horiz-adv-x="498" 
d="M218 533l53 -169l125 169h139l-220 -265l99 -268h-125l-57 182l-134 -182h-139l230 278l-96 255h125z" />
    <glyph glyph-name="y" unicode="y" horiz-adv-x="510" 
d="M138 -3l-51 536h121l20 -391l194 391h127l-295 -542c-56 -103 -105 -144 -179 -144c-43 0 -82 16 -111 42l57 81c18 -14 37 -23 55 -23c22 0 40 14 62 50z" />
    <glyph glyph-name="z" unicode="z" horiz-adv-x="464" 
d="M-25 0l21 83l319 354h-230l24 96h378l-20 -83l-321 -353h240l-25 -97h-386z" />
    <glyph glyph-name="Aacute" unicode="&#xc1;" horiz-adv-x="656" 
d="M-46 0l427 705h118l82 -705h-123l-17 169h-260l-98 -169h-129zM249 276h180l-24 281zM399 758l139 141l103 -46l-141 -95h-101z" />
    <glyph glyph-name="aacute" unicode="&#xe1;" horiz-adv-x="508" 
d="M143 -10c-84 0 -138 58 -138 142c0 54 18 103 54 139c37 36 92 57 155 57c50 0 92 -11 131 -25l3 12c4 19 7 37 7 53c0 40 -25 69 -93 69c-41 0 -81 -11 -119 -28l-27 96c46 20 101 34 165 34c123 0 190 -55 190 -146c0 -30 -6 -62 -15 -97l-70 -296h-116l16 64
c-38 -45 -84 -74 -143 -74zM192 74c62 0 111 56 126 118l10 43c-25 10 -61 18 -94 18c-35 0 -62 -11 -81 -30s-30 -49 -30 -79c0 -42 26 -70 69 -70zM274 590l138 161l102 -48l-142 -113h-98z" />
    <glyph glyph-name="aacute.alt" horiz-adv-x="575" 
d="M319 590l138 161l102 -48l-142 -113h-98zM201 -9c-92 0 -166 76 -166 214c0 101 37 204 101 268c45 45 102 70 159 70c72 0 118 -41 144 -96l20 86h119l-131 -533h-118l16 66c-42 -44 -86 -75 -144 -75zM254 91c32 0 60 14 86 39c44 44 71 119 71 190
c0 75 -43 122 -101 122c-29 0 -59 -13 -83 -38c-42 -42 -70 -116 -70 -190c0 -76 34 -123 97 -123z" />
    <glyph glyph-name="Abreve" unicode="&#x102;" horiz-adv-x="656" 
d="M-46 0l427 705h118l82 -705h-123l-17 169h-260l-98 -169h-129zM249 276h180l-24 281zM452 758c-88 0 -143 45 -131 127h78c5 -29 25 -45 69 -45s68 16 86 45h89c-29 -82 -101 -127 -191 -127z" />
    <glyph glyph-name="abreve" unicode="&#x103;" horiz-adv-x="508" 
d="M143 -10c-84 0 -138 58 -138 142c0 54 18 103 54 139c37 36 92 57 155 57c50 0 92 -11 131 -25l3 12c4 19 7 37 7 53c0 40 -25 69 -93 69c-41 0 -81 -11 -119 -28l-27 96c46 20 101 34 165 34c123 0 190 -55 190 -146c0 -30 -6 -62 -15 -97l-70 -296h-116l16 64
c-38 -45 -84 -74 -143 -74zM192 74c62 0 111 56 126 118l10 43c-25 10 -61 18 -94 18c-35 0 -62 -11 -81 -30s-30 -49 -30 -79c0 -42 26 -70 69 -70zM336 589c-99 0 -142 61 -139 139h83c1 -34 23 -58 61 -58c46 0 71 24 91 58h83c-27 -82 -90 -139 -179 -139z" />
    <glyph glyph-name="abreve.alt" horiz-adv-x="575" 
d="M201 -9c-92 0 -166 76 -166 214c0 101 37 204 101 268c45 45 102 70 159 70c72 0 118 -41 144 -96l20 86h119l-131 -533h-118l16 66c-42 -44 -86 -75 -144 -75zM254 91c32 0 60 14 86 39c44 44 71 119 71 190c0 75 -43 122 -101 122c-29 0 -59 -13 -83 -38
c-42 -42 -70 -116 -70 -190c0 -76 34 -123 97 -123zM379 589c-99 0 -142 61 -139 139h83c1 -34 23 -58 61 -58c46 0 71 24 91 58h83c-27 -82 -90 -139 -179 -139z" />
    <glyph glyph-name="Acircumflex" unicode="&#xc2;" horiz-adv-x="656" 
d="M-46 0l427 705h118l82 -705h-123l-17 169h-260l-98 -169h-129zM249 276h180l-24 281zM278 756l144 132h112l79 -132h-91l-56 56l-85 -56h-103z" />
    <glyph glyph-name="acircumflex" unicode="&#xe2;" horiz-adv-x="508" 
d="M143 -10c-84 0 -138 58 -138 142c0 54 18 103 54 139c37 36 92 57 155 57c50 0 92 -11 131 -25l3 12c4 19 7 37 7 53c0 40 -25 69 -93 69c-41 0 -81 -11 -119 -28l-27 96c46 20 101 34 165 34c123 0 190 -55 190 -146c0 -30 -6 -62 -15 -97l-70 -296h-116l16 64
c-38 -45 -84 -74 -143 -74zM192 74c62 0 111 56 126 118l10 43c-25 10 -61 18 -94 18c-35 0 -62 -11 -81 -30s-30 -49 -30 -79c0 -42 26 -70 69 -70zM160 591l141 146h111l69 -146h-88l-51 70l-86 -70h-96z" />
    <glyph glyph-name="acircumflex.alt" horiz-adv-x="575" 
d="M205 591l141 146h111l69 -146h-88l-51 70l-86 -70h-96zM201 -9c-92 0 -166 76 -166 214c0 101 37 204 101 268c45 45 102 70 159 70c72 0 118 -41 144 -96l20 86h119l-131 -533h-118l16 66c-42 -44 -86 -75 -144 -75zM254 91c32 0 60 14 86 39c44 44 71 119 71 190
c0 75 -43 122 -101 122c-29 0 -59 -13 -83 -38c-42 -42 -70 -116 -70 -190c0 -76 34 -123 97 -123z" />
    <glyph glyph-name="Adieresis" unicode="&#xc4;" horiz-adv-x="656" 
d="M-46 0l427 705h118l82 -705h-123l-17 169h-260l-98 -169h-129zM249 276h180l-24 281zM304 761l27 108h118l-28 -108h-117zM487 761l28 108h117l-28 -108h-117z" />
    <glyph glyph-name="adieresis" unicode="&#xe4;" horiz-adv-x="508" 
d="M143 -10c-84 0 -138 58 -138 142c0 54 18 103 54 139c37 36 92 57 155 57c50 0 92 -11 131 -25l3 12c4 19 7 37 7 53c0 40 -25 69 -93 69c-41 0 -81 -11 -119 -28l-27 96c46 20 101 34 165 34c123 0 190 -55 190 -146c0 -30 -6 -62 -15 -97l-70 -296h-116l16 64
c-38 -45 -84 -74 -143 -74zM192 74c62 0 111 56 126 118l10 43c-25 10 -61 18 -94 18c-35 0 -62 -11 -81 -30s-30 -49 -30 -79c0 -42 26 -70 69 -70zM181 593l28 113h116l-29 -113h-115zM357 593l30 113h115l-29 -113h-116z" />
    <glyph glyph-name="adieresis.alt" horiz-adv-x="575" 
d="M225 593l28 113h116l-29 -113h-115zM401 593l30 113h115l-29 -113h-116zM201 -9c-92 0 -166 76 -166 214c0 101 37 204 101 268c45 45 102 70 159 70c72 0 118 -41 144 -96l20 86h119l-131 -533h-118l16 66c-42 -44 -86 -75 -144 -75zM254 91c32 0 60 14 86 39
c44 44 71 119 71 190c0 75 -43 122 -101 122c-29 0 -59 -13 -83 -38c-42 -42 -70 -116 -70 -190c0 -76 34 -123 97 -123z" />
    <glyph glyph-name="AE" unicode="&#xc6;" horiz-adv-x="890" 
d="M-57 0l492 700h511l-29 -108h-301l-43 -186h266l-28 -107h-266l-45 -191h307l-28 -108h-426l40 169h-205l-115 -169h-130zM269 276h152l76 319h-16z" />
    <glyph glyph-name="ae" unicode="&#xe6;" horiz-adv-x="813" 
d="M540 -10c-82 0 -146 35 -178 109c-55 -71 -123 -109 -206 -109c-99 0 -151 56 -151 142c0 59 21 106 54 139c37 36 92 57 155 57c50 0 92 -11 131 -25l3 12c5 23 7 37 7 53c0 40 -25 69 -93 69c-41 0 -81 -11 -119 -28l-27 96c46 20 101 34 166 34c80 0 134 -30 155 -83
c43 50 101 87 173 87c106 0 177 -81 177 -196c0 -35 -7 -77 -23 -123h-326v-8c0 -80 39 -130 106 -130c46 0 77 16 115 44l51 -81c-45 -35 -102 -59 -170 -59zM199 74c50 0 105 38 143 89c-3 21 -3 47 -2 66c-26 13 -70 24 -104 24c-36 0 -64 -11 -83 -30s-30 -49 -30 -79
c0 -42 26 -70 76 -70zM507 407c-25 -25 -45 -63 -57 -105h221c4 18 6 31 6 51c0 52 -27 93 -82 93c-34 0 -63 -15 -88 -39z" />
    <glyph glyph-name="AEacute" unicode="&#x1fc;" horiz-adv-x="890" 
d="M566 750l139 141l103 -46l-141 -95h-101zM-57 0l492 700h511l-29 -108h-301l-43 -186h266l-28 -107h-266l-45 -191h307l-28 -108h-426l40 169h-205l-115 -169h-130zM269 276h152l76 319h-16z" />
    <glyph glyph-name="aeacute" unicode="&#x1fd;" horiz-adv-x="813" 
d="M540 -10c-82 0 -146 35 -178 109c-55 -71 -123 -109 -206 -109c-99 0 -151 56 -151 142c0 59 21 106 54 139c37 36 92 57 155 57c50 0 92 -11 131 -25l3 12c5 23 7 37 7 53c0 40 -25 69 -93 69c-41 0 -81 -11 -119 -28l-27 96c46 20 101 34 166 34c80 0 134 -30 155 -83
c43 50 101 87 173 87c106 0 177 -81 177 -196c0 -35 -7 -77 -23 -123h-326v-8c0 -80 39 -130 106 -130c46 0 77 16 115 44l51 -81c-45 -35 -102 -59 -170 -59zM199 74c50 0 105 38 143 89c-3 21 -3 47 -2 66c-26 13 -70 24 -104 24c-36 0 -64 -11 -83 -30s-30 -49 -30 -79
c0 -42 26 -70 76 -70zM507 407c-25 -25 -45 -63 -57 -105h221c4 18 6 31 6 51c0 52 -27 93 -82 93c-34 0 -63 -15 -88 -39zM415 589l138 161l102 -48l-142 -113h-98z" />
    <glyph glyph-name="Agrave" unicode="&#xc0;" horiz-adv-x="656" 
d="M-46 0l427 705h118l82 -705h-123l-17 169h-260l-98 -169h-129zM249 276h180l-24 281zM407 758l-101 95l107 46l77 -141h-83z" />
    <glyph glyph-name="agrave" unicode="&#xe0;" horiz-adv-x="508" 
d="M143 -10c-84 0 -138 58 -138 142c0 54 18 103 54 139c37 36 92 57 155 57c50 0 92 -11 131 -25l3 12c4 19 7 37 7 53c0 40 -25 69 -93 69c-41 0 -81 -11 -119 -28l-27 96c46 20 101 34 165 34c123 0 190 -55 190 -146c0 -30 -6 -62 -15 -97l-70 -296h-116l16 64
c-38 -45 -84 -74 -143 -74zM192 74c62 0 111 56 126 118l10 43c-25 10 -61 18 -94 18c-35 0 -62 -11 -81 -30s-30 -49 -30 -79c0 -42 26 -70 69 -70zM279 590l-91 113l106 48l66 -161h-81z" />
    <glyph glyph-name="agrave.alt" horiz-adv-x="575" 
d="M201 -9c-92 0 -166 76 -166 214c0 101 37 204 101 268c45 45 102 70 159 70c72 0 118 -41 144 -96l20 86h119l-131 -533h-118l16 66c-42 -44 -86 -75 -144 -75zM254 91c32 0 60 14 86 39c44 44 71 119 71 190c0 75 -43 122 -101 122c-29 0 -59 -13 -83 -38
c-42 -42 -70 -116 -70 -190c0 -76 34 -123 97 -123zM324 590l-91 113l106 48l66 -161h-81z" />
    <glyph glyph-name="Amacron" unicode="&#x100;" horiz-adv-x="656" 
d="M-46 0l427 705h118l82 -705h-123l-17 169h-260l-98 -169h-129zM249 276h180l-24 281zM293 765l23 87h322l-22 -87h-323z" />
    <glyph glyph-name="amacron" unicode="&#x101;" horiz-adv-x="508" 
d="M143 -10c-84 0 -138 58 -138 142c0 54 18 103 54 139c37 36 92 57 155 57c50 0 92 -11 131 -25l3 12c4 19 7 37 7 53c0 40 -25 69 -93 69c-41 0 -81 -11 -119 -28l-27 96c46 20 101 34 165 34c123 0 190 -55 190 -146c0 -30 -6 -62 -15 -97l-70 -296h-116l16 64
c-38 -45 -84 -74 -143 -74zM192 74c62 0 111 56 126 118l10 43c-25 10 -61 18 -94 18c-35 0 -62 -11 -81 -30s-30 -49 -30 -79c0 -42 26 -70 69 -70zM175 596l23 85h301l-22 -85h-302z" />
    <glyph glyph-name="amacron.alt" horiz-adv-x="575" 
d="M201 -9c-92 0 -166 76 -166 214c0 101 37 204 101 268c45 45 102 70 159 70c72 0 118 -41 144 -96l20 86h119l-131 -533h-118l16 66c-42 -44 -86 -75 -144 -75zM254 91c32 0 60 14 86 39c44 44 71 119 71 190c0 75 -43 122 -101 122c-29 0 -59 -13 -83 -38
c-42 -42 -70 -116 -70 -190c0 -76 34 -123 97 -123zM219 596l23 85h301l-22 -85h-302z" />
    <glyph glyph-name="Aogonek" unicode="&#x104;" horiz-adv-x="656" 
d="M571 -92l-14 -57c-13 -2 -24 -3 -37 -3c-60 0 -95 23 -95 60c0 31 23 61 61 92h-28l-17 169h-260l-98 -169h-129l427 705h118l82 -705h-18c-29 -31 -44 -48 -44 -66c0 -20 18 -26 52 -26zM249 276h180l-24 281z" />
    <glyph glyph-name="aogonek" unicode="&#x105;" horiz-adv-x="508" 
d="M377 -92l-14 -57c-13 -2 -24 -3 -37 -3c-60 0 -95 23 -95 60c0 31 23 61 61 92h-22l16 64c-38 -45 -84 -74 -143 -74c-84 0 -138 58 -138 142c0 54 18 103 54 139c37 36 92 57 155 57c50 0 92 -11 131 -25l3 12c4 19 7 37 7 53c0 40 -25 69 -93 69
c-41 0 -81 -11 -119 -28l-27 96c46 20 101 34 165 34c123 0 190 -55 190 -146c0 -30 -6 -62 -15 -97l-70 -296h-17c-29 -31 -44 -48 -44 -66c0 -20 18 -26 52 -26zM192 74c62 0 111 56 126 118l10 43c-25 10 -61 18 -94 18c-35 0 -62 -11 -81 -30s-30 -49 -30 -79
c0 -42 26 -70 69 -70z" />
    <glyph glyph-name="aogonek.alt" horiz-adv-x="575" 
d="M438 -92l-14 -57c-13 -2 -24 -3 -37 -3c-60 0 -95 23 -95 60c0 31 23 61 61 92h-24l16 66c-42 -44 -86 -75 -144 -75c-92 0 -166 76 -166 214c0 101 37 204 101 268c45 45 102 70 159 70c72 0 118 -41 144 -96l20 86h119l-131 -533h-17c-29 -31 -44 -48 -44 -66
c0 -20 18 -26 52 -26zM254 91c32 0 60 14 86 39c44 44 71 119 71 190c0 75 -43 122 -101 122c-29 0 -59 -13 -83 -38c-42 -42 -70 -116 -70 -190c0 -76 34 -123 97 -123z" />
    <glyph glyph-name="Aring" unicode="&#xc5;" horiz-adv-x="656" 
d="M-46 0l406 671c-15 16 -23 36 -23 58c0 58 45 110 122 110c58 0 101 -41 101 -89c0 -39 -20 -75 -55 -94l76 -656h-123l-17 169h-260l-98 -169h-129zM249 276h180l-24 281zM442 686c41 0 65 31 65 59c0 29 -21 49 -51 49c-42 0 -66 -32 -66 -61c0 -28 20 -47 52 -47z" />
    <glyph glyph-name="aring" unicode="&#xe5;" horiz-adv-x="508" 
d="M143 -10c-84 0 -138 58 -138 142c0 54 18 103 54 139c37 36 92 57 155 57c50 0 92 -11 131 -25l3 12c4 19 7 37 7 53c0 40 -25 69 -93 69c-41 0 -81 -11 -119 -28l-27 96c46 20 101 34 165 34c123 0 190 -55 190 -146c0 -30 -6 -62 -15 -97l-70 -296h-116l16 64
c-38 -45 -84 -74 -143 -74zM192 74c62 0 111 56 126 118l10 43c-25 10 -61 18 -94 18c-35 0 -62 -11 -81 -30s-30 -49 -30 -79c0 -42 26 -70 69 -70zM457 706c0 -61 -47 -117 -115 -117c-58 0 -97 40 -97 92c0 61 48 118 115 118c59 0 97 -41 97 -93zM294 685
c0 -32 21 -54 51 -54c39 0 64 36 64 71c0 32 -21 53 -51 53c-38 0 -64 -36 -64 -70z" />
    <glyph glyph-name="aring.alt" horiz-adv-x="575" 
d="M500 706c0 -61 -47 -117 -115 -117c-58 0 -97 40 -97 92c0 61 48 118 115 118c59 0 97 -41 97 -93zM337 685c0 -32 21 -54 51 -54c39 0 64 36 64 71c0 32 -21 53 -51 53c-38 0 -64 -36 -64 -70zM201 -9c-92 0 -166 76 -166 214c0 101 37 204 101 268c45 45 102 70 159 70
c72 0 118 -41 144 -96l20 86h119l-131 -533h-118l16 66c-42 -44 -86 -75 -144 -75zM254 91c32 0 60 14 86 39c44 44 71 119 71 190c0 75 -43 122 -101 122c-29 0 -59 -13 -83 -38c-42 -42 -70 -116 -70 -190c0 -76 34 -123 97 -123z" />
    <glyph glyph-name="aring.alt2" horiz-adv-x="508" 
d="M270 0l16 64c-38 -45 -84 -74 -143 -74c-84 0 -138 58 -138 142c0 54 18 103 54 139c37 36 92 57 155 57c50 0 92 -11 131 -25l3 12c4 19 7 37 7 53c0 40 -25 69 -93 69c-41 0 -81 -11 -119 -28l-27 96c43 19 84 28 129 32c-12 15 -17 34 -17 55c0 59 48 114 114 114
c59 0 98 -40 98 -92c0 -38 -19 -74 -51 -95c55 -23 82 -69 82 -126c0 -30 -6 -62 -15 -97l-70 -296h-116zM326 540c39 0 65 35 65 70c0 32 -20 53 -50 53c-39 0 -65 -35 -65 -70c0 -32 21 -53 50 -53zM192 74c62 0 112 56 126 118l10 43c-25 10 -62 18 -94 18
c-35 0 -61 -11 -81 -30c-19 -19 -30 -48 -30 -79c0 -42 26 -70 69 -70z" />
    <glyph glyph-name="Aringacute" unicode="&#x1fa;" horiz-adv-x="656" 
d="M-46 0l406 671c-15 16 -23 36 -23 58c0 58 45 110 122 110c58 0 101 -41 101 -89c0 -39 -20 -75 -55 -94l76 -656h-123l-17 169h-260l-98 -169h-129zM249 276h180l-24 281zM422 864l140 122l101 -47l-140 -75h-101zM442 686c41 0 65 31 65 59c0 29 -21 49 -51 49
c-42 0 -66 -32 -66 -61c0 -28 20 -47 52 -47z" />
    <glyph glyph-name="aringacute" unicode="&#x1fb;" horiz-adv-x="508" 
d="M339 831l136 132l100 -47l-140 -85h-96zM143 -10c-84 0 -138 58 -138 142c0 54 18 103 54 139c37 36 92 57 155 57c50 0 92 -11 131 -25l3 12c4 19 7 37 7 53c0 40 -25 69 -93 69c-41 0 -81 -11 -119 -28l-27 96c46 20 101 34 165 34c123 0 190 -55 190 -146
c0 -30 -6 -62 -15 -97l-70 -296h-116l16 64c-38 -45 -84 -74 -143 -74zM192 74c62 0 111 56 126 118l10 43c-25 10 -61 18 -94 18c-35 0 -62 -11 -81 -30s-30 -49 -30 -79c0 -42 26 -70 69 -70zM459 705c0 -61 -47 -117 -115 -117c-58 0 -97 40 -97 92c0 61 48 118 115 118
c59 0 97 -41 97 -93zM296 684c0 -32 21 -54 51 -54c39 0 64 36 64 71c0 32 -21 53 -51 53c-38 0 -64 -36 -64 -70z" />
    <glyph glyph-name="aringacute.alt" horiz-adv-x="575" 
d="M381 831l136 132l101 -47l-140 -85h-97zM500 705c0 -61 -47 -117 -115 -117c-58 0 -97 40 -97 92c0 61 48 118 115 118c59 0 97 -41 97 -93zM337 684c0 -32 21 -54 51 -54c39 0 64 36 64 71c0 32 -21 53 -51 53c-38 0 -64 -36 -64 -70zM201 -9c-92 0 -166 76 -166 214
c0 101 37 204 101 268c45 45 102 70 159 70c72 0 118 -41 144 -96l20 86h119l-131 -533h-118l16 66c-42 -44 -86 -75 -144 -75zM254 91c32 0 60 14 86 39c44 44 71 119 71 190c0 75 -43 122 -101 122c-29 0 -59 -13 -83 -38c-42 -42 -70 -116 -70 -190
c0 -76 34 -123 97 -123z" />
    <glyph glyph-name="aringacute.alt2" horiz-adv-x="508" 
d="M319 739l136 132l99 -46l-139 -86h-96zM270 0l16 64c-38 -45 -84 -74 -143 -74c-84 0 -138 58 -138 142c0 54 18 103 54 139c37 36 92 57 155 57c50 0 92 -11 131 -25l3 12c4 19 7 37 7 53c0 40 -25 69 -93 69c-41 0 -81 -11 -119 -28l-27 96c43 19 84 28 129 32
c-12 15 -17 34 -17 55c0 59 48 114 114 114c59 0 98 -40 98 -92c0 -38 -19 -74 -51 -95c55 -23 82 -69 82 -126c0 -30 -6 -62 -15 -97l-70 -296h-116zM326 540c39 0 65 35 65 70c0 32 -20 53 -50 53c-39 0 -65 -35 -65 -70c0 -32 21 -53 50 -53zM192 74c62 0 112 56 126 118
l10 43c-25 10 -62 18 -94 18c-35 0 -61 -11 -81 -30c-19 -19 -30 -48 -30 -79c0 -42 26 -70 69 -70z" />
    <glyph glyph-name="Atilde" unicode="&#xc3;" horiz-adv-x="656" 
d="M-46 0l427 705h118l82 -705h-123l-17 169h-260l-98 -169h-129zM249 276h180l-24 281zM346 753l-66 23c32 70 63 113 120 113c30 0 53 -10 78 -21c20 -11 36 -18 50 -18c26 0 40 16 58 44l66 -22c-32 -70 -63 -113 -120 -113c-30 0 -53 10 -79 21c-20 11 -36 18 -50 18
c-25 0 -40 -16 -57 -45z" />
    <glyph glyph-name="atilde" unicode="&#xe3;" horiz-adv-x="508" 
d="M143 -10c-84 0 -138 58 -138 142c0 54 18 103 54 139c37 36 92 57 155 57c50 0 92 -11 131 -25l3 12c4 19 7 37 7 53c0 40 -25 69 -93 69c-41 0 -81 -11 -119 -28l-27 96c46 20 101 34 165 34c123 0 190 -55 190 -146c0 -30 -6 -62 -15 -97l-70 -296h-116l16 64
c-38 -45 -84 -74 -143 -74zM192 74c62 0 111 56 126 118l10 43c-25 10 -61 18 -94 18c-35 0 -62 -11 -81 -30s-30 -49 -30 -79c0 -42 26 -70 69 -70zM455 729l65 -22c-32 -72 -62 -117 -119 -117c-30 0 -52 11 -74 24c-19 11 -34 19 -47 19c-25 0 -40 -18 -56 -49l-65 22
c30 73 62 117 119 117c28 0 50 -11 73 -23c20 -12 34 -19 48 -19c25 0 38 17 56 48z" />
    <glyph glyph-name="atilde.alt" horiz-adv-x="575" 
d="M201 -9c-92 0 -166 76 -166 214c0 101 37 204 101 268c45 45 102 70 159 70c72 0 118 -41 144 -96l20 86h119l-131 -533h-118l16 66c-42 -44 -86 -75 -144 -75zM254 91c32 0 60 14 86 39c44 44 71 119 71 190c0 75 -43 122 -101 122c-29 0 -59 -13 -83 -38
c-42 -42 -70 -116 -70 -190c0 -76 34 -123 97 -123zM499 729l65 -22c-32 -72 -62 -117 -119 -117c-30 0 -52 11 -74 24c-19 11 -34 19 -47 19c-25 0 -40 -18 -56 -49l-65 22c30 73 62 117 119 117c28 0 50 -11 73 -23c20 -12 34 -19 48 -19c25 0 38 17 56 48z" />
    <glyph glyph-name="Cacute" unicode="&#x106;" horiz-adv-x="604" 
d="M332 -10c-161 0 -273 107 -273 283c0 120 47 252 130 336c65 64 139 101 233 101c103 0 177 -49 226 -118l-95 -79c-37 54 -77 86 -139 86c-51 0 -96 -25 -133 -61c-57 -58 -97 -160 -97 -261c0 -106 58 -176 148 -176c50 0 94 22 139 60l69 -84
c-56 -53 -124 -87 -208 -87zM398 758l139 141l103 -46l-141 -95h-101z" />
    <glyph glyph-name="cacute" unicode="&#x107;" horiz-adv-x="467" 
d="M281 590l138 161l102 -48l-142 -113h-98zM240 -10c-121 0 -206 83 -206 220c0 97 38 193 99 254c49 48 108 78 179 78c92 0 141 -41 176 -95l-88 -69c-23 37 -49 62 -91 62c-33 0 -62 -15 -86 -39c-43 -44 -71 -122 -71 -188c0 -80 42 -122 94 -122c38 0 65 19 98 46
l60 -77c-42 -39 -92 -70 -164 -70z" />
    <glyph glyph-name="Ccaron" unicode="&#x10c;" horiz-adv-x="604" 
d="M332 -10c-161 0 -273 107 -273 283c0 120 47 252 130 336c65 64 139 101 233 101c103 0 177 -49 226 -118l-95 -79c-37 54 -77 86 -139 86c-51 0 -96 -25 -133 -61c-57 -58 -97 -160 -97 -261c0 -106 58 -176 148 -176c50 0 94 22 139 60l69 -84
c-56 -53 -124 -87 -208 -87zM657 892l-143 -132h-113l-77 132h89l58 -57l84 57h102z" />
    <glyph glyph-name="ccaron" unicode="&#x10d;" horiz-adv-x="467" 
d="M263 591l-69 146h87l51 -68l86 68h96l-141 -146h-110zM240 -10c-121 0 -206 83 -206 220c0 97 38 193 99 254c49 48 108 78 179 78c92 0 141 -41 176 -95l-88 -69c-23 37 -49 62 -91 62c-33 0 -62 -15 -86 -39c-43 -44 -71 -122 -71 -188c0 -80 42 -122 94 -122
c38 0 65 19 98 46l60 -77c-42 -39 -92 -70 -164 -70z" />
    <glyph glyph-name="Ccedilla" unicode="&#xc7;" horiz-adv-x="604" 
d="M227 -152l-92 42l103 113c-109 34 -179 130 -179 270c0 120 47 252 130 336c65 64 139 101 233 101c103 0 177 -49 226 -118l-95 -79c-37 54 -77 86 -139 86c-51 0 -96 -25 -133 -61c-57 -58 -97 -160 -97 -261c0 -106 58 -176 148 -176c50 0 94 22 139 60l69 -84
c-56 -53 -124 -87 -208 -87h-14z" />
    <glyph glyph-name="ccedilla" unicode="&#xe7;" horiz-adv-x="467" 
d="M152 -152l-92 42l102 113c-78 28 -128 101 -128 207c0 97 38 193 99 254c49 48 108 78 179 78c92 0 141 -41 176 -95l-88 -69c-23 37 -49 62 -91 62c-33 0 -62 -15 -86 -39c-43 -44 -71 -122 -71 -188c0 -80 42 -122 94 -122c38 0 65 19 98 46l60 -77
c-42 -39 -91 -69 -161 -70z" />
    <glyph glyph-name="Cdotaccent" unicode="&#x10a;" horiz-adv-x="604" 
d="M394 761l27 108h121l-28 -108h-120zM332 -10c-161 0 -273 107 -273 283c0 120 47 252 130 336c65 64 139 101 233 101c103 0 177 -49 226 -118l-95 -79c-37 54 -77 86 -139 86c-51 0 -96 -25 -133 -61c-57 -58 -97 -160 -97 -261c0 -106 58 -176 148 -176
c50 0 94 22 139 60l69 -84c-56 -53 -124 -87 -208 -87z" />
    <glyph glyph-name="cdotaccent" unicode="&#x10b;" horiz-adv-x="467" 
d="M240 -10c-121 0 -206 83 -206 220c0 97 38 193 99 254c49 48 108 78 179 78c92 0 141 -41 176 -95l-88 -69c-23 37 -49 62 -91 62c-33 0 -62 -15 -86 -39c-43 -44 -71 -122 -71 -188c0 -80 42 -122 94 -122c38 0 65 19 98 46l60 -77c-42 -39 -92 -70 -164 -70zM272 593
l30 114h118l-29 -114h-119z" />
    <glyph glyph-name="Dcaron" unicode="&#x10e;" horiz-adv-x="661" 
d="M10 0l171 700h162c112 0 182 -32 227 -77c51 -49 73 -119 73 -206c0 -101 -38 -222 -122 -305c-73 -73 -173 -112 -308 -112h-203zM473 544c-28 28 -72 46 -139 46h-60l-116 -480h71c80 0 152 25 202 76c60 60 87 152 87 227c0 56 -16 102 -45 131zM618 884l-143 -132
h-113l-77 132h89l58 -57l84 57h102z" />
    <glyph glyph-name="dcaron" unicode="&#x10f;" horiz-adv-x="575" 
d="M633 581l50 190h94v-3l-95 -187h-49zM329 0l16 66c-42 -44 -86 -75 -144 -75c-92 0 -166 76 -166 214c0 101 37 204 101 268c45 44 101 70 159 70c72 0 118 -41 144 -96l66 275h119l-177 -722h-118zM252 92c32 0 63 14 89 40c44 43 70 119 70 188c0 75 -41 122 -99 122
c-29 0 -60 -13 -85 -37c-43 -43 -70 -116 -70 -190c0 -76 34 -123 95 -123z" />
    <glyph glyph-name="Dcroat" unicode="&#x110;" horiz-adv-x="677" 
d="M23 298l28 108h74l72 294h161c112 0 182 -32 228 -77c50 -49 72 -119 72 -206c0 -101 -38 -222 -121 -305c-73 -73 -173 -112 -309 -112h-202l73 298h-76zM488 544c-27 28 -72 46 -139 46h-59l-44 -184h126l-29 -108h-123l-46 -188h70c81 0 152 25 202 76
c60 60 88 152 88 227c0 56 -16 102 -46 131z" />
    <glyph glyph-name="dcroat" unicode="&#x111;" horiz-adv-x="575" 
d="M335 594l19 70h137l14 58h119l-14 -58h60l-17 -70h-60l-146 -594h-118l16 66c-42 -44 -86 -75 -144 -75c-92 0 -166 76 -166 214c0 101 37 204 101 268c45 44 101 70 159 70c72 0 118 -41 144 -96l35 147h-139zM252 92c32 0 63 14 89 40c44 43 70 119 70 188
c0 75 -41 122 -99 122c-29 0 -60 -13 -85 -37c-43 -43 -70 -116 -70 -190c0 -76 34 -123 95 -123z" />
    <glyph glyph-name="Eacute" unicode="&#xc9;" horiz-adv-x="561" 
d="M353 750l139 141l103 -46l-141 -95h-101zM10 0l171 700h436l-28 -108h-315l-44 -186h280l-28 -107h-280l-44 -191h321l-29 -108h-440z" />
    <glyph glyph-name="eacute" unicode="&#xe9;" horiz-adv-x="521" 
d="M471 224h-325v-8c0 -80 39 -130 106 -130c45 0 77 16 114 44l52 -81c-46 -35 -101 -59 -171 -59c-132 0 -212 87 -212 226c0 94 38 189 100 251c46 46 104 76 176 76c113 0 183 -81 183 -196c0 -35 -6 -77 -23 -123zM215 407c-25 -25 -45 -63 -57 -105h220
c5 18 6 31 6 51c0 52 -26 93 -81 93c-34 0 -64 -15 -88 -39zM291 590l138 161l102 -48l-142 -113h-98z" />
    <glyph glyph-name="Ebreve" unicode="&#x114;" horiz-adv-x="561" 
d="M407 750c-88 0 -143 45 -131 127h78c5 -29 25 -45 69 -45s68 16 86 45h89c-29 -82 -101 -127 -191 -127zM10 0l171 700h436l-28 -108h-315l-44 -186h280l-28 -107h-280l-44 -191h321l-29 -108h-440z" />
    <glyph glyph-name="ebreve" unicode="&#x115;" horiz-adv-x="521" 
d="M471 224h-325v-8c0 -80 39 -130 106 -130c45 0 77 16 114 44l52 -81c-46 -35 -101 -59 -171 -59c-132 0 -212 87 -212 226c0 94 38 189 100 251c46 46 104 76 176 76c113 0 183 -81 183 -196c0 -35 -6 -77 -23 -123zM352 589c-99 0 -142 61 -139 139h83
c1 -34 23 -58 61 -58c46 0 71 24 91 58h83c-27 -82 -90 -139 -179 -139zM215 407c-25 -25 -45 -63 -57 -105h220c5 18 6 31 6 51c0 52 -26 93 -81 93c-34 0 -64 -15 -88 -39z" />
    <glyph glyph-name="Ecaron" unicode="&#x11a;" horiz-adv-x="561" 
d="M612 884l-143 -132h-113l-77 132h89l58 -57l84 57h102zM10 0l171 700h436l-28 -108h-315l-44 -186h280l-28 -107h-280l-44 -191h321l-29 -108h-440z" />
    <glyph glyph-name="ecaron" unicode="&#x11b;" horiz-adv-x="521" 
d="M471 224h-325v-8c0 -80 39 -130 106 -130c45 0 77 16 114 44l52 -81c-46 -35 -101 -59 -171 -59c-132 0 -212 87 -212 226c0 94 38 189 100 251c46 46 104 76 176 76c113 0 183 -81 183 -196c0 -35 -6 -77 -23 -123zM273 591l-69 146h87l51 -68l86 68h96l-141 -146h-110z
M215 407c-25 -25 -45 -63 -57 -105h220c5 18 6 31 6 51c0 52 -26 93 -81 93c-34 0 -64 -15 -88 -39z" />
    <glyph glyph-name="Ecircumflex" unicode="&#xca;" horiz-adv-x="561" 
d="M10 0l171 700h436l-28 -108h-315l-44 -186h280l-28 -107h-280l-44 -191h321l-29 -108h-440zM235 752l144 132h112l79 -132h-91l-56 56l-85 -56h-103z" />
    <glyph glyph-name="ecircumflex" unicode="&#xea;" horiz-adv-x="521" 
d="M471 224h-325v-8c0 -80 39 -130 106 -130c45 0 77 16 114 44l52 -81c-46 -35 -101 -59 -171 -59c-132 0 -212 87 -212 226c0 94 38 189 100 251c46 46 104 76 176 76c113 0 183 -81 183 -196c0 -35 -6 -77 -23 -123zM177 591l141 146h111l69 -146h-88l-51 70l-86 -70h-96
zM215 407c-25 -25 -45 -63 -57 -105h220c5 18 6 31 6 51c0 52 -26 93 -81 93c-34 0 -64 -15 -88 -39z" />
    <glyph glyph-name="Edieresis" unicode="&#xcb;" horiz-adv-x="561" 
d="M258 753l27 108h118l-28 -108h-117zM441 753l28 108h117l-28 -108h-117zM10 0l171 700h436l-28 -108h-315l-44 -186h280l-28 -107h-280l-44 -191h321l-29 -108h-440z" />
    <glyph glyph-name="edieresis" unicode="&#xeb;" horiz-adv-x="521" 
d="M471 224h-325v-8c0 -80 39 -130 106 -130c45 0 77 16 114 44l52 -81c-46 -35 -101 -59 -171 -59c-132 0 -212 87 -212 226c0 94 38 189 100 251c46 46 104 76 176 76c113 0 183 -81 183 -196c0 -35 -6 -77 -23 -123zM215 407c-25 -25 -45 -63 -57 -105h220
c5 18 6 31 6 51c0 52 -26 93 -81 93c-34 0 -64 -15 -88 -39zM373 593l30 113h115l-29 -113h-116zM197 593l28 113h116l-29 -113h-115z" />
    <glyph glyph-name="Edotaccent" unicode="&#x116;" horiz-adv-x="561" 
d="M349 753l27 108h121l-28 -108h-120zM10 0l171 700h436l-28 -108h-315l-44 -186h280l-28 -107h-280l-44 -191h321l-29 -108h-440z" />
    <glyph glyph-name="edotaccent" unicode="&#x117;" horiz-adv-x="521" 
d="M471 224h-325v-8c0 -80 39 -130 106 -130c45 0 77 16 114 44l52 -81c-46 -35 -101 -59 -171 -59c-132 0 -212 87 -212 226c0 94 38 189 100 251c46 46 104 76 176 76c113 0 183 -81 183 -196c0 -35 -6 -77 -23 -123zM215 407c-25 -25 -45 -63 -57 -105h220
c5 18 6 31 6 51c0 52 -26 93 -81 93c-34 0 -64 -15 -88 -39zM283 593l30 114h118l-29 -114h-119z" />
    <glyph glyph-name="Egrave" unicode="&#xc8;" horiz-adv-x="561" 
d="M363 750l-101 95l107 46l77 -141h-83zM10 0l171 700h436l-28 -108h-315l-44 -186h280l-28 -107h-280l-44 -191h321l-29 -108h-440z" />
    <glyph glyph-name="egrave" unicode="&#xe8;" horiz-adv-x="521" 
d="M471 224h-325v-8c0 -80 39 -130 106 -130c45 0 77 16 114 44l52 -81c-46 -35 -101 -59 -171 -59c-132 0 -212 87 -212 226c0 94 38 189 100 251c46 46 104 76 176 76c113 0 183 -81 183 -196c0 -35 -6 -77 -23 -123zM215 407c-25 -25 -45 -63 -57 -105h220
c5 18 6 31 6 51c0 52 -26 93 -81 93c-34 0 -64 -15 -88 -39zM297 590l-91 113l106 48l66 -161h-81z" />
    <glyph glyph-name="Emacron" unicode="&#x112;" horiz-adv-x="561" 
d="M248 757l23 87h322l-22 -87h-323zM10 0l171 700h436l-28 -108h-315l-44 -186h280l-28 -107h-280l-44 -191h321l-29 -108h-440z" />
    <glyph glyph-name="emacron" unicode="&#x113;" horiz-adv-x="521" 
d="M471 224h-325v-8c0 -80 39 -130 106 -130c45 0 77 16 114 44l52 -81c-46 -35 -101 -59 -171 -59c-132 0 -212 87 -212 226c0 94 38 189 100 251c46 46 104 76 176 76c113 0 183 -81 183 -196c0 -35 -6 -77 -23 -123zM192 596l23 85h301l-22 -85h-302zM215 407
c-25 -25 -45 -63 -57 -105h220c5 18 6 31 6 51c0 52 -26 93 -81 93c-34 0 -64 -15 -88 -39z" />
    <glyph glyph-name="Eogonek" unicode="&#x118;" horiz-adv-x="561" 
d="M10 0l171 700h436l-28 -108h-315l-44 -186h280l-28 -107h-280l-44 -191h321l-29 -108h-24c-29 -31 -44 -48 -44 -66c0 -20 18 -26 52 -26l-14 -57c-13 -2 -24 -3 -37 -3c-60 0 -95 23 -95 60c0 31 23 61 61 92h-339z" />
    <glyph glyph-name="eogonek" unicode="&#x119;" horiz-adv-x="521" 
d="M366 130l52 -81c-33 -25 -54 -41 -68 -55c-27 -27 -37 -45 -37 -60c0 -20 17 -26 52 -26l-14 -57c-13 -2 -24 -3 -37 -3c-62 0 -95 23 -95 60c0 25 15 52 48 83c-6 -1 -13 -1 -20 -1c-132 0 -212 87 -212 226c0 94 38 189 100 251c46 46 104 76 176 76
c113 0 183 -81 183 -196c0 -35 -6 -77 -23 -123h-325v-8c0 -80 39 -130 106 -130c45 0 77 16 114 44zM215 407c-25 -25 -45 -63 -57 -105h220c5 18 6 31 6 51c0 52 -26 93 -81 93c-34 0 -64 -15 -88 -39z" />
    <glyph glyph-name="Eth" unicode="&#xd0;" horiz-adv-x="677" 
d="M23 298l28 108h74l72 294h161c112 0 182 -32 228 -77c50 -49 72 -119 72 -206c0 -101 -38 -222 -121 -305c-73 -73 -173 -112 -309 -112h-202l73 298h-76zM488 544c-27 28 -72 46 -139 46h-59l-44 -184h126l-29 -108h-123l-46 -188h70c81 0 152 25 202 76
c60 60 88 152 88 227c0 56 -16 102 -46 131z" />
    <glyph glyph-name="eth" unicode="&#xf0;" horiz-adv-x="557" 
d="M226 568l-20 63l90 26c-18 22 -37 44 -56 65h143l24 -32l106 32l21 -62l-88 -27c49 -81 77 -166 77 -263c0 -128 -44 -240 -111 -307c-45 -46 -106 -74 -174 -74c-121 0 -202 82 -202 221c0 102 38 200 96 257c43 44 96 68 154 68c49 0 85 -20 117 -60
c-13 41 -36 84 -65 126zM247 90c33 0 62 14 86 38c40 42 69 120 69 190c0 76 -38 123 -97 123c-34 0 -63 -14 -87 -39c-40 -40 -67 -117 -67 -188c0 -77 35 -124 96 -124z" />
    <glyph glyph-name="Gbreve" unicode="&#x11e;" horiz-adv-x="662" 
d="M466 758c-88 0 -143 45 -131 127h78c5 -29 25 -45 69 -45s68 16 86 45h89c-29 -82 -101 -127 -191 -127zM337 -10c-143 0 -279 96 -279 285c0 121 47 245 130 327c70 69 156 108 257 108c110 0 179 -42 228 -95l-87 -84c-37 39 -82 68 -151 68c-61 0 -113 -25 -157 -69
c-58 -59 -94 -158 -94 -252c0 -112 69 -178 161 -178c41 0 76 10 101 22l39 163h-140l28 105h255l-88 -347c-58 -33 -121 -53 -203 -53z" />
    <glyph glyph-name="gbreve" unicode="&#x11f;" horiz-adv-x="573" 
d="M206 -152c-79 0 -166 26 -231 72l59 83c52 -38 112 -60 166 -60c44 0 75 15 99 38c21 22 35 51 46 92l11 44c-48 -51 -94 -78 -153 -78c-89 0 -165 63 -165 182c0 90 37 188 99 251c46 45 101 71 158 71c79 0 118 -47 140 -100l22 90h118l-109 -454
c-20 -84 -43 -130 -81 -168c-42 -43 -99 -63 -179 -63zM249 135c36 0 68 16 93 41c30 30 61 89 61 158c0 64 -37 109 -95 109c-35 0 -61 -14 -86 -39c-39 -39 -62 -111 -62 -166c0 -68 35 -103 89 -103zM374 589c-99 0 -142 61 -139 139h83c1 -34 23 -58 61 -58
c46 0 71 24 91 58h83c-27 -82 -90 -139 -179 -139z" />
    <glyph glyph-name="Gcommaaccent" unicode="&#x122;" horiz-adv-x="662" 
d="M183 -261l1 39c46 7 71 27 77 65h-51l25 98h111l-22 -86c-20 -79 -65 -109 -141 -116zM337 -10c-143 0 -279 96 -279 285c0 121 47 245 130 327c70 69 156 108 257 108c110 0 179 -42 228 -95l-87 -84c-37 39 -82 68 -151 68c-61 0 -113 -25 -157 -69
c-58 -59 -94 -158 -94 -252c0 -112 69 -178 161 -178c41 0 76 10 101 22l39 163h-140l28 105h255l-88 -347c-58 -33 -121 -53 -203 -53z" />
    <glyph glyph-name="gcommaaccent" unicode="&#x123;" horiz-adv-x="573" 
d="M467 792l-1 -39c-46 -7 -71 -27 -77 -65h51l-25 -98h-111l22 86c20 79 65 109 141 116zM206 -152c-79 0 -166 26 -231 72l59 83c52 -38 112 -60 166 -60c44 0 75 15 99 38c21 22 35 51 46 92l11 44c-48 -51 -94 -78 -153 -78c-89 0 -165 63 -165 182c0 90 37 188 99 251
c46 45 101 71 158 71c79 0 118 -47 140 -100l22 90h118l-109 -454c-20 -84 -43 -130 -81 -168c-42 -43 -99 -63 -179 -63zM249 135c36 0 68 16 93 41c30 30 61 89 61 158c0 64 -37 109 -95 109c-35 0 -61 -14 -86 -39c-39 -39 -62 -111 -62 -166c0 -68 35 -103 89 -103z" />
    <glyph glyph-name="Gdotaccent" unicode="&#x120;" horiz-adv-x="662" 
d="M409 761l27 108h121l-28 -108h-120zM337 -10c-143 0 -279 96 -279 285c0 121 47 245 130 327c70 69 156 108 257 108c110 0 179 -42 228 -95l-87 -84c-37 39 -82 68 -151 68c-61 0 -113 -25 -157 -69c-58 -59 -94 -158 -94 -252c0 -112 69 -178 161 -178
c41 0 76 10 101 22l39 163h-140l28 105h255l-88 -347c-58 -33 -121 -53 -203 -53z" />
    <glyph glyph-name="gdotaccent" unicode="&#x121;" horiz-adv-x="573" 
d="M206 -152c-79 0 -166 26 -231 72l59 83c52 -38 112 -60 166 -60c44 0 75 15 99 38c21 22 35 51 46 92l11 44c-48 -51 -94 -78 -153 -78c-89 0 -165 63 -165 182c0 90 37 188 99 251c46 45 101 71 158 71c79 0 118 -47 140 -100l22 90h118l-109 -454
c-20 -84 -43 -130 -81 -168c-42 -43 -99 -63 -179 -63zM249 135c36 0 68 16 93 41c30 30 61 89 61 158c0 64 -37 109 -95 109c-35 0 -61 -14 -86 -39c-39 -39 -62 -111 -62 -166c0 -68 35 -103 89 -103zM305 593l30 114h118l-29 -114h-119z" />
    <glyph glyph-name="Hbar" unicode="&#x126;" horiz-adv-x="656" 
d="M74 525l23 85h64l22 90h121l-22 -90h259l22 90h121l-22 -90h66l-23 -85h-64l-128 -525h-121l73 297h-260l-72 -297h-121l128 525h-66zM234 407h259l28 120h-259z" />
    <glyph glyph-name="hbar" unicode="&#x127;" horiz-adv-x="539" 
d="M81 594l17 70h61l14 58h119l-14 -58h138l-17 -70h-138l-29 -123c34 39 79 72 139 72c80 0 133 -52 133 -140c0 -26 -7 -62 -16 -100l-72 -303h-120l74 305c7 25 9 49 9 62c0 44 -24 68 -69 68c-56 0 -101 -50 -116 -116l-78 -319h-118l144 594h-61z" />
    <glyph glyph-name="Iacute" unicode="&#xcd;" horiz-adv-x="285" 
d="M17 0l171 700h122l-171 -700h-122zM208 750l139 141l103 -46l-141 -95h-101z" />
    <glyph glyph-name="iacute" unicode="&#xed;" horiz-adv-x="256" 
d="M159 589l138 161l102 -48l-142 -113h-98zM4 0l130 533h119l-130 -533h-119z" />
    <glyph glyph-name="Ibreve" unicode="&#x12c;" horiz-adv-x="285" 
d="M17 0l171 700h122l-171 -700h-122zM261 750c-88 0 -143 45 -131 127h78c5 -29 25 -45 69 -45s68 16 86 45h89c-29 -82 -101 -127 -191 -127z" />
    <glyph glyph-name="ibreve" unicode="&#x12d;" horiz-adv-x="256" 
d="M4 0l130 533h119l-130 -533h-119zM218 588c-99 0 -142 61 -139 139h83c1 -34 23 -58 61 -58c46 0 71 24 91 58h83c-27 -82 -90 -139 -179 -139z" />
    <glyph glyph-name="Icircumflex" unicode="&#xce;" horiz-adv-x="285" 
d="M17 0l171 700h122l-171 -700h-122zM89 752l144 132h112l79 -132h-91l-56 56l-85 -56h-103z" />
    <glyph glyph-name="icircumflex" unicode="&#xee;" horiz-adv-x="256" 
d="M44 590l141 146h111l69 -146h-88l-51 70l-86 -70h-96zM4 0l130 533h119l-130 -533h-119z" />
    <glyph glyph-name="Idieresis" unicode="&#xcf;" horiz-adv-x="285" 
d="M17 0l171 700h122l-171 -700h-122zM113 753l27 108h118l-28 -108h-117zM296 753l28 108h117l-28 -108h-117z" />
    <glyph glyph-name="idieresis" unicode="&#xef;" horiz-adv-x="256" 
d="M64 592l28 113h116l-29 -113h-115zM240 592l30 113h115l-29 -113h-116zM4 0l130 533h119l-130 -533h-119z" />
    <glyph glyph-name="Idotaccent" unicode="&#x130;" horiz-adv-x="285" 
d="M17 0l171 700h122l-171 -700h-122zM203 753l27 108h121l-28 -108h-120z" />
    <glyph glyph-name="dotlessi" unicode="&#x131;" horiz-adv-x="256" 
d="M4 0l130 533h119l-130 -533h-119z" />
    <glyph glyph-name="Igrave" unicode="&#xcc;" horiz-adv-x="285" 
d="M17 0l171 700h122l-171 -700h-122zM216 750l-101 95l107 46l77 -141h-83z" />
    <glyph glyph-name="igrave" unicode="&#xec;" horiz-adv-x="256" 
d="M4 0l130 533h119l-130 -533h-119zM162 589l-91 113l106 48l66 -161h-81z" />
    <glyph glyph-name="Imacron" unicode="&#x12a;" horiz-adv-x="285" 
d="M17 0l171 700h122l-171 -700h-122zM102 757l23 87h322l-22 -87h-323z" />
    <glyph glyph-name="imacron" unicode="&#x12b;" horiz-adv-x="256" 
d="M4 0l130 533h119l-130 -533h-119zM59 595l23 85h301l-22 -85h-302z" />
    <glyph glyph-name="Iogonek" unicode="&#x12e;" horiz-adv-x="285" 
d="M17 0l171 700h122l-171 -700h-16c-29 -31 -44 -48 -44 -66c0 -20 18 -26 52 -26l-14 -57c-13 -2 -24 -3 -37 -3c-60 0 -95 23 -95 60c0 31 23 61 61 92h-29z" />
    <glyph glyph-name="iogonek" unicode="&#x12f;" horiz-adv-x="256" 
d="M4 0l131 533h118l-130 -533h-17c-29 -31 -44 -48 -44 -66c0 -20 18 -26 52 -26l-14 -57c-13 -2 -24 -3 -37 -3c-60 0 -95 23 -95 60c0 31 23 61 61 92h-25zM148 607l30 116h126l-31 -116h-125z" />
    <glyph glyph-name="Kcommaaccent" unicode="&#x136;" horiz-adv-x="617" 
d="M148 -256l1 39c46 7 71 27 77 65h-51l25 98h111l-22 -86c-20 -79 -65 -109 -141 -116zM10 0l171 700h122l-83 -341l327 341h157l-305 -301l147 -399h-132l-108 312l-130 -127l-44 -185h-122z" />
    <glyph glyph-name="kcommaaccent" unicode="&#x137;" horiz-adv-x="502" 
d="M72 -258l1 39c46 7 71 27 77 65h-51l25 98h111l-22 -86c-20 -79 -65 -109 -141 -116zM-2 0l176 722h119l-97 -404l208 215h151l-224 -209l99 -324h-131l-67 241l-75 -73l-41 -168h-118z" />
    <glyph glyph-name="Lacute" unicode="&#x139;" horiz-adv-x="521" 
d="M215 750l139 141l103 -46l-141 -95h-101zM10 0l171 700h122l-143 -590h296l-29 -110h-417z" />
    <glyph glyph-name="lacute" unicode="&#x13a;" horiz-adv-x="256" 
d="M200 758l139 141l103 -46l-141 -95h-101zM4 0l177 722h118l-176 -722h-119z" />
    <glyph glyph-name="Lcaron" unicode="&#x13d;" horiz-adv-x="521" 
d="M317 559l50 190h94v-3l-95 -187h-49zM10 0l171 700h122l-143 -590h296l-29 -110h-417z" />
    <glyph glyph-name="lcaron" unicode="&#x13e;" horiz-adv-x="256" 
d="M310 581l50 190h94v-3l-95 -187h-49zM4 0l177 722h118l-176 -722h-119z" />
    <glyph glyph-name="Lcommaaccent" unicode="&#x13b;" horiz-adv-x="521" 
d="M93 -259l1 39c46 7 71 27 77 65h-51l25 98h111l-22 -86c-20 -79 -65 -109 -141 -116zM10 0l171 700h122l-143 -590h296l-29 -110h-417z" />
    <glyph glyph-name="lcommaaccent" unicode="&#x13c;" horiz-adv-x="256" 
d="M-53 -259l1 39c46 7 71 27 77 65h-51l25 98h111l-22 -86c-20 -79 -65 -109 -141 -116zM4 0l177 722h118l-176 -722h-119z" />
    <glyph glyph-name="Ldot" unicode="&#x13f;" horiz-adv-x="521" 
d="M356 318l29 115h116l-30 -115h-115zM10 0l171 700h122l-143 -590h296l-29 -110h-417z" />
    <glyph glyph-name="ldot" unicode="&#x140;" horiz-adv-x="333" 
d="M258 317l28 109h98l-29 -109h-97zM4 0l177 722h118l-176 -722h-119z" />
    <glyph glyph-name="Lslash" unicode="&#x141;" horiz-adv-x="545" 
d="M24 244l30 115l71 24l78 317h122l-66 -273l173 58l-29 -115l-172 -57l-49 -203h296l-29 -110h-417l65 268z" />
    <glyph glyph-name="lslash" unicode="&#x142;" horiz-adv-x="297" 
d="M21 264l28 115l75 25l78 318h118l-67 -274l77 27l-29 -114l-76 -26l-81 -335h-119l71 290z" />
    <glyph glyph-name="Nacute" unicode="&#x143;" horiz-adv-x="674" 
d="M399 749l139 141l103 -46l-141 -95h-101zM10 0l171 700h113l175 -490l117 490h119l-171 -700h-103l-182 505l-119 -505h-120z" />
    <glyph glyph-name="nacute" unicode="&#x144;" horiz-adv-x="537" 
d="M289 590l138 161l102 -48l-142 -113h-98zM-2 0l130 533h118l-14 -62c34 39 79 72 139 72c80 0 133 -52 133 -140c0 -26 -7 -62 -16 -100l-72 -303h-120l74 305c7 25 9 49 9 62c0 44 -24 68 -69 68c-56 0 -101 -50 -116 -116l-78 -319h-118z" />
    <glyph glyph-name="Ncaron" unicode="&#x147;" horiz-adv-x="674" 
d="M657 883l-143 -132h-113l-77 132h89l58 -57l84 57h102zM10 0l171 700h113l175 -490l117 490h119l-171 -700h-103l-182 505l-119 -505h-120z" />
    <glyph glyph-name="ncaron" unicode="&#x148;" horiz-adv-x="537" 
d="M271 591l-69 146h87l51 -68l86 68h96l-141 -146h-110zM-2 0l130 533h118l-14 -62c34 39 79 72 139 72c80 0 133 -52 133 -140c0 -26 -7 -62 -16 -100l-72 -303h-120l74 305c7 25 9 49 9 62c0 44 -24 68 -69 68c-56 0 -101 -50 -116 -116l-78 -319h-118z" />
    <glyph glyph-name="Ncommaaccent" unicode="&#x145;" horiz-adv-x="674" 
d="M153 -256l1 39c46 7 71 27 77 65h-51l25 98h111l-22 -86c-20 -79 -65 -109 -141 -116zM10 0l171 700h113l175 -490l117 490h119l-171 -700h-103l-182 505l-119 -505h-120z" />
    <glyph glyph-name="ncommaaccent" unicode="&#x146;" horiz-adv-x="537" 
d="M78 -258l1 39c46 7 71 27 77 65h-51l25 98h111l-22 -86c-20 -79 -65 -109 -141 -116zM-2 0l130 533h118l-14 -62c34 39 79 72 139 72c80 0 133 -52 133 -140c0 -26 -7 -62 -16 -100l-72 -303h-120l74 305c7 25 9 49 9 62c0 44 -24 68 -69 68c-56 0 -101 -50 -116 -116
l-78 -319h-118z" />
    <glyph glyph-name="Ntilde" unicode="&#xd1;" horiz-adv-x="674" 
d="M347 744l-66 23c32 70 63 113 120 113c30 0 53 -10 78 -21c20 -11 36 -18 50 -18c26 0 40 16 58 44l66 -22c-32 -70 -63 -113 -120 -113c-30 0 -53 10 -79 21c-20 11 -36 18 -50 18c-25 0 -40 -16 -57 -45zM10 0l171 700h113l175 -490l117 490h119l-171 -700h-103
l-182 505l-119 -505h-120z" />
    <glyph glyph-name="ntilde" unicode="&#xf1;" horiz-adv-x="537" 
d="M-2 0l130 533h118l-14 -62c34 39 79 72 139 72c80 0 133 -52 133 -140c0 -26 -7 -62 -16 -100l-72 -303h-120l74 305c7 25 9 49 9 62c0 44 -24 68 -69 68c-56 0 -101 -50 -116 -116l-78 -319h-118zM469 729l65 -22c-32 -72 -62 -117 -119 -117c-30 0 -52 11 -74 24
c-19 11 -34 19 -47 19c-25 0 -40 -18 -56 -49l-65 22c30 73 62 117 119 117c28 0 50 -11 73 -23c20 -12 34 -19 48 -19c25 0 38 17 56 48z" />
    <glyph glyph-name="Oacute" unicode="&#xd3;" horiz-adv-x="701" 
d="M403 758l139 141l103 -46l-141 -95h-101zM424 711c159 0 259 -115 259 -281c0 -119 -47 -258 -132 -344c-61 -61 -140 -97 -234 -97c-159 0 -258 115 -258 281c0 118 46 259 131 343c62 62 140 98 234 98zM331 100c50 0 92 22 128 58c63 62 100 178 100 264
c0 108 -54 177 -148 177c-50 0 -93 -20 -129 -57c-62 -63 -99 -178 -99 -264c0 -108 54 -178 148 -178z" />
    <glyph glyph-name="oacute" unicode="&#xf3;" horiz-adv-x="556" 
d="M297 590l138 161l102 -48l-142 -113h-98zM310 543c129 0 210 -92 210 -228c0 -95 -37 -189 -98 -250c-47 -48 -107 -76 -176 -76c-129 0 -210 93 -210 227c0 96 36 189 98 251c47 48 107 76 176 76zM252 92c32 0 61 14 84 37c43 44 68 122 68 183c0 84 -40 128 -100 128
c-32 0 -61 -15 -84 -37c-44 -43 -68 -122 -68 -183c0 -84 40 -128 100 -128z" />
    <glyph glyph-name="Obreve" unicode="&#x14e;" horiz-adv-x="701" 
d="M461 758c-88 0 -143 45 -131 127h78c5 -29 25 -45 69 -45s68 16 86 45h89c-29 -82 -101 -127 -191 -127zM424 711c159 0 259 -115 259 -281c0 -119 -47 -258 -132 -344c-61 -61 -140 -97 -234 -97c-159 0 -258 115 -258 281c0 118 46 259 131 343c62 62 140 98 234 98z
M331 100c50 0 92 22 128 58c63 62 100 178 100 264c0 108 -54 177 -148 177c-50 0 -93 -20 -129 -57c-62 -63 -99 -178 -99 -264c0 -108 54 -178 148 -178z" />
    <glyph glyph-name="obreve" unicode="&#x14f;" horiz-adv-x="556" 
d="M310 543c129 0 210 -92 210 -228c0 -95 -37 -189 -98 -250c-47 -48 -107 -76 -176 -76c-129 0 -210 93 -210 227c0 96 36 189 98 251c47 48 107 76 176 76zM252 92c32 0 61 14 84 37c43 44 68 122 68 183c0 84 -40 128 -100 128c-32 0 -61 -15 -84 -37
c-44 -43 -68 -122 -68 -183c0 -84 40 -128 100 -128zM362 589c-99 0 -142 61 -139 139h83c1 -34 23 -58 61 -58c46 0 71 24 91 58h83c-27 -82 -90 -139 -179 -139z" />
    <glyph glyph-name="Ocircumflex" unicode="&#xd4;" horiz-adv-x="701" 
d="M424 711c159 0 259 -115 259 -281c0 -119 -47 -258 -132 -344c-61 -61 -140 -97 -234 -97c-159 0 -258 115 -258 281c0 118 46 259 131 343c62 62 140 98 234 98zM331 100c50 0 92 22 128 58c63 62 100 178 100 264c0 108 -54 177 -148 177c-50 0 -93 -20 -129 -57
c-62 -63 -99 -178 -99 -264c0 -108 54 -178 148 -178zM289 760l144 132h112l79 -132h-91l-56 56l-85 -56h-103z" />
    <glyph glyph-name="ocircumflex" unicode="&#xf4;" horiz-adv-x="556" 
d="M188 591l141 146h111l69 -146h-88l-51 70l-86 -70h-96zM310 543c129 0 210 -92 210 -228c0 -95 -37 -189 -98 -250c-47 -48 -107 -76 -176 -76c-129 0 -210 93 -210 227c0 96 36 189 98 251c47 48 107 76 176 76zM252 92c32 0 61 14 84 37c43 44 68 122 68 183
c0 84 -40 128 -100 128c-32 0 -61 -15 -84 -37c-44 -43 -68 -122 -68 -183c0 -84 40 -128 100 -128z" />
    <glyph glyph-name="Odieresis" unicode="&#xd6;" horiz-adv-x="701" 
d="M313 761l27 108h118l-28 -108h-117zM496 761l28 108h117l-28 -108h-117zM424 711c159 0 259 -115 259 -281c0 -119 -47 -258 -132 -344c-61 -61 -140 -97 -234 -97c-159 0 -258 115 -258 281c0 118 46 259 131 343c62 62 140 98 234 98zM331 100c50 0 92 22 128 58
c63 62 100 178 100 264c0 108 -54 177 -148 177c-50 0 -93 -20 -129 -57c-62 -63 -99 -178 -99 -264c0 -108 54 -178 148 -178z" />
    <glyph glyph-name="odieresis" unicode="&#xf6;" horiz-adv-x="556" 
d="M207 593l28 113h116l-29 -113h-115zM383 593l30 113h115l-29 -113h-116zM310 543c129 0 210 -92 210 -228c0 -95 -37 -189 -98 -250c-47 -48 -107 -76 -176 -76c-129 0 -210 93 -210 227c0 96 36 189 98 251c47 48 107 76 176 76zM252 92c32 0 61 14 84 37
c43 44 68 122 68 183c0 84 -40 128 -100 128c-32 0 -61 -15 -84 -37c-44 -43 -68 -122 -68 -183c0 -84 40 -128 100 -128z" />
    <glyph glyph-name="OE" unicode="&#x152;" horiz-adv-x="914" 
d="M359 0c-111 0 -181 31 -231 81c-44 44 -69 115 -69 202c0 101 39 222 123 305c73 73 172 112 307 112h481l-28 -108h-302l-43 -186h265l-27 -107h-265l-46 -191h308l-29 -108h-444zM229 156c28 -28 72 -46 139 -46h35l116 480h-45c-81 0 -152 -25 -203 -76
c-59 -60 -86 -152 -86 -227c0 -56 15 -102 44 -131z" />
    <glyph glyph-name="oe" unicode="&#x153;" horiz-adv-x="885" 
d="M835 224h-325v-8c0 -80 39 -130 106 -130c46 0 77 16 115 44l50 -81c-43 -34 -99 -59 -167 -59c-90 0 -151 41 -180 107c-42 -59 -108 -108 -187 -108c-130 0 -211 93 -211 227c0 96 37 189 98 251c47 48 107 76 176 76c85 0 144 -42 173 -112c42 61 108 112 195 112
c111 0 180 -81 180 -196c0 -35 -6 -77 -23 -123zM252 92c32 0 61 14 84 37c43 44 68 122 68 183c0 84 -40 128 -100 128c-32 0 -61 -15 -84 -37c-44 -43 -68 -122 -68 -183c0 -84 40 -128 100 -128zM579 407c-25 -25 -45 -63 -57 -105h220c5 17 6 31 6 51
c0 52 -26 93 -81 93c-34 0 -64 -15 -88 -39z" />
    <glyph glyph-name="Ograve" unicode="&#xd2;" horiz-adv-x="701" 
d="M417 758l-101 95l107 46l77 -141h-83zM424 711c159 0 259 -115 259 -281c0 -119 -47 -258 -132 -344c-61 -61 -140 -97 -234 -97c-159 0 -258 115 -258 281c0 118 46 259 131 343c62 62 140 98 234 98zM331 100c50 0 92 22 128 58c63 62 100 178 100 264
c0 108 -54 177 -148 177c-50 0 -93 -20 -129 -57c-62 -63 -99 -178 -99 -264c0 -108 54 -178 148 -178z" />
    <glyph glyph-name="ograve" unicode="&#xf2;" horiz-adv-x="556" 
d="M310 543c129 0 210 -92 210 -228c0 -95 -37 -189 -98 -250c-47 -48 -107 -76 -176 -76c-129 0 -210 93 -210 227c0 96 36 189 98 251c47 48 107 76 176 76zM252 92c32 0 61 14 84 37c43 44 68 122 68 183c0 84 -40 128 -100 128c-32 0 -61 -15 -84 -37
c-44 -43 -68 -122 -68 -183c0 -84 40 -128 100 -128zM308 590l-91 113l106 48l66 -161h-81z" />
    <glyph glyph-name="Ohungarumlaut" unicode="&#x150;" horiz-adv-x="701" 
d="M424 711c159 0 259 -115 259 -281c0 -119 -47 -258 -132 -344c-61 -61 -140 -97 -234 -97c-159 0 -258 115 -258 281c0 118 46 259 131 343c62 62 140 98 234 98zM331 100c50 0 92 22 128 58c63 62 100 178 100 264c0 108 -54 177 -148 177c-50 0 -93 -20 -129 -57
c-62 -63 -99 -178 -99 -264c0 -108 54 -178 148 -178zM315 758l138 141l98 -46l-141 -95h-95zM478 758l139 141l98 -46l-141 -95h-96z" />
    <glyph glyph-name="ohungarumlaut" unicode="&#x151;" horiz-adv-x="556" 
d="M186 590l136 161l92 -48l-143 -113h-85zM348 590l139 161l90 -48l-143 -113h-86zM310 543c129 0 210 -92 210 -228c0 -95 -37 -189 -98 -250c-47 -48 -107 -76 -176 -76c-129 0 -210 93 -210 227c0 96 36 189 98 251c47 48 107 76 176 76zM252 92c32 0 61 14 84 37
c43 44 68 122 68 183c0 84 -40 128 -100 128c-32 0 -61 -15 -84 -37c-44 -43 -68 -122 -68 -183c0 -84 40 -128 100 -128z" />
    <glyph glyph-name="Omacron" unicode="&#x14c;" horiz-adv-x="701" 
d="M303 765l23 87h322l-22 -87h-323zM424 711c159 0 259 -115 259 -281c0 -119 -47 -258 -132 -344c-61 -61 -140 -97 -234 -97c-159 0 -258 115 -258 281c0 118 46 259 131 343c62 62 140 98 234 98zM331 100c50 0 92 22 128 58c63 62 100 178 100 264
c0 108 -54 177 -148 177c-50 0 -93 -20 -129 -57c-62 -63 -99 -178 -99 -264c0 -108 54 -178 148 -178z" />
    <glyph glyph-name="omacron" unicode="&#x14d;" horiz-adv-x="556" 
d="M202 596l23 85h301l-22 -85h-302zM310 543c129 0 210 -92 210 -228c0 -95 -37 -189 -98 -250c-47 -48 -107 -76 -176 -76c-129 0 -210 93 -210 227c0 96 36 189 98 251c47 48 107 76 176 76zM252 92c32 0 61 14 84 37c43 44 68 122 68 183c0 84 -40 128 -100 128
c-32 0 -61 -15 -84 -37c-44 -43 -68 -122 -68 -183c0 -84 40 -128 100 -128z" />
    <glyph glyph-name="Oslash" unicode="&#xd8;" horiz-adv-x="701" 
d="M424 711c71 0 129 -23 173 -63l56 58h116l-121 -125c23 -42 35 -94 35 -151c0 -119 -47 -258 -132 -344c-61 -61 -140 -97 -234 -97c-71 0 -130 23 -174 63l-55 -57h-115l120 123c-23 42 -34 94 -34 152c0 118 46 259 131 343c62 62 140 98 234 98zM330 96
c52 0 95 22 132 59c61 61 101 177 101 270c0 23 -3 45 -8 65l-328 -356c25 -24 59 -38 103 -38zM179 276c0 -24 2 -46 7 -65l329 355c-25 24 -60 38 -104 38c-52 0 -94 -21 -131 -59c-62 -61 -101 -178 -101 -269z" />
    <glyph glyph-name="oslash" unicode="&#xf8;" horiz-adv-x="556" 
d="M310 543c56 0 103 -17 138 -48l42 42h105l-102 -102c17 -34 27 -74 27 -120c0 -95 -37 -189 -98 -250c-47 -48 -107 -76 -176 -76c-56 0 -103 17 -138 48l-42 -43h-105l101 102c-17 34 -26 74 -26 120c0 96 36 189 98 251c47 48 107 76 176 76zM307 445
c-36 0 -66 -17 -90 -41c-44 -44 -69 -120 -69 -184c0 -15 1 -28 3 -40l222 240c-17 17 -40 25 -66 25zM408 312c0 14 -1 27 -3 39l-222 -239c17 -16 39 -24 66 -24c36 0 66 16 90 40c44 44 69 120 69 184z" />
    <glyph glyph-name="Oslashacute" unicode="&#x1fe;" horiz-adv-x="701" 
d="M424 711c71 0 129 -23 173 -63l56 58h116l-121 -125c23 -42 35 -94 35 -151c0 -119 -47 -258 -132 -344c-61 -61 -140 -97 -234 -97c-71 0 -130 23 -174 63l-55 -57h-115l120 123c-23 42 -34 94 -34 152c0 118 46 259 131 343c62 62 140 98 234 98zM330 96
c52 0 95 22 132 59c61 61 101 177 101 270c0 23 -3 45 -8 65l-328 -356c25 -24 59 -38 103 -38zM179 276c0 -24 2 -46 7 -65l329 355c-25 24 -60 38 -104 38c-52 0 -94 -21 -131 -59c-62 -61 -101 -178 -101 -269zM403 758l139 141l103 -46l-141 -95h-101z" />
    <glyph glyph-name="oslashacute" unicode="&#x1ff;" horiz-adv-x="556" 
d="M310 543c56 0 103 -17 138 -48l42 42h105l-102 -102c17 -34 27 -74 27 -120c0 -95 -37 -189 -98 -250c-47 -48 -107 -76 -176 -76c-56 0 -103 17 -138 48l-42 -43h-105l101 102c-17 34 -26 74 -26 120c0 96 36 189 98 251c47 48 107 76 176 76zM307 445
c-36 0 -66 -17 -90 -41c-44 -44 -69 -120 -69 -184c0 -15 1 -28 3 -40l222 240c-17 17 -40 25 -66 25zM408 312c0 14 -1 27 -3 39l-222 -239c17 -16 39 -24 66 -24c36 0 66 16 90 40c44 44 69 120 69 184zM297 590l138 161l102 -48l-142 -113h-98z" />
    <glyph glyph-name="Otilde" unicode="&#xd5;" horiz-adv-x="701" 
d="M357 753l-66 23c32 70 63 113 120 113c30 0 53 -10 78 -21c20 -11 36 -18 50 -18c26 0 40 16 58 44l66 -22c-32 -70 -63 -113 -120 -113c-30 0 -53 10 -79 21c-20 11 -36 18 -50 18c-25 0 -40 -16 -57 -45zM424 711c159 0 259 -115 259 -281c0 -119 -47 -258 -132 -344
c-61 -61 -140 -97 -234 -97c-159 0 -258 115 -258 281c0 118 46 259 131 343c62 62 140 98 234 98zM331 100c50 0 92 22 128 58c63 62 100 178 100 264c0 108 -54 177 -148 177c-50 0 -93 -20 -129 -57c-62 -63 -99 -178 -99 -264c0 -108 54 -178 148 -178z" />
    <glyph glyph-name="otilde" unicode="&#xf5;" horiz-adv-x="556" 
d="M310 543c129 0 210 -92 210 -228c0 -95 -37 -189 -98 -250c-47 -48 -107 -76 -176 -76c-129 0 -210 93 -210 227c0 96 36 189 98 251c47 48 107 76 176 76zM252 92c32 0 61 14 84 37c43 44 68 122 68 183c0 84 -40 128 -100 128c-32 0 -61 -15 -84 -37
c-44 -43 -68 -122 -68 -183c0 -84 40 -128 100 -128zM483 729l65 -22c-32 -72 -62 -117 -119 -117c-30 0 -52 11 -74 24c-19 11 -34 19 -47 19c-25 0 -40 -18 -56 -49l-65 22c30 73 62 117 119 117c28 0 50 -11 73 -23c20 -12 34 -19 48 -19c25 0 38 17 56 48z" />
    <glyph glyph-name="Racute" unicode="&#x154;" horiz-adv-x="622" 
d="M391 0l-97 242h-4h-101l-57 -242h-122l171 700h200c89 0 153 -21 194 -63c33 -34 51 -79 51 -135c0 -71 -24 -129 -65 -171c-28 -28 -70 -58 -140 -75l106 -256h-136zM217 348h103c63 0 110 15 143 47c24 25 37 58 37 98c0 28 -8 50 -25 67c-21 21 -55 30 -102 30h-98z
M350 750l139 141l103 -46l-141 -95h-101z" />
    <glyph glyph-name="racute" unicode="&#x155;" horiz-adv-x="358" 
d="M216 589l138 161l102 -48l-142 -113h-98zM-2 0l130 533h118l-23 -96c45 68 99 111 180 105l-33 -124h-7c-90 0 -158 -51 -188 -174l-59 -244h-118z" />
    <glyph glyph-name="Rcaron" unicode="&#x158;" horiz-adv-x="622" 
d="M391 0l-97 242h-4h-101l-57 -242h-122l171 700h200c89 0 153 -21 194 -63c33 -34 51 -79 51 -135c0 -71 -24 -129 -65 -171c-28 -28 -70 -58 -140 -75l106 -256h-136zM217 348h103c63 0 110 15 143 47c24 25 37 58 37 98c0 28 -8 50 -25 67c-21 21 -55 30 -102 30h-98z
M610 884l-143 -132h-113l-77 132h89l58 -57l84 57h102z" />
    <glyph glyph-name="rcaron" unicode="&#x159;" horiz-adv-x="358" 
d="M196 590l-69 146h87l51 -68l86 68h96l-141 -146h-110zM-2 0l130 533h118l-23 -96c45 68 99 111 180 105l-33 -124h-7c-90 0 -158 -51 -188 -174l-59 -244h-118z" />
    <glyph glyph-name="Rcommaaccent" unicode="&#x156;" horiz-adv-x="622" 
d="M391 0l-97 242h-4h-101l-57 -242h-122l171 700h200c89 0 153 -21 194 -63c33 -34 51 -79 51 -135c0 -71 -24 -129 -65 -171c-28 -28 -70 -58 -140 -75l106 -256h-136zM217 348h103c63 0 110 15 143 47c24 25 37 58 37 98c0 28 -8 50 -25 67c-21 21 -55 30 -102 30h-98z
M126 -256l1 39c46 7 71 27 77 65h-51l25 98h111l-22 -86c-20 -79 -65 -109 -141 -116z" />
    <glyph glyph-name="rcommaaccent" unicode="&#x157;" horiz-adv-x="358" 
d="M-55 -259l1 39c46 7 71 27 77 65h-51l25 98h111l-22 -86c-20 -79 -65 -109 -141 -116zM-2 0l130 533h118l-23 -96c45 68 99 111 180 105l-33 -124h-7c-90 0 -158 -51 -188 -174l-59 -244h-118z" />
    <glyph glyph-name="Sacute" unicode="&#x15a;" horiz-adv-x="541" 
d="M246 -10c-107 0 -195 49 -253 127l92 78c52 -62 103 -98 167 -98c58 0 100 38 100 88c0 37 -23 66 -100 119c-93 64 -141 118 -141 195c0 58 23 107 56 142c43 43 102 69 172 69c101 0 173 -47 224 -104l-84 -83c-45 50 -89 80 -144 80c-62 0 -97 -42 -97 -83
c0 -39 23 -66 103 -120c87 -59 139 -114 139 -197c0 -59 -22 -108 -60 -146c-42 -42 -107 -67 -174 -67zM322 758l139 141l103 -46l-141 -95h-101z" />
    <glyph glyph-name="sacute" unicode="&#x15b;" horiz-adv-x="425" 
d="M229 590l138 161l102 -48l-142 -113h-98zM182 -10c-80 0 -150 36 -205 97l71 72c48 -52 92 -77 137 -77c39 0 70 26 70 59c0 30 -20 49 -81 89c-73 47 -109 87 -109 151c0 85 70 160 183 160c75 0 139 -37 181 -80l-66 -77c-47 46 -82 66 -121 66c-37 0 -64 -25 -64 -56
c0 -29 18 -46 81 -86c82 -53 110 -98 110 -155c0 -91 -79 -163 -187 -163z" />
    <glyph glyph-name="Scaron" unicode="&#x160;" horiz-adv-x="541" 
d="M246 -10c-107 0 -195 49 -253 127l92 78c52 -62 103 -98 167 -98c58 0 100 38 100 88c0 37 -23 66 -100 119c-93 64 -141 118 -141 195c0 58 23 107 56 142c43 43 102 69 172 69c101 0 173 -47 224 -104l-84 -83c-45 50 -89 80 -144 80c-62 0 -97 -42 -97 -83
c0 -39 23 -66 103 -120c87 -59 139 -114 139 -197c0 -59 -22 -108 -60 -146c-42 -42 -107 -67 -174 -67zM581 892l-143 -132h-113l-77 132h89l58 -57l84 57h102z" />
    <glyph glyph-name="scaron" unicode="&#x161;" horiz-adv-x="425" 
d="M211 591l-69 146h87l51 -68l86 68h96l-141 -146h-110zM182 -10c-80 0 -150 36 -205 97l71 72c48 -52 92 -77 137 -77c39 0 70 26 70 59c0 30 -20 49 -81 89c-73 47 -109 87 -109 151c0 85 70 160 183 160c75 0 139 -37 181 -80l-66 -77c-47 46 -82 66 -121 66
c-37 0 -64 -25 -64 -56c0 -29 18 -46 81 -86c82 -53 110 -98 110 -155c0 -91 -79 -163 -187 -163z" />
    <glyph glyph-name="Scedilla" unicode="&#x15e;" horiz-adv-x="541" 
d="M155 -152l-92 42l100 110c-70 19 -128 60 -170 117l92 78c52 -62 103 -98 167 -98c58 0 100 38 100 88c0 37 -23 66 -100 119c-93 64 -141 118 -141 195c0 58 23 107 56 142c43 43 102 69 172 69c101 0 173 -47 224 -104l-84 -83c-45 50 -89 80 -144 80
c-62 0 -97 -42 -97 -83c0 -39 23 -66 103 -120c87 -59 139 -114 139 -197c0 -59 -22 -108 -60 -146c-42 -42 -107 -67 -174 -67z" />
    <glyph glyph-name="scedilla" unicode="&#x15f;" horiz-adv-x="425" 
d="M99 -152l-92 42l101 111c-50 15 -94 44 -131 86l71 72c48 -52 92 -77 137 -77c39 0 70 26 70 59c0 30 -20 49 -81 89c-73 47 -109 87 -109 151c0 85 70 160 183 160c75 0 139 -37 181 -80l-66 -77c-47 46 -82 66 -121 66c-37 0 -64 -25 -64 -56c0 -29 18 -46 81 -86
c82 -53 110 -98 110 -155c0 -89 -75 -159 -179 -163z" />
    <glyph glyph-name="Scommaaccent" unicode="&#x218;" horiz-adv-x="541" 
d="M87 -261l1 39c46 7 71 27 77 65h-51l25 98h111l-22 -86c-20 -79 -65 -109 -141 -116zM246 -10c-107 0 -195 49 -253 127l92 78c52 -62 103 -98 167 -98c58 0 100 38 100 88c0 37 -23 66 -100 119c-93 64 -141 118 -141 195c0 58 23 107 56 142c43 43 102 69 172 69
c101 0 173 -47 224 -104l-84 -83c-45 50 -89 80 -144 80c-62 0 -97 -42 -97 -83c0 -39 23 -66 103 -120c87 -59 139 -114 139 -197c0 -59 -22 -108 -60 -146c-42 -42 -107 -67 -174 -67z" />
    <glyph glyph-name="scommaaccent" unicode="&#x219;" horiz-adv-x="425" 
d="M25 -259l1 39c46 7 71 27 77 65h-51l25 98h111l-22 -86c-20 -79 -65 -109 -141 -116zM182 -10c-80 0 -150 36 -205 97l71 72c48 -52 92 -77 137 -77c39 0 70 26 70 59c0 30 -20 49 -81 89c-73 47 -109 87 -109 151c0 85 70 160 183 160c75 0 139 -37 181 -80l-66 -77
c-47 46 -82 66 -121 66c-37 0 -64 -25 -64 -56c0 -29 18 -46 81 -86c82 -53 110 -98 110 -155c0 -91 -79 -163 -187 -163z" />
    <glyph glyph-name="Tcaron" unicode="&#x164;" horiz-adv-x="520" 
d="M580 884l-143 -132h-113l-77 132h89l58 -57l84 57h102zM134 0l141 588h-182l30 112h486l-30 -112h-182l-143 -588h-120z" />
    <glyph glyph-name="tcaron" unicode="&#x165;" horiz-adv-x="352" 
d="M328 581l50 190h94v-3l-95 -187h-49zM162 -7c-71 0 -114 38 -114 99c0 21 5 43 10 65l66 274h-60l26 102h59l34 140h119l-34 -140h110l-26 -102h-109l-67 -275c-2 -10 -3 -20 -3 -26c0 -20 15 -32 41 -32c21 0 44 6 63 15l-25 -102c-24 -12 -56 -18 -90 -18z" />
    <glyph glyph-name="Tcommaaccent" unicode="&#x162;" horiz-adv-x="520" 
d="M75 -259l1 39c46 7 71 27 77 65h-51l25 98h111l-22 -86c-20 -79 -65 -109 -141 -116zM134 0l141 588h-182l30 112h486l-30 -112h-182l-143 -588h-120z" />
    <glyph glyph-name="tcommaaccent" unicode="&#x163;" horiz-adv-x="352" 
d="M17 -259l1 39c46 7 71 27 77 65h-51l25 98h111l-22 -86c-20 -79 -65 -109 -141 -116zM162 -7c-71 0 -114 38 -114 99c0 21 5 43 10 65l66 274h-60l26 102h59l34 140h119l-34 -140h110l-26 -102h-109l-67 -275c-2 -10 -3 -20 -3 -26c0 -20 15 -32 41 -32c21 0 44 6 63 15
l-25 -102c-24 -12 -56 -18 -90 -18z" />
    <glyph glyph-name="Thorn" unicode="&#xde;" horiz-adv-x="590" 
d="M10 0l171 700h121l-27 -108h52c90 0 150 -18 196 -63c34 -34 52 -80 52 -140c0 -72 -25 -137 -73 -185c-54 -54 -140 -86 -243 -86h-99l-28 -118h-122zM187 224h77c65 0 112 18 144 48c28 29 41 68 41 109c0 30 -10 53 -26 70c-24 24 -56 32 -102 32h-73z" />
    <glyph glyph-name="thorn" unicode="&#xfe;" horiz-adv-x="575" 
d="M293 722l-63 -255c42 45 86 76 144 76c92 0 166 -76 166 -214c0 -102 -37 -203 -101 -268c-45 -44 -101 -70 -159 -70c-71 0 -118 41 -144 96l-56 -237h-119l213 872h119zM264 92c28 0 60 12 84 37c43 43 70 116 70 190c0 76 -34 123 -94 123c-33 0 -64 -14 -90 -40
c-43 -44 -69 -119 -69 -188c0 -75 40 -122 99 -122z" />
    <glyph glyph-name="Uacute" unicode="&#xda;" horiz-adv-x="655" 
d="M384 749l139 141l103 -46l-141 -95h-101zM288 -11c-136 0 -223 75 -223 206c0 31 6 67 17 107l95 398h121l-100 -412c-6 -27 -10 -51 -10 -77c0 -68 42 -110 113 -110c41 0 74 13 100 39c29 29 51 71 65 129l104 431h120l-108 -449c-21 -83 -52 -145 -95 -188
c-48 -48 -112 -74 -199 -74z" />
    <glyph glyph-name="uacute" unicode="&#xfa;" horiz-adv-x="539" 
d="M294 588l138 161l102 -48l-142 -113h-98zM169 -10c-80 0 -133 52 -133 140c0 26 6 62 15 100l73 303h119l-74 -304c-6 -26 -9 -50 -9 -62c0 -44 24 -69 69 -69c56 0 102 50 116 116l78 319h119l-130 -533h-119l15 62c-34 -38 -79 -72 -139 -72z" />
    <glyph glyph-name="Ubreve" unicode="&#x16c;" horiz-adv-x="655" 
d="M434 743c-88 0 -143 45 -131 127h78c5 -29 25 -45 69 -45s68 16 86 45h89c-29 -82 -101 -127 -191 -127zM288 -11c-136 0 -223 75 -223 206c0 31 6 67 17 107l95 398h121l-100 -412c-6 -27 -10 -51 -10 -77c0 -68 42 -110 113 -110c41 0 74 13 100 39c29 29 51 71 65 129
l104 431h120l-108 -449c-21 -83 -52 -145 -95 -188c-48 -48 -112 -74 -199 -74z" />
    <glyph glyph-name="ubreve" unicode="&#x16d;" horiz-adv-x="539" 
d="M169 -10c-80 0 -133 52 -133 140c0 26 6 62 15 100l73 303h119l-74 -304c-6 -26 -9 -50 -9 -62c0 -44 24 -69 69 -69c56 0 102 50 116 116l78 319h119l-130 -533h-119l15 62c-34 -38 -79 -72 -139 -72zM353 587c-99 0 -142 61 -139 139h83c1 -34 23 -58 61 -58
c46 0 71 24 91 58h83c-27 -82 -90 -139 -179 -139z" />
    <glyph glyph-name="Ucircumflex" unicode="&#xdb;" horiz-adv-x="655" 
d="M288 -11c-136 0 -223 75 -223 206c0 31 6 67 17 107l95 398h121l-100 -412c-6 -27 -10 -51 -10 -77c0 -68 42 -110 113 -110c41 0 74 13 100 39c29 29 51 71 65 129l104 431h120l-108 -449c-21 -83 -52 -145 -95 -188c-48 -48 -112 -74 -199 -74zM265 751l144 132h112
l79 -132h-91l-56 56l-85 -56h-103z" />
    <glyph glyph-name="ucircumflex" unicode="&#xfb;" horiz-adv-x="539" 
d="M179 589l141 146h111l69 -146h-88l-51 70l-86 -70h-96zM169 -10c-80 0 -133 52 -133 140c0 26 6 62 15 100l73 303h119l-74 -304c-6 -26 -9 -50 -9 -62c0 -44 24 -69 69 -69c56 0 102 50 116 116l78 319h119l-130 -533h-119l15 62c-34 -38 -79 -72 -139 -72z" />
    <glyph glyph-name="Udieresis" unicode="&#xdc;" horiz-adv-x="655" 
d="M288 752l27 108h118l-28 -108h-117zM471 752l28 108h117l-28 -108h-117zM288 -11c-136 0 -223 75 -223 206c0 31 6 67 17 107l95 398h121l-100 -412c-6 -27 -10 -51 -10 -77c0 -68 42 -110 113 -110c41 0 74 13 100 39c29 29 51 71 65 129l104 431h120l-108 -449
c-21 -83 -52 -145 -95 -188c-48 -48 -112 -74 -199 -74z" />
    <glyph glyph-name="udieresis" unicode="&#xfc;" horiz-adv-x="539" 
d="M198 591l28 113h116l-29 -113h-115zM374 591l30 113h115l-29 -113h-116zM169 -10c-80 0 -133 52 -133 140c0 26 6 62 15 100l73 303h119l-74 -304c-6 -26 -9 -50 -9 -62c0 -44 24 -69 69 -69c56 0 102 50 116 116l78 319h119l-130 -533h-119l15 62
c-34 -38 -79 -72 -139 -72z" />
    <glyph glyph-name="Ugrave" unicode="&#xd9;" horiz-adv-x="655" 
d="M391 749l-101 95l107 46l77 -141h-83zM288 -11c-136 0 -223 75 -223 206c0 31 6 67 17 107l95 398h121l-100 -412c-6 -27 -10 -51 -10 -77c0 -68 42 -110 113 -110c41 0 74 13 100 39c29 29 51 71 65 129l104 431h120l-108 -449c-21 -83 -52 -145 -95 -188
c-48 -48 -112 -74 -199 -74z" />
    <glyph glyph-name="ugrave" unicode="&#xf9;" horiz-adv-x="539" 
d="M169 -10c-80 0 -133 52 -133 140c0 26 6 62 15 100l73 303h119l-74 -304c-6 -26 -9 -50 -9 -62c0 -44 24 -69 69 -69c56 0 102 50 116 116l78 319h119l-130 -533h-119l15 62c-34 -38 -79 -72 -139 -72zM300 588l-91 113l106 48l66 -161h-81z" />
    <glyph glyph-name="Uhungarumlaut" unicode="&#x170;" horiz-adv-x="655" 
d="M288 -11c-136 0 -223 75 -223 206c0 31 6 67 17 107l95 398h121l-100 -412c-6 -27 -10 -51 -10 -77c0 -68 42 -110 113 -110c41 0 74 13 100 39c29 29 51 71 65 129l104 431h120l-108 -449c-21 -83 -52 -145 -95 -188c-48 -48 -112 -74 -199 -74zM290 749l138 141l98 -46
l-141 -95h-95zM453 749l139 141l98 -46l-141 -95h-96z" />
    <glyph glyph-name="uhungarumlaut" unicode="&#x171;" horiz-adv-x="539" 
d="M169 -10c-80 0 -133 52 -133 140c0 26 6 62 15 100l73 303h119l-74 -304c-6 -26 -9 -50 -9 -62c0 -44 24 -69 69 -69c56 0 102 50 116 116l78 319h119l-130 -533h-119l15 62c-34 -38 -79 -72 -139 -72zM178 588l136 161l92 -48l-143 -113h-85zM340 588l139 161l90 -48
l-143 -113h-86z" />
    <glyph glyph-name="Umacron" unicode="&#x16a;" horiz-adv-x="655" 
d="M278 756l23 87h322l-22 -87h-323zM288 -11c-136 0 -223 75 -223 206c0 31 6 67 17 107l95 398h121l-100 -412c-6 -27 -10 -51 -10 -77c0 -68 42 -110 113 -110c41 0 74 13 100 39c29 29 51 71 65 129l104 431h120l-108 -449c-21 -83 -52 -145 -95 -188
c-48 -48 -112 -74 -199 -74z" />
    <glyph glyph-name="umacron" unicode="&#x16b;" horiz-adv-x="539" 
d="M169 -10c-80 0 -133 52 -133 140c0 26 6 62 15 100l73 303h119l-74 -304c-6 -26 -9 -50 -9 -62c0 -44 24 -69 69 -69c56 0 102 50 116 116l78 319h119l-130 -533h-119l15 62c-34 -38 -79 -72 -139 -72zM193 594l23 85h301l-22 -85h-302z" />
    <glyph glyph-name="Uogonek" unicode="&#x172;" horiz-adv-x="655" 
d="M317 -92l-14 -57c-13 -2 -24 -3 -37 -3c-60 0 -95 23 -95 60c0 29 20 58 55 87c-100 20 -161 90 -161 200c0 31 6 67 17 107l95 398h121l-100 -412c-6 -27 -10 -51 -10 -77c0 -68 42 -110 113 -110c41 0 74 13 100 39c29 29 51 71 65 129l104 431h120l-108 -449
c-21 -83 -52 -145 -95 -188c-46 -46 -107 -72 -188 -74c-23 -24 -34 -39 -34 -55c0 -20 18 -26 52 -26z" />
    <glyph glyph-name="uogonek" unicode="&#x173;" horiz-adv-x="539" 
d="M169 -10c-80 0 -133 52 -133 140c0 26 6 62 15 100l73 303h119l-74 -304c-6 -26 -9 -50 -9 -62c0 -44 24 -69 69 -69c56 0 102 50 116 116l78 319h119l-130 -533h-17c-29 -31 -44 -48 -44 -66c0 -20 18 -26 52 -26l-14 -57c-13 -2 -24 -3 -37 -3c-60 0 -95 23 -95 60
c0 31 23 61 61 92h-25l15 62c-34 -38 -79 -72 -139 -72z" />
    <glyph glyph-name="Uring" unicode="&#x16e;" horiz-adv-x="655" 
d="M288 -11c-136 0 -223 75 -223 206c0 31 6 67 17 107l95 398h121l-100 -412c-6 -27 -10 -51 -10 -77c0 -68 42 -110 113 -110c41 0 74 13 100 39c29 29 51 71 65 129l104 431h120l-108 -449c-21 -83 -52 -145 -95 -188c-48 -48 -112 -74 -199 -74zM464 926
c59 0 101 -39 101 -88c0 -59 -44 -111 -121 -111c-58 0 -101 41 -101 89c0 58 44 110 121 110zM447 773c42 0 66 31 66 60c0 28 -20 48 -52 48c-42 0 -66 -31 -66 -60c0 -28 21 -48 52 -48z" />
    <glyph glyph-name="uring" unicode="&#x16f;" horiz-adv-x="539" 
d="M469 694c0 -61 -47 -117 -115 -117c-58 0 -97 40 -97 92c0 61 48 118 115 118c59 0 97 -41 97 -93zM306 673c0 -32 21 -54 51 -54c39 0 64 36 64 71c0 32 -21 53 -51 53c-38 0 -64 -36 -64 -70zM169 -10c-80 0 -133 52 -133 140c0 26 6 62 15 100l73 303h119l-74 -304
c-6 -26 -9 -50 -9 -62c0 -44 24 -69 69 -69c56 0 102 50 116 116l78 319h119l-130 -533h-119l15 62c-34 -38 -79 -72 -139 -72z" />
    <glyph glyph-name="Wacute" unicode="&#x1e82;" horiz-adv-x="956" 
d="M532 750l139 141l103 -46l-141 -95h-101zM155 -5l-30 705h124l8 -515l265 517h104l22 -517l252 515h137l-376 -705h-112l-22 498l-260 -498h-112z" />
    <glyph glyph-name="wacute" unicode="&#x1e83;" horiz-adv-x="747" 
d="M395 589l138 161l102 -48l-142 -113h-98zM100 -4l-14 537h120l-4 -364l182 365h103l8 -366l172 365h118l-278 -537h-107l-10 363l-184 -363h-106z" />
    <glyph glyph-name="Wcircumflex" unicode="&#x174;" horiz-adv-x="956" 
d="M155 -5l-30 705h124l8 -515l265 517h104l22 -517l252 515h137l-376 -705h-112l-22 498l-260 -498h-112zM413 752l144 132h112l79 -132h-91l-56 56l-85 -56h-103z" />
    <glyph glyph-name="wcircumflex" unicode="&#x175;" horiz-adv-x="747" 
d="M281 590l141 146h111l69 -146h-88l-51 70l-86 -70h-96zM100 -4l-14 537h120l-4 -364l182 365h103l8 -366l172 365h118l-278 -537h-107l-10 363l-184 -363h-106z" />
    <glyph glyph-name="Wdieresis" unicode="&#x1e84;" horiz-adv-x="956" 
d="M437 753l27 108h118l-28 -108h-117zM620 753l28 108h117l-28 -108h-117zM155 -5l-30 705h124l8 -515l265 517h104l22 -517l252 515h137l-376 -705h-112l-22 498l-260 -498h-112z" />
    <glyph glyph-name="wdieresis" unicode="&#x1e85;" horiz-adv-x="747" 
d="M301 592l28 113h116l-29 -113h-115zM477 592l30 113h115l-29 -113h-116zM100 -4l-14 537h120l-4 -364l182 365h103l8 -366l172 365h118l-278 -537h-107l-10 363l-184 -363h-106z" />
    <glyph glyph-name="Wgrave" unicode="&#x1e80;" horiz-adv-x="956" 
d="M540 750l-101 95l107 46l77 -141h-83zM155 -5l-30 705h124l8 -515l265 517h104l22 -517l252 515h137l-376 -705h-112l-22 498l-260 -498h-112z" />
    <glyph glyph-name="wgrave" unicode="&#x1e81;" horiz-adv-x="747" 
d="M100 -4l-14 537h120l-4 -364l182 365h103l8 -366l172 365h118l-278 -537h-107l-10 363l-184 -363h-106zM398 589l-91 113l106 48l66 -161h-81z" />
    <glyph glyph-name="Yacute" unicode="&#xdd;" horiz-adv-x="558" 
d="M149 0l69 284l-122 416h132l75 -307l222 307h146l-334 -426l-67 -274h-121zM329 749l139 141l103 -46l-141 -95h-101z" />
    <glyph glyph-name="yacute" unicode="&#xfd;" horiz-adv-x="510" 
d="M138 -3l-51 536h121l20 -391l194 391h127l-295 -542c-56 -103 -105 -144 -179 -144c-43 0 -82 16 -111 42l57 81c18 -14 37 -23 55 -23c22 0 40 14 62 50zM273 588l138 161l102 -48l-142 -113h-98z" />
    <glyph glyph-name="Ycircumflex" unicode="&#x176;" horiz-adv-x="558" 
d="M149 0l69 284l-122 416h132l75 -307l222 307h146l-334 -426l-67 -274h-121zM211 751l144 132h112l79 -132h-91l-56 56l-85 -56h-103z" />
    <glyph glyph-name="ycircumflex" unicode="&#x177;" horiz-adv-x="510" 
d="M138 -3l-51 536h121l20 -391l194 391h127l-295 -542c-56 -103 -105 -144 -179 -144c-43 0 -82 16 -111 42l57 81c18 -14 37 -23 55 -23c22 0 40 14 62 50zM160 589l141 146h111l69 -146h-88l-51 70l-86 -70h-96z" />
    <glyph glyph-name="Ydieresis" unicode="&#x178;" horiz-adv-x="558" 
d="M149 0l69 284l-122 416h132l75 -307l222 307h146l-334 -426l-67 -274h-121zM234 752l27 108h118l-28 -108h-117zM417 752l28 108h117l-28 -108h-117z" />
    <glyph glyph-name="ydieresis" unicode="&#xff;" horiz-adv-x="510" 
d="M138 -3l-51 536h121l20 -391l194 391h127l-295 -542c-56 -103 -105 -144 -179 -144c-43 0 -82 16 -111 42l57 81c18 -14 37 -23 55 -23c22 0 40 14 62 50zM180 591l28 113h116l-29 -113h-115zM356 591l30 113h115l-29 -113h-116z" />
    <glyph glyph-name="Ygrave" unicode="&#x1ef2;" horiz-adv-x="558" 
d="M149 0l69 284l-122 416h132l75 -307l222 307h146l-334 -426l-67 -274h-121zM339 749l-101 95l107 46l77 -141h-83z" />
    <glyph glyph-name="ygrave" unicode="&#x1ef3;" horiz-adv-x="510" 
d="M138 -3l-51 536h121l20 -391l194 391h127l-295 -542c-56 -103 -105 -144 -179 -144c-43 0 -82 16 -111 42l57 81c18 -14 37 -23 55 -23c22 0 40 14 62 50zM279 588l-91 113l106 48l66 -161h-81z" />
    <glyph glyph-name="Zacute" unicode="&#x179;" horiz-adv-x="578" 
d="M-19 0l23 90l446 504h-317l27 106h476l-23 -90l-447 -504h332l-27 -106h-490zM341 750l139 141l103 -46l-141 -95h-101z" />
    <glyph glyph-name="zacute" unicode="&#x17a;" horiz-adv-x="464" 
d="M248 589l138 161l102 -48l-142 -113h-98zM-25 0l21 83l319 354h-230l24 96h378l-20 -83l-321 -353h240l-25 -97h-386z" />
    <glyph glyph-name="Zcaron" unicode="&#x17d;" horiz-adv-x="578" 
d="M600 884l-143 -132h-113l-77 132h89l58 -57l84 57h102zM-19 0l23 90l446 504h-317l27 106h476l-23 -90l-447 -504h332l-27 -106h-490z" />
    <glyph glyph-name="zcaron" unicode="&#x17e;" horiz-adv-x="464" 
d="M230 590l-69 146h87l51 -68l86 68h96l-141 -146h-110zM-25 0l21 83l319 354h-230l24 96h378l-20 -83l-321 -353h240l-25 -97h-386z" />
    <glyph glyph-name="Zdotaccent" unicode="&#x17b;" horiz-adv-x="578" 
d="M337 753l27 108h121l-28 -108h-120zM-19 0l23 90l446 504h-317l27 106h476l-23 -90l-447 -504h332l-27 -106h-490z" />
    <glyph glyph-name="zdotaccent" unicode="&#x17c;" horiz-adv-x="464" 
d="M-25 0l21 83l319 354h-230l24 96h378l-20 -83l-321 -353h240l-25 -97h-386zM240 592l30 114h118l-29 -114h-119z" />
    <glyph glyph-name="schwa" unicode="&#x259;" horiz-adv-x="521" 
d="M26 186c0 35 6 77 23 123h325v8c0 80 -39 130 -106 130c-45 0 -77 -16 -114 -44l-52 81c46 35 101 59 171 59c132 0 212 -87 212 -226c0 -94 -38 -189 -100 -251c-46 -46 -104 -76 -176 -76c-113 0 -183 81 -183 196zM305 126c25 25 45 62 57 105h-220
c-5 -18 -6 -31 -6 -51c0 -52 26 -93 81 -93c34 0 64 15 88 39z" />
    <glyph glyph-name="germandbls" unicode="&#xdf;" horiz-adv-x="542" 
d="M185 -2l25 93c111 -4 164 55 164 125c0 50 -33 88 -111 102l20 79c95 21 142 81 142 148c0 52 -34 82 -77 82c-54 0 -90 -41 -109 -119l-123 -508h-118l126 517c16 69 41 117 77 153c37 36 90 58 151 58c116 0 186 -73 186 -172c0 -95 -58 -172 -153 -202
c57 -26 102 -72 102 -144c0 -121 -102 -229 -302 -212z" />
    <glyph glyph-name="zero" unicode="0" horiz-adv-x="621" 
d="M381 711c136 0 225 -98 225 -263c0 -127 -47 -288 -136 -377c-52 -52 -116 -82 -192 -82c-135 0 -224 98 -224 262c0 128 47 289 136 378c51 52 116 82 191 82zM286 98c33 0 64 15 91 42c67 66 105 209 105 308c0 104 -42 154 -108 154c-34 0 -64 -15 -91 -42
c-67 -66 -106 -209 -106 -308c0 -104 42 -154 109 -154z" />
    <glyph glyph-name="one" unicode="1" horiz-adv-x="364" 
d="M79 0l139 572l-112 -31l1 107l179 56h85l-172 -704h-120z" />
    <glyph glyph-name="two" unicode="2" horiz-adv-x="527" 
d="M-28 0l26 97l304 264c73 63 105 108 105 159s-34 80 -88 80c-51 0 -93 -28 -144 -77l-74 78c57 65 132 109 225 109c126 0 206 -75 206 -176c0 -95 -47 -157 -147 -239l-216 -189h277l-28 -106h-446z" />
    <glyph glyph-name="three" unicode="3" horiz-adv-x="515" 
d="M199 -11c-94 0 -170 41 -218 107l88 78c35 -46 76 -76 138 -76c74 0 127 56 127 124c0 73 -60 101 -133 101h-31l-2 76l202 196h-247l28 105h406l-23 -90l-220 -206c82 -22 142 -78 142 -173c0 -60 -22 -123 -70 -169c-40 -41 -104 -73 -187 -73z" />
    <glyph glyph-name="three.alt" horiz-adv-x="526" 
d="M217 -11c-113 0 -186 50 -232 114l93 74c36 -49 79 -79 142 -79c80 0 122 55 122 113c0 57 -46 96 -127 96h-44l24 100h53c83 0 151 44 151 115c0 47 -36 80 -90 80c-52 0 -91 -22 -134 -59l-67 78c58 56 122 90 214 90c130 0 200 -80 200 -172c0 -86 -50 -158 -156 -190
c53 -23 97 -71 97 -145c0 -123 -102 -215 -246 -215z" />
    <glyph glyph-name="four" unicode="4" horiz-adv-x="563" 
d="M273 0l37 154h-289l-7 92l428 459h116l-109 -452h82l-25 -99h-81l-37 -154h-115zM143 253h192l70 288z" />
    <glyph glyph-name="five" unicode="5" horiz-adv-x="524" 
d="M207 -10c-95 0 -171 44 -217 104l82 82c38 -45 83 -77 141 -77c87 0 143 69 143 145c0 61 -43 99 -114 99c-28 0 -59 -6 -88 -19l-62 50l97 326h360l-29 -107h-251l-45 -159c20 5 44 10 64 10c111 0 192 -69 192 -189c0 -69 -26 -138 -75 -187c-50 -48 -113 -78 -198 -78
z" />
    <glyph glyph-name="six" unicode="6" horiz-adv-x="554" 
d="M264 -11c-61 0 -114 20 -148 54c-42 42 -65 99 -65 185c0 117 44 298 142 397c50 49 114 86 201 86c72 0 134 -28 182 -72l-69 -90c-30 28 -71 52 -121 52c-46 0 -82 -18 -112 -48c-37 -37 -69 -98 -84 -167c30 36 87 62 145 62c103 0 183 -65 183 -184
c0 -76 -31 -152 -82 -202c-44 -44 -103 -73 -172 -73zM266 92c34 0 64 15 85 35c31 31 45 80 45 122c0 62 -37 101 -98 101c-35 0 -67 -15 -87 -36c-29 -30 -45 -72 -45 -115c0 -35 11 -63 28 -80c17 -16 40 -27 72 -27z" />
    <glyph glyph-name="seven" unicode="7" horiz-adv-x="517" 
d="M11 0l394 594h-289l27 106h425l-25 -93l-394 -607h-138z" />
    <glyph glyph-name="eight" unicode="8" horiz-adv-x="560" 
d="M250 -10c-124 0 -224 74 -225 187c-1 115 78 176 163 199c-47 30 -75 73 -75 132c0 100 83 202 228 202c122 0 206 -71 206 -177c0 -100 -61 -160 -140 -185c56 -30 94 -75 94 -146c0 -110 -95 -212 -251 -212zM256 89c73 0 126 52 126 117c1 61 -44 102 -113 102
c-73 0 -126 -55 -126 -118c-1 -61 47 -101 113 -101zM321 407c66 0 113 53 113 111c1 51 -33 92 -98 92s-110 -53 -111 -111c-1 -50 33 -92 96 -92z" />
    <glyph glyph-name="nine" unicode="9" horiz-adv-x="554" 
d="M203 -11c-73 0 -137 26 -193 78l70 90c38 -35 81 -58 131 -58c42 0 79 16 111 48c37 37 68 96 82 158c-35 -36 -84 -61 -144 -61c-103 0 -182 63 -183 188c0 81 30 156 82 207c45 45 103 72 173 72c64 0 115 -21 149 -55c42 -42 64 -102 64 -194
c0 -112 -45 -288 -144 -387c-51 -52 -115 -86 -198 -86zM298 343c35 0 65 14 87 36c29 29 44 72 44 119c0 37 -11 66 -28 83s-39 27 -71 27c-35 0 -62 -13 -84 -35c-31 -30 -47 -81 -47 -126c1 -69 39 -104 99 -104z" />
    <glyph glyph-name="period" unicode="." horiz-adv-x="268" 
d="M3 0l34 136h132l-34 -136h-132z" />
    <glyph glyph-name="comma" unicode="," horiz-adv-x="268" 
d="M-46 -144l-10 52c71 11 102 41 111 92h-52l34 136h132l-29 -115c-27 -113 -85 -156 -186 -165z" />
    <glyph glyph-name="colon" unicode=":" horiz-adv-x="271" 
d="M5 0l35 136h131l-34 -136h-132zM100 397l35 136h132l-34 -136h-133z" />
    <glyph glyph-name="semicolon" unicode=";" horiz-adv-x="271" 
d="M-45 -144l-10 52c71 11 103 41 111 92h-51l35 136h131l-29 -115c-28 -113 -86 -156 -187 -165zM100 397l35 136h132l-34 -136h-133z" />
    <glyph glyph-name="ellipsis" unicode="&#x2026;" horiz-adv-x="750" 
d="M3 0l34 135h130l-35 -135h-129zM246 0l33 135h131l-34 -135h-130zM488 0l35 135h129l-33 -135h-131z" />
    <glyph glyph-name="periodcentered" unicode="&#xb7;" horiz-adv-x="269" 
d="M57 238l34 137h134l-35 -137h-133z" />
    <glyph glyph-name="bullet" unicode="&#x2022;" horiz-adv-x="442" 
d="M265 493c62 0 101 -41 101 -105c0 -52 -21 -102 -54 -135c-26 -26 -58 -39 -92 -39c-64 0 -102 40 -102 104c0 52 21 102 54 135c26 26 58 40 93 40z" />
    <glyph glyph-name="ampersand" unicode="&#x26;" horiz-adv-x="608" 
d="M501 342l79 -50c-31 -56 -65 -107 -100 -150l63 -99l-91 -55l-49 79c-57 -48 -115 -76 -189 -76c-117 0 -195 70 -195 177c0 97 55 175 185 227c-25 50 -38 96 -38 135c0 97 74 181 192 181c102 0 167 -70 167 -153s-48 -148 -180 -198l82 -136c26 35 51 74 74 118z
M226 91c42 0 86 19 129 54l-106 175c-80 -37 -115 -85 -115 -141c0 -48 31 -88 92 -88zM272 529c0 -24 6 -54 29 -98c85 32 118 68 118 117c0 37 -22 69 -69 69c-46 0 -78 -41 -78 -88z" />
    <glyph glyph-name="exclam" unicode="!" horiz-adv-x="285" 
d="M99 221l71 444l8 35h140l-8 -35l-146 -444h-65zM11 0l34 136h132l-34 -136h-132z" />
    <glyph glyph-name="exclamdown" unicode="&#xa1;" horiz-adv-x="285" 
d="M225 479l-71 -444l-8 -35h-140l8 35l146 444h65zM313 700l-34 -136h-132l34 136h132z" />
    <glyph glyph-name="question" unicode="?" horiz-adv-x="470" 
d="M151 221l22 168l6 6c122 14 188 62 188 128c0 48 -33 75 -82 75c-45 0 -89 -23 -129 -56l-62 87c54 47 121 79 204 79c121 0 195 -75 195 -171c0 -115 -84 -192 -230 -219l-32 -97h-80zM74 0l34 136h131l-34 -136h-131z" />
    <glyph glyph-name="questiondown" unicode="&#xbf;" horiz-adv-x="470" 
d="M359 479l-22 -168l-6 -6c-122 -14 -188 -62 -188 -128c0 -48 33 -75 82 -75c45 0 89 23 129 56l62 -87c-54 -47 -121 -79 -204 -79c-121 0 -195 75 -195 171c0 115 84 192 230 219l32 97h80zM436 700l-34 -136h-131l34 136h131z" />
    <glyph glyph-name="quotedblleft" unicode="&#x201c;" horiz-adv-x="484" 
d="M94 424l28 115c28 112 86 156 186 165l10 -53c-71 -11 -102 -39 -110 -91h52l-35 -136h-131zM309 424l30 115c28 112 85 156 186 165l10 -53c-71 -11 -102 -39 -111 -91h52l-34 -136h-133z" />
    <glyph glyph-name="quotedblright" unicode="&#x201d;" horiz-adv-x="484" 
d="M87 420l-10 52c71 11 102 40 111 92h-52l35 136h131l-28 -116c-28 -111 -86 -155 -187 -164zM303 420l-10 52c71 11 102 40 111 92h-51l34 136h132l-29 -116c-29 -111 -85 -155 -187 -164z" />
    <glyph glyph-name="quoteleft" unicode="&#x2018;" horiz-adv-x="268" 
d="M92 424l29 116c29 112 86 156 187 164l10 -52c-71 -11 -102 -40 -111 -91h51l-34 -137h-132z" />
    <glyph glyph-name="quoteright" unicode="&#x2019;" horiz-adv-x="268" 
d="M86 420l-10 52c71 11 103 40 111 92h-51l34 136h132l-29 -116c-29 -111 -86 -155 -187 -164z" />
    <glyph glyph-name="quotedblbase" unicode="&#x201e;" horiz-adv-x="484" 
d="M-46 -144l-10 52c71 11 103 41 111 92h-52l34 136h132l-29 -115c-27 -113 -85 -156 -186 -165zM170 -144l-10 52c71 11 103 41 111 92h-52l35 136h132l-29 -115c-28 -113 -86 -156 -187 -165z" />
    <glyph glyph-name="quotesinglbase" unicode="&#x201a;" horiz-adv-x="268" 
d="M-46 -144l-10 52c71 11 103 41 111 92h-52l34 136h132l-29 -115c-27 -113 -85 -156 -186 -165z" />
    <glyph glyph-name="guillemotleft" unicode="&#xab;" horiz-adv-x="551" 
d="M148 36l-107 218l2 8l220 223l62 -58l-159 -180l70 -173zM373 36l-107 218l2 8l221 223l61 -58l-159 -180l70 -173z" />
    <glyph glyph-name="guillemotright" unicode="&#xbb;" horiz-adv-x="551" 
d="M399 484l107 -218l-2 -8l-220 -223l-62 58l159 180l-70 173zM174 484l107 -218l-2 -8l-221 -223l-61 58l159 180l-70 173z" />
    <glyph glyph-name="guilsinglleft" unicode="&#x2039;" horiz-adv-x="325" 
d="M148 36l-107 218l2 8l220 223l62 -58l-159 -180l70 -173z" />
    <glyph glyph-name="guilsinglright" unicode="&#x203a;" horiz-adv-x="325" 
d="M174 485l107 -218l-2 -8l-220 -223l-62 58l159 180l-70 173z" />
    <glyph glyph-name="hyphen" unicode="-" horiz-adv-x="368" 
d="M43 249l30 114h271l-29 -114h-272z" />
    <glyph glyph-name="endash" unicode="&#x2013;" horiz-adv-x="490" 
d="M43 250l29 112h394l-28 -112h-395z" />
    <glyph glyph-name="emdash" unicode="&#x2014;" horiz-adv-x="802" 
d="M43 250l29 112h706l-29 -112h-706z" />
    <glyph glyph-name="underscore" unicode="_" horiz-adv-x="555" 
d="M-105 -160l24 92h558l-23 -92h-559z" />
    <glyph glyph-name="slash" unicode="/" horiz-adv-x="447" 
d="M-116 -119l589 908h112l-590 -908h-111z" />
    <glyph glyph-name="backslash" unicode="\" horiz-adv-x="447" 
d="M275 -119l-160 908h98l160 -908h-98z" />
    <glyph glyph-name="bar" unicode="|" horiz-adv-x="310" 
d="M13 -119l223 908h94l-224 -908h-93z" />
    <glyph glyph-name="parenleft" unicode="(" horiz-adv-x="380" 
d="M207 -139c-98 90 -159 197 -159 343c0 148 59 279 156 377c55 54 123 99 202 132l42 -86c-58 -29 -109 -64 -148 -104c-89 -89 -133 -201 -133 -318c0 -110 44 -195 115 -274z" />
    <glyph glyph-name="parenright" unicode=")" horiz-adv-x="380" 
d="M182 714c98 -90 159 -197 159 -343c0 -148 -59 -279 -156 -377c-55 -54 -123 -99 -202 -132l-42 86c58 29 109 64 148 104c89 89 133 201 133 318c0 110 -44 195 -115 274z" />
    <glyph glyph-name="bracketleft" unicode="[" horiz-adv-x="400" 
d="M-5 -130l202 830h267l-24 -93h-153l-157 -644h155l-24 -93h-266z" />
    <glyph glyph-name="bracketright" unicode="]" horiz-adv-x="400" 
d="M413 700l-202 -830h-267l24 93h153l157 644h-155l24 93h266z" />
    <glyph glyph-name="braceleft" unicode="{" horiz-adv-x="421" 
d="M266 -140c-122 25 -166 69 -166 141c0 27 11 60 27 102c15 36 23 60 23 81c0 36 -24 59 -90 59h-24l24 90h25c49 0 80 9 101 30c26 27 37 68 37 127c1 57 11 121 55 165c41 40 99 60 189 60l8 -81c-58 -5 -92 -16 -114 -38c-30 -29 -35 -67 -35 -136
c-2 -41 -6 -99 -43 -136c-27 -27 -60 -40 -105 -46c55 -12 81 -45 81 -89c0 -27 -10 -56 -23 -87c-12 -27 -25 -61 -25 -84c0 -38 19 -59 91 -83z" />
    <glyph glyph-name="braceright" unicode="}" horiz-adv-x="421" 
d="M165 715c122 -25 166 -69 166 -141c0 -27 -11 -60 -27 -102c-15 -36 -23 -60 -23 -81c0 -36 24 -59 90 -59h24l-24 -90h-25c-49 0 -80 -9 -101 -30c-26 -27 -37 -68 -37 -127c-1 -57 -11 -121 -55 -165c-41 -40 -99 -60 -189 -60l-8 81c58 5 92 16 114 38
c30 29 35 67 35 136c2 41 6 99 43 136c27 27 60 40 105 46c-55 12 -81 45 -81 89c0 27 10 56 23 87c12 27 25 61 25 84c0 38 -19 59 -91 83z" />
    <glyph glyph-name="at" unicode="@" horiz-adv-x="874" 
d="M408 -149c-209 0 -361 136 -361 357c0 261 193 505 448 505c220 0 349 -148 349 -324c0 -194 -104 -322 -218 -322c-65 0 -106 38 -117 86c-41 -50 -89 -87 -152 -87c-76 0 -134 55 -134 151c0 153 113 292 232 292c61 0 94 -32 113 -78l20 67l89 -24l-73 -242
c-10 -32 -13 -49 -13 -66c0 -37 23 -57 58 -57c74 0 157 123 157 280c0 158 -114 287 -312 287c-235 0 -411 -231 -411 -468c0 -201 140 -321 325 -321c72 0 131 17 190 46l15 -32c-64 -31 -127 -50 -205 -50zM396 148c67 0 144 91 144 189c0 51 -27 88 -76 88
c-69 0 -139 -98 -139 -190c0 -55 25 -87 71 -87z" />
    <glyph glyph-name="copyright" unicode="&#xa9;" horiz-adv-x="736" 
d="M362 155c-83 0 -143 60 -143 156c0 68 27 141 73 186c35 34 78 55 128 55c59 0 98 -28 125 -68l-57 -44c-20 26 -39 45 -73 45c-26 0 -51 -11 -70 -30c-30 -30 -52 -87 -52 -140c0 -59 30 -94 75 -94c29 0 53 13 80 36l38 -51c-31 -29 -70 -51 -124 -51zM713 408
c0 -114 -42 -236 -123 -318c-63 -63 -144 -102 -242 -102c-178 0 -287 134 -287 304c0 115 42 237 123 318c63 63 145 102 242 102c178 0 287 -134 287 -304zM98 293c0 -147 89 -269 251 -269c86 0 158 33 213 88c77 77 113 192 113 296c1 146 -87 268 -250 268
c-86 0 -157 -32 -212 -88c-78 -77 -114 -191 -115 -295z" />
    <glyph glyph-name="published" unicode="&#x2117;" horiz-adv-x="736" 
d="M324 549h97c84 0 134 -41 134 -114c0 -86 -64 -149 -173 -149h-52l-30 -122h-71zM484 429c0 38 -23 57 -65 57h-42l-32 -137h43c59 0 95 31 96 80zM426 712c178 0 287 -134 287 -304c0 -114 -42 -236 -123 -318c-63 -63 -144 -102 -242 -102c-178 0 -287 134 -287 304
c0 115 42 237 123 318c63 63 145 102 242 102zM349 24c86 0 158 33 213 88c77 77 113 192 113 296c1 146 -87 268 -250 268c-86 0 -157 -32 -212 -88c-78 -77 -114 -191 -115 -295c0 -147 89 -269 251 -269z" />
    <glyph glyph-name="registered.alt" horiz-adv-x="736" 
d="M426 712c178 0 287 -134 287 -304c0 -114 -42 -236 -123 -318c-63 -63 -144 -102 -242 -102c-178 0 -287 134 -287 304c0 115 42 237 123 318c63 63 145 102 242 102zM349 24c86 0 158 33 213 88c77 77 113 192 113 296c1 146 -87 268 -250 268c-86 0 -157 -32 -212 -88
c-78 -77 -114 -191 -115 -295c0 -147 89 -269 251 -269zM318 299l-31 -132h-70l94 385h105c52 0 87 -11 111 -36c20 -18 29 -45 29 -76c0 -42 -16 -73 -35 -92s-43 -31 -72 -39l50 -142h-73l-43 132h-65zM335 359h52c37 0 62 8 80 25c12 13 19 30 19 51c0 16 -5 28 -14 37
c-11 12 -30 17 -59 17h-49z" />
    <glyph glyph-name="registered" unicode="&#xae;" horiz-adv-x="350" 
d="M261 712c88 0 140 -65 140 -146c0 -56 -20 -116 -61 -157c-31 -31 -73 -50 -120 -50c-88 0 -141 65 -141 146c0 56 21 116 61 156c32 32 73 51 121 51zM222 377c41 0 77 18 103 44c38 38 57 94 57 143c0 70 -43 129 -123 129c-42 0 -77 -17 -103 -43
c-38 -38 -57 -94 -57 -144c0 -69 43 -129 123 -129zM210 505l-14 -60h-42l45 187h55c54 0 72 -26 72 -57c0 -32 -18 -53 -49 -63l24 -67h-44l-21 60h-26zM220 541h21c18 0 29 3 35 10c5 5 8 13 8 20c0 18 -13 24 -31 24h-21z" />
    <glyph glyph-name="servicemark" unicode="&#x2120;" horiz-adv-x="614" 
d="M180 384c-50 0 -85 25 -114 59l39 36c24 -30 49 -47 78 -47c30 0 50 17 50 39c0 18 -10 30 -49 53c-49 30 -66 54 -66 88c0 27 10 48 26 64c17 18 42 30 75 30c46 0 79 -23 104 -49l-36 -39c-23 24 -46 40 -72 40s-44 -17 -44 -37s11 -31 52 -56c45 -28 63 -50 63 -86
c0 -26 -9 -47 -26 -64c-19 -19 -45 -31 -80 -31zM325 390l75 310h61l38 -139l103 139h66l-76 -310h-54l52 222l-110 -147h-5l-42 147l-52 -222h-56z" />
    <glyph glyph-name="trademark" unicode="&#x2122;" horiz-adv-x="605" 
d="M120 390l61 257h-79l15 53h215l-13 -53h-80l-62 -257h-57zM314 390l76 310h61l37 -139l104 139h65l-74 -310h-56l53 222l-110 -147h-6l-41 147l-53 -222h-56z" />
    <glyph glyph-name="asterisk" unicode="*" horiz-adv-x="383" 
d="M251 387l-66 16l41 112l-107 -46l-19 67l115 20l-92 73l48 49l73 -91l16 119l65 -17l-41 -112l107 46l19 -66l-115 -21l93 -72l-50 -50l-72 91z" />
    <glyph glyph-name="dagger" unicode="&#x2020;" horiz-adv-x="356" 
d="M136 238l76 276l-112 -10l18 71l106 -10l20 135h79l-46 -135l112 10l-18 -71l-107 10l-57 -276h-71z" />
    <glyph glyph-name="daggerdbl" unicode="&#x2021;" horiz-adv-x="363" 
d="M76 0l47 135l-111 -10l18 71l106 -10l30 164l49 164l-112 -10l19 71l106 -10l20 135h79l-46 -135l112 10l-19 -71l-105 10l-30 -164l-50 -164l112 10l-18 -71l-106 10l-21 -135h-80z" />
    <glyph glyph-name="dollar" unicode="$" horiz-adv-x="546" 
d="M367 761h83l-19 -72c58 -17 107 -48 141 -84l-81 -81c-27 25 -57 47 -91 60l-50 -188c88 -46 141 -103 141 -182c0 -129 -103 -216 -244 -216h-2l-27 -96h-83l30 105c-71 17 -133 55 -176 108l87 76c37 -42 76 -69 120 -81l52 201c-88 46 -142 96 -142 184
c0 119 96 206 238 206h6zM368 201c0 28 -13 50 -51 75l-46 -174c60 6 97 48 97 99zM230 511c0 -28 10 -51 53 -79l44 166c-62 -3 -97 -43 -97 -87z" />
    <glyph glyph-name="sterling" unicode="&#xa3;" horiz-adv-x="546" 
d="M-14 0l20 76l74 24l44 185h-71l26 100h69l28 117c16 66 40 113 74 147c40 40 90 60 156 60c86 0 148 -46 181 -103l-95 -68c-23 38 -52 60 -93 60c-28 0 -48 -10 -65 -27c-19 -19 -33 -48 -43 -89l-23 -97h199l-25 -100h-198l-43 -180h269l-27 -105h-457z" />
    <glyph glyph-name="Euro" unicode="&#x20ac;" horiz-adv-x="610" 
d="M61 396l20 80h66c20 56 50 109 94 152c53 53 116 82 201 82c101 0 171 -56 205 -131l-100 -58c-30 52 -62 80 -116 80c-36 0 -72 -15 -98 -42c-26 -25 -42 -52 -55 -83h188l-21 -80h-192c-9 -29 -16 -58 -19 -87h191l-21 -82h-173c6 -83 49 -128 112 -128
c46 0 78 19 118 58l79 -74c-50 -56 -115 -93 -201 -93c-136 0 -224 90 -233 237h-86l21 82h69c3 29 8 58 15 87h-64z" />
    <glyph glyph-name="yen" unicode="&#xa5;" horiz-adv-x="598" 
d="M175 0l25 107h-157l22 86h156l18 73h-157l23 86h126l-105 348h128l74 -291l213 291h143l-278 -348h129l-22 -86h-158l-18 -73h159l-23 -86h-157l-26 -107h-115z" />
    <glyph glyph-name="cent" unicode="&#xa2;" horiz-adv-x="496" 
d="M376 705h83l-32 -93c43 -17 74 -47 97 -84l-84 -63c-15 20 -31 37 -50 47l-108 -333c41 0 77 18 109 41l56 -77c-39 -33 -93 -66 -173 -66c-8 0 -15 0 -22 1l-29 -84h-83l36 103c-73 33 -117 106 -117 208c0 94 34 189 93 248c49 50 111 76 185 76h13zM176 309
c0 -51 15 -86 40 -107l102 323c-30 -3 -56 -17 -77 -39c-43 -42 -65 -117 -65 -177z" />
    <glyph glyph-name="baht" unicode="&#xe3f;" horiz-adv-x="561" 
d="M-3 0l171 700h198h10l28 80h78l-31 -90c86 -23 128 -81 128 -157c0 -103 -70 -167 -163 -191c52 -22 93 -65 93 -129c0 -130 -108 -213 -286 -213h-2l-39 -118h-79l40 118h-146zM398 220c0 46 -29 78 -81 86l-67 -206c94 0 148 47 148 120zM201 397h79l67 203h-95z
M129 100h53l70 209h-73zM468 514c0 36 -20 65 -57 78l-63 -194c74 9 120 51 120 116z" />
    <glyph glyph-name="colonmonetary" unicode="&#x20a1;" horiz-adv-x="540" 
d="M523 780h59l-43 -119c24 -15 44 -33 61 -53l-69 -87c-11 12 -22 24 -34 34l-162 -452c36 8 66 26 96 50l55 -83c-53 -42 -116 -71 -187 -72l-42 -116h-61l45 121c-21 4 -40 10 -58 19l-50 -140h-60l62 171c-56 48 -87 125 -87 218c0 124 44 259 127 341
c53 54 118 85 195 89l29 79h59l-29 -81c21 -2 41 -7 59 -14zM219 128c18 -15 39 -24 62 -27l173 483c-19 9 -41 15 -65 16zM161 278c0 -42 8 -77 22 -104l150 419c-29 -8 -54 -25 -74 -45c-61 -62 -97 -174 -98 -270z" />
    <glyph glyph-name="florin" unicode="&#x192;" horiz-adv-x="476" 
d="M46 -8c-31 0 -58 5 -78 12l25 96c16 -6 29 -9 44 -9c30 0 54 19 74 70l76 196h-68l25 99h82l44 112c37 97 97 140 180 140c42 0 74 -8 99 -19l-26 -101c-20 11 -41 18 -66 18c-38 0 -66 -24 -87 -75l-29 -75h116l-25 -99h-129l-91 -235c-36 -89 -91 -130 -166 -130z" />
    <glyph glyph-name="naira" unicode="&#x20a6;" horiz-adv-x="730" 
d="M693 211h-95l-52 -211h-124l-53 212h-152l-52 -212h-114l51 211h-92l19 75h92l32 132h-94l20 75h92l51 207h132l53 -208h146l51 208h114l-51 -207h96l-19 -75h-95l-33 -132h96zM290 534l-58 -251h120l-58 251h-4zM478 179h4l56 242h-115z" />
    <glyph glyph-name="peso" unicode="&#x20b1;" horiz-adv-x="662" 
d="M686 421h-79c-11 -47 -34 -90 -69 -125c-55 -55 -136 -86 -232 -86h-88l-50 -210h-121l103 421h-92l19 72h91l51 207h155c85 0 144 -16 189 -62c36 -35 52 -88 52 -145h89zM241 311h72c56 0 100 16 131 47c19 18 32 41 39 67h-215zM309 596l-26 -107h209
c-1 25 -8 56 -27 76c-23 23 -48 31 -93 31h-63z" />
    <glyph glyph-name="R_p" horiz-adv-x="1040" 
d="M1 0l171 700h155c157 0 230 -85 230 -199c0 -135 -89 -215 -190 -245l83 -256h-123l-72 245c-1 -1 -79 -1 -82 -1l-59 -244h-113zM484 -151l168 685h112l-16 -65c35 45 74 74 126 74c84 0 139 -71 139 -198c0 -112 -38 -228 -105 -295c-38 -39 -83 -60 -128 -60
c-62 0 -105 39 -127 95l-57 -236h-112zM197 344h75c107 0 167 62 167 150c0 63 -40 102 -119 102h-62zM762 88c24 0 47 10 68 32c42 43 68 131 68 212c0 72 -27 114 -77 114c-24 0 -48 -12 -69 -33c-43 -43 -70 -128 -70 -204c0 -75 31 -121 80 -121z" />
    <glyph glyph-name="rupee" unicode="&#x20a8;" horiz-adv-x="949" 
d="M327 0l-72 245c-1 -1 -79 -1 -82 -1l-59 -244h-113l171 700h155c157 0 230 -85 230 -199c0 -135 -89 -215 -190 -245l83 -256h-123zM779 142c0 31 -24 53 -79 91c-68 47 -104 86 -104 148c0 85 69 160 181 160c73 0 133 -36 172 -76l-61 -76c-43 42 -78 63 -118 63
c-41 0 -67 -28 -67 -61c0 -30 19 -47 80 -88c79 -53 105 -94 105 -152c0 -90 -81 -162 -185 -162c-75 0 -147 34 -199 93l68 73c48 -54 91 -76 136 -76c41 0 71 27 71 63zM197 344h75c107 0 167 62 167 150c0 63 -40 102 -119 102h-62z" />
    <glyph glyph-name="won" unicode="&#x20a9;" horiz-adv-x="966" 
d="M930 214h-147l-100 -216h-143l4 216h-150l-101 -216h-142l5 216h-146l19 79h129l3 115h-104l20 78h86l5 214h124l-14 -214h134l101 216h137l-2 -216h136l88 214h137l-100 -214h88l-19 -78h-105l-53 -115h129zM548 555l-122 -266h122l5 266h-5zM643 134h5l108 277h-111z
M251 134h4l124 277h-109z" />
    <glyph glyph-name="sheqel" unicode="&#x20aa;" horiz-adv-x="559" 
d="M-13 0l129 528h149c84 0 132 -35 132 -112c0 -17 -2 -36 -7 -58l-39 -157h-63l25 103c5 24 7 47 7 59c0 54 -31 68 -81 68h-58l-103 -431h-91zM334 0c-120 0 -167 54 -155 167l17 163h62l-11 -127c-7 -86 20 -105 93 -105h36l103 430h91l-129 -528h-107z" />
    <glyph glyph-name="numbersign" unicode="#" horiz-adv-x="598" 
d="M42 0l49 160h-80l26 102h84l53 178h-87l26 102h92l48 158h103l-47 -158h133l49 158h102l-48 -158h80l-25 -102h-85l-54 -178h88l-25 -102h-93l-49 -160h-103l48 160h-134l-48 -160h-103zM224 262h134l54 178h-134z" />
    <glyph glyph-name="paragraph" unicode="&#xb6;" horiz-adv-x="515" 
d="M255 0l53 226c-76 3 -139 21 -179 62c-34 34 -53 82 -53 143c0 71 25 136 75 185c51 52 134 84 247 84h148l-171 -700h-120z" />
    <glyph glyph-name="section" unicode="&#xa7;" horiz-adv-x="549" 
d="M530 355c0 -82 -74 -121 -140 -130c30 -28 41 -57 41 -90c0 -78 -71 -143 -189 -143c-85 0 -155 31 -201 79l70 73c37 -35 84 -61 134 -61c46 0 72 21 72 48c0 28 -22 42 -93 71c-96 38 -163 72 -163 145c0 82 73 121 139 131c-30 28 -40 56 -40 89c0 78 70 143 189 143
c85 0 155 -31 201 -79l-70 -73c-37 35 -85 61 -135 61c-45 0 -71 -21 -71 -48c0 -28 21 -42 93 -71c96 -37 163 -71 163 -145zM174 366c0 -30 23 -46 65 -66c43 -16 73 -25 101 -25c41 0 77 23 77 61c0 30 -24 46 -66 66c-42 16 -72 25 -101 25c-40 0 -76 -23 -76 -61z" />
    <glyph glyph-name="ordfeminine" unicode="&#xaa;" horiz-adv-x="347" 
d="M173 401c-45 0 -77 31 -77 77c0 63 48 110 114 110c28 0 52 -7 74 -15l3 11c2 8 3 16 3 23c0 23 -16 37 -49 37c-24 0 -45 -5 -70 -15l-16 56c29 11 58 19 97 19c68 0 104 -33 105 -85c0 -15 -2 -28 -7 -48l-40 -164h-67l8 33c-20 -22 -46 -39 -78 -39zM201 450
c32 0 60 30 69 65l5 18c-14 5 -34 10 -52 10c-38 0 -58 -28 -58 -57c-1 -23 14 -36 36 -36zM52 291l14 54h235l-14 -54h-235z" />
    <glyph glyph-name="ordmasculine" unicode="&#xba;" horiz-adv-x="355" 
d="M54 291l13 54h242l-14 -54h-241zM167 526c0 -38 20 -67 55 -67c18 0 33 8 46 21c23 22 36 64 36 98c0 39 -20 67 -55 67c-17 0 -33 -8 -46 -20c-22 -23 -36 -65 -36 -99zM372 579c0 -50 -19 -102 -56 -137c-24 -26 -58 -42 -97 -42c-74 0 -120 50 -120 125
c0 50 19 102 56 138c25 25 59 42 97 42c74 0 120 -50 120 -126z" />
    <glyph glyph-name="degree" unicode="&#xb0;" horiz-adv-x="385" 
d="M257 707c81 0 132 -58 132 -140c0 -57 -22 -107 -58 -142c-27 -28 -66 -47 -111 -47c-82 0 -133 58 -133 140c0 56 23 107 58 142c27 27 66 47 112 47zM223 441c26 0 47 11 61 26c24 23 38 60 38 96c0 49 -26 81 -69 81c-25 0 -47 -12 -60 -26c-25 -24 -39 -60 -39 -97
c0 -48 27 -80 69 -80z" />
    <glyph glyph-name="percent" unicode="%" horiz-adv-x="758" 
d="M51 0l322 369l282 331h92l-321 -369l-282 -331h-93zM214 354c-80 0 -133 56 -133 148c0 60 23 120 61 157c29 29 67 48 112 48c79 0 134 -56 134 -148c0 -59 -24 -119 -62 -157c-29 -29 -67 -48 -112 -48zM219 427c20 0 35 9 48 20c24 26 39 69 39 111
c0 49 -22 77 -57 77c-20 0 -36 -10 -48 -21c-25 -25 -40 -69 -40 -110c0 -50 23 -77 58 -77zM544 -7c-79 0 -133 56 -133 148c0 59 23 119 61 157c30 29 67 48 112 48c80 0 133 -56 133 -148c0 -60 -23 -120 -60 -157c-30 -29 -68 -48 -113 -48zM550 65c19 0 35 10 48 21
c24 25 39 69 39 110c0 50 -23 77 -58 77c-19 0 -35 -9 -48 -20c-24 -26 -39 -69 -39 -111c0 -49 22 -77 58 -77z" />
    <glyph glyph-name="perthousand" unicode="&#x2030;" horiz-adv-x="1091" 
d="M51 0l322 369l282 331h92l-321 -369l-282 -331h-93zM214 354c-80 0 -133 56 -133 148c0 60 23 120 61 157c29 29 67 48 112 48c79 0 134 -56 134 -148c0 -59 -24 -119 -62 -157c-29 -29 -67 -48 -112 -48zM219 427c20 0 35 9 48 20c24 26 39 69 39 111
c0 49 -22 77 -57 77c-20 0 -36 -10 -48 -21c-25 -25 -40 -69 -40 -110c0 -50 23 -77 58 -77zM544 -7c-79 0 -133 56 -133 148c0 59 23 119 61 157c30 29 67 48 112 48c80 0 133 -56 133 -148c0 -60 -23 -120 -60 -157c-30 -29 -68 -48 -113 -48zM550 65c19 0 35 10 48 21
c24 25 39 69 39 110c0 50 -23 77 -58 77c-19 0 -35 -9 -48 -20c-24 -26 -39 -69 -39 -111c0 -49 22 -77 58 -77zM897 -7c-79 0 -133 56 -133 148c0 59 23 119 61 157c29 29 67 48 112 48c80 0 133 -56 133 -148c0 -60 -23 -120 -61 -157c-29 -29 -67 -48 -112 -48zM902 65
c19 0 36 10 48 21c25 25 40 69 40 110c0 50 -23 77 -58 77c-19 0 -36 -9 -48 -20c-25 -26 -40 -69 -40 -111c0 -49 23 -77 58 -77z" />
    <glyph glyph-name="quotedbl" unicode="&#x22;" horiz-adv-x="438" 
d="M94 404l71 296h134l-2 -6l-142 -290h-61zM294 404l72 296h134l-2 -6l-143 -290h-61z" />
    <glyph glyph-name="quotesingle" unicode="'" horiz-adv-x="234" 
d="M94 404l71 296h134l-2 -6l-142 -290h-61z" />
    <glyph glyph-name="plus" unicode="+" horiz-adv-x="548" 
d="M186 135l40 163h-163l28 108h162l40 163h112l-41 -163h163l-28 -108h-163l-39 -163h-111z" />
    <glyph glyph-name="minus" unicode="&#x2212;" horiz-adv-x="548" 
d="M63 297l28 110h436l-28 -110h-436z" />
    <glyph glyph-name="divide" unicode="&#xf7;" horiz-adv-x="548" 
d="M170 103l31 122h125l-30 -122h-126zM63 301l27 102h437l-28 -102h-436zM264 479l31 122h125l-31 -122h-125z" />
    <glyph glyph-name="equal" unicode="=" horiz-adv-x="548" 
d="M48 186l28 109h413l-28 -109h-413zM104 409l28 109h413l-29 -109h-412z" />
    <glyph glyph-name="multiply" unicode="&#xd7;" horiz-adv-x="548" 
d="M114 138l-63 81l173 139l-101 136l90 71l97 -139l171 141l62 -82l-172 -138l101 -136l-90 -71l-98 138z" />
    <glyph glyph-name="less" unicode="&#x3c;" horiz-adv-x="548" 
d="M431 105l-364 193l28 108l459 194l-32 -120l-329 -133l264 -133z" />
    <glyph glyph-name="greater" unicode="&#x3e;" horiz-adv-x="548" 
d="M33 104l32 120l328 133l-264 133l28 109l364 -193l-29 -108z" />
    <glyph glyph-name="plusminus" unicode="&#xb1;" horiz-adv-x="548" 
d="M207 208l39 157h-162l26 104l161 -1l39 157h106l-39 -157l162 1l-26 -104h-162l-37 -157h-107zM1 30l26 101h428l-25 -101h-429z" />
    <glyph glyph-name="onehalf" unicode="&#xbd;" horiz-adv-x="728" 
d="M338 0l15 59l179 142c37 31 52 51 52 75s-20 42 -51 42c-33 0 -61 -21 -87 -44l-43 49c38 38 81 61 134 61c75 0 121 -43 121 -102c0 -42 -13 -76 -88 -130l-116 -89h160l-16 -63h-260zM7 0l309 364l277 336h73l-309 -364l-277 -336h-73zM124 323l72 301l-78 -31l-4 63
l118 48h55l-92 -381h-71z" />
    <glyph glyph-name="onehalf.alt" horiz-adv-x="794" 
d="M49 323l15 64h95l57 238l-94 -36l-3 64l134 52h54l-77 -318h85l-16 -64h-250zM410 0l15 59l179 142c37 31 52 51 52 75s-20 42 -51 42c-33 0 -61 -21 -87 -44l-43 49c38 38 81 61 134 61c75 0 121 -43 121 -102c0 -42 -13 -76 -88 -130l-116 -89h160l-16 -63h-260zM83 0
l309 364l277 336h73l-309 -364l-277 -336h-73z" />
    <glyph glyph-name="onethird" unicode="&#x2153;" horiz-adv-x="728" 
d="M487 -8c-70 0 -111 30 -136 59l47 49c23 -22 46 -44 90 -44c43 0 70 31 70 61c0 33 -30 51 -82 52h-19l-2 44l122 99h-146l16 65h241l-13 -54l-134 -106c58 -10 91 -43 91 -95c0 -74 -60 -130 -145 -130zM124 323l72 301l-78 -31l-4 63l118 48h55l-92 -381h-71zM0 0
l309 364l277 336h73l-309 -364l-277 -336h-73z" />
    <glyph glyph-name="onethird.alt" horiz-adv-x="794" 
d="M49 323l15 64h95l57 238l-94 -36l-3 64l134 52h54l-77 -318h85l-16 -64h-250zM554 -8c-70 0 -111 30 -136 59l47 49c23 -22 46 -44 90 -44c43 0 70 31 70 61c0 33 -30 51 -82 52h-19l-2 44l122 99h-146l16 65h241l-13 -54l-134 -106c58 -10 91 -43 91 -95
c0 -74 -60 -130 -145 -130zM74 0l309 364l277 336h73l-309 -364l-277 -336h-73z" />
    <glyph glyph-name="twothirds" unicode="&#x2154;" horiz-adv-x="794" 
d="M554 -8c-70 0 -111 30 -136 59l47 49c23 -22 46 -44 90 -44c43 0 70 31 70 61c0 33 -30 51 -82 52h-19l-2 44l122 99h-146l16 65h241l-13 -54l-134 -106c58 -10 91 -43 91 -95c0 -74 -60 -130 -145 -130zM31 323l16 60l179 141c37 31 52 51 52 75c0 25 -20 42 -51 42
c-32 0 -62 -20 -88 -44l-42 50c38 38 81 61 133 61c76 0 122 -43 122 -103c0 -42 -14 -75 -88 -130l-116 -88h160l-16 -64h-261zM67 0l309 364l277 336h73l-309 -364l-277 -336h-73z" />
    <glyph glyph-name="onequarter" unicode="&#xbc;" horiz-adv-x="728" 
d="M124 323l72 301l-78 -31l-4 63l118 48h55l-92 -381h-71zM22 0l309 364l277 336h73l-309 -364l-277 -336h-73zM497 -1l19 80h-172l13 65l222 237h78l-60 -245h47l-15 -57h-47l-20 -80h-65zM422 135h110l37 160h-2z" />
    <glyph glyph-name="onequarter.alt" horiz-adv-x="794" 
d="M51 323l15 64h95l57 238l-94 -36l-3 64l134 52h54l-77 -318h85l-16 -64h-250zM89 0l309 364l277 336h73l-309 -364l-277 -336h-73zM566 -1l19 80h-172l13 65l222 237h78l-60 -245h47l-15 -57h-47l-20 -80h-65zM491 135h110l37 160h-2z" />
    <glyph glyph-name="threequarters" unicode="&#xbe;" horiz-adv-x="794" 
d="M564 -1l19 80h-172l13 65l222 237h78l-60 -245h47l-15 -57h-47l-20 -80h-65zM489 135h110l37 160h-2zM86 0l309 364l277 336h73l-309 -364l-277 -336h-73zM181 315c-69 0 -111 31 -135 60l46 48c23 -21 47 -43 91 -43c43 0 70 30 70 61c0 33 -29 51 -82 51h-19l-2 44
l122 99h-146l17 65h241l-14 -54l-134 -105c58 -11 90 -43 90 -95c0 -75 -59 -131 -145 -131z" />
    <glyph glyph-name="onefifth" unicode="&#x2155;" horiz-adv-x="728" 
d="M482 -8c-49 0 -108 22 -138 61l46 49c27 -26 59 -44 93 -44c47 0 77 32 77 69c0 33 -25 52 -65 52c-22 0 -38 -6 -51 -12l-42 29l57 181h214l-15 -66h-154l-25 -80c11 4 29 6 44 6c66 0 114 -38 114 -106c0 -72 -59 -139 -155 -139zM124 323l72 301l-78 -31l-4 63l118 48
h55l-92 -381h-71zM3 0l309 364l277 336h73l-309 -364l-277 -336h-73z" />
    <glyph glyph-name="onefifth.alt" horiz-adv-x="794" 
d="M49 323l15 64h95l57 238l-94 -36l-3 64l134 52h54l-77 -318h85l-16 -64h-250zM552 -8c-49 0 -108 22 -138 61l46 49c27 -26 59 -44 93 -44c47 0 77 32 77 69c0 33 -25 52 -65 52c-22 0 -38 -6 -51 -12l-42 29l57 181h214l-15 -66h-154l-25 -80c11 4 29 6 44 6
c66 0 114 -38 114 -106c0 -72 -59 -139 -155 -139zM79 0l309 364l277 336h73l-309 -364l-277 -336h-73z" />
    <glyph glyph-name="twofifths" unicode="&#x2156;" horiz-adv-x="794" 
d="M553 -8c-49 0 -108 22 -138 61l46 49c27 -26 59 -44 93 -44c47 0 77 32 77 69c0 33 -25 52 -65 52c-22 0 -38 -6 -51 -12l-42 29l57 181h214l-15 -66h-154l-25 -80c11 4 29 6 44 6c66 0 114 -38 114 -106c0 -72 -59 -139 -155 -139zM75 0l309 364l277 336h73l-309 -364
l-277 -336h-73zM31 323l16 60l179 141c37 31 52 51 52 75c0 25 -20 42 -51 42c-32 0 -62 -20 -88 -44l-42 50c38 38 81 61 133 61c76 0 122 -43 122 -103c0 -42 -14 -75 -88 -130l-116 -88h160l-16 -64h-261z" />
    <glyph glyph-name="threefifths" unicode="&#x2157;" horiz-adv-x="794" 
d="M553 -8c-49 0 -108 22 -138 61l46 49c27 -26 59 -44 93 -44c47 0 77 32 77 69c0 33 -25 52 -65 52c-22 0 -38 -6 -51 -12l-42 29l57 181h214l-15 -66h-154l-25 -80c11 4 29 6 44 6c66 0 114 -38 114 -106c0 -72 -59 -139 -155 -139zM62 0l309 364l277 336h73l-309 -364
l-277 -336h-73zM172 315c-69 0 -111 31 -135 60l46 48c23 -21 47 -43 91 -43c43 0 70 30 70 61c0 33 -29 51 -82 51h-19l-2 44l122 99h-146l17 65h241l-14 -54l-134 -105c58 -11 90 -43 90 -95c0 -75 -59 -131 -145 -131z" />
    <glyph glyph-name="fourfifths" unicode="&#x2158;" horiz-adv-x="794" 
d="M198 322l18 79h-171l12 66l223 237h77l-60 -246h47l-15 -57h-47l-19 -79h-65zM122 458h109l38 159h-2zM553 -8c-49 0 -108 22 -138 61l46 49c27 -26 59 -44 93 -44c47 0 77 32 77 69c0 33 -25 52 -65 52c-22 0 -38 -6 -51 -12l-42 29l57 181h214l-15 -66h-154l-25 -80
c11 4 29 6 44 6c66 0 114 -38 114 -106c0 -72 -59 -139 -155 -139zM74 0l309 364l277 336h73l-309 -364l-277 -336h-73z" />
    <glyph glyph-name="onesixth" unicode="&#x2159;" horiz-adv-x="728" 
d="M493 -8c-79 0 -122 50 -122 131c0 59 26 155 82 210c31 32 71 52 120 52c47 0 79 -21 96 -35l-37 -55c-14 12 -36 24 -64 24c-29 0 -54 -12 -72 -31s-32 -45 -41 -74c19 16 47 30 85 30c50 0 98 -33 98 -100c0 -79 -57 -152 -145 -152zM8 0l309 364l277 336h73l-309 -364
l-277 -336h-73zM124 323l72 301l-78 -31l-4 63l118 48h55l-92 -381h-71zM495 53c44 0 74 38 74 80c0 35 -23 54 -55 54c-22 0 -38 -7 -52 -20c-14 -14 -21 -33 -21 -57c0 -37 22 -57 54 -57z" />
    <glyph glyph-name="onesixth.alt" horiz-adv-x="794" 
d="M566 -8c-79 0 -122 50 -122 131c0 59 26 155 82 210c31 32 71 52 120 52c47 0 79 -21 96 -35l-37 -55c-14 12 -36 24 -64 24c-29 0 -54 -12 -72 -31s-32 -45 -41 -74c19 16 47 30 85 30c50 0 98 -33 98 -100c0 -79 -57 -152 -145 -152zM81 0l309 364l277 336h73
l-309 -364l-277 -336h-73zM49 323l15 64h95l57 238l-94 -36l-3 64l134 52h54l-77 -318h85l-16 -64h-250zM568 53c44 0 74 38 74 80c0 35 -23 54 -55 54c-22 0 -38 -7 -52 -20c-14 -14 -21 -33 -21 -57c0 -37 22 -57 54 -57z" />
    <glyph glyph-name="fivesixths" unicode="&#x215a;" horiz-adv-x="794" 
d="M565 -8c-79 0 -122 50 -122 131c0 59 26 155 82 210c31 32 71 52 120 52c47 0 79 -21 96 -35l-37 -55c-14 12 -36 24 -64 24c-29 0 -54 -12 -72 -31s-32 -45 -41 -74c19 16 47 30 85 30c50 0 98 -33 98 -100c0 -79 -57 -152 -145 -152zM173 315c-49 0 -108 23 -138 62
l47 48c27 -26 58 -43 92 -43c47 0 77 32 77 68c0 33 -24 53 -65 53c-21 0 -38 -6 -51 -13l-43 29l58 181h214l-15 -66h-154l-26 -80c13 4 31 7 46 7c65 0 112 -39 112 -107c0 -71 -58 -139 -154 -139zM66 0l309 364l277 336h73l-309 -364l-277 -336h-73zM567 53
c44 0 74 38 74 80c0 35 -23 54 -55 54c-22 0 -38 -7 -52 -20c-14 -14 -21 -33 -21 -57c0 -37 22 -57 54 -57z" />
    <glyph glyph-name="oneeighth" unicode="&#x215b;" horiz-adv-x="728" 
d="M491 -8c-72 0 -131 40 -131 104c0 56 38 93 91 106c-29 18 -45 43 -45 75c0 54 48 108 133 108c72 0 123 -42 123 -100c0 -48 -30 -85 -79 -97c33 -19 52 -43 52 -80c0 -60 -53 -116 -144 -116zM495 49c40 0 72 24 72 60c1 31 -25 54 -67 54c-41 0 -72 -26 -73 -60
c0 -31 26 -54 68 -54zM533 221c35 0 63 23 63 56c0 26 -20 50 -59 50c-37 0 -65 -23 -65 -56c-1 -27 22 -50 61 -50zM124 323l72 301l-78 -31l-4 63l118 48h55l-92 -381h-71zM4 0l309 364l277 336h73l-309 -364l-277 -336h-73z" />
    <glyph glyph-name="oneeighth.alt" horiz-adv-x="794" 
d="M49 323l15 64h95l57 238l-94 -36l-3 64l134 52h54l-77 -318h85l-16 -64h-250zM564 -8c-72 0 -131 40 -131 104c0 56 38 93 91 106c-29 18 -45 43 -45 75c0 54 48 108 133 108c72 0 123 -42 123 -100c0 -48 -30 -85 -79 -97c33 -19 52 -43 52 -80
c0 -60 -53 -116 -144 -116zM568 49c40 0 72 24 72 60c1 31 -25 54 -67 54c-41 0 -72 -26 -73 -60c0 -31 26 -54 68 -54zM606 221c35 0 63 23 63 56c0 26 -20 50 -59 50c-37 0 -65 -23 -65 -56c-1 -27 22 -50 61 -50zM81 0l309 364l277 336h73l-309 -364l-277 -336h-73z" />
    <glyph glyph-name="threeeighths" unicode="&#x215c;" horiz-adv-x="794" 
d="M563 -8c-72 0 -131 40 -131 104c0 56 38 93 91 106c-29 18 -45 43 -45 75c0 54 48 108 133 108c72 0 123 -42 123 -100c0 -48 -30 -85 -79 -97c33 -19 52 -43 52 -80c0 -60 -53 -116 -144 -116zM567 49c40 0 72 24 72 60c1 31 -25 54 -67 54c-41 0 -72 -26 -73 -60
c0 -31 26 -54 68 -54zM605 221c35 0 63 23 63 56c0 26 -20 50 -59 50c-37 0 -65 -23 -65 -56c-1 -27 22 -50 61 -50zM66 0l309 364l277 336h73l-309 -364l-277 -336h-73zM174 315c-69 0 -111 31 -135 60l46 48c23 -21 47 -43 91 -43c43 0 70 30 70 61c0 33 -29 51 -82 51
h-19l-2 44l122 99h-146l17 65h241l-14 -54l-134 -105c58 -11 90 -43 90 -95c0 -75 -59 -131 -145 -131z" />
    <glyph glyph-name="fiveeighths" unicode="&#x215d;" horiz-adv-x="794" 
d="M563 -8c-72 0 -131 40 -131 104c0 56 38 93 91 106c-29 18 -45 43 -45 75c0 54 48 108 133 108c72 0 123 -42 123 -100c0 -48 -30 -85 -79 -97c33 -19 52 -43 52 -80c0 -60 -53 -116 -144 -116zM567 49c40 0 72 24 72 60c1 31 -25 54 -67 54c-41 0 -72 -26 -73 -60
c0 -31 26 -54 68 -54zM605 221c35 0 63 23 63 56c0 26 -20 50 -59 50c-37 0 -65 -23 -65 -56c-1 -27 22 -50 61 -50zM66 0l309 364l277 336h73l-309 -364l-277 -336h-73zM173 315c-49 0 -108 23 -138 62l47 48c27 -26 58 -43 92 -43c47 0 77 32 77 68c0 33 -24 53 -65 53
c-21 0 -38 -6 -51 -13l-43 29l58 181h214l-15 -66h-154l-26 -80c13 4 31 7 46 7c65 0 112 -39 112 -107c0 -71 -58 -139 -154 -139z" />
    <glyph glyph-name="seveneighths" unicode="&#x215e;" horiz-adv-x="794" 
d="M557 -8c-72 0 -131 40 -131 104c0 56 38 93 91 106c-29 18 -45 43 -45 75c0 54 48 108 133 108c72 0 123 -42 123 -100c0 -48 -30 -85 -79 -97c33 -19 52 -43 52 -80c0 -60 -53 -116 -144 -116zM561 49c40 0 72 24 72 60c1 31 -25 54 -67 54c-41 0 -72 -26 -73 -60
c0 -31 26 -54 68 -54zM599 221c35 0 63 23 63 56c0 26 -20 50 -59 50c-37 0 -65 -23 -65 -56c-1 -27 22 -50 61 -50zM70 322l221 311h-166l17 67h245l-15 -57l-224 -321h-78zM34 0l309 364l277 336h73l-309 -364l-277 -336h-73z" />
    <glyph glyph-name="zero.sup" unicode="&#x2070;" 
d="M415 682c0 -72 -26 -160 -77 -212c-28 -28 -63 -45 -104 -45c-73 0 -123 51 -123 135c0 72 26 160 78 212c27 28 63 46 104 46c73 0 122 -53 122 -136zM186 563c0 -48 22 -71 54 -71c16 0 31 8 43 20c40 40 57 124 57 168c0 47 -21 70 -53 70c-17 0 -31 -7 -43 -19
c-40 -40 -58 -125 -58 -168z" />
    <glyph glyph-name="one.sup" unicode="&#xb9;" horiz-adv-x="287" 
d="M169 433l72 299l-78 -30l-4 64l119 46h54l-93 -379h-70z" />
    <glyph glyph-name="one.sup_alt" 
d="M103 433l16 63h95l57 237l-94 -36l-3 65l132 51h55l-76 -317h84l-15 -63h-251z" />
    <glyph glyph-name="two.sup" unicode="&#xb2;" 
d="M86 433l15 59l179 142c37 31 52 51 52 75s-20 42 -51 42c-33 0 -61 -21 -87 -44l-43 49c38 38 81 61 134 61c75 0 121 -43 121 -102c0 -42 -13 -76 -88 -130l-116 -89h160l-16 -63h-260z" />
    <glyph glyph-name="three.sup" unicode="&#xb3;" 
d="M229 425c-70 0 -111 30 -136 59l47 49c23 -22 46 -44 90 -44c43 0 70 31 70 61c0 33 -30 51 -82 52h-19l-2 44l122 99h-146l16 65h241l-13 -54l-134 -106c58 -10 91 -43 91 -95c0 -74 -60 -130 -145 -130z" />
    <glyph glyph-name="four.sup" unicode="&#x2074;" 
d="M252 432l19 80h-172l13 65l222 237h78l-60 -245h47l-15 -57h-47l-20 -80h-65zM177 568h110l37 160h-2z" />
    <glyph glyph-name="five.sup" unicode="&#x2075;" 
d="M228 425c-49 0 -108 22 -138 61l46 49c27 -26 59 -44 93 -44c47 0 77 32 77 69c0 33 -25 52 -65 52c-22 0 -38 -6 -51 -12l-42 29l57 181h214l-15 -66h-154l-25 -80c11 4 29 6 44 6c66 0 114 -38 114 -106c0 -72 -59 -139 -155 -139z" />
    <glyph glyph-name="six.sup" unicode="&#x2076;" 
d="M241 425c-79 0 -122 50 -122 131c0 59 26 155 82 210c31 32 71 52 120 52c47 0 79 -21 96 -35l-37 -55c-14 12 -36 24 -64 24c-29 0 -54 -12 -72 -31s-32 -45 -41 -74c19 16 47 30 85 30c50 0 98 -33 98 -100c0 -79 -57 -152 -145 -152zM243 486c44 0 74 38 74 80
c0 35 -23 54 -55 54c-22 0 -38 -7 -52 -20c-14 -14 -21 -33 -21 -57c0 -37 22 -57 54 -57z" />
    <glyph glyph-name="seven.sup" unicode="&#x2077;" 
d="M112 431l221 311h-165l17 68h244l-15 -57l-225 -322h-77z" />
    <glyph glyph-name="eight.sup" unicode="&#x2078;" 
d="M239 425c-72 0 -131 40 -131 104c0 56 38 93 91 106c-29 18 -45 43 -45 75c0 54 48 108 133 108c72 0 123 -42 123 -100c0 -48 -30 -85 -79 -97c33 -19 52 -43 52 -80c0 -60 -53 -116 -144 -116zM243 482c40 0 72 24 72 60c1 31 -25 54 -67 54c-41 0 -72 -26 -73 -60
c0 -31 26 -54 68 -54zM281 654c35 0 63 23 63 56c0 26 -20 50 -59 50c-37 0 -65 -23 -65 -56c-1 -27 22 -50 61 -50z" />
    <glyph glyph-name="nine.sup" unicode="&#x2079;" 
d="M207 425c-48 0 -81 21 -103 39l38 55c20 -18 42 -29 71 -29c30 0 53 10 70 28c19 20 33 47 41 75c-17 -17 -46 -31 -85 -31c-50 0 -98 33 -98 102c0 77 57 153 145 153c79 0 123 -50 123 -131c0 -59 -24 -155 -80 -210c-32 -32 -72 -51 -122 -51zM266 618
c21 0 38 7 51 20c13 14 22 34 22 59c0 40 -22 59 -55 59c-44 0 -73 -40 -73 -83c0 -36 22 -55 55 -55z" />
    <glyph glyph-name="zero.inf" unicode="&#x2080;" 
d="M280 117c0 -72 -26 -160 -77 -212c-28 -28 -63 -45 -104 -45c-73 0 -123 51 -123 135c0 72 26 160 78 212c27 28 63 46 104 46c73 0 122 -53 122 -136zM51 -2c0 -48 22 -71 54 -71c16 0 31 8 43 20c40 40 57 124 57 168c0 47 -21 70 -53 70c-17 0 -31 -7 -43 -19
c-40 -40 -58 -125 -58 -168z" />
    <glyph glyph-name="one.inf" unicode="&#x2081;" horiz-adv-x="287" 
d="M33 -132l72 299l-78 -30l-4 64l119 46h54l-93 -379h-70z" />
    <glyph glyph-name="one.inf_alt" 
d="M-33 -132l16 63h95l57 237l-94 -36l-3 65l132 51h55l-76 -317h84l-15 -63h-251z" />
    <glyph glyph-name="two.inf" unicode="&#x2082;" 
d="M-50 -132l15 59l179 142c37 31 52 51 52 75s-20 42 -51 42c-33 0 -61 -21 -87 -44l-43 49c38 38 81 61 134 61c75 0 121 -43 121 -102c0 -42 -13 -76 -88 -130l-116 -89h160l-16 -63h-260z" />
    <glyph glyph-name="three.inf" unicode="&#x2083;" 
d="M94 -140c-70 0 -111 30 -136 59l47 49c23 -22 46 -44 90 -44c43 0 70 31 70 61c0 33 -30 51 -82 52h-19l-2 44l122 99h-146l16 65h241l-13 -54l-134 -106c58 -10 91 -43 91 -95c0 -74 -60 -130 -145 -130z" />
    <glyph glyph-name="four.inf" unicode="&#x2084;" 
d="M117 -133l19 80h-172l13 65l222 237h78l-60 -245h47l-15 -57h-47l-20 -80h-65zM42 3h110l37 160h-2z" />
    <glyph glyph-name="five.inf" unicode="&#x2085;" 
d="M92 -140c-49 0 -108 22 -138 61l46 49c27 -26 59 -44 93 -44c47 0 77 32 77 69c0 33 -25 52 -65 52c-22 0 -38 -6 -51 -12l-42 29l57 181h214l-15 -66h-154l-25 -80c11 4 29 6 44 6c66 0 114 -38 114 -106c0 -72 -59 -139 -155 -139z" />
    <glyph glyph-name="six.inf" unicode="&#x2086;" 
d="M106 -140c-79 0 -122 50 -122 131c0 59 26 155 82 210c31 32 71 52 120 52c47 0 79 -21 96 -35l-37 -55c-14 12 -36 24 -64 24c-29 0 -54 -12 -72 -31s-32 -45 -41 -74c19 16 47 30 85 30c50 0 98 -33 98 -100c0 -79 -57 -152 -145 -152zM108 -79c44 0 74 38 74 80
c0 35 -23 54 -55 54c-22 0 -38 -7 -52 -20c-14 -14 -21 -33 -21 -57c0 -37 22 -57 54 -57z" />
    <glyph glyph-name="seven.inf" unicode="&#x2087;" 
d="M-18 -134l221 311h-165l17 68h244l-15 -57l-225 -322h-77z" />
    <glyph glyph-name="eight.inf" unicode="&#x2088;" 
d="M103 -140c-72 0 -131 40 -131 104c0 56 38 93 91 106c-29 18 -45 43 -45 75c0 54 48 108 133 108c72 0 123 -42 123 -100c0 -48 -30 -85 -79 -97c33 -19 52 -43 52 -80c0 -60 -53 -116 -144 -116zM107 -83c40 0 72 24 72 60c1 31 -25 54 -67 54c-41 0 -72 -26 -73 -60
c0 -31 26 -54 68 -54zM145 89c35 0 63 23 63 56c0 26 -20 50 -59 50c-37 0 -65 -23 -65 -56c-1 -27 22 -50 61 -50z" />
    <glyph glyph-name="nine.inf" unicode="&#x2089;" 
d="M72 -140c-48 0 -81 21 -103 39l38 55c20 -18 42 -29 71 -29c30 0 53 10 70 28c19 20 33 47 41 75c-17 -17 -46 -31 -85 -31c-50 0 -98 33 -98 102c0 77 57 153 145 153c79 0 123 -50 123 -131c0 -59 -24 -155 -80 -210c-32 -32 -72 -51 -122 -51zM131 53c21 0 38 7 51 20
c13 14 22 34 22 59c0 40 -22 59 -55 59c-44 0 -73 -40 -73 -83c0 -36 22 -55 55 -55z" />
    <glyph glyph-name="zero.tab" horiz-adv-x="530" 
d="M506 488c0 -143 -56 -337 -150 -431c-42 -42 -92 -67 -152 -67c-115 0 -182 80 -182 222c0 143 57 337 150 431c43 42 92 67 153 67c114 0 181 -80 181 -222zM136 210c0 -79 26 -117 74 -117c25 0 47 11 64 29c69 69 119 273 119 368c0 80 -27 117 -75 117
c-25 0 -46 -11 -64 -29c-69 -69 -118 -272 -118 -368z" />
    <glyph glyph-name="one.tab" horiz-adv-x="530" 
d="M-17 0l25 99h162l112 474l-162 -64l-1 107l229 88h84l-147 -605h144l-25 -99h-421z" />
    <glyph glyph-name="two.tab" horiz-adv-x="530" 
d="M-38 0l25 93l301 270c64 58 97 101 97 156c0 50 -38 82 -87 82c-53 0 -96 -29 -148 -79l-69 80c58 63 131 108 222 108c127 0 205 -74 205 -177c0 -84 -42 -145 -124 -218l-235 -210h274l-28 -105h-433z" />
    <glyph glyph-name="three.tab" horiz-adv-x="530" 
d="M194 -11c-98 0 -172 39 -223 104l81 79c38 -47 84 -75 148 -75c78 0 131 54 131 120c0 63 -47 99 -141 103h-31l-3 74l206 201h-255l28 105h412l-24 -91l-224 -211c93 -23 154 -75 154 -171c0 -129 -107 -238 -259 -238z" />
    <glyph glyph-name="three.tab_alt" horiz-adv-x="530" 
d="M195 -11c-107 0 -185 54 -225 115l86 73c39 -51 80 -81 146 -81c80 0 123 51 123 111c0 71 -62 102 -142 102h-32l26 97h52c99 1 158 47 158 116c0 48 -36 83 -92 83c-49 0 -92 -20 -143 -65l-62 82c59 55 130 89 217 89c130 0 203 -78 203 -172
c0 -91 -52 -159 -165 -190c55 -22 100 -70 100 -145c0 -118 -93 -215 -250 -215z" />
    <glyph glyph-name="four.tab" horiz-adv-x="530" 
d="M236 0l37 151h-279l10 110l379 443h135l-111 -459h75l-25 -94h-74l-36 -151h-111zM107 244h190l78 317h-1z" />
    <glyph glyph-name="five.tab" horiz-adv-x="530" 
d="M193 -10c-100 0 -172 38 -225 101l78 82c43 -48 90 -77 152 -77c82 0 138 67 138 140c0 67 -47 103 -113 103c-35 0 -68 -9 -94 -22l-65 49l102 334h362l-28 -107h-257l-52 -168c20 6 49 10 71 10c111 0 198 -70 198 -184c0 -134 -101 -261 -267 -261z" />
    <glyph glyph-name="six.tab" horiz-adv-x="530" 
d="M231 -11c-60 0 -108 19 -143 54c-37 36 -60 94 -60 177c0 115 46 301 152 406c50 51 111 84 196 84c66 0 123 -22 162 -57l-65 -93c-32 27 -67 44 -110 44c-46 0 -81 -21 -112 -52c-39 -39 -69 -98 -86 -164c34 34 76 59 140 59c85 0 168 -61 168 -183
c0 -133 -94 -275 -242 -275zM234 88c79 0 123 92 123 163c0 68 -38 103 -93 103c-31 0 -57 -13 -79 -35c-30 -30 -45 -78 -45 -126c0 -56 31 -105 94 -105z" />
    <glyph glyph-name="seven.tab" horiz-adv-x="530" 
d="M10 0l386 592h-300l29 108h433l-26 -94l-387 -606h-135z" />
    <glyph glyph-name="eight.tab" horiz-adv-x="530" 
d="M216 -10c-133 0 -214 77 -215 182c0 102 67 176 159 201c-50 28 -74 76 -74 136c0 99 88 201 223 201c115 0 202 -68 202 -174c0 -93 -58 -161 -141 -186c55 -32 90 -80 90 -149c0 -106 -92 -211 -244 -211zM222 86c71 0 122 54 122 122c1 62 -40 101 -105 101
c-70 0 -122 -56 -122 -123c-1 -63 45 -100 105 -100zM287 404c66 0 113 55 113 116c1 54 -34 93 -94 93c-66 0 -110 -56 -111 -114c-1 -52 33 -95 92 -95z" />
    <glyph glyph-name="nine.tab" horiz-adv-x="530" 
d="M163 -11c-69 0 -129 27 -176 70l65 91c35 -33 73 -55 120 -55c41 0 76 18 102 45c41 41 70 100 88 164c-34 -33 -75 -58 -137 -58c-88 0 -172 62 -172 188c0 136 96 277 246 277c58 0 106 -19 139 -53c39 -38 60 -96 60 -182c0 -123 -46 -304 -148 -407
c-49 -48 -111 -80 -187 -80zM261 340c31 0 59 13 80 36c31 30 45 77 45 126c0 64 -33 110 -93 110c-82 0 -125 -92 -125 -166c0 -71 37 -106 93 -106z" />
    <glyph glyph-name="period.tab" horiz-adv-x="265" 
d="M-21 0l35 142h138l-36 -142h-137z" />
    <glyph glyph-name="comma.tab" horiz-adv-x="265" 
d="M-68 -144l-10 52c70 11 102 41 111 92h-55l35 142h139l-31 -121c-28 -113 -87 -155 -189 -165z" />
    <glyph glyph-name="colon.tab" horiz-adv-x="265" 
d="M-21 0l34 139h135l-34 -139h-135zM74 394l34 138h136l-34 -138h-136z" />
    <glyph glyph-name="semicolon.tab" horiz-adv-x="265" 
d="M-68 -144l-10 52c70 11 102 41 111 92h-54l35 139h136l-30 -118c-28 -113 -86 -155 -188 -165zM74 394l35 138h136l-35 -138h-136z" />
    <glyph glyph-name="twodotleader.tab" horiz-adv-x="530" 
d="M-18 0l34 135h132l-35 -135h-131zM245 0l34 135h132l-35 -135h-131z" />
    <glyph glyph-name="periodcentered.tab" horiz-adv-x="265" 
d="M35 236l36 141h138l-36 -141h-138z" />
    <glyph glyph-name="slash.tab" horiz-adv-x="530" 
d="M-118 -119l632 908h111l-631 -908h-112z" />
    <glyph glyph-name="bar.tab" horiz-adv-x="265" 
d="M-31 -119l224 908h94l-223 -908h-95z" />
    <glyph glyph-name="underscore.tab" horiz-adv-x="530" 
d="M-125 -160l24 92h530l-24 -92h-530z" />
    <glyph glyph-name="dollar.tab" horiz-adv-x="530" 
d="M354 781h80l-26 -91c54 -14 99 -43 134 -82l-71 -80c-28 29 -57 52 -92 65l-56 -201c81 -45 131 -94 131 -178c0 -123 -98 -216 -238 -216h-5l-29 -101h-80l32 111c-65 18 -121 55 -163 104l74 78c40 -46 80 -73 120 -86l59 212c-82 44 -132 94 -132 175
c0 116 100 210 232 210h7zM335 199c0 31 -12 55 -46 80l-53 -184c61 5 99 48 99 104zM212 506c0 -28 10 -51 45 -77l49 174c-61 -5 -94 -48 -94 -97z" />
    <glyph glyph-name="sterling.tab" horiz-adv-x="530" 
d="M-35 0l20 76l70 22l45 188h-69l25 98h68l26 118c16 66 39 113 73 147c40 40 89 60 154 60c82 0 143 -45 176 -101l-93 -69c-23 38 -51 59 -90 59c-26 0 -46 -8 -64 -26c-18 -19 -33 -49 -42 -89l-22 -99h193l-25 -98h-193l-42 -183h261l-25 -103h-446z" />
    <glyph glyph-name="Euro.tab" horiz-adv-x="530" 
d="M37 396l19 78h66c23 61 54 117 97 160c48 48 106 76 175 76c81 0 139 -43 171 -99l-80 -70c-26 38 -55 64 -97 64c-30 0 -60 -14 -85 -39c-24 -24 -43 -56 -58 -92h166l-20 -78h-173c-8 -30 -13 -60 -16 -88h169l-21 -78h-151c4 -91 37 -135 95 -135c31 0 63 16 100 47
l57 -82c-47 -41 -101 -70 -167 -70c-108 0 -198 76 -203 240h-85l20 78h68c3 29 7 58 14 88h-61z" />
    <glyph glyph-name="yen.tab" horiz-adv-x="530" 
d="M50 266l21 79h119l-95 355h121l61 -289l195 289h133l-268 -355h121l-21 -79h-135l-20 -80h136l-19 -79h-136l-26 -107h-114l26 107h-138l20 79h138l20 80h-139z" />
    <glyph glyph-name="cent.tab" horiz-adv-x="530" 
d="M464 705l-35 -99c43 -19 77 -50 102 -88l-80 -60c-16 23 -35 42 -57 55l-111 -335c47 0 83 20 122 52l55 -73c-48 -46 -108 -73 -185 -73c-8 0 -15 0 -22 1l-31 -91h-83l40 110c-73 33 -121 106 -121 206c0 88 31 176 91 237c51 51 110 77 188 77c5 0 10 0 16 -1l28 82
h83zM165 315c0 -55 19 -95 50 -117l109 331c-39 -2 -68 -17 -95 -45c-42 -42 -64 -113 -64 -169z" />
    <glyph glyph-name="numbersign.tab" horiz-adv-x="530" 
d="M18 0l44 160h-71l25 101h75l50 180h-78l25 101h81l44 158h91l-44 -158h115l44 158h91l-44 -158h73l-25 -101h-77l-49 -180h79l-25 -101h-81l-44 -160h-91l44 160h-116l-45 -160h-91zM181 261h118l49 180h-118z" />
    <glyph glyph-name="paragraph.tab" horiz-adv-x="530" 
d="M243 0l54 225c-72 2 -143 21 -187 66c-33 32 -52 79 -52 140c0 71 23 136 73 185c51 52 134 84 247 84h156l-171 -700h-120z" />
    <glyph glyph-name="section.tab" horiz-adv-x="530" 
d="M211 -8c-86 0 -152 31 -196 77l70 72c34 -33 80 -58 129 -58c44 0 70 21 70 47c0 29 -21 43 -91 72c-93 38 -160 71 -160 145c0 79 67 120 139 129c-30 27 -42 57 -42 91c0 79 70 143 187 143c85 0 152 -31 195 -77l-69 -73c-35 34 -80 59 -130 59c-44 0 -70 -20 -70 -47
c0 -29 21 -43 91 -72c94 -37 160 -71 160 -145c0 -79 -67 -120 -138 -129c29 -27 41 -57 41 -91c0 -78 -70 -143 -186 -143zM308 275c38 0 74 23 74 61c0 31 -24 46 -66 66c-42 17 -70 25 -97 25c-37 0 -74 -23 -74 -61c0 -31 24 -46 66 -66c42 -17 70 -25 97 -25z" />
    <glyph glyph-name="degree.tab" horiz-adv-x="530" 
d="M325 709c98 0 165 -68 165 -170c0 -67 -27 -131 -70 -173c-36 -35 -82 -59 -136 -59c-99 0 -166 68 -166 169c0 68 27 131 70 174c36 35 83 59 137 59zM287 375c32 0 59 14 80 35c32 32 49 80 49 127c0 63 -37 103 -95 103c-31 0 -59 -13 -79 -34
c-33 -31 -49 -79 -49 -127c0 -62 36 -104 94 -104z" />
    <glyph glyph-name="percent.tab" horiz-adv-x="530" 
d="M203 706c52 0 88 -38 88 -111c0 -68 -28 -162 -74 -209c-23 -22 -49 -36 -80 -36c-52 0 -88 37 -88 111c0 67 28 162 74 208c23 23 49 37 80 37zM329 -6c-52 0 -88 38 -88 111c0 68 28 162 74 209c23 22 49 36 80 36c52 0 88 -37 88 -111c0 -67 -28 -162 -75 -208
c-22 -23 -48 -37 -79 -37zM480 700h67l-263 -362l-232 -338h-68l264 361zM196 642c-9 0 -17 -4 -25 -12c-30 -29 -54 -120 -54 -169c0 -29 8 -48 27 -48c10 0 18 5 25 12c30 30 54 121 54 170c0 29 -7 47 -27 47zM336 58c9 0 17 4 25 12c30 29 54 120 54 169
c0 29 -8 48 -27 48c-10 0 -18 -5 -25 -12c-30 -30 -54 -121 -54 -170c0 -29 7 -47 27 -47z" />
    <glyph glyph-name="quotedbl.tab" horiz-adv-x="530" 
d="M104 403l92 297h134l-2 -6l-163 -291h-61zM320 403l91 297h135l-3 -6l-162 -291h-61z" />
    <glyph glyph-name="quotesingle.tab" horiz-adv-x="265" 
d="M81 403l92 297h134l-2 -6l-163 -291h-61z" />
    <glyph glyph-name="plus.tab" horiz-adv-x="530" 
d="M158 138l41 162h-160l27 104h159l39 162h107l-40 -162h159l-27 -104h-156l-40 -162h-109z" />
    <glyph glyph-name="minus.tab" horiz-adv-x="530" 
d="M39 297l27 110h425l-28 -110h-424z" />
    <glyph glyph-name="divide.tab" horiz-adv-x="530" 
d="M139 102l31 122h125l-30 -122h-126zM39 301l27 102h425l-28 -102h-424zM234 480l30 122h126l-30 -122h-126z" />
    <glyph glyph-name="equal.tab" horiz-adv-x="530" 
d="M24 189l27 106h400l-27 -106h-400zM79 409l27 106h399l-27 -106h-399z" />
    <glyph glyph-name="multiply.tab" horiz-adv-x="530" 
d="M91 142l-63 81l167 135l-98 130l90 70l93 -132l164 136l63 -81l-165 -134l96 -129l-90 -72l-93 132z" />
    <glyph glyph-name="less.tab" horiz-adv-x="530" 
d="M392 109l-347 189l28 108l443 198l-32 -119l-315 -137l251 -129z" />
    <glyph glyph-name="greater.tab" horiz-adv-x="530" 
d="M138 595l347 -189l-28 -108l-443 -198l32 119l315 137l-251 129z" />
    <glyph glyph-name="plusminus.tab" horiz-adv-x="530" 
d="M178 212l39 154h-159l27 103h158l38 155h107l-39 -155h159l-27 -103h-158l-38 -154h-107zM-25 28l25 101h423l-26 -101h-422z" />
    <glyph glyph-name="space" unicode=" " horiz-adv-x="228" 
 />
    <glyph glyph-name="uni00A0" unicode="&#xa0;" horiz-adv-x="228" 
 />
    <glyph glyph-name="emspace" unicode="&#x2003;" horiz-adv-x="1000" 
 />
    <glyph glyph-name="enspace" unicode="&#x2002;" horiz-adv-x="500" 
 />
    <glyph glyph-name="threeperemspace" unicode="&#x2004;" horiz-adv-x="333" 
 />
    <glyph glyph-name="fourperemspace" unicode="&#x2005;" horiz-adv-x="250" 
 />
    <glyph glyph-name="thinspace" unicode="&#x2009;" horiz-adv-x="133" 
 />
    <glyph glyph-name="hairspace" unicode="&#x200a;" horiz-adv-x="75" 
 />
    <glyph glyph-name="space.tab" horiz-adv-x="265" 
 />
    <glyph glyph-name="figurespace" unicode="&#x2007;" horiz-adv-x="530" 
 />
    <glyph glyph-name="NUL" horiz-adv-x="0" 
 />
    <glyph glyph-name="asciicircum" unicode="^" horiz-adv-x="439" 
d="M94 505l171 191h83l76 -191h-80l-51 113l-104 -113h-95z" />
    <glyph glyph-name="asciitilde" unicode="~" horiz-adv-x="444" 
d="M117 230l-64 30c30 70 72 116 125 116c30 0 49 -11 68 -28c23 -18 33 -25 47 -25c25 0 43 22 59 55l65 -30c-30 -70 -73 -116 -125 -116c-31 0 -48 10 -69 28c-23 18 -33 25 -46 25c-25 0 -43 -23 -60 -55z" />
    <glyph glyph-name="hfjslug" horiz-adv-x="694" 
d="M255 276h8l11 34h1l11 -34h8l14 47h-8l-10 -35h-1l-11 35h-7l-11 -35h-1l-10 35h-8zM321 388c13 0 23 9 29 24h1l12 -24l12 6l-17 32c5 12 9 25 13 39l-13 3c-2 -9 -5 -21 -8 -30h-1l-16 31c13 12 23 26 23 42c0 17 -9 31 -27 31c-17 0 -28 -14 -28 -31
c0 -15 6 -24 14 -39c-15 -12 -23 -28 -23 -47c0 -22 12 -37 29 -37zM50 -200v303c18 0 32 14 32 32c0 17 -14 32 -32 32v554h100l30 79h334l29 -79h101v-921h-208l-8 14h-163l-8 -14h-207zM523 277h8v12l8 8l15 -20h10l-20 26l18 20h-10l-20 -24h-1v24h-8v-46zM193 277h34v7
h-26v13h23v7h-23v12h26v7h-34v-46zM184 391h15v79h47v-79h15v172h-15v-79h-47v79h-15v-172zM132 277h8v32l25 -32h7v46h-8v-32l-25 32h-7v-46zM400 391h15v78h38v14h-38v66h43v14h-58v-172zM468 277h8v15h12l10 -15h9l-12 17c5 2 10 6 10 14c0 9 -7 15 -17 15h-20v-46z
M366 277h8v17l18 29h-9l-13 -22l-13 22h-9l18 -29v-17zM481 390c20 0 31 11 31 36v137h-16v-137c0 -16 -5 -22 -16 -22c-6 0 -15 3 -20 5v-15c5 -2 14 -4 21 -4zM476 299v17h11c6 0 10 -3 10 -8s-4 -9 -10 -9h-11zM322 402c-9 0 -16 10 -16 25c0 13 7 26 16 35l20 -39
c-5 -13 -12 -21 -20 -21zM327 479c-7 13 -12 22 -12 32c0 11 6 19 14 19s13 -8 13 -19c0 -12 -5 -21 -15 -32zM426 283c-10 0 -16 8 -16 17c0 8 6 17 16 17s16 -9 16 -17c0 -9 -6 -17 -16 -17zM426 276c14 0 24 11 24 24c0 12 -10 24 -24 24s-24 -12 -24 -24
c0 -13 10 -24 24 -24z" />
    <glyph glyph-name="i.dot" horiz-adv-x="256" 
d="M4 0l131 533h118l-130 -533h-119zM148 607l30 116h126l-31 -116h-125z" />
    <glyph glyph-name="fraction" unicode="&#x2044;" horiz-adv-x="88" 
d="M-286 0l309 364l277 336h73l-309 -364l-277 -336h-73z" />
    <glyph glyph-name="zero.num" 
d="M368 573c0 -72 -25 -160 -77 -212c-28 -28 -64 -46 -104 -46c-74 0 -123 53 -123 136c0 72 26 160 77 212c28 28 64 45 104 45c75 0 123 -51 123 -135zM140 453c0 -47 21 -70 53 -70c16 0 31 7 42 19c41 40 58 125 58 168c0 48 -22 71 -54 71c-16 0 -30 -8 -43 -20
c-39 -40 -56 -124 -56 -168z" />
    <glyph glyph-name="one.num" horiz-adv-x="287" 
d="M122 323l72 301l-78 -31l-4 63l118 48h55l-92 -381h-71z" />
    <glyph glyph-name="one.num_alt" 
d="M55 323l15 64h95l57 238l-94 -36l-3 64l134 52h54l-77 -318h85l-16 -64h-250z" />
    <glyph glyph-name="two.num" 
d="M37 323l16 60l179 141c37 31 52 51 52 75c0 25 -20 42 -51 42c-32 0 -62 -20 -88 -44l-42 50c38 38 81 61 133 61c76 0 122 -43 122 -103c0 -42 -14 -75 -88 -130l-116 -88h160l-16 -64h-261z" />
    <glyph glyph-name="three.num" 
d="M180 315c-69 0 -111 31 -135 60l46 48c23 -21 47 -43 91 -43c43 0 70 30 70 61c0 33 -29 51 -82 51h-19l-2 44l122 99h-146l17 65h241l-14 -54l-134 -105c58 -11 90 -43 90 -95c0 -75 -59 -131 -145 -131z" />
    <glyph glyph-name="four.num" 
d="M205 322l18 79h-171l12 66l223 237h77l-60 -246h47l-15 -57h-47l-19 -79h-65zM129 458h109l38 159h-2z" />
    <glyph glyph-name="five.num" 
d="M179 315c-49 0 -108 23 -138 62l47 48c27 -26 58 -43 92 -43c47 0 77 32 77 68c0 33 -24 53 -65 53c-21 0 -38 -6 -51 -13l-43 29l58 181h214l-15 -66h-154l-26 -80c13 4 31 7 46 7c65 0 112 -39 112 -107c0 -71 -58 -139 -154 -139z" />
    <glyph glyph-name="six.num" 
d="M194 316c-79 0 -122 49 -122 130c0 60 26 156 81 211c32 32 73 51 122 51c46 0 78 -20 96 -35l-38 -54c-15 12 -36 24 -64 24s-53 -13 -72 -31c-18 -19 -31 -45 -41 -75c19 16 48 30 85 30c50 0 98 -32 98 -100c0 -78 -57 -151 -145 -151zM197 377c43 0 73 38 73 80
c0 34 -22 54 -55 54c-21 0 -38 -7 -51 -21c-15 -13 -22 -33 -22 -56c0 -38 22 -57 55 -57z" />
    <glyph glyph-name="seven.num" 
d="M69 322l221 311h-166l17 67h245l-15 -57l-224 -321h-78z" />
    <glyph glyph-name="eight.num" 
d="M191 315c-72 0 -131 40 -131 105c0 56 38 93 92 106c-30 18 -46 43 -46 75c0 54 49 107 133 107c73 0 124 -42 124 -100c0 -47 -30 -84 -80 -96c33 -19 52 -43 52 -81c0 -59 -53 -116 -144 -116zM195 373c40 0 72 24 72 59c1 31 -25 55 -66 55c-42 0 -72 -26 -73 -61
c0 -30 26 -53 67 -53zM234 544c34 0 63 24 63 57c0 26 -20 50 -59 50c-38 0 -66 -23 -66 -57c-1 -26 22 -50 62 -50z" />
    <glyph glyph-name="nine.num" 
d="M159 315c-48 0 -82 21 -103 40l38 54c20 -17 41 -28 71 -28s52 10 70 28c19 19 32 47 41 74c-17 -15 -46 -31 -85 -31c-51 0 -98 34 -98 102c0 78 57 155 145 155c79 0 123 -51 123 -133c0 -58 -24 -154 -80 -209c-32 -33 -72 -52 -122 -52zM218 510c21 0 37 6 51 19
c14 14 22 34 22 59c0 39 -23 60 -55 60c-44 -1 -73 -41 -73 -85c0 -36 22 -53 55 -53z" />
    <glyph glyph-name="zero.den" 
d="M290 249c0 -72 -26 -160 -77 -212c-28 -28 -63 -45 -104 -45c-73 0 -123 51 -123 135c0 72 26 160 78 212c27 28 63 46 104 46c73 0 122 -53 122 -136zM61 130c0 -48 22 -71 54 -71c16 0 31 8 43 20c40 40 57 124 57 168c0 47 -21 70 -53 70c-17 0 -31 -7 -43 -19
c-40 -40 -58 -125 -58 -168z" />
    <glyph glyph-name="one.den" horiz-adv-x="287" 
d="M43 0l72 299l-78 -30l-4 64l119 46h54l-93 -379h-70z" />
    <glyph glyph-name="one.den_alt" 
d="M-24 0l16 63h95l57 237l-94 -36l-3 65l132 51h55l-76 -317h84l-15 -63h-251z" />
    <glyph glyph-name="two.den" 
d="M-41 0l15 59l179 142c37 31 52 51 52 75s-20 42 -51 42c-33 0 -61 -21 -87 -44l-43 49c38 38 81 61 134 61c75 0 121 -43 121 -102c0 -42 -13 -76 -88 -130l-116 -89h160l-16 -63h-260z" />
    <glyph glyph-name="three.den" 
d="M103 -8c-70 0 -111 30 -136 59l47 49c23 -22 46 -44 90 -44c43 0 70 31 70 61c0 33 -30 51 -82 52h-19l-2 44l122 99h-146l16 65h241l-13 -54l-134 -106c58 -10 91 -43 91 -95c0 -74 -60 -130 -145 -130z" />
    <glyph glyph-name="four.den" 
d="M126 -1l19 80h-172l13 65l222 237h78l-60 -245h47l-15 -57h-47l-20 -80h-65zM51 135h110l37 160h-2z" />
    <glyph glyph-name="five.den" 
d="M101 -8c-49 0 -108 22 -138 61l46 49c27 -26 59 -44 93 -44c47 0 77 32 77 69c0 33 -25 52 -65 52c-22 0 -38 -6 -51 -12l-42 29l57 181h214l-15 -66h-154l-25 -80c11 4 29 6 44 6c66 0 114 -38 114 -106c0 -72 -59 -139 -155 -139z" />
    <glyph glyph-name="six.den" 
d="M115 -8c-79 0 -122 50 -122 131c0 59 26 155 82 210c31 32 71 52 120 52c47 0 79 -21 96 -35l-37 -55c-14 12 -36 24 -64 24c-29 0 -54 -12 -72 -31s-32 -45 -41 -74c19 16 47 30 85 30c50 0 98 -33 98 -100c0 -79 -57 -152 -145 -152zM117 53c44 0 74 38 74 80
c0 35 -23 54 -55 54c-22 0 -38 -7 -52 -20c-14 -14 -21 -33 -21 -57c0 -37 22 -57 54 -57z" />
    <glyph glyph-name="seven.den" 
d="M-10 -2l221 311h-165l17 68h244l-15 -57l-225 -322h-77z" />
    <glyph glyph-name="eight.den" 
d="M113 -8c-72 0 -131 40 -131 104c0 56 38 93 91 106c-29 18 -45 43 -45 75c0 54 48 108 133 108c72 0 123 -42 123 -100c0 -48 -30 -85 -79 -97c33 -19 52 -43 52 -80c0 -60 -53 -116 -144 -116zM117 49c40 0 72 24 72 60c1 31 -25 54 -67 54c-41 0 -72 -26 -73 -60
c0 -31 26 -54 68 -54zM155 221c35 0 63 23 63 56c0 26 -20 50 -59 50c-37 0 -65 -23 -65 -56c-1 -27 22 -50 61 -50z" />
    <glyph glyph-name="nine.den" 
d="M81 -8c-48 0 -81 21 -103 39l38 55c20 -18 42 -29 71 -29c30 0 53 10 70 28c19 20 33 47 41 75c-17 -17 -46 -31 -85 -31c-50 0 -98 33 -98 102c0 77 57 153 145 153c79 0 123 -50 123 -131c0 -59 -24 -155 -80 -210c-32 -32 -72 -51 -122 -51zM140 185c21 0 38 7 51 20
c13 14 22 34 22 59c0 40 -22 59 -55 59c-44 0 -73 -40 -73 -83c0 -36 22 -55 55 -55z" />
    <glyph glyph-name="acute" unicode="&#xb4;" horiz-adv-x="500" 
d="M222 589l138 161l102 -48l-142 -113h-98z" />
    <glyph glyph-name="hungarumlaut" unicode="&#x2dd;" horiz-adv-x="500" 
d="M149 589l136 161l92 -48l-143 -113h-85zM311 589l139 161l90 -48l-143 -113h-86z" />
    <glyph glyph-name="caron.alt" horiz-adv-x="500" 
d="M279 581l50 190h94v-3l-95 -187h-49z" />
    <glyph glyph-name="grave" unicode="`" horiz-adv-x="500" 
d="M344 589l-91 113l106 48l66 -161h-81z" />
    <glyph glyph-name="circumflex" unicode="&#x2c6;" horiz-adv-x="500" 
d="M169 590l141 146h111l69 -146h-88l-51 70l-86 -70h-96z" />
    <glyph glyph-name="caron" unicode="&#x2c7;" horiz-adv-x="500" 
d="M272 590l-69 146h87l51 -68l86 68h96l-141 -146h-110z" />
    <glyph glyph-name="breve" unicode="&#x2d8;" horiz-adv-x="500" 
d="M343 588c-99 0 -142 61 -139 139h83c1 -34 23 -58 61 -58c46 0 71 24 91 58h83c-27 -82 -90 -139 -179 -139z" />
    <glyph glyph-name="tilde" unicode="&#x2dc;" horiz-adv-x="500" 
d="M460 728l65 -22c-32 -72 -62 -117 -119 -117c-30 0 -52 11 -74 24c-19 11 -34 19 -47 19c-25 0 -40 -18 -56 -49l-65 22c30 73 62 117 119 117c28 0 50 -11 73 -23c20 -12 34 -19 48 -19c25 0 38 17 56 48z" />
    <glyph glyph-name="macron" unicode="&#xaf;" horiz-adv-x="500" 
d="M179 595l23 85h301l-22 -85h-302z" />
    <glyph glyph-name="dieresis" unicode="&#xa8;" horiz-adv-x="500" 
d="M184 592l28 113h116l-29 -113h-115zM360 592l30 113h115l-29 -113h-116z" />
    <glyph glyph-name="dotaccent" unicode="&#x2d9;" horiz-adv-x="500" 
d="M271 592l30 114h118l-29 -114h-119z" />
    <glyph glyph-name="ring" unicode="&#x2da;" horiz-adv-x="500" 
d="M460 705c0 -61 -47 -117 -115 -117c-58 0 -97 40 -97 92c0 61 48 118 115 118c59 0 97 -41 97 -93zM297 684c0 -32 21 -54 51 -54c39 0 64 36 64 71c0 32 -21 53 -51 53c-38 0 -64 -36 -64 -70z" />
    <glyph glyph-name="acute.cap" horiz-adv-x="500" 
d="M271 750l139 141l103 -46l-141 -95h-101z" />
    <glyph glyph-name="hungarumlaut.cap" horiz-adv-x="500" 
d="M211 750l138 141l98 -46l-141 -95h-95zM374 750l139 141l98 -46l-141 -95h-96z" />
    <glyph glyph-name="grave.cap" horiz-adv-x="500" 
d="M376 750l-101 95l107 46l77 -141h-83z" />
    <glyph glyph-name="circumflex.cap" horiz-adv-x="500" 
d="M203 752l144 132h112l79 -132h-91l-56 56l-85 -56h-103z" />
    <glyph glyph-name="caron.cap" horiz-adv-x="500" 
d="M570 884l-143 -132h-113l-77 132h89l58 -57l84 57h102z" />
    <glyph glyph-name="breve.cap" horiz-adv-x="500" 
d="M372 750c-88 0 -143 45 -131 127h78c5 -29 25 -45 69 -45s68 16 86 45h89c-29 -82 -101 -127 -191 -127z" />
    <glyph glyph-name="tilde.cap" horiz-adv-x="500" 
d="M262 745l-66 23c32 70 63 113 120 113c30 0 53 -10 78 -21c20 -11 36 -18 50 -18c26 0 40 16 58 44l66 -22c-32 -70 -63 -113 -120 -113c-30 0 -53 10 -79 21c-20 11 -36 18 -50 18c-25 0 -40 -16 -57 -45z" />
    <glyph glyph-name="macron.cap" horiz-adv-x="500" 
d="M210 757l23 87h322l-22 -87h-323z" />
    <glyph glyph-name="dieresis.cap" horiz-adv-x="500" 
d="M221 753l27 108h118l-28 -108h-117zM404 753l28 108h117l-28 -108h-117z" />
    <glyph glyph-name="dotaccent.cap" horiz-adv-x="500" 
d="M311 753l27 108h121l-28 -108h-120z" />
    <glyph glyph-name="ring.cap" horiz-adv-x="500" 
d="M291 947c59 0 101 -39 101 -88c0 -59 -44 -111 -121 -111c-58 0 -101 41 -101 89c0 58 44 110 121 110zM274 794c42 0 66 31 66 60c0 28 -20 48 -52 48c-42 0 -66 -31 -66 -60c0 -28 21 -48 52 -48z" />
    <glyph glyph-name="commaaccent" unicode="&#x326;" horiz-adv-x="500" 
d="M67 -259l1 39c46 7 71 27 77 65h-51l25 98h111l-22 -86c-20 -79 -65 -109 -141 -116z" />
    <glyph glyph-name="cedilla" unicode="&#xb8;" horiz-adv-x="500" 
d="M160 -152l-92 42l109 120h87z" />
    <glyph glyph-name="ogonek" unicode="&#x2db;" horiz-adv-x="500" 
d="M248 -92l-14 -57c-13 -2 -24 -3 -37 -3c-60 0 -95 23 -95 60c0 33 27 65 70 99l76 1c-34 -36 -52 -55 -52 -74c0 -20 18 -26 52 -26z" />
    </font>
</defs>
</svg>
