<?xml version="1.0" standalone="no"?>
<!DOCTYPE svg PUBLIC "-//W3C//DTD SVG 1.1//EN" "http://www.w3.org/Graphics/SVG/1.1/DTD/svg11.dtd" >
<svg>
<metadata>
Created by FontForge 20110222 at Tue Aug 21 23:02:44 2012
 By Stefan Warting
Copyright (C) 2005, 2008 Hoefler &#38; Frere-Jones. http://www.typography.com
</metadata>
<defs>
<font id="GothamNarrow-XLightItalic" horiz-adv-x="502" >
  <font-face 
    font-family="Gotham Narrow XLight"
    font-weight="275"
    font-style="italic"
    font-stretch="condensed"
    units-per-em="1000"
    panose-1="0 0 0 0 0 0 0 0 0 0"
    ascent="800"
    descent="-200"
    x-height="511"
    cap-height="700"
    bbox="-113 -200 1019 955"
    underline-thickness="50"
    underline-position="-50"
    slope="-12"
    stemh="30"
    stemv="33"
    unicode-range="U+0020-FB04"
  />
<missing-glyph 
d="M1 -200v1000h500v-1000h-500zM51 -76l172 376l-172 376v-752zM72 -150h358l-179 390zM251 360l179 390h-358zM451 -76v752l-172 -376z" />
    <glyph glyph-name="f_f" unicode="ff" horiz-adv-x="588" 
d="M41 0l117 482h-68l7 29h68l19 74c13 51 27 80 51 104c23 23 53 33 88 33c28 0 56 -7 76 -17l-8 -29c-21 11 -45 17 -69 17c-48 0 -87 -25 -106 -106l-19 -76h151l-8 -29h-150l-118 -482h-31zM334 0l117 482h-68l7 29h68l19 74c13 51 27 80 51 104c23 23 53 33 88 33
c28 0 56 -7 76 -17l-8 -29c-21 11 -45 17 -69 17c-48 0 -87 -25 -106 -106l-19 -76h151l-8 -29h-150l-118 -482h-31z" />
    <glyph glyph-name="fi" unicode="fi" horiz-adv-x="498" 
d="M41 0l117 482h-68l7 29h68l19 74c13 51 27 80 51 104c23 23 53 33 88 33c28 0 56 -7 76 -17l-8 -29c-21 11 -45 17 -69 17c-48 0 -87 -25 -106 -106l-19 -76h151l-8 -29h-150l-118 -482h-31zM316 0l125 511h31l-125 -511h-31zM469 643l15 62h40l-16 -62h-39z" />
    <glyph glyph-name="fl" unicode="fl" horiz-adv-x="498" 
d="M41 0l117 482h-68l7 29h68l19 74c13 51 27 80 51 104c23 23 53 33 88 33c28 0 56 -7 76 -17l-8 -29c-21 11 -45 17 -69 17c-48 0 -87 -25 -106 -106l-19 -76h151l-8 -29h-150l-118 -482h-31zM316 0l177 722h31l-177 -722h-31z" />
    <glyph glyph-name="f_f_i" unicode="ffi" horiz-adv-x="791" 
d="M41 0l117 482h-68l7 29h68l19 74c13 51 27 80 51 104c23 23 53 33 88 33c28 0 56 -7 76 -17l-8 -29c-21 11 -45 17 -69 17c-48 0 -87 -25 -106 -106l-19 -76h151l-8 -29h-150l-118 -482h-31zM334 0l117 482h-68l7 29h68l19 74c13 51 27 80 51 104c23 23 53 33 88 33
c28 0 56 -7 76 -17l-8 -29c-21 11 -45 17 -69 17c-48 0 -87 -25 -106 -106l-19 -76h151l-8 -29h-150l-118 -482h-31zM611 0l125 511h31l-125 -511h-31zM764 643l15 62h40l-16 -62h-39z" />
    <glyph glyph-name="f_f_l" unicode="ffl" horiz-adv-x="791" 
d="M41 0l117 482h-68l7 29h68l19 74c13 51 27 80 51 104c23 23 53 33 88 33c28 0 56 -7 76 -17l-8 -29c-21 11 -45 17 -69 17c-48 0 -87 -25 -106 -106l-19 -76h151l-8 -29h-150l-118 -482h-31zM334 0l117 482h-68l7 29h68l19 74c13 51 27 80 51 104c23 23 53 33 88 33
c28 0 56 -7 76 -17l-8 -29c-21 11 -45 17 -69 17c-48 0 -87 -25 -106 -106l-19 -76h151l-8 -29h-150l-118 -482h-31zM611 0l177 722h31l-177 -722h-31z" />
    <glyph glyph-name=".notdef" 
d="M1 -200v1000h500v-1000h-500zM51 -76l172 376l-172 376v-752zM72 -150h358l-179 390zM251 360l179 390h-358zM451 -76v752l-172 -376z" />
    <glyph glyph-name="A" unicode="A" horiz-adv-x="648" 
d="M-26 0l448 705h32l102 -705h-33l-28 204h-355l-129 -204h-37zM159 234h331l-60 427z" />
    <glyph glyph-name="B" unicode="B" horiz-adv-x="610" 
d="M28 0l171 700h193c122 0 199 -62 199 -155c0 -118 -94 -178 -186 -192c81 -19 133 -68 133 -146c0 -124 -103 -207 -276 -207h-234zM68 30h196c158 0 241 73 241 177c0 82 -72 131 -182 131h-179zM151 369h172c147 0 235 70 235 172c0 82 -65 129 -169 129h-165z" />
    <glyph glyph-name="C" unicode="C" horiz-adv-x="602" 
d="M312 -11c-130 0 -234 97 -234 265c0 127 48 268 138 358c61 61 136 99 222 99c98 0 164 -50 201 -117l-28 -17c-34 59 -89 104 -174 104c-77 0 -146 -36 -196 -87c-81 -82 -130 -214 -130 -340c0 -147 87 -235 204 -235c81 0 137 35 189 83l21 -23
c-52 -49 -120 -90 -213 -90z" />
    <glyph glyph-name="D" unicode="D" horiz-adv-x="649" 
d="M28 0l171 700h118c95 0 176 -27 229 -79c46 -46 71 -112 71 -198c0 -105 -38 -229 -119 -309c-72 -72 -174 -114 -298 -114h-172zM521 599c-46 47 -117 71 -203 71h-94l-156 -640h136c113 0 204 39 270 105c73 72 109 188 109 287c0 77 -22 137 -62 177z" />
    <glyph glyph-name="E" unicode="E" horiz-adv-x="551" 
d="M28 0l171 700h408l-7 -30h-375l-74 -302h339l-7 -31h-339l-76 -307h380l-8 -30h-412z" />
    <glyph glyph-name="F" unicode="F" horiz-adv-x="533" 
d="M28 0l171 700h403l-8 -30h-370l-75 -311h334l-7 -30h-334l-81 -329h-33z" />
    <glyph glyph-name="G" unicode="G" horiz-adv-x="656" 
d="M333 -11c-152 0 -253 110 -253 278c0 124 49 254 134 339c65 66 147 105 241 105c100 0 162 -45 204 -100l-26 -19c-36 48 -90 89 -180 89c-83 0 -156 -36 -215 -94c-77 -78 -125 -202 -125 -319c0 -151 87 -249 222 -249c63 0 122 20 165 48l65 256h-200l8 32h232
l-78 -307c-56 -36 -123 -59 -194 -59z" />
    <glyph glyph-name="H" unicode="H" horiz-adv-x="647" 
d="M28 0l171 700h33l-81 -332h400l81 332h34l-171 -700h-34l82 337h-400l-82 -337h-33z" />
    <glyph glyph-name="I" unicode="I" horiz-adv-x="226" 
d="M35 0l171 700h33l-171 -700h-33z" />
    <glyph glyph-name="J" unicode="J" horiz-adv-x="437" 
d="M144 -9c-81 0 -135 50 -157 120l29 11c23 -64 66 -101 129 -101c40 0 72 14 100 42c29 28 47 70 62 129l123 508h33l-125 -514c-15 -62 -36 -110 -71 -144c-33 -34 -75 -51 -123 -51z" />
    <glyph glyph-name="K" unicode="K" horiz-adv-x="596" 
d="M28 0l171 700h33l-112 -452l493 452h45l-335 -305l177 -395h-36l-167 372l-188 -171l-48 -201h-33z" />
    <glyph glyph-name="L" unicode="L" horiz-adv-x="493" 
d="M28 0l171 700h33l-164 -670h346l-7 -30h-379z" />
    <glyph glyph-name="M" unicode="M" horiz-adv-x="739" 
d="M28 0l171 700h30l143 -424l350 424h36l-171 -700h-32l155 638l-349 -423h-3l-142 423l-156 -638h-32z" />
    <glyph glyph-name="N" unicode="N" horiz-adv-x="668" 
d="M28 0l171 700h31l268 -641l158 641h31l-171 -700h-27l-271 648l-158 -648h-32z" />
    <glyph glyph-name="O" unicode="O" horiz-adv-x="703" 
d="M428 711c146 0 243 -112 243 -277c0 -124 -50 -266 -136 -352c-58 -57 -130 -93 -213 -93c-146 0 -242 112 -242 276c0 124 48 267 135 352c58 58 131 94 213 94zM323 19c73 0 136 31 188 83c80 80 127 216 127 332c0 147 -85 247 -211 247c-73 0 -136 -32 -188 -84
c-80 -80 -126 -215 -126 -331c0 -147 83 -247 210 -247z" />
    <glyph glyph-name="P" unicode="P" horiz-adv-x="568" 
d="M28 0l171 700h164c81 0 138 -19 176 -57c30 -30 46 -73 46 -125c0 -66 -23 -123 -66 -166c-52 -52 -134 -84 -245 -84h-147l-66 -268h-33zM513 622c-32 33 -82 48 -152 48h-137l-90 -372h142c100 0 172 27 218 73c39 39 58 90 58 147c0 44 -12 78 -39 104z" />
    <glyph glyph-name="Q" unicode="Q" horiz-adv-x="705" 
d="M428 711c146 0 243 -112 243 -277c0 -124 -51 -267 -136 -351l-5 -5l62 -74l-23 -20l-61 74c-52 -43 -115 -69 -186 -69c-146 0 -242 112 -242 276c0 124 49 267 135 352c58 58 131 94 213 94zM323 19c64 0 119 24 165 62l-103 126l25 20l101 -125c79 80 127 217 127 332
c0 147 -85 247 -211 247c-73 0 -136 -32 -188 -84c-80 -79 -126 -216 -126 -331c0 -147 83 -247 210 -247z" />
    <glyph glyph-name="Q.alt" horiz-adv-x="705" 
d="M428 711c146 0 243 -112 243 -277c0 -124 -51 -267 -136 -351l-5 -5l62 -74l-23 -20l-61 74c-52 -43 -115 -69 -186 -69c-146 0 -242 112 -242 276c0 124 49 267 135 352c58 58 131 94 213 94zM323 19c64 0 119 24 165 62l-103 126l25 20l101 -125c79 80 127 217 127 332
c0 147 -85 247 -211 247c-73 0 -136 -32 -188 -84c-80 -79 -126 -216 -126 -331c0 -147 83 -247 210 -247z" />
    <glyph glyph-name="R" unicode="R" horiz-adv-x="611" 
d="M460 0l-131 297c-11 -1 -22 -1 -33 -1h-163l-72 -296h-33l171 700h189c77 0 135 -20 170 -56c30 -30 45 -69 45 -117c0 -54 -18 -110 -60 -152c-38 -39 -98 -66 -180 -76l134 -299h-37zM141 325h165c113 0 174 29 212 67c35 35 52 82 52 133c0 41 -13 74 -35 96
c-32 32 -80 49 -151 49h-159z" />
    <glyph glyph-name="S" unicode="S" horiz-adv-x="538" 
d="M248 -9c-103 0 -184 52 -236 124l26 20c50 -68 121 -114 213 -114c107 0 178 75 178 154c0 76 -54 117 -140 169c-92 57 -153 104 -153 186c0 45 19 88 50 118c38 39 89 61 157 61c89 0 161 -46 206 -99l-25 -22c-43 51 -107 91 -183 91c-106 0 -172 -72 -172 -147
c0 -69 57 -109 140 -161c94 -57 154 -106 154 -193c0 -46 -18 -90 -54 -126c-36 -35 -89 -61 -161 -61z" />
    <glyph glyph-name="T" unicode="T" horiz-adv-x="498" 
d="M167 0l163 670h-207l8 30h448l-8 -30h-207l-164 -670h-33z" />
    <glyph glyph-name="U" unicode="U" horiz-adv-x="644" 
d="M287 -10c-126 0 -210 69 -210 193c0 34 5 68 15 110l98 407h33l-101 -416c-9 -37 -13 -69 -13 -98c0 -107 71 -166 181 -166c56 0 110 20 153 63c36 37 69 96 90 180l105 437h33l-107 -444c-23 -90 -56 -151 -97 -193c-50 -49 -112 -73 -180 -73z" />
    <glyph glyph-name="V" unicode="V" horiz-adv-x="611" 
d="M224 -5l-85 705h33l77 -657l398 657h37l-431 -705h-29z" />
    <glyph glyph-name="W" unicode="W" horiz-adv-x="915" 
d="M181 -5l-37 705h33l31 -649l340 651h27l29 -651l343 649h36l-377 -705h-28l-30 643l-339 -643h-28z" />
    <glyph glyph-name="X" unicode="X" horiz-adv-x="576" 
d="M-23 0l316 361l-149 339h35l137 -317l279 317h40l-304 -345l155 -355h-35l-144 333l-291 -333h-39z" />
    <glyph glyph-name="Y" unicode="Y" horiz-adv-x="564" 
d="M199 0l72 294l-147 406h34l136 -377l320 377h42l-353 -412l-70 -288h-34z" />
    <glyph glyph-name="Z" unicode="Z" horiz-adv-x="557" 
d="M-13 0l5 20l564 650h-394l8 30h439l-4 -21l-566 -649h409l-7 -30h-454z" />
    <glyph glyph-name="a" unicode="a" horiz-adv-x="490" 
d="M160 -10c-74 0 -142 47 -142 136c0 50 17 98 52 132c34 34 88 54 152 54c61 0 123 -13 170 -30l6 25c5 24 9 47 9 67c0 73 -53 114 -140 114c-47 0 -88 -11 -124 -25l-8 29c36 14 81 26 134 26c102 0 169 -50 169 -141c0 -20 -4 -47 -11 -74l-73 -303h-31l24 98
c-38 -59 -98 -108 -187 -108zM166 18c99 0 181 79 205 177l15 60c-47 17 -108 29 -167 29c-54 0 -97 -17 -125 -45c-29 -28 -43 -69 -43 -110c0 -72 51 -111 115 -111z" />
    <glyph glyph-name="a.alt" horiz-adv-x="556" 
d="M213 -10c-101 0 -169 82 -169 199c0 97 37 201 101 265c42 42 94 67 153 67c107 0 160 -81 172 -154l36 144h31l-124 -511h-31l28 114c-33 -54 -104 -124 -197 -124zM218 19c54 0 102 25 140 63c58 57 95 150 95 232c0 98 -59 178 -154 178c-51 0 -95 -22 -130 -57
c-59 -58 -92 -155 -92 -243c0 -102 55 -173 141 -173z" />
    <glyph glyph-name="b" unicode="b" horiz-adv-x="556" 
d="M258 -10c-107 0 -160 81 -174 153l-35 -143h-31l177 722h31l-80 -325c33 54 103 124 196 124c101 0 170 -82 170 -199c0 -98 -37 -201 -102 -266c-42 -41 -94 -66 -152 -66zM257 19c50 0 94 21 130 57c57 58 92 154 92 243c0 101 -56 173 -141 173
c-55 0 -102 -25 -141 -64c-58 -57 -95 -149 -95 -231c0 -99 60 -178 155 -178z" />
    <glyph glyph-name="c" unicode="c" horiz-adv-x="462" 
d="M225 -10c-98 0 -185 73 -185 204c0 95 38 191 100 253c46 47 104 74 165 74c81 0 132 -46 159 -92l-25 -18c-26 42 -66 80 -136 80c-51 0 -100 -23 -139 -63c-55 -55 -91 -147 -91 -232c0 -116 73 -176 154 -176c53 0 97 23 135 56l19 -22c-40 -36 -93 -64 -156 -64z" />
    <glyph glyph-name="d" unicode="d" horiz-adv-x="556" 
d="M382 0l28 114c-33 -54 -104 -124 -197 -124c-101 0 -169 82 -169 199c0 97 37 201 101 265c42 42 94 67 153 67c107 0 160 -81 172 -154l88 355h31l-176 -722h-31zM218 19c54 0 102 25 140 63c58 57 95 150 95 232c0 98 -59 178 -154 178c-51 0 -95 -22 -130 -57
c-59 -58 -92 -155 -92 -243c0 -102 55 -173 141 -173z" />
    <glyph glyph-name="e" unicode="e" 
d="M447 244h-370c-2 -17 -3 -34 -3 -50c0 -110 63 -174 160 -174c52 0 101 18 147 54l17 -24c-51 -39 -105 -60 -164 -60c-115 0 -192 76 -192 202c0 97 40 196 102 258c43 44 97 71 157 71c110 0 161 -81 161 -182c0 -31 -5 -64 -15 -95zM167 433c-40 -40 -70 -99 -84 -160
h339c5 21 8 43 8 65c0 84 -39 154 -130 154c-51 0 -96 -23 -133 -59z" />
    <glyph glyph-name="f" unicode="f" horiz-adv-x="294" 
d="M41 0l117 482h-68l7 29h68l19 74c13 51 27 80 51 104c23 23 53 33 88 33c28 0 56 -7 76 -17l-8 -29c-21 11 -45 17 -69 17c-48 0 -87 -25 -106 -106l-19 -76h151l-8 -29h-150l-118 -482h-31z" />
    <glyph glyph-name="g" unicode="g" horiz-adv-x="554" 
d="M192 -151c-69 0 -146 27 -198 71l19 25c48 -41 116 -66 181 -66c60 0 105 17 139 51c28 27 46 66 62 129l22 89c-40 -57 -107 -115 -195 -115c-96 0 -173 73 -173 185c0 87 35 176 93 234c43 42 98 69 159 69c106 0 156 -81 170 -147l34 137h31l-111 -456
c-16 -67 -36 -111 -70 -144c-41 -41 -95 -62 -163 -62zM227 62c57 0 107 26 146 65c48 48 81 126 81 196c0 86 -57 169 -154 169c-51 0 -98 -23 -134 -59c-52 -52 -84 -134 -84 -213c0 -95 63 -158 145 -158z" />
    <glyph glyph-name="h" unicode="h" horiz-adv-x="525" 
d="M18 0l177 722h31l-78 -316c36 61 95 115 181 115c88 0 143 -53 143 -143c0 -23 -4 -54 -13 -91l-69 -287h-31l69 288c8 30 12 63 12 88c0 73 -41 116 -118 116c-86 0 -171 -75 -199 -189l-74 -303h-31z" />
    <glyph glyph-name="i" unicode="i" horiz-adv-x="204" 
d="M24 0l125 511h31l-125 -511h-31zM177 643l15 62h40l-16 -62h-39z" />
    <glyph glyph-name="j" unicode="j" horiz-adv-x="205" 
d="M-67 -154c-17 0 -33 3 -46 8l7 29c10 -4 25 -8 39 -8c39 0 66 24 80 80l137 556h31l-138 -563c-16 -69 -56 -102 -110 -102zM177 643l16 62h39l-15 -62h-40z" />
    <glyph glyph-name="k" unicode="k" horiz-adv-x="466" 
d="M18 0l177 722h31l-132 -538l352 327h42l-241 -221l125 -290h-34l-115 267l-139 -126l-35 -141h-31z" />
    <glyph glyph-name="l" unicode="l" horiz-adv-x="204" 
d="M24 0l177 722h31l-177 -722h-31z" />
    <glyph glyph-name="m" unicode="m" horiz-adv-x="816" 
d="M18 0l124 511h31l-25 -105c35 59 88 115 167 115c77 0 126 -50 130 -128c39 71 103 128 185 128c78 0 134 -52 134 -140c0 -21 -5 -54 -15 -94l-69 -287h-31l70 288c7 32 12 66 12 91c0 71 -40 113 -108 113c-80 0 -159 -81 -186 -189l-72 -303h-32l70 288
c8 33 13 66 13 91c0 71 -40 113 -108 113c-81 0 -159 -83 -186 -190l-73 -302h-31z" />
    <glyph glyph-name="n" unicode="n" horiz-adv-x="526" 
d="M18 0l124 511h31l-25 -105c36 61 95 115 181 115c88 0 143 -53 143 -143c0 -23 -4 -54 -13 -91l-69 -287h-31l69 288c8 30 12 63 12 88c0 73 -41 116 -118 116c-86 0 -171 -75 -199 -189l-74 -303h-31z" />
    <glyph glyph-name="o" unicode="o" horiz-adv-x="536" 
d="M306 521c112 0 188 -84 188 -207c0 -94 -36 -189 -99 -252c-44 -44 -101 -72 -166 -72c-112 0 -188 84 -188 207c0 93 36 189 100 252c44 44 101 72 165 72zM231 19c55 0 103 25 140 62c55 56 90 146 90 231c0 108 -61 180 -157 180c-54 0 -103 -25 -140 -63
c-55 -55 -90 -145 -90 -231c0 -107 62 -179 157 -179z" />
    <glyph glyph-name="p" unicode="p" horiz-adv-x="557" 
d="M258 -10c-107 0 -160 81 -174 153l-71 -293h-31l160 661h31l-27 -114c33 54 103 124 196 124c101 0 170 -82 170 -199c0 -98 -37 -201 -102 -266c-42 -41 -94 -66 -152 -66zM257 19c50 0 94 21 130 57c57 58 92 154 92 243c0 101 -56 173 -141 173
c-55 0 -102 -25 -141 -64c-58 -57 -95 -149 -95 -231c0 -99 60 -178 155 -178z" />
    <glyph glyph-name="q" unicode="q" horiz-adv-x="556" 
d="M213 -10c-101 0 -169 82 -169 199c0 97 37 201 101 265c42 42 94 67 153 67c107 0 160 -81 172 -154l36 144h31l-161 -661h-31l65 264c-33 -54 -104 -124 -197 -124zM218 19c54 0 102 25 140 63c58 57 95 150 95 232c0 98 -59 178 -154 178c-51 0 -95 -22 -130 -57
c-59 -58 -92 -155 -92 -243c0 -102 55 -173 141 -173z" />
    <glyph glyph-name="r" unicode="r" horiz-adv-x="314" 
d="M18 0l124 511h31l-31 -129c52 84 130 140 214 137l-8 -33h-2c-89 0 -199 -82 -230 -210l-67 -276h-31z" />
    <glyph glyph-name="s" unicode="s" horiz-adv-x="418" 
d="M178 -8c-69 0 -135 35 -179 88l24 22c47 -53 98 -81 158 -81c72 0 125 51 125 106c0 48 -31 78 -103 120c-78 45 -117 79 -117 141c0 71 62 131 156 131c61 0 119 -32 158 -76l-24 -22c-40 44 -86 69 -136 69c-75 0 -121 -48 -121 -100c0 -45 30 -75 104 -117
c77 -45 115 -83 115 -144c0 -73 -66 -137 -160 -137z" />
    <glyph glyph-name="t" unicode="t" horiz-adv-x="325" 
d="M163 -7c-59 0 -98 28 -98 84c0 16 4 35 8 51l85 354h-67l7 29h67l40 162h31l-39 -162h148l-7 -29h-149l-86 -357c-4 -16 -6 -32 -6 -44c0 -41 27 -59 72 -59c20 0 40 5 61 14l-7 -32c-20 -8 -38 -11 -60 -11z" />
    <glyph glyph-name="u" unicode="u" horiz-adv-x="525" 
d="M196 -10c-87 0 -143 52 -143 143c0 23 5 53 14 91l69 287h31l-70 -288c-7 -30 -12 -64 -12 -88c0 -74 42 -117 118 -117c87 0 172 75 200 189l73 304h32l-125 -511h-31l26 105c-36 -61 -96 -115 -182 -115z" />
    <glyph glyph-name="v" unicode="v" horiz-adv-x="482" 
d="M160 -4l-69 515h33l58 -470l287 470h36l-319 -515h-26z" />
    <glyph glyph-name="w" unicode="w" horiz-adv-x="714" 
d="M127 -4l-30 515h31l23 -463l250 464h26l23 -464l247 463h34l-279 -515h-28l-23 458l-248 -458h-26z" />
    <glyph glyph-name="x" unicode="x" horiz-adv-x="465" 
d="M139 511l99 -225l208 225h39l-234 -251l116 -260h-33l-105 238l-219 -238h-38l245 263l-111 248h33z" />
    <glyph glyph-name="y" unicode="y" horiz-adv-x="491" 
d="M169 3l-80 508h33l71 -471l283 471h36l-312 -511c-77 -126 -124 -153 -178 -153c-33 0 -63 11 -85 29l18 25c18 -14 42 -25 69 -25c41 0 80 25 145 127z" />
    <glyph glyph-name="z" unicode="z" horiz-adv-x="431" 
d="M-23 0l3 19l421 464h-299l7 28h342l-3 -19l-421 -464h312l-7 -28h-355z" />
    <glyph glyph-name="Aacute" unicode="&#xc1;" horiz-adv-x="648" 
d="M-26 0l448 705h32l102 -705h-33l-28 204h-355l-129 -204h-37zM159 234h331l-60 427zM433 763l111 105l35 -18l-117 -87h-29z" />
    <glyph glyph-name="aacute" unicode="&#xe1;" horiz-adv-x="490" 
d="M160 -10c-74 0 -142 47 -142 136c0 50 17 98 52 132c34 34 88 54 152 54c61 0 123 -13 170 -30l6 25c5 24 9 47 9 67c0 73 -53 114 -140 114c-47 0 -88 -11 -124 -25l-8 29c36 14 81 26 134 26c102 0 169 -50 169 -141c0 -20 -4 -47 -11 -74l-73 -303h-31l24 98
c-38 -59 -98 -108 -187 -108zM166 18c99 0 181 79 205 177l15 60c-47 17 -108 29 -167 29c-54 0 -97 -17 -125 -45c-29 -28 -43 -69 -43 -110c0 -72 51 -111 115 -111zM294 589l110 121l36 -18l-119 -103h-27z" />
    <glyph glyph-name="aacute.alt" horiz-adv-x="556" 
d="M336 589l110 121l36 -18l-119 -103h-27zM213 -10c-101 0 -169 82 -169 199c0 97 37 201 101 265c42 42 94 67 153 67c107 0 160 -81 172 -154l36 144h31l-124 -511h-31l28 114c-33 -54 -104 -124 -197 -124zM218 19c54 0 102 25 140 63c58 57 95 150 95 232
c0 98 -59 178 -154 178c-51 0 -95 -22 -130 -57c-59 -58 -92 -155 -92 -243c0 -102 55 -173 141 -173z" />
    <glyph glyph-name="Abreve" unicode="&#x102;" horiz-adv-x="648" 
d="M-26 0l448 705h32l102 -705h-33l-28 204h-355l-129 -204h-37zM159 234h331l-60 427zM455 763c-67 0 -104 33 -98 87h26c1 -34 21 -57 76 -57c54 0 86 23 104 57h28c-20 -54 -69 -87 -136 -87z" />
    <glyph glyph-name="abreve" unicode="&#x103;" horiz-adv-x="490" 
d="M160 -10c-74 0 -142 47 -142 136c0 50 17 98 52 132c34 34 88 54 152 54c61 0 123 -13 170 -30l6 25c5 24 9 47 9 67c0 73 -53 114 -140 114c-47 0 -88 -11 -124 -25l-8 29c36 14 81 26 134 26c102 0 169 -50 169 -141c0 -20 -4 -47 -11 -74l-73 -303h-31l24 98
c-38 -59 -98 -108 -187 -108zM166 18c99 0 181 79 205 177l15 60c-47 17 -108 29 -167 29c-54 0 -97 -17 -125 -45c-29 -28 -43 -69 -43 -110c0 -72 51 -111 115 -111zM317 590c-66 0 -103 39 -94 100h25c-2 -42 18 -72 73 -72s87 31 108 72h26c-23 -61 -71 -100 -138 -100z
" />
    <glyph glyph-name="abreve.alt" horiz-adv-x="556" 
d="M213 -10c-101 0 -169 82 -169 199c0 97 37 201 101 265c42 42 94 67 153 67c107 0 160 -81 172 -154l36 144h31l-124 -511h-31l28 114c-33 -54 -104 -124 -197 -124zM218 19c54 0 102 25 140 63c58 57 95 150 95 232c0 98 -59 178 -154 178c-51 0 -95 -22 -130 -57
c-59 -58 -92 -155 -92 -243c0 -102 55 -173 141 -173zM357 590c-66 0 -103 39 -94 100h25c-2 -42 18 -72 73 -72s87 31 108 72h26c-23 -61 -71 -100 -138 -100z" />
    <glyph glyph-name="Acircumflex" unicode="&#xc2;" horiz-adv-x="648" 
d="M-26 0l448 705h32l102 -705h-33l-28 204h-355l-129 -204h-37zM159 234h331l-60 427zM339 761l118 100h28l69 -100h-29l-59 69l-94 -69h-33z" />
    <glyph glyph-name="acircumflex" unicode="&#xe2;" horiz-adv-x="490" 
d="M160 -10c-74 0 -142 47 -142 136c0 50 17 98 52 132c34 34 88 54 152 54c61 0 123 -13 170 -30l6 25c5 24 9 47 9 67c0 73 -53 114 -140 114c-47 0 -88 -11 -124 -25l-8 29c36 14 81 26 134 26c102 0 169 -50 169 -141c0 -20 -4 -47 -11 -74l-73 -303h-31l24 98
c-38 -59 -98 -108 -187 -108zM166 18c99 0 181 79 205 177l15 60c-47 17 -108 29 -167 29c-54 0 -97 -17 -125 -45c-29 -28 -43 -69 -43 -110c0 -72 51 -111 115 -111zM210 591l120 118h23l62 -118h-25l-55 83l-97 -83h-28z" />
    <glyph glyph-name="acircumflex.alt" horiz-adv-x="556" 
d="M250 591l120 118h23l62 -118h-25l-55 83l-97 -83h-28zM213 -10c-101 0 -169 82 -169 199c0 97 37 201 101 265c42 42 94 67 153 67c107 0 160 -81 172 -154l36 144h31l-124 -511h-31l28 114c-33 -54 -104 -124 -197 -124zM218 19c54 0 102 25 140 63c58 57 95 150 95 232
c0 98 -59 178 -154 178c-51 0 -95 -22 -130 -57c-59 -58 -92 -155 -92 -243c0 -102 55 -173 141 -173z" />
    <glyph glyph-name="Adieresis" unicode="&#xc4;" horiz-adv-x="648" 
d="M-26 0l448 705h32l102 -705h-33l-28 204h-355l-129 -204h-37zM159 234h331l-60 427zM365 774l14 57h47l-14 -57h-47zM498 774l14 57h47l-14 -57h-47z" />
    <glyph glyph-name="adieresis" unicode="&#xe4;" horiz-adv-x="490" 
d="M160 -10c-74 0 -142 47 -142 136c0 50 17 98 52 132c34 34 88 54 152 54c61 0 123 -13 170 -30l6 25c5 24 9 47 9 67c0 73 -53 114 -140 114c-47 0 -88 -11 -124 -25l-8 29c36 14 81 26 134 26c102 0 169 -50 169 -141c0 -20 -4 -47 -11 -74l-73 -303h-31l24 98
c-38 -59 -98 -108 -187 -108zM166 18c99 0 181 79 205 177l15 60c-47 17 -108 29 -167 29c-54 0 -97 -17 -125 -45c-29 -28 -43 -69 -43 -110c0 -72 51 -111 115 -111zM234 600l14 57h45l-15 -57h-44zM358 600l14 57h44l-14 -57h-44z" />
    <glyph glyph-name="adieresis.alt" horiz-adv-x="556" 
d="M274 600l14 57h45l-15 -57h-44zM398 600l14 57h44l-14 -57h-44zM213 -10c-101 0 -169 82 -169 199c0 97 37 201 101 265c42 42 94 67 153 67c107 0 160 -81 172 -154l36 144h31l-124 -511h-31l28 114c-33 -54 -104 -124 -197 -124zM218 19c54 0 102 25 140 63
c58 57 95 150 95 232c0 98 -59 178 -154 178c-51 0 -95 -22 -130 -57c-59 -58 -92 -155 -92 -243c0 -102 55 -173 141 -173z" />
    <glyph glyph-name="AE" unicode="&#xc6;" horiz-adv-x="871" 
d="M-47 0l534 700h436l-8 -30h-366l-74 -302h331l-7 -31h-331l-75 -307h370l-7 -30h-403l49 204h-255l-155 -204h-39zM170 234h239l107 436h-15z" />
    <glyph glyph-name="ae" unicode="&#xe6;" horiz-adv-x="837" 
d="M571 -10c-93 0 -158 48 -181 132c-59 -82 -133 -132 -225 -132c-80 0 -147 48 -147 137c0 53 18 98 52 131c34 34 88 54 153 54c60 0 122 -13 169 -30l6 25c5 24 9 47 9 67c0 73 -53 114 -140 114c-47 0 -88 -11 -124 -25l-8 29c36 14 81 26 134 26
c97 0 163 -46 166 -131c43 75 117 134 202 134c109 0 160 -81 160 -182c0 -31 -5 -64 -14 -95h-370c-2 -17 -3 -34 -3 -50c0 -110 63 -174 161 -174c52 0 100 18 146 54l17 -24c-51 -39 -106 -60 -163 -60zM169 18c86 0 160 57 214 139c-4 32 -2 66 3 97
c-46 17 -109 30 -167 30c-54 0 -97 -17 -125 -45c-29 -28 -43 -67 -43 -109c0 -72 52 -112 118 -112zM503 433c-40 -40 -70 -99 -84 -160h339c4 21 8 43 8 65c0 84 -38 154 -130 154c-50 0 -97 -23 -133 -59z" />
    <glyph glyph-name="AEacute" unicode="&#x1fc;" horiz-adv-x="871" 
d="M596 757l111 105l35 -18l-117 -87h-29zM-47 0l534 700h436l-8 -30h-366l-74 -302h331l-7 -31h-331l-75 -307h370l-7 -30h-403l49 204h-255l-155 -204h-39zM170 234h239l107 436h-15z" />
    <glyph glyph-name="aeacute" unicode="&#x1fd;" horiz-adv-x="837" 
d="M571 -10c-93 0 -158 48 -181 132c-59 -82 -133 -132 -225 -132c-80 0 -147 48 -147 137c0 53 18 98 52 131c34 34 88 54 153 54c60 0 122 -13 169 -30l6 25c5 24 9 47 9 67c0 73 -53 114 -140 114c-47 0 -88 -11 -124 -25l-8 29c36 14 81 26 134 26
c97 0 163 -46 166 -131c43 75 117 134 202 134c109 0 160 -81 160 -182c0 -31 -5 -64 -14 -95h-370c-2 -17 -3 -34 -3 -50c0 -110 63 -174 161 -174c52 0 100 18 146 54l17 -24c-51 -39 -106 -60 -163 -60zM169 18c86 0 160 57 214 139c-4 32 -2 66 3 97
c-46 17 -109 30 -167 30c-54 0 -97 -17 -125 -45c-29 -28 -43 -67 -43 -109c0 -72 52 -112 118 -112zM503 433c-40 -40 -70 -99 -84 -160h339c4 21 8 43 8 65c0 84 -38 154 -130 154c-50 0 -97 -23 -133 -59zM461 588l110 121l36 -18l-119 -103h-27z" />
    <glyph glyph-name="Agrave" unicode="&#xc0;" horiz-adv-x="648" 
d="M-26 0l448 705h32l102 -705h-33l-28 204h-355l-129 -204h-37zM159 234h331l-60 427zM430 763l-79 87l35 18l66 -105h-22z" />
    <glyph glyph-name="agrave" unicode="&#xe0;" horiz-adv-x="490" 
d="M160 -10c-74 0 -142 47 -142 136c0 50 17 98 52 132c34 34 88 54 152 54c61 0 123 -13 170 -30l6 25c5 24 9 47 9 67c0 73 -53 114 -140 114c-47 0 -88 -11 -124 -25l-8 29c36 14 81 26 134 26c102 0 169 -50 169 -141c0 -20 -4 -47 -11 -74l-73 -303h-31l24 98
c-38 -59 -98 -108 -187 -108zM166 18c99 0 181 79 205 177l15 60c-47 17 -108 29 -167 29c-54 0 -97 -17 -125 -45c-29 -28 -43 -69 -43 -110c0 -72 51 -111 115 -111zM297 589l-75 103l37 18l58 -121h-20z" />
    <glyph glyph-name="agrave.alt" horiz-adv-x="556" 
d="M213 -10c-101 0 -169 82 -169 199c0 97 37 201 101 265c42 42 94 67 153 67c107 0 160 -81 172 -154l36 144h31l-124 -511h-31l28 114c-33 -54 -104 -124 -197 -124zM218 19c54 0 102 25 140 63c58 57 95 150 95 232c0 98 -59 178 -154 178c-51 0 -95 -22 -130 -57
c-59 -58 -92 -155 -92 -243c0 -102 55 -173 141 -173zM339 589l-75 103l37 18l58 -121h-20z" />
    <glyph glyph-name="Amacron" unicode="&#x100;" horiz-adv-x="648" 
d="M-26 0l448 705h32l102 -705h-33l-28 204h-355l-129 -204h-37zM159 234h331l-60 427zM333 784l7 31h251l-7 -31h-251z" />
    <glyph glyph-name="amacron" unicode="&#x101;" horiz-adv-x="490" 
d="M160 -10c-74 0 -142 47 -142 136c0 50 17 98 52 132c34 34 88 54 152 54c61 0 123 -13 170 -30l6 25c5 24 9 47 9 67c0 73 -53 114 -140 114c-47 0 -88 -11 -124 -25l-8 29c36 14 81 26 134 26c102 0 169 -50 169 -141c0 -20 -4 -47 -11 -74l-73 -303h-31l24 98
c-38 -59 -98 -108 -187 -108zM166 18c99 0 181 79 205 177l15 60c-47 17 -108 29 -167 29c-54 0 -97 -17 -125 -45c-29 -28 -43 -69 -43 -110c0 -72 51 -111 115 -111zM200 610l7 29h240l-7 -29h-240z" />
    <glyph glyph-name="amacron.alt" horiz-adv-x="556" 
d="M213 -10c-101 0 -169 82 -169 199c0 97 37 201 101 265c42 42 94 67 153 67c107 0 160 -81 172 -154l36 144h31l-124 -511h-31l28 114c-33 -54 -104 -124 -197 -124zM218 19c54 0 102 25 140 63c58 57 95 150 95 232c0 98 -59 178 -154 178c-51 0 -95 -22 -130 -57
c-59 -58 -92 -155 -92 -243c0 -102 55 -173 141 -173zM241 610l7 29h240l-7 -29h-240z" />
    <glyph glyph-name="Aogonek" unicode="&#x104;" horiz-adv-x="648" 
d="M539 -121l-6 -23c-1 -1 -2 -1 -3 -1c-55 1 -84 24 -84 55c0 34 30 63 76 94l-27 200h-355l-129 -204h-37l448 705h32l102 -705h-9c-47 -36 -69 -60 -69 -85c0 -20 19 -33 61 -36zM159 234h331l-60 427z" />
    <glyph glyph-name="aogonek" unicode="&#x105;" horiz-adv-x="490" 
d="M340 -121l-6 -23c-1 -1 -2 -1 -3 -1c-55 1 -84 24 -84 55c0 34 30 63 77 95l23 93c-38 -59 -98 -108 -187 -108c-74 0 -142 47 -142 136c0 50 17 98 52 132c34 34 88 54 152 54c61 0 123 -13 170 -30l6 25c5 24 9 47 9 67c0 73 -53 114 -140 114c-47 0 -88 -11 -124 -25
l-8 29c36 14 81 26 134 26c102 0 169 -50 169 -141c0 -20 -4 -47 -11 -74l-73 -303h-6c-47 -36 -69 -60 -69 -85c0 -20 19 -33 61 -36zM166 18c99 0 181 79 205 177l15 60c-47 17 -108 29 -167 29c-54 0 -97 -17 -125 -45c-29 -28 -43 -69 -43 -110c0 -72 51 -111 115 -111z
" />
    <glyph glyph-name="aogonek.alt" horiz-adv-x="556" 
d="M399 -121l-6 -23c-1 -1 -2 -1 -3 -1c-55 1 -84 24 -84 55c0 34 30 63 77 95l27 109c-33 -54 -104 -124 -197 -124c-101 0 -169 82 -169 199c0 97 37 201 101 265c42 42 94 67 153 67c107 0 160 -81 172 -154l36 144h31l-124 -511h-6c-47 -36 -69 -60 -69 -85
c0 -20 19 -33 61 -36zM218 19c54 0 102 25 140 63c58 57 95 150 95 232c0 98 -59 178 -154 178c-51 0 -95 -22 -130 -57c-59 -58 -92 -155 -92 -243c0 -102 55 -173 141 -173z" />
    <glyph glyph-name="Aring" unicode="&#xc5;" horiz-adv-x="648" 
d="M-26 0l429 674c-32 11 -50 37 -50 70c0 54 51 93 106 93c52 0 85 -33 85 -75c0 -48 -39 -84 -85 -92l97 -670h-33l-28 204h-355l-129 -204h-37zM159 234h331l-60 427zM442 690c40 0 77 30 77 70c0 32 -23 56 -63 56s-77 -30 -77 -71c0 -32 23 -55 63 -55z" />
    <glyph glyph-name="aring" unicode="&#xe5;" horiz-adv-x="490" 
d="M160 -10c-74 0 -142 47 -142 136c0 50 17 98 52 132c34 34 88 54 152 54c61 0 123 -13 170 -30l6 25c5 24 9 47 9 67c0 73 -53 114 -140 114c-47 0 -88 -11 -124 -25l-8 29c36 14 81 26 134 26c102 0 169 -50 169 -141c0 -20 -4 -47 -11 -74l-73 -303h-31l24 98
c-38 -59 -98 -108 -187 -108zM166 18c99 0 181 79 205 177l15 60c-47 17 -108 29 -167 29c-54 0 -97 -17 -125 -45c-29 -28 -43 -69 -43 -110c0 -72 51 -111 115 -111zM429 687c0 -54 -47 -96 -99 -96c-50 0 -84 34 -84 81c0 53 47 96 99 96c50 0 84 -35 84 -81zM269 673
c0 -36 24 -62 62 -62c40 0 75 34 75 75c0 34 -23 61 -62 61c-40 0 -75 -34 -75 -74z" />
    <glyph glyph-name="aring.alt" horiz-adv-x="556" 
d="M468 687c0 -54 -47 -96 -99 -96c-50 0 -84 34 -84 81c0 53 47 96 99 96c50 0 84 -35 84 -81zM308 673c0 -36 24 -62 62 -62c40 0 75 34 75 75c0 34 -23 61 -62 61c-40 0 -75 -34 -75 -74zM213 -10c-101 0 -169 82 -169 199c0 97 37 201 101 265c42 42 94 67 153 67
c107 0 160 -81 172 -154l36 144h31l-124 -511h-31l28 114c-33 -54 -104 -124 -197 -124zM218 19c54 0 102 25 140 63c58 57 95 150 95 232c0 98 -59 178 -154 178c-51 0 -95 -22 -130 -57c-59 -58 -92 -155 -92 -243c0 -102 55 -173 141 -173z" />
    <glyph glyph-name="aring.alt2" horiz-adv-x="490" 
d="M323 0l24 98c-38 -59 -98 -108 -187 -108c-74 0 -142 47 -142 136c0 50 17 98 52 132c34 34 88 54 152 54c61 0 123 -13 170 -30l6 25c6 24 9 47 9 67c0 73 -53 114 -140 114c-47 0 -88 -11 -124 -25l-8 29c30 13 74 24 118 25c-16 14 -25 34 -25 58c0 54 48 95 99 95
c50 0 85 -33 85 -79c0 -40 -27 -73 -62 -87c55 -21 88 -63 88 -127c0 -20 -4 -47 -11 -74l-73 -303h-31zM313 516c40 0 76 32 76 73c0 35 -24 61 -63 61c-40 0 -74 -32 -74 -74c0 -34 23 -60 61 -60zM166 18c99 0 181 79 205 177l15 60c-47 17 -108 29 -167 29
c-54 0 -97 -17 -125 -45c-29 -28 -43 -68 -43 -110c0 -72 51 -111 115 -111z" />
    <glyph glyph-name="Aringacute" unicode="&#x1fa;" horiz-adv-x="648" 
d="M-26 0l429 674c-32 11 -50 37 -50 70c0 54 51 93 106 93c52 0 85 -33 85 -75c0 -48 -39 -84 -85 -92l97 -670h-33l-28 204h-355l-129 -204h-37zM159 234h331l-60 427zM442 690c40 0 77 30 77 70c0 32 -23 56 -63 56s-77 -30 -77 -71c0 -32 23 -55 63 -55zM461 865l104 90
l34 -18l-108 -72h-30z" />
    <glyph glyph-name="aringacute" unicode="&#x1fb;" horiz-adv-x="491" 
d="M355 801l104 98l33 -18l-111 -80h-26zM160 -10c-74 0 -142 47 -142 136c0 50 17 98 52 132c34 34 88 54 152 54c61 0 123 -13 170 -30l6 25c5 24 9 47 9 67c0 73 -53 114 -140 114c-47 0 -88 -11 -124 -25l-8 29c36 14 81 26 134 26c102 0 169 -50 169 -141
c0 -20 -4 -47 -11 -74l-73 -303h-31l24 98c-38 -59 -98 -108 -187 -108zM166 18c99 0 181 79 205 177l15 60c-47 17 -108 29 -167 29c-54 0 -97 -17 -125 -45c-29 -28 -43 -69 -43 -110c0 -72 51 -111 115 -111zM433 686c0 -54 -47 -96 -99 -96c-50 0 -84 34 -84 81
c0 53 47 96 99 96c50 0 84 -35 84 -81zM273 672c0 -36 24 -62 62 -62c40 0 75 34 75 75c0 34 -23 61 -62 61c-40 0 -75 -34 -75 -74z" />
    <glyph glyph-name="aringacute.alt" horiz-adv-x="556" 
d="M390 801l104 98l33 -18l-110 -80h-27zM466 686c0 -54 -47 -96 -99 -96c-50 0 -84 34 -84 81c0 53 47 96 99 96c50 0 84 -35 84 -81zM306 672c0 -36 24 -62 62 -62c40 0 75 34 75 75c0 34 -23 61 -62 61c-40 0 -75 -34 -75 -74zM213 -10c-101 0 -169 82 -169 199
c0 97 37 201 101 265c42 42 94 67 153 67c107 0 160 -81 172 -154l36 144h31l-124 -511h-31l28 114c-33 -54 -104 -124 -197 -124zM218 19c54 0 102 25 140 63c58 57 95 150 95 232c0 98 -59 178 -154 178c-51 0 -95 -22 -130 -57c-59 -58 -92 -155 -92 -243
c0 -102 55 -173 141 -173z" />
    <glyph glyph-name="aringacute.alt2" horiz-adv-x="491" 
d="M336 711l103 98l33 -18l-110 -80h-26zM323 0l24 98c-38 -59 -98 -108 -187 -108c-74 0 -142 47 -142 136c0 50 17 98 52 132c34 34 88 54 152 54c61 0 123 -13 170 -30l6 25c6 24 9 47 9 67c0 73 -53 114 -140 114c-47 0 -88 -11 -124 -25l-8 29c30 13 74 24 118 25
c-16 14 -25 34 -25 58c0 54 48 95 99 95c50 0 85 -33 85 -79c0 -40 -27 -73 -62 -87c55 -21 88 -63 88 -127c0 -20 -4 -47 -11 -74l-73 -303h-31zM313 516c40 0 76 32 76 73c0 35 -24 61 -63 61c-40 0 -74 -32 -74 -74c0 -34 23 -60 61 -60zM166 18c99 0 181 79 205 177
l15 60c-47 17 -108 29 -167 29c-54 0 -97 -17 -125 -45c-29 -28 -43 -68 -43 -110c0 -72 51 -111 115 -111z" />
    <glyph glyph-name="Atilde" unicode="&#xc3;" horiz-adv-x="648" 
d="M-26 0l448 705h32l102 -705h-33l-28 204h-355l-129 -204h-37zM159 234h331l-60 427zM350 766l-21 5c22 51 48 74 80 74c20 0 39 -11 59 -23c19 -13 35 -22 50 -22c20 0 36 13 55 48l22 -6c-23 -50 -48 -73 -80 -73c-20 0 -39 12 -58 24c-20 12 -36 22 -50 22
c-21 0 -37 -14 -57 -49z" />
    <glyph glyph-name="atilde" unicode="&#xe3;" horiz-adv-x="490" 
d="M160 -10c-74 0 -142 47 -142 136c0 50 17 98 52 132c34 34 88 54 152 54c61 0 123 -13 170 -30l6 25c5 24 9 47 9 67c0 73 -53 114 -140 114c-47 0 -88 -11 -124 -25l-8 29c36 14 81 26 134 26c102 0 169 -50 169 -141c0 -20 -4 -47 -11 -74l-73 -303h-31l24 98
c-38 -59 -98 -108 -187 -108zM166 18c99 0 181 79 205 177l15 60c-47 17 -108 29 -167 29c-54 0 -97 -17 -125 -45c-29 -28 -43 -69 -43 -110c0 -72 51 -111 115 -111zM436 682l21 -6c-22 -55 -48 -80 -80 -80c-20 0 -38 12 -58 27c-18 13 -33 24 -48 24
c-20 0 -37 -14 -55 -55l-22 6c22 56 47 80 80 80c20 0 37 -12 58 -27c18 -14 34 -24 48 -24c20 0 36 15 56 55z" />
    <glyph glyph-name="atilde.alt" horiz-adv-x="556" 
d="M213 -10c-101 0 -169 82 -169 199c0 97 37 201 101 265c42 42 94 67 153 67c107 0 160 -81 172 -154l36 144h31l-124 -511h-31l28 114c-33 -54 -104 -124 -197 -124zM218 19c54 0 102 25 140 63c58 57 95 150 95 232c0 98 -59 178 -154 178c-51 0 -95 -22 -130 -57
c-59 -58 -92 -155 -92 -243c0 -102 55 -173 141 -173zM476 682l21 -6c-22 -55 -48 -80 -80 -80c-20 0 -38 12 -58 27c-18 13 -33 24 -48 24c-20 0 -37 -14 -55 -55l-22 6c22 56 47 80 80 80c20 0 37 -12 58 -27c18 -14 34 -24 48 -24c20 0 36 15 56 55z" />
    <glyph glyph-name="Cacute" unicode="&#x106;" horiz-adv-x="602" 
d="M312 -11c-130 0 -234 97 -234 265c0 127 48 268 138 358c61 61 136 99 222 99c98 0 164 -50 201 -117l-28 -17c-34 59 -89 104 -174 104c-77 0 -146 -36 -196 -87c-81 -82 -130 -214 -130 -340c0 -147 87 -235 204 -235c81 0 137 35 189 83l21 -23
c-52 -49 -120 -90 -213 -90zM436 763l111 105l35 -18l-117 -87h-29z" />
    <glyph glyph-name="cacute" unicode="&#x107;" horiz-adv-x="462" 
d="M307 589l110 121l36 -18l-119 -103h-27zM225 -10c-98 0 -185 73 -185 204c0 95 38 191 100 253c46 47 104 74 165 74c81 0 132 -46 159 -92l-25 -18c-26 42 -66 80 -136 80c-51 0 -100 -23 -139 -63c-55 -55 -91 -147 -91 -232c0 -116 73 -176 154 -176
c53 0 97 23 135 56l19 -22c-40 -36 -93 -64 -156 -64z" />
    <glyph glyph-name="Ccaron" unicode="&#x10c;" horiz-adv-x="602" 
d="M312 -11c-130 0 -234 97 -234 265c0 127 48 268 138 358c61 61 136 99 222 99c98 0 164 -50 201 -117l-28 -17c-34 59 -89 104 -174 104c-77 0 -146 -36 -196 -87c-81 -82 -130 -214 -130 -340c0 -147 87 -235 204 -235c81 0 137 35 189 83l21 -23
c-52 -49 -120 -90 -213 -90zM592 864l-118 -100h-28l-70 100h29l61 -68l93 68h33z" />
    <glyph glyph-name="ccaron" unicode="&#x10d;" horiz-adv-x="462" 
d="M313 591l-62 118h25l54 -82l97 82h29l-120 -118h-23zM225 -10c-98 0 -185 73 -185 204c0 95 38 191 100 253c46 47 104 74 165 74c81 0 132 -46 159 -92l-25 -18c-26 42 -66 80 -136 80c-51 0 -100 -23 -139 -63c-55 -55 -91 -147 -91 -232c0 -116 73 -176 154 -176
c53 0 97 23 135 56l19 -22c-40 -36 -93 -64 -156 -64z" />
    <glyph glyph-name="Ccedilla" unicode="&#xc7;" horiz-adv-x="604" 
d="M211 -131l-31 16l94 107c-112 17 -196 110 -196 262c0 127 48 268 138 358c61 61 136 99 222 99c98 0 164 -50 201 -117l-28 -17c-34 59 -89 104 -174 104c-77 0 -146 -36 -196 -87c-81 -82 -130 -214 -130 -340c0 -147 87 -235 204 -235c81 0 137 35 189 83l21 -23
c-52 -49 -120 -90 -213 -90h-13z" />
    <glyph glyph-name="ccedilla" unicode="&#xe7;" horiz-adv-x="462" 
d="M126 -131l-31 16l95 109c-83 15 -150 85 -150 200c0 95 38 191 100 253c46 47 104 74 165 74c81 0 132 -46 159 -92l-25 -18c-26 42 -66 80 -136 80c-51 0 -100 -23 -139 -63c-55 -55 -91 -147 -91 -232c0 -116 73 -176 154 -176c53 0 97 23 135 56l19 -22
c-40 -36 -93 -64 -156 -64h-10z" />
    <glyph glyph-name="Cdotaccent" unicode="&#x10a;" horiz-adv-x="602" 
d="M434 774l14 57h48l-14 -57h-48zM312 -11c-130 0 -234 97 -234 265c0 127 48 268 138 358c61 61 136 99 222 99c98 0 164 -50 201 -117l-28 -17c-34 59 -89 104 -174 104c-77 0 -146 -36 -196 -87c-81 -82 -130 -214 -130 -340c0 -147 87 -235 204 -235
c81 0 137 35 189 83l21 -23c-52 -49 -120 -90 -213 -90z" />
    <glyph glyph-name="cdotaccent" unicode="&#x10b;" horiz-adv-x="462" 
d="M225 -10c-98 0 -185 73 -185 204c0 95 38 191 100 253c46 47 104 74 165 74c81 0 132 -46 159 -92l-25 -18c-26 42 -66 80 -136 80c-51 0 -100 -23 -139 -63c-55 -55 -91 -147 -91 -232c0 -116 73 -176 154 -176c53 0 97 23 135 56l19 -22c-40 -36 -93 -64 -156 -64z
M308 600l16 58h43l-15 -58h-44z" />
    <glyph glyph-name="Dcaron" unicode="&#x10e;" horiz-adv-x="649" 
d="M28 0l171 700h118c95 0 176 -27 229 -79c46 -46 71 -112 71 -198c0 -105 -38 -229 -119 -309c-72 -72 -174 -114 -298 -114h-172zM521 599c-46 47 -117 71 -203 71h-94l-156 -640h136c113 0 204 39 270 105c73 72 109 188 109 287c0 77 -22 137 -62 177zM549 858
l-118 -100h-28l-70 100h29l61 -68l93 68h33z" />
    <glyph glyph-name="dcaron" unicode="&#x10f;" horiz-adv-x="556" 
d="M612 573l50 149h35v-2l-68 -147h-17zM382 0l28 114c-33 -54 -104 -124 -197 -124c-101 0 -169 82 -169 199c0 97 37 201 101 265c42 42 94 67 153 67c107 0 160 -81 172 -154l88 355h31l-176 -722h-31zM218 19c54 0 102 25 140 63c58 57 95 150 95 232
c0 98 -59 178 -154 178c-51 0 -95 -22 -130 -57c-59 -58 -92 -155 -92 -243c0 -102 55 -173 141 -173z" />
    <glyph glyph-name="Dcroat" unicode="&#x110;" horiz-adv-x="657" 
d="M53 337l8 30h68l81 333h118c94 0 175 -27 228 -79c46 -46 72 -112 72 -198c0 -105 -39 -229 -119 -309c-73 -72 -175 -114 -299 -114h-171l82 337h-68zM531 599c-46 47 -117 71 -202 71h-95l-74 -303h198l-8 -30h-197l-75 -307h137c112 0 204 39 269 105
c73 72 110 188 110 287c0 77 -23 137 -63 177z" />
    <glyph glyph-name="dcroat" unicode="&#x111;" horiz-adv-x="556" 
d="M372 614l7 27h158l21 81h31l-20 -81h64l-7 -27h-63l-150 -614h-31l28 114c-33 -54 -104 -124 -197 -124c-101 0 -169 82 -169 199c0 97 37 201 101 265c42 42 94 67 153 67c107 0 160 -81 172 -154l61 247h-159zM218 19c54 0 102 25 140 63c58 57 95 150 95 232
c0 98 -59 178 -154 178c-51 0 -95 -22 -130 -57c-59 -58 -92 -155 -92 -243c0 -102 55 -173 141 -173z" />
    <glyph glyph-name="Eacute" unicode="&#xc9;" horiz-adv-x="551" 
d="M390 757l111 105l35 -18l-117 -87h-29zM28 0l171 700h408l-7 -30h-375l-74 -302h339l-7 -31h-339l-76 -307h380l-8 -30h-412z" />
    <glyph glyph-name="eacute" unicode="&#xe9;" 
d="M447 244h-370c-2 -17 -3 -34 -3 -50c0 -110 63 -174 160 -174c52 0 101 18 147 54l17 -24c-51 -39 -105 -60 -164 -60c-115 0 -192 76 -192 202c0 97 40 196 102 258c43 44 97 71 157 71c110 0 161 -81 161 -182c0 -31 -5 -64 -15 -95zM167 433c-40 -40 -70 -99 -84 -160
h339c5 21 8 43 8 65c0 84 -39 154 -130 154c-51 0 -96 -23 -133 -59zM313 589l110 121l36 -18l-119 -103h-27z" />
    <glyph glyph-name="Ebreve" unicode="&#x114;" horiz-adv-x="551" 
d="M412 757c-67 0 -104 33 -98 87h26c1 -34 21 -57 76 -57c54 0 86 23 104 57h28c-20 -54 -69 -87 -136 -87zM28 0l171 700h408l-7 -30h-375l-74 -302h339l-7 -31h-339l-76 -307h380l-8 -30h-412z" />
    <glyph glyph-name="ebreve" unicode="&#x115;" 
d="M447 244h-370c-2 -17 -3 -34 -3 -50c0 -110 63 -174 160 -174c52 0 101 18 147 54l17 -24c-51 -39 -105 -60 -164 -60c-115 0 -192 76 -192 202c0 97 40 196 102 258c43 44 97 71 157 71c110 0 161 -81 161 -182c0 -31 -5 -64 -15 -95zM167 433c-40 -40 -70 -99 -84 -160
h339c5 21 8 43 8 65c0 84 -39 154 -130 154c-51 0 -96 -23 -133 -59zM335 590c-66 0 -103 39 -94 100h25c-2 -42 18 -72 73 -72s87 31 108 72h26c-23 -61 -71 -100 -138 -100z" />
    <glyph glyph-name="Ecaron" unicode="&#x11a;" horiz-adv-x="551" 
d="M546 858l-118 -100h-28l-70 100h29l61 -68l93 68h33zM28 0l171 700h408l-7 -30h-375l-74 -302h339l-7 -31h-339l-76 -307h380l-8 -30h-412z" />
    <glyph glyph-name="ecaron" unicode="&#x11b;" 
d="M447 244h-370c-2 -17 -3 -34 -3 -50c0 -110 63 -174 160 -174c52 0 101 18 147 54l17 -24c-51 -39 -105 -60 -164 -60c-115 0 -192 76 -192 202c0 97 40 196 102 258c43 44 97 71 157 71c110 0 161 -81 161 -182c0 -31 -5 -64 -15 -95zM167 433c-40 -40 -70 -99 -84 -160
h339c5 21 8 43 8 65c0 84 -39 154 -130 154c-51 0 -96 -23 -133 -59zM318 591l-62 118h25l54 -82l97 82h29l-120 -118h-23z" />
    <glyph glyph-name="Ecircumflex" unicode="&#xca;" horiz-adv-x="551" 
d="M28 0l171 700h408l-7 -30h-375l-74 -302h339l-7 -31h-339l-76 -307h380l-8 -30h-412zM297 758l118 100h28l69 -100h-29l-59 69l-94 -69h-33z" />
    <glyph glyph-name="ecircumflex" unicode="&#xea;" 
d="M447 244h-370c-2 -17 -3 -34 -3 -50c0 -110 63 -174 160 -174c52 0 101 18 147 54l17 -24c-51 -39 -105 -60 -164 -60c-115 0 -192 76 -192 202c0 97 40 196 102 258c43 44 97 71 157 71c110 0 161 -81 161 -182c0 -31 -5 -64 -15 -95zM167 433c-40 -40 -70 -99 -84 -160
h339c5 21 8 43 8 65c0 84 -39 154 -130 154c-51 0 -96 -23 -133 -59zM229 591l120 118h23l62 -118h-25l-55 83l-97 -83h-28z" />
    <glyph glyph-name="Edieresis" unicode="&#xcb;" horiz-adv-x="551" 
d="M322 768l14 57h47l-14 -57h-47zM455 768l14 57h47l-14 -57h-47zM28 0l171 700h408l-7 -30h-375l-74 -302h339l-7 -31h-339l-76 -307h380l-8 -30h-412z" />
    <glyph glyph-name="edieresis" unicode="&#xeb;" 
d="M447 244h-370c-2 -17 -3 -34 -3 -50c0 -110 63 -174 160 -174c52 0 101 18 147 54l17 -24c-51 -39 -105 -60 -164 -60c-115 0 -192 76 -192 202c0 97 40 196 102 258c43 44 97 71 157 71c110 0 161 -81 161 -182c0 -31 -5 -64 -15 -95zM167 433c-40 -40 -70 -99 -84 -160
h339c5 21 8 43 8 65c0 84 -39 154 -130 154c-51 0 -96 -23 -133 -59zM251 600l14 57h45l-15 -57h-44zM375 600l14 57h44l-14 -57h-44z" />
    <glyph glyph-name="Edotaccent" unicode="&#x116;" horiz-adv-x="551" 
d="M389 768l14 57h48l-14 -57h-48zM28 0l171 700h408l-7 -30h-375l-74 -302h339l-7 -31h-339l-76 -307h380l-8 -30h-412z" />
    <glyph glyph-name="edotaccent" unicode="&#x117;" 
d="M447 244h-370c-2 -17 -3 -34 -3 -50c0 -110 63 -174 160 -174c52 0 101 18 147 54l17 -24c-51 -39 -105 -60 -164 -60c-115 0 -192 76 -192 202c0 97 40 196 102 258c43 44 97 71 157 71c110 0 161 -81 161 -182c0 -31 -5 -64 -15 -95zM167 433c-40 -40 -70 -99 -84 -160
h339c5 21 8 43 8 65c0 84 -39 154 -130 154c-51 0 -96 -23 -133 -59zM313 600l16 58h43l-15 -58h-44z" />
    <glyph glyph-name="Egrave" unicode="&#xc8;" horiz-adv-x="551" 
d="M389 757l-79 87l35 18l66 -105h-22zM28 0l171 700h408l-7 -30h-375l-74 -302h339l-7 -31h-339l-76 -307h380l-8 -30h-412z" />
    <glyph glyph-name="egrave" unicode="&#xe8;" 
d="M447 244h-370c-2 -17 -3 -34 -3 -50c0 -110 63 -174 160 -174c52 0 101 18 147 54l17 -24c-51 -39 -105 -60 -164 -60c-115 0 -192 76 -192 202c0 97 40 196 102 258c43 44 97 71 157 71c110 0 161 -81 161 -182c0 -31 -5 -64 -15 -95zM167 433c-40 -40 -70 -99 -84 -160
h339c5 21 8 43 8 65c0 84 -39 154 -130 154c-51 0 -96 -23 -133 -59zM315 589l-75 103l37 18l58 -121h-20z" />
    <glyph glyph-name="Emacron" unicode="&#x112;" horiz-adv-x="551" 
d="M290 778l7 31h251l-7 -31h-251zM28 0l171 700h408l-7 -30h-375l-74 -302h339l-7 -31h-339l-76 -307h380l-8 -30h-412z" />
    <glyph glyph-name="emacron" unicode="&#x113;" 
d="M447 244h-370c-2 -17 -3 -34 -3 -50c0 -110 63 -174 160 -174c52 0 101 18 147 54l17 -24c-51 -39 -105 -60 -164 -60c-115 0 -192 76 -192 202c0 97 40 196 102 258c43 44 97 71 157 71c110 0 161 -81 161 -182c0 -31 -5 -64 -15 -95zM167 433c-40 -40 -70 -99 -84 -160
h339c5 21 8 43 8 65c0 84 -39 154 -130 154c-51 0 -96 -23 -133 -59zM218 610l7 29h240l-7 -29h-240z" />
    <glyph glyph-name="Eogonek" unicode="&#x118;" horiz-adv-x="551" 
d="M28 0l171 700h408l-7 -30h-375l-74 -302h339l-7 -31h-339l-76 -307h380l-8 -30h-15c-47 -36 -69 -60 -69 -85c0 -20 19 -33 61 -36l-6 -23c-1 -1 -2 -1 -3 -1c-55 1 -84 24 -84 55c0 32 27 60 70 90h-366z" />
    <glyph glyph-name="eogonek" unicode="&#x119;" 
d="M381 74l17 -24c-43 -33 -85 -55 -113 -84c-18 -17 -28 -34 -28 -51c0 -20 17 -33 60 -36l-5 -23c-2 -1 -3 -1 -3 -1c-56 1 -85 24 -85 55c0 29 22 55 64 86c-18 -4 -39 -6 -54 -6c-115 0 -192 76 -192 202c0 97 40 196 102 258c43 44 97 71 157 71
c110 0 161 -81 161 -182c0 -31 -5 -64 -15 -95h-370c-2 -17 -3 -34 -3 -50c0 -110 63 -174 160 -174c52 0 101 18 147 54zM167 433c-40 -40 -70 -99 -84 -160h339c5 21 8 43 8 65c0 84 -39 154 -130 154c-51 0 -96 -23 -133 -59z" />
    <glyph glyph-name="Eth" unicode="&#xd0;" horiz-adv-x="657" 
d="M53 337l8 30h68l81 333h118c94 0 175 -27 228 -79c46 -46 72 -112 72 -198c0 -105 -39 -229 -119 -309c-73 -72 -175 -114 -299 -114h-171l82 337h-68zM531 599c-46 47 -117 71 -202 71h-95l-74 -303h198l-8 -30h-197l-75 -307h137c112 0 204 39 269 105
c73 72 110 188 110 287c0 77 -23 137 -63 177z" />
    <glyph glyph-name="eth" unicode="&#xf0;" horiz-adv-x="529" 
d="M234 579l-11 25l122 55c-15 21 -31 42 -48 63h38l37 -50l101 46l11 -24l-97 -45c62 -95 103 -199 103 -310c0 -122 -40 -218 -102 -280c-42 -43 -99 -69 -161 -69c-114 0 -184 84 -184 207c0 96 37 194 97 253c42 43 97 69 156 69c80 0 132 -46 162 -107
c-13 67 -45 145 -98 225zM229 19c53 0 101 23 138 61c54 54 89 145 89 231c0 103 -63 178 -160 178c-51 0 -96 -21 -132 -57c-54 -54 -89 -146 -89 -233c0 -108 57 -180 154 -180z" />
    <glyph glyph-name="Gbreve" unicode="&#x11e;" horiz-adv-x="656" 
d="M474 763c-67 0 -104 33 -98 87h26c1 -34 21 -57 76 -57c54 0 86 23 104 57h28c-20 -54 -69 -87 -136 -87zM333 -11c-152 0 -253 110 -253 278c0 124 49 254 134 339c65 66 147 105 241 105c100 0 162 -45 204 -100l-26 -19c-36 48 -90 89 -180 89
c-83 0 -156 -36 -215 -94c-77 -78 -125 -202 -125 -319c0 -151 87 -249 222 -249c63 0 122 20 165 48l65 256h-200l8 32h232l-78 -307c-56 -36 -123 -59 -194 -59z" />
    <glyph glyph-name="gbreve" unicode="&#x11f;" horiz-adv-x="554" 
d="M192 -151c-69 0 -146 27 -198 71l19 25c48 -41 116 -66 181 -66c60 0 105 17 139 51c28 27 46 66 62 129l22 89c-40 -57 -107 -115 -195 -115c-96 0 -173 73 -173 185c0 87 35 176 93 234c43 42 98 69 159 69c106 0 156 -81 170 -147l34 137h31l-111 -456
c-16 -67 -36 -111 -70 -144c-41 -41 -95 -62 -163 -62zM227 62c57 0 107 26 146 65c48 48 81 126 81 196c0 86 -57 169 -154 169c-51 0 -98 -23 -134 -59c-52 -52 -84 -134 -84 -213c0 -95 63 -158 145 -158zM356 590c-66 0 -103 39 -94 100h25c-2 -42 18 -72 73 -72
s87 31 108 72h26c-23 -61 -71 -100 -138 -100z" />
    <glyph glyph-name="Gcommaaccent" unicode="&#x122;" horiz-adv-x="656" 
d="M219 -194l-3 17c27 10 39 22 45 51h-20l14 55h46l-12 -46c-13 -50 -31 -66 -70 -77zM333 -11c-152 0 -253 110 -253 278c0 124 49 254 134 339c65 66 147 105 241 105c100 0 162 -45 204 -100l-26 -19c-36 48 -90 89 -180 89c-83 0 -156 -36 -215 -94
c-77 -78 -125 -202 -125 -319c0 -151 87 -249 222 -249c63 0 122 20 165 48l65 256h-200l8 32h232l-78 -307c-56 -36 -123 -59 -194 -59z" />
    <glyph glyph-name="gcommaaccent" unicode="&#x123;" horiz-adv-x="554" 
d="M412 722l3 -17c-27 -10 -39 -22 -45 -51h20l-14 -55h-46l12 46c13 50 31 66 70 77zM192 -151c-69 0 -146 27 -198 71l19 25c48 -41 116 -66 181 -66c60 0 105 17 139 51c28 27 46 66 62 129l22 89c-40 -57 -107 -115 -195 -115c-96 0 -173 73 -173 185
c0 87 35 176 93 234c43 42 98 69 159 69c106 0 156 -81 170 -147l34 137h31l-111 -456c-16 -67 -36 -111 -70 -144c-41 -41 -95 -62 -163 -62zM227 62c57 0 107 26 146 65c48 48 81 126 81 196c0 86 -57 169 -154 169c-51 0 -98 -23 -134 -59c-52 -52 -84 -134 -84 -213
c0 -95 63 -158 145 -158z" />
    <glyph glyph-name="Gdotaccent" unicode="&#x120;" horiz-adv-x="656" 
d="M451 774l14 57h48l-14 -57h-48zM333 -11c-152 0 -253 110 -253 278c0 124 49 254 134 339c65 66 147 105 241 105c100 0 162 -45 204 -100l-26 -19c-36 48 -90 89 -180 89c-83 0 -156 -36 -215 -94c-77 -78 -125 -202 -125 -319c0 -151 87 -249 222 -249
c63 0 122 20 165 48l65 256h-200l8 32h232l-78 -307c-56 -36 -123 -59 -194 -59z" />
    <glyph glyph-name="gdotaccent" unicode="&#x121;" horiz-adv-x="554" 
d="M192 -151c-69 0 -146 27 -198 71l19 25c48 -41 116 -66 181 -66c60 0 105 17 139 51c28 27 46 66 62 129l22 89c-40 -57 -107 -115 -195 -115c-96 0 -173 73 -173 185c0 87 35 176 93 234c43 42 98 69 159 69c106 0 156 -81 170 -147l34 137h31l-111 -456
c-16 -67 -36 -111 -70 -144c-41 -41 -95 -62 -163 -62zM227 62c57 0 107 26 146 65c48 48 81 126 81 196c0 86 -57 169 -154 169c-51 0 -98 -23 -134 -59c-52 -52 -84 -134 -84 -213c0 -95 63 -158 145 -158zM335 600l16 58h43l-15 -58h-44z" />
    <glyph glyph-name="Hbar" unicode="&#x126;" horiz-adv-x="650" 
d="M91 534l8 28h68l34 138h33l-34 -138h400l34 138h33l-34 -138h68l-8 -28h-67l-130 -534h-33l82 336h-400l-82 -336h-33l130 534h-69zM152 366h401l40 168h-400z" />
    <glyph glyph-name="hbar" unicode="&#x127;" horiz-adv-x="525" 
d="M106 614l6 27h63l20 81h31l-20 -81h160l-7 -27h-160l-51 -208c36 61 95 115 181 115c88 0 143 -53 143 -143c0 -23 -4 -54 -13 -91l-69 -287h-31l69 288c8 30 12 63 12 88c0 73 -41 116 -118 116c-86 0 -171 -75 -199 -189l-74 -303h-31l150 614h-62z" />
    <glyph glyph-name="Iacute" unicode="&#xcd;" horiz-adv-x="226" 
d="M35 0l171 700h33l-171 -700h-33zM218 757l111 105l35 -18l-117 -87h-29z" />
    <glyph glyph-name="iacute" unicode="&#xed;" horiz-adv-x="204" 
d="M166 588l110 121l36 -18l-119 -103h-27zM24 0l124 511h31l-124 -511h-31z" />
    <glyph glyph-name="Ibreve" unicode="&#x12c;" horiz-adv-x="226" 
d="M35 0l171 700h33l-171 -700h-33zM240 757c-67 0 -104 33 -98 87h26c1 -34 21 -57 76 -57c54 0 86 23 104 57h28c-20 -54 -69 -87 -136 -87z" />
    <glyph glyph-name="ibreve" unicode="&#x12d;" horiz-adv-x="204" 
d="M24 0l124 511h31l-124 -511h-31zM187 589c-66 0 -103 39 -94 100h25c-2 -42 18 -72 73 -72s87 31 108 72h26c-23 -61 -71 -100 -138 -100z" />
    <glyph glyph-name="Icircumflex" unicode="&#xce;" horiz-adv-x="226" 
d="M35 0l171 700h33l-171 -700h-33zM124 758l118 100h28l69 -100h-29l-59 69l-94 -69h-33z" />
    <glyph glyph-name="icircumflex" unicode="&#xee;" horiz-adv-x="204" 
d="M79 590l120 118h23l62 -118h-25l-55 83l-97 -83h-28zM24 0l124 511h31l-124 -511h-31z" />
    <glyph glyph-name="Idieresis" unicode="&#xcf;" horiz-adv-x="226" 
d="M35 0l171 700h33l-171 -700h-33zM150 768l14 57h47l-14 -57h-47zM283 768l14 57h47l-14 -57h-47z" />
    <glyph glyph-name="idieresis" unicode="&#xef;" horiz-adv-x="204" 
d="M104 599l14 57h45l-15 -57h-44zM228 599l14 57h44l-14 -57h-44zM24 0l124 511h31l-124 -511h-31z" />
    <glyph glyph-name="Idotaccent" unicode="&#x130;" horiz-adv-x="226" 
d="M35 0l171 700h33l-171 -700h-33zM216 768l14 57h48l-14 -57h-48z" />
    <glyph glyph-name="dotlessi" unicode="&#x131;" horiz-adv-x="204" 
d="M24 0l124 511h31l-124 -511h-31z" />
    <glyph glyph-name="Igrave" unicode="&#xcc;" horiz-adv-x="226" 
d="M35 0l171 700h33l-171 -700h-33zM215 757l-79 87l35 18l66 -105h-22z" />
    <glyph glyph-name="igrave" unicode="&#xec;" horiz-adv-x="204" 
d="M24 0l124 511h31l-124 -511h-31zM166 588l-75 103l37 18l58 -121h-20z" />
    <glyph glyph-name="Imacron" unicode="&#x12a;" horiz-adv-x="226" 
d="M35 0l171 700h33l-171 -700h-33zM118 778l7 31h251l-7 -31h-251z" />
    <glyph glyph-name="imacron" unicode="&#x12b;" horiz-adv-x="204" 
d="M24 0l124 511h31l-124 -511h-31zM70 609l7 29h240l-7 -29h-240z" />
    <glyph glyph-name="Iogonek" unicode="&#x12e;" horiz-adv-x="228" 
d="M56 -121l-6 -23c-1 -1 -2 -1 -3 -1c-55 1 -84 24 -84 55c0 33 29 61 72 92l171 698h33l-171 -700h-4c-47 -36 -69 -60 -69 -85c0 -20 19 -33 61 -36z" />
    <glyph glyph-name="iogonek" unicode="&#x12f;" horiz-adv-x="204" 
d="M44 -121l-6 -23c-1 -1 -2 -1 -3 -1c-55 1 -84 24 -84 55c0 33 29 61 73 92l125 509h31l-125 -511h-3c-47 -36 -69 -60 -69 -85c0 -20 19 -33 61 -36zM177 643l15 62h40l-16 -62h-39z" />
    <glyph glyph-name="Kcommaaccent" unicode="&#x136;" horiz-adv-x="596" 
d="M171 -190l-3 17c27 10 39 22 45 51h-20l14 55h46l-12 -46c-13 -50 -31 -66 -70 -77zM28 0l171 700h33l-112 -452l493 452h45l-335 -305l177 -395h-36l-167 372l-188 -171l-48 -201h-33z" />
    <glyph glyph-name="kcommaaccent" unicode="&#x137;" horiz-adv-x="466" 
d="M102 -191l-3 17c27 10 39 22 45 51h-20l14 55h46l-12 -46c-13 -50 -31 -66 -70 -77zM18 0l177 722h31l-132 -538l352 327h42l-241 -221l125 -290h-34l-115 267l-139 -126l-35 -141h-31z" />
    <glyph glyph-name="Lacute" unicode="&#x139;" horiz-adv-x="493" 
d="M221 757l111 105l35 -18l-117 -87h-29zM28 0l171 700h33l-164 -670h346l-7 -30h-379z" />
    <glyph glyph-name="lacute" unicode="&#x13a;" horiz-adv-x="204" 
d="M214 771l111 105l35 -18l-117 -87h-29zM24 0l177 722h31l-177 -722h-31z" />
    <glyph glyph-name="Lcaron" unicode="&#x13d;" horiz-adv-x="493" 
d="M279 551l50 149h35v-2l-68 -147h-17zM28 0l171 700h33l-164 -670h346l-7 -30h-379z" />
    <glyph glyph-name="lcaron" unicode="&#x13e;" horiz-adv-x="204" 
d="M256 573l50 149h35v-2l-68 -147h-17zM24 0l177 722h31l-177 -722h-31z" />
    <glyph glyph-name="Lcommaaccent" unicode="&#x13b;" horiz-adv-x="493" 
d="M133 -193l-3 17c27 10 39 22 45 51h-20l14 55h46l-12 -46c-13 -50 -31 -66 -70 -77zM28 0l171 700h33l-164 -670h346l-7 -30h-379z" />
    <glyph glyph-name="lcommaaccent" unicode="&#x13c;" horiz-adv-x="204" 
d="M-32 -193l-3 17c27 10 39 22 45 51h-20l14 55h46l-12 -46c-13 -50 -31 -66 -70 -77zM24 0l177 722h31l-177 -722h-31z" />
    <glyph glyph-name="Ldot" unicode="&#x13f;" horiz-adv-x="499" 
d="M365 324l15 62h44l-16 -62h-43zM28 0l171 700h33l-164 -670h346l-7 -30h-379z" />
    <glyph glyph-name="ldot" unicode="&#x140;" horiz-adv-x="231" 
d="M212 328l15 63h43l-15 -63h-43zM24 0l177 722h31l-177 -722h-31z" />
    <glyph glyph-name="Lslash" unicode="&#x141;" horiz-adv-x="520" 
d="M48 287l8 33l82 29l86 351h33l-83 -338l209 75l-7 -32l-210 -76l-73 -299h346l-7 -30h-379l77 316z" />
    <glyph glyph-name="lslash" unicode="&#x142;" horiz-adv-x="240" 
d="M47 312l8 33l79 30l85 347h31l-82 -333l80 31l-8 -33l-80 -31l-87 -356h-31l84 342z" />
    <glyph glyph-name="Nacute" unicode="&#x143;" horiz-adv-x="668" 
d="M435 752l111 105l35 -18l-117 -87h-29zM28 0l171 700h31l268 -641l158 641h31l-171 -700h-27l-271 648l-158 -648h-32z" />
    <glyph glyph-name="nacute" unicode="&#x144;" horiz-adv-x="526" 
d="M320 589l110 121l36 -18l-119 -103h-27zM18 0l124 511h31l-25 -105c36 61 95 115 181 115c88 0 143 -53 143 -143c0 -23 -4 -54 -13 -91l-69 -287h-31l69 288c8 30 12 63 12 88c0 73 -41 116 -118 116c-86 0 -171 -75 -199 -189l-74 -303h-31z" />
    <glyph glyph-name="Ncaron" unicode="&#x147;" horiz-adv-x="668" 
d="M590 853l-118 -100h-28l-70 100h29l61 -68l93 68h33zM28 0l171 700h31l268 -641l158 641h31l-171 -700h-27l-271 648l-158 -648h-32z" />
    <glyph glyph-name="ncaron" unicode="&#x148;" horiz-adv-x="526" 
d="M324 591l-62 118h25l54 -82l97 82h29l-120 -118h-23zM18 0l124 511h31l-25 -105c36 61 95 115 181 115c88 0 143 -53 143 -143c0 -23 -4 -54 -13 -91l-69 -287h-31l69 288c8 30 12 63 12 88c0 73 -41 116 -118 116c-86 0 -171 -75 -199 -189l-74 -303h-31z" />
    <glyph glyph-name="Ncommaaccent" unicode="&#x145;" horiz-adv-x="668" 
d="M199 -190l-3 17c27 10 39 22 45 51h-20l14 55h46l-12 -46c-13 -50 -31 -66 -70 -77zM28 0l171 700h31l268 -641l158 641h31l-171 -700h-27l-271 648l-158 -648h-32z" />
    <glyph glyph-name="ncommaaccent" unicode="&#x146;" horiz-adv-x="526" 
d="M123 -191l-3 17c27 10 39 22 45 51h-20l14 55h46l-12 -46c-13 -50 -31 -66 -70 -77zM18 0l124 511h31l-25 -105c36 61 95 115 181 115c88 0 143 -53 143 -143c0 -23 -4 -54 -13 -91l-69 -287h-31l69 288c8 30 12 63 12 88c0 73 -41 116 -118 116
c-86 0 -171 -75 -199 -189l-74 -303h-31z" />
    <glyph glyph-name="Ntilde" unicode="&#xd1;" horiz-adv-x="668" 
d="M352 755l-21 5c22 51 48 74 80 74c20 0 39 -11 59 -23c19 -13 35 -22 50 -22c20 0 36 13 55 48l22 -6c-23 -50 -48 -73 -80 -73c-20 0 -39 12 -58 24c-20 12 -36 22 -50 22c-21 0 -37 -14 -57 -49zM28 0l171 700h31l268 -641l158 641h31l-171 -700h-27l-271 648
l-158 -648h-32z" />
    <glyph glyph-name="ntilde" unicode="&#xf1;" horiz-adv-x="526" 
d="M18 0l124 511h31l-25 -105c36 61 95 115 181 115c88 0 143 -53 143 -143c0 -23 -4 -54 -13 -91l-69 -287h-31l69 288c8 30 12 63 12 88c0 73 -41 116 -118 116c-86 0 -171 -75 -199 -189l-74 -303h-31zM460 682l21 -6c-22 -55 -48 -80 -80 -80c-20 0 -38 12 -58 27
c-18 13 -33 24 -48 24c-20 0 -37 -14 -55 -55l-22 6c22 56 47 80 80 80c20 0 37 -12 58 -27c18 -14 34 -24 48 -24c20 0 36 15 56 55z" />
    <glyph glyph-name="Oacute" unicode="&#xd3;" horiz-adv-x="703" 
d="M448 763l111 105l35 -18l-117 -87h-29zM428 711c146 0 243 -112 243 -277c0 -124 -50 -266 -136 -352c-58 -57 -130 -93 -213 -93c-146 0 -242 112 -242 276c0 124 48 267 135 352c58 58 131 94 213 94zM323 19c73 0 136 31 188 83c80 80 127 216 127 332
c0 147 -85 247 -211 247c-73 0 -136 -32 -188 -84c-80 -80 -126 -215 -126 -331c0 -147 83 -247 210 -247z" />
    <glyph glyph-name="oacute" unicode="&#xf3;" horiz-adv-x="536" 
d="M325 589l110 121l36 -18l-119 -103h-27zM306 521c112 0 188 -84 188 -207c0 -94 -36 -189 -99 -252c-44 -44 -101 -72 -166 -72c-112 0 -188 84 -188 207c0 93 36 189 100 252c44 44 101 72 165 72zM231 19c55 0 103 25 140 62c55 56 90 146 90 231
c0 108 -61 180 -157 180c-54 0 -103 -25 -140 -63c-55 -55 -90 -145 -90 -231c0 -107 62 -179 157 -179z" />
    <glyph glyph-name="Obreve" unicode="&#x14e;" horiz-adv-x="703" 
d="M470 763c-67 0 -104 33 -98 87h26c1 -34 21 -57 76 -57c54 0 86 23 104 57h28c-20 -54 -69 -87 -136 -87zM428 711c146 0 243 -112 243 -277c0 -124 -50 -266 -136 -352c-58 -57 -130 -93 -213 -93c-146 0 -242 112 -242 276c0 124 48 267 135 352c58 58 131 94 213 94z
M323 19c73 0 136 31 188 83c80 80 127 216 127 332c0 147 -85 247 -211 247c-73 0 -136 -32 -188 -84c-80 -80 -126 -215 -126 -331c0 -147 83 -247 210 -247z" />
    <glyph glyph-name="obreve" unicode="&#x14f;" horiz-adv-x="536" 
d="M306 521c112 0 188 -84 188 -207c0 -94 -36 -189 -99 -252c-44 -44 -101 -72 -166 -72c-112 0 -188 84 -188 207c0 93 36 189 100 252c44 44 101 72 165 72zM231 19c55 0 103 25 140 62c55 56 90 146 90 231c0 108 -61 180 -157 180c-54 0 -103 -25 -140 -63
c-55 -55 -90 -145 -90 -231c0 -107 62 -179 157 -179zM346 590c-66 0 -103 39 -94 100h25c-2 -42 18 -72 73 -72s87 31 108 72h26c-23 -61 -71 -100 -138 -100z" />
    <glyph glyph-name="Ocircumflex" unicode="&#xd4;" horiz-adv-x="703" 
d="M428 711c146 0 243 -112 243 -277c0 -124 -50 -266 -136 -352c-58 -57 -130 -93 -213 -93c-146 0 -242 112 -242 276c0 124 48 267 135 352c58 58 131 94 213 94zM323 19c73 0 136 31 188 83c80 80 127 216 127 332c0 147 -85 247 -211 247c-73 0 -136 -32 -188 -84
c-80 -80 -126 -215 -126 -331c0 -147 83 -247 210 -247zM355 764l118 100h28l69 -100h-29l-59 69l-94 -69h-33z" />
    <glyph glyph-name="ocircumflex" unicode="&#xf4;" horiz-adv-x="536" 
d="M239 591l120 118h23l62 -118h-25l-55 83l-97 -83h-28zM306 521c112 0 188 -84 188 -207c0 -94 -36 -189 -99 -252c-44 -44 -101 -72 -166 -72c-112 0 -188 84 -188 207c0 93 36 189 100 252c44 44 101 72 165 72zM231 19c55 0 103 25 140 62c55 56 90 146 90 231
c0 108 -61 180 -157 180c-54 0 -103 -25 -140 -63c-55 -55 -90 -145 -90 -231c0 -107 62 -179 157 -179z" />
    <glyph glyph-name="Odieresis" unicode="&#xd6;" horiz-adv-x="703" 
d="M380 774l14 57h47l-14 -57h-47zM513 774l14 57h47l-14 -57h-47zM428 711c146 0 243 -112 243 -277c0 -124 -50 -266 -136 -352c-58 -57 -130 -93 -213 -93c-146 0 -242 112 -242 276c0 124 48 267 135 352c58 58 131 94 213 94zM323 19c73 0 136 31 188 83
c80 80 127 216 127 332c0 147 -85 247 -211 247c-73 0 -136 -32 -188 -84c-80 -80 -126 -215 -126 -331c0 -147 83 -247 210 -247z" />
    <glyph glyph-name="odieresis" unicode="&#xf6;" horiz-adv-x="536" 
d="M263 600l14 57h45l-15 -57h-44zM387 600l14 57h44l-14 -57h-44zM306 521c112 0 188 -84 188 -207c0 -94 -36 -189 -99 -252c-44 -44 -101 -72 -166 -72c-112 0 -188 84 -188 207c0 93 36 189 100 252c44 44 101 72 165 72zM231 19c55 0 103 25 140 62
c55 56 90 146 90 231c0 108 -61 180 -157 180c-54 0 -103 -25 -140 -63c-55 -55 -90 -145 -90 -231c0 -107 62 -179 157 -179z" />
    <glyph glyph-name="OE" unicode="&#x152;" horiz-adv-x="968" 
d="M378 0c-94 0 -176 27 -229 79c-45 46 -71 112 -71 198c0 105 39 229 119 309c72 72 175 114 299 114h523l-8 -30h-365l-74 -302h331l-8 -31h-330l-76 -307h370l-7 -30h-474zM175 101c46 -47 117 -71 202 -71h79l156 640h-121c-112 0 -203 -38 -270 -105
c-72 -72 -109 -188 -109 -287c0 -77 24 -137 63 -177z" />
    <glyph glyph-name="oe" unicode="&#x153;" horiz-adv-x="907" 
d="M853 244h-370c-2 -17 -3 -34 -3 -50c0 -110 63 -174 161 -174c52 0 100 18 146 55l15 -26c-47 -37 -102 -59 -162 -59c-102 0 -174 61 -187 166c-39 -88 -121 -166 -226 -166c-111 0 -186 84 -186 207c0 93 37 189 100 252c44 44 101 72 165 72c101 0 168 -69 180 -170
c39 88 118 170 221 170c110 0 161 -81 161 -182c-1 -31 -6 -64 -15 -95zM230 19c55 0 104 26 141 63c55 55 90 145 90 229c0 109 -61 181 -157 181c-54 0 -103 -25 -140 -63c-55 -55 -90 -145 -90 -231c0 -107 60 -179 156 -179zM573 433c-40 -40 -70 -99 -84 -160h339
c4 21 8 43 8 65c0 84 -39 154 -130 154c-51 0 -96 -23 -133 -59z" />
    <glyph glyph-name="Ograve" unicode="&#xd2;" horiz-adv-x="703" 
d="M446 763l-79 87l35 18l66 -105h-22zM428 711c146 0 243 -112 243 -277c0 -124 -50 -266 -136 -352c-58 -57 -130 -93 -213 -93c-146 0 -242 112 -242 276c0 124 48 267 135 352c58 58 131 94 213 94zM323 19c73 0 136 31 188 83c80 80 127 216 127 332
c0 147 -85 247 -211 247c-73 0 -136 -32 -188 -84c-80 -80 -126 -215 -126 -331c0 -147 83 -247 210 -247z" />
    <glyph glyph-name="ograve" unicode="&#xf2;" horiz-adv-x="536" 
d="M306 521c112 0 188 -84 188 -207c0 -94 -36 -189 -99 -252c-44 -44 -101 -72 -166 -72c-112 0 -188 84 -188 207c0 93 36 189 100 252c44 44 101 72 165 72zM231 19c55 0 103 25 140 62c55 56 90 146 90 231c0 108 -61 180 -157 180c-54 0 -103 -25 -140 -63
c-55 -55 -90 -145 -90 -231c0 -107 62 -179 157 -179zM328 589l-75 103l37 18l58 -121h-20z" />
    <glyph glyph-name="Ohungarumlaut" unicode="&#x150;" horiz-adv-x="703" 
d="M428 711c146 0 243 -112 243 -277c0 -124 -50 -266 -136 -352c-58 -57 -130 -93 -213 -93c-146 0 -242 112 -242 276c0 124 48 267 135 352c58 58 131 94 213 94zM323 19c73 0 136 31 188 83c80 80 127 216 127 332c0 147 -85 247 -211 247c-73 0 -136 -32 -188 -84
c-80 -80 -126 -215 -126 -331c0 -147 83 -247 210 -247zM382 763l112 105l35 -18l-117 -87h-30zM495 763l111 105l34 -18l-116 -87h-29z" />
    <glyph glyph-name="ohungarumlaut" unicode="&#x151;" horiz-adv-x="536" 
d="M262 589l109 121l32 -18l-117 -103h-24zM377 589l110 121l32 -18l-117 -103h-25zM306 521c112 0 188 -84 188 -207c0 -94 -36 -189 -99 -252c-44 -44 -101 -72 -166 -72c-112 0 -188 84 -188 207c0 93 36 189 100 252c44 44 101 72 165 72zM231 19c55 0 103 25 140 62
c55 56 90 146 90 231c0 108 -61 180 -157 180c-54 0 -103 -25 -140 -63c-55 -55 -90 -145 -90 -231c0 -107 62 -179 157 -179z" />
    <glyph glyph-name="Omacron" unicode="&#x14c;" horiz-adv-x="703" 
d="M348 784l7 31h251l-7 -31h-251zM428 711c146 0 243 -112 243 -277c0 -124 -50 -266 -136 -352c-58 -57 -130 -93 -213 -93c-146 0 -242 112 -242 276c0 124 48 267 135 352c58 58 131 94 213 94zM323 19c73 0 136 31 188 83c80 80 127 216 127 332
c0 147 -85 247 -211 247c-73 0 -136 -32 -188 -84c-80 -80 -126 -215 -126 -331c0 -147 83 -247 210 -247z" />
    <glyph glyph-name="omacron" unicode="&#x14d;" horiz-adv-x="536" 
d="M230 610l7 29h240l-7 -29h-240zM306 521c112 0 188 -84 188 -207c0 -94 -36 -189 -99 -252c-44 -44 -101 -72 -166 -72c-112 0 -188 84 -188 207c0 93 36 189 100 252c44 44 101 72 165 72zM231 19c55 0 103 25 140 62c55 56 90 146 90 231c0 108 -61 180 -157 180
c-54 0 -103 -25 -140 -63c-55 -55 -90 -145 -90 -231c0 -107 62 -179 157 -179z" />
    <glyph glyph-name="Oslash" unicode="&#xd8;" horiz-adv-x="703" 
d="M428 711c82 0 148 -36 191 -96l93 91h40l-118 -116c24 -43 37 -96 37 -156c0 -124 -51 -267 -136 -352c-57 -57 -131 -93 -213 -93s-148 35 -190 94l-94 -89h-40l118 115c-24 43 -36 96 -36 156c0 124 50 268 134 352c58 58 132 94 214 94zM113 266c0 -51 9 -96 27 -133
l456 459c-37 56 -96 89 -169 89s-136 -31 -188 -84c-80 -78 -126 -216 -126 -331zM323 19c73 0 137 31 189 83c78 79 126 217 126 332c0 50 -10 95 -28 132l-455 -459c36 -56 95 -88 168 -88z" />
    <glyph glyph-name="oslash" unicode="&#xf8;" horiz-adv-x="536" 
d="M306 521c60 0 111 -25 144 -67l65 62h38l-88 -85c18 -32 29 -72 29 -117c0 -94 -36 -189 -99 -252c-44 -44 -101 -72 -166 -72c-61 0 -111 24 -144 66l-64 -61h-38l87 84c-19 33 -29 73 -29 118c0 93 36 189 100 252c44 44 101 72 165 72zM304 492
c-55 0 -103 -25 -140 -63c-55 -55 -90 -145 -90 -231c0 -37 7 -69 19 -96l334 329c-27 39 -70 61 -123 61zM461 312c0 37 -7 69 -20 96l-334 -330c28 -38 70 -59 124 -59c55 0 103 25 140 62c56 56 90 145 90 231z" />
    <glyph glyph-name="Oslashacute" unicode="&#x1fe;" horiz-adv-x="703" 
d="M428 711c82 0 148 -36 191 -96l93 91h40l-118 -116c24 -43 37 -96 37 -156c0 -124 -51 -267 -136 -352c-57 -57 -131 -93 -213 -93s-148 35 -190 94l-94 -89h-40l118 115c-24 43 -36 96 -36 156c0 124 50 268 134 352c58 58 132 94 214 94zM113 266c0 -51 9 -96 27 -133
l456 459c-37 56 -96 89 -169 89s-136 -31 -188 -84c-80 -78 -126 -216 -126 -331zM323 19c73 0 137 31 189 83c78 79 126 217 126 332c0 50 -10 95 -28 132l-455 -459c36 -56 95 -88 168 -88zM448 763l111 105l35 -18l-117 -87h-29z" />
    <glyph glyph-name="oslashacute" unicode="&#x1ff;" horiz-adv-x="536" 
d="M306 521c60 0 111 -25 144 -67l65 62h38l-88 -85c18 -32 29 -72 29 -117c0 -94 -36 -189 -99 -252c-44 -44 -101 -72 -166 -72c-61 0 -111 24 -144 66l-64 -61h-38l87 84c-19 33 -29 73 -29 118c0 93 36 189 100 252c44 44 101 72 165 72zM304 492
c-55 0 -103 -25 -140 -63c-55 -55 -90 -145 -90 -231c0 -37 7 -69 19 -96l334 329c-27 39 -70 61 -123 61zM461 312c0 37 -7 69 -20 96l-334 -330c28 -38 70 -59 124 -59c55 0 103 25 140 62c56 56 90 145 90 231zM325 589l110 121l36 -18l-119 -103h-27z" />
    <glyph glyph-name="Otilde" unicode="&#xd5;" horiz-adv-x="703" 
d="M365 766l-21 5c22 51 48 74 80 74c20 0 39 -11 59 -23c19 -13 35 -22 50 -22c20 0 36 13 55 48l22 -6c-23 -50 -48 -73 -80 -73c-20 0 -39 12 -58 24c-20 12 -36 22 -50 22c-21 0 -37 -14 -57 -49zM428 711c146 0 243 -112 243 -277c0 -124 -50 -266 -136 -352
c-58 -57 -130 -93 -213 -93c-146 0 -242 112 -242 276c0 124 48 267 135 352c58 58 131 94 213 94zM323 19c73 0 136 31 188 83c80 80 127 216 127 332c0 147 -85 247 -211 247c-73 0 -136 -32 -188 -84c-80 -80 -126 -215 -126 -331c0 -147 83 -247 210 -247z" />
    <glyph glyph-name="otilde" unicode="&#xf5;" horiz-adv-x="536" 
d="M306 521c112 0 188 -84 188 -207c0 -94 -36 -189 -99 -252c-44 -44 -101 -72 -166 -72c-112 0 -188 84 -188 207c0 93 36 189 100 252c44 44 101 72 165 72zM231 19c55 0 103 25 140 62c55 56 90 146 90 231c0 108 -61 180 -157 180c-54 0 -103 -25 -140 -63
c-55 -55 -90 -145 -90 -231c0 -107 62 -179 157 -179zM466 682l21 -6c-22 -55 -48 -80 -80 -80c-20 0 -38 12 -58 27c-18 13 -33 24 -48 24c-20 0 -37 -14 -55 -55l-22 6c22 56 47 80 80 80c20 0 37 -12 58 -27c18 -14 34 -24 48 -24c20 0 36 15 56 55z" />
    <glyph glyph-name="Racute" unicode="&#x154;" horiz-adv-x="611" 
d="M460 0l-131 297c-11 -1 -22 -1 -33 -1h-163l-72 -296h-33l171 700h189c77 0 135 -20 170 -56c30 -30 45 -69 45 -117c0 -54 -18 -110 -60 -152c-38 -39 -98 -66 -180 -76l134 -299h-37zM141 325h165c113 0 174 29 212 67c35 35 52 82 52 133c0 41 -13 74 -35 96
c-32 32 -80 49 -151 49h-159zM377 757l111 105l35 -18l-117 -87h-29z" />
    <glyph glyph-name="racute" unicode="&#x155;" horiz-adv-x="314" 
d="M225 588l110 121l36 -18l-119 -103h-27zM18 0l124 511h31l-31 -129c52 84 130 140 214 137l-8 -33h-2c-89 0 -199 -82 -230 -210l-67 -276h-31z" />
    <glyph glyph-name="Rcaron" unicode="&#x158;" horiz-adv-x="611" 
d="M460 0l-131 297c-11 -1 -22 -1 -33 -1h-163l-72 -296h-33l171 700h189c77 0 135 -20 170 -56c30 -30 45 -69 45 -117c0 -54 -18 -110 -60 -152c-38 -39 -98 -66 -180 -76l134 -299h-37zM141 325h165c113 0 174 29 212 67c35 35 52 82 52 133c0 41 -13 74 -35 96
c-32 32 -80 49 -151 49h-159zM533 858l-118 -100h-28l-70 100h29l61 -68l93 68h33z" />
    <glyph glyph-name="rcaron" unicode="&#x159;" horiz-adv-x="314" 
d="M229 590l-62 118h25l54 -82l97 82h29l-120 -118h-23zM18 0l124 511h31l-31 -129c52 84 130 140 214 137l-8 -33h-2c-89 0 -199 -82 -230 -210l-67 -276h-31z" />
    <glyph glyph-name="Rcommaaccent" unicode="&#x156;" horiz-adv-x="611" 
d="M460 0l-131 297c-11 -1 -22 -1 -33 -1h-163l-72 -296h-33l171 700h189c77 0 135 -20 170 -56c30 -30 45 -69 45 -117c0 -54 -18 -110 -60 -152c-38 -39 -98 -66 -180 -76l134 -299h-37zM141 325h165c113 0 174 29 212 67c35 35 52 82 52 133c0 41 -13 74 -35 96
c-32 32 -80 49 -151 49h-159zM150 -190l-3 17c27 10 39 22 45 51h-20l14 55h46l-12 -46c-13 -50 -31 -66 -70 -77z" />
    <glyph glyph-name="rcommaaccent" unicode="&#x157;" horiz-adv-x="314" 
d="M-32 -193l-3 17c27 10 39 22 45 51h-20l14 55h46l-12 -46c-13 -50 -31 -66 -70 -77zM18 0l124 511h31l-31 -129c52 84 130 140 214 137l-8 -33h-2c-89 0 -199 -82 -230 -210l-67 -276h-31z" />
    <glyph glyph-name="Sacute" unicode="&#x15a;" horiz-adv-x="538" 
d="M248 -9c-103 0 -184 52 -236 124l26 20c50 -68 121 -114 213 -114c107 0 178 75 178 154c0 76 -54 117 -140 169c-92 57 -153 104 -153 186c0 45 19 88 50 118c38 39 89 61 157 61c89 0 161 -46 206 -99l-25 -22c-43 51 -107 91 -183 91c-106 0 -172 -72 -172 -147
c0 -69 57 -109 140 -161c94 -57 154 -106 154 -193c0 -46 -18 -90 -54 -126c-36 -35 -89 -61 -161 -61zM361 763l111 105l35 -18l-117 -87h-29z" />
    <glyph glyph-name="sacute" unicode="&#x15b;" horiz-adv-x="418" 
d="M260 589l110 121l36 -18l-119 -103h-27zM178 -8c-69 0 -135 35 -179 88l24 22c47 -53 98 -81 158 -81c72 0 125 51 125 106c0 48 -31 78 -103 120c-78 45 -117 79 -117 141c0 71 62 131 156 131c61 0 119 -32 158 -76l-24 -22c-40 44 -86 69 -136 69
c-75 0 -121 -48 -121 -100c0 -45 30 -75 104 -117c77 -45 115 -83 115 -144c0 -73 -66 -137 -160 -137z" />
    <glyph glyph-name="Scaron" unicode="&#x160;" horiz-adv-x="538" 
d="M248 -9c-103 0 -184 52 -236 124l26 20c50 -68 121 -114 213 -114c107 0 178 75 178 154c0 76 -54 117 -140 169c-92 57 -153 104 -153 186c0 45 19 88 50 118c38 39 89 61 157 61c89 0 161 -46 206 -99l-25 -22c-43 51 -107 91 -183 91c-106 0 -172 -72 -172 -147
c0 -69 57 -109 140 -161c94 -57 154 -106 154 -193c0 -46 -18 -90 -54 -126c-36 -35 -89 -61 -161 -61zM516 864l-118 -100h-28l-70 100h29l61 -68l93 68h33z" />
    <glyph glyph-name="scaron" unicode="&#x161;" horiz-adv-x="418" 
d="M265 591l-62 118h25l54 -82l97 82h29l-120 -118h-23zM178 -8c-69 0 -135 35 -179 88l24 22c47 -53 98 -81 158 -81c72 0 125 51 125 106c0 48 -31 78 -103 120c-78 45 -117 79 -117 141c0 71 62 131 156 131c61 0 119 -32 158 -76l-24 -22c-40 44 -86 69 -136 69
c-75 0 -121 -48 -121 -100c0 -45 30 -75 104 -117c77 -45 115 -83 115 -144c0 -73 -66 -137 -160 -137z" />
    <glyph glyph-name="Scedilla" unicode="&#x15e;" horiz-adv-x="541" 
d="M141 -131l-31 16l96 109c-83 12 -150 59 -194 121l26 20c50 -68 121 -114 213 -114c107 0 178 75 178 154c0 76 -54 117 -140 169c-92 57 -153 104 -153 186c0 45 19 88 50 118c38 39 89 61 157 61c89 0 161 -46 206 -99l-25 -22c-43 51 -107 91 -183 91
c-106 0 -172 -72 -172 -147c0 -69 57 -109 140 -161c94 -57 154 -106 154 -193c0 -46 -18 -90 -54 -126c-36 -35 -89 -61 -161 -61c-6 0 -12 0 -17 1z" />
    <glyph glyph-name="scedilla" unicode="&#x15f;" horiz-adv-x="419" 
d="M72 -131l-31 16l97 111c-54 10 -104 41 -139 84l24 22c47 -53 98 -81 158 -81c72 0 125 51 125 106c0 48 -31 78 -103 120c-78 45 -117 79 -117 141c0 71 62 131 156 131c61 0 119 -32 158 -76l-24 -22c-40 44 -86 69 -136 69c-75 0 -121 -48 -121 -100
c0 -45 30 -75 104 -117c77 -45 115 -83 115 -144c0 -73 -66 -137 -160 -137c-5 0 -11 0 -16 1z" />
    <glyph glyph-name="Scommaaccent" unicode="&#x218;" horiz-adv-x="538" 
d="M121 -194l-3 17c27 10 39 22 45 51h-20l14 55h46l-12 -46c-13 -50 -31 -66 -70 -77zM248 -9c-103 0 -184 52 -236 124l26 20c50 -68 121 -114 213 -114c107 0 178 75 178 154c0 76 -54 117 -140 169c-92 57 -153 104 -153 186c0 45 19 88 50 118c38 39 89 61 157 61
c89 0 161 -46 206 -99l-25 -22c-43 51 -107 91 -183 91c-106 0 -172 -72 -172 -147c0 -69 57 -109 140 -161c94 -57 154 -106 154 -193c0 -46 -18 -90 -54 -126c-36 -35 -89 -61 -161 -61z" />
    <glyph glyph-name="scommaaccent" unicode="&#x219;" horiz-adv-x="418" 
d="M62 -194l-3 17c27 10 39 22 45 51h-20l14 55h46l-12 -46c-13 -50 -31 -66 -70 -77zM178 -8c-69 0 -135 35 -179 88l24 22c47 -53 98 -81 158 -81c72 0 125 51 125 106c0 48 -31 78 -103 120c-78 45 -117 79 -117 141c0 71 62 131 156 131c61 0 119 -32 158 -76l-24 -22
c-40 44 -86 69 -136 69c-75 0 -121 -48 -121 -100c0 -45 30 -75 104 -117c77 -45 115 -83 115 -144c0 -73 -66 -137 -160 -137z" />
    <glyph glyph-name="Tcaron" unicode="&#x164;" horiz-adv-x="498" 
d="M504 858l-118 -100h-28l-70 100h29l61 -68l93 68h33zM167 0l163 670h-207l8 30h448l-8 -30h-207l-164 -670h-33z" />
    <glyph glyph-name="tcaron" unicode="&#x165;" horiz-adv-x="325" 
d="M296 573l50 149h35v-2l-68 -147h-17zM163 -7c-59 0 -98 28 -98 84c0 16 4 35 8 51l85 354h-67l7 29h67l40 162h31l-39 -162h148l-7 -29h-149l-86 -357c-4 -16 -6 -32 -6 -44c0 -41 27 -59 72 -59c20 0 40 5 61 14l-7 -32c-20 -8 -38 -11 -60 -11z" />
    <glyph glyph-name="Tcommaaccent" unicode="&#x162;" horiz-adv-x="498" 
d="M112 -193l-3 17c27 10 39 22 45 51h-20l14 55h46l-12 -46c-13 -50 -31 -66 -70 -77zM167 0l163 670h-207l8 30h448l-8 -30h-207l-164 -670h-33z" />
    <glyph glyph-name="tcommaaccent" unicode="&#x163;" horiz-adv-x="325" 
d="M55 -194l-3 17c27 10 39 22 45 51h-20l14 55h46l-12 -46c-13 -50 -31 -66 -70 -77zM163 -7c-59 0 -98 28 -98 84c0 16 4 35 8 51l85 354h-67l7 29h67l40 162h31l-39 -162h148l-7 -29h-149l-86 -357c-4 -16 -6 -32 -6 -44c0 -41 27 -59 72 -59c20 0 40 5 61 14l-7 -32
c-20 -8 -38 -11 -60 -11z" />
    <glyph glyph-name="Thorn" unicode="&#xde;" horiz-adv-x="570" 
d="M28 0l171 700h32l-31 -129h131c82 0 138 -19 176 -57c30 -30 46 -73 46 -125c0 -65 -23 -123 -66 -166c-52 -52 -134 -84 -245 -84h-147l-34 -139h-33zM102 169h141c102 0 173 28 219 73c39 39 58 91 58 147c0 44 -13 78 -38 104c-32 33 -82 48 -152 48h-137z" />
    <glyph glyph-name="thorn" unicode="&#xfe;" horiz-adv-x="557" 
d="M226 722l-80 -325c33 54 103 124 196 124c101 0 170 -82 170 -199c0 -98 -37 -201 -102 -266c-42 -41 -94 -66 -152 -66c-107 0 -160 81 -174 153l-71 -293h-31l213 872h31zM257 19c50 0 94 21 130 57c57 58 92 154 92 243c0 101 -56 173 -141 173
c-55 0 -102 -25 -141 -64c-58 -57 -95 -149 -95 -231c0 -99 60 -178 155 -178z" />
    <glyph glyph-name="Uacute" unicode="&#xda;" horiz-adv-x="644" 
d="M417 752l111 105l35 -18l-117 -87h-29zM287 -10c-126 0 -210 69 -210 193c0 34 5 68 15 110l98 407h33l-101 -416c-9 -37 -13 -69 -13 -98c0 -107 71 -166 181 -166c56 0 110 20 153 63c36 37 69 96 90 180l105 437h33l-107 -444c-23 -90 -56 -151 -97 -193
c-50 -49 -112 -73 -180 -73z" />
    <glyph glyph-name="uacute" unicode="&#xfa;" horiz-adv-x="525" 
d="M315 585l110 121l36 -18l-119 -103h-27zM196 -10c-87 0 -143 52 -143 143c0 23 5 53 14 91l69 287h31l-70 -288c-7 -30 -12 -64 -12 -88c0 -74 42 -117 118 -117c87 0 172 75 200 189l73 304h32l-125 -511h-31l26 105c-36 -61 -96 -115 -182 -115z" />
    <glyph glyph-name="Ubreve" unicode="&#x16c;" horiz-adv-x="644" 
d="M438 752c-67 0 -104 33 -98 87h26c1 -34 21 -57 76 -57c54 0 86 23 104 57h28c-20 -54 -69 -87 -136 -87zM287 -10c-126 0 -210 69 -210 193c0 34 5 68 15 110l98 407h33l-101 -416c-9 -37 -13 -69 -13 -98c0 -107 71 -166 181 -166c56 0 110 20 153 63
c36 37 69 96 90 180l105 437h33l-107 -444c-23 -90 -56 -151 -97 -193c-50 -49 -112 -73 -180 -73z" />
    <glyph glyph-name="ubreve" unicode="&#x16d;" horiz-adv-x="525" 
d="M196 -10c-87 0 -143 52 -143 143c0 23 5 53 14 91l69 287h31l-70 -288c-7 -30 -12 -64 -12 -88c0 -74 42 -117 118 -117c87 0 172 75 200 189l73 304h32l-125 -511h-31l26 105c-36 -61 -96 -115 -182 -115zM336 586c-66 0 -103 39 -94 100h25c-2 -42 18 -72 73 -72
s87 31 108 72h26c-23 -61 -71 -100 -138 -100z" />
    <glyph glyph-name="Ucircumflex" unicode="&#xdb;" horiz-adv-x="644" 
d="M287 -10c-126 0 -210 69 -210 193c0 34 5 68 15 110l98 407h33l-101 -416c-9 -37 -13 -69 -13 -98c0 -107 71 -166 181 -166c56 0 110 20 153 63c36 37 69 96 90 180l105 437h33l-107 -444c-23 -90 -56 -151 -97 -193c-50 -49 -112 -73 -180 -73zM323 753l118 100h28
l69 -100h-29l-59 69l-94 -69h-33z" />
    <glyph glyph-name="ucircumflex" unicode="&#xfb;" horiz-adv-x="525" 
d="M231 587l120 118h23l62 -118h-25l-55 83l-97 -83h-28zM196 -10c-87 0 -143 52 -143 143c0 23 5 53 14 91l69 287h31l-70 -288c-7 -30 -12 -64 -12 -88c0 -74 42 -117 118 -117c87 0 172 75 200 189l73 304h32l-125 -511h-31l26 105c-36 -61 -96 -115 -182 -115z" />
    <glyph glyph-name="Udieresis" unicode="&#xdc;" horiz-adv-x="644" 
d="M349 763l14 57h47l-14 -57h-47zM482 763l14 57h47l-14 -57h-47zM287 -10c-126 0 -210 69 -210 193c0 34 5 68 15 110l98 407h33l-101 -416c-9 -37 -13 -69 -13 -98c0 -107 71 -166 181 -166c56 0 110 20 153 63c36 37 69 96 90 180l105 437h33l-107 -444
c-23 -90 -56 -151 -97 -193c-50 -49 -112 -73 -180 -73z" />
    <glyph glyph-name="udieresis" unicode="&#xfc;" horiz-adv-x="525" 
d="M252 596l14 57h45l-15 -57h-44zM376 596l14 57h44l-14 -57h-44zM196 -10c-87 0 -143 52 -143 143c0 23 5 53 14 91l69 287h31l-70 -288c-7 -30 -12 -64 -12 -88c0 -74 42 -117 118 -117c87 0 172 75 200 189l73 304h32l-125 -511h-31l26 105c-36 -61 -96 -115 -182 -115z
" />
    <glyph glyph-name="Ugrave" unicode="&#xd9;" horiz-adv-x="644" 
d="M413 752l-79 87l35 18l66 -105h-22zM287 -10c-126 0 -210 69 -210 193c0 34 5 68 15 110l98 407h33l-101 -416c-9 -37 -13 -69 -13 -98c0 -107 71 -166 181 -166c56 0 110 20 153 63c36 37 69 96 90 180l105 437h33l-107 -444c-23 -90 -56 -151 -97 -193
c-50 -49 -112 -73 -180 -73z" />
    <glyph glyph-name="ugrave" unicode="&#xf9;" horiz-adv-x="525" 
d="M196 -10c-87 0 -143 52 -143 143c0 23 5 53 14 91l69 287h31l-70 -288c-7 -30 -12 -64 -12 -88c0 -74 42 -117 118 -117c87 0 172 75 200 189l73 304h32l-125 -511h-31l26 105c-36 -61 -96 -115 -182 -115zM318 585l-75 103l37 18l58 -121h-20z" />
    <glyph glyph-name="Uhungarumlaut" unicode="&#x170;" horiz-adv-x="644" 
d="M287 -10c-126 0 -210 69 -210 193c0 34 5 68 15 110l98 407h33l-101 -416c-9 -37 -13 -69 -13 -98c0 -107 71 -166 181 -166c56 0 110 20 153 63c36 37 69 96 90 180l105 437h33l-107 -444c-23 -90 -56 -151 -97 -193c-50 -49 -112 -73 -180 -73zM349 752l112 105l35 -18
l-117 -87h-30zM462 752l111 105l34 -18l-116 -87h-29z" />
    <glyph glyph-name="uhungarumlaut" unicode="&#x171;" horiz-adv-x="525" 
d="M196 -10c-87 0 -143 52 -143 143c0 23 5 53 14 91l69 287h31l-70 -288c-7 -30 -12 -64 -12 -88c0 -74 42 -117 118 -117c87 0 172 75 200 189l73 304h32l-125 -511h-31l26 105c-36 -61 -96 -115 -182 -115zM251 585l109 121l32 -18l-117 -103h-24zM366 585l110 121
l32 -18l-117 -103h-25z" />
    <glyph glyph-name="Umacron" unicode="&#x16a;" horiz-adv-x="644" 
d="M316 773l7 31h251l-7 -31h-251zM287 -10c-126 0 -210 69 -210 193c0 34 5 68 15 110l98 407h33l-101 -416c-9 -37 -13 -69 -13 -98c0 -107 71 -166 181 -166c56 0 110 20 153 63c36 37 69 96 90 180l105 437h33l-107 -444c-23 -90 -56 -151 -97 -193
c-50 -49 -112 -73 -180 -73z" />
    <glyph glyph-name="umacron" unicode="&#x16b;" horiz-adv-x="525" 
d="M196 -10c-87 0 -143 52 -143 143c0 23 5 53 14 91l69 287h31l-70 -288c-7 -30 -12 -64 -12 -88c0 -74 42 -117 118 -117c87 0 172 75 200 189l73 304h32l-125 -511h-31l26 105c-36 -61 -96 -115 -182 -115zM219 606l7 29h240l-7 -29h-240z" />
    <glyph glyph-name="Uogonek" unicode="&#x172;" horiz-adv-x="644" 
d="M287 -10h-13c-38 -30 -56 -53 -56 -75c0 -20 19 -33 61 -36l-6 -23c-1 -1 -2 -1 -3 -1c-55 1 -84 24 -84 55c0 29 23 55 59 83c-102 13 -168 80 -168 190c0 34 5 68 15 110l98 407h33l-101 -416c-9 -37 -13 -69 -13 -98c0 -107 71 -166 181 -166c56 0 110 20 153 63
c36 37 69 96 90 180l105 437h33l-107 -444c-23 -90 -56 -151 -97 -193c-50 -49 -112 -73 -180 -73z" />
    <glyph glyph-name="uogonek" unicode="&#x173;" horiz-adv-x="525" 
d="M196 -10c-87 0 -143 52 -143 143c0 23 5 53 14 91l69 287h31l-70 -288c-7 -30 -12 -64 -12 -88c0 -74 42 -117 118 -117c87 0 172 75 200 189l73 304h32l-125 -511h-5c-47 -36 -69 -60 -69 -85c0 -20 19 -33 61 -36l-6 -23c-1 -1 -2 -1 -3 -1c-55 1 -84 24 -84 55
c0 34 30 63 76 94l25 101c-36 -61 -96 -115 -182 -115z" />
    <glyph glyph-name="Uring" unicode="&#x16e;" horiz-adv-x="644" 
d="M287 -10c-126 0 -210 69 -210 193c0 34 5 68 15 110l98 407h33l-101 -416c-9 -37 -13 -69 -13 -98c0 -107 71 -166 181 -166c56 0 110 20 153 63c36 37 69 96 90 180l105 437h33l-107 -444c-23 -90 -56 -151 -97 -193c-50 -49 -112 -73 -180 -73zM465 911
c53 0 86 -32 86 -75c0 -54 -51 -94 -106 -94c-52 0 -85 33 -85 76c0 54 50 93 105 93zM448 764c41 0 77 30 77 70c0 32 -23 56 -62 56c-41 0 -78 -30 -78 -70c0 -32 24 -56 63 -56z" />
    <glyph glyph-name="uring" unicode="&#x16f;" horiz-adv-x="525" 
d="M446 678c0 -54 -47 -96 -99 -96c-50 0 -84 34 -84 81c0 53 47 96 99 96c50 0 84 -35 84 -81zM286 664c0 -36 24 -62 62 -62c40 0 75 34 75 75c0 34 -23 61 -62 61c-40 0 -75 -34 -75 -74zM196 -10c-87 0 -143 52 -143 143c0 23 5 53 14 91l69 287h31l-70 -288
c-7 -30 -12 -64 -12 -88c0 -74 42 -117 118 -117c87 0 172 75 200 189l73 304h32l-125 -511h-31l26 105c-36 -61 -96 -115 -182 -115z" />
    <glyph glyph-name="Wacute" unicode="&#x1e82;" horiz-adv-x="915" 
d="M555 757l111 105l35 -18l-117 -87h-29zM181 -5l-37 705h33l31 -649l340 651h27l29 -651l343 649h36l-377 -705h-28l-30 643l-339 -643h-28z" />
    <glyph glyph-name="wacute" unicode="&#x1e83;" horiz-adv-x="714" 
d="M412 588l110 121l36 -18l-119 -103h-27zM127 -4l-30 515h31l23 -463l250 464h26l23 -464l247 463h34l-279 -515h-28l-23 458l-248 -458h-26z" />
    <glyph glyph-name="Wcircumflex" unicode="&#x174;" horiz-adv-x="915" 
d="M181 -5l-37 705h33l31 -649l340 651h27l29 -651l343 649h36l-377 -705h-28l-30 643l-339 -643h-28zM461 758l118 100h28l69 -100h-29l-59 69l-94 -69h-33z" />
    <glyph glyph-name="wcircumflex" unicode="&#x175;" horiz-adv-x="714" 
d="M325 590l120 118h23l62 -118h-25l-55 83l-97 -83h-28zM127 -4l-30 515h31l23 -463l250 464h26l23 -464l247 463h34l-279 -515h-28l-23 458l-248 -458h-26z" />
    <glyph glyph-name="Wdieresis" unicode="&#x1e84;" horiz-adv-x="915" 
d="M487 768l14 57h47l-14 -57h-47zM620 768l14 57h47l-14 -57h-47zM181 -5l-37 705h33l31 -649l340 651h27l29 -651l343 649h36l-377 -705h-28l-30 643l-339 -643h-28z" />
    <glyph glyph-name="wdieresis" unicode="&#x1e85;" horiz-adv-x="714" 
d="M350 599l14 57h45l-15 -57h-44zM474 599l14 57h44l-14 -57h-44zM127 -4l-30 515h31l23 -463l250 464h26l23 -464l247 463h34l-279 -515h-28l-23 458l-248 -458h-26z" />
    <glyph glyph-name="Wgrave" unicode="&#x1e80;" horiz-adv-x="915" 
d="M551 757l-79 87l35 18l66 -105h-22zM181 -5l-37 705h33l31 -649l340 651h27l29 -651l343 649h36l-377 -705h-28l-30 643l-339 -643h-28z" />
    <glyph glyph-name="wgrave" unicode="&#x1e81;" horiz-adv-x="714" 
d="M127 -4l-30 515h31l23 -463l250 464h26l23 -464l247 463h34l-279 -515h-28l-23 458l-248 -458h-26zM413 588l-75 103l37 18l58 -121h-20z" />
    <glyph glyph-name="Yacute" unicode="&#xdd;" horiz-adv-x="564" 
d="M199 0l72 294l-147 406h34l136 -377l320 377h42l-353 -412l-70 -288h-34zM372 752l111 105l35 -18l-117 -87h-29z" />
    <glyph glyph-name="yacute" unicode="&#xfd;" horiz-adv-x="491" 
d="M169 3l-80 508h33l71 -471l283 471h36l-312 -511c-77 -126 -124 -153 -178 -153c-33 0 -63 11 -85 29l18 25c18 -14 42 -25 69 -25c41 0 80 25 145 127zM288 585l110 121l36 -18l-119 -103h-27z" />
    <glyph glyph-name="Ycircumflex" unicode="&#x176;" horiz-adv-x="564" 
d="M199 0l72 294l-147 406h34l136 -377l320 377h42l-353 -412l-70 -288h-34zM279 753l118 100h28l69 -100h-29l-59 69l-94 -69h-33z" />
    <glyph glyph-name="ycircumflex" unicode="&#x177;" horiz-adv-x="491" 
d="M169 3l-80 508h33l71 -471l283 471h36l-312 -511c-77 -126 -124 -153 -178 -153c-33 0 -63 11 -85 29l18 25c18 -14 42 -25 69 -25c41 0 80 25 145 127zM204 587l120 118h23l62 -118h-25l-55 83l-97 -83h-28z" />
    <glyph glyph-name="Ydieresis" unicode="&#x178;" horiz-adv-x="564" 
d="M199 0l72 294l-147 406h34l136 -377l320 377h42l-353 -412l-70 -288h-34zM304 763l14 57h47l-14 -57h-47zM437 763l14 57h47l-14 -57h-47z" />
    <glyph glyph-name="ydieresis" unicode="&#xff;" horiz-adv-x="491" 
d="M169 3l-80 508h33l71 -471l283 471h36l-312 -511c-77 -126 -124 -153 -178 -153c-33 0 -63 11 -85 29l18 25c18 -14 42 -25 69 -25c41 0 80 25 145 127zM228 596l14 57h45l-15 -57h-44zM352 596l14 57h44l-14 -57h-44z" />
    <glyph glyph-name="Ygrave" unicode="&#x1ef2;" horiz-adv-x="564" 
d="M199 0l72 294l-147 406h34l136 -377l320 377h42l-353 -412l-70 -288h-34zM371 752l-79 87l35 18l66 -105h-22z" />
    <glyph glyph-name="ygrave" unicode="&#x1ef3;" horiz-adv-x="491" 
d="M169 3l-80 508h33l71 -471l283 471h36l-312 -511c-77 -126 -124 -153 -178 -153c-33 0 -63 11 -85 29l18 25c18 -14 42 -25 69 -25c41 0 80 25 145 127zM291 585l-75 103l37 18l58 -121h-20z" />
    <glyph glyph-name="Zacute" unicode="&#x179;" horiz-adv-x="557" 
d="M-13 0l5 20l564 650h-394l8 30h439l-4 -21l-566 -649h409l-7 -30h-454zM365 757l111 105l35 -18l-117 -87h-29z" />
    <glyph glyph-name="zacute" unicode="&#x17a;" horiz-adv-x="431" 
d="M264 588l110 121l36 -18l-119 -103h-27zM-23 0l3 19l421 464h-299l7 28h342l-3 -19l-421 -464h312l-7 -28h-355z" />
    <glyph glyph-name="Zcaron" unicode="&#x17d;" horiz-adv-x="557" 
d="M520 858l-118 -100h-28l-70 100h29l61 -68l93 68h33zM-13 0l5 20l564 650h-394l8 30h439l-4 -21l-566 -649h409l-7 -30h-454z" />
    <glyph glyph-name="zcaron" unicode="&#x17e;" horiz-adv-x="431" 
d="M269 590l-62 118h25l54 -82l97 82h29l-120 -118h-23zM-23 0l3 19l421 464h-299l7 28h342l-3 -19l-421 -464h312l-7 -28h-355z" />
    <glyph glyph-name="Zdotaccent" unicode="&#x17b;" horiz-adv-x="557" 
d="M363 768l14 57h48l-14 -57h-48zM-13 0l5 20l564 650h-394l8 30h439l-4 -21l-566 -649h409l-7 -30h-454z" />
    <glyph glyph-name="zdotaccent" unicode="&#x17c;" horiz-adv-x="431" 
d="M-23 0l3 19l421 464h-299l7 28h342l-3 -19l-421 -464h312l-7 -28h-355zM264 599l16 58h43l-15 -58h-44z" />
    <glyph glyph-name="schwa" unicode="&#x259;" 
d="M37 171c0 31 5 64 15 95h369c3 16 4 33 4 50c0 110 -63 174 -160 174c-52 0 -101 -18 -147 -54l-17 24c51 39 105 60 164 60c115 0 192 -76 192 -202c0 -97 -40 -196 -102 -258c-43 -44 -97 -71 -157 -71c-110 0 -161 81 -161 182zM332 77c40 40 69 98 83 160h-338
c-5 -21 -8 -43 -8 -65c0 -84 39 -154 130 -154c51 0 96 23 133 59z" />
    <glyph glyph-name="germandbls" unicode="&#xdf;" horiz-adv-x="510" 
d="M170 -2l7 28c156 -1 239 77 239 176c0 81 -58 129 -161 151l7 26c130 26 208 93 208 199c0 68 -44 120 -122 120c-85 0 -146 -70 -174 -185l-125 -513h-31l127 521c17 67 42 117 76 151s79 55 128 55c91 0 154 -61 154 -149c0 -112 -84 -184 -195 -213
c74 -22 141 -69 141 -164c0 -116 -103 -207 -279 -203z" />
    <glyph glyph-name="zero" unicode="0" horiz-adv-x="602" 
d="M385 711c126 0 192 -95 192 -240c0 -134 -51 -311 -144 -405c-50 -50 -107 -77 -171 -77c-126 0 -192 95 -192 240c0 134 52 311 145 405c49 50 107 77 170 77zM264 19c53 0 102 24 143 66c86 86 136 256 136 386c0 125 -52 210 -159 210c-54 0 -102 -24 -143 -66
c-86 -86 -137 -256 -137 -386c0 -125 52 -210 160 -210z" />
    <glyph glyph-name="one" unicode="1" horiz-adv-x="281" 
d="M81 0l163 664l-126 -50v33l141 57h27l-172 -704h-33z" />
    <glyph glyph-name="two" unicode="2" horiz-adv-x="490" 
d="M-21 0l5 23l351 328c87 84 121 136 121 202c0 71 -53 125 -143 125c-72 0 -126 -38 -171 -89l-23 21c48 55 111 99 196 99c109 0 175 -69 175 -154c0 -81 -44 -140 -133 -225l-321 -299h360l-8 -31h-409z" />
    <glyph glyph-name="three" unicode="3" horiz-adv-x="490" 
d="M190 -10c-94 0 -162 44 -200 107l26 18c34 -54 89 -94 176 -94c117 0 203 81 203 189c0 105 -95 143 -190 145h-13l-4 19l289 295h-331l8 31h376l-6 -24l-289 -296c118 -10 194 -69 194 -170c0 -56 -22 -111 -62 -150c-42 -43 -104 -70 -177 -70z" />
    <glyph glyph-name="three.alt" horiz-adv-x="493" 
d="M198 -10c-87 0 -162 39 -206 105l26 19c39 -57 101 -94 182 -94c118 0 191 86 191 173c0 95 -81 150 -184 150h-34l7 28h41c137 0 238 71 238 177c0 77 -62 132 -153 132c-66 0 -118 -26 -161 -62l-20 23c48 41 110 69 181 69c112 0 187 -68 187 -160
c0 -106 -83 -175 -198 -197c80 -24 130 -82 130 -161c0 -107 -92 -202 -227 -202z" />
    <glyph glyph-name="four" unicode="4" horiz-adv-x="537" 
d="M316 0l43 174h-339l-2 24l471 507h30l-122 -502h96l-7 -29h-96l-43 -174h-31zM61 203h304l108 445z" />
    <glyph glyph-name="five" unicode="5" horiz-adv-x="503" 
d="M203 -10c-93 0 -160 46 -197 102l26 19c33 -50 88 -92 173 -92c125 0 209 103 209 217c0 103 -68 151 -158 151c-44 0 -90 -12 -135 -34l-19 15l99 332h316l-8 -31h-287l-83 -278c33 14 80 26 119 26c110 0 191 -61 190 -181c0 -66 -26 -131 -70 -175s-103 -71 -175 -71z
" />
    <glyph glyph-name="six" unicode="6" horiz-adv-x="540" 
d="M258 -11c-53 0 -101 20 -133 53c-36 36 -58 92 -58 167c0 139 53 325 150 423c53 53 112 79 178 79c67 0 122 -30 164 -76l-23 -23c-35 40 -82 68 -143 68c-57 0 -106 -22 -153 -68c-69 -69 -113 -178 -132 -303c36 68 107 122 198 122c118 0 187 -79 187 -182
c0 -69 -26 -144 -76 -195c-40 -40 -94 -65 -159 -65zM261 19c53 0 98 21 132 54c44 44 67 113 67 174c0 90 -57 154 -157 154c-56 0 -105 -22 -140 -58c-42 -42 -61 -99 -61 -153c0 -55 17 -98 46 -128c29 -28 69 -43 113 -43z" />
    <glyph glyph-name="seven" unicode="7" horiz-adv-x="470" 
d="M49 0l427 669h-349l8 31h386l-5 -25l-431 -675h-36z" />
    <glyph glyph-name="eight" unicode="8" horiz-adv-x="535" 
d="M245 -9c-127 0 -211 72 -212 174c0 101 77 185 195 204c-59 25 -97 78 -97 146c0 101 86 194 212 194c106 0 187 -64 187 -163c0 -96 -69 -172 -169 -191c68 -27 117 -87 117 -162c0 -108 -92 -202 -233 -202zM247 21c122 0 198 79 198 174c0 84 -69 153 -176 153
c-121 0 -203 -86 -203 -180c0 -88 72 -147 181 -147zM313 373c108 0 185 79 185 171c0 81 -66 136 -156 136c-108 0 -178 -79 -178 -167c0 -74 58 -140 149 -140z" />
    <glyph glyph-name="nine" unicode="9" horiz-adv-x="539" 
d="M190 -11c-67 0 -125 30 -170 83l23 22c40 -46 88 -74 149 -74c57 0 106 22 152 68c70 69 114 177 132 298c-35 -68 -105 -124 -199 -124c-117 0 -186 79 -186 186c0 71 27 147 77 197c41 41 94 66 159 66c53 0 101 -20 133 -53c36 -36 58 -92 58 -167
c0 -139 -52 -325 -150 -423c-53 -53 -112 -79 -178 -79zM281 292c55 0 104 22 139 58c43 44 63 101 63 159c0 55 -16 98 -46 129c-29 28 -69 43 -112 43c-54 0 -98 -20 -132 -54c-44 -45 -68 -114 -68 -178c0 -93 55 -157 156 -157z" />
    <glyph glyph-name="period" unicode="." horiz-adv-x="168" 
d="M-1 0l16 65h46l-16 -65h-46z" />
    <glyph glyph-name="comma" unicode="," horiz-adv-x="168" 
d="M-30 -86l-6 18c33 11 48 32 55 68h-21l17 65h45l-14 -60c-14 -57 -35 -78 -76 -91z" />
    <glyph glyph-name="colon" unicode=":" horiz-adv-x="175" 
d="M3 0l15 65h46l-15 -65h-46zM110 441l16 64h46l-16 -64h-46z" />
    <glyph glyph-name="semicolon" unicode=";" horiz-adv-x="174" 
d="M30 -22c-10 -38 -26 -48 -58 -59c7 4 6 24 9 34c26 10 31 23 34 47l-9 16l23 49l30 -15c-5 -18 -20 -70 -29 -72zM109 441l16 64h45l-15 -64h-46zM-29 -82c1 0 1 1 1 1s0 -1 -1 -1z" />
    <glyph glyph-name="ellipsis" unicode="&#x2026;" horiz-adv-x="508" 
d="M-1 0l16 65h46l-16 -65h-46zM169 0l15 65h46l-15 -65h-46zM338 0l16 65h46l-16 -65h-46z" />
    <glyph glyph-name="periodcentered" unicode="&#xb7;" horiz-adv-x="169" 
d="M63 259l16 65h46l-16 -65h-46z" />
    <glyph glyph-name="bullet" unicode="&#x2022;" horiz-adv-x="402" 
d="M237 464c49 0 85 -34 85 -89c0 -38 -15 -76 -40 -101c-22 -21 -49 -32 -77 -32c-50 0 -85 33 -85 88c0 39 15 77 39 101c22 22 49 33 78 33z" />
    <glyph glyph-name="ampersand" unicode="&#x26;" horiz-adv-x="594" 
d="M532 327l27 -13c-35 -67 -72 -129 -114 -183l76 -125l-25 -16l-72 117c-67 -72 -137 -116 -224 -116c-98 0 -173 65 -173 166c0 126 98 197 225 241c-32 57 -49 104 -49 148c0 94 70 165 163 165c83 0 137 -57 137 -129c0 -91 -75 -152 -208 -200l134 -227
c39 51 72 110 103 172zM202 21c76 0 145 42 207 110l-143 242c-123 -42 -206 -107 -206 -212c0 -86 60 -140 142 -140zM236 547c0 -40 13 -85 44 -141c120 41 190 95 190 174c0 58 -41 102 -106 102c-74 0 -128 -60 -128 -135z" />
    <glyph glyph-name="exclam" unicode="!" horiz-adv-x="200" 
d="M74 183l96 431l21 86h36l-22 -86l-114 -431h-17zM15 0l16 65h45l-15 -65h-46z" />
    <glyph glyph-name="exclamdown" unicode="&#xa1;" horiz-adv-x="200" 
d="M169 517l-96 -431l-21 -86h-36l22 86l114 431h17zM228 700l-16 -65h-45l15 65h46z" />
    <glyph glyph-name="question" unicode="?" horiz-adv-x="446" 
d="M165 183l32 164l4 5c130 18 230 82 230 192c0 83 -62 133 -147 133c-69 0 -126 -34 -168 -72l-19 24c47 42 109 79 189 79c110 0 178 -70 178 -163c0 -124 -107 -194 -237 -219l-43 -143h-19zM108 0l16 65h46l-16 -65h-46z" />
    <glyph glyph-name="questiondown" unicode="&#xbf;" horiz-adv-x="446" 
d="M325 517l-32 -164l-4 -5c-130 -18 -230 -82 -230 -192c0 -83 62 -133 147 -133c69 0 126 34 168 72l19 -24c-47 -42 -109 -79 -189 -79c-110 0 -178 70 -178 163c0 124 107 194 237 219l43 143h19zM382 700l-16 -65h-46l16 65h46z" />
    <glyph glyph-name="quotedblleft" unicode="&#x201c;" horiz-adv-x="286" 
d="M131 552l14 59c14 57 34 78 76 91l5 -17c-33 -12 -46 -33 -54 -69h21l-16 -64h-46zM249 552l14 59c14 57 35 78 76 91l6 -17c-33 -12 -47 -33 -55 -69h21l-16 -64h-46z" />
    <glyph glyph-name="quotedblright" unicode="&#x201d;" horiz-adv-x="286" 
d="M124 550l-6 17c33 12 47 33 54 68h-20l16 65h46l-14 -59c-15 -57 -35 -78 -76 -91zM242 550l-6 17c33 12 48 33 55 68h-21l16 65h46l-14 -59c-14 -57 -34 -78 -76 -91z" />
    <glyph glyph-name="quoteleft" unicode="&#x2018;" horiz-adv-x="168" 
d="M131 552l14 59c15 57 34 78 76 91l6 -17c-33 -12 -47 -33 -55 -69h21l-16 -64h-46z" />
    <glyph glyph-name="quoteright" unicode="&#x2019;" horiz-adv-x="168" 
d="M124 550l-6 17c33 12 48 33 55 68h-21l16 65h46l-14 -59c-14 -57 -35 -78 -76 -91z" />
    <glyph glyph-name="quotedblbase" unicode="&#x201e;" horiz-adv-x="286" 
d="M-30 -86l-6 18c33 11 48 32 55 68h-21l17 65h45l-14 -60c-14 -57 -35 -78 -76 -91zM89 -86l-6 18c33 11 47 32 54 68h-20l16 65h46l-14 -60c-15 -57 -35 -78 -76 -91z" />
    <glyph glyph-name="quotesinglbase" unicode="&#x201a;" horiz-adv-x="168" 
d="M-30 -86l-6 18c33 11 48 32 55 68h-21l17 65h45l-14 -60c-14 -57 -35 -78 -76 -91z" />
    <glyph glyph-name="guillemotleft" unicode="&#xab;" horiz-adv-x="432" 
d="M139 45l-102 207l1 6l203 206l21 -17l-188 -196l89 -194zM303 45l-102 207l1 6l202 206l21 -17l-187 -196l89 -194z" />
    <glyph glyph-name="guillemotright" unicode="&#xbb;" horiz-adv-x="432" 
d="M288 463l102 -207l-1 -6l-203 -206l-21 17l188 196l-89 194zM124 463l102 -207l-1 -6l-202 -206l-21 17l187 196l-89 194z" />
    <glyph glyph-name="guilsinglleft" unicode="&#x2039;" horiz-adv-x="268" 
d="M139 45l-102 207l1 6l203 206l21 -17l-188 -196l89 -194z" />
    <glyph glyph-name="guilsinglright" unicode="&#x203a;" horiz-adv-x="268" 
d="M125 463l102 -207l-1 -6l-203 -206l-21 17l188 196l-89 194z" />
    <glyph glyph-name="hyphen" unicode="-" horiz-adv-x="353" 
d="M66 281l9 32h230l-8 -32h-231z" />
    <glyph glyph-name="endash" unicode="&#x2013;" horiz-adv-x="490" 
d="M66 281l8 32h368l-7 -32h-369z" />
    <glyph glyph-name="emdash" unicode="&#x2014;" horiz-adv-x="794" 
d="M66 281l8 32h672l-8 -32h-672z" />
    <glyph glyph-name="underscore" unicode="_" horiz-adv-x="532" 
d="M-102 -153l7 28h535l-7 -28h-535z" />
    <glyph glyph-name="slash" unicode="/" horiz-adv-x="419" 
d="M-95 -118l611 906h34l-612 -906h-33z" />
    <glyph glyph-name="backslash" unicode="\" horiz-adv-x="410" 
d="M307 -118l-167 906h28l168 -906h-29z" />
    <glyph glyph-name="bar" unicode="|" horiz-adv-x="251" 
d="M20 -118l223 906h28l-223 -906h-28z" />
    <glyph glyph-name="parenleft" unicode="(" horiz-adv-x="350" 
d="M226 -131c-83 76 -153 185 -153 338c0 146 58 280 158 381c52 51 118 95 196 127l11 -25c-75 -31 -136 -72 -183 -119c-97 -97 -149 -229 -149 -364c0 -144 61 -244 138 -319z" />
    <glyph glyph-name="parenright" unicode=")" horiz-adv-x="350" 
d="M139 712c83 -76 153 -185 153 -338c0 -146 -58 -280 -158 -381c-52 -51 -118 -95 -196 -127l-11 25c75 31 136 72 183 119c97 97 149 229 149 364c0 144 -61 244 -138 319z" />
    <glyph glyph-name="bracketleft" unicode="[" horiz-adv-x="364" 
d="M9 -130l202 830h223l-7 -25h-191l-190 -780h191l-6 -25h-222z" />
    <glyph glyph-name="bracketright" unicode="]" horiz-adv-x="364" 
d="M366 700l-202 -830h-223l7 25h191l190 780h-191l6 25h222z" />
    <glyph glyph-name="braceleft" unicode="{" horiz-adv-x="394" 
d="M253 -139c-98 24 -138 76 -138 147c0 41 12 74 28 120c13 31 21 56 21 81c0 35 -25 65 -92 65h-22l7 26h22c46 0 79 11 105 37c38 38 47 98 51 156c4 59 13 119 57 163c35 35 86 55 165 58v-26c-68 -3 -111 -20 -140 -50c-38 -38 -46 -94 -51 -152
c-5 -56 -13 -119 -55 -161c-21 -22 -48 -34 -85 -39c47 -12 70 -41 70 -79c0 -24 -10 -53 -21 -82c-14 -38 -28 -78 -28 -115c0 -64 32 -103 114 -126z" />
    <glyph glyph-name="braceright" unicode="}" horiz-adv-x="394" 
d="M154 714c98 -24 138 -76 138 -147c0 -41 -12 -74 -28 -120c-13 -31 -21 -56 -21 -81c0 -35 25 -65 92 -65h22l-7 -26h-22c-46 0 -79 -11 -105 -37c-38 -38 -47 -98 -51 -156c-4 -59 -13 -119 -57 -163c-35 -35 -86 -55 -165 -58v26c68 3 111 20 140 50
c38 38 46 94 51 152c5 56 13 119 55 161c21 22 48 34 85 39c-47 12 -70 41 -70 79c0 24 10 53 21 82c14 38 28 78 28 115c0 64 -32 103 -114 126z" />
    <glyph glyph-name="at" unicode="@" horiz-adv-x="858" 
d="M400 -152c-209 0 -343 135 -343 348c0 276 205 515 446 515c204 0 320 -147 320 -321c0 -186 -101 -314 -190 -314c-73 0 -96 55 -91 112c-34 -59 -93 -113 -167 -113c-79 0 -130 58 -130 146c0 130 98 274 216 274c81 0 120 -56 129 -118l29 101l30 -8l-68 -226
c-7 -26 -12 -51 -12 -71c0 -43 21 -72 67 -72c74 0 163 120 163 288c0 162 -107 299 -297 299c-230 0 -420 -234 -420 -491c0 -196 124 -326 318 -326c72 0 139 18 200 51l11 -21c-65 -34 -131 -53 -211 -53zM381 105c101 0 191 133 191 234c0 72 -37 126 -111 126
c-99 0 -182 -130 -182 -242c0 -73 36 -118 102 -118z" />
    <glyph glyph-name="copyright" unicode="&#xa9;" horiz-adv-x="733" 
d="M366 160c-72 0 -126 52 -126 142c0 68 27 145 74 192c33 34 73 52 117 52c51 0 89 -26 110 -63l-23 -16c-19 32 -47 53 -88 53c-38 0 -69 -16 -95 -42c-41 -41 -66 -111 -66 -175c0 -74 41 -117 99 -117c41 0 71 21 97 45l17 -20c-30 -28 -67 -51 -116 -51zM713 409
c0 -113 -42 -237 -124 -319c-63 -63 -143 -102 -240 -102c-177 0 -284 132 -284 303c0 113 43 237 124 319c63 63 143 102 240 102c177 0 284 -132 284 -303zM88 288c0 -150 92 -279 263 -279c88 0 162 36 221 94c79 79 118 200 118 309c1 150 -92 279 -262 279
c-89 0 -163 -35 -222 -94c-79 -79 -118 -199 -118 -309z" />
    <glyph glyph-name="published" unicode="&#x2117;" horiz-adv-x="733" 
d="M340 539h89c71 0 121 -31 121 -102c0 -81 -65 -134 -167 -134h-73l-33 -135h-28zM522 436c0 54 -36 77 -93 77h-68l-45 -184h71c72 0 134 33 135 107zM429 712c177 0 284 -132 284 -303c0 -113 -42 -237 -124 -319c-63 -63 -143 -102 -240 -102c-177 0 -284 132 -284 303
c0 113 43 237 124 319c63 63 143 102 240 102zM351 9c88 0 162 36 221 94c79 79 118 200 118 309c1 150 -92 279 -262 279c-89 0 -163 -35 -222 -94c-79 -79 -118 -199 -118 -309c0 -150 92 -279 263 -279z" />
    <glyph glyph-name="registered.alt" horiz-adv-x="733" 
d="M429 712c177 0 284 -132 284 -303c0 -113 -42 -237 -124 -319c-63 -63 -143 -102 -240 -102c-177 0 -284 132 -284 303c0 113 43 237 124 319c63 63 143 102 240 102zM351 9c88 0 162 36 221 94c79 79 118 200 118 309c1 150 -92 279 -262 279c-89 0 -163 -35 -222 -94
c-79 -79 -118 -199 -118 -309c0 -150 92 -279 263 -279zM298 325l-37 -152h-29l91 372h104c42 0 74 -10 94 -31c17 -16 26 -39 26 -66s-9 -57 -33 -81c-16 -16 -41 -32 -87 -38l66 -156h-31l-64 153c-4 -1 -90 -1 -100 -1zM305 351h82c61 0 89 15 106 32c18 17 25 39 25 64
c0 20 -5 36 -17 48c-15 15 -40 23 -75 23h-82z" />
    <glyph glyph-name="registered" unicode="&#xae;" horiz-adv-x="383" 
d="M280 712c88 0 140 -64 140 -145c0 -57 -21 -118 -62 -158c-31 -32 -72 -50 -119 -50c-86 0 -139 64 -139 145c0 57 21 117 62 158c31 32 72 50 118 50zM241 374c41 0 77 17 105 45c39 38 58 95 58 147c0 70 -43 131 -125 131c-41 0 -77 -17 -105 -45
c-38 -39 -57 -96 -57 -148c0 -69 43 -130 124 -130zM220 517l-17 -69h-20l44 180h48c41 0 62 -19 62 -50c0 -26 -16 -51 -53 -59l27 -71h-21l-27 69h-43zM225 536h33c28 0 41 6 48 13c8 8 11 19 11 29c0 23 -17 32 -43 32h-32z" />
    <glyph glyph-name="servicemark" unicode="&#x2120;" horiz-adv-x="601" 
d="M178 386c-44 0 -83 23 -107 57l18 14c23 -32 55 -51 90 -51c44 0 74 29 74 62c0 28 -19 47 -59 70c-46 27 -69 48 -69 84c0 22 9 41 23 56c16 16 40 27 72 27c40 0 73 -21 95 -47l-18 -16c-21 26 -46 42 -80 42c-43 0 -69 -28 -69 -60c0 -28 20 -45 60 -68
c44 -25 67 -49 67 -86c0 -23 -9 -42 -23 -56c-18 -17 -42 -28 -74 -28zM324 390l79 310h22l58 -184l149 184h27l-79 -310h-23l68 267l-149 -182h-3l-58 181l-69 -266h-22z" />
    <glyph glyph-name="trademark" unicode="&#x2122;" horiz-adv-x="576" 
d="M129 390l73 288h-89l7 22h199l-6 -22h-89l-73 -288h-22zM300 390l79 310h21l58 -184l149 184h27l-79 -310h-22l68 267l-150 -182h-3l-58 181l-68 -266h-22z" />
    <glyph glyph-name="asterisk" unicode="*" horiz-adv-x="381" 
d="M241 415l-28 7l38 125l-117 -42l-9 28l123 28l-96 84l21 21l85 -93l24 128l28 -7l-38 -124l118 42l9 -28l-123 -29l95 -83l-22 -22l-83 93z" />
    <glyph glyph-name="dagger" unicode="&#x2020;" horiz-adv-x="348" 
d="M149 238l76 293l-113 -7l8 31l109 -6l31 151h34l-44 -151l113 6l-7 -31l-111 7l-65 -293h-31z" />
    <glyph glyph-name="daggerdbl" unicode="&#x2021;" horiz-adv-x="356" 
d="M93 0l44 151l-114 -6l8 31l110 -7l39 181l49 181l-113 -7l8 31l110 -6l30 151h34l-44 -151l113 6l-7 -31l-111 7l-38 -181l-50 -181l114 7l-8 -31l-110 6l-30 -151h-34z" />
    <glyph glyph-name="dollar" unicode="$" horiz-adv-x="531" 
d="M375 761h29l-17 -66c64 -12 114 -46 149 -82l-22 -22c-36 37 -81 66 -135 77l-73 -299c98 -51 151 -98 151 -182c0 -94 -75 -189 -217 -189c-9 0 -17 1 -25 1l-24 -97h-29l25 100c-75 13 -138 51 -182 107l24 21c41 -53 98 -88 167 -99l77 319c-96 47 -151 95 -151 174
c0 92 78 177 208 177c10 0 19 0 29 -1zM423 188c0 64 -37 105 -125 149l-76 -310h22c121 0 179 83 179 161zM156 525c0 -65 43 -103 126 -144l70 291c-8 1 -16 1 -24 1c-110 0 -172 -73 -172 -148z" />
    <glyph glyph-name="sterling" unicode="&#xa3;" horiz-adv-x="516" 
d="M-8 0l4 17l79 13l70 289h-78l8 30h78l35 148c18 70 42 122 76 156c36 36 80 55 132 55c77 0 129 -43 157 -96l-27 -16c-28 50 -69 82 -132 82c-41 0 -76 -14 -105 -44c-31 -30 -53 -77 -69 -145l-35 -140h248l-8 -30h-247l-70 -289h314l-7 -30h-423z" />
    <glyph glyph-name="Euro" unicode="&#x20ac;" horiz-adv-x="592" 
d="M78 424l7 29h70c23 68 58 131 104 177c51 52 113 79 181 79c91 0 151 -53 180 -120l-27 -15c-29 61 -78 105 -157 105c-56 0 -109 -24 -153 -68c-41 -41 -72 -96 -94 -158h271l-8 -29h-273c-13 -45 -21 -93 -24 -139h264l-8 -30h-257v-6c0 -140 65 -228 173 -228
c64 0 114 27 163 79l22 -22c-54 -57 -113 -87 -186 -87c-121 0 -205 93 -205 255v9h-84l8 30h77c3 46 11 94 24 139h-68z" />
    <glyph glyph-name="yen" unicode="&#xa5;" horiz-adv-x="582" 
d="M209 0l32 130h-174l7 28h174l30 123h-174l8 28h162l-138 391h35l133 -380l317 380h41l-330 -391h160l-7 -28h-175l-30 -123h174l-7 -28h-174l-31 -130h-33z" />
    <glyph glyph-name="cent" unicode="&#xa2;" horiz-adv-x="473" 
d="M384 705h30l-31 -92c57 -14 93 -50 116 -87l-25 -18c-20 30 -50 64 -102 76l-153 -464c13 -3 26 -4 40 -4c56 0 100 22 138 56l19 -22c-43 -38 -94 -63 -160 -63c-16 0 -31 1 -45 5l-33 -98h-30l37 106c-69 27 -116 95 -116 191c0 94 36 193 98 255c45 45 102 73 166 73
c7 0 15 -1 22 -2zM102 292c0 -85 38 -140 93 -164l151 460c-5 1 -9 1 -14 1c-56 0 -103 -23 -141 -62c-57 -56 -89 -149 -89 -235z" />
    <glyph glyph-name="numbersign" unicode="#" horiz-adv-x="577" 
d="M80 0l59 195h-102l6 29h105l77 255h-111l7 30h113l57 191h30l-58 -191h192l58 191h29l-57 -191h101l-6 -30h-104l-77 -255h111l-7 -29h-113l-59 -195h-29l59 195h-193l-58 -195h-30zM178 224h192l77 255h-193z" />
    <glyph glyph-name="paragraph" unicode="&#xb6;" horiz-adv-x="421" 
d="M236 0l65 267c-70 2 -126 21 -161 57c-31 31 -48 74 -48 126c0 68 24 127 68 170c50 51 129 80 229 80h51l-171 -700h-33z" />
    <glyph glyph-name="section" unicode="&#xa7;" horiz-adv-x="535" 
d="M504 335c0 -70 -65 -120 -171 -120c-7 0 -15 0 -24 1c57 -33 83 -66 83 -109c0 -65 -61 -116 -152 -116c-76 0 -143 32 -185 70l20 24c41 -37 99 -65 167 -65c71 0 117 37 117 85c0 50 -45 82 -132 121c-95 42 -149 81 -149 139c0 70 65 120 170 120c7 0 16 0 25 -1
c-57 32 -83 66 -83 109c0 65 60 116 152 116c76 0 143 -32 185 -70l-20 -24c-41 37 -99 65 -168 65c-71 0 -116 -37 -116 -85c0 -50 45 -82 132 -121c95 -42 149 -81 149 -139zM111 368c0 -41 28 -69 96 -101c34 -16 79 -28 127 -28c83 0 137 39 137 93c0 41 -28 69 -96 101
c-34 16 -79 28 -127 28c-83 0 -137 -39 -137 -93z" />
    <glyph glyph-name="ordfeminine" unicode="&#xaa;" horiz-adv-x="354" 
d="M190 409c-40 0 -76 26 -76 74c0 59 45 106 113 106c32 0 64 -8 90 -17l3 12c3 12 5 25 5 36c0 37 -27 58 -74 58c-26 0 -49 -7 -69 -14l-6 23c22 8 49 16 78 16c60 0 97 -30 97 -80c0 -12 -2 -25 -5 -41l-41 -167h-26l12 51c-22 -31 -54 -57 -101 -57zM196 432
c52 0 97 41 110 93l6 27c-24 8 -54 15 -85 15c-55 0 -86 -38 -86 -82c0 -35 24 -53 55 -53zM70 315l5 24h217l-6 -24h-216z" />
    <glyph glyph-name="ordmasculine" unicode="&#xba;" horiz-adv-x="355" 
d="M71 315l5 24h236l-6 -24h-235zM148 527c0 -56 32 -94 80 -94c29 0 54 12 74 32c28 29 45 77 45 121c0 56 -32 94 -81 94c-28 0 -54 -13 -73 -32c-28 -29 -45 -77 -45 -121zM375 587c0 -50 -19 -103 -53 -137c-26 -26 -59 -42 -96 -42c-62 0 -106 48 -106 118
c0 50 19 103 53 137c26 26 58 42 95 42c63 0 107 -48 107 -118z" />
    <glyph glyph-name="degree" unicode="&#xb0;" horiz-adv-x="353" 
d="M251 706c62 0 107 -47 107 -118c0 -52 -19 -103 -53 -137c-26 -24 -58 -41 -96 -41c-64 0 -109 47 -109 118c0 51 20 102 54 136c25 25 58 42 97 42zM211 437c29 0 54 13 73 32c27 27 46 73 46 118c0 56 -33 92 -82 92c-29 0 -54 -13 -73 -31c-28 -28 -46 -74 -46 -119
c0 -56 33 -92 82 -92z" />
    <glyph glyph-name="percent" unicode="%" horiz-adv-x="719" 
d="M57 0l314 357l301 343h36l-315 -357l-300 -343h-36zM210 354c-70 0 -118 56 -118 138c0 64 27 130 67 170c28 28 63 45 102 45c70 0 118 -55 118 -137c0 -64 -26 -130 -66 -170c-28 -28 -64 -46 -103 -46zM212 383c29 0 56 13 77 34c35 36 58 94 58 152
c0 65 -33 110 -88 110c-29 0 -56 -13 -77 -35c-36 -35 -59 -94 -59 -151c0 -66 34 -110 89 -110zM503 -7c-69 0 -117 55 -117 137c0 64 26 130 66 170c29 28 64 46 103 46c69 0 117 -56 117 -138c0 -64 -26 -130 -66 -170c-28 -28 -64 -45 -103 -45zM506 21
c29 0 56 13 77 35c35 35 58 94 58 151c0 66 -33 110 -89 110c-29 0 -55 -13 -77 -34c-35 -36 -58 -94 -58 -152c0 -65 34 -110 89 -110z" />
    <glyph glyph-name="perthousand" unicode="&#x2030;" horiz-adv-x="1060" 
d="M57 0l314 357l301 343h36l-315 -357l-300 -343h-36zM210 354c-70 0 -118 56 -118 138c0 64 27 130 67 170c28 28 63 45 102 45c70 0 118 -55 118 -137c0 -64 -26 -130 -66 -170c-28 -28 -64 -46 -103 -46zM212 383c29 0 56 13 77 34c35 36 58 94 58 152
c0 65 -33 110 -88 110c-29 0 -56 -13 -77 -35c-36 -35 -59 -94 -59 -151c0 -66 34 -110 89 -110zM503 -7c-69 0 -117 55 -117 137c0 64 26 130 66 170c29 28 64 46 103 46c69 0 117 -56 117 -138c0 -64 -26 -130 -66 -170c-28 -28 -64 -45 -103 -45zM506 21
c29 0 56 13 77 35c35 35 58 94 58 151c0 66 -33 110 -89 110c-29 0 -55 -13 -77 -34c-35 -36 -58 -94 -58 -152c0 -65 34 -110 89 -110zM844 -7c-70 0 -118 55 -118 137c0 64 27 130 67 170c28 28 64 46 102 46c70 0 118 -56 118 -138c0 -64 -26 -130 -67 -170
c-28 -28 -63 -45 -102 -45zM846 21c29 0 56 13 78 35c35 35 58 94 58 151c0 66 -34 110 -89 110c-29 0 -56 -13 -77 -34c-36 -36 -59 -94 -59 -152c0 -65 34 -110 89 -110z" />
    <glyph glyph-name="quotedbl" unicode="&#x22;" horiz-adv-x="308" 
d="M93 450l82 250h38v-5l-103 -245h-17zM228 450l82 250h39l-1 -5l-102 -245h-18z" />
    <glyph glyph-name="quotesingle" unicode="'" horiz-adv-x="169" 
d="M93 450l82 250h38v-5l-103 -245h-17z" />
    <glyph glyph-name="plus" unicode="+" horiz-adv-x="523" 
d="M217 143l49 194h-188l6 30h189l48 194h32l-50 -194h189l-7 -30h-189l-48 -194h-31z" />
    <glyph glyph-name="minus" unicode="&#x2212;" horiz-adv-x="523" 
d="M78 337l7 30h407l-7 -30h-407z" />
    <glyph glyph-name="divide" unicode="&#xf7;" horiz-adv-x="523" 
d="M208 142l16 62h48l-15 -62h-49zM78 337l7 30h407l-7 -30h-407zM298 500l15 62h49l-16 -62h-48z" />
    <glyph glyph-name="equal" unicode="=" horiz-adv-x="523" 
d="M67 236l7 31h378l-7 -31h-378zM117 437l8 31h378l-8 -31h-378z" />
    <glyph glyph-name="multiply" unicode="&#xd7;" horiz-adv-x="522" 
d="M81 169l-19 22l201 164l-118 161l25 19l116 -162l200 163l18 -23l-200 -163l117 -161l-25 -20l-116 162z" />
    <glyph glyph-name="less" unicode="&#x3c;" horiz-adv-x="525" 
d="M417 131l-342 210l6 22l445 210l-8 -37l-400 -187l306 -186z" />
    <glyph glyph-name="greater" unicode="&#x3e;" horiz-adv-x="525" 
d="M44 131l9 37l399 187l-306 186l8 32l342 -210l-6 -22z" />
    <glyph glyph-name="plusminus" unicode="&#xb1;" horiz-adv-x="523" 
d="M226 173l46 185h-185l6 30h185l46 183h31l-46 -183h186l-7 -30h-185l-47 -185h-30zM6 33l7 29h400l-6 -29h-401z" />
    <glyph glyph-name="space" unicode=" " horiz-adv-x="233" 
 />
    <glyph glyph-name="uni00A0" unicode="&#xa0;" horiz-adv-x="233" 
 />
    <glyph glyph-name="emspace" unicode="&#x2003;" horiz-adv-x="1000" 
 />
    <glyph glyph-name="enspace" unicode="&#x2002;" horiz-adv-x="500" 
 />
    <glyph glyph-name="threeperemspace" unicode="&#x2004;" horiz-adv-x="333" 
 />
    <glyph glyph-name="fourperemspace" unicode="&#x2005;" horiz-adv-x="250" 
 />
    <glyph glyph-name="thinspace" unicode="&#x2009;" horiz-adv-x="126" 
 />
    <glyph glyph-name="hairspace" unicode="&#x200a;" horiz-adv-x="70" 
 />
    <glyph glyph-name="asciicircum" unicode="^" horiz-adv-x="439" 
d="M138 506l176 191h24l82 -191h-27l-72 158l-152 -158h-31z" />
    <glyph glyph-name="asciitilde" unicode="~" horiz-adv-x="401" 
d="M100 252l-21 8c23 55 47 82 81 82c23 0 40 -14 58 -32c19 -19 30 -30 46 -30c20 0 37 19 56 60l22 -8c-23 -55 -47 -82 -81 -82c-23 0 -40 14 -58 33c-19 19 -31 29 -46 29c-20 0 -37 -20 -57 -60z" />
    <glyph glyph-name="NUL" horiz-adv-x="0" 
 />
    <glyph glyph-name="hfjslug" horiz-adv-x="696" 
d="M256 276h8l11 34h1l11 -34h8l14 47h-8l-10 -35h-1l-11 35h-7l-11 -35h-1l-10 35h-8zM322 388c13 0 23 9 29 24h1l12 -24l12 6l-17 32c5 12 9 25 13 39l-13 3c-2 -9 -5 -21 -8 -30h-1l-16 31c13 12 23 26 23 42c0 17 -9 31 -27 31c-17 0 -28 -14 -28 -31
c0 -15 6 -24 14 -39c-15 -12 -23 -28 -23 -47c0 -22 12 -37 29 -37zM51 -200v303c18 0 32 14 32 32c0 17 -14 32 -32 32v554h100l30 79h334l29 -79h101v-921h-208l-8 14h-163l-8 -14h-207zM524 277h8v12l8 8l15 -20h10l-20 26l18 20h-10l-20 -24h-1v24h-8v-46zM194 277h34v7
h-26v13h23v7h-23v12h26v7h-34v-46zM185 391h15v79h47v-79h15v172h-15v-79h-47v79h-15v-172zM133 277h8v32l25 -32h7v46h-8v-32l-25 32h-7v-46zM401 391h15v78h38v14h-38v66h43v14h-58v-172zM469 277h8v15h12l10 -15h9l-12 17c5 2 10 6 10 14c0 9 -7 15 -17 15h-20v-46z
M367 277h8v17l18 29h-9l-13 -22l-13 22h-9l18 -29v-17zM482 390c20 0 31 11 31 36v137h-16v-137c0 -16 -5 -22 -16 -22c-6 0 -15 3 -20 5v-15c5 -2 14 -4 21 -4zM477 299v17h11c6 0 10 -3 10 -8s-4 -9 -10 -9h-11zM323 402c-9 0 -16 10 -16 25c0 13 7 26 16 35l20 -39
c-5 -13 -12 -21 -20 -21zM328 479c-7 13 -12 22 -12 32c0 11 6 19 14 19s13 -8 13 -19c0 -12 -5 -21 -15 -32zM427 283c-10 0 -16 8 -16 17c0 8 6 17 16 17s16 -9 16 -17c0 -9 -6 -17 -16 -17zM427 276c14 0 24 11 24 24c0 12 -10 24 -24 24s-24 -12 -24 -24
c0 -13 10 -24 24 -24z" />
    <glyph glyph-name="i.dot" horiz-adv-x="204" 
d="M24 0l125 511h31l-125 -511h-31zM177 643l15 62h40l-16 -62h-39z" />
    <glyph glyph-name="acute" unicode="&#xb4;" 
d="M261 588l110 121l36 -18l-119 -103h-27z" />
    <glyph glyph-name="hungarumlaut" unicode="&#x2dd;" 
d="M213 588l109 121l32 -18l-117 -103h-24zM328 588l110 121l32 -18l-117 -103h-25z" />
    <glyph glyph-name="caron.alt" 
d="M296 573l50 149h35v-2l-68 -147h-17z" />
    <glyph glyph-name="grave" unicode="`" 
d="M368 588l-75 103l37 18l58 -121h-20z" />
    <glyph glyph-name="circumflex" unicode="&#x2c6;" 
d="M231 590l120 118h23l62 -118h-25l-55 83l-97 -83h-28z" />
    <glyph glyph-name="caron" unicode="&#x2c7;" 
d="M321 590l-62 118h25l54 -82l97 82h29l-120 -118h-23z" />
    <glyph glyph-name="breve" unicode="&#x2d8;" 
d="M335 589c-66 0 -103 39 -94 100h25c-2 -42 18 -72 73 -72s87 31 108 72h26c-23 -61 -71 -100 -138 -100z" />
    <glyph glyph-name="tilde" unicode="&#x2dc;" 
d="M454 681l21 -6c-22 -55 -48 -80 -80 -80c-20 0 -38 12 -58 27c-18 13 -33 24 -48 24c-20 0 -37 -14 -55 -55l-22 6c22 56 47 80 80 80c20 0 37 -12 58 -27c18 -14 34 -24 48 -24c20 0 36 15 56 55z" />
    <glyph glyph-name="macron" unicode="&#xaf;" 
d="M218 609l7 29h240l-7 -29h-240z" />
    <glyph glyph-name="dieresis" unicode="&#xa8;" 
d="M248 599l14 57h45l-15 -57h-44zM372 599l14 57h44l-14 -57h-44z" />
    <glyph glyph-name="dotaccent" unicode="&#x2d9;" 
d="M312 599l16 58h43l-15 -58h-44z" />
    <glyph glyph-name="ring" unicode="&#x2da;" 
d="M446 686c0 -54 -47 -96 -99 -96c-50 0 -84 34 -84 81c0 53 47 96 99 96c50 0 84 -35 84 -81zM286 672c0 -36 24 -62 62 -62c40 0 75 34 75 75c0 34 -23 61 -62 61c-40 0 -75 -34 -75 -74z" />
    <glyph glyph-name="acute.cap" 
d="M320 757l111 105l35 -18l-117 -87h-29z" />
    <glyph glyph-name="hungarumlaut.cap" 
d="M262 757l112 105l35 -18l-117 -87h-30zM375 757l111 105l34 -18l-116 -87h-29z" />
    <glyph glyph-name="grave.cap" 
d="M401 757l-79 87l35 18l66 -105h-22z" />
    <glyph glyph-name="circumflex.cap" 
d="M266 758l118 100h28l69 -100h-29l-59 69l-94 -69h-33z" />
    <glyph glyph-name="caron.cap" 
d="M506 858l-118 -100h-28l-70 100h29l61 -68l93 68h33z" />
    <glyph glyph-name="breve.cap" 
d="M375 757c-67 0 -104 33 -98 87h26c1 -34 21 -57 76 -57c54 0 86 23 104 57h28c-20 -54 -69 -87 -136 -87z" />
    <glyph glyph-name="tilde.cap" 
d="M270 760l-21 5c22 51 48 74 80 74c20 0 39 -11 59 -23c19 -13 35 -22 50 -22c20 0 36 13 55 48l22 -6c-23 -50 -48 -73 -80 -73c-20 0 -39 12 -58 24c-20 12 -36 22 -50 22c-21 0 -37 -14 -57 -49z" />
    <glyph glyph-name="macron.cap" 
d="M254 778l7 31h251l-7 -31h-251z" />
    <glyph glyph-name="dieresis.cap" 
d="M286 768l14 57h47l-14 -57h-47zM419 768l14 57h47l-14 -57h-47z" />
    <glyph glyph-name="dotaccent.cap" 
d="M352 768l14 57h48l-14 -57h-48z" />
    <glyph glyph-name="ring.cap" 
d="M404 926c53 0 86 -32 86 -75c0 -54 -51 -94 -106 -94c-52 0 -85 33 -85 76c0 54 50 93 105 93zM387 779c41 0 77 30 77 70c0 32 -23 56 -62 56c-41 0 -78 -30 -78 -70c0 -32 24 -56 63 -56z" />
    <glyph glyph-name="commaaccent" unicode="&#x326;" 
d="M114 -193l-3 17c27 10 39 22 45 51h-20l14 55h46l-12 -46c-13 -50 -31 -66 -70 -77z" />
    <glyph glyph-name="cedilla" unicode="&#xb8;" 
d="M126 -131l-31 16l108 123h25z" />
    <glyph glyph-name="ogonek" unicode="&#x2db;" 
d="M218 -121l-6 -23c-1 -1 -2 -1 -3 -1c-55 1 -84 24 -84 55c0 35 33 65 83 99l21 -7c-49 -37 -72 -62 -72 -87c0 -20 19 -33 61 -36z" />
    </font>
</defs>
</svg>
