<?xml version="1.0" standalone="no"?>
<!DOCTYPE svg PUBLIC "-//W3C//DTD SVG 1.1//EN" "http://www.w3.org/Graphics/SVG/1.1/DTD/svg11.dtd" >
<svg>
<metadata>
Created by FontForge 20110222 at Tue Aug 21 22:13:04 2012
 By Stefan Warting
Copyright (C) 2000, 2007 Hoefler &#38; Frere-Jones. http://www.typography.com
</metadata>
<defs>
<font id="Archer-BookItalic" horiz-adv-x="0" >
  <font-face 
    font-family="Archer Book"
    font-weight="325"
    font-style="italic"
    font-stretch="normal"
    units-per-em="1000"
    panose-1="2 0 0 0 0 0 0 0 0 0"
    ascent="800"
    descent="-200"
    x-height="420"
    cap-height="658"
    bbox="-113 -267 1042 1045"
    underline-thickness="50"
    underline-position="-50"
    slope="-12"
    stemh="50"
    stemv="53"
    unicode-range="U+0020-FB04"
  />
<missing-glyph horiz-adv-x="500" 
d="M0 -200v1000h500v-1000h-500zM71 750l179 -390l179 390h-358zM50 -76l172 376l-172 376v-752zM450 676l-172 -376l172 -376v752zM250 240l-179 -390h358z" />
    <glyph glyph-name="f_b" unicode="fb" horiz-adv-x="802" 
d="M57 0l87 374h-76l11 46h75l39 166c7 32 20 60 38 83c32 41 79 66 136 66c51 0 86 -24 106 -59l31 56h32l-92 -393c34 48 84 89 150 89c91 0 162 -69 162 -177c0 -147 -109 -259 -224 -259c-74 0 -128 43 -143 107l-24 -99h-52l87 374h-205l-86 -374h-52zM531 39
c99 0 169 102 169 206c0 83 -43 136 -115 136c-100 0 -179 -119 -179 -217c0 -73 47 -125 125 -125zM418 612c0 15 7 28 18 36c-15 25 -41 40 -73 40c-36 0 -66 -15 -88 -40c-16 -18 -27 -42 -33 -70l-37 -158h206l33 141l3 12c-18 6 -29 22 -29 39z" />
    <glyph glyph-name="f_f" unicode="ff" horiz-adv-x="566" 
d="M368 622c-26 0 -43 16 -43 47c-15 -3 -32 -11 -45 -24c-20 -19 -35 -54 -44 -93l-31 -132h212l38 162c13 56 31 87 59 115c21 21 55 38 96 38c43 0 70 -20 70 -51c0 -24 -20 -41 -40 -41c-26 0 -43 17 -43 47c-17 -2 -34 -9 -49 -24c-20 -19 -35 -54 -44 -93l-35 -153
h109l-11 -46h-109l-86 -374h-52l87 374h-212l-86 -374h-52l86 374h-75l11 46h75l33 141c13 57 31 87 59 115c21 21 56 38 92 38c43 0 70 -20 70 -51c0 -24 -20 -41 -40 -41z" />
    <glyph glyph-name="f_h" unicode="fh" horiz-adv-x="797" 
d="M313 0l87 374h-205l-86 -374h-52l87 374h-76l11 46h75l39 166c7 32 20 60 38 83c32 41 79 66 136 66c51 0 86 -24 106 -59l31 56h32l-96 -405c32 52 82 100 147 100c70 0 121 -47 122 -109c0 -21 -4 -43 -10 -65l-40 -148c-4 -15 -6 -32 -6 -40c0 -20 13 -33 31 -33
c22 0 39 20 57 66l31 -10c-19 -59 -48 -94 -94 -94c-44 0 -77 29 -77 71c0 11 3 30 7 45l40 150c6 22 8 38 8 56c-1 38 -33 66 -76 66c-62 0 -142 -65 -169 -182l-46 -200h-52zM418 612c0 15 7 28 18 36c-15 25 -41 40 -73 40c-36 0 -66 -15 -88 -40
c-16 -18 -27 -42 -33 -70l-37 -158h206l33 141l3 12c-18 6 -29 22 -29 39z" />
    <glyph glyph-name="fi" unicode="fi" horiz-adv-x="540" 
d="M411 374h-216l-86 -374h-52l87 374h-76l11 46h76l32 136c9 37 20 69 35 95c31 54 76 84 146 84c61 0 93 -31 93 -62c0 -27 -17 -46 -43 -46c-27 0 -40 21 -40 41c0 6 1 13 4 18c-7 1 -15 2 -22 2c-42 0 -73 -22 -95 -60c-13 -23 -23 -49 -30 -81l-30 -127h271l-88 -315
c-4 -14 -7 -32 -7 -40c0 -20 13 -33 31 -33c22 0 39 20 58 66l31 -10c-20 -59 -50 -94 -96 -94c-44 0 -76 29 -76 71c0 11 4 31 8 45z" />
    <glyph glyph-name="f_j" unicode="fj" horiz-adv-x="505" 
d="M473 420l-108 -467c-13 -56 -29 -87 -57 -115c-21 -21 -57 -38 -98 -38c-36 0 -66 20 -66 48c0 26 19 41 40 41c22 0 38 -19 38 -37c0 -3 -1 -6 -1 -8c18 2 33 8 47 20c21 18 37 49 48 98l95 412h-216l-86 -374h-52l87 374h-76l11 46h76l32 136c9 37 20 69 35 95
c31 54 76 84 146 84c61 0 93 -31 93 -62c0 -27 -17 -46 -43 -46c-27 0 -40 21 -40 41c0 6 1 13 4 18c-7 1 -15 2 -22 2c-42 0 -73 -22 -95 -60c-13 -23 -23 -49 -30 -81l-30 -127h268z" />
    <glyph glyph-name="f_k" unicode="fk" horiz-adv-x="733" 
d="M313 0l87 374h-205l-86 -374h-52l87 374h-76l11 46h75l39 166c7 32 20 60 38 83c32 41 79 66 136 66c51 0 86 -24 106 -59l31 56h32l-123 -525c131 59 205 111 220 137c-13 6 -23 24 -23 37c0 27 19 47 46 47c24 0 44 -18 44 -48c0 -58 -92 -121 -183 -167l46 -116
c11 -28 18 -43 26 -52c9 -10 17 -11 26 -11c17 0 34 16 48 77l33 -11c-18 -82 -49 -106 -86 -106c-21 0 -38 5 -55 20c-13 12 -25 31 -36 58l-49 121l-67 -31l-38 -162h-52zM418 612c0 15 7 28 18 36c-15 25 -41 40 -73 40c-36 0 -66 -15 -88 -40c-16 -18 -27 -42 -33 -70
l-37 -158h206l33 141l3 12c-18 6 -29 22 -29 39z" />
    <glyph glyph-name="fl" unicode="fl" horiz-adv-x="538" 
d="M79 420h75l39 166c7 32 20 60 38 83c32 41 79 66 136 66c51 0 86 -24 106 -59l31 56h29l-146 -625c-3 -15 -7 -34 -7 -42c0 -20 13 -33 31 -33c22 0 39 20 58 66l31 -10c-20 -59 -50 -94 -96 -94c-44 0 -76 29 -76 71c0 11 4 28 7 42l64 267h-204l-86 -374h-52l87 374
h-76zM242 578l-37 -158h205l34 141l3 12c-18 6 -29 22 -29 39c0 15 7 28 18 36c-15 25 -41 40 -73 40c-36 0 -66 -15 -88 -40c-16 -18 -27 -42 -33 -70z" />
    <glyph glyph-name="f_f_b" unicode="ffb" horiz-adv-x="1065" 
d="M79 420h75l34 144c7 31 20 60 38 83c32 41 79 66 136 66c32 0 85 -11 85 -54c0 -26 -20 -42 -40 -42c-28 0 -43 22 -43 49h-6c-35 0 -65 -15 -87 -40c-16 -18 -28 -43 -34 -70l-32 -136h212l39 166c7 32 20 60 38 83c32 41 79 66 136 66c51 0 86 -24 106 -59l31 56h32
l-92 -393c34 48 84 89 150 89c91 0 162 -69 162 -177c0 -147 -109 -259 -224 -259c-74 0 -128 43 -143 107l-24 -99h-52l87 374h-205l-86 -374h-52l87 374h-212l-86 -374h-52l87 374h-76zM794 39c99 0 169 102 169 206c0 83 -43 136 -115 136c-100 0 -179 -119 -179 -217
c0 -73 47 -125 125 -125zM681 612c0 15 7 28 18 36c-15 25 -41 40 -73 40c-36 0 -66 -15 -88 -40c-16 -18 -27 -42 -33 -70l-37 -158h206l33 141l3 12c-18 6 -29 22 -29 39z" />
    <glyph glyph-name="f_f_h" unicode="ffh" horiz-adv-x="1060" 
d="M576 0l87 374h-205l-86 -374h-52l87 374h-212l-86 -374h-52l87 374h-76l11 46h75l34 144c7 31 20 60 38 83c32 41 79 66 136 66c32 0 85 -11 85 -54c0 -26 -20 -42 -40 -42c-28 0 -43 22 -43 49h-6c-35 0 -65 -15 -87 -40c-16 -18 -28 -43 -34 -70l-32 -136h212l39 166
c7 32 20 60 38 83c32 41 79 66 136 66c51 0 86 -24 106 -59l31 56h32l-96 -405c32 52 82 100 147 100c70 0 121 -47 122 -109c0 -21 -4 -43 -10 -65l-40 -148c-4 -15 -6 -32 -6 -40c0 -20 13 -33 31 -33c22 0 39 20 57 66l31 -10c-19 -59 -48 -94 -94 -94
c-44 0 -77 29 -77 71c0 11 3 30 7 45l40 150c6 22 8 38 8 56c-1 38 -33 66 -76 66c-62 0 -142 -65 -169 -182l-46 -200h-52zM681 612c0 15 7 28 18 36c-15 25 -41 40 -73 40c-36 0 -66 -15 -88 -40c-16 -18 -27 -42 -33 -70l-37 -158h206l33 141l3 12c-18 6 -29 22 -29 39z
" />
    <glyph glyph-name="f_f_i" unicode="ffi" horiz-adv-x="803" 
d="M320 0l87 374h-212l-86 -374h-52l87 374h-76l11 46h75l34 144c7 31 20 60 38 83c32 41 79 66 136 66c32 0 85 -11 85 -54c0 -26 -20 -42 -40 -42c-28 0 -43 22 -43 49h-6c-35 0 -65 -15 -87 -40c-16 -18 -28 -43 -34 -70l-32 -136h213l32 136c9 37 20 69 35 95
c31 54 76 84 146 84c61 0 93 -31 93 -62c0 -27 -17 -46 -43 -46c-27 0 -40 21 -40 41c0 6 1 13 4 18c-7 1 -15 2 -22 2c-42 0 -73 -22 -95 -60c-13 -23 -23 -49 -30 -81l-30 -127h271l-88 -315c-4 -14 -7 -32 -7 -40c0 -20 13 -33 31 -33c22 0 39 20 58 66l31 -10
c-20 -59 -50 -94 -96 -94c-44 0 -76 29 -76 71c0 11 4 31 8 45l74 264h-216l-86 -374h-52z" />
    <glyph glyph-name="f_f_j" unicode="ffj" horiz-adv-x="768" 
d="M57 0l87 374h-76l11 46h75l34 144c7 31 20 60 38 83c32 41 79 66 136 66c32 0 85 -11 85 -54c0 -26 -20 -42 -40 -42c-28 0 -43 22 -43 49h-6c-35 0 -65 -15 -87 -40c-16 -18 -28 -43 -34 -70l-32 -136h213l32 136c9 37 20 69 35 95c31 54 76 84 146 84
c61 0 93 -31 93 -62c0 -27 -17 -46 -43 -46c-27 0 -40 21 -40 41c0 6 1 13 4 18c-7 1 -15 2 -22 2c-42 0 -73 -22 -95 -60c-13 -23 -23 -49 -30 -81l-30 -127h268l-108 -467c-13 -56 -29 -87 -57 -115c-21 -21 -57 -38 -98 -38c-36 0 -66 20 -66 48c0 26 19 41 40 41
c22 0 38 -19 38 -37c0 -3 -1 -6 -1 -8c18 2 33 8 47 20c21 18 37 49 48 98l95 412h-216l-86 -374h-52l87 374h-212l-86 -374h-52z" />
    <glyph glyph-name="f_f_k" unicode="ffk" horiz-adv-x="996" 
d="M576 0l87 374h-205l-86 -374h-52l87 374h-212l-86 -374h-52l87 374h-76l11 46h75l34 144c7 31 20 60 38 83c32 41 79 66 136 66c32 0 85 -11 85 -54c0 -26 -20 -42 -40 -42c-28 0 -43 22 -43 49h-6c-35 0 -65 -15 -87 -40c-16 -18 -28 -43 -34 -70l-32 -136h212l39 166
c7 32 20 60 38 83c32 41 79 66 136 66c51 0 86 -24 106 -59l31 56h32l-123 -525c131 59 205 111 220 137c-13 6 -23 24 -23 37c0 27 19 47 46 47c24 0 44 -18 44 -48c0 -58 -92 -121 -183 -167l46 -116c11 -28 18 -43 26 -52c9 -10 17 -11 26 -11c17 0 34 16 48 77l33 -11
c-18 -82 -49 -106 -86 -106c-21 0 -38 5 -55 20c-13 12 -25 31 -36 58l-49 121l-67 -31l-38 -162h-52zM681 612c0 15 7 28 18 36c-15 25 -41 40 -73 40c-36 0 -66 -15 -88 -40c-16 -18 -27 -42 -33 -70l-37 -158h206l33 141l3 12c-18 6 -29 22 -29 39z" />
    <glyph glyph-name="f_f_l" unicode="ffl" horiz-adv-x="801" 
d="M68 374l11 46h75l34 144c7 31 20 60 38 83c32 41 79 66 136 66c32 0 85 -11 85 -54c0 -26 -20 -42 -40 -42c-28 0 -43 22 -43 49h-6c-35 0 -65 -15 -87 -40c-16 -18 -28 -43 -34 -70l-32 -136h212l39 166c7 32 20 60 38 83c32 41 79 66 136 66c51 0 86 -24 106 -59l31 56
h29l-146 -625c-3 -15 -7 -34 -7 -42c0 -20 13 -33 31 -33c22 0 39 20 58 66l31 -10c-20 -59 -50 -94 -96 -94c-44 0 -76 29 -76 71c0 11 4 28 7 42l64 267h-204l-86 -374h-52l87 374h-212l-86 -374h-52l87 374h-76zM505 578l-37 -158h205l34 141l3 12c-18 6 -29 22 -29 39
c0 15 7 28 18 36c-15 25 -41 40 -73 40c-36 0 -66 -15 -88 -40c-16 -18 -27 -42 -33 -70z" />
    <glyph glyph-name=".notdef" horiz-adv-x="500" 
d="M0 -200v1000h500v-1000h-500zM71 750l179 -390l179 390h-358zM50 -76l172 376l-172 376v-752zM450 676l-172 -376l172 -376v752zM250 240l-179 -390h358z" />
    <glyph glyph-name="A" unicode="A" horiz-adv-x="706" 
d="M-26 0l12 50h61l334 558h-78l12 50h272l-12 -50h-76l76 -558h71l-12 -50h-202l12 50h73l-24 186h-275l-110 -186h85l-12 -50h-207zM248 286h238l-43 327z" />
    <glyph glyph-name="B" unicode="B" horiz-adv-x="604" 
d="M8 0l12 50h83l129 558h-93l12 50h240c48 0 90 -10 123 -29c45 -26 71 -70 71 -123c0 -90 -71 -156 -170 -171c66 -18 123 -69 123 -144c0 -50 -20 -93 -56 -126c-29 -27 -68 -46 -111 -56c-25 -6 -54 -9 -82 -9h-281zM233 364h91c119 0 204 51 204 140
c0 35 -16 66 -52 85c-24 12 -56 19 -96 19h-91zM160 50h136c25 0 49 3 70 9c34 9 59 24 80 45c23 23 35 53 35 87c0 65 -59 125 -183 125h-76z" />
    <glyph glyph-name="C" unicode="C" horiz-adv-x="693" 
d="M356 -12c-153 0 -282 105 -282 290c0 208 170 392 370 392c163 0 236 -103 236 -158c0 -43 -26 -66 -52 -66c-29 0 -46 17 -46 41c0 19 14 37 33 47c-10 36 -68 85 -174 85c-186 0 -307 -179 -307 -334c0 -157 93 -245 228 -245c84 0 156 35 218 94l32 -36
c-73 -72 -160 -110 -256 -110z" />
    <glyph glyph-name="D" unicode="D" horiz-adv-x="715" 
d="M8 0l12 50h83l129 558h-93l12 50h206c131 0 205 -30 267 -92c41 -41 67 -105 67 -176c0 -105 -36 -196 -102 -262c-84 -84 -201 -128 -355 -128h-226zM160 50h85c128 0 229 39 294 104c61 61 91 139 91 233c0 60 -21 113 -53 145c-47 47 -106 76 -225 76h-63z" />
    <glyph glyph-name="E" unicode="E" horiz-adv-x="588" 
d="M8 0l12 50h83l129 558h-93l12 50h472l-35 -149h-55l23 99h-267l-57 -247h218l-11 -50h-218l-61 -261h267l23 99h55l-34 -149h-463z" />
    <glyph glyph-name="F" unicode="F" horiz-adv-x="566" 
d="M8 0l12 50h83l129 558h-93l12 50h464l-35 -149h-55l23 99h-259l-60 -259h214l-11 -50h-214l-58 -249h98l-12 -50h-238z" />
    <glyph glyph-name="G" unicode="G" horiz-adv-x="720" 
d="M528 0l13 60c-55 -42 -129 -72 -210 -72c-147 0 -257 105 -257 269c0 213 166 413 386 413c82 0 156 -30 195 -67c21 -20 38 -45 38 -77c0 -38 -26 -60 -52 -60c-29 0 -46 17 -46 41c0 18 12 36 33 47c-5 7 -12 15 -21 22c-31 23 -83 43 -150 43
c-201 0 -323 -190 -323 -360c0 -126 74 -221 207 -221c79 0 153 28 212 77l36 147h-191l12 49h246l-74 -311h-54z" />
    <glyph glyph-name="H" unicode="H" horiz-adv-x="776" 
d="M8 0l12 50h83l129 558h-93l12 50h233l-12 -50h-83l-56 -244h383l55 244h-93l12 50h233l-12 -50h-83l-129 -558h93l-12 -50h-233l12 50h83l62 263h-383l-61 -263h93l-12 -50h-233z" />
    <glyph glyph-name="I" unicode="I" horiz-adv-x="349" 
d="M5 0l12 50h93l128 558h-93l12 50h243l-12 -50h-93l-128 -558h93l-12 -50h-243z" />
    <glyph glyph-name="J" unicode="J" horiz-adv-x="559" 
d="M202 -12c-91 0 -173 54 -173 153c0 46 31 82 68 82c25 0 43 -18 43 -39c0 -27 -22 -51 -59 -46c-5 -57 48 -100 126 -100c51 0 89 20 116 53c26 32 43 76 54 126l89 391h-113l12 50h253l-12 -50h-83l-92 -400c-14 -61 -35 -113 -67 -151c-37 -43 -89 -69 -162 -69z" />
    <glyph glyph-name="K" unicode="K" horiz-adv-x="652" 
d="M639 608l-275 -232l155 -326h89l-12 -50h-117l-160 340l-115 -98l-44 -192h93l-12 -50h-233l12 50h83l129 558h-93l12 50h233l-12 -50h-83l-69 -299l351 299h-94l11 50h238l-11 -50h-76z" />
    <glyph glyph-name="L" unicode="L" horiz-adv-x="552" 
d="M8 0l12 50h83l129 558h-93l12 50h238l-12 -50h-88l-129 -558h244l25 104h55l-36 -154h-440z" />
    <glyph glyph-name="M" unicode="M" horiz-adv-x="874" 
d="M4 0l12 50h84l154 558h-97l12 50h153l105 -486l330 486h148l-12 -50h-86l-104 -558h94l-12 -50h-230l12 50h81l100 514l-335 -489h-12l-111 489l-136 -514h91l-12 -50h-229z" />
    <glyph glyph-name="N" unicode="N" horiz-adv-x="760" 
d="M559 -3l-282 569l-119 -516h93l-12 -50h-231l12 50h83l129 558h-93l12 50h141l269 -543l113 493h-93l12 50h227l-12 -50h-80l-141 -611h-28z" />
    <glyph glyph-name="O" unicode="O" horiz-adv-x="734" 
d="M347 -12c-174 0 -273 123 -273 278c0 197 155 404 367 404c174 0 273 -123 273 -278c0 -197 -155 -404 -367 -404zM352 40c173 0 303 175 303 350c0 122 -68 228 -219 228c-173 0 -303 -175 -303 -350c0 -122 68 -228 219 -228z" />
    <glyph glyph-name="P" unicode="P" horiz-adv-x="560" 
d="M8 0l12 50h83l129 558h-93l12 50h212c30 0 57 -3 80 -9c94 -23 136 -89 136 -168c0 -126 -97 -235 -269 -235c-38 0 -81 1 -103 2l-47 -198h93l-12 -50h-233zM319 296c140 0 203 92 203 180c0 60 -30 106 -98 124c-20 5 -43 8 -69 8h-66l-71 -310c24 -1 61 -2 101 -2z
" />
    <glyph glyph-name="Q" unicode="Q" horiz-adv-x="734" 
d="M714 392c0 -179 -128 -366 -310 -398c31 -50 89 -87 157 -87c24 0 41 5 64 17l18 -49c-29 -14 -54 -21 -83 -21c-103 0 -181 66 -223 134c-168 5 -263 126 -263 278c0 197 155 404 367 404c174 0 273 -123 273 -278zM352 40c173 0 303 175 303 350
c0 122 -68 228 -219 228c-173 0 -303 -175 -303 -350c0 -122 68 -228 219 -228z" />
    <glyph glyph-name="Q.alt" horiz-adv-x="734" 
d="M347 -12c-174 0 -273 123 -273 278c0 197 155 404 367 404c174 0 273 -123 273 -278c0 -140 -78 -284 -198 -357l48 -131l-48 -15l-44 124c-38 -16 -81 -25 -125 -25zM352 40c36 0 71 7 102 21l-47 131l48 15l43 -122c95 64 157 184 157 305c0 122 -68 228 -219 228
c-173 0 -303 -175 -303 -350c0 -122 68 -228 219 -228z" />
    <glyph glyph-name="R" unicode="R" horiz-adv-x="602" 
d="M8 0l12 50h83l129 558h-93l12 50h197c85 0 148 -20 188 -60c29 -29 43 -67 43 -112c0 -98 -71 -177 -193 -202l112 -234h77l-12 -50h-105l-130 277c-13 -1 -27 -1 -41 -1c-26 0 -53 1 -74 2l-53 -228h93l-12 -50h-233zM312 326c131 0 210 66 210 158c0 32 -10 59 -32 81
c-29 29 -80 43 -145 43h-56l-65 -280c24 -1 48 -2 88 -2z" />
    <glyph glyph-name="S" unicode="S" horiz-adv-x="544" 
d="M265 -12c-132 0 -223 81 -223 143c0 36 23 60 53 60c26 0 44 -22 44 -40c0 -22 -12 -39 -31 -50c20 -30 74 -63 161 -63c79 0 152 54 152 129c0 63 -53 101 -113 138c-84 52 -154 98 -154 189c0 95 88 176 204 176c103 0 192 -60 192 -126c0 -38 -26 -58 -50 -58
c-26 0 -44 19 -44 43c0 14 9 31 29 43c-20 22 -64 48 -131 48c-83 0 -143 -52 -143 -122c0 -63 47 -95 125 -143c73 -45 142 -93 142 -184c0 -107 -97 -183 -213 -183z" />
    <glyph glyph-name="T" unicode="T" horiz-adv-x="633" 
d="M152 0l12 50h88l128 558h-183l-24 -104h-55l36 154h533l-36 -154h-55l24 104h-183l-128 -558h98l-12 -50h-243z" />
    <glyph glyph-name="U" unicode="U" horiz-adv-x="724" 
d="M342 -12c-139 0 -212 78 -212 190c0 22 3 47 9 72l83 358h-93l12 50h233l-12 -50h-83l-83 -361c-5 -23 -8 -46 -8 -67c0 -82 44 -142 159 -142c110 0 172 76 194 174l90 396h-93l12 50h233l-12 -50h-83l-93 -405c-28 -124 -107 -215 -253 -215z" />
    <glyph glyph-name="V" unicode="V" horiz-adv-x="690" 
d="M277 -11l-98 619h-72l12 50h202l-12 -50h-72l78 -531l320 531h-79l12 50h201l-12 -50h-62l-384 -619h-34z" />
    <glyph glyph-name="W" unicode="W" horiz-adv-x="929" 
d="M209 -11l-22 619h-70l12 50h202l-12 -50h-82l14 -516l273 481h24l55 -482l272 517h-80l12 50h201l-12 -50h-66l-329 -619h-32l-58 467l-270 -467h-32z" />
    <glyph glyph-name="X" unicode="X" horiz-adv-x="706" 
d="M-12 0l12 50h77l277 292l-128 266h-86l12 50h233l-12 -50h-85l105 -234l219 234h-84l12 50h233l-12 -50h-83l-261 -275l139 -283h82l-12 -50h-233l12 50h89l-114 253l-237 -253h90l-12 -50h-233z" />
    <glyph glyph-name="Y" unicode="Y" horiz-adv-x="623" 
d="M122 0l13 50h96l54 219l-114 339h-72l13 50h208l-11 -50h-79l95 -293l239 293h-75l13 50h208l-11 -50h-69l-292 -349l-49 -209h96l-11 -50h-252z" />
    <glyph glyph-name="Z" unicode="Z" horiz-adv-x="605" 
d="M8 0v24l550 587h-346l-24 -102h-55l34 149h482v-24l-550 -587h362l24 102h55l-34 -149h-498z" />
    <glyph glyph-name="a" unicode="a" horiz-adv-x="552" 
d="M200 -8c-91 0 -155 66 -155 174c0 143 104 262 225 262c76 0 126 -42 138 -109l25 106h52l-78 -320c-4 -16 -7 -32 -7 -40c0 -20 13 -33 31 -33c22 0 39 20 58 66l31 -10c-20 -59 -50 -94 -96 -94c-44 0 -74 28 -74 67v17c-37 -49 -89 -86 -150 -86zM211 39
c109 0 177 122 177 216c0 75 -40 126 -116 126c-101 0 -171 -105 -171 -214c0 -78 38 -128 110 -128z" />
    <glyph glyph-name="b" unicode="b" horiz-adv-x="524" 
d="M35 0l160 686h-80l11 46h132l-92 -393c34 48 84 89 150 89c91 0 162 -69 162 -177c0 -147 -109 -259 -224 -259c-74 0 -128 43 -143 107l-24 -99h-52zM253 39c99 0 169 102 169 206c0 83 -43 136 -115 136c-100 0 -179 -119 -179 -217c0 -73 47 -125 125 -125z" />
    <glyph glyph-name="c" unicode="c" horiz-adv-x="453" 
d="M224 -8c-101 0 -180 67 -180 178c0 131 106 258 236 258c106 0 150 -64 150 -106c0 -29 -21 -52 -47 -52c-15 0 -34 9 -34 37c0 9 8 28 23 33c-16 26 -45 41 -93 41c-99 0 -182 -102 -182 -210c0 -77 50 -132 136 -132c47 0 98 21 139 60l-3 -55
c-42 -33 -91 -52 -145 -52z" />
    <glyph glyph-name="d" unicode="d" horiz-adv-x="555" 
d="M46 167c0 147 106 261 221 261c72 0 130 -40 142 -109l85 367h-80l11 46h132l-147 -627c-4 -16 -7 -32 -7 -40c0 -20 11 -33 30 -33c23 0 40 20 59 66l31 -10c-20 -59 -50 -94 -96 -94c-43 0 -73 28 -73 70c0 4 0 9 1 14c-36 -48 -88 -86 -150 -86
c-91 0 -159 67 -159 175zM216 39c106 0 175 116 175 214c0 77 -44 128 -120 128c-101 0 -169 -104 -169 -213c0 -78 42 -129 114 -129z" />
    <glyph glyph-name="e" unicode="e" horiz-adv-x="470" 
d="M414 196h-318c-1 -9 -1 -18 -1 -27c0 -87 71 -131 142 -131c49 0 84 10 138 39l-12 -54c-44 -22 -80 -31 -135 -31c-97 0 -185 63 -185 176c0 142 111 260 235 260c95 0 153 -60 153 -149c0 -26 -6 -53 -17 -83zM274 381c-74 0 -142 -60 -168 -141h268c5 15 8 32 8 48
c0 47 -32 93 -108 93z" />
    <glyph glyph-name="f" unicode="f" horiz-adv-x="303" 
d="M57 0l87 374h-76l11 46h75l38 162c13 56 31 87 59 115c21 21 55 38 96 38c43 0 70 -20 70 -51c0 -24 -20 -41 -40 -41c-26 0 -43 17 -43 47c-17 -2 -34 -9 -49 -24c-20 -20 -35 -54 -44 -93l-35 -153h109l-11 -46h-109l-86 -374h-52z" />
    <glyph glyph-name="g" unicode="g" horiz-adv-x="524" 
d="M177 -200c-56 0 -118 24 -140 46c-16 16 -21 29 -21 43c0 26 16 47 43 47s41 -22 41 -44c0 -9 -3 -19 -9 -27c20 -12 49 -21 88 -21c46 0 78 12 106 40c24 24 43 62 55 113l21 90c-36 -58 -93 -87 -151 -87c-91 0 -164 66 -164 174c0 143 106 254 227 254
c79 0 128 -46 140 -109l25 106h52l-101 -435c-14 -60 -33 -103 -66 -136c-37 -37 -85 -54 -146 -54zM220 47c106 0 173 111 173 209c0 77 -44 125 -120 125c-101 0 -171 -97 -171 -206c0 -78 46 -128 118 -128z" />
    <glyph glyph-name="h" unicode="h" horiz-adv-x="519" 
d="M35 0l160 686h-80l11 46h132l-96 -405c32 52 82 101 147 101c70 0 121 -47 122 -109c0 -21 -4 -44 -10 -66l-40 -148c-4 -15 -6 -32 -6 -40c0 -20 13 -33 31 -33c22 0 39 20 57 66l31 -10c-19 -59 -48 -94 -94 -94c-44 0 -77 29 -77 71c0 11 3 30 7 45l40 150
c6 22 8 39 8 57c-1 38 -33 66 -76 66c-62 0 -142 -66 -169 -183l-46 -200h-52z" />
    <glyph glyph-name="i" unicode="i" horiz-adv-x="282" 
d="M201 512c-24 0 -43 20 -43 44s19 44 43 44c23 0 42 -20 42 -44s-19 -44 -42 -44zM142 -6c-44 0 -76 29 -76 71c0 11 4 31 8 45l74 264h-84l12 46h137l-88 -315c-4 -14 -7 -32 -7 -40c0 -20 13 -33 31 -33c22 0 39 20 58 66l31 -10c-20 -59 -50 -94 -96 -94z" />
    <glyph glyph-name="j" unicode="j" horiz-adv-x="248" 
d="M-47 -200c-36 0 -66 20 -66 48c0 26 19 41 40 41c22 0 38 -19 38 -37c0 -3 0 -6 -1 -8c18 2 34 8 47 20c21 18 37 49 48 98l95 412h-87l12 46h137l-108 -467c-13 -56 -29 -87 -57 -115c-21 -21 -57 -38 -98 -38zM204 512c-24 0 -43 20 -43 44s19 44 43 44
c23 0 42 -20 42 -44s-19 -44 -42 -44z" />
    <glyph glyph-name="k" unicode="k" horiz-adv-x="455" 
d="M87 0h-52l160 686h-80l11 46h132l-123 -525c131 59 205 111 220 137c-13 6 -23 24 -23 37c0 27 19 47 46 47c24 0 44 -18 44 -48c0 -58 -92 -121 -183 -167l46 -116c11 -28 18 -43 26 -52c9 -10 17 -11 26 -11c17 0 34 16 48 77l33 -11c-18 -82 -49 -106 -86 -106
c-21 0 -38 5 -55 20c-13 12 -25 31 -36 58l-49 121l-67 -31z" />
    <glyph glyph-name="l" unicode="l" horiz-adv-x="265" 
d="M131 -6c-44 0 -76 29 -76 71c0 11 4 27 7 42l135 579h-79l11 46h131l-146 -625c-3 -15 -7 -34 -7 -42c0 -20 13 -33 31 -33c22 0 39 20 58 66l31 -10c-20 -59 -50 -94 -96 -94z" />
    <glyph glyph-name="m" unicode="m" horiz-adv-x="781" 
d="M47 0l94 374h-80l12 46h129l-27 -101c41 66 93 109 150 109c65 0 107 -39 109 -105c41 64 96 105 151 105c66 0 111 -47 111 -109c0 -21 -6 -44 -12 -66l-43 -147c-4 -14 -7 -33 -7 -41c0 -20 13 -33 31 -33c22 0 39 20 58 66l31 -10c-20 -59 -50 -94 -96 -94
c-44 0 -76 29 -76 71c0 11 4 32 8 46l43 149c6 22 10 39 10 57c0 38 -25 66 -66 66c-60 0 -135 -65 -166 -184l-52 -199h-52l67 260c6 22 10 39 10 57c0 38 -26 66 -67 66c-59 0 -139 -66 -168 -183l-50 -200h-52z" />
    <glyph glyph-name="n" unicode="n" horiz-adv-x="531" 
d="M408 -6c-44 0 -76 29 -76 71c0 11 4 32 8 46l43 149c6 22 10 39 10 57c0 38 -30 66 -73 66c-62 0 -141 -65 -171 -183l-50 -200h-52l94 374h-80l12 46h129l-26 -101c41 66 92 109 152 109c70 0 118 -47 118 -109c0 -21 -6 -44 -12 -66l-43 -147c-4 -14 -7 -33 -7 -41
c0 -20 13 -33 31 -33c22 0 39 20 58 66l31 -10c-20 -59 -50 -94 -96 -94z" />
    <glyph glyph-name="o" unicode="o" horiz-adv-x="502" 
d="M220 -8c-111 0 -176 82 -176 180c0 133 103 256 238 256c111 0 176 -82 176 -180c0 -133 -103 -256 -238 -256zM223 39c102 0 182 98 182 210c0 80 -54 132 -126 132c-102 0 -182 -98 -182 -210c0 -80 54 -132 126 -132z" />
    <glyph glyph-name="p" unicode="p" horiz-adv-x="539" 
d="M-62 -196l11 46h65l126 524h-80l11 46h129l-19 -81c34 48 84 89 150 89c91 0 162 -69 162 -177c0 -147 -109 -259 -224 -259c-70 0 -127 39 -145 101l-57 -243h92l-11 -46h-210zM268 39c99 0 169 102 169 206c0 83 -43 136 -115 136c-100 0 -179 -118 -179 -216
c0 -73 47 -126 125 -126z" />
    <glyph glyph-name="q" unicode="q" horiz-adv-x="525" 
d="M204 -8c-91 0 -159 68 -159 176c0 143 107 260 228 260c72 0 126 -42 139 -107l24 99h52l-133 -570h91l-11 -46h-144l65 274c-36 -49 -91 -86 -152 -86zM215 39c109 0 178 120 178 214c0 75 -41 128 -117 128c-101 0 -175 -103 -175 -212c0 -78 42 -130 114 -130z" />
    <glyph glyph-name="r" unicode="r" horiz-adv-x="363" 
d="M47 0l94 374h-80l12 46h129l-28 -114c56 77 103 122 142 122c33 0 51 -19 51 -44c0 -27 -22 -49 -47 -49c-23 0 -39 14 -44 34c-34 -20 -107 -86 -131 -185l-46 -184h-52z" />
    <glyph glyph-name="s" unicode="s" horiz-adv-x="410" 
d="M198 -8c-57 0 -114 23 -145 55c-15 15 -23 32 -23 49c0 24 17 47 42 47s37 -18 37 -36c0 -14 -5 -23 -16 -35c4 -5 10 -9 18 -14c21 -12 54 -22 91 -22c50 0 89 27 89 69s-40 64 -85 86c-64 32 -118 60 -118 121c0 67 58 116 145 116c53 0 99 -18 125 -44
c15 -14 23 -31 23 -49c0 -28 -19 -46 -40 -46c-22 0 -38 15 -38 36c0 11 4 23 13 35c-2 2 -6 6 -17 11c-15 7 -41 13 -70 13c-56 0 -89 -29 -89 -64c0 -36 38 -57 88 -82c61 -30 115 -61 115 -125c0 -79 -70 -121 -145 -121z" />
    <glyph glyph-name="t" unicode="t" horiz-adv-x="324" 
d="M321 374h-129l-66 -269c-3 -13 -5 -24 -5 -36c0 -14 12 -31 35 -31s50 15 91 42l22 -31c-49 -36 -85 -57 -124 -57c-47 0 -79 30 -79 70c0 12 3 27 7 44l67 268h-74l12 46h73l26 103l56 16l-30 -119h130z" />
    <glyph glyph-name="u" unicode="u" horiz-adv-x="531" 
d="M68 420h132l-71 -272c-4 -15 -7 -33 -7 -51c0 -34 27 -60 70 -60c62 0 142 67 171 183l50 200h52l-79 -315c-4 -16 -7 -32 -7 -40c0 -20 13 -33 31 -33c22 0 39 20 58 66l31 -10c-20 -59 -50 -94 -96 -94c-43 0 -72 27 -72 71c0 10 2 22 5 36c-37 -61 -88 -109 -152 -109
c-67 0 -115 41 -115 103c0 21 5 41 9 57l58 222h-80z" />
    <glyph glyph-name="v" unicode="v" horiz-adv-x="457" 
d="M170 -17l-69 391h-79l12 46h116l54 -364c83 93 153 208 172 279c-20 4 -40 20 -40 46s19 47 46 47s49 -20 49 -59c0 -73 -115 -255 -241 -386h-20z" />
    <glyph glyph-name="w" unicode="w" horiz-adv-x="650" 
d="M140 -17l-34 391h-77l12 46h110l25 -340l172 285h16l67 -298c67 99 123 198 131 268c-21 4 -41 19 -41 46c0 26 19 47 46 47s49 -21 49 -54c0 -86 -75 -225 -193 -391h-18l-64 294l-182 -294h-19z" />
    <glyph glyph-name="x" unicode="x" horiz-adv-x="525" 
d="M62 -6c-34 0 -53 23 -53 47s20 43 42 43c23 0 37 -16 42 -36c22 7 43 35 80 85l66 90l-58 151h-86l12 46h107l56 -162l52 74c38 54 79 96 123 96c40 0 59 -23 59 -47s-20 -43 -42 -43c-25 0 -38 17 -43 36c-16 -6 -37 -29 -70 -73l-60 -82l51 -123c23 -56 34 -64 47 -64
s31 19 45 65l30 -9c-19 -68 -48 -94 -83 -94c-39 0 -59 22 -80 78l-41 113l-66 -95c-47 -68 -83 -96 -130 -96z" />
    <glyph glyph-name="y" unicode="y" horiz-adv-x="474" 
d="M-18 -200c-30 0 -60 21 -60 50c0 23 17 45 42 45s40 -18 42 -46h5c24 0 78 38 171 152l-75 373h-78l11 46h114l67 -369c80 104 160 217 174 284c-20 6 -41 23 -41 50c0 22 19 43 45 43c27 0 49 -20 49 -59c0 -73 -61 -171 -215 -367c-126 -161 -192 -202 -251 -202z" />
    <glyph glyph-name="z" unicode="z" horiz-adv-x="468" 
d="M28 -7l-19 23l361 360h-223l-21 -82h-48l31 126h330l14 -22l-351 -349c20 8 40 11 62 11c51 0 90 -21 136 -21c40 0 53 19 75 83l31 -7c-22 -84 -39 -123 -108 -123c-56 0 -109 28 -165 28c-47 0 -74 -10 -105 -27z" />
    <glyph glyph-name="Aacute" unicode="&#xc1;" horiz-adv-x="706" 
d="M-26 0l12 50h61l334 558h-78l12 50h272l-12 -50h-76l76 -558h71l-12 -50h-202l12 50h73l-24 186h-275l-110 -186h85l-12 -50h-207zM248 286h238l-43 327zM427 715l-11 19l166 120c14 11 24 15 38 15c18 0 34 -16 34 -34c0 -22 -16 -35 -37 -43z" />
    <glyph glyph-name="aacute" unicode="&#xe1;" horiz-adv-x="552" 
d="M200 -8c-91 0 -155 66 -155 174c0 143 104 262 225 262c76 0 126 -42 138 -109l25 106h52l-78 -320c-4 -16 -7 -32 -7 -40c0 -20 13 -33 31 -33c22 0 39 20 58 66l31 -10c-20 -59 -50 -94 -96 -94c-44 0 -74 28 -74 67v17c-37 -49 -89 -86 -150 -86zM211 39
c109 0 177 122 177 216c0 75 -40 126 -116 126c-101 0 -171 -105 -171 -214c0 -78 38 -128 110 -128zM289 505l-11 19l166 120c14 11 24 15 38 15c18 0 34 -16 34 -34c0 -22 -16 -35 -37 -43z" />
    <glyph glyph-name="Abreve" unicode="&#x102;" horiz-adv-x="706" 
d="M-26 0l12 50h61l334 558h-78l12 50h272l-12 -50h-76l76 -558h71l-12 -50h-202l12 50h73l-24 186h-275l-110 -186h85l-12 -50h-207zM248 286h238l-43 327zM475 719c-74 0 -114 57 -124 124l37 13c10 -51 43 -81 95 -81c46 0 90 25 124 80l33 -20
c-35 -66 -99 -116 -165 -116z" />
    <glyph glyph-name="abreve" unicode="&#x103;" horiz-adv-x="552" 
d="M200 -8c-91 0 -155 66 -155 174c0 143 104 262 225 262c76 0 126 -42 138 -109l25 106h52l-78 -320c-4 -16 -7 -32 -7 -40c0 -20 13 -33 31 -33c22 0 39 20 58 66l31 -10c-20 -59 -50 -94 -96 -94c-44 0 -74 28 -74 67v17c-37 -49 -89 -86 -150 -86zM211 39
c109 0 177 122 177 216c0 75 -40 126 -116 126c-101 0 -171 -105 -171 -214c0 -78 38 -128 110 -128zM337 509c-74 0 -114 57 -124 124l37 13c10 -51 43 -81 95 -81c46 0 90 25 124 80l33 -20c-35 -66 -99 -116 -165 -116z" />
    <glyph glyph-name="Acircumflex" unicode="&#xc2;" horiz-adv-x="706" 
d="M-26 0l12 50h61l334 558h-78l12 50h272l-12 -50h-76l76 -558h71l-12 -50h-202l12 50h73l-24 186h-275l-110 -186h85l-12 -50h-207zM248 286h238l-43 327zM349 714l-23 30l175 133l106 -140l-26 -23l-91 86z" />
    <glyph glyph-name="acircumflex" unicode="&#xe2;" horiz-adv-x="552" 
d="M200 -8c-91 0 -155 66 -155 174c0 143 104 262 225 262c76 0 126 -42 138 -109l25 106h52l-78 -320c-4 -16 -7 -32 -7 -40c0 -20 13 -33 31 -33c22 0 39 20 58 66l31 -10c-20 -59 -50 -94 -96 -94c-44 0 -74 28 -74 67v17c-37 -49 -89 -86 -150 -86zM211 39
c109 0 177 122 177 216c0 75 -40 126 -116 126c-101 0 -171 -105 -171 -214c0 -78 38 -128 110 -128zM211 504l-23 30l175 133l106 -140l-26 -23l-91 86z" />
    <glyph glyph-name="Adieresis" unicode="&#xc4;" horiz-adv-x="706" 
d="M-26 0l12 50h61l334 558h-78l12 50h272l-12 -50h-76l76 -558h71l-12 -50h-202l12 50h73l-24 186h-275l-110 -186h85l-12 -50h-207zM248 286h238l-43 327zM564 735c-28 0 -49 23 -49 51s21 51 49 51s49 -23 49 -51s-21 -51 -49 -51zM404 735c-28 0 -49 23 -49 51
s21 51 49 51s49 -23 49 -51s-21 -51 -49 -51z" />
    <glyph glyph-name="adieresis" unicode="&#xe4;" horiz-adv-x="552" 
d="M200 -8c-91 0 -155 66 -155 174c0 143 104 262 225 262c76 0 126 -42 138 -109l25 106h52l-78 -320c-4 -16 -7 -32 -7 -40c0 -20 13 -33 31 -33c22 0 39 20 58 66l31 -10c-20 -59 -50 -94 -96 -94c-44 0 -74 28 -74 67v17c-37 -49 -89 -86 -150 -86zM211 39
c109 0 177 122 177 216c0 75 -40 126 -116 126c-101 0 -171 -105 -171 -214c0 -78 38 -128 110 -128zM425 525c-28 0 -49 23 -49 51s21 51 49 51s49 -23 49 -51s-21 -51 -49 -51zM265 525c-28 0 -49 23 -49 51s21 51 49 51s49 -23 49 -51s-21 -51 -49 -51z" />
    <glyph glyph-name="AE" unicode="&#xc6;" horiz-adv-x="902" 
d="M-43 0l12 50h83l423 558h-87l12 50h537l-35 -149h-55l23 99h-257l-57 -247h208l-11 -50h-208l-61 -261h257l23 99h55l-34 -149h-453l12 50h83l43 186h-217l-141 -186h97l-12 -50h-240zM290 285h191l76 326h-20z" />
    <glyph glyph-name="ae" unicode="&#xe6;" horiz-adv-x="784" 
d="M728 196h-317c-1 -9 -2 -18 -2 -27c0 -87 71 -131 142 -131c49 0 84 10 138 39l-12 -54c-44 -22 -80 -31 -135 -31c-95 0 -152 59 -171 131c-36 -78 -118 -131 -206 -131c-95 0 -130 60 -130 103c0 94 89 144 232 144h101c-1 76 -39 142 -128 142c-20 0 -34 -2 -45 -6
c-6 -2 -13 -6 -16 -9c6 -8 10 -16 10 -27c0 -21 -18 -40 -40 -40s-41 19 -41 45c0 25 19 52 52 68c20 10 46 16 76 16c96 0 146 -49 162 -129c44 83 120 129 194 129c95 0 153 -60 153 -149c0 -26 -6 -53 -17 -83zM166 39c86 0 177 66 198 159h-83
c-139 0 -193 -39 -193 -102c0 -31 29 -57 78 -57zM588 381c-77 0 -143 -62 -168 -141h268c5 15 8 32 8 48c0 47 -32 93 -108 93z" />
    <glyph glyph-name="AEacute" unicode="&#x1fc;" horiz-adv-x="902" 
d="M-43 0l12 50h83l423 558h-87l12 50h537l-35 -149h-55l23 99h-257l-57 -247h208l-11 -50h-208l-61 -261h257l23 99h55l-34 -149h-453l12 50h83l43 186h-217l-141 -186h97l-12 -50h-240zM290 285h191l76 326h-20zM605 715l-11 19l166 120c14 11 24 15 38 15
c18 0 34 -16 34 -34c0 -22 -16 -35 -37 -43z" />
    <glyph glyph-name="aeacute" unicode="&#x1fd;" horiz-adv-x="784" 
d="M728 196h-317c-1 -9 -2 -18 -2 -27c0 -87 71 -131 142 -131c49 0 84 10 138 39l-12 -54c-44 -22 -80 -31 -135 -31c-95 0 -152 59 -171 131c-36 -78 -118 -131 -206 -131c-95 0 -130 60 -130 103c0 94 89 144 232 144h101c-1 76 -39 142 -128 142c-20 0 -34 -2 -45 -6
c-6 -2 -13 -6 -16 -9c6 -8 10 -16 10 -27c0 -21 -18 -40 -40 -40s-41 19 -41 45c0 25 19 52 52 68c20 10 46 16 76 16c96 0 146 -49 162 -129c44 83 120 129 194 129c95 0 153 -60 153 -149c0 -26 -6 -53 -17 -83zM166 39c86 0 177 66 198 159h-83
c-139 0 -193 -39 -193 -102c0 -31 29 -57 78 -57zM588 381c-77 0 -143 -62 -168 -141h268c5 15 8 32 8 48c0 47 -32 93 -108 93zM418 505l-11 19l166 120c14 11 24 15 38 15c18 0 34 -16 34 -34c0 -22 -16 -35 -37 -43z" />
    <glyph glyph-name="Agrave" unicode="&#xc0;" horiz-adv-x="706" 
d="M-26 0l12 50h61l334 558h-78l12 50h272l-12 -50h-76l76 -558h71l-12 -50h-202l12 50h73l-24 186h-275l-110 -186h85l-12 -50h-207zM248 286h238l-43 327zM508 714l-118 76c-21 14 -28 27 -28 42c0 20 17 37 37 37c15 0 26 -5 42 -27l83 -112z" />
    <glyph glyph-name="agrave" unicode="&#xe0;" horiz-adv-x="552" 
d="M200 -8c-91 0 -155 66 -155 174c0 143 104 262 225 262c76 0 126 -42 138 -109l25 106h52l-78 -320c-4 -16 -7 -32 -7 -40c0 -20 13 -33 31 -33c22 0 39 20 58 66l31 -10c-20 -59 -50 -94 -96 -94c-44 0 -74 28 -74 67v17c-37 -49 -89 -86 -150 -86zM211 39
c109 0 177 122 177 216c0 75 -40 126 -116 126c-101 0 -171 -105 -171 -214c0 -78 38 -128 110 -128zM370 504l-118 76c-21 14 -28 27 -28 42c0 20 17 37 37 37c15 0 26 -5 42 -27l83 -112z" />
    <glyph glyph-name="Amacron" unicode="&#x100;" horiz-adv-x="706" 
d="M-26 0l12 50h61l334 558h-78l12 50h272l-12 -50h-76l76 -558h71l-12 -50h-202l12 50h73l-24 186h-275l-110 -186h85l-12 -50h-207zM248 286h238l-43 327zM331 750l13 52h287l-11 -52h-289z" />
    <glyph glyph-name="amacron" unicode="&#x101;" horiz-adv-x="552" 
d="M200 -8c-91 0 -155 66 -155 174c0 143 104 262 225 262c76 0 126 -42 138 -109l25 106h52l-78 -320c-4 -16 -7 -32 -7 -40c0 -20 13 -33 31 -33c22 0 39 20 58 66l31 -10c-20 -59 -50 -94 -96 -94c-44 0 -74 28 -74 67v17c-37 -49 -89 -86 -150 -86zM211 39
c109 0 177 122 177 216c0 75 -40 126 -116 126c-101 0 -171 -105 -171 -214c0 -78 38 -128 110 -128zM193 540l13 52h287l-11 -52h-289z" />
    <glyph glyph-name="Aogonek" unicode="&#x104;" horiz-adv-x="706" 
d="M-26 0l12 50h61l334 558h-78l12 50h272l-12 -50h-76l76 -558h71l-12 -50h-75c-47 -34 -86 -75 -86 -116c0 -25 17 -39 46 -39c21 0 36 4 49 9l-9 -42c-10 -6 -28 -13 -55 -13c-53 0 -80 28 -80 70c0 47 36 93 89 131h-81l12 50h73l-24 186h-275l-110 -186h85l-12 -50
h-207zM248 286h238l-43 327z" />
    <glyph glyph-name="aogonek" unicode="&#x105;" horiz-adv-x="552" 
d="M350 65c0 4 0 9 1 13c-38 -48 -90 -86 -151 -86c-91 0 -155 66 -155 174c0 143 104 262 225 262c76 0 126 -42 138 -108l25 105h52l-78 -320c-4 -16 -7 -32 -7 -40c0 -20 11 -31 29 -31c22 0 41 18 60 64l31 -10c-7 -22 -19 -45 -34 -62c-39 -44 -110 -83 -110 -142
c0 -25 17 -39 46 -39c21 0 36 4 49 9l-9 -42c-10 -6 -28 -13 -55 -13c-53 0 -80 28 -80 70c0 46 35 90 84 127c-23 4 -42 15 -52 33c-6 10 -9 22 -9 36zM211 39c109 0 177 122 177 217c0 75 -40 125 -116 125c-101 0 -171 -105 -171 -214c0 -78 38 -128 110 -128z" />
    <glyph glyph-name="Aring" unicode="&#xc5;" horiz-adv-x="706" 
d="M-26 0l12 50h61l334 558h-78l12 50h86c-23 16 -33 40 -33 67c0 53 46 109 109 109c52 0 81 -37 81 -85c0 -41 -24 -78 -55 -91h84l-12 -50h-76l76 -558h71l-12 -50h-202l12 50h73l-24 186h-275l-110 -186h85l-12 -50h-207zM453 669c37 0 65 35 65 76c0 28 -19 50 -46 50
c-37 0 -65 -35 -65 -76c0 -28 19 -50 46 -50zM248 286h238l-43 327z" />
    <glyph glyph-name="aring" unicode="&#xe5;" horiz-adv-x="552" 
d="M200 -8c-91 0 -155 66 -155 174c0 143 104 262 225 262c76 0 126 -42 138 -109l25 106h52l-78 -320c-4 -16 -7 -32 -7 -40c0 -20 13 -33 31 -33c22 0 39 20 58 66l31 -10c-20 -59 -50 -94 -96 -94c-44 0 -74 28 -74 67v17c-37 -49 -89 -86 -150 -86zM211 39
c109 0 177 122 177 216c0 75 -40 126 -116 126c-101 0 -171 -105 -171 -214c0 -78 38 -128 110 -128zM338 497c-52 0 -82 37 -82 85c0 63 46 119 109 119c52 0 82 -37 82 -85c0 -63 -46 -119 -109 -119zM342 536c37 0 65 35 65 76c0 28 -19 50 -46 50c-37 0 -65 -35 -65 -76
c0 -28 19 -50 46 -50z" />
    <glyph glyph-name="Aringacute" unicode="&#x1fa;" horiz-adv-x="706" 
d="M-26 0l12 50h61l334 558h-78l12 50h86c-23 16 -33 40 -33 67c0 53 46 109 109 109c52 0 81 -37 81 -85c0 -41 -24 -78 -55 -91h84l-12 -50h-76l76 -558h71l-12 -50h-202l12 50h73l-24 186h-275l-110 -186h85l-12 -50h-207zM453 669c37 0 65 35 65 76c0 28 -19 50 -46 50
c-37 0 -65 -35 -65 -76c0 -28 19 -50 46 -50zM248 286h238l-43 327zM473 891l-11 19l166 120c14 11 24 15 38 15c18 0 34 -16 34 -34c0 -22 -16 -35 -37 -43z" />
    <glyph glyph-name="aringacute" unicode="&#x1fb;" horiz-adv-x="552" 
d="M200 -8c-91 0 -155 66 -155 174c0 143 104 262 225 262c76 0 126 -42 138 -109l25 106h52l-78 -320c-4 -16 -7 -32 -7 -40c0 -20 13 -33 31 -33c22 0 39 20 58 66l31 -10c-20 -59 -50 -94 -96 -94c-44 0 -74 28 -74 67v17c-37 -49 -89 -86 -150 -86zM211 39
c109 0 177 122 177 216c0 75 -40 126 -116 126c-101 0 -171 -105 -171 -214c0 -78 38 -128 110 -128zM338 497c-52 0 -82 37 -82 85c0 63 46 119 109 119c52 0 82 -37 82 -85c0 -63 -46 -119 -109 -119zM362 768l-11 19l166 120c14 11 24 15 38 15c18 0 34 -16 34 -34
c0 -22 -16 -35 -37 -43zM342 536c37 0 65 35 65 76c0 28 -19 50 -46 50c-37 0 -65 -35 -65 -76c0 -28 19 -50 46 -50z" />
    <glyph glyph-name="Atilde" unicode="&#xc3;" horiz-adv-x="706" 
d="M-26 0l12 50h61l334 558h-78l12 50h272l-12 -50h-76l76 -558h71l-12 -50h-202l12 50h73l-24 186h-275l-110 -186h85l-12 -50h-207zM248 286h238l-43 327zM535 714c-37 0 -60 19 -80 40c-18 18 -30 27 -48 27c-25 0 -43 -22 -57 -61l-37 12c12 57 56 103 98 103
c37 0 60 -19 80 -40c17 -18 30 -27 48 -27c25 0 43 22 57 61l37 -12c-12 -57 -56 -103 -98 -103z" />
    <glyph glyph-name="atilde" unicode="&#xe3;" horiz-adv-x="552" 
d="M200 -8c-91 0 -155 66 -155 174c0 143 104 262 225 262c76 0 126 -42 138 -109l25 106h52l-78 -320c-4 -16 -7 -32 -7 -40c0 -20 13 -33 31 -33c22 0 39 20 58 66l31 -10c-20 -59 -50 -94 -96 -94c-44 0 -74 28 -74 67v17c-37 -49 -89 -86 -150 -86zM211 39
c109 0 177 122 177 216c0 75 -40 126 -116 126c-101 0 -171 -105 -171 -214c0 -78 38 -128 110 -128zM397 504c-37 0 -60 19 -80 40c-18 18 -30 27 -48 27c-25 0 -43 -22 -57 -61l-37 12c12 57 56 103 98 103c37 0 60 -19 80 -40c17 -18 30 -27 48 -27c25 0 43 22 57 61
l37 -12c-12 -57 -56 -103 -98 -103z" />
    <glyph glyph-name="Cacute" unicode="&#x106;" horiz-adv-x="693" 
d="M356 -12c-153 0 -282 105 -282 290c0 208 170 392 370 392c163 0 236 -103 236 -158c0 -43 -26 -66 -52 -66c-29 0 -46 17 -46 41c0 19 14 37 33 47c-10 36 -68 85 -174 85c-186 0 -307 -179 -307 -334c0 -157 93 -245 228 -245c84 0 156 35 218 94l32 -36
c-73 -72 -160 -110 -256 -110zM426 715l-11 19l166 120c14 11 24 15 38 15c18 0 34 -16 34 -34c0 -22 -16 -35 -37 -43z" />
    <glyph glyph-name="cacute" unicode="&#x107;" horiz-adv-x="453" 
d="M224 -8c-101 0 -180 67 -180 178c0 131 106 258 236 258c106 0 150 -64 150 -106c0 -29 -21 -52 -47 -52c-15 0 -34 9 -34 37c0 9 8 28 23 33c-16 26 -45 41 -93 41c-99 0 -182 -102 -182 -210c0 -77 50 -132 136 -132c47 0 98 21 139 60l-3 -55
c-42 -33 -91 -52 -145 -52zM274 505l-11 19l166 120c14 11 24 15 38 15c18 0 34 -16 34 -34c0 -22 -16 -35 -37 -43z" />
    <glyph glyph-name="Ccaron" unicode="&#x10c;" horiz-adv-x="693" 
d="M356 -12c-153 0 -282 105 -282 290c0 208 170 392 370 392c163 0 236 -103 236 -158c0 -43 -26 -66 -52 -66c-29 0 -46 17 -46 41c0 19 14 37 33 47c-10 36 -68 85 -174 85c-186 0 -307 -179 -307 -334c0 -157 93 -245 228 -245c84 0 156 35 218 94l32 -36
c-73 -72 -160 -110 -256 -110zM469 718l-106 140l26 23l91 -86l141 86l23 -30z" />
    <glyph glyph-name="ccaron" unicode="&#x10d;" horiz-adv-x="453" 
d="M224 -8c-101 0 -180 67 -180 178c0 131 106 258 236 258c106 0 150 -64 150 -106c0 -29 -21 -52 -47 -52c-15 0 -34 9 -34 37c0 9 8 28 23 33c-16 26 -45 41 -93 41c-99 0 -182 -102 -182 -210c0 -77 50 -132 136 -132c47 0 98 21 139 60l-3 -55
c-42 -33 -91 -52 -145 -52zM317 508l-106 140l26 23l91 -86l141 86l23 -30z" />
    <glyph glyph-name="Ccedilla" unicode="&#xc7;" horiz-adv-x="693" 
d="M290 -199c-47 0 -93 24 -115 42l20 28c18 -13 60 -28 92 -28c30 0 45 14 45 34c0 18 -23 36 -64 29l-14 14l40 74c-125 24 -220 124 -220 284c0 208 170 392 370 392c163 0 236 -103 236 -158c0 -43 -26 -66 -52 -66c-29 0 -46 17 -46 41c0 19 14 37 33 47
c-10 36 -68 85 -174 85c-186 0 -307 -179 -307 -334c0 -157 93 -245 228 -245c84 0 156 35 218 94l32 -36c-73 -72 -160 -110 -256 -110c-9 0 -18 1 -27 2l-16 -43c50 -6 72 -38 72 -67c0 -51 -46 -79 -95 -79z" />
    <glyph glyph-name="ccedilla" unicode="&#xe7;" horiz-adv-x="453" 
d="M167 -199c-47 0 -93 24 -115 42l20 28c18 -13 60 -28 92 -28c30 0 45 14 45 34c0 18 -23 36 -64 29l-14 14l42 78c-76 19 -129 80 -129 172c0 131 106 258 236 258c106 0 150 -64 150 -106c0 -29 -21 -52 -47 -52c-15 0 -34 9 -34 37c0 9 8 28 23 33
c-16 26 -45 41 -93 41c-99 0 -182 -102 -182 -210c0 -77 50 -132 136 -132c47 0 98 21 139 60l-3 -55c-42 -33 -91 -52 -145 -52c-6 0 -12 0 -17 1l-17 -46c50 -6 72 -38 72 -67c0 -51 -46 -79 -95 -79z" />
    <glyph glyph-name="Cdotaccent" unicode="&#x10a;" horiz-adv-x="693" 
d="M356 -12c-153 0 -282 105 -282 290c0 208 170 392 370 392c163 0 236 -103 236 -158c0 -43 -26 -66 -52 -66c-29 0 -46 17 -46 41c0 19 14 37 33 47c-10 36 -68 85 -174 85c-186 0 -307 -179 -307 -334c0 -157 93 -245 228 -245c84 0 156 35 218 94l32 -36
c-73 -72 -160 -110 -256 -110zM483 733c-29 0 -51 24 -51 53s22 53 51 53s51 -24 51 -53s-22 -53 -51 -53z" />
    <glyph glyph-name="cdotaccent" unicode="&#x10b;" horiz-adv-x="453" 
d="M224 -8c-101 0 -180 67 -180 178c0 131 106 258 236 258c106 0 150 -64 150 -106c0 -29 -21 -52 -47 -52c-15 0 -34 9 -34 37c0 9 8 28 23 33c-16 26 -45 41 -93 41c-99 0 -182 -102 -182 -210c0 -77 50 -132 136 -132c47 0 98 21 139 60l-3 -55
c-42 -33 -91 -52 -145 -52zM330 523c-29 0 -51 24 -51 53s22 53 51 53s51 -24 51 -53s-22 -53 -51 -53z" />
    <glyph glyph-name="Dcaron" unicode="&#x10e;" horiz-adv-x="715" 
d="M8 0l12 50h83l129 558h-93l12 50h206c131 0 205 -30 267 -92c41 -41 67 -105 67 -176c0 -105 -36 -196 -102 -262c-84 -84 -201 -128 -355 -128h-226zM160 50h85c128 0 229 39 294 104c61 61 91 139 91 233c0 60 -21 113 -53 145c-47 47 -106 76 -225 76h-63zM441 718
l-106 140l26 23l91 -86l141 86l23 -30z" />
    <glyph glyph-name="dcaron" unicode="&#x10f;" horiz-adv-x="555" 
d="M46 167c0 147 106 261 221 261c72 0 130 -40 142 -109l85 367h-80l11 46h132l-147 -627c-4 -16 -7 -32 -7 -40c0 -20 11 -33 30 -33c23 0 40 20 59 66l31 -10c-20 -59 -50 -94 -96 -94c-43 0 -73 28 -73 70c0 4 0 9 1 14c-36 -48 -88 -86 -150 -86
c-91 0 -159 67 -159 175zM216 39c106 0 175 116 175 214c0 77 -44 128 -120 128c-101 0 -169 -104 -169 -213c0 -78 42 -129 114 -129zM562 518l-15 16c32 35 49 59 59 96c6 22 3 44 6 64c3 22 14 38 38 38c19 0 33 -11 33 -34c0 -27 -11 -55 -31 -86
c-23 -35 -58 -68 -90 -94z" />
    <glyph glyph-name="Dcroat" unicode="&#x110;" horiz-adv-x="715" 
d="M8 0l12 50h83l60 262h-86l12 50h86l57 246h-93l12 50h206c131 0 205 -30 267 -92c41 -41 67 -105 67 -176c0 -105 -36 -196 -102 -262c-84 -84 -201 -128 -355 -128h-226zM160 50h85c128 0 229 39 294 104c61 61 91 139 91 233c0 60 -21 113 -53 145
c-47 47 -106 76 -225 76h-63l-57 -246h135l-12 -50h-135z" />
    <glyph glyph-name="dcroat" unicode="&#x111;" horiz-adv-x="555" 
d="M299 531l10 47h160l25 108h-80l11 46h132l-36 -154h78l-10 -47h-79l-100 -426c-4 -16 -7 -32 -7 -40c0 -20 11 -33 30 -33c23 0 40 20 59 66l31 -10c-20 -59 -50 -94 -96 -94c-43 0 -73 28 -73 70c0 4 0 9 1 14c-36 -48 -88 -86 -150 -86c-91 0 -159 67 -159 175
c0 147 106 261 221 261c72 0 130 -40 142 -109l49 212h-159zM216 39c106 0 175 116 175 214c0 77 -44 128 -120 128c-101 0 -169 -104 -169 -213c0 -78 42 -129 114 -129z" />
    <glyph glyph-name="Eacute" unicode="&#xc9;" horiz-adv-x="588" 
d="M8 0l12 50h83l129 558h-93l12 50h472l-35 -149h-55l23 99h-267l-57 -247h218l-11 -50h-218l-61 -261h267l23 99h55l-34 -149h-463zM364 715l-11 19l166 120c14 11 24 15 38 15c18 0 34 -16 34 -34c0 -22 -16 -35 -37 -43z" />
    <glyph glyph-name="eacute" unicode="&#xe9;" horiz-adv-x="470" 
d="M414 196h-318c-1 -9 -1 -18 -1 -27c0 -87 71 -131 142 -131c49 0 84 10 138 39l-12 -54c-44 -22 -80 -31 -135 -31c-97 0 -185 63 -185 176c0 142 111 260 235 260c95 0 153 -60 153 -149c0 -26 -6 -53 -17 -83zM274 381c-74 0 -142 -60 -168 -141h268c5 15 8 32 8 48
c0 47 -32 93 -108 93zM265 505l-11 19l166 120c14 11 24 15 38 15c18 0 34 -16 34 -34c0 -22 -16 -35 -37 -43z" />
    <glyph glyph-name="Ebreve" unicode="&#x114;" horiz-adv-x="588" 
d="M8 0l12 50h83l129 558h-93l12 50h472l-35 -149h-55l23 99h-267l-57 -247h218l-11 -50h-218l-61 -261h267l23 99h55l-34 -149h-463zM412 719c-74 0 -114 57 -124 124l37 13c10 -51 43 -81 95 -81c46 0 90 25 124 80l33 -20c-35 -66 -99 -116 -165 -116z" />
    <glyph glyph-name="ebreve" unicode="&#x115;" horiz-adv-x="470" 
d="M414 196h-318c-1 -9 -1 -18 -1 -27c0 -87 71 -131 142 -131c49 0 84 10 138 39l-12 -54c-44 -22 -80 -31 -135 -31c-97 0 -185 63 -185 176c0 142 111 260 235 260c95 0 153 -60 153 -149c0 -26 -6 -53 -17 -83zM274 381c-74 0 -142 -60 -168 -141h268c5 15 8 32 8 48
c0 47 -32 93 -108 93zM313 509c-74 0 -114 57 -124 124l37 13c10 -51 43 -81 95 -81c46 0 90 25 124 80l33 -20c-35 -66 -99 -116 -165 -116z" />
    <glyph glyph-name="Ecaron" unicode="&#x11a;" horiz-adv-x="588" 
d="M8 0l12 50h83l129 558h-93l12 50h472l-35 -149h-55l23 99h-267l-57 -247h218l-11 -50h-218l-61 -261h267l23 99h55l-34 -149h-463zM407 718l-106 140l26 23l91 -86l141 86l23 -30z" />
    <glyph glyph-name="ecaron" unicode="&#x11b;" horiz-adv-x="470" 
d="M414 196h-318c-1 -9 -1 -18 -1 -27c0 -87 71 -131 142 -131c49 0 84 10 138 39l-12 -54c-44 -22 -80 -31 -135 -31c-97 0 -185 63 -185 176c0 142 111 260 235 260c95 0 153 -60 153 -149c0 -26 -6 -53 -17 -83zM274 381c-74 0 -142 -60 -168 -141h268c5 15 8 32 8 48
c0 47 -32 93 -108 93zM308 508l-106 140l26 23l91 -86l141 86l23 -30z" />
    <glyph glyph-name="Ecircumflex" unicode="&#xca;" horiz-adv-x="588" 
d="M8 0l12 50h83l129 558h-93l12 50h472l-35 -149h-55l23 99h-267l-57 -247h218l-11 -50h-218l-61 -261h267l23 99h55l-34 -149h-463zM286 714l-23 30l175 133l106 -140l-26 -23l-91 86z" />
    <glyph glyph-name="ecircumflex" unicode="&#xea;" horiz-adv-x="470" 
d="M414 196h-318c-1 -9 -1 -18 -1 -27c0 -87 71 -131 142 -131c49 0 84 10 138 39l-12 -54c-44 -22 -80 -31 -135 -31c-97 0 -185 63 -185 176c0 142 111 260 235 260c95 0 153 -60 153 -149c0 -26 -6 -53 -17 -83zM274 381c-74 0 -142 -60 -168 -141h268c5 15 8 32 8 48
c0 47 -32 93 -108 93zM187 504l-23 30l175 133l106 -140l-26 -23l-91 86z" />
    <glyph glyph-name="Edieresis" unicode="&#xcb;" horiz-adv-x="588" 
d="M8 0l12 50h83l129 558h-93l12 50h472l-35 -149h-55l23 99h-267l-57 -247h218l-11 -50h-218l-61 -261h267l23 99h55l-34 -149h-463zM501 735c-28 0 -49 23 -49 51s21 51 49 51s49 -23 49 -51s-21 -51 -49 -51zM341 735c-28 0 -49 23 -49 51s21 51 49 51s49 -23 49 -51
s-21 -51 -49 -51z" />
    <glyph glyph-name="edieresis" unicode="&#xeb;" horiz-adv-x="470" 
d="M414 196h-318c-1 -9 -1 -18 -1 -27c0 -87 71 -131 142 -131c49 0 84 10 138 39l-12 -54c-44 -22 -80 -31 -135 -31c-97 0 -185 63 -185 176c0 142 111 260 235 260c95 0 153 -60 153 -149c0 -26 -6 -53 -17 -83zM274 381c-74 0 -142 -60 -168 -141h268c5 15 8 32 8 48
c0 47 -32 93 -108 93zM401 525c-28 0 -49 23 -49 51s21 51 49 51s49 -23 49 -51s-21 -51 -49 -51zM241 525c-28 0 -49 23 -49 51s21 51 49 51s49 -23 49 -51s-21 -51 -49 -51z" />
    <glyph glyph-name="Edotaccent" unicode="&#x116;" horiz-adv-x="588" 
d="M8 0l12 50h83l129 558h-93l12 50h472l-35 -149h-55l23 99h-267l-57 -247h218l-11 -50h-218l-61 -261h267l23 99h55l-34 -149h-463zM421 733c-29 0 -51 24 -51 53s22 53 51 53s51 -24 51 -53s-22 -53 -51 -53z" />
    <glyph glyph-name="edotaccent" unicode="&#x117;" horiz-adv-x="470" 
d="M414 196h-318c-1 -9 -1 -18 -1 -27c0 -87 71 -131 142 -131c49 0 84 10 138 39l-12 -54c-44 -22 -80 -31 -135 -31c-97 0 -185 63 -185 176c0 142 111 260 235 260c95 0 153 -60 153 -149c0 -26 -6 -53 -17 -83zM274 381c-74 0 -142 -60 -168 -141h268c5 15 8 32 8 48
c0 47 -32 93 -108 93zM321 523c-29 0 -51 24 -51 53s22 53 51 53s51 -24 51 -53s-22 -53 -51 -53z" />
    <glyph glyph-name="Egrave" unicode="&#xc8;" horiz-adv-x="588" 
d="M8 0l12 50h83l129 558h-93l12 50h472l-35 -149h-55l23 99h-267l-57 -247h218l-11 -50h-218l-61 -261h267l23 99h55l-34 -149h-463zM445 714l-118 76c-21 14 -28 27 -28 42c0 20 17 37 37 37c15 0 26 -5 42 -27l83 -112z" />
    <glyph glyph-name="egrave" unicode="&#xe8;" horiz-adv-x="470" 
d="M414 196h-318c-1 -9 -1 -18 -1 -27c0 -87 71 -131 142 -131c49 0 84 10 138 39l-12 -54c-44 -22 -80 -31 -135 -31c-97 0 -185 63 -185 176c0 142 111 260 235 260c95 0 153 -60 153 -149c0 -26 -6 -53 -17 -83zM274 381c-74 0 -142 -60 -168 -141h268c5 15 8 32 8 48
c0 47 -32 93 -108 93zM346 504l-118 76c-21 14 -28 27 -28 42c0 20 17 37 37 37c15 0 26 -5 42 -27l83 -112z" />
    <glyph glyph-name="Emacron" unicode="&#x112;" horiz-adv-x="588" 
d="M8 0l12 50h83l129 558h-93l12 50h472l-35 -149h-55l23 99h-267l-57 -247h218l-11 -50h-218l-61 -261h267l23 99h55l-34 -149h-463zM268 750l13 52h287l-11 -52h-289z" />
    <glyph glyph-name="emacron" unicode="&#x113;" horiz-adv-x="470" 
d="M414 196h-318c-1 -9 -1 -18 -1 -27c0 -87 71 -131 142 -131c49 0 84 10 138 39l-12 -54c-44 -22 -80 -31 -135 -31c-97 0 -185 63 -185 176c0 142 111 260 235 260c95 0 153 -60 153 -149c0 -26 -6 -53 -17 -83zM274 381c-74 0 -142 -60 -168 -141h268c5 15 8 32 8 48
c0 47 -32 93 -108 93zM169 540l13 52h287l-11 -52h-289z" />
    <glyph glyph-name="Eogonek" unicode="&#x118;" horiz-adv-x="588" 
d="M8 0l12 50h83l129 558h-93l12 50h472l-35 -149h-55l23 99h-267l-57 -247h218l-11 -50h-218l-61 -261h267l23 99h55l-34 -149h-42c-47 -34 -86 -75 -86 -116c0 -25 17 -39 46 -39c21 0 36 4 49 9l-9 -42c-10 -6 -28 -13 -55 -13c-53 0 -80 28 -80 70c0 47 36 93 89 131
h-375z" />
    <glyph glyph-name="eogonek" unicode="&#x119;" horiz-adv-x="470" 
d="M262 -201c-53 0 -80 28 -80 70c0 47 35 94 84 126c-12 -2 -24 -3 -38 -3c-97 0 -185 63 -185 176c0 142 111 260 235 260c95 0 153 -60 153 -149c0 -26 -6 -53 -17 -83h-318c-1 -9 -1 -18 -1 -27c0 -87 71 -131 142 -131c49 0 84 10 138 39l-12 -53
c-54 -26 -132 -81 -132 -140c0 -25 17 -39 46 -39c21 0 36 4 49 9l-9 -42c-10 -6 -28 -13 -55 -13zM274 381c-74 0 -142 -60 -168 -141h268c5 15 8 32 8 48c0 47 -32 93 -108 93z" />
    <glyph glyph-name="Eth" unicode="&#xd0;" horiz-adv-x="715" 
d="M8 0l12 50h83l60 262h-86l12 50h86l57 246h-93l12 50h206c131 0 205 -30 267 -92c41 -41 67 -105 67 -176c0 -105 -36 -196 -102 -262c-84 -84 -201 -128 -355 -128h-226zM160 50h85c128 0 229 39 294 104c61 61 91 139 91 233c0 60 -21 113 -53 145
c-47 47 -106 76 -225 76h-63l-57 -246h135l-12 -50h-135z" />
    <glyph glyph-name="eth" unicode="&#xf0;" horiz-adv-x="492" 
d="M206 -7c-106 0 -167 78 -167 171c0 126 101 243 216 243c79 0 126 -40 145 -102c2 26 4 53 4 84c0 79 -23 152 -55 200l-132 -120l-30 33l134 122c-32 33 -66 51 -101 61c-6 -23 -20 -34 -40 -34c-21 0 -40 15 -40 42c0 19 18 41 52 41c49 0 111 -26 163 -79l90 82
l30 -33l-92 -83c38 -54 67 -140 67 -229c0 -157 -29 -267 -99 -337c-37 -37 -86 -62 -145 -62zM210 41c44 0 84 20 114 52c34 36 55 88 55 143c0 75 -50 123 -122 123c-90 0 -164 -91 -164 -195c0 -75 50 -123 117 -123z" />
    <glyph glyph-name="Gbreve" unicode="&#x11e;" horiz-adv-x="720" 
d="M528 0l13 60c-55 -42 -129 -72 -210 -72c-147 0 -257 105 -257 269c0 213 166 413 386 413c82 0 156 -30 195 -67c21 -20 38 -45 38 -77c0 -38 -26 -60 -52 -60c-29 0 -46 17 -46 41c0 18 12 36 33 47c-5 7 -12 15 -21 22c-31 23 -83 43 -150 43
c-201 0 -323 -190 -323 -360c0 -126 74 -221 207 -221c79 0 153 28 212 77l36 147h-191l12 49h246l-74 -311h-54zM480 719c-74 0 -114 57 -124 124l37 13c10 -51 43 -81 95 -81c46 0 90 25 124 80l33 -20c-35 -66 -99 -116 -165 -116z" />
    <glyph glyph-name="gbreve" unicode="&#x11f;" horiz-adv-x="524" 
d="M177 -200c-56 0 -118 24 -140 46c-16 16 -21 29 -21 43c0 26 16 47 43 47s41 -22 41 -44c0 -9 -3 -19 -9 -27c20 -12 49 -21 88 -21c46 0 78 12 106 40c24 24 43 62 55 113l21 90c-36 -58 -93 -87 -151 -87c-91 0 -164 66 -164 174c0 143 106 254 227 254
c79 0 128 -46 140 -109l25 106h52l-101 -435c-14 -60 -33 -103 -66 -136c-37 -37 -85 -54 -146 -54zM220 47c106 0 173 111 173 209c0 77 -44 125 -120 125c-101 0 -171 -97 -171 -206c0 -78 46 -128 118 -128zM336 509c-74 0 -114 57 -124 124l37 13c10 -51 43 -81 95 -81
c46 0 90 25 124 80l33 -20c-35 -66 -99 -116 -165 -116z" />
    <glyph glyph-name="Gcommaaccent" unicode="&#x122;" horiz-adv-x="720" 
d="M528 0l13 60c-55 -42 -129 -72 -210 -72c-147 0 -257 105 -257 269c0 213 166 413 386 413c82 0 156 -30 195 -67c21 -20 38 -45 38 -77c0 -38 -26 -60 -52 -60c-29 0 -46 17 -46 41c0 18 12 36 33 47c-5 7 -12 15 -21 22c-31 23 -83 43 -150 43
c-201 0 -323 -190 -323 -360c0 -126 74 -221 207 -221c79 0 153 28 212 77l36 147h-191l12 49h246l-74 -311h-54zM193 -267l-10 20c67 29 101 78 103 101c-23 5 -36 27 -36 45c0 25 18 45 45 45s49 -22 49 -54c0 -55 -44 -121 -151 -157z" />
    <glyph glyph-name="gcommaaccent" unicode="&#x123;" horiz-adv-x="524" 
d="M177 -200c-56 0 -118 24 -140 46c-16 16 -21 29 -21 43c0 26 16 47 43 47s41 -22 41 -44c0 -9 -3 -19 -9 -27c20 -12 49 -21 88 -21c46 0 78 12 106 40c24 24 43 62 55 113l21 90c-36 -58 -93 -87 -151 -87c-91 0 -164 66 -164 174c0 143 106 254 227 254
c79 0 128 -46 140 -109l25 106h52l-101 -435c-14 -60 -33 -103 -66 -136c-37 -37 -85 -54 -146 -54zM220 47c106 0 173 111 173 209c0 77 -44 125 -120 125c-101 0 -171 -97 -171 -206c0 -78 46 -128 118 -128zM450 742l10 -20c-67 -29 -101 -78 -103 -101
c23 -5 36 -27 36 -45c0 -25 -18 -45 -45 -45s-49 22 -49 54c0 55 44 121 151 157z" />
    <glyph glyph-name="Gdotaccent" unicode="&#x120;" horiz-adv-x="720" 
d="M528 0l13 60c-55 -42 -129 -72 -210 -72c-147 0 -257 105 -257 269c0 213 166 413 386 413c82 0 156 -30 195 -67c21 -20 38 -45 38 -77c0 -38 -26 -60 -52 -60c-29 0 -46 17 -46 41c0 18 12 36 33 47c-5 7 -12 15 -21 22c-31 23 -83 43 -150 43
c-201 0 -323 -190 -323 -360c0 -126 74 -221 207 -221c79 0 153 28 212 77l36 147h-191l12 49h246l-74 -311h-54zM489 733c-29 0 -51 24 -51 53s22 53 51 53s51 -24 51 -53s-22 -53 -51 -53z" />
    <glyph glyph-name="gdotaccent" unicode="&#x121;" horiz-adv-x="524" 
d="M177 -200c-56 0 -118 24 -140 46c-16 16 -21 29 -21 43c0 26 16 47 43 47s41 -22 41 -44c0 -9 -3 -19 -9 -27c20 -12 49 -21 88 -21c46 0 78 12 106 40c24 24 43 62 55 113l21 90c-36 -58 -93 -87 -151 -87c-91 0 -164 66 -164 174c0 143 106 254 227 254
c79 0 128 -46 140 -109l25 106h52l-101 -435c-14 -60 -33 -103 -66 -136c-37 -37 -85 -54 -146 -54zM220 47c106 0 173 111 173 209c0 77 -44 125 -120 125c-101 0 -171 -97 -171 -206c0 -78 46 -128 118 -128zM345 523c-29 0 -51 24 -51 53s22 53 51 53s51 -24 51 -53
s-22 -53 -51 -53z" />
    <glyph glyph-name="Hbar" unicode="&#x126;" horiz-adv-x="776" 
d="M779 516l-11 -48h-73l-96 -418h93l-12 -50h-233l12 50h83l62 263h-383l-61 -263h93l-12 -50h-233l12 50h83l96 418h-69l11 48h69l22 92h-93l12 50h233l-12 -50h-83l-21 -92h382l21 92h-93l12 50h233l-12 -50h-83l-22 -92h73zM233 364h383l23 104h-382z" />
    <glyph glyph-name="hbar" unicode="&#x127;" horiz-adv-x="519" 
d="M35 0l124 531h-78l10 47h79l25 108h-80l11 46h132l-37 -154h160l-10 -47h-161l-48 -204c32 52 82 101 147 101c70 0 121 -47 122 -109c0 -21 -4 -44 -10 -66l-40 -148c-4 -15 -6 -32 -6 -40c0 -20 13 -33 31 -33c22 0 39 20 57 66l31 -10c-19 -59 -48 -94 -94 -94
c-44 0 -77 29 -77 71c0 11 3 30 7 45l40 150c6 22 8 39 8 57c-1 38 -33 66 -76 66c-62 0 -142 -66 -169 -183l-46 -200h-52z" />
    <glyph glyph-name="Iacute" unicode="&#xcd;" horiz-adv-x="349" 
d="M5 0l12 50h93l128 558h-93l12 50h243l-12 -50h-93l-128 -558h93l-12 -50h-243zM251 715l-11 19l166 120c14 11 24 15 38 15c18 0 34 -16 34 -34c0 -22 -16 -35 -37 -43z" />
    <glyph glyph-name="iacute" unicode="&#xed;" horiz-adv-x="282" 
d="M142 -6c-44 0 -76 29 -76 71c0 11 4 31 8 45l74 264h-84l12 46h137l-88 -315c-4 -14 -7 -32 -7 -40c0 -20 13 -33 31 -33c22 0 39 20 58 66l31 -10c-20 -59 -50 -94 -96 -94zM161 505l-11 19l166 120c14 11 24 15 38 15c18 0 34 -16 34 -34c0 -22 -16 -35 -37 -43z" />
    <glyph glyph-name="Ibreve" unicode="&#x12c;" horiz-adv-x="349" 
d="M5 0l12 50h93l128 558h-93l12 50h243l-12 -50h-93l-128 -558h93l-12 -50h-243zM299 719c-74 0 -114 57 -124 124l37 13c10 -51 43 -81 95 -81c46 0 90 25 124 80l33 -20c-35 -66 -99 -116 -165 -116z" />
    <glyph glyph-name="ibreve" unicode="&#x12d;" horiz-adv-x="282" 
d="M142 -6c-44 0 -76 29 -76 71c0 11 4 31 8 45l74 264h-84l12 46h137l-88 -315c-4 -14 -7 -32 -7 -40c0 -20 13 -33 31 -33c22 0 39 20 58 66l31 -10c-20 -59 -50 -94 -96 -94zM209 509c-74 0 -114 57 -124 124l37 13c10 -51 43 -81 95 -81c46 0 90 25 124 80l33 -20
c-35 -66 -99 -116 -165 -116z" />
    <glyph glyph-name="Icircumflex" unicode="&#xce;" horiz-adv-x="349" 
d="M5 0l12 50h93l128 558h-93l12 50h243l-12 -50h-93l-128 -558h93l-12 -50h-243zM173 714l-23 30l175 133l106 -140l-26 -23l-91 86z" />
    <glyph glyph-name="icircumflex" unicode="&#xee;" horiz-adv-x="282" 
d="M142 -6c-44 0 -76 29 -76 71c0 11 4 31 8 45l74 264h-84l12 46h137l-88 -315c-4 -14 -7 -32 -7 -40c0 -20 13 -33 31 -33c22 0 39 20 58 66l31 -10c-20 -59 -50 -94 -96 -94zM83 504l-23 30l175 133l106 -140l-26 -23l-91 86z" />
    <glyph glyph-name="Idieresis" unicode="&#xcf;" horiz-adv-x="349" 
d="M5 0l12 50h93l128 558h-93l12 50h243l-12 -50h-93l-128 -558h93l-12 -50h-243zM388 735c-28 0 -49 23 -49 51s21 51 49 51s49 -23 49 -51s-21 -51 -49 -51zM228 735c-28 0 -49 23 -49 51s21 51 49 51s49 -23 49 -51s-21 -51 -49 -51z" />
    <glyph glyph-name="idieresis" unicode="&#xef;" horiz-adv-x="282" 
d="M142 -6c-44 0 -76 29 -76 71c0 11 4 31 8 45l74 264h-84l12 46h137l-88 -315c-4 -14 -7 -32 -7 -40c0 -20 13 -33 31 -33c22 0 39 20 58 66l31 -10c-20 -59 -50 -94 -96 -94zM297 525c-28 0 -49 23 -49 51s21 51 49 51s49 -23 49 -51s-21 -51 -49 -51zM137 525
c-28 0 -49 23 -49 51s21 51 49 51s49 -23 49 -51s-21 -51 -49 -51z" />
    <glyph glyph-name="Idotaccent" unicode="&#x130;" horiz-adv-x="349" 
d="M5 0l12 50h93l128 558h-93l12 50h243l-12 -50h-93l-128 -558h93l-12 -50h-243zM308 733c-29 0 -51 24 -51 53s22 53 51 53s51 -24 51 -53s-22 -53 -51 -53z" />
    <glyph glyph-name="dotlessi" unicode="&#x131;" horiz-adv-x="282" 
d="M142 -6c-44 0 -76 29 -76 71c0 11 4 31 8 45l74 264h-84l12 46h137l-88 -315c-4 -14 -7 -32 -7 -40c0 -20 13 -33 31 -33c22 0 39 20 58 66l31 -10c-20 -59 -50 -94 -96 -94z" />
    <glyph glyph-name="Igrave" unicode="&#xcc;" horiz-adv-x="349" 
d="M5 0l12 50h93l128 558h-93l12 50h243l-12 -50h-93l-128 -558h93l-12 -50h-243zM332 714l-118 76c-21 14 -28 27 -28 42c0 20 17 37 37 37c15 0 26 -5 42 -27l83 -112z" />
    <glyph glyph-name="igrave" unicode="&#xec;" horiz-adv-x="282" 
d="M142 -6c-44 0 -76 29 -76 71c0 11 4 31 8 45l74 264h-84l12 46h137l-88 -315c-4 -14 -7 -32 -7 -40c0 -20 13 -33 31 -33c22 0 39 20 58 66l31 -10c-20 -59 -50 -94 -96 -94zM242 504l-118 76c-21 14 -28 27 -28 42c0 20 17 37 37 37c15 0 26 -5 42 -27l83 -112z" />
    <glyph glyph-name="Imacron" unicode="&#x12a;" horiz-adv-x="349" 
d="M5 0l12 50h93l128 558h-93l12 50h243l-12 -50h-93l-128 -558h93l-12 -50h-243zM155 750l13 52h287l-11 -52h-289z" />
    <glyph glyph-name="imacron" unicode="&#x12b;" horiz-adv-x="282" 
d="M142 -6c-44 0 -76 29 -76 71c0 11 4 31 8 45l74 264h-84l12 46h137l-88 -315c-4 -14 -7 -32 -7 -40c0 -20 13 -33 31 -33c22 0 39 20 58 66l31 -10c-20 -59 -50 -94 -96 -94zM65 540l13 52h287l-11 -52h-289z" />
    <glyph glyph-name="Iogonek" unicode="&#x12e;" horiz-adv-x="349" 
d="M5 0l12 50h93l128 558h-93l12 50h243l-12 -50h-93l-128 -558h93l-12 -50h-99c-47 -34 -86 -75 -86 -116c0 -25 17 -39 46 -39c21 0 36 4 49 9l-9 -42c-10 -6 -28 -13 -55 -13c-53 0 -80 28 -80 70c0 47 36 93 89 131h-98z" />
    <glyph glyph-name="iogonek" unicode="&#x12f;" horiz-adv-x="282" 
d="M207 98l31 -10c-7 -22 -19 -46 -34 -63c-39 -44 -110 -82 -110 -141c0 -25 17 -39 46 -39c21 0 36 4 49 9l-9 -42c-10 -6 -28 -13 -55 -13c-53 0 -80 28 -80 70c0 46 34 90 84 126c-38 5 -63 32 -63 70c0 11 4 31 8 45l74 264h-84l12 46h137l-88 -315
c-4 -14 -7 -32 -7 -40c0 -20 12 -32 30 -32c22 0 40 19 59 65zM201 512c-24 0 -43 20 -43 44s19 44 43 44c23 0 42 -20 42 -44s-19 -44 -42 -44z" />
    <glyph glyph-name="Kcommaaccent" unicode="&#x136;" horiz-adv-x="652" 
d="M639 608l-275 -232l155 -326h89l-12 -50h-117l-160 340l-115 -98l-44 -192h93l-12 -50h-233l12 50h83l129 558h-93l12 50h233l-12 -50h-83l-69 -299l351 299h-94l11 50h238l-11 -50h-76zM177 -267l-10 20c67 29 101 78 103 101c-23 5 -36 27 -36 45c0 25 18 45 45 45
s49 -22 49 -54c0 -55 -44 -121 -151 -157z" />
    <glyph glyph-name="kcommaaccent" unicode="&#x137;" horiz-adv-x="455" 
d="M87 0h-52l160 686h-80l11 46h132l-123 -525c131 59 205 111 220 137c-13 6 -23 24 -23 37c0 27 19 47 46 47c24 0 44 -18 44 -48c0 -58 -92 -121 -183 -167l46 -116c11 -28 18 -43 26 -52c9 -10 17 -11 26 -11c17 0 34 16 48 77l33 -11c-18 -82 -49 -106 -86 -106
c-21 0 -38 5 -55 20c-13 12 -25 31 -36 58l-49 121l-67 -31zM50 -267l-10 20c67 29 101 78 103 101c-23 5 -36 27 -36 45c0 25 18 45 45 45s49 -22 49 -54c0 -55 -44 -121 -151 -157z" />
    <glyph glyph-name="Lacute" unicode="&#x139;" horiz-adv-x="552" 
d="M8 0l12 50h83l129 558h-93l12 50h238l-12 -50h-88l-129 -558h244l25 104h55l-36 -154h-440zM272 730l-11 19l166 120c14 11 24 15 38 15c18 0 34 -16 34 -34c0 -22 -16 -35 -37 -43z" />
    <glyph glyph-name="lacute" unicode="&#x13a;" horiz-adv-x="265" 
d="M131 -6c-44 0 -76 29 -76 71c0 11 4 27 7 42l135 579h-79l11 46h131l-146 -625c-3 -15 -7 -34 -7 -42c0 -20 13 -33 31 -33c22 0 39 20 58 66l31 -10c-20 -59 -50 -94 -96 -94zM213 775l-11 19l166 120c14 11 24 15 38 15c18 0 34 -16 34 -34c0 -22 -16 -35 -37 -43z" />
    <glyph glyph-name="Lcaron" unicode="&#x13d;" horiz-adv-x="552" 
d="M8 0l12 50h83l129 558h-93l12 50h238l-12 -50h-88l-129 -558h244l25 104h55l-36 -154h-440zM405 444l-15 16c32 35 49 59 59 96c6 22 3 44 6 64c3 22 14 38 38 38c19 0 33 -11 33 -34c0 -27 -11 -55 -31 -86c-23 -35 -58 -68 -90 -94z" />
    <glyph glyph-name="lcaron" unicode="&#x13e;" horiz-adv-x="265" 
d="M131 -6c-44 0 -76 29 -76 71c0 11 4 27 7 42l135 579h-79l11 46h131l-146 -625c-3 -15 -7 -34 -7 -42c0 -20 13 -33 31 -33c22 0 39 20 58 66l31 -10c-20 -59 -50 -94 -96 -94zM263 518l-15 16c32 35 49 59 59 96c6 22 3 44 6 64c3 22 14 38 38 38c19 0 33 -11 33 -34
c0 -27 -11 -55 -31 -86c-23 -35 -58 -68 -90 -94z" />
    <glyph glyph-name="Lcommaaccent" unicode="&#x13b;" horiz-adv-x="552" 
d="M8 0l12 50h83l129 558h-93l12 50h238l-12 -50h-88l-129 -558h244l25 104h55l-36 -154h-440zM106 -267l-10 20c67 29 101 78 103 101c-23 5 -36 27 -36 45c0 25 18 45 45 45s49 -22 49 -54c0 -55 -44 -121 -151 -157z" />
    <glyph glyph-name="lcommaaccent" unicode="&#x13c;" horiz-adv-x="265" 
d="M131 -6c-44 0 -76 29 -76 71c0 11 4 27 7 42l135 579h-79l11 46h131l-146 -625c-3 -15 -7 -34 -7 -42c0 -20 13 -33 31 -33c22 0 39 20 58 66l31 -10c-20 -59 -50 -94 -96 -94zM-7 -267l-10 20c67 29 101 78 103 101c-23 5 -36 27 -36 45c0 25 18 45 45 45s49 -22 49 -54
c0 -55 -44 -121 -151 -157z" />
    <glyph glyph-name="Ldot" unicode="&#x13f;" horiz-adv-x="552" 
d="M8 0l12 50h83l129 558h-93l12 50h238l-12 -50h-88l-129 -558h244l25 104h55l-36 -154h-440zM487 294c-29 0 -51 24 -51 53s22 53 51 53s51 -24 51 -53s-22 -53 -51 -53z" />
    <glyph glyph-name="ldot" unicode="&#x140;" horiz-adv-x="311" 
d="M131 -6c-44 0 -76 29 -76 71c0 11 4 27 7 42l135 579h-79l11 46h131l-146 -625c-3 -15 -7 -34 -7 -42c0 -20 13 -33 31 -33c22 0 39 20 58 66l31 -10c-20 -59 -50 -94 -96 -94zM298 284c-29 0 -51 24 -51 53s22 53 51 53s51 -24 51 -53s-22 -53 -51 -53z" />
    <glyph glyph-name="Lslash" unicode="&#x141;" horiz-adv-x="552" 
d="M8 0l12 50h83l54 234l-95 -32l-16 44l123 42l63 270h-93l12 50h238l-12 -50h-88l-58 -250l123 42l16 -44l-151 -52l-59 -254h244l25 104h55l-36 -154h-440z" />
    <glyph glyph-name="lslash" unicode="&#x142;" horiz-adv-x="295" 
d="M146 -6c-44 0 -76 29 -76 71c0 11 4 27 7 42l62 266l-99 -40l-16 41l127 51l61 261h-79l11 46h131l-66 -281l116 49l16 -41l-144 -61l-68 -291c-3 -15 -7 -34 -7 -42c0 -20 13 -33 31 -33c22 0 39 20 58 66l31 -10c-20 -59 -50 -94 -96 -94z" />
    <glyph glyph-name="Nacute" unicode="&#x143;" horiz-adv-x="760" 
d="M559 -3l-282 569l-119 -516h93l-12 -50h-231l12 50h83l129 558h-93l12 50h141l269 -543l113 493h-93l12 50h227l-12 -50h-80l-141 -611h-28zM453 715l-11 19l166 120c14 11 24 15 38 15c18 0 34 -16 34 -34c0 -22 -16 -35 -37 -43z" />
    <glyph glyph-name="nacute" unicode="&#x144;" horiz-adv-x="531" 
d="M408 -6c-44 0 -76 29 -76 71c0 11 4 32 8 46l43 149c6 22 10 39 10 57c0 38 -30 66 -73 66c-62 0 -141 -65 -171 -183l-50 -200h-52l94 374h-80l12 46h129l-26 -101c41 66 92 109 152 109c70 0 118 -47 118 -109c0 -21 -6 -44 -12 -66l-43 -147c-4 -14 -7 -33 -7 -41
c0 -20 13 -33 31 -33c22 0 39 20 58 66l31 -10c-20 -59 -50 -94 -96 -94zM292 505l-11 19l166 120c14 11 24 15 38 15c18 0 34 -16 34 -34c0 -22 -16 -35 -37 -43z" />
    <glyph glyph-name="Ncaron" unicode="&#x147;" horiz-adv-x="760" 
d="M559 -3l-282 569l-119 -516h93l-12 -50h-231l12 50h83l129 558h-93l12 50h141l269 -543l113 493h-93l12 50h227l-12 -50h-80l-141 -611h-28zM497 718l-106 140l26 23l91 -86l141 86l23 -30z" />
    <glyph glyph-name="ncaron" unicode="&#x148;" horiz-adv-x="531" 
d="M408 -6c-44 0 -76 29 -76 71c0 11 4 32 8 46l43 149c6 22 10 39 10 57c0 38 -30 66 -73 66c-62 0 -141 -65 -171 -183l-50 -200h-52l94 374h-80l12 46h129l-26 -101c41 66 92 109 152 109c70 0 118 -47 118 -109c0 -21 -6 -44 -12 -66l-43 -147c-4 -14 -7 -33 -7 -41
c0 -20 13 -33 31 -33c22 0 39 20 58 66l31 -10c-20 -59 -50 -94 -96 -94zM335 508l-106 140l26 23l91 -86l141 86l23 -30z" />
    <glyph glyph-name="Ncommaaccent" unicode="&#x145;" horiz-adv-x="760" 
d="M559 -3l-282 569l-119 -516h93l-12 -50h-231l12 50h83l129 558h-93l12 50h141l269 -543l113 493h-93l12 50h227l-12 -50h-80l-141 -611h-28zM225 -267l-10 20c67 29 101 78 103 101c-23 5 -36 27 -36 45c0 25 18 45 45 45s49 -22 49 -54c0 -55 -44 -121 -151 -157z" />
    <glyph glyph-name="ncommaaccent" unicode="&#x146;" horiz-adv-x="531" 
d="M408 -6c-44 0 -76 29 -76 71c0 11 4 32 8 46l43 149c6 22 10 39 10 57c0 38 -30 66 -73 66c-62 0 -141 -65 -171 -183l-50 -200h-52l94 374h-80l12 46h129l-26 -101c41 66 92 109 152 109c70 0 118 -47 118 -109c0 -21 -6 -44 -12 -66l-43 -147c-4 -14 -7 -33 -7 -41
c0 -20 13 -33 31 -33c22 0 39 20 58 66l31 -10c-20 -59 -50 -94 -96 -94zM102 -267l-10 20c67 29 101 78 103 101c-23 5 -36 27 -36 45c0 25 18 45 45 45s49 -22 49 -54c0 -55 -44 -121 -151 -157z" />
    <glyph glyph-name="Ntilde" unicode="&#xd1;" horiz-adv-x="760" 
d="M559 -3l-282 569l-119 -516h93l-12 -50h-231l12 50h83l129 558h-93l12 50h141l269 -543l113 493h-93l12 50h227l-12 -50h-80l-141 -611h-28zM561 714c-37 0 -60 19 -80 40c-18 18 -30 27 -48 27c-25 0 -43 -22 -57 -61l-37 12c12 57 56 103 98 103c37 0 60 -19 80 -40
c17 -18 30 -27 48 -27c25 0 43 22 57 61l37 -12c-12 -57 -56 -103 -98 -103z" />
    <glyph glyph-name="ntilde" unicode="&#xf1;" horiz-adv-x="531" 
d="M408 -6c-44 0 -76 29 -76 71c0 11 4 32 8 46l43 149c6 22 10 39 10 57c0 38 -30 66 -73 66c-62 0 -141 -65 -171 -183l-50 -200h-52l94 374h-80l12 46h129l-26 -101c41 66 92 109 152 109c70 0 118 -47 118 -109c0 -21 -6 -44 -12 -66l-43 -147c-4 -14 -7 -33 -7 -41
c0 -20 13 -33 31 -33c22 0 39 20 58 66l31 -10c-20 -59 -50 -94 -96 -94zM400 504c-37 0 -60 19 -80 40c-18 18 -30 27 -48 27c-25 0 -43 -22 -57 -61l-37 12c12 57 56 103 98 103c37 0 60 -19 80 -40c17 -18 30 -27 48 -27c25 0 43 22 57 61l37 -12
c-12 -57 -56 -103 -98 -103z" />
    <glyph glyph-name="Oacute" unicode="&#xd3;" horiz-adv-x="734" 
d="M347 -12c-174 0 -273 123 -273 278c0 197 155 404 367 404c174 0 273 -123 273 -278c0 -197 -155 -404 -367 -404zM352 40c173 0 303 175 303 350c0 122 -68 228 -219 228c-173 0 -303 -175 -303 -350c0 -122 68 -228 219 -228zM443 715l-11 19l166 120
c14 11 24 15 38 15c18 0 34 -16 34 -34c0 -22 -16 -35 -37 -43z" />
    <glyph glyph-name="oacute" unicode="&#xf3;" horiz-adv-x="502" 
d="M220 -8c-111 0 -176 82 -176 180c0 133 103 256 238 256c111 0 176 -82 176 -180c0 -133 -103 -256 -238 -256zM223 39c102 0 182 98 182 210c0 80 -54 132 -126 132c-102 0 -182 -98 -182 -210c0 -80 54 -132 126 -132zM279 505l-11 19l166 120c14 11 24 15 38 15
c18 0 34 -16 34 -34c0 -22 -16 -35 -37 -43z" />
    <glyph glyph-name="Obreve" unicode="&#x14e;" horiz-adv-x="734" 
d="M347 -12c-174 0 -273 123 -273 278c0 197 155 404 367 404c174 0 273 -123 273 -278c0 -197 -155 -404 -367 -404zM352 40c173 0 303 175 303 350c0 122 -68 228 -219 228c-173 0 -303 -175 -303 -350c0 -122 68 -228 219 -228zM491 719c-74 0 -114 57 -124 124l37 13
c10 -51 43 -81 95 -81c46 0 90 25 124 80l33 -20c-35 -66 -99 -116 -165 -116z" />
    <glyph glyph-name="obreve" unicode="&#x14f;" horiz-adv-x="502" 
d="M220 -8c-111 0 -176 82 -176 180c0 133 103 256 238 256c111 0 176 -82 176 -180c0 -133 -103 -256 -238 -256zM223 39c102 0 182 98 182 210c0 80 -54 132 -126 132c-102 0 -182 -98 -182 -210c0 -80 54 -132 126 -132zM327 509c-74 0 -114 57 -124 124l37 13
c10 -51 43 -81 95 -81c46 0 90 25 124 80l33 -20c-35 -66 -99 -116 -165 -116z" />
    <glyph glyph-name="Ocircumflex" unicode="&#xd4;" horiz-adv-x="734" 
d="M347 -12c-174 0 -273 123 -273 278c0 197 155 404 367 404c174 0 273 -123 273 -278c0 -197 -155 -404 -367 -404zM352 40c173 0 303 175 303 350c0 122 -68 228 -219 228c-173 0 -303 -175 -303 -350c0 -122 68 -228 219 -228zM365 714l-23 30l175 133l106 -140l-26 -23
l-91 86z" />
    <glyph glyph-name="ocircumflex" unicode="&#xf4;" horiz-adv-x="502" 
d="M220 -8c-111 0 -176 82 -176 180c0 133 103 256 238 256c111 0 176 -82 176 -180c0 -133 -103 -256 -238 -256zM223 39c102 0 182 98 182 210c0 80 -54 132 -126 132c-102 0 -182 -98 -182 -210c0 -80 54 -132 126 -132zM201 504l-23 30l175 133l106 -140l-26 -23l-91 86
z" />
    <glyph glyph-name="Odieresis" unicode="&#xd6;" horiz-adv-x="734" 
d="M347 -12c-174 0 -273 123 -273 278c0 197 155 404 367 404c174 0 273 -123 273 -278c0 -197 -155 -404 -367 -404zM352 40c173 0 303 175 303 350c0 122 -68 228 -219 228c-173 0 -303 -175 -303 -350c0 -122 68 -228 219 -228zM580 735c-28 0 -49 23 -49 51s21 51 49 51
s49 -23 49 -51s-21 -51 -49 -51zM420 735c-28 0 -49 23 -49 51s21 51 49 51s49 -23 49 -51s-21 -51 -49 -51z" />
    <glyph glyph-name="odieresis" unicode="&#xf6;" horiz-adv-x="502" 
d="M220 -8c-111 0 -176 82 -176 180c0 133 103 256 238 256c111 0 176 -82 176 -180c0 -133 -103 -256 -238 -256zM223 39c102 0 182 98 182 210c0 80 -54 132 -126 132c-102 0 -182 -98 -182 -210c0 -80 54 -132 126 -132zM415 525c-28 0 -49 23 -49 51s21 51 49 51
s49 -23 49 -51s-21 -51 -49 -51zM255 525c-28 0 -49 23 -49 51s21 51 49 51s49 -23 49 -51s-21 -51 -49 -51z" />
    <glyph glyph-name="OE" unicode="&#x152;" horiz-adv-x="934" 
d="M401 0c-131 0 -205 30 -267 92c-41 41 -67 105 -67 176c0 105 36 196 102 262c84 84 201 128 355 128h445l-35 -149h-55l23 99h-267l-57 -247h218l-11 -50h-218l-61 -261h267l23 99h55l-34 -149h-416zM406 50h43l129 558h-65c-128 0 -229 -39 -294 -104
c-61 -61 -91 -139 -91 -233c0 -60 21 -113 53 -145c47 -47 106 -76 225 -76z" />
    <glyph glyph-name="oe" unicode="&#x153;" horiz-adv-x="820" 
d="M725 77l-12 -54c-44 -22 -80 -31 -135 -31c-82 0 -147 49 -167 117c-42 -67 -105 -117 -191 -117c-111 0 -176 82 -176 180c0 133 103 256 238 256c85 0 138 -47 159 -117c38 65 100 117 187 117c95 0 153 -60 153 -149c0 -26 -6 -53 -17 -83h-318c-1 -9 -1 -18 -1 -27
c0 -87 71 -131 142 -131c49 0 84 10 138 39zM223 39c102 0 182 98 182 210c0 80 -54 132 -126 132c-102 0 -182 -98 -182 -210c0 -80 54 -132 126 -132zM624 381c-74 0 -142 -60 -168 -141h268c5 15 8 32 8 48c0 47 -32 93 -108 93z" />
    <glyph glyph-name="Ograve" unicode="&#xd2;" horiz-adv-x="734" 
d="M347 -12c-174 0 -273 123 -273 278c0 197 155 404 367 404c174 0 273 -123 273 -278c0 -197 -155 -404 -367 -404zM352 40c173 0 303 175 303 350c0 122 -68 228 -219 228c-173 0 -303 -175 -303 -350c0 -122 68 -228 219 -228zM524 714l-118 76c-21 14 -28 27 -28 42
c0 20 17 37 37 37c15 0 26 -5 42 -27l83 -112z" />
    <glyph glyph-name="ograve" unicode="&#xf2;" horiz-adv-x="502" 
d="M220 -8c-111 0 -176 82 -176 180c0 133 103 256 238 256c111 0 176 -82 176 -180c0 -133 -103 -256 -238 -256zM223 39c102 0 182 98 182 210c0 80 -54 132 -126 132c-102 0 -182 -98 -182 -210c0 -80 54 -132 126 -132zM360 504l-118 76c-21 14 -28 27 -28 42
c0 20 17 37 37 37c15 0 26 -5 42 -27l83 -112z" />
    <glyph glyph-name="Ohungarumlaut" unicode="&#x150;" horiz-adv-x="734" 
d="M347 -12c-174 0 -273 123 -273 278c0 197 155 404 367 404c174 0 273 -123 273 -278c0 -197 -155 -404 -367 -404zM352 40c173 0 303 175 303 350c0 122 -68 228 -219 228c-173 0 -303 -175 -303 -350c0 -122 68 -228 219 -228zM369 717l-12 19l126 115
c13 12 25 20 38 20c18 0 34 -12 34 -36c0 -12 -14 -28 -35 -39zM548 722l-10 20l134 106c14 11 26 17 37 17c21 0 33 -15 33 -35c0 -15 -13 -30 -38 -40z" />
    <glyph glyph-name="ohungarumlaut" unicode="&#x151;" horiz-adv-x="502" 
d="M220 -8c-111 0 -176 82 -176 180c0 133 103 256 238 256c111 0 176 -82 176 -180c0 -133 -103 -256 -238 -256zM223 39c102 0 182 98 182 210c0 80 -54 132 -126 132c-102 0 -182 -98 -182 -210c0 -80 54 -132 126 -132zM205 507l-12 19l126 115c13 12 25 20 38 20
c18 0 34 -12 34 -36c0 -12 -14 -28 -35 -39zM384 512l-10 20l134 106c14 11 26 17 37 17c21 0 33 -15 33 -35c0 -15 -13 -30 -38 -40z" />
    <glyph glyph-name="Omacron" unicode="&#x14c;" horiz-adv-x="734" 
d="M347 -12c-174 0 -273 123 -273 278c0 197 155 404 367 404c174 0 273 -123 273 -278c0 -197 -155 -404 -367 -404zM352 40c173 0 303 175 303 350c0 122 -68 228 -219 228c-173 0 -303 -175 -303 -350c0 -122 68 -228 219 -228zM347 750l13 52h287l-11 -52h-289z" />
    <glyph glyph-name="omacron" unicode="&#x14d;" horiz-adv-x="502" 
d="M220 -8c-111 0 -176 82 -176 180c0 133 103 256 238 256c111 0 176 -82 176 -180c0 -133 -103 -256 -238 -256zM223 39c102 0 182 98 182 210c0 80 -54 132 -126 132c-102 0 -182 -98 -182 -210c0 -80 54 -132 126 -132zM183 540l13 52h287l-11 -52h-289z" />
    <glyph glyph-name="Oslash" unicode="&#xd8;" horiz-adv-x="734" 
d="M347 -12c-92 0 -163 34 -209 89l-101 -86l-33 40l105 89c-23 42 -35 92 -35 146c0 197 155 404 367 404c91 0 162 -34 209 -89l104 89l34 -39l-109 -93c23 -43 35 -92 35 -146c0 -197 -155 -404 -367 -404zM132 268c0 -40 7 -78 22 -112l454 389c-36 45 -93 74 -172 74
c-174 0 -304 -175 -304 -351zM352 39c174 0 304 175 304 351c0 40 -7 78 -22 111l-454 -388c36 -45 93 -74 172 -74z" />
    <glyph glyph-name="oslash" unicode="&#xf8;" horiz-adv-x="502" 
d="M227 -8c-55 0 -99 20 -130 53l-62 -53l-28 36l64 53c-15 27 -22 59 -22 92c0 134 99 255 236 255c56 0 101 -21 132 -55l63 55l29 -35l-67 -57c13 -27 21 -57 21 -89c0 -135 -101 -255 -236 -255zM102 172c0 -23 3 -44 10 -61l268 230c-22 25 -54 40 -96 40
c-102 0 -182 -94 -182 -209zM228 39c102 0 182 95 182 209c0 21 -3 40 -9 56l-267 -228c21 -24 53 -37 94 -37z" />
    <glyph glyph-name="Oslashacute" unicode="&#x1fe;" horiz-adv-x="734" 
d="M347 -12c-92 0 -163 34 -209 89l-101 -86l-33 40l105 89c-23 42 -35 92 -35 146c0 197 155 404 367 404c91 0 162 -34 209 -89l104 89l34 -39l-109 -93c23 -43 35 -92 35 -146c0 -197 -155 -404 -367 -404zM132 268c0 -40 7 -78 22 -112l454 389c-36 45 -93 74 -172 74
c-174 0 -304 -175 -304 -351zM352 39c174 0 304 175 304 351c0 40 -7 78 -22 111l-454 -388c36 -45 93 -74 172 -74zM445 715l-11 19l166 120c14 11 24 15 38 15c18 0 34 -16 34 -34c0 -22 -16 -35 -37 -43z" />
    <glyph glyph-name="oslashacute" unicode="&#x1ff;" horiz-adv-x="502" 
d="M227 -8c-55 0 -99 20 -130 53l-62 -53l-28 36l64 53c-15 27 -22 59 -22 92c0 134 99 255 236 255c56 0 101 -21 132 -55l63 55l29 -35l-67 -57c13 -27 21 -57 21 -89c0 -135 -101 -255 -236 -255zM102 172c0 -23 3 -44 10 -61l268 230c-22 25 -54 40 -96 40
c-102 0 -182 -94 -182 -209zM228 39c102 0 182 95 182 209c0 21 -3 40 -9 56l-267 -228c21 -24 53 -37 94 -37zM286 505l-11 19l166 120c14 11 24 15 38 15c18 0 34 -16 34 -34c0 -22 -16 -35 -37 -43z" />
    <glyph glyph-name="Otilde" unicode="&#xd5;" horiz-adv-x="734" 
d="M347 -12c-174 0 -273 123 -273 278c0 197 155 404 367 404c174 0 273 -123 273 -278c0 -197 -155 -404 -367 -404zM352 40c173 0 303 175 303 350c0 122 -68 228 -219 228c-173 0 -303 -175 -303 -350c0 -122 68 -228 219 -228zM551 714c-37 0 -60 19 -80 40
c-18 18 -30 27 -48 27c-25 0 -43 -22 -57 -61l-37 12c12 57 56 103 98 103c37 0 60 -19 80 -40c17 -18 30 -27 48 -27c25 0 43 22 57 61l37 -12c-12 -57 -56 -103 -98 -103z" />
    <glyph glyph-name="otilde" unicode="&#xf5;" horiz-adv-x="502" 
d="M220 -8c-111 0 -176 82 -176 180c0 133 103 256 238 256c111 0 176 -82 176 -180c0 -133 -103 -256 -238 -256zM223 39c102 0 182 98 182 210c0 80 -54 132 -126 132c-102 0 -182 -98 -182 -210c0 -80 54 -132 126 -132zM387 504c-37 0 -60 19 -80 40
c-18 18 -30 27 -48 27c-25 0 -43 -22 -57 -61l-37 12c12 57 56 103 98 103c37 0 60 -19 80 -40c17 -18 30 -27 48 -27c25 0 43 22 57 61l37 -12c-12 -57 -56 -103 -98 -103z" />
    <glyph glyph-name="Racute" unicode="&#x154;" horiz-adv-x="602" 
d="M8 0l12 50h83l129 558h-93l12 50h197c85 0 148 -20 188 -60c29 -29 43 -67 43 -112c0 -98 -71 -177 -193 -202l112 -234h77l-12 -50h-105l-130 277c-13 -1 -27 -1 -41 -1c-26 0 -53 1 -74 2l-53 -228h93l-12 -50h-233zM312 326c131 0 210 66 210 158c0 32 -10 59 -32 81
c-29 29 -80 43 -145 43h-56l-65 -280c24 -1 48 -2 88 -2zM362 715l-11 19l166 120c14 11 24 15 38 15c18 0 34 -16 34 -34c0 -22 -16 -35 -37 -43z" />
    <glyph glyph-name="racute" unicode="&#x155;" horiz-adv-x="363" 
d="M47 0l94 374h-80l12 46h129l-28 -114c56 77 103 122 142 122c33 0 51 -19 51 -44c0 -27 -22 -49 -47 -49c-23 0 -39 14 -44 34c-34 -20 -107 -86 -131 -185l-46 -184h-52zM233 505l-11 19l166 120c14 11 24 15 38 15c18 0 34 -16 34 -34c0 -22 -16 -35 -37 -43z" />
    <glyph glyph-name="Rcaron" unicode="&#x158;" horiz-adv-x="602" 
d="M8 0l12 50h83l129 558h-93l12 50h197c85 0 148 -20 188 -60c29 -29 43 -67 43 -112c0 -98 -71 -177 -193 -202l112 -234h77l-12 -50h-105l-130 277c-13 -1 -27 -1 -41 -1c-26 0 -53 1 -74 2l-53 -228h93l-12 -50h-233zM312 326c131 0 210 66 210 158c0 32 -10 59 -32 81
c-29 29 -80 43 -145 43h-56l-65 -280c24 -1 48 -2 88 -2zM405 718l-106 140l26 23l91 -86l141 86l23 -30z" />
    <glyph glyph-name="rcaron" unicode="&#x159;" horiz-adv-x="363" 
d="M47 0l94 374h-80l12 46h129l-28 -114c56 77 103 122 142 122c33 0 51 -19 51 -44c0 -27 -22 -49 -47 -49c-23 0 -39 14 -44 34c-34 -20 -107 -86 -131 -185l-46 -184h-52zM276 508l-106 140l26 23l91 -86l141 86l23 -30z" />
    <glyph glyph-name="Rcommaaccent" unicode="&#x156;" horiz-adv-x="602" 
d="M8 0l12 50h83l129 558h-93l12 50h197c85 0 148 -20 188 -60c29 -29 43 -67 43 -112c0 -98 -71 -177 -193 -202l112 -234h77l-12 -50h-105l-130 277c-13 -1 -27 -1 -41 -1c-26 0 -53 1 -74 2l-53 -228h93l-12 -50h-233zM312 326c131 0 210 66 210 158c0 32 -10 59 -32 81
c-29 29 -80 43 -145 43h-56l-65 -280c24 -1 48 -2 88 -2zM153 -267l-10 20c67 29 101 78 103 101c-23 5 -36 27 -36 45c0 25 18 45 45 45s49 -22 49 -54c0 -55 -44 -121 -151 -157z" />
    <glyph glyph-name="rcommaaccent" unicode="&#x157;" horiz-adv-x="363" 
d="M47 0l94 374h-80l12 46h129l-28 -114c56 77 103 122 142 122c33 0 51 -19 51 -44c0 -27 -22 -49 -47 -49c-23 0 -39 14 -44 34c-34 -20 -107 -86 -131 -185l-46 -184h-52zM-47 -267l-10 20c67 29 101 78 103 101c-23 5 -36 27 -36 45c0 25 18 45 45 45s49 -22 49 -54
c0 -55 -44 -121 -151 -157z" />
    <glyph glyph-name="Sacute" unicode="&#x15a;" horiz-adv-x="544" 
d="M265 -12c-132 0 -223 81 -223 143c0 36 23 60 53 60c26 0 44 -22 44 -40c0 -22 -12 -39 -31 -50c20 -30 74 -63 161 -63c79 0 152 54 152 129c0 63 -53 101 -113 138c-84 52 -154 98 -154 189c0 95 88 176 204 176c103 0 192 -60 192 -126c0 -38 -26 -58 -50 -58
c-26 0 -44 19 -44 43c0 14 9 31 29 43c-20 22 -64 48 -131 48c-83 0 -143 -52 -143 -122c0 -63 47 -95 125 -143c73 -45 142 -93 142 -184c0 -107 -97 -183 -213 -183zM358 715l-11 19l166 120c14 11 24 15 38 15c18 0 34 -16 34 -34c0 -22 -16 -35 -37 -43z" />
    <glyph glyph-name="sacute" unicode="&#x15b;" horiz-adv-x="410" 
d="M198 -8c-57 0 -114 23 -145 55c-15 15 -23 32 -23 49c0 24 17 47 42 47s37 -18 37 -36c0 -14 -5 -23 -16 -35c4 -5 10 -9 18 -14c21 -12 54 -22 91 -22c50 0 89 27 89 69s-40 64 -85 86c-64 32 -118 60 -118 121c0 67 58 116 145 116c53 0 99 -18 125 -44
c15 -14 23 -31 23 -49c0 -28 -19 -46 -40 -46c-22 0 -38 15 -38 36c0 11 4 23 13 35c-2 2 -6 6 -17 11c-15 7 -41 13 -70 13c-56 0 -89 -29 -89 -64c0 -36 38 -57 88 -82c61 -30 115 -61 115 -125c0 -79 -70 -121 -145 -121zM243 505l-11 19l166 120c14 11 24 15 38 15
c18 0 34 -16 34 -34c0 -22 -16 -35 -37 -43z" />
    <glyph glyph-name="Scaron" unicode="&#x160;" horiz-adv-x="544" 
d="M265 -12c-132 0 -223 81 -223 143c0 36 23 60 53 60c26 0 44 -22 44 -40c0 -22 -12 -39 -31 -50c20 -30 74 -63 161 -63c79 0 152 54 152 129c0 63 -53 101 -113 138c-84 52 -154 98 -154 189c0 95 88 176 204 176c103 0 192 -60 192 -126c0 -38 -26 -58 -50 -58
c-26 0 -44 19 -44 43c0 14 9 31 29 43c-20 22 -64 48 -131 48c-83 0 -143 -52 -143 -122c0 -63 47 -95 125 -143c73 -45 142 -93 142 -184c0 -107 -97 -183 -213 -183zM401 718l-106 140l26 23l91 -86l141 86l23 -30z" />
    <glyph glyph-name="scaron" unicode="&#x161;" horiz-adv-x="410" 
d="M198 -8c-57 0 -114 23 -145 55c-15 15 -23 32 -23 49c0 24 17 47 42 47s37 -18 37 -36c0 -14 -5 -23 -16 -35c4 -5 10 -9 18 -14c21 -12 54 -22 91 -22c50 0 89 27 89 69s-40 64 -85 86c-64 32 -118 60 -118 121c0 67 58 116 145 116c53 0 99 -18 125 -44
c15 -14 23 -31 23 -49c0 -28 -19 -46 -40 -46c-22 0 -38 15 -38 36c0 11 4 23 13 35c-2 2 -6 6 -17 11c-15 7 -41 13 -70 13c-56 0 -89 -29 -89 -64c0 -36 38 -57 88 -82c61 -30 115 -61 115 -125c0 -79 -70 -121 -145 -121zM286 508l-106 140l26 23l91 -86l141 86l23 -30z
" />
    <glyph glyph-name="Scedilla" unicode="&#x15e;" horiz-adv-x="544" 
d="M241 -199c-47 0 -93 24 -115 42l20 28c18 -13 60 -28 92 -28c30 0 45 14 45 34c0 18 -23 36 -64 29l-14 14l37 69c-120 9 -200 83 -200 142c0 36 23 60 53 60c26 0 44 -22 44 -40c0 -22 -12 -39 -31 -50c20 -30 74 -63 161 -63c79 0 152 54 152 129
c0 63 -53 101 -113 138c-84 52 -154 98 -154 189c0 95 88 176 204 176c103 0 192 -60 192 -126c0 -38 -26 -58 -50 -58c-26 0 -44 19 -44 43c0 14 9 31 29 43c-20 22 -64 48 -131 48c-83 0 -143 -52 -143 -122c0 -63 47 -95 125 -143c73 -45 142 -93 142 -184
c0 -103 -89 -176 -199 -182l-15 -42c50 -6 72 -38 72 -67c0 -51 -46 -79 -95 -79z" />
    <glyph glyph-name="scedilla" unicode="&#x15f;" horiz-adv-x="410" 
d="M155 -199c-47 0 -93 24 -115 42l20 28c18 -13 60 -28 92 -28c30 0 45 14 45 34c0 18 -23 36 -64 29l-14 14l40 76c-43 7 -82 26 -106 51c-15 15 -23 32 -23 49c0 24 17 47 42 47s37 -18 37 -36c0 -14 -5 -23 -16 -35c4 -5 10 -9 18 -14c21 -12 54 -22 91 -22
c50 0 89 27 89 69s-40 64 -85 86c-64 32 -118 60 -118 121c0 67 58 116 145 116c53 0 99 -18 125 -44c15 -14 23 -31 23 -49c0 -28 -19 -46 -40 -46c-22 0 -38 15 -38 36c0 11 4 23 13 35c-2 2 -6 6 -17 11c-15 7 -41 13 -70 13c-56 0 -89 -29 -89 -64c0 -36 38 -57 88 -82
c61 -30 115 -61 115 -125c0 -79 -70 -121 -145 -121h-3l-17 -45c50 -6 72 -38 72 -67c0 -51 -46 -79 -95 -79z" />
    <glyph glyph-name="Scommaaccent" unicode="&#x218;" horiz-adv-x="544" 
d="M265 -12c-132 0 -223 81 -223 143c0 36 23 60 53 60c26 0 44 -22 44 -40c0 -22 -12 -39 -31 -50c20 -30 74 -63 161 -63c79 0 152 54 152 129c0 63 -53 101 -113 138c-84 52 -154 98 -154 189c0 95 88 176 204 176c103 0 192 -60 192 -126c0 -38 -26 -58 -50 -58
c-26 0 -44 19 -44 43c0 14 9 31 29 43c-20 22 -64 48 -131 48c-83 0 -143 -52 -143 -122c0 -63 47 -95 125 -143c73 -45 142 -93 142 -184c0 -107 -97 -183 -213 -183zM116 -267l-10 20c67 29 101 78 103 101c-23 5 -36 27 -36 45c0 25 18 45 45 45s49 -22 49 -54
c0 -55 -44 -121 -151 -157z" />
    <glyph glyph-name="scommaaccent" unicode="&#x219;" horiz-adv-x="410" 
d="M198 -8c-57 0 -114 23 -145 55c-15 15 -23 32 -23 49c0 24 17 47 42 47s37 -18 37 -36c0 -14 -5 -23 -16 -35c4 -5 10 -9 18 -14c21 -12 54 -22 91 -22c50 0 89 27 89 69s-40 64 -85 86c-64 32 -118 60 -118 121c0 67 58 116 145 116c53 0 99 -18 125 -44
c15 -14 23 -31 23 -49c0 -28 -19 -46 -40 -46c-22 0 -38 15 -38 36c0 11 4 23 13 35c-2 2 -6 6 -17 11c-15 7 -41 13 -70 13c-56 0 -89 -29 -89 -64c0 -36 38 -57 88 -82c61 -30 115 -61 115 -125c0 -79 -70 -121 -145 -121zM53 -267l-10 20c67 29 101 78 103 101
c-23 5 -36 27 -36 45c0 25 18 45 45 45s49 -22 49 -54c0 -55 -44 -121 -151 -157z" />
    <glyph glyph-name="Tcaron" unicode="&#x164;" horiz-adv-x="633" 
d="M152 0l12 50h88l128 558h-183l-24 -104h-55l36 154h533l-36 -154h-55l24 104h-183l-128 -558h98l-12 -50h-243zM436 718l-106 140l26 23l91 -86l141 86l23 -30z" />
    <glyph glyph-name="tcaron" unicode="&#x165;" horiz-adv-x="324" 
d="M321 374h-129l-66 -269c-3 -13 -5 -24 -5 -36c0 -14 12 -31 35 -31s50 15 91 42l22 -31c-49 -36 -85 -57 -124 -57c-47 0 -79 30 -79 70c0 12 3 27 7 44l67 268h-74l12 46h73l26 103l56 16l-30 -119h130zM272 465l-15 16c32 35 49 59 59 96c6 22 3 44 6 64
c3 22 14 38 38 38c19 0 33 -11 33 -34c0 -27 -11 -55 -31 -86c-23 -35 -58 -68 -90 -94z" />
    <glyph glyph-name="Tcommaaccent" unicode="&#x162;" horiz-adv-x="633" 
d="M152 0l12 50h88l128 558h-183l-24 -104h-55l36 154h533l-36 -154h-55l24 104h-183l-128 -558h98l-12 -50h-243zM154 -267l-10 20c67 29 101 78 103 101c-23 5 -36 27 -36 45c0 25 18 45 45 45s49 -22 49 -54c0 -55 -44 -121 -151 -157z" />
    <glyph glyph-name="tcommaaccent" unicode="&#x163;" horiz-adv-x="324" 
d="M321 374h-129l-66 -269c-3 -13 -5 -24 -5 -36c0 -14 12 -31 35 -31s50 15 91 42l22 -31c-49 -36 -85 -57 -124 -57c-47 0 -79 30 -79 70c0 12 3 27 7 44l67 268h-74l12 46h73l26 103l56 16l-30 -119h130zM24 -267l-10 20c67 29 101 78 103 101c-23 5 -36 27 -36 45
c0 25 18 45 45 45s49 -22 49 -54c0 -55 -44 -121 -151 -157z" />
    <glyph glyph-name="Thorn" unicode="&#xde;" horiz-adv-x="570" 
d="M8 0l12 50h83l129 558h-93l12 50h233l-12 -50h-83l-18 -79h52c87 0 147 -20 184 -56c30 -29 44 -69 44 -116c0 -127 -100 -220 -268 -220c-38 0 -80 1 -102 2l-21 -89h93l-12 -50h-233zM292 187c136 0 202 71 202 168c0 32 -9 61 -31 82c-27 27 -74 42 -143 42h-61
l-66 -290c24 -1 59 -2 99 -2z" />
    <glyph glyph-name="thorn" unicode="&#xfe;" horiz-adv-x="524" 
d="M-77 -196l11 46h65l199 836h-80l11 46h133l-93 -389c32 46 78 85 147 85c91 0 162 -69 162 -177c0 -147 -109 -260 -224 -260c-67 0 -128 37 -145 101l-57 -242h92l-11 -46h-210zM253 38c99 0 169 103 169 207c0 83 -43 136 -115 136c-100 0 -179 -119 -179 -217
c0 -73 47 -126 125 -126z" />
    <glyph glyph-name="Uacute" unicode="&#xda;" horiz-adv-x="724" 
d="M342 -12c-139 0 -212 78 -212 190c0 22 3 47 9 72l83 358h-93l12 50h233l-12 -50h-83l-83 -361c-5 -23 -8 -46 -8 -67c0 -82 44 -142 159 -142c110 0 172 76 194 174l90 396h-93l12 50h233l-12 -50h-83l-93 -405c-28 -124 -107 -215 -253 -215zM429 715l-11 19l166 120
c14 11 24 15 38 15c18 0 34 -16 34 -34c0 -22 -16 -35 -37 -43z" />
    <glyph glyph-name="uacute" unicode="&#xfa;" horiz-adv-x="531" 
d="M68 420h132l-71 -272c-4 -15 -7 -33 -7 -51c0 -34 27 -60 70 -60c62 0 142 67 171 183l50 200h52l-79 -315c-4 -16 -7 -32 -7 -40c0 -20 13 -33 31 -33c22 0 39 20 58 66l31 -10c-20 -59 -50 -94 -96 -94c-43 0 -72 27 -72 71c0 10 2 22 5 36c-37 -61 -88 -109 -152 -109
c-67 0 -115 41 -115 103c0 21 5 41 9 57l58 222h-80zM286 505l-11 19l166 120c14 11 24 15 38 15c18 0 34 -16 34 -34c0 -22 -16 -35 -37 -43z" />
    <glyph glyph-name="Ubreve" unicode="&#x16c;" horiz-adv-x="724" 
d="M342 -12c-139 0 -212 78 -212 190c0 22 3 47 9 72l83 358h-93l12 50h233l-12 -50h-83l-83 -361c-5 -23 -8 -46 -8 -67c0 -82 44 -142 159 -142c110 0 172 76 194 174l90 396h-93l12 50h233l-12 -50h-83l-93 -405c-28 -124 -107 -215 -253 -215zM477 719
c-74 0 -114 57 -124 124l37 13c10 -51 43 -81 95 -81c46 0 90 25 124 80l33 -20c-35 -66 -99 -116 -165 -116z" />
    <glyph glyph-name="ubreve" unicode="&#x16d;" horiz-adv-x="531" 
d="M68 420h132l-71 -272c-4 -15 -7 -33 -7 -51c0 -34 27 -60 70 -60c62 0 142 67 171 183l50 200h52l-79 -315c-4 -16 -7 -32 -7 -40c0 -20 13 -33 31 -33c22 0 39 20 58 66l31 -10c-20 -59 -50 -94 -96 -94c-43 0 -72 27 -72 71c0 10 2 22 5 36c-37 -61 -88 -109 -152 -109
c-67 0 -115 41 -115 103c0 21 5 41 9 57l58 222h-80zM334 509c-74 0 -114 57 -124 124l37 13c10 -51 43 -81 95 -81c46 0 90 25 124 80l33 -20c-35 -66 -99 -116 -165 -116z" />
    <glyph glyph-name="Ucircumflex" unicode="&#xdb;" horiz-adv-x="724" 
d="M342 -12c-139 0 -212 78 -212 190c0 22 3 47 9 72l83 358h-93l12 50h233l-12 -50h-83l-83 -361c-5 -23 -8 -46 -8 -67c0 -82 44 -142 159 -142c110 0 172 76 194 174l90 396h-93l12 50h233l-12 -50h-83l-93 -405c-28 -124 -107 -215 -253 -215zM352 714l-23 30l175 133
l106 -140l-26 -23l-91 86z" />
    <glyph glyph-name="ucircumflex" unicode="&#xfb;" horiz-adv-x="531" 
d="M68 420h132l-71 -272c-4 -15 -7 -33 -7 -51c0 -34 27 -60 70 -60c62 0 142 67 171 183l50 200h52l-79 -315c-4 -16 -7 -32 -7 -40c0 -20 13 -33 31 -33c22 0 39 20 58 66l31 -10c-20 -59 -50 -94 -96 -94c-43 0 -72 27 -72 71c0 10 2 22 5 36c-37 -61 -88 -109 -152 -109
c-67 0 -115 41 -115 103c0 21 5 41 9 57l58 222h-80zM208 504l-23 30l175 133l106 -140l-26 -23l-91 86z" />
    <glyph glyph-name="Udieresis" unicode="&#xdc;" horiz-adv-x="724" 
d="M342 -12c-139 0 -212 78 -212 190c0 22 3 47 9 72l83 358h-93l12 50h233l-12 -50h-83l-83 -361c-5 -23 -8 -46 -8 -67c0 -82 44 -142 159 -142c110 0 172 76 194 174l90 396h-93l12 50h233l-12 -50h-83l-93 -405c-28 -124 -107 -215 -253 -215zM566 735
c-28 0 -49 23 -49 51s21 51 49 51s49 -23 49 -51s-21 -51 -49 -51zM406 735c-28 0 -49 23 -49 51s21 51 49 51s49 -23 49 -51s-21 -51 -49 -51z" />
    <glyph glyph-name="udieresis" unicode="&#xfc;" horiz-adv-x="531" 
d="M68 420h132l-71 -272c-4 -15 -7 -33 -7 -51c0 -34 27 -60 70 -60c62 0 142 67 171 183l50 200h52l-79 -315c-4 -16 -7 -32 -7 -40c0 -20 13 -33 31 -33c22 0 39 20 58 66l31 -10c-20 -59 -50 -94 -96 -94c-43 0 -72 27 -72 71c0 10 2 22 5 36c-37 -61 -88 -109 -152 -109
c-67 0 -115 41 -115 103c0 21 5 41 9 57l58 222h-80zM262 525c-28 0 -49 23 -49 51s21 51 49 51s49 -23 49 -51s-21 -51 -49 -51zM422 525c-28 0 -49 23 -49 51s21 51 49 51s49 -23 49 -51s-21 -51 -49 -51z" />
    <glyph glyph-name="Ugrave" unicode="&#xd9;" horiz-adv-x="724" 
d="M342 -12c-139 0 -212 78 -212 190c0 22 3 47 9 72l83 358h-93l12 50h233l-12 -50h-83l-83 -361c-5 -23 -8 -46 -8 -67c0 -82 44 -142 159 -142c110 0 172 76 194 174l90 396h-93l12 50h233l-12 -50h-83l-93 -405c-28 -124 -107 -215 -253 -215zM510 714l-118 76
c-21 14 -28 27 -28 42c0 20 17 37 37 37c15 0 26 -5 42 -27l83 -112z" />
    <glyph glyph-name="ugrave" unicode="&#xf9;" horiz-adv-x="531" 
d="M68 420h132l-71 -272c-4 -15 -7 -33 -7 -51c0 -34 27 -60 70 -60c62 0 142 67 171 183l50 200h52l-79 -315c-4 -16 -7 -32 -7 -40c0 -20 13 -33 31 -33c22 0 39 20 58 66l31 -10c-20 -59 -50 -94 -96 -94c-43 0 -72 27 -72 71c0 10 2 22 5 36c-37 -61 -88 -109 -152 -109
c-67 0 -115 41 -115 103c0 21 5 41 9 57l58 222h-80zM367 504l-118 76c-21 14 -28 27 -28 42c0 20 17 37 37 37c15 0 26 -5 42 -27l83 -112z" />
    <glyph glyph-name="Uhungarumlaut" unicode="&#x170;" horiz-adv-x="724" 
d="M342 -12c-139 0 -212 78 -212 190c0 22 3 47 9 72l83 358h-93l12 50h233l-12 -50h-83l-83 -361c-5 -23 -8 -46 -8 -67c0 -82 44 -142 159 -142c110 0 172 76 194 174l90 396h-93l12 50h233l-12 -50h-83l-93 -405c-28 -124 -107 -215 -253 -215zM356 717l-12 19l126 115
c13 12 25 20 38 20c18 0 34 -12 34 -36c0 -12 -14 -28 -35 -39zM535 722l-10 20l134 106c14 11 26 17 37 17c21 0 33 -15 33 -35c0 -15 -13 -30 -38 -40z" />
    <glyph glyph-name="uhungarumlaut" unicode="&#x171;" horiz-adv-x="531" 
d="M68 420h132l-71 -272c-4 -15 -7 -33 -7 -51c0 -34 27 -60 70 -60c62 0 142 67 171 183l50 200h52l-79 -315c-4 -16 -7 -32 -7 -40c0 -20 13 -33 31 -33c22 0 39 20 58 66l31 -10c-20 -59 -50 -94 -96 -94c-43 0 -72 27 -72 71c0 10 2 22 5 36c-37 -61 -88 -109 -152 -109
c-67 0 -115 41 -115 103c0 21 5 41 9 57l58 222h-80zM212 507l-12 19l126 115c13 12 25 20 38 20c18 0 34 -12 34 -36c0 -12 -14 -28 -35 -39zM391 512l-10 20l134 106c14 11 26 17 37 17c21 0 33 -15 33 -35c0 -15 -13 -30 -38 -40z" />
    <glyph glyph-name="Umacron" unicode="&#x16a;" horiz-adv-x="724" 
d="M342 -12c-139 0 -212 78 -212 190c0 22 3 47 9 72l83 358h-93l12 50h233l-12 -50h-83l-83 -361c-5 -23 -8 -46 -8 -67c0 -82 44 -142 159 -142c110 0 172 76 194 174l90 396h-93l12 50h233l-12 -50h-83l-93 -405c-28 -124 -107 -215 -253 -215zM334 750l13 52h287
l-11 -52h-289z" />
    <glyph glyph-name="umacron" unicode="&#x16b;" horiz-adv-x="531" 
d="M68 420h132l-71 -272c-4 -15 -7 -33 -7 -51c0 -34 27 -60 70 -60c62 0 142 67 171 183l50 200h52l-79 -315c-4 -16 -7 -32 -7 -40c0 -20 13 -33 31 -33c22 0 39 20 58 66l31 -10c-20 -59 -50 -94 -96 -94c-43 0 -72 27 -72 71c0 10 2 22 5 36c-37 -61 -88 -109 -152 -109
c-67 0 -115 41 -115 103c0 21 5 41 9 57l58 222h-80zM190 540l13 52h287l-11 -52h-289z" />
    <glyph glyph-name="Uogonek" unicode="&#x172;" horiz-adv-x="724" 
d="M248 -131c0 43 29 84 74 120c-126 7 -192 82 -192 189c0 22 3 47 9 72l83 358h-93l12 50h233l-12 -50h-83l-83 -361c-5 -23 -8 -46 -8 -67c0 -82 44 -142 159 -142c110 0 172 76 194 174l90 396h-93l12 50h233l-12 -50h-83l-93 -405c-27 -117 -98 -203 -227 -214
c-40 -32 -71 -68 -71 -105c0 -25 17 -39 46 -39c21 0 36 4 49 9l-9 -42c-10 -6 -28 -13 -55 -13c-53 0 -80 28 -80 70z" />
    <glyph glyph-name="uogonek" unicode="&#x173;" horiz-adv-x="531" 
d="M468 98l31 -10c-7 -22 -19 -46 -34 -63c-39 -44 -110 -82 -110 -141c0 -25 17 -39 46 -39c21 0 36 4 49 9l-9 -42c-10 -6 -28 -13 -55 -13c-53 0 -80 28 -80 70c0 46 34 90 84 126c-36 5 -59 31 -59 70c0 10 2 22 5 35c-36 -60 -88 -107 -151 -107
c-67 0 -115 41 -115 103c0 21 4 40 8 56l58 222h-80l12 46h132l-71 -272c-4 -15 -6 -32 -6 -50c0 -34 27 -60 70 -60c62 0 141 66 170 182l50 200h52l-79 -315c-4 -16 -7 -32 -7 -40c0 -20 12 -32 30 -32c22 0 40 19 59 65z" />
    <glyph glyph-name="Uring" unicode="&#x16e;" horiz-adv-x="724" 
d="M342 -12c-139 0 -212 78 -212 190c0 22 3 47 9 72l83 358h-93l12 50h233l-12 -50h-83l-83 -361c-5 -23 -8 -46 -8 -67c0 -82 44 -142 159 -142c110 0 172 76 194 174l90 396h-93l12 50h233l-12 -50h-83l-93 -405c-28 -124 -107 -215 -253 -215zM478 707
c-52 0 -82 37 -82 85c0 63 46 119 109 119c52 0 82 -37 82 -85c0 -63 -46 -119 -109 -119zM482 746c37 0 65 35 65 76c0 28 -19 50 -46 50c-37 0 -65 -35 -65 -76c0 -28 19 -50 46 -50z" />
    <glyph glyph-name="uring" unicode="&#x16f;" horiz-adv-x="531" 
d="M68 420h132l-71 -272c-4 -15 -7 -33 -7 -51c0 -34 27 -60 70 -60c62 0 142 67 171 183l50 200h52l-79 -315c-4 -16 -7 -32 -7 -40c0 -20 13 -33 31 -33c22 0 39 20 58 66l31 -10c-20 -59 -50 -94 -96 -94c-43 0 -72 27 -72 71c0 10 2 22 5 36c-37 -61 -88 -109 -152 -109
c-67 0 -115 41 -115 103c0 21 5 41 9 57l58 222h-80zM335 497c-52 0 -82 37 -82 85c0 63 46 119 109 119c52 0 82 -37 82 -85c0 -63 -46 -119 -109 -119zM339 536c37 0 65 35 65 76c0 28 -19 50 -46 50c-37 0 -65 -35 -65 -76c0 -28 19 -50 46 -50z" />
    <glyph glyph-name="Wacute" unicode="&#x1e82;" horiz-adv-x="929" 
d="M209 -11l-22 619h-70l12 50h202l-12 -50h-82l14 -516l273 481h24l55 -482l272 517h-80l12 50h201l-12 -50h-66l-329 -619h-32l-58 467l-270 -467h-32zM532 715l-11 19l166 120c14 11 24 15 38 15c18 0 34 -16 34 -34c0 -22 -16 -35 -37 -43z" />
    <glyph glyph-name="wacute" unicode="&#x1e83;" horiz-adv-x="650" 
d="M140 -17l-34 391h-77l12 46h110l25 -340l172 285h16l67 -298c67 99 123 198 131 268c-21 4 -41 19 -41 46c0 26 19 47 46 47s49 -21 49 -54c0 -86 -75 -225 -193 -391h-18l-64 294l-182 -294h-19zM353 505l-11 19l166 120c14 11 24 15 38 15c18 0 34 -16 34 -34
c0 -22 -16 -35 -37 -43z" />
    <glyph glyph-name="Wcircumflex" unicode="&#x174;" horiz-adv-x="929" 
d="M209 -11l-22 619h-70l12 50h202l-12 -50h-82l14 -516l273 481h24l55 -482l272 517h-80l12 50h201l-12 -50h-66l-329 -619h-32l-58 467l-270 -467h-32zM455 714l-23 30l175 133l106 -140l-26 -23l-91 86z" />
    <glyph glyph-name="wcircumflex" unicode="&#x175;" horiz-adv-x="650" 
d="M140 -17l-34 391h-77l12 46h110l25 -340l172 285h16l67 -298c67 99 123 198 131 268c-21 4 -41 19 -41 46c0 26 19 47 46 47s49 -21 49 -54c0 -86 -75 -225 -193 -391h-18l-64 294l-182 -294h-19zM275 504l-23 30l175 133l106 -140l-26 -23l-91 86z" />
    <glyph glyph-name="Wdieresis" unicode="&#x1e84;" horiz-adv-x="929" 
d="M209 -11l-22 619h-70l12 50h202l-12 -50h-82l14 -516l273 481h24l55 -482l272 517h-80l12 50h201l-12 -50h-66l-329 -619h-32l-58 467l-270 -467h-32zM669 735c-28 0 -49 23 -49 51s21 51 49 51s49 -23 49 -51s-21 -51 -49 -51zM509 735c-28 0 -49 23 -49 51s21 51 49 51
s49 -23 49 -51s-21 -51 -49 -51z" />
    <glyph glyph-name="wdieresis" unicode="&#x1e85;" horiz-adv-x="650" 
d="M140 -17l-34 391h-77l12 46h110l25 -340l172 285h16l67 -298c67 99 123 198 131 268c-21 4 -41 19 -41 46c0 26 19 47 46 47s49 -21 49 -54c0 -86 -75 -225 -193 -391h-18l-64 294l-182 -294h-19zM330 525c-28 0 -49 23 -49 51s21 51 49 51s49 -23 49 -51
s-21 -51 -49 -51zM490 525c-28 0 -49 23 -49 51s21 51 49 51s49 -23 49 -51s-21 -51 -49 -51z" />
    <glyph glyph-name="Wgrave" unicode="&#x1e80;" horiz-adv-x="929" 
d="M209 -11l-22 619h-70l12 50h202l-12 -50h-82l14 -516l273 481h24l55 -482l272 517h-80l12 50h201l-12 -50h-66l-329 -619h-32l-58 467l-270 -467h-32zM613 714l-118 76c-21 14 -28 27 -28 42c0 20 17 37 37 37c15 0 26 -5 42 -27l83 -112z" />
    <glyph glyph-name="wgrave" unicode="&#x1e81;" horiz-adv-x="650" 
d="M140 -17l-34 391h-77l12 46h110l25 -340l172 285h16l67 -298c67 99 123 198 131 268c-21 4 -41 19 -41 46c0 26 19 47 46 47s49 -21 49 -54c0 -86 -75 -225 -193 -391h-18l-64 294l-182 -294h-19zM434 504l-118 76c-21 14 -28 27 -28 42c0 20 17 37 37 37
c15 0 26 -5 42 -27l83 -112z" />
    <glyph glyph-name="Yacute" unicode="&#xdd;" horiz-adv-x="623" 
d="M122 0l13 50h96l54 219l-114 339h-72l13 50h208l-11 -50h-79l95 -293l239 293h-75l13 50h208l-11 -50h-69l-292 -349l-49 -209h96l-11 -50h-252zM376 715l-11 19l166 120c14 11 24 15 38 15c18 0 34 -16 34 -34c0 -22 -16 -35 -37 -43z" />
    <glyph glyph-name="yacute" unicode="&#xfd;" horiz-adv-x="474" 
d="M-18 -200c-30 0 -60 21 -60 50c0 23 17 45 42 45s40 -18 42 -46h5c24 0 78 38 171 152l-75 373h-78l11 46h114l67 -369c80 104 160 217 174 284c-20 6 -41 23 -41 50c0 22 19 43 45 43c27 0 49 -20 49 -59c0 -73 -61 -171 -215 -367c-126 -161 -192 -202 -251 -202z
M263 505l-11 19l166 120c14 11 24 15 38 15c18 0 34 -16 34 -34c0 -22 -16 -35 -37 -43z" />
    <glyph glyph-name="Ycircumflex" unicode="&#x176;" horiz-adv-x="623" 
d="M122 0l13 50h96l54 219l-114 339h-72l13 50h208l-11 -50h-79l95 -293l239 293h-75l13 50h208l-11 -50h-69l-292 -349l-49 -209h96l-11 -50h-252zM298 714l-23 30l175 133l106 -140l-26 -23l-91 86z" />
    <glyph glyph-name="ycircumflex" unicode="&#x177;" horiz-adv-x="474" 
d="M-18 -200c-30 0 -60 21 -60 50c0 23 17 45 42 45s40 -18 42 -46h5c24 0 78 38 171 152l-75 373h-78l11 46h114l67 -369c80 104 160 217 174 284c-20 6 -41 23 -41 50c0 22 19 43 45 43c27 0 49 -20 49 -59c0 -73 -61 -171 -215 -367c-126 -161 -192 -202 -251 -202z
M185 504l-23 30l175 133l106 -140l-26 -23l-91 86z" />
    <glyph glyph-name="Ydieresis" unicode="&#x178;" horiz-adv-x="623" 
d="M122 0l13 50h96l54 219l-114 339h-72l13 50h208l-11 -50h-79l95 -293l239 293h-75l13 50h208l-11 -50h-69l-292 -349l-49 -209h96l-11 -50h-252zM513 735c-28 0 -49 23 -49 51s21 51 49 51s49 -23 49 -51s-21 -51 -49 -51zM353 735c-28 0 -49 23 -49 51s21 51 49 51
s49 -23 49 -51s-21 -51 -49 -51z" />
    <glyph glyph-name="ydieresis" unicode="&#xff;" horiz-adv-x="474" 
d="M-18 -200c-30 0 -60 21 -60 50c0 23 17 45 42 45s40 -18 42 -46h5c24 0 78 38 171 152l-75 373h-78l11 46h114l67 -369c80 104 160 217 174 284c-20 6 -41 23 -41 50c0 22 19 43 45 43c27 0 49 -20 49 -59c0 -73 -61 -171 -215 -367c-126 -161 -192 -202 -251 -202z
M240 525c-28 0 -49 23 -49 51s21 51 49 51s49 -23 49 -51s-21 -51 -49 -51zM400 525c-28 0 -49 23 -49 51s21 51 49 51s49 -23 49 -51s-21 -51 -49 -51z" />
    <glyph glyph-name="Ygrave" unicode="&#x1ef2;" horiz-adv-x="623" 
d="M122 0l13 50h96l54 219l-114 339h-72l13 50h208l-11 -50h-79l95 -293l239 293h-75l13 50h208l-11 -50h-69l-292 -349l-49 -209h96l-11 -50h-252zM457 714l-118 76c-21 14 -28 27 -28 42c0 20 17 37 37 37c15 0 26 -5 42 -27l83 -112z" />
    <glyph glyph-name="ygrave" unicode="&#x1ef3;" horiz-adv-x="474" 
d="M-18 -200c-30 0 -60 21 -60 50c0 23 17 45 42 45s40 -18 42 -46h5c24 0 78 38 171 152l-75 373h-78l11 46h114l67 -369c80 104 160 217 174 284c-20 6 -41 23 -41 50c0 22 19 43 45 43c27 0 49 -20 49 -59c0 -73 -61 -171 -215 -367c-126 -161 -192 -202 -251 -202z
M344 504l-118 76c-21 14 -28 27 -28 42c0 20 17 37 37 37c15 0 26 -5 42 -27l83 -112z" />
    <glyph glyph-name="Zacute" unicode="&#x179;" horiz-adv-x="605" 
d="M8 0v24l550 587h-346l-24 -102h-55l34 149h482v-24l-550 -587h362l24 102h55l-34 -149h-498zM377 715l-11 19l166 120c14 11 24 15 38 15c18 0 34 -16 34 -34c0 -22 -16 -35 -37 -43z" />
    <glyph glyph-name="zacute" unicode="&#x17a;" horiz-adv-x="468" 
d="M28 -7l-19 23l361 360h-223l-21 -82h-48l31 126h330l14 -22l-351 -349c20 8 40 11 62 11c51 0 90 -21 136 -21c40 0 53 19 75 83l31 -7c-22 -84 -39 -123 -108 -123c-56 0 -109 28 -165 28c-47 0 -74 -10 -105 -27zM260 505l-11 19l166 120c14 11 24 15 38 15
c18 0 34 -16 34 -34c0 -22 -16 -35 -37 -43z" />
    <glyph glyph-name="Zcaron" unicode="&#x17d;" horiz-adv-x="605" 
d="M8 0v24l550 587h-346l-24 -102h-55l34 149h482v-24l-550 -587h362l24 102h55l-34 -149h-498zM420 718l-106 140l26 23l91 -86l141 86l23 -30z" />
    <glyph glyph-name="zcaron" unicode="&#x17e;" horiz-adv-x="468" 
d="M28 -7l-19 23l361 360h-223l-21 -82h-48l31 126h330l14 -22l-351 -349c20 8 40 11 62 11c51 0 90 -21 136 -21c40 0 53 19 75 83l31 -7c-22 -84 -39 -123 -108 -123c-56 0 -109 28 -165 28c-47 0 -74 -10 -105 -27zM303 508l-106 140l26 23l91 -86l141 86l23 -30z" />
    <glyph glyph-name="Zdotaccent" unicode="&#x17b;" horiz-adv-x="605" 
d="M8 0v24l550 587h-346l-24 -102h-55l34 149h482v-24l-550 -587h362l24 102h55l-34 -149h-498zM434 733c-29 0 -51 24 -51 53s22 53 51 53s51 -24 51 -53s-22 -53 -51 -53z" />
    <glyph glyph-name="zdotaccent" unicode="&#x17c;" horiz-adv-x="468" 
d="M28 -7l-19 23l361 360h-223l-21 -82h-48l31 126h330l14 -22l-351 -349c20 8 40 11 62 11c51 0 90 -21 136 -21c40 0 53 19 75 83l31 -7c-22 -84 -39 -123 -108 -123c-56 0 -109 28 -165 28c-47 0 -74 -10 -105 -27zM316 523c-29 0 -51 24 -51 53s22 53 51 53
s51 -24 51 -53s-22 -53 -51 -53z" />
    <glyph glyph-name="schwa" unicode="&#x259;" horiz-adv-x="470" 
d="M39 141c0 26 6 53 17 83h317c1 9 2 18 2 27c0 87 -71 131 -142 131c-49 0 -84 -10 -138 -39l12 54c44 22 80 31 135 31c97 0 185 -63 185 -176c0 -142 -111 -260 -235 -260c-95 0 -153 60 -153 149zM196 39c73 0 142 60 168 141h-268c-5 -15 -8 -32 -8 -48
c0 -47 32 -93 108 -93z" />
    <glyph glyph-name="germandbls" unicode="&#xdf;" horiz-adv-x="532" 
d="M330 -7c-54 0 -124 35 -124 90c0 24 17 47 42 47s41 -19 41 -37c0 -14 -8 -27 -15 -34c5 -10 33 -22 59 -22c56 0 94 42 94 97c0 42 -32 76 -64 107c-40 39 -69 71 -69 118c0 56 33 87 74 115c41 29 83 60 83 127c0 49 -46 87 -91 87c-62 0 -107 -49 -124 -134l-127 -554
h-52l86 374h-75l11 46h75l32 141c26 115 91 174 177 174c77 0 139 -56 139 -134c0 -89 -49 -127 -101 -164c-35 -25 -57 -44 -57 -78c0 -25 24 -51 60 -86c35 -34 73 -79 73 -140c0 -76 -49 -140 -147 -140z" />
    <glyph glyph-name="zero" unicode="0" horiz-adv-x="557" 
d="M260 -9c-128 0 -205 103 -205 223c0 152 108 293 260 293c127 0 205 -103 205 -223c0 -152 -108 -293 -260 -293zM260 40c120 0 204 114 204 243c0 99 -64 175 -150 175c-120 0 -204 -114 -204 -243c0 -99 64 -175 150 -175z" />
    <glyph glyph-name="one" unicode="1" horiz-adv-x="372" 
d="M2 0l11 46h120l91 395l-115 -29l-1 50l163 43l19 -9l-104 -450h118l-11 -46h-291z" />
    <glyph glyph-name="two" unicode="2" horiz-adv-x="474" 
d="M3 0l-6 31c40 101 144 159 249 212c80 41 145 80 145 136c0 40 -37 82 -124 82c-56 0 -92 -19 -115 -47c16 -7 24 -21 24 -38c0 -23 -18 -41 -41 -41c-25 0 -46 19 -46 47c0 65 81 127 180 127c115 0 176 -61 176 -126c0 -89 -90 -138 -183 -184
c-119 -59 -166 -92 -199 -153h271l20 88h49l-31 -134h-369z" />
    <glyph glyph-name="three" unicode="3" horiz-adv-x="479" 
d="M183 -125c-87 0 -189 48 -189 125c0 30 20 53 47 53c25 0 39 -18 39 -36c0 -15 -12 -34 -32 -39c12 -26 59 -56 139 -56c92 0 157 56 157 131c0 74 -70 128 -167 128h-19l12 47h21c124 0 204 57 204 131c0 60 -49 102 -130 102c-56 0 -92 -17 -112 -37
c16 -6 27 -20 27 -36c0 -22 -19 -38 -41 -38c-24 0 -43 22 -43 47c0 62 89 112 170 112c117 0 183 -64 183 -144c0 -94 -78 -144 -174 -162c80 -26 123 -82 123 -147c0 -103 -98 -181 -215 -181z" />
    <glyph glyph-name="four" unicode="4" horiz-adv-x="522" 
d="M393 284l-41 -175h117l-11 -46h-116l-42 -183h-54l42 183h-284l-4 19l405 426l35 -31l-350 -368h208l36 154z" />
    <glyph glyph-name="five" unicode="5" horiz-adv-x="477" 
d="M169 -122c-92 0 -167 52 -167 105c0 25 18 48 45 48c22 0 40 -15 40 -38c0 -11 -5 -25 -18 -33c16 -19 49 -34 102 -34c100 0 176 73 176 168c0 82 -60 119 -139 119c-48 0 -84 -11 -120 -29l-21 15l100 302h294l-11 -50h-252l-66 -204c18 8 47 15 89 15
c103 0 182 -63 182 -164c0 -119 -104 -220 -234 -220z" />
    <glyph glyph-name="six" unicode="6" horiz-adv-x="524" 
d="M112 45c-39 39 -55 90 -55 165c0 126 50 262 144 352c46 44 102 74 175 74c79 0 143 -45 143 -96c0 -27 -14 -50 -45 -50c-22 0 -40 15 -40 38c0 13 5 26 19 35c-10 12 -33 27 -83 27c-49 0 -97 -23 -138 -63c-54 -51 -104 -148 -120 -242c29 47 91 106 189 106
c108 0 174 -76 174 -173c0 -119 -103 -226 -230 -226c-60 0 -101 21 -133 53zM112 174c0 -37 12 -69 35 -93c24 -25 59 -40 104 -40c94 0 168 83 168 173c0 74 -44 129 -126 129c-107 0 -181 -83 -181 -169z" />
    <glyph glyph-name="seven" unicode="7" horiz-adv-x="471" 
d="M74 -123l-42 25l378 554h-271l-24 -95h-51l33 140h375l12 -23z" />
    <glyph glyph-name="eight" unicode="8" horiz-adv-x="487" 
d="M218 -8c-105 0 -183 71 -183 160c0 95 71 158 159 180c-51 31 -76 77 -76 132c0 84 83 172 196 172c101 0 169 -67 169 -155c0 -85 -54 -144 -141 -168c51 -27 90 -70 90 -139c0 -96 -96 -182 -214 -182zM286 344c82 0 145 57 145 133c0 64 -45 112 -121 112
c-81 0 -139 -57 -139 -133c0 -60 46 -112 115 -112zM220 39c93 0 157 63 157 138c0 73 -60 123 -132 123c-95 0 -156 -69 -156 -142c0 -72 60 -119 131 -119z" />
    <glyph glyph-name="nine" unicode="9" horiz-adv-x="524" 
d="M168 -125c-79 0 -143 45 -143 96c0 27 14 50 45 50c22 0 40 -15 40 -38c0 -13 -5 -26 -19 -35c10 -12 33 -27 83 -27c48 0 95 21 135 58c59 54 106 152 119 238c-28 -48 -91 -107 -189 -107c-108 0 -174 76 -174 173c0 119 104 226 231 226c60 0 100 -21 132 -53
c39 -39 55 -90 55 -165c0 -134 -53 -258 -128 -333c-55 -55 -108 -83 -187 -83zM428 327c0 37 -11 69 -34 93c-24 25 -59 40 -104 40c-94 0 -169 -83 -169 -173c0 -74 44 -129 126 -129c107 0 181 83 181 169z" />
    <glyph glyph-name="zero.lin" horiz-adv-x="618" 
d="M286 -12c-126 0 -216 97 -216 243c0 231 140 439 317 439c126 0 216 -97 216 -243c0 -231 -140 -439 -317 -439zM291 40c146 0 252 200 252 382c0 112 -54 196 -161 196c-146 0 -252 -200 -252 -382c0 -112 54 -196 161 -196z" />
    <glyph glyph-name="one.lin" horiz-adv-x="424" 
d="M0 0l12 50h139l127 550l-140 -34v53l185 46l24 -12l-139 -603h136l-12 -50h-332z" />
    <glyph glyph-name="two.lin" horiz-adv-x="544" 
d="M16 0l-9 25c52 125 115 201 293 298c126 69 176 118 176 186c0 63 -53 109 -130 109c-85 0 -136 -37 -152 -64c15 -14 23 -26 23 -42c0 -25 -19 -45 -46 -45c-24 0 -46 21 -46 51c0 64 87 152 224 152c114 0 188 -70 188 -158c0 -100 -76 -156 -214 -233
c-148 -82 -205 -146 -243 -229h307l22 99h56l-34 -149h-415z" />
    <glyph glyph-name="three.lin" horiz-adv-x="512" 
d="M223 -8c-109 0 -205 64 -205 126c0 28 18 57 49 57c28 0 42 -20 42 -39c0 -15 -12 -34 -32 -39c17 -23 72 -54 149 -54c105 0 172 58 172 137c0 84 -83 137 -192 137h-13l11 50h18c142 0 218 64 218 139c0 71 -60 111 -139 111c-63 0 -102 -20 -119 -42
c16 -6 27 -21 27 -37c0 -24 -23 -38 -43 -38c-24 0 -45 20 -45 48c0 64 82 121 190 121c106 0 189 -68 189 -158c0 -102 -93 -157 -183 -172c77 -21 141 -76 141 -158c0 -113 -107 -189 -235 -189z" />
    <glyph glyph-name="four.lin" horiz-adv-x="541" 
d="M446 424l-41 -179h116l-11 -49h-117l-33 -146h96l-11 -50h-273l11 50h120l33 146h-302l-4 22l442 454l38 -34l-384 -393h222l35 153z" />
    <glyph glyph-name="five.lin" horiz-adv-x="509" 
d="M201 -12c-87 0 -177 53 -177 110c0 26 18 50 45 50c22 0 40 -15 40 -38c0 -11 -5 -25 -18 -33c18 -20 56 -39 116 -39c123 0 199 92 199 186c0 87 -56 133 -137 133c-52 0 -94 -10 -135 -28l-23 20l103 309h312l-12 -54h-266l-73 -217c23 11 58 21 102 21
c112 0 188 -71 188 -180c0 -117 -100 -240 -264 -240z" />
    <glyph glyph-name="six.lin" horiz-adv-x="553" 
d="M129 44c-44 44 -61 99 -61 184c0 124 53 271 153 364c48 45 109 78 185 78c84 0 152 -49 152 -103c0 -33 -24 -52 -48 -52c-19 0 -42 13 -42 42c0 10 4 25 20 36c-10 12 -35 28 -83 28c-54 0 -105 -23 -150 -65c-60 -55 -111 -155 -128 -254c33 48 100 109 197 109
c119 0 193 -80 193 -179c0 -120 -110 -244 -245 -244c-65 0 -113 26 -143 56zM275 39c95 0 182 87 182 191c0 78 -52 131 -140 131c-101 0 -188 -91 -188 -183c0 -38 15 -74 41 -100c25 -24 60 -39 105 -39z" />
    <glyph glyph-name="seven.lin" horiz-adv-x="490" 
d="M66 0l405 608h-295l-23 -99h-55l35 149h412l10 -19l-422 -639h-67z" />
    <glyph glyph-name="eight.lin" horiz-adv-x="543" 
d="M270 -10c-123 0 -217 81 -217 180c0 105 84 167 172 182c-54 25 -95 83 -95 144c0 86 81 172 211 172c111 0 203 -70 203 -166c0 -94 -70 -145 -156 -168c54 -21 107 -78 107 -152c0 -108 -96 -192 -225 -192zM331 367c87 0 156 58 156 132c0 64 -52 118 -146 118
c-88 0 -155 -53 -155 -126c0 -70 64 -124 145 -124zM269 41c92 0 170 60 170 140c0 78 -63 136 -158 136c-103 0 -171 -62 -171 -145c0 -70 61 -131 159 -131z" />
    <glyph glyph-name="nine.lin" horiz-adv-x="553" 
d="M90 426c0 120 110 244 245 244c65 0 113 -26 143 -56c44 -44 61 -99 61 -184c0 -124 -53 -271 -153 -364c-48 -45 -109 -78 -185 -78c-84 0 -152 49 -152 103c0 33 24 52 48 52c19 0 42 -13 42 -42c0 -10 -4 -25 -20 -36c10 -12 35 -28 83 -28c54 0 105 23 150 65
c59 54 111 155 127 253c-33 -48 -100 -108 -196 -108c-119 0 -193 80 -193 179zM478 480c0 38 -15 74 -41 100c-25 24 -60 39 -105 39c-95 0 -182 -87 -182 -191c0 -78 52 -131 140 -131c101 0 188 91 188 183z" />
    <glyph glyph-name="period" unicode="." horiz-adv-x="184" 
d="M68 -8c-30 0 -52 24 -52 54s22 54 52 54s52 -24 52 -54s-22 -54 -52 -54z" />
    <glyph glyph-name="comma" unicode="," horiz-adv-x="184" 
d="M-47 -135l-11 22c75 33 112 87 115 113c-26 5 -41 30 -41 50c0 27 21 50 51 50s54 -25 54 -60c0 -61 -49 -135 -168 -175z" />
    <glyph glyph-name="colon" unicode=":" horiz-adv-x="204" 
d="M138 255c-30 0 -52 24 -52 54s22 54 52 54s52 -24 52 -54s-22 -54 -52 -54zM78 -8c-30 0 -52 24 -52 54s22 54 52 54s52 -24 52 -54s-22 -54 -52 -54z" />
    <glyph glyph-name="semicolon" unicode=";" horiz-adv-x="204" 
d="M138 255c-30 0 -52 24 -52 54s22 54 52 54s52 -24 52 -54s-22 -54 -52 -54zM-37 -135l-11 22c75 33 112 87 115 113c-26 5 -41 30 -41 50c0 27 21 50 51 50s54 -25 54 -60c0 -61 -49 -135 -168 -175z" />
    <glyph glyph-name="ellipsis" unicode="&#x2026;" horiz-adv-x="566" 
d="M435 -8c-30 0 -52 24 -52 54s22 54 52 54s52 -24 52 -54s-22 -54 -52 -54zM244 -8c-30 0 -52 24 -52 54s22 54 52 54s52 -24 52 -54s-22 -54 -52 -54zM53 -8c-30 0 -52 24 -52 54s22 54 52 54s52 -24 52 -54s-22 -54 -52 -54z" />
    <glyph glyph-name="periodcentered" unicode="&#xb7;" horiz-adv-x="184" 
d="M105 220c-30 0 -52 24 -52 54s22 54 52 54s52 -24 52 -54s-22 -54 -52 -54z" />
    <glyph glyph-name="bullet" unicode="&#x2022;" horiz-adv-x="269" 
d="M148 182c-48 0 -83 38 -83 86s35 87 83 87s83 -39 83 -87s-35 -86 -83 -86z" />
    <glyph glyph-name="bullet.alt" horiz-adv-x="626" 
d="M314 -47c-152 0 -255 117 -255 262s103 262 255 262c153 0 256 -117 256 -262s-103 -262 -256 -262z" />
    <glyph glyph-name="ampersand" unicode="&#x26;" horiz-adv-x="586" 
d="M7 132c0 107 84 164 182 208c-23 41 -33 77 -33 116c0 95 66 166 157 166c76 0 127 -54 127 -116c0 -94 -87 -140 -186 -186c9 -14 21 -28 35 -45l84 -102c49 73 87 120 147 120c39 0 58 -23 58 -47s-20 -43 -42 -43c-20 0 -37 13 -42 36c-28 -8 -56 -52 -91 -103
l99 -119l-36 -30l-93 115c-49 -57 -114 -114 -208 -114c-99 0 -158 67 -158 144zM170 35c79 0 130 48 174 102l-92 114c-16 19 -29 37 -41 53c-87 -44 -149 -86 -149 -169c0 -53 39 -100 108 -100zM206 460c0 -39 6 -69 25 -104c104 46 157 86 157 146c0 40 -29 75 -80 75
c-61 0 -102 -56 -102 -117z" />
    <glyph glyph-name="exclam" unicode="!" horiz-adv-x="234" 
d="M103 164l84 493h68l-128 -493h-24zM90 -8c-28 0 -50 23 -50 51s22 52 50 52s50 -24 50 -52s-22 -51 -50 -51z" />
    <glyph glyph-name="exclamdown" unicode="&#xa1;" horiz-adv-x="234" 
d="M199 562c-28 0 -50 24 -50 52s22 51 50 51s50 -23 50 -51s-22 -52 -50 -52zM34 0l128 493h24l-84 -493h-68z" />
    <glyph glyph-name="question" unicode="?" horiz-adv-x="441" 
d="M124 165l32 162c185 6 263 101 263 182c0 74 -56 111 -125 111c-59 0 -105 -28 -115 -53c13 -5 29 -20 29 -40c0 -24 -21 -43 -45 -43c-27 0 -47 23 -47 53c0 68 91 133 183 133c103 0 176 -65 176 -157c0 -108 -102 -212 -275 -229l-40 -119h-36zM117 -8
c-28 0 -50 23 -50 51s22 52 50 52s50 -24 50 -52s-22 -51 -50 -51z" />
    <glyph glyph-name="questiondown" unicode="&#xbf;" horiz-adv-x="441" 
d="M384 567c-28 0 -50 24 -50 52s22 51 50 51s50 -23 50 -51s-22 -52 -50 -52zM202 -8c-103 0 -176 65 -176 157c0 108 102 212 275 229l40 119h36l-32 -162c-185 -6 -263 -101 -263 -182c0 -74 56 -111 125 -111c59 0 105 28 115 53c-13 5 -29 20 -29 40c0 24 21 43 45 43
c27 0 47 -23 47 -53c0 -68 -91 -133 -183 -133z" />
    <glyph glyph-name="quotedblleft" unicode="&#x201c;" horiz-adv-x="379" 
d="M339 425c-32 0 -54 25 -54 61c0 66 69 146 174 189l11 -22c-76 -44 -107 -97 -114 -124c21 -8 37 -25 37 -50c0 -29 -22 -54 -54 -54zM155 425c-32 0 -54 25 -54 61c0 66 69 146 174 189l11 -22c-76 -44 -107 -97 -114 -124c21 -8 37 -25 37 -50c0 -29 -22 -54 -54 -54z
" />
    <glyph glyph-name="quotedblright" unicode="&#x201d;" horiz-adv-x="379" 
d="M259 424l-11 22c76 44 107 97 114 124c-21 8 -37 25 -37 50c0 29 22 54 54 54s54 -25 54 -61c0 -66 -69 -146 -174 -189zM75 424l-11 22c76 44 107 97 114 124c-21 8 -37 25 -37 50c0 29 22 54 54 54s54 -25 54 -61c0 -66 -69 -146 -174 -189z" />
    <glyph glyph-name="quoteleft" unicode="&#x2018;" horiz-adv-x="195" 
d="M155 425c-32 0 -54 25 -54 61c0 66 69 146 174 189l11 -22c-76 -44 -107 -97 -114 -124c21 -8 37 -25 37 -50c0 -29 -22 -54 -54 -54z" />
    <glyph glyph-name="quoteright" unicode="&#x2019;" horiz-adv-x="195" 
d="M75 424l-11 22c76 44 107 97 114 124c-21 8 -37 25 -37 50c0 29 22 54 54 54s54 -25 54 -61c0 -66 -69 -146 -174 -189z" />
    <glyph glyph-name="quotedblbase" unicode="&#x201e;" horiz-adv-x="375" 
d="M139 -135l-11 22c75 33 112 87 115 113c-26 5 -41 30 -41 50c0 27 21 50 51 50s54 -25 54 -60c0 -61 -49 -135 -168 -175zM-42 -135l-11 22c75 33 112 87 115 113c-26 5 -41 30 -41 50c0 27 21 50 51 50s54 -25 54 -60c0 -61 -49 -135 -168 -175z" />
    <glyph glyph-name="quotesinglbase" unicode="&#x201a;" horiz-adv-x="194" 
d="M-42 -135l-11 22c75 33 112 87 115 113c-26 5 -41 30 -41 50c0 27 21 50 51 50s54 -25 54 -60c0 -61 -49 -135 -168 -175z" />
    <glyph glyph-name="guillemotleft" unicode="&#xab;" horiz-adv-x="450" 
d="M344 114l-130 160l200 157l28 -32l-158 -135l93 -125zM174 114l-130 160l200 157l28 -32l-158 -135l93 -125z" />
    <glyph glyph-name="guillemotright" unicode="&#xbb;" horiz-adv-x="450" 
d="M239 113l-28 32l158 135l-93 125l33 25l130 -160zM69 113l-28 32l158 135l-93 125l33 25l130 -160z" />
    <glyph glyph-name="guilsinglleft" unicode="&#x2039;" horiz-adv-x="280" 
d="M174 114l-130 160l200 157l28 -32l-158 -135l93 -125z" />
    <glyph glyph-name="guilsinglright" unicode="&#x203a;" horiz-adv-x="280" 
d="M69 113l-28 32l158 135l-93 125l33 25l130 -160z" />
    <glyph glyph-name="hyphen" unicode="-" horiz-adv-x="244" 
d="M33 250l13 52h179l-11 -52h-181z" />
    <glyph glyph-name="endash" unicode="&#x2013;" horiz-adv-x="395" 
d="M23 250l13 52h350l-11 -52h-352z" />
    <glyph glyph-name="emdash" unicode="&#x2014;" horiz-adv-x="617" 
d="M23 250l13 52h572l-11 -52h-574z" />
    <glyph glyph-name="hyphen.lin" horiz-adv-x="244" 
d="M56 314l13 52h179l-11 -52h-181z" />
    <glyph glyph-name="endash.lin" horiz-adv-x="395" 
d="M46 314l13 52h350l-11 -52h-352z" />
    <glyph glyph-name="emdash.lin" horiz-adv-x="617" 
d="M46 314l13 52h572l-11 -52h-574z" />
    <glyph glyph-name="underscore" unicode="_" horiz-adv-x="502" 
d="M-37 -140l13 52h521l-11 -52h-523z" />
    <glyph glyph-name="slash" unicode="/" horiz-adv-x="355" 
d="M-55 -207l-46 25l510 921l46 -25z" />
    <glyph glyph-name="backslash" unicode="\" horiz-adv-x="291" 
d="M167 -199l-65 927l52 4l65 -927z" />
    <glyph glyph-name="bar" unicode="|" horiz-adv-x="264" 
d="M108 -200v932h48v-932h-48z" />
    <glyph glyph-name="parenleft" unicode="(" horiz-adv-x="340" 
d="M270 -219c-125 103 -190 239 -190 398c0 247 150 464 354 573l25 -39c-195 -110 -322 -318 -322 -534c0 -136 49 -262 161 -362z" />
    <glyph glyph-name="parenright" unicode=")" horiz-adv-x="340" 
d="M-53 -219l-25 39c195 110 322 318 322 534c0 136 -49 262 -161 362l28 36c125 -103 190 -239 190 -398c0 -247 -150 -464 -354 -573z" />
    <glyph glyph-name="parenleft.lin" horiz-adv-x="340" 
d="M270 -159c-125 103 -190 239 -190 398c0 247 150 464 354 573l25 -39c-195 -110 -322 -318 -322 -534c0 -136 49 -262 161 -362z" />
    <glyph glyph-name="parenright.lin" horiz-adv-x="340" 
d="M-43 -159l-25 39c195 110 322 318 322 534c0 136 -49 262 -161 362l28 36c125 -103 190 -239 190 -398c0 -247 -150 -464 -354 -573z" />
    <glyph glyph-name="bracketleft" unicode="[" horiz-adv-x="331" 
d="M12 -200l217 932h216l-11 -47h-160l-196 -838h160l-11 -47h-215z" />
    <glyph glyph-name="bracketright" unicode="]" horiz-adv-x="331" 
d="M-90 -200l11 47h160l196 838h-160l11 47h215l-217 -932h-216z" />
    <glyph glyph-name="bracketleft.lin" horiz-adv-x="331" 
d="M32 -140l217 932h216l-11 -47h-160l-196 -838h160l-11 -47h-215z" />
    <glyph glyph-name="bracketright.lin" horiz-adv-x="331" 
d="M-80 -140l11 47h160l196 838h-160l11 47h215l-217 -932h-216z" />
    <glyph glyph-name="braceleft" unicode="{" horiz-adv-x="318" 
d="M189 -213c-104 12 -152 81 -152 157c0 60 41 106 79 141c31 29 60 56 60 85s-19 70 -84 70h-37l14 57h37c70 0 110 41 110 87c0 24 -10 55 -24 85c-15 33 -28 71 -28 106c0 87 75 170 243 173l-10 -41c-132 -7 -181 -75 -181 -131c0 -32 12 -65 26 -97s25 -65 25 -95
c0 -67 -47 -109 -109 -118c51 -15 70 -55 70 -93c0 -46 -35 -84 -71 -117c-35 -32 -67 -69 -67 -109c0 -55 25 -99 109 -120z" />
    <glyph glyph-name="braceright" unicode="}" horiz-adv-x="318" 
d="M-63 -211l10 41c132 7 181 75 181 131c0 32 -12 65 -26 97s-25 65 -25 95c0 67 47 109 109 118c-51 15 -70 55 -70 93c0 46 35 84 71 117c35 32 67 69 67 109c0 55 -25 99 -109 120l10 40c104 -12 152 -81 152 -157c0 -60 -41 -106 -79 -141c-31 -28 -60 -56 -60 -85
s19 -70 84 -70h37l-14 -57h-37c-70 0 -110 -41 -110 -87c0 -24 10 -55 24 -85c15 -33 28 -71 28 -106c0 -87 -75 -170 -243 -173z" />
    <glyph glyph-name="braceleft.lin" horiz-adv-x="318" 
d="M209 -153c-104 12 -152 81 -152 157c0 60 41 106 79 141c31 29 60 56 60 85s-19 70 -84 70h-37l14 57h37c70 0 110 41 110 87c0 24 -10 55 -24 85c-15 33 -28 71 -28 106c0 87 75 170 243 173l-10 -41c-132 -7 -181 -75 -181 -131c0 -32 12 -65 26 -97s25 -65 25 -95
c0 -67 -47 -109 -109 -118c51 -15 70 -55 70 -93c0 -46 -35 -84 -71 -117c-35 -32 -67 -69 -67 -109c0 -55 25 -99 109 -120z" />
    <glyph glyph-name="braceright.lin" horiz-adv-x="318" 
d="M-53 -151l10 41c132 7 181 75 181 131c0 32 -12 65 -26 97s-25 65 -25 95c0 67 47 109 109 118c-51 15 -70 55 -70 93c0 46 35 84 71 117c35 32 67 69 67 109c0 55 -25 99 -109 120l10 40c104 -12 152 -81 152 -157c0 -60 -41 -106 -79 -141c-31 -28 -60 -56 -60 -85
s19 -70 84 -70h37l-14 -57h-37c-70 0 -110 -41 -110 -87c0 -24 10 -55 24 -85c15 -33 28 -71 28 -106c0 -87 -75 -170 -243 -173z" />
    <glyph glyph-name="at" unicode="@" horiz-adv-x="802" 
d="M330 -174c-173 0 -282 130 -282 292c0 273 200 484 429 484c173 0 281 -112 281 -282c0 -157 -85 -282 -187 -282c-62 0 -86 44 -80 84c-27 -51 -78 -84 -134 -84c-73 0 -130 53 -130 141c0 113 88 208 186 208c70 0 105 -44 112 -85l20 82h47l-55 -221
c-14 -54 -1 -85 36 -85c81 0 144 120 144 243c0 140 -92 244 -241 244c-209 0 -387 -196 -387 -448c0 -135 93 -254 242 -254c58 0 113 14 161 40l17 -33c-53 -29 -115 -44 -179 -44zM367 83c84 0 142 88 142 164c0 60 -37 95 -95 95c-78 0 -134 -77 -134 -162
c0 -60 30 -97 87 -97z" />
    <glyph glyph-name="copyright" unicode="&#xa9;" horiz-adv-x="598" 
d="M299 -8c-146 0 -251 115 -251 258s105 259 251 259s251 -116 251 -259s-105 -258 -251 -258zM299 24c124 0 214 102 214 227s-90 227 -214 227s-214 -102 -214 -227s90 -227 214 -227zM311 122c-79 0 -134 57 -134 132c0 80 64 134 130 134c62 0 99 -36 99 -62
c0 -15 -10 -28 -24 -28c-13 0 -23 10 -23 23c0 6 2 12 5 15c-7 10 -25 20 -57 20c-52 0 -92 -46 -92 -100s39 -101 97 -101c30 0 55 12 77 33l21 -25c-25 -28 -62 -41 -99 -41z" />
    <glyph glyph-name="published" unicode="&#x2117;" horiz-adv-x="598" 
d="M299 -8c-146 0 -251 115 -251 258s105 259 251 259s251 -116 251 -259s-105 -258 -251 -258zM299 24c124 0 214 102 214 227s-90 227 -214 227s-214 -102 -214 -227s90 -227 214 -227zM214 115v31h33v202h-33v31h103c56 0 98 -33 98 -84c0 -56 -40 -87 -100 -87
c-14 0 -27 0 -34 1v-63h35v-31h-102zM317 238c39 0 63 22 63 57c0 33 -27 53 -64 53h-35v-109c7 0 19 -1 36 -1z" />
    <glyph glyph-name="registered.alt" horiz-adv-x="598" 
d="M299 -8c-146 0 -251 115 -251 258s105 259 251 259s251 -116 251 -259s-105 -258 -251 -258zM299 24c124 0 214 102 214 227s-90 227 -214 227s-214 -102 -214 -227s90 -227 214 -227zM197 124v31h33v202h-33v30h100c60 0 99 -28 99 -77c0 -35 -23 -61 -55 -72l51 -83h31
v-31h-54l-61 105h-44v-74h34v-31h-101zM264 258h30c40 0 67 19 67 51s-26 48 -65 48h-32v-99z" />
    <glyph glyph-name="registered" unicode="&#xae;" horiz-adv-x="386" 
d="M264 336c-100 0 -178 79 -178 178c0 100 78 179 178 179c99 0 178 -79 178 -179c0 -98 -80 -178 -178 -178zM264 663c-81 0 -144 -65 -144 -149c0 -83 63 -148 144 -148c79 0 144 66 144 148c0 84 -63 149 -144 149zM195 431v26h20v121h-20v26h68c39 0 68 -18 68 -52
c0 -22 -14 -39 -33 -47l27 -48h20v-26h-40l-36 66h-25v-40h23v-26h-72zM244 522h18c24 0 39 10 39 29c0 18 -15 27 -39 27h-18v-56z" />
    <glyph glyph-name="copyright.lin" horiz-adv-x="782" 
d="M391 -12c-188 0 -334 153 -334 341s146 341 334 341s334 -153 334 -341s-146 -341 -334 -341zM391 21c165 0 296 139 296 308s-131 308 -296 308s-296 -139 -296 -308s131 -308 296 -308zM405 164c-102 0 -171 75 -171 169c0 101 78 172 169 172c71 0 124 -42 124 -81
c0 -20 -13 -35 -31 -35c-17 0 -30 12 -30 29c0 9 5 16 10 19c-9 13 -35 28 -74 28c-72 0 -124 -59 -124 -131c0 -70 51 -131 127 -131c39 0 71 16 99 43l27 -30c-33 -34 -79 -52 -126 -52z" />
    <glyph glyph-name="published.lin" horiz-adv-x="782" 
d="M391 -12c-188 0 -334 153 -334 341s146 341 334 341s334 -153 334 -341s-146 -341 -334 -341zM391 21c165 0 296 139 296 308s-131 308 -296 308s-296 -139 -296 -308s131 -308 296 -308zM278 165v38h41v253h-41v38h129c69 0 122 -41 122 -105c0 -70 -50 -108 -125 -108
h-42v-78h44v-38h-128zM407 318c49 0 78 27 78 71c0 42 -34 67 -79 67h-44v-137c9 0 24 -1 45 -1z" />
    <glyph glyph-name="registered.lin" horiz-adv-x="782" 
d="M391 -12c-188 0 -334 153 -334 341s146 341 334 341s334 -153 334 -341s-146 -341 -334 -341zM391 21c165 0 296 139 296 308s-131 308 -296 308s-296 -139 -296 -308s131 -308 296 -308zM266 171v38h41v253h-41v38h125c74 0 123 -35 123 -96c0 -45 -28 -77 -68 -90
l63 -105h39v-38h-65l-75 131h-59v-93h43v-38h-126zM349 339h38c48 0 83 23 83 63s-31 60 -81 60h-40v-123z" />
    <glyph glyph-name="servicemark" unicode="&#x2120;" horiz-adv-x="633" 
d="M202 409c-50 0 -90 28 -90 62c0 19 12 32 28 32s24 -10 24 -24c0 -8 -4 -17 -10 -22c8 -9 26 -17 50 -17c30 0 49 14 49 34c0 21 -14 32 -47 49c-31 17 -58 36 -58 72c0 33 31 67 86 67c51 0 82 -30 82 -55c0 -19 -10 -33 -27 -33c-15 0 -25 9 -25 23c0 7 5 17 10 22
c-4 5 -21 12 -41 12c-29 0 -47 -16 -47 -33c0 -22 20 -33 48 -49c33 -18 57 -37 57 -71c0 -37 -31 -69 -89 -69zM312 413l7 31h36l52 183h-37l7 31h77l35 -159l110 159h83l-7 -31h-38l-35 -183h38l-7 -31h-101l7 31h30l33 165l-115 -166h-17l-38 166l-44 -165h31l-7 -31
h-100z" />
    <glyph glyph-name="trademark" unicode="&#x2122;" horiz-adv-x="633" 
d="M312 413l7 31h36l52 183h-37l7 31h77l35 -159l110 159h83l-7 -31h-38l-35 -183h38l-7 -31h-101l7 31h30l33 165l-115 -166h-17l-38 166l-44 -165h31l-7 -31h-100zM116 413l7 31h38l44 185h-63l-10 -39h-34l16 68h229l-16 -68h-35l10 39h-62l-44 -185h37l-7 -31h-110z" />
    <glyph glyph-name="asterisk" unicode="*" horiz-adv-x="380" 
d="M316 398c-18 0 -30 14 -34 31l-24 100l-56 -85c-10 -15 -21 -20 -32 -20c-17 0 -31 13 -31 30c0 14 9 26 20 33l85 55l-96 27c-21 6 -31 19 -31 35c0 17 14 29 32 29c14 0 20 -5 27 -11l78 -63l-3 100c-1 28 16 42 32 42c22 0 39 -22 27 -52l-38 -93l95 32c6 2 12 3 19 3
c18 0 32 -14 32 -30c0 -21 -19 -34 -43 -32l-99 7l61 -81c7 -9 10 -20 10 -28c0 -16 -17 -29 -31 -29z" />
    <glyph glyph-name="dagger" unicode="&#x2020;" horiz-adv-x="448" 
d="M136 -2l85 399l-85 9c3 -34 -20 -58 -45 -58c-28 0 -43 23 -43 45c0 29 21 52 57 52c9 0 20 -2 30 -4l109 -20l10 163c2 32 16 52 41 52c40 0 42 -37 29 -71l-57 -148l109 24c11 2 19 4 28 4c33 0 51 -23 51 -52c0 -22 -15 -45 -43 -45c-25 0 -48 24 -45 58l-91 -14
l-110 -394h-30z" />
    <glyph glyph-name="daggerdbl" unicode="&#x2021;" horiz-adv-x="468" 
d="M204 64l-9 -134c-2 -32 -16 -52 -41 -52c-40 0 -42 37 -29 71l45 115l-79 -19c-10 -2 -21 -4 -30 -4c-34 0 -59 23 -59 50c0 22 17 44 45 44c25 0 48 -21 45 -55l74 10l52 169l18 165l-72 10c3 -34 -20 -55 -45 -55c-28 0 -45 22 -45 44c0 27 25 50 59 50
c9 0 20 -2 30 -4l89 -19l9 134c2 32 16 52 41 52c40 0 42 -37 29 -71l-45 -115l79 19c10 2 21 4 30 4c34 0 59 -23 59 -50c0 -22 -17 -44 -45 -44c-25 0 -48 21 -45 55l-74 -10l-52 -169l-18 -165l72 -10c-3 34 20 55 45 55c28 0 45 -22 45 -44c0 -27 -25 -50 -59 -50
c-9 0 -20 2 -30 4z" />
    <glyph glyph-name="asciicircum" unicode="^" horiz-adv-x="438" 
d="M137 377l-23 30l175 133l106 -140l-26 -23l-91 86z" />
    <glyph glyph-name="asciitilde" unicode="~" horiz-adv-x="460" 
d="M303 190c-37 0 -60 19 -80 40c-18 18 -30 27 -45 27c-22 0 -42 -23 -56 -62l-41 14c12 57 54 102 97 102c38 0 62 -21 83 -42c18 -17 29 -26 43 -26c22 0 40 21 55 63l42 -14c-17 -64 -56 -102 -98 -102z" />
    <glyph glyph-name="dollar" unicode="$" horiz-adv-x="461" 
d="M159 -105l-41 11c8 31 18 64 29 98c-69 20 -118 64 -118 107c0 28 19 52 45 52s40 -20 40 -38c0 -16 -8 -28 -21 -40c12 -16 39 -29 69 -37l57 192c-58 28 -114 61 -114 129c0 77 73 136 170 136c7 0 14 -1 21 -1l20 69l41 -11l-19 -65c61 -17 105 -55 105 -96
c0 -32 -21 -51 -43 -51c-24 0 -40 17 -40 39c0 12 5 26 18 38c-10 11 -32 20 -56 26l-53 -178c61 -30 125 -64 125 -139c0 -89 -84 -142 -173 -142c-11 0 -22 1 -32 2zM341 129c0 45 -40 70 -87 94l-53 -182c7 -1 13 -1 20 -1c59 0 120 31 120 89zM159 375
c0 -38 33 -62 75 -83l48 167h-11c-57 0 -112 -29 -112 -84z" />
    <glyph glyph-name="dollar.lin" horiz-adv-x="544" 
d="M153 -90l29 101c-89 24 -149 84 -149 132c0 36 23 60 53 60c26 0 44 -22 44 -40c0 -22 -12 -39 -31 -50c14 -22 51 -45 103 -56l81 261c-71 36 -139 77 -139 169c0 93 87 171 213 171c10 0 20 -1 31 -2l27 93l46 -13l-26 -90c70 -20 124 -65 124 -114
c0 -38 -26 -58 -50 -58c-26 0 -44 19 -44 43c0 14 9 31 29 43c-21 19 -49 32 -79 40l-76 -248c73 -37 149 -79 149 -174c0 -110 -91 -178 -222 -178c-13 0 -25 0 -36 2l-31 -105zM431 174c0 62 -51 94 -111 125l-76 -248c8 -1 17 -1 26 -1c94 0 161 46 161 124zM201 491
c0 -60 45 -91 100 -120l72 236c-8 0 -17 1 -24 1c-81 -1 -148 -47 -148 -117z" />
    <glyph glyph-name="sterling" unicode="&#xa3;" horiz-adv-x="472" 
d="M460 408c0 -30 -19 -53 -44 -53c-20 0 -37 15 -37 38c0 16 8 30 19 36c-6 17 -41 33 -81 33c-90 0 -140 -70 -140 -177c0 -38 6 -75 8 -115h173l-11 -44h-162c-3 -64 -25 -122 -84 -169c23 -3 40 -9 69 -19c49 -18 72 -22 101 -22c38 0 72 11 111 40l24 -35
c-41 -37 -91 -51 -138 -51c-41 0 -65 9 -114 28c-44 17 -63 23 -88 23c-32 -34 -63 -47 -87 -47c-19 0 -34 13 -34 32c0 35 50 55 111 54c53 47 78 113 82 166h-101l11 44h90c-3 36 -9 74 -9 116c0 128 71 223 190 223c84 0 141 -55 141 -101z" />
    <glyph glyph-name="sterling.lin" horiz-adv-x="549" 
d="M405 257h-160c-2 -74 -23 -131 -89 -173c38 -6 60 -13 78 -19c36 -13 51 -24 114 -24c16 0 60 7 103 37l28 -39c-41 -37 -100 -51 -142 -51c-54 0 -86 15 -124 29c-27 10 -57 19 -100 20c-21 -31 -59 -50 -81 -50c-26 0 -41 12 -41 34c0 29 28 55 107 60
c69 53 93 105 94 176h-107l11 46h93c-4 38 -11 78 -11 122c0 141 84 245 216 245c74 0 147 -50 147 -107c0 -35 -20 -56 -48 -56c-26 0 -46 19 -46 44c0 15 9 32 19 38c-6 12 -36 29 -74 29c-102 0 -160 -91 -160 -192c0 -40 8 -81 11 -123h173z" />
    <glyph glyph-name="Euro" unicode="&#x20ac;" horiz-adv-x="566" 
d="M30 210h58c0 27 4 54 12 80h-60l10 43h67c46 99 145 174 257 174c129 0 179 -79 179 -130c0 -30 -20 -59 -50 -59c-20 0 -37 12 -37 39c0 12 12 34 29 40c-14 32 -50 62 -123 62c-85 0 -159 -54 -199 -126h197l-10 -43h-206c-9 -26 -14 -53 -14 -80h210l-10 -43h-197
c16 -84 84 -128 164 -128c56 0 111 19 162 58l27 -39c-57 -41 -116 -67 -197 -67c-102 0 -190 62 -208 176h-71z" />
    <glyph glyph-name="Euro.lin" horiz-adv-x="732" 
d="M492 376h-275c-9 -34 -14 -70 -15 -106h266l-12 -48h-252c12 -104 82 -182 201 -182c86 0 147 36 205 94l37 -36c-66 -67 -151 -110 -247 -110c-141 0 -239 100 -254 234h-110l12 48h96c1 36 6 71 16 106h-88l11 48h93c55 139 177 245 322 245c152 0 211 -103 211 -158
c0 -43 -26 -66 -52 -66c-29 0 -46 17 -46 41c0 19 15 37 33 47c-9 36 -50 85 -148 85c-117 0 -214 -81 -262 -194h269z" />
    <glyph glyph-name="yen" unicode="&#xa5;" horiz-adv-x="481" 
d="M80 221l10 43h110l-78 191h-57l11 46h172l-9 -46h-69l79 -198l168 198h-67l11 46h174l-10 -46h-53l-165 -191h103l-10 -43h-139l-13 -57h138l-10 -43h-138l-17 -75h77l-11 -46h-197l11 46h76l17 75h-137l10 43h137l13 57h-137z" />
    <glyph glyph-name="yen.lin" horiz-adv-x="623" 
d="M114 266l11 48h144l-105 294h-73l12 50h209l-12 -50h-77l102 -293l232 293h-76l12 50h209l-12 -50h-67l-240 -294h136l-11 -48h-168l-16 -71h168l-11 -48h-168l-22 -97h97l-12 -50h-252l12 50h97l22 97h-168l11 48h168l16 71h-168z" />
    <glyph glyph-name="cent" unicode="&#xa2;" horiz-adv-x="464" 
d="M234 32c-10 0 -20 0 -29 2l-41 -139l-40 11l41 138c-66 24 -111 84 -111 166c0 129 106 252 237 258l31 105l40 -11l-28 -97c74 -12 116 -63 116 -103c0 -29 -21 -52 -47 -52c-15 0 -34 9 -34 37c0 9 8 28 23 33c-12 19 -37 36 -74 40l-100 -339c8 -1 16 -2 25 -2
c52 0 108 21 149 60l-3 -55c-42 -33 -96 -52 -155 -52zM107 211c0 -57 28 -99 72 -119l98 327c-95 -13 -170 -108 -170 -208z" />
    <glyph glyph-name="cent.lin" horiz-adv-x="464" 
d="M233 121c-10 0 -20 0 -29 2l-41 -139l-40 11l41 138c-66 24 -111 84 -111 166c0 129 106 252 237 258l34 115l40 -11l-31 -107c74 -12 116 -63 116 -103c0 -29 -21 -52 -47 -52c-15 0 -34 9 -34 37c0 9 8 28 23 33c-12 19 -37 36 -74 40l-100 -339c8 -1 16 -2 25 -2
c52 0 108 21 149 60l-3 -55c-42 -33 -96 -52 -155 -52zM106 300c0 -57 28 -99 72 -119l98 327c-95 -13 -170 -108 -170 -208z" />
    <glyph glyph-name="numbersign" unicode="#" horiz-adv-x="519" 
d="M67 328l12 46h107l35 127h46l-35 -127h138l35 127h46l-35 -127h96l-12 -46h-97l-42 -152h107l-12 -46h-107l-36 -130h-46l36 130h-139l-35 -130h-46l36 130h-96l12 46h96l42 152h-106zM219 328l-42 -152h138l42 152h-138z" />
    <glyph glyph-name="numbersign.lin" horiz-adv-x="578" 
d="M524 657l-53 -191h128l-13 -46h-128l-53 -190h133l-13 -46h-133l-51 -184h-52l51 184h-129l-51 -184h-52l51 184h-128l13 46h128l53 190h-133l13 46h133l53 191h52l-54 -191h130l53 191h52zM276 420l-52 -190h129l53 190h-130z" />
    <glyph glyph-name="paragraph" unicode="&#xb6;" horiz-adv-x="562" 
d="M131 0l12 44h80s37 143 39 143c-103 0 -154 17 -190 52c-20 20 -32 47 -32 81c0 120 116 182 261 182l272 -1l-12 -46h-76l-110 -409h76l-12 -46h-308zM272 44h54l110 413h-54z" />
    <glyph glyph-name="paragraph.lin" horiz-adv-x="667" 
d="M211 0l12 50h83l45 195h-34c-157 0 -231 70 -231 182c0 134 115 231 276 231h352l-11 -50h-89l-129 -558h89l-12 -50h-351zM363 47h65l130 564h-65z" />
    <glyph glyph-name="section" unicode="&#xa7;" horiz-adv-x="414" 
d="M263 466c-45 0 -79 -20 -79 -46c0 -32 34 -47 86 -68c56 -23 107 -47 107 -98c0 -49 -47 -80 -115 -94c28 -18 44 -40 44 -71c0 -53 -53 -98 -136 -98c-89 0 -131 45 -131 82c0 22 16 41 37 41s35 -16 35 -34c0 -9 -4 -19 -10 -25c9 -9 36 -18 70 -18c43 0 78 18 78 44
c0 30 -33 46 -84 67c-57 23 -109 47 -109 100c0 45 49 79 116 92c-29 19 -44 41 -44 73c0 53 53 96 136 96c85 0 130 -47 130 -83c0 -23 -16 -40 -36 -40c-21 0 -35 17 -35 35c0 9 3 19 10 26c-8 8 -38 19 -70 19zM197 191c8 -3 15 -7 22 -10c63 11 101 34 101 65
c0 28 -37 45 -83 63l-26 10c-61 -11 -97 -38 -97 -66c0 -27 36 -43 83 -62z" />
    <glyph glyph-name="section.lin" horiz-adv-x="499" 
d="M71 333c0 63 73 103 156 120c-41 24 -61 53 -61 95c0 72 77 122 175 122c69 0 115 -23 142 -51c17 -18 26 -38 26 -55c0 -26 -16 -50 -44 -50c-27 0 -43 21 -43 41c0 15 5 25 17 37c-2 4 -8 10 -20 15c-18 8 -47 15 -81 15c-70 0 -115 -34 -115 -70c0 -50 53 -73 121 -98
c78 -29 143 -56 143 -129c0 -61 -67 -102 -156 -121c40 -24 61 -52 61 -94c0 -72 -77 -122 -175 -122c-70 0 -118 24 -144 53c-16 17 -24 37 -24 53c0 26 16 50 44 50c27 0 43 -21 43 -41c0 -15 -5 -25 -17 -37c1 -4 7 -8 16 -13c18 -9 48 -17 85 -17c70 0 115 34 115 70
c0 50 -53 73 -121 98c-78 29 -143 56 -143 129zM316 414c-14 5 -26 9 -38 14c-85 -12 -149 -51 -149 -96c0 -44 55 -67 113 -88c13 -5 25 -10 37 -14c86 12 150 51 150 96c0 44 -57 68 -113 88z" />
    <glyph glyph-name="ordfeminine" unicode="&#xaa;" horiz-adv-x="339" 
d="M153 408c-56 0 -97 40 -97 106c0 87 66 158 139 158c45 0 72 -24 83 -56l13 53h38l-45 -188c-2 -9 -3 -17 -3 -23c0 -12 5 -17 15 -17c12 0 23 11 35 39l24 -11c-13 -38 -35 -60 -63 -60c-32 0 -48 19 -49 48c-21 -28 -50 -49 -90 -49zM161 445c61 0 100 66 100 119
c0 41 -23 71 -66 71c-55 0 -97 -58 -97 -119c0 -43 23 -71 63 -71zM29 305l10 37h265l-10 -37h-265z" />
    <glyph glyph-name="ordmasculine" unicode="&#xba;" horiz-adv-x="332" 
d="M188 409c-68 0 -107 48 -107 109c0 81 60 153 141 153c68 0 107 -48 107 -109c0 -81 -60 -153 -141 -153zM44 305l10 37h228l-10 -37h-228zM190 446c57 0 99 52 99 114c0 43 -28 74 -69 74c-57 0 -99 -52 -99 -114c0 -43 28 -74 69 -74z" />
    <glyph glyph-name="ordfeminine.lin" horiz-adv-x="339" 
d="M170 483c-56 0 -97 40 -97 106c0 87 66 158 139 158c45 0 72 -24 83 -56l13 53h38l-45 -188c-2 -9 -3 -17 -3 -23c0 -12 5 -17 15 -17c12 0 23 11 35 39l24 -11c-13 -38 -35 -60 -63 -60c-32 0 -48 19 -49 48c-21 -28 -50 -49 -90 -49zM178 520c61 0 100 66 100 119
c0 41 -23 71 -66 71c-55 0 -97 -58 -97 -119c0 -43 23 -71 63 -71zM46 380l10 37h265l-10 -37h-265z" />
    <glyph glyph-name="ordmasculine.lin" horiz-adv-x="332" 
d="M205 484c-68 0 -107 48 -107 109c0 81 60 153 141 153c68 0 107 -48 107 -109c0 -81 -60 -153 -141 -153zM61 380l10 37h228l-10 -37h-228zM207 521c57 0 99 52 99 114c0 43 -28 74 -69 74c-57 0 -99 -52 -99 -114c0 -43 28 -74 69 -74z" />
    <glyph glyph-name="degree" unicode="&#xb0;" horiz-adv-x="322" 
d="M191 421c-63 0 -100 47 -100 104c0 72 57 146 134 146c63 0 100 -47 100 -104c0 -72 -57 -146 -134 -146zM194 460c51 0 91 52 91 103c0 41 -27 69 -63 69c-51 0 -91 -52 -91 -103c0 -41 27 -69 63 -69z" />
    <glyph glyph-name="degree.lin" horiz-adv-x="322" 
d="M208 496c-63 0 -100 47 -100 104c0 72 57 146 134 146c63 0 100 -47 100 -104c0 -72 -57 -146 -134 -146zM211 535c51 0 91 52 91 103c0 41 -27 69 -63 69c-51 0 -91 -52 -91 -103c0 -41 27 -69 63 -69z" />
    <glyph glyph-name="percent" unicode="%" horiz-adv-x="605" 
d="M166 270c-61 0 -95 44 -95 99c0 69 55 141 129 141c61 0 95 -44 95 -99c0 -69 -55 -141 -129 -141zM424 -8c-61 0 -95 44 -95 99c0 69 55 141 129 141c61 0 95 -44 95 -99c0 -69 -55 -141 -129 -141zM69 -9l-28 31l252 240l260 247l28 -31l-259 -246zM167 306
c42 0 86 48 86 107c0 35 -21 61 -54 61c-42 0 -86 -48 -86 -107c0 -35 21 -61 54 -61zM425 28c42 0 86 48 86 107c0 35 -21 61 -54 61c-42 0 -86 -48 -86 -107c0 -35 21 -61 54 -61z" />
    <glyph glyph-name="perthousand" unicode="&#x2030;" horiz-adv-x="830" 
d="M166 270c-61 0 -95 44 -95 99c0 69 55 141 129 141c61 0 95 -44 95 -99c0 -69 -55 -141 -129 -141zM424 -8c-61 0 -95 44 -95 99c0 69 55 141 129 141c61 0 95 -44 95 -99c0 -69 -55 -141 -129 -141zM677 -8c-61 0 -95 44 -95 99c0 69 55 141 129 141c61 0 95 -44 95 -99
c0 -69 -55 -141 -129 -141zM69 -9l-28 31l252 240l260 247l28 -31l-259 -246zM425 28c42 0 86 48 86 107c0 35 -21 61 -54 61c-42 0 -86 -48 -86 -107c0 -35 21 -61 54 -61zM678 28c42 0 86 48 86 107c0 35 -21 61 -54 61c-42 0 -86 -48 -86 -107c0 -35 21 -61 54 -61z
M167 306c42 0 86 48 86 107c0 35 -21 61 -54 61c-42 0 -86 -48 -86 -107c0 -35 21 -61 54 -61z" />
    <glyph glyph-name="percent.lin" horiz-adv-x="681" 
d="M225 382c-73 0 -116 54 -116 120c0 83 66 168 154 168c73 0 116 -54 116 -120c0 -83 -66 -168 -154 -168zM475 -8c-73 0 -116 54 -116 120c0 83 66 168 154 168c73 0 116 -54 116 -120c0 -83 -66 -168 -154 -168zM71 -9l-34 30l315 325l315 325l34 -30l-315 -325zM478 37
c59 0 104 60 104 119c0 47 -30 79 -72 79c-59 0 -104 -60 -104 -119c0 -47 30 -79 72 -79zM228 427c59 0 104 60 104 119c0 47 -30 79 -72 79c-59 0 -104 -60 -104 -119c0 -47 30 -79 72 -79z" />
    <glyph glyph-name="perthousand.lin" horiz-adv-x="1014" 
d="M225 382c-73 0 -116 54 -116 120c0 83 66 168 154 168c73 0 116 -54 116 -120c0 -83 -66 -168 -154 -168zM475 -8c-73 0 -116 54 -116 120c0 83 66 168 154 168c73 0 116 -54 116 -120c0 -83 -66 -168 -154 -168zM808 -8c-73 0 -116 54 -116 120c0 83 66 168 154 168
c73 0 116 -54 116 -120c0 -83 -66 -168 -154 -168zM71 -9l-34 30l315 325l315 325l34 -30l-315 -325zM478 37c59 0 104 60 104 119c0 47 -30 79 -72 79c-59 0 -104 -60 -104 -119c0 -47 30 -79 72 -79zM811 37c59 0 104 60 104 119c0 47 -30 79 -72 79
c-59 0 -104 -60 -104 -119c0 -47 30 -79 72 -79zM228 427c59 0 104 60 104 119c0 47 -30 79 -72 79c-59 0 -104 -60 -104 -119c0 -47 30 -79 72 -79z" />
    <glyph glyph-name="quotedbl" unicode="&#x22;" horiz-adv-x="281" 
d="M214 440l26 180c5 37 25 50 43 50c24 0 38 -16 38 -37c0 -8 -2 -17 -6 -26l-82 -167h-19zM86 440l26 180c5 37 25 50 43 50c24 0 38 -16 38 -37c0 -8 -2 -17 -6 -26l-82 -167h-19z" />
    <glyph glyph-name="quotesingle" unicode="'" horiz-adv-x="153" 
d="M86 440l26 180c5 37 25 50 43 50c24 0 38 -16 38 -37c0 -8 -2 -17 -6 -26l-82 -167h-19z" />
    <glyph glyph-name="quotedbl.lin" horiz-adv-x="281" 
d="M231 515l26 180c5 37 25 50 43 50c24 0 38 -16 38 -37c0 -8 -2 -17 -6 -26l-82 -167h-19zM103 515l26 180c5 37 25 50 43 50c24 0 38 -16 38 -37c0 -8 -2 -17 -6 -26l-82 -167h-19z" />
    <glyph glyph-name="quotesingle.lin" horiz-adv-x="153" 
d="M103 515l26 180c5 37 25 50 43 50c24 0 38 -16 38 -37c0 -8 -2 -17 -6 -26l-82 -167h-19z" />
    <glyph glyph-name="plus" unicode="+" horiz-adv-x="399" 
d="M273 420l-30 -131h135l-11 -48h-135l-35 -151h-50l35 151h-135l11 48h135l30 131h50z" />
    <glyph glyph-name="plus.lin" horiz-adv-x="399" 
d="M290 495l-30 -131h135l-11 -48h-135l-35 -151h-50l35 151h-135l11 48h135l30 131h50z" />
    <glyph glyph-name="minus" unicode="&#x2212;" horiz-adv-x="399" 
d="M47 241l11 48h320l-11 -48h-320z" />
    <glyph glyph-name="minus.lin" horiz-adv-x="399" 
d="M64 316l11 48h320l-11 -48h-320z" />
    <glyph glyph-name="divide" unicode="&#xf7;" horiz-adv-x="399" 
d="M47 241l11 48h320l-11 -48h-320zM243 353c-23 0 -42 20 -42 43s19 43 42 43c22 0 41 -20 41 -43s-19 -43 -41 -43zM182 91c-23 0 -42 20 -42 43s19 43 42 43c22 0 41 -20 41 -43s-19 -43 -41 -43z" />
    <glyph glyph-name="divide.lin" horiz-adv-x="399" 
d="M64 316l11 48h320l-11 -48h-320zM260 428c-23 0 -42 20 -42 43s19 43 42 43c22 0 41 -20 41 -43s-19 -43 -41 -43zM199 166c-23 0 -42 20 -42 43s19 43 42 43c22 0 41 -20 41 -43s-19 -43 -41 -43z" />
    <glyph glyph-name="equal" unicode="=" horiz-adv-x="399" 
d="M85 306l11 48h280l-11 -48h-280zM50 157l11 48h280l-11 -48h-280z" />
    <glyph glyph-name="equal.lin" horiz-adv-x="399" 
d="M99 381l11 48h280l-11 -48h-280zM64 232l11 48h280l-11 -48h-280z" />
    <glyph glyph-name="multiply" unicode="&#xd7;" horiz-adv-x="399" 
d="M133 409l82 -107l126 101l32 -40l-126 -102l83 -106l-42 -34l-83 107l-125 -101l-32 40l126 101l-83 107z" />
    <glyph glyph-name="multiply.lin" horiz-adv-x="399" 
d="M139 484l82 -107l126 101l32 -40l-126 -102l83 -106l-42 -34l-83 107l-125 -101l-32 40l126 101l-83 107z" />
    <glyph glyph-name="less" unicode="&#x3c;" horiz-adv-x="399" 
d="M263 84l-212 163l5 20l279 159l24 -38l-236 -134l171 -132z" />
    <glyph glyph-name="less.lin" horiz-adv-x="399" 
d="M276 159l-212 163l5 20l279 159l24 -38l-236 -134l171 -132z" />
    <glyph glyph-name="greater" unicode="&#x3e;" horiz-adv-x="399" 
d="M86 88l-24 38l236 134l-171 132l31 38l212 -163l-5 -20z" />
    <glyph glyph-name="greater.lin" horiz-adv-x="399" 
d="M98 163l-24 38l236 134l-171 132l31 38l212 -163l-5 -20z" />
    <glyph glyph-name="plusminus" unicode="&#xb1;" horiz-adv-x="399" 
d="M290 463l-32 -136h136l-11 -48h-136l-31 -136h-50l31 136h-134l11 48h134l32 136h50zM3 16l11 48h319l-11 -48h-319z" />
    <glyph glyph-name="plusminus.lin" horiz-adv-x="399" 
d="M300 538l-32 -136h136l-11 -48h-136l-31 -136h-50l31 136h-134l11 48h134l32 136h50zM13 91l11 48h319l-11 -48h-319z" />
    <glyph glyph-name="onehalf" unicode="&#xbd;" horiz-adv-x="795" 
d="M457 0c-1 0 -8 20 -8 20c31 75 84 119 168 164c59 32 89 57 89 93c0 31 -27 52 -67 52c-43 0 -66 -16 -74 -28c8 -8 12 -16 12 -25c0 -17 -13 -30 -30 -30c-18 0 -31 14 -31 35c0 37 47 88 126 88c65 0 110 -37 110 -92c0 -56 -48 -88 -118 -126
c-67 -37 -107 -70 -129 -114h159l13 57h39l-21 -94h-238zM60 280l9 39h102l65 279l-103 -20v40l135 29l20 -10l-73 -318h100l-9 -39h-246zM166 -12l-27 23c39 47 175 206 269 318s226 273 264 319l27 -23c-39 -47 -175 -206 -269 -318s-226 -273 -264 -319z" />
    <glyph glyph-name="onethird" unicode="&#x2153;" horiz-adv-x="795" 
d="M73 280l9 39h102l65 279l-103 -20v40l135 29l20 -10l-73 -318h100l-9 -39h-246zM590 -5c-65 0 -118 36 -118 78c0 18 13 35 31 35c17 0 28 -13 28 -28c0 -8 -6 -18 -14 -22c9 -12 36 -25 75 -25c54 0 88 28 88 68c0 36 -40 67 -95 67h-14l9 39h15c69 0 109 30 109 67
s-33 55 -74 55c-26 0 -45 -7 -53 -17c6 -3 10 -11 10 -18c0 -17 -14 -28 -29 -28c-17 0 -30 13 -30 33c0 33 40 69 111 69c65 0 111 -39 111 -90c0 -54 -46 -86 -102 -93c47 -12 77 -44 77 -85c0 -67 -64 -105 -135 -105zM178 -12l-27 23c39 47 175 206 269 318
s226 273 264 319l27 -23c-39 -47 -175 -206 -269 -318s-226 -273 -264 -319z" />
    <glyph glyph-name="twothirds" unicode="&#x2154;" horiz-adv-x="795" 
d="M74 280c-1 0 -8 20 -8 20c31 75 84 119 168 164c59 32 89 57 89 93c0 31 -27 52 -67 52c-43 0 -66 -16 -74 -28c8 -8 12 -16 12 -25c0 -17 -13 -30 -30 -30c-18 0 -31 14 -31 35c0 37 47 88 126 88c65 0 110 -37 110 -92c0 -56 -48 -88 -118 -126
c-67 -37 -107 -70 -129 -114h159l13 57h39l-21 -94h-238zM588 -5c-65 0 -118 36 -118 78c0 18 13 35 31 35c17 0 28 -13 28 -28c0 -8 -6 -18 -14 -22c9 -12 36 -25 75 -25c54 0 88 28 88 68c0 36 -40 67 -95 67h-14l9 39h15c69 0 109 30 109 67s-33 55 -74 55
c-26 0 -45 -7 -53 -17c6 -3 10 -11 10 -18c0 -17 -14 -28 -29 -28c-17 0 -30 13 -30 33c0 33 40 69 111 69c65 0 111 -39 111 -90c0 -54 -46 -86 -102 -93c47 -12 77 -44 77 -85c0 -67 -64 -105 -135 -105zM177 -12l-27 23c39 47 175 206 269 318s226 273 264 319l27 -23
c-39 -47 -175 -206 -269 -318s-226 -273 -264 -319z" />
    <glyph glyph-name="onequarter" unicode="&#xbc;" horiz-adv-x="795" 
d="M601 35l17 71h-166l-5 19l241 247l27 -25l-205 -207h117l19 77l44 17l-21 -92h61l-9 -36h-61l-16 -71h49l-8 -35h-156l8 35h64zM71 280l9 39h102l65 279l-103 -20v40l135 29l20 -10l-73 -318h100l-9 -39h-246zM182 -12l-27 23c39 47 175 206 269 318s226 273 264 319
l27 -23c-39 -47 -175 -206 -269 -318s-226 -273 -264 -319z" />
    <glyph glyph-name="threequarters" unicode="&#xbe;" horiz-adv-x="795" 
d="M204 275c-65 0 -118 36 -118 78c0 18 13 35 31 35c17 0 28 -13 28 -28c0 -8 -6 -18 -14 -22c9 -12 36 -25 75 -25c54 0 88 28 88 68c0 36 -40 67 -95 67h-14l9 39h15c69 0 109 30 109 67s-33 55 -74 55c-26 0 -45 -7 -53 -17c6 -3 10 -11 10 -18c0 -17 -14 -28 -29 -28
c-17 0 -30 13 -30 33c0 33 40 69 111 69c65 0 111 -39 111 -90c0 -54 -46 -86 -102 -93c47 -12 77 -44 77 -85c0 -67 -64 -105 -135 -105zM593 35l17 71h-166l-5 19l241 247l27 -25l-205 -207h117l19 77l44 17l-21 -92h61l-9 -36h-61l-16 -71h49l-8 -35h-156l8 35h64z
M172 -12l-27 23c39 47 175 206 269 318s226 273 264 319l27 -23c-39 -47 -175 -206 -269 -318s-226 -273 -264 -319z" />
    <glyph glyph-name="onefifth" unicode="&#x2155;" horiz-adv-x="795" 
d="M69 280l9 39h102l65 279l-103 -20v40l135 29l20 -10l-73 -318h100l-9 -39h-246zM571 -7c-57 0 -107 32 -107 66c0 19 13 33 30 33c16 0 28 -11 28 -27c0 -6 -2 -12 -7 -17c9 -8 28 -17 60 -17c61 0 107 45 107 93c0 41 -25 66 -72 66c-28 0 -57 -7 -79 -17l-21 16l56 173
h191l-9 -41h-156l-35 -107c17 7 38 13 67 13c56 0 102 -38 102 -99c0 -71 -66 -135 -155 -135zM173 -12l-27 23c39 47 175 206 269 318s226 273 264 319l27 -23c-39 -47 -175 -206 -269 -318s-226 -273 -264 -319z" />
    <glyph glyph-name="twofifths" unicode="&#x2156;" horiz-adv-x="795" 
d="M93 280c-1 0 -8 20 -8 20c31 75 84 119 168 164c59 32 89 57 89 93c0 31 -27 52 -67 52c-43 0 -66 -16 -74 -28c8 -8 12 -16 12 -25c0 -17 -13 -30 -30 -30c-18 0 -31 14 -31 35c0 37 47 88 126 88c65 0 110 -37 110 -92c0 -56 -48 -88 -118 -126
c-67 -37 -107 -70 -129 -114h159l13 57h39l-21 -94h-238zM575 -7c-57 0 -107 32 -107 66c0 19 13 33 30 33c16 0 28 -11 28 -27c0 -6 -2 -12 -7 -17c9 -8 28 -17 60 -17c61 0 107 45 107 93c0 41 -25 66 -72 66c-28 0 -57 -7 -79 -17l-21 16l56 173h191l-9 -41h-156
l-35 -107c17 7 38 13 67 13c56 0 102 -38 102 -99c0 -71 -66 -135 -155 -135zM189 -12l-27 23c39 47 175 206 269 318s226 273 264 319l27 -23c-39 -47 -175 -206 -269 -318s-226 -273 -264 -319z" />
    <glyph glyph-name="threefifths" unicode="&#x2157;" horiz-adv-x="795" 
d="M206 275c-65 0 -118 36 -118 78c0 18 13 35 31 35c17 0 28 -13 28 -28c0 -8 -6 -18 -14 -22c9 -12 36 -25 75 -25c54 0 88 28 88 68c0 36 -40 67 -95 67h-14l9 39h15c69 0 109 30 109 67s-33 55 -74 55c-26 0 -45 -7 -53 -17c6 -3 10 -11 10 -18c0 -17 -14 -28 -29 -28
c-17 0 -30 13 -30 33c0 33 40 69 111 69c65 0 111 -39 111 -90c0 -54 -46 -86 -102 -93c47 -12 77 -44 77 -85c0 -67 -64 -105 -135 -105zM567 -7c-57 0 -107 32 -107 66c0 19 13 33 30 33c16 0 28 -11 28 -27c0 -6 -2 -12 -7 -17c9 -8 28 -17 60 -17c61 0 107 45 107 93
c0 41 -25 66 -72 66c-28 0 -57 -7 -79 -17l-21 16l56 173h191l-9 -41h-156l-35 -107c17 7 38 13 67 13c56 0 102 -38 102 -99c0 -71 -66 -135 -155 -135zM167 -12l-27 23c39 47 175 206 269 318s226 273 264 319l27 -23c-39 -47 -175 -206 -269 -318s-226 -273 -264 -319z
" />
    <glyph glyph-name="fourfifths" unicode="&#x2158;" horiz-adv-x="795" 
d="M576 -7c-57 0 -107 32 -107 66c0 19 13 33 30 33c16 0 28 -11 28 -27c0 -6 -2 -12 -7 -17c9 -8 28 -17 60 -17c61 0 107 45 107 93c0 41 -25 66 -72 66c-28 0 -57 -7 -79 -17l-21 16l56 173h191l-9 -41h-156l-35 -107c17 7 38 13 67 13c56 0 102 -38 102 -99
c0 -71 -66 -135 -155 -135zM234 315l17 71h-166l-5 19l241 247l27 -25l-205 -207h117l19 77l44 17l-21 -92h61l-9 -36h-61l-16 -71h49l-8 -35h-156l8 35h64zM177 -12l-27 23c39 47 175 206 269 318s226 273 264 319l27 -23c-39 -47 -175 -206 -269 -318s-226 -273 -264 -319
z" />
    <glyph glyph-name="onesixth" unicode="&#x2159;" horiz-adv-x="795" 
d="M504 25c-23 23 -35 55 -35 100c0 74 31 151 80 197c31 29 66 47 109 47c52 0 91 -30 91 -63c0 -19 -14 -33 -31 -33c-14 0 -28 11 -28 28c0 6 3 14 9 19c-6 6 -19 12 -40 12c-29 0 -58 -13 -82 -36c-30 -28 -54 -76 -63 -124c24 34 60 56 103 56c65 0 108 -44 108 -100
c0 -71 -63 -135 -139 -135c-36 0 -65 15 -82 32zM63 280l9 39h102l65 279l-103 -20v40l135 29l20 -10l-73 -318h100l-9 -39h-246zM169 -12l-27 23c39 47 175 206 269 318s226 273 264 319l27 -23c-39 -47 -175 -206 -269 -318s-226 -273 -264 -319zM587 32c52 0 93 43 93 93
c0 38 -27 66 -71 66c-52 0 -95 -45 -95 -90c0 -19 7 -36 20 -49c12 -12 30 -20 53 -20z" />
    <glyph glyph-name="fivesixths" unicode="&#x215a;" horiz-adv-x="795" 
d="M498 25c-23 23 -35 55 -35 100c0 74 31 151 80 197c31 29 66 47 109 47c52 0 91 -30 91 -63c0 -19 -14 -33 -31 -33c-14 0 -28 11 -28 28c0 6 3 14 9 19c-6 6 -19 12 -40 12c-29 0 -58 -13 -82 -36c-30 -28 -54 -76 -63 -124c24 34 60 56 103 56c65 0 108 -44 108 -100
c0 -71 -63 -135 -139 -135c-36 0 -65 15 -82 32zM186 273c-57 0 -107 32 -107 66c0 19 13 33 30 33c16 0 28 -11 28 -27c0 -6 -2 -12 -7 -17c9 -8 28 -17 60 -17c61 0 107 45 107 93c0 41 -25 66 -72 66c-28 0 -57 -7 -79 -17l-21 16l56 173h191l-9 -41h-156l-35 -107
c17 7 38 13 67 13c56 0 102 -38 102 -99c0 -71 -66 -135 -155 -135zM159 -12l-27 23c39 47 175 206 269 318s226 273 264 319l27 -23c-39 -47 -175 -206 -269 -318s-226 -273 -264 -319zM581 32c52 0 93 43 93 93c0 38 -27 66 -71 66c-52 0 -95 -45 -95 -90
c0 -19 7 -36 20 -49c12 -12 30 -20 53 -20z" />
    <glyph glyph-name="oneeighth" unicode="&#x215b;" horiz-adv-x="795" 
d="M66 280l9 39h102l65 279l-103 -20v40l135 29l20 -10l-73 -318h100l-9 -39h-246zM588 -6c-75 0 -126 46 -126 98c0 56 45 94 96 102c-33 15 -50 44 -50 74c0 49 48 99 126 99c66 0 116 -38 116 -94c0 -47 -37 -79 -85 -91c30 -13 55 -41 55 -79c0 -60 -53 -109 -132 -109z
M625 205c45 0 80 29 80 66c0 33 -29 58 -73 58s-79 -27 -79 -64c0 -35 32 -60 72 -60zM587 33c49 0 88 31 88 71c0 37 -31 65 -79 65c-53 0 -89 -31 -89 -72c0 -35 31 -64 80 -64zM162 -12l-27 23c39 47 175 206 269 318s226 273 264 319l27 -23
c-39 -47 -175 -206 -269 -318s-226 -273 -264 -319z" />
    <glyph glyph-name="threeeighths" unicode="&#x215c;" horiz-adv-x="795" 
d="M206 275c-65 0 -118 36 -118 78c0 18 13 35 31 35c17 0 28 -13 28 -28c0 -8 -6 -18 -14 -22c9 -12 36 -25 75 -25c54 0 88 28 88 68c0 36 -40 67 -95 67h-14l9 39h15c69 0 109 30 109 67s-33 55 -74 55c-26 0 -45 -7 -53 -17c6 -3 10 -11 10 -18c0 -17 -14 -28 -29 -28
c-17 0 -30 13 -30 33c0 33 40 69 111 69c65 0 111 -39 111 -90c0 -54 -46 -86 -102 -93c47 -12 77 -44 77 -85c0 -67 -64 -105 -135 -105zM596 -6c-75 0 -126 46 -126 98c0 56 45 94 96 102c-33 15 -50 44 -50 74c0 49 48 99 126 99c66 0 116 -38 116 -94
c0 -47 -37 -79 -85 -91c30 -13 55 -41 55 -79c0 -60 -53 -109 -132 -109zM633 205c45 0 80 29 80 66c0 33 -29 58 -73 58s-79 -27 -79 -64c0 -35 32 -60 72 -60zM595 33c49 0 88 31 88 71c0 37 -31 65 -79 65c-53 0 -89 -31 -89 -72c0 -35 31 -64 80 -64zM165 -12l-27 23
c39 47 175 206 269 318s226 273 264 319l27 -23c-39 -47 -175 -206 -269 -318s-226 -273 -264 -319z" />
    <glyph glyph-name="fiveeighths" unicode="&#x215d;" horiz-adv-x="795" 
d="M189 273c-57 0 -107 32 -107 66c0 19 13 33 30 33c16 0 28 -11 28 -27c0 -6 -2 -12 -7 -17c9 -8 28 -17 60 -17c61 0 107 45 107 93c0 41 -25 66 -72 66c-28 0 -57 -7 -79 -17l-21 16l56 173h191l-9 -41h-156l-35 -107c17 7 38 13 67 13c56 0 102 -38 102 -99
c0 -71 -66 -135 -155 -135zM581 -6c-75 0 -126 46 -126 98c0 56 45 94 96 102c-33 15 -50 44 -50 74c0 49 48 99 126 99c66 0 116 -38 116 -94c0 -47 -37 -79 -85 -91c30 -13 55 -41 55 -79c0 -60 -53 -109 -132 -109zM618 205c45 0 80 29 80 66c0 33 -29 58 -73 58
s-79 -27 -79 -64c0 -35 32 -60 72 -60zM580 33c49 0 88 31 88 71c0 37 -31 65 -79 65c-53 0 -89 -31 -89 -72c0 -35 31 -64 80 -64zM154 -12l-27 23c39 47 175 206 269 318s226 273 264 319l27 -23c-39 -47 -175 -206 -269 -318s-226 -273 -264 -319z" />
    <glyph glyph-name="seveneighths" unicode="&#x215e;" horiz-adv-x="795" 
d="M141 280l220 325h-162l-14 -61h-41l24 98h241l10 -20l-228 -342h-50zM580 -6c-75 0 -126 46 -126 98c0 56 45 94 96 102c-33 15 -50 44 -50 74c0 49 48 99 126 99c66 0 116 -38 116 -94c0 -47 -37 -79 -85 -91c30 -13 55 -41 55 -79c0 -60 -53 -109 -132 -109zM617 205
c45 0 80 29 80 66c0 33 -29 58 -73 58s-79 -27 -79 -64c0 -35 32 -60 72 -60zM579 33c49 0 88 31 88 71c0 37 -31 65 -79 65c-53 0 -89 -31 -89 -72c0 -35 31 -64 80 -64zM129 -12l-27 23c39 47 175 206 269 318s226 273 264 319l27 -23c-39 -47 -175 -206 -269 -318
s-226 -273 -264 -319z" />
    <glyph glyph-name="zero.sup" unicode="&#x2070;" horiz-adv-x="353" 
d="M241 424c-71 0 -111 55 -111 137c0 123 67 237 164 237c71 0 111 -55 111 -137c0 -123 -67 -237 -164 -237zM244 463c68 0 116 103 116 195c0 60 -21 101 -69 101c-68 0 -116 -103 -116 -195c0 -60 21 -101 69 -101z" />
    <glyph glyph-name="one.sup" unicode="&#xb9;" horiz-adv-x="353" 
d="M114 430l9 39h102l65 279l-103 -20v40l135 29l20 -10l-73 -318h100l-9 -39h-246z" />
    <glyph glyph-name="two.sup" unicode="&#xb2;" horiz-adv-x="353" 
d="M113 430c-1 0 -8 20 -8 20c31 75 84 119 168 164c59 32 89 57 89 93c0 31 -27 52 -67 52c-43 0 -66 -16 -74 -28c8 -8 12 -16 12 -25c0 -17 -13 -30 -30 -30c-18 0 -31 14 -31 35c0 37 47 88 126 88c65 0 110 -37 110 -92c0 -56 -48 -88 -118 -126
c-67 -37 -107 -70 -129 -114h159l13 57h39l-21 -94h-238z" />
    <glyph glyph-name="three.sup" unicode="&#xb3;" horiz-adv-x="353" 
d="M241 425c-65 0 -118 36 -118 78c0 18 13 35 31 35c17 0 28 -13 28 -28c0 -8 -6 -18 -14 -22c9 -12 36 -25 75 -25c54 0 88 28 88 68c0 36 -40 67 -95 67h-14l9 39h15c69 0 109 30 109 67s-33 55 -74 55c-26 0 -45 -7 -53 -17c6 -3 10 -11 10 -18c0 -17 -14 -28 -29 -28
c-17 0 -30 13 -30 33c0 33 40 69 111 69c65 0 111 -39 111 -90c0 -54 -46 -86 -102 -93c47 -12 77 -44 77 -85c0 -67 -64 -105 -135 -105z" />
    <glyph glyph-name="four.sup" unicode="&#x2074;" horiz-adv-x="353" 
d="M267 465l17 71h-166l-5 19l241 247l27 -25l-205 -207h117l19 77l44 17l-21 -92h61l-9 -36h-61l-16 -71h49l-8 -35h-156l8 35h64z" />
    <glyph glyph-name="five.sup" unicode="&#x2075;" horiz-adv-x="353" 
d="M225 423c-57 0 -107 32 -107 66c0 19 13 33 30 33c16 0 28 -11 28 -27c0 -6 -2 -12 -7 -17c9 -8 28 -17 60 -17c61 0 107 45 107 93c0 41 -25 66 -72 66c-28 0 -57 -7 -79 -17l-21 16l56 173h191l-9 -41h-156l-35 -107c17 7 38 13 67 13c56 0 102 -38 102 -99
c0 -71 -66 -135 -155 -135z" />
    <glyph glyph-name="six.sup" unicode="&#x2076;" horiz-adv-x="353" 
d="M171 455c-23 23 -35 55 -35 100c0 74 31 151 80 197c31 29 66 47 109 47c52 0 91 -30 91 -63c0 -19 -14 -33 -31 -33c-14 0 -28 11 -28 28c0 6 3 14 9 19c-6 6 -19 12 -40 12c-29 0 -58 -13 -82 -36c-30 -28 -54 -76 -63 -124c24 34 60 56 103 56c65 0 108 -44 108 -100
c0 -71 -63 -135 -139 -135c-36 0 -65 15 -82 32zM254 462c52 0 93 43 93 93c0 38 -27 66 -71 66c-52 0 -95 -45 -95 -90c0 -19 7 -36 20 -49c12 -12 30 -20 53 -20z" />
    <glyph glyph-name="seven.sup" unicode="&#x2077;" horiz-adv-x="353" 
d="M165 430l220 325h-162l-14 -61h-41l24 98h241l10 -20l-228 -342h-50z" />
    <glyph glyph-name="eight.sup" unicode="&#x2078;" horiz-adv-x="353" 
d="M253 424c-75 0 -126 46 -126 98c0 56 45 94 96 102c-33 15 -50 44 -50 74c0 49 48 99 126 99c66 0 116 -38 116 -94c0 -47 -37 -79 -85 -91c30 -13 55 -41 55 -79c0 -60 -53 -109 -132 -109zM290 635c45 0 80 29 80 66c0 33 -29 58 -73 58s-79 -27 -79 -64
c0 -35 32 -60 72 -60zM252 463c49 0 88 31 88 71c0 37 -31 65 -79 65c-53 0 -89 -31 -89 -72c0 -35 31 -64 80 -64z" />
    <glyph glyph-name="nine.sup" unicode="&#x2079;" horiz-adv-x="353" 
d="M154 664c0 71 63 135 139 135c36 0 65 -15 82 -32c23 -23 35 -55 35 -100c0 -74 -31 -151 -80 -197c-31 -29 -66 -47 -109 -47c-52 0 -91 30 -91 63c0 19 14 33 31 33c14 0 28 -11 28 -28c0 -6 -3 -14 -9 -19c6 -6 19 -12 40 -12c29 0 58 13 82 36c29 28 54 75 63 123
c-24 -33 -60 -55 -103 -55c-65 0 -108 44 -108 100zM292 760c-52 0 -93 -43 -93 -93c0 -38 27 -66 71 -66c52 0 95 45 95 90c0 19 -7 36 -20 49c-12 12 -30 20 -53 20z" />
    <glyph glyph-name="zero.inf" unicode="&#x2080;" horiz-adv-x="353" 
d="M109 -146c-71 0 -111 55 -111 137c0 123 67 237 164 237c71 0 111 -55 111 -137c0 -123 -67 -237 -164 -237zM112 -107c68 0 116 103 116 195c0 60 -21 101 -69 101c-68 0 -116 -103 -116 -195c0 -60 21 -101 69 -101z" />
    <glyph glyph-name="one.inf" unicode="&#x2081;" horiz-adv-x="353" 
d="M-18 -140l9 39h102l65 279l-103 -20v40l135 29l20 -10l-73 -318h100l-9 -39h-246z" />
    <glyph glyph-name="two.inf" unicode="&#x2082;" horiz-adv-x="353" 
d="M-19 -140c-1 0 -8 20 -8 20c31 75 84 119 168 164c59 32 89 57 89 93c0 31 -27 52 -67 52c-43 0 -66 -16 -74 -28c8 -8 12 -16 12 -25c0 -17 -13 -30 -30 -30c-18 0 -31 14 -31 35c0 37 47 88 126 88c65 0 110 -37 110 -92c0 -56 -48 -88 -118 -126
c-67 -37 -107 -70 -129 -114h159l13 57h39l-21 -94h-238z" />
    <glyph glyph-name="three.inf" unicode="&#x2083;" horiz-adv-x="353" 
d="M109 -145c-65 0 -118 36 -118 78c0 18 13 35 31 35c17 0 28 -13 28 -28c0 -8 -6 -18 -14 -22c9 -12 36 -25 75 -25c54 0 88 28 88 68c0 36 -40 67 -95 67h-14l9 39h15c69 0 109 30 109 67s-33 55 -74 55c-26 0 -45 -7 -53 -17c6 -3 10 -11 10 -18c0 -17 -14 -28 -29 -28
c-17 0 -30 13 -30 33c0 33 40 69 111 69c65 0 111 -39 111 -90c0 -54 -46 -86 -102 -93c47 -12 77 -44 77 -85c0 -67 -64 -105 -135 -105z" />
    <glyph glyph-name="four.inf" unicode="&#x2084;" horiz-adv-x="353" 
d="M135 -105l17 71h-166l-5 19l241 247l27 -25l-205 -207h117l19 77l44 17l-21 -92h61l-9 -36h-61l-16 -71h49l-8 -35h-156l8 35h64z" />
    <glyph glyph-name="five.inf" unicode="&#x2085;" horiz-adv-x="353" 
d="M93 -147c-57 0 -107 32 -107 66c0 19 13 33 30 33c16 0 28 -11 28 -27c0 -6 -2 -12 -7 -17c9 -8 28 -17 60 -17c61 0 107 45 107 93c0 41 -25 66 -72 66c-28 0 -57 -7 -79 -17l-21 16l56 173h191l-9 -41h-156l-35 -107c17 7 38 13 67 13c56 0 102 -38 102 -99
c0 -71 -66 -135 -155 -135z" />
    <glyph glyph-name="six.inf" unicode="&#x2086;" horiz-adv-x="353" 
d="M39 -115c-23 23 -35 55 -35 100c0 74 31 151 80 197c31 29 66 47 109 47c52 0 91 -30 91 -63c0 -19 -14 -33 -31 -33c-14 0 -28 11 -28 28c0 6 3 14 9 19c-6 6 -19 12 -40 12c-29 0 -58 -13 -82 -36c-30 -28 -54 -76 -63 -124c24 34 60 56 103 56c65 0 108 -44 108 -100
c0 -71 -63 -135 -139 -135c-36 0 -65 15 -82 32zM122 -108c52 0 93 43 93 93c0 38 -27 66 -71 66c-52 0 -95 -45 -95 -90c0 -19 7 -36 20 -49c12 -12 30 -20 53 -20z" />
    <glyph glyph-name="seven.inf" unicode="&#x2087;" horiz-adv-x="353" 
d="M33 -140l220 325h-162l-14 -61h-41l24 98h241l10 -20l-228 -342h-50z" />
    <glyph glyph-name="eight.inf" unicode="&#x2088;" horiz-adv-x="353" 
d="M121 -146c-75 0 -126 46 -126 98c0 56 45 94 96 102c-33 15 -50 44 -50 74c0 49 48 99 126 99c66 0 116 -38 116 -94c0 -47 -37 -79 -85 -91c30 -13 55 -41 55 -79c0 -60 -53 -109 -132 -109zM158 65c45 0 80 29 80 66c0 33 -29 58 -73 58s-79 -27 -79 -64
c0 -35 32 -60 72 -60zM120 -107c49 0 88 31 88 71c0 37 -31 65 -79 65c-53 0 -89 -31 -89 -72c0 -35 31 -64 80 -64z" />
    <glyph glyph-name="nine.inf" unicode="&#x2089;" horiz-adv-x="353" 
d="M22 94c0 71 63 135 139 135c36 0 65 -15 82 -32c23 -23 35 -55 35 -100c0 -74 -31 -151 -80 -197c-31 -29 -66 -47 -109 -47c-52 0 -91 30 -91 63c0 19 14 33 31 33c14 0 28 -11 28 -28c0 -6 -3 -14 -9 -19c6 -6 19 -12 40 -12c29 0 58 13 82 36c29 28 54 75 63 123
c-24 -33 -60 -55 -103 -55c-65 0 -108 44 -108 100zM160 190c-52 0 -93 -43 -93 -93c0 -38 27 -66 71 -66c52 0 95 45 95 90c0 19 -7 36 -20 49c-12 12 -30 20 -53 20z" />
    <glyph glyph-name="zero.tab" horiz-adv-x="530" 
d="M524 436c0 -238 -132 -449 -289 -449c-110 0 -175 94 -175 234c0 238 132 449 289 449c110 0 175 -94 175 -234zM120 226c0 -105 39 -186 122 -186c124 0 222 206 222 391c0 105 -39 186 -122 186c-124 0 -222 -206 -222 -391z" />
    <glyph glyph-name="one.tab" horiz-adv-x="530" 
d="M23 0l12 50h169l130 550l-168 -41v52l213 54l24 -12l-142 -603h166l-12 -50h-392z" />
    <glyph glyph-name="two.tab" horiz-adv-x="530" 
d="M89 50h293l22 99h56l-34 -149h-401l-9 25c50 125 111 202 282 298c120 68 166 118 166 186c0 63 -50 109 -124 109c-81 0 -129 -38 -144 -65c15 -14 23 -26 23 -42c0 -25 -19 -45 -46 -45c-24 0 -46 21 -46 51c0 64 83 153 216 153c111 0 182 -70 182 -158
c0 -100 -72 -156 -204 -233c-139 -81 -196 -146 -232 -229z" />
    <glyph glyph-name="three.tab" horiz-adv-x="530" 
d="M326 339c80 -23 143 -76 143 -158c0 -113 -109 -189 -237 -189c-111 0 -206 65 -206 130c0 28 18 57 49 57c28 0 42 -20 42 -39c0 -15 -12 -34 -32 -39c18 -25 73 -58 150 -58c106 0 174 58 174 137c0 84 -77 137 -190 137h-20l11 50h25c146 0 216 64 216 139
c0 71 -65 111 -141 111c-61 0 -105 -24 -122 -46c16 -6 27 -21 27 -37c0 -24 -23 -38 -43 -38c-24 0 -45 20 -45 48c0 66 84 125 193 125c106 0 191 -68 191 -158c0 -102 -92 -155 -185 -172z" />
    <glyph glyph-name="four.tab" horiz-adv-x="530" 
d="M438 424l-41 -179h113l-11 -49h-114l-33 -146h96l-11 -50h-273l11 50h120l33 146h-294l-4 22l431 454l38 -34l-377 -393h218l35 153z" />
    <glyph glyph-name="five.tab" horiz-adv-x="530" 
d="M211 -12c-92 0 -180 55 -180 114c0 26 18 50 45 50c22 0 40 -15 40 -38c0 -11 -5 -25 -18 -33c19 -22 58 -43 119 -43c127 0 206 92 206 189c0 84 -57 130 -141 130c-55 0 -99 -10 -143 -28l-23 20l103 309h323l-12 -54h-277l-73 -217c25 11 61 21 107 21
c117 0 195 -71 195 -177c0 -120 -103 -243 -271 -243z" />
    <glyph glyph-name="six.tab" horiz-adv-x="530" 
d="M493 515c-19 0 -42 13 -42 42c0 10 4 25 20 36c-9 12 -33 28 -78 28c-52 0 -100 -23 -142 -65c-56 -54 -105 -153 -121 -251c32 48 96 106 187 106c115 0 185 -80 185 -179c0 -120 -106 -244 -235 -244c-63 0 -109 26 -137 56c-43 44 -59 99 -59 184
c0 124 51 271 147 364c46 45 104 78 177 78c81 0 146 -49 146 -103c0 -33 -24 -52 -48 -52zM269 39c89 0 171 87 171 191c0 78 -49 131 -127 131c-99 0 -181 -91 -181 -183c0 -38 14 -74 39 -100c23 -24 56 -39 98 -39z" />
    <glyph glyph-name="seven.tab" horiz-adv-x="530" 
d="M89 0l411 608h-315l-23 -99h-55l35 149h432l10 -19l-428 -639h-67z" />
    <glyph glyph-name="eight.tab" horiz-adv-x="530" 
d="M475 499c0 64 -50 118 -140 118c-85 0 -149 -53 -149 -126c0 -70 61 -124 139 -124c84 0 150 58 150 132zM483 182c0 -108 -93 -192 -218 -192c-126 0 -212 77 -212 180c0 105 83 167 169 182c-52 25 -92 83 -92 144c0 86 79 172 205 172c108 0 197 -70 197 -166
c0 -94 -69 -145 -152 -168c52 -21 103 -78 103 -152zM427 181c0 78 -61 136 -152 136c-99 0 -165 -62 -165 -145c0 -71 57 -131 155 -131c87 0 162 60 162 140z" />
    <glyph glyph-name="nine.tab" horiz-adv-x="530" 
d="M101 143c19 0 42 -13 42 -42c0 -10 -4 -25 -20 -36c9 -12 33 -28 78 -28c52 0 100 23 142 65c55 54 104 153 120 250c-32 -47 -95 -105 -186 -105c-114 0 -185 80 -185 179c0 120 106 244 235 244c63 0 109 -26 137 -56c43 -44 59 -99 59 -184c0 -124 -51 -271 -147 -364
c-46 -45 -104 -78 -177 -78c-81 0 -146 49 -146 103c0 33 24 52 48 52zM325 619c-89 0 -171 -87 -171 -191c0 -78 49 -131 131 -131c95 0 177 91 177 183c0 38 -14 74 -39 100c-23 24 -56 39 -98 39z" />
    <glyph glyph-name="period.tab" horiz-adv-x="265" 
d="M109 -10c-32 0 -55 25 -55 57s23 57 55 57s55 -25 55 -57s-23 -57 -55 -57z" />
    <glyph glyph-name="comma.tab" horiz-adv-x="265" 
d="M-6 -138l-11 22c75 33 112 89 115 115c-26 5 -43 29 -43 51c0 29 22 52 53 52c32 0 57 -25 57 -62c0 -61 -52 -138 -171 -178z" />
    <glyph glyph-name="colon.tab" horiz-adv-x="265" 
d="M109 -10c-32 0 -55 25 -55 57s23 57 55 57s55 -25 55 -57s-23 -57 -55 -57zM169 252c-32 0 -55 25 -55 57s23 57 55 57s55 -25 55 -57s-23 -57 -55 -57z" />
    <glyph glyph-name="semicolon.tab" horiz-adv-x="265" 
d="M-6 -138l-11 22c75 33 112 89 115 115c-26 5 -43 29 -43 51c0 29 22 52 53 52c32 0 57 -25 57 -62c0 -61 -52 -138 -171 -178zM169 252c-32 0 -55 25 -55 57s23 57 55 57s55 -25 55 -57s-23 -57 -55 -57z" />
    <glyph glyph-name="twodotleader.tab" horiz-adv-x="530" 
d="M109 -10c-32 0 -55 25 -55 57s23 57 55 57s55 -25 55 -57s-23 -57 -55 -57zM374 -10c-32 0 -55 25 -55 57s23 57 55 57s55 -25 55 -57s-23 -57 -55 -57z" />
    <glyph glyph-name="periodcentered.tab" horiz-adv-x="265" 
d="M146 217c-32 0 -55 25 -55 57s23 57 55 57s55 -25 55 -57s-23 -57 -55 -57z" />
    <glyph glyph-name="slash.tab" horiz-adv-x="530" 
d="M-38 -210l-43 30l649 922l43 -30z" />
    <glyph glyph-name="bar.tab" horiz-adv-x="265" 
d="M109 -200v932h48v-932h-48z" />
    <glyph glyph-name="underscore.tab" horiz-adv-x="530" 
d="M-37 -140l13 52h549l-11 -52h-551z" />
    <glyph glyph-name="dollar.tab" horiz-adv-x="530" 
d="M33 143c0 36 23 60 53 60c26 0 44 -22 44 -40c0 -22 -12 -39 -31 -50c13 -21 47 -44 96 -56l81 261c-67 37 -132 82 -132 174c0 91 84 166 206 166c10 0 21 0 31 -2l27 93l46 -13l-26 -90c66 -21 117 -66 117 -114c0 -38 -26 -58 -50 -58c-26 0 -44 19 -44 43
c0 14 9 31 29 43c-19 19 -45 31 -72 39l-76 -247c70 -38 142 -82 142 -179c0 -107 -88 -173 -215 -173c-13 0 -25 1 -36 2l-31 -105l-46 13l29 102c-84 25 -142 83 -142 131zM417 169c0 64 -48 98 -104 129l-76 -247c8 -1 17 -1 26 -1c90 0 154 44 154 119zM201 496
c0 -59 42 -94 93 -124l72 235c-8 1 -17 1 -24 1c-77 -1 -141 -44 -141 -112z" />
    <glyph glyph-name="sterling.tab" horiz-adv-x="530" 
d="M230 432c0 -40 9 -85 14 -129h161l-11 -46h-148c-2 -72 -26 -131 -89 -173c38 -6 54 -13 72 -19c36 -13 56 -24 111 -24c16 0 57 7 100 37l28 -39c-41 -37 -97 -51 -139 -51c-46 0 -83 15 -121 29c-27 10 -51 19 -94 20c-21 -31 -59 -50 -81 -50c-26 0 -41 12 -41 34
c0 29 28 55 107 60c69 53 93 105 94 176h-107l11 46h93c-5 40 -14 83 -14 128c0 141 82 239 211 239c72 0 143 -50 143 -107c0 -35 -20 -56 -48 -56c-26 0 -46 19 -46 44c0 15 9 32 19 38c-6 12 -35 29 -71 29c-98 0 -154 -85 -154 -186z" />
    <glyph glyph-name="Euro.tab" horiz-adv-x="530" 
d="M339 375h-151c-8 -33 -14 -67 -17 -101h144l-12 -48h-133c1 -114 43 -187 124 -187c53 0 100 36 135 91l40 -33c-47 -67 -112 -110 -183 -110c-107 0 -176 87 -176 239h-76l12 48h65c3 34 9 68 16 101h-60l11 48h62c47 142 141 247 252 247c93 0 142 -70 142 -143
c0 -44 -26 -66 -52 -66c-29 0 -45 19 -45 43c0 19 15 40 37 48c-7 26 -26 66 -87 66c-81 0 -148 -86 -185 -195h148z" />
    <glyph glyph-name="yen.tab" horiz-adv-x="530" 
d="M88 266l11 48h126l-77 294h-63l12 50h209l-12 -50h-87l71 -289l203 289h-86l12 50h209l-12 -50h-57l-215 -294h121l-11 -48h-148l-16 -71h148l-11 -48h-148l-22 -97h97l-12 -50h-252l12 50h97l22 97h-148l11 48h148l16 71h-148z" />
    <glyph glyph-name="cent.tab" horiz-adv-x="530" 
d="M438 228l-3 -55c-44 -33 -104 -52 -166 -52c-10 0 -19 0 -28 1l-41 -138l-40 11l40 136c-71 24 -120 85 -120 168c0 129 111 251 247 258l34 115l40 -11l-31 -106c80 -11 126 -63 126 -104c0 -29 -21 -52 -47 -52c-15 0 -34 9 -34 37c0 9 8 28 23 33
c-14 20 -42 37 -84 40l-100 -340c8 -1 16 -1 24 -1c56 0 116 21 160 60zM133 300c0 -59 33 -102 82 -121l98 329c-100 -15 -180 -109 -180 -208z" />
    <glyph glyph-name="numbersign.tab" horiz-adv-x="530" 
d="M494 657l-53 -191h114l-13 -46h-114l-53 -190h119l-13 -46h-119l-51 -184h-52l51 184h-117l-51 -184h-52l51 184h-114l13 46h114l53 190h-119l13 46h119l53 191h52l-54 -191h118l53 191h52zM258 420l-52 -190h117l53 190h-118z" />
    <glyph glyph-name="paragraph.tab" horiz-adv-x="530" 
d="M232 50l46 195h-8c-119 0 -201 70 -201 182c0 134 115 231 276 231h252l-11 -50h-74l-129 -558h74l-11 -50h-308l11 50h83zM282 47h49l131 564h-49z" />
    <glyph glyph-name="section.tab" horiz-adv-x="530" 
d="M74 333c0 62 75 102 163 119c-46 24 -68 53 -68 96c0 72 83 122 188 122c74 0 125 -23 154 -51c18 -18 27 -38 27 -56c0 -25 -16 -49 -44 -49c-27 0 -43 21 -43 41c0 15 6 26 18 38c-6 5 -14 10 -24 14c-20 8 -52 15 -90 15c-79 0 -129 -34 -129 -70
c0 -50 58 -73 133 -98c85 -29 157 -56 157 -129c0 -60 -70 -100 -163 -120c44 -24 68 -52 68 -95c0 -72 -83 -122 -188 -122c-76 0 -128 23 -156 52c-17 17 -25 38 -25 54c0 26 16 50 44 50c27 0 43 -21 43 -41c0 -15 -5 -25 -17 -37c2 -4 8 -8 19 -13c20 -9 54 -17 95 -17
c78 0 128 34 128 70c0 50 -58 73 -133 98c-86 29 -157 56 -157 129zM333 414c-15 4 -29 9 -42 14c-91 -12 -159 -51 -159 -96c0 -44 61 -67 125 -88l41 -14c92 12 160 51 160 96c0 44 -64 68 -125 88z" />
    <glyph glyph-name="degree.tab" horiz-adv-x="530" 
d="M302 387c-95 0 -151 68 -151 150c0 105 84 210 203 210c95 0 151 -68 151 -150c0 -105 -84 -210 -203 -210zM304 426c89 0 156 83 156 169c0 67 -46 113 -108 113c-89 0 -156 -83 -156 -169c0 -67 46 -113 108 -113z" />
    <glyph glyph-name="percent.tab" horiz-adv-x="530" 
d="M188 382c-56 0 -94 43 -94 105c0 97 60 183 137 183c55 0 93 -43 93 -105c0 -97 -59 -183 -136 -183zM358 -8c-56 0 -94 43 -94 105c0 97 60 183 137 183c55 0 93 -43 93 -105c0 -97 -59 -183 -136 -183zM56 -9l-34 30l510 650l34 -30zM194 426c47 0 83 70 83 132
c0 38 -16 68 -53 68c-47 0 -83 -70 -83 -131c0 -39 16 -69 53 -69zM364 36c47 0 83 70 83 132c0 38 -16 68 -53 68c-47 0 -83 -70 -83 -131c0 -39 16 -69 53 -69z" />
    <glyph glyph-name="quotedbl.tab" horiz-adv-x="530" 
d="M197 477l30 213c5 40 29 55 48 55c25 0 38 -16 38 -39c0 -9 -2 -19 -7 -31l-89 -198h-20zM383 477l30 213c5 40 29 55 48 55c25 0 38 -16 38 -39c0 -9 -2 -19 -7 -31l-89 -198h-20z" />
    <glyph glyph-name="quotesingle.tab" horiz-adv-x="265" 
d="M157 477l30 213c5 40 29 55 48 55c25 0 38 -16 38 -39c0 -9 -2 -19 -7 -31l-89 -198h-20z" />
    <glyph glyph-name="plus.tab" horiz-adv-x="530" 
d="M361 515l-36 -151h156l-11 -48h-156l-39 -171h-50l39 171h-154l11 48h154l36 151h50z" />
    <glyph glyph-name="minus.tab" horiz-adv-x="530" 
d="M110 316l11 48h360l-11 -48h-360z" />
    <glyph glyph-name="divide.tab" horiz-adv-x="530" 
d="M110 316l11 48h360l-11 -48h-360zM331 448c-23 0 -42 20 -42 43s19 43 42 43c22 0 41 -20 41 -43s-19 -43 -41 -43zM260 146c-23 0 -42 20 -42 43s19 43 42 43c22 0 41 -20 41 -43s-19 -43 -41 -43z" />
    <glyph glyph-name="equal.tab" horiz-adv-x="530" 
d="M147 391l11 48h320l-11 -48h-320zM108 222l11 48h320l-11 -48h-320z" />
    <glyph glyph-name="multiply.tab" horiz-adv-x="530" 
d="M187 506l101 -129l147 119l32 -40l-148 -119l101 -129l-42 -34l-101 128l-147 -118l-32 40l147 119l-100 129z" />
    <glyph glyph-name="less.tab" horiz-adv-x="530" 
d="M349 137l-246 186l3 14l328 185l24 -38l-273 -157l195 -152z" />
    <glyph glyph-name="greater.tab" horiz-adv-x="530" 
d="M237 527l246 -186l-3 -14l-328 -185l-24 38l273 157l-195 152z" />
    <glyph glyph-name="plusminus.tab" horiz-adv-x="530" 
d="M372 568l-36 -156h156l-11 -48h-156l-36 -156h-50l36 156h-154l11 48h154l36 156h50zM53 76l11 48h359l-11 -48h-359z" />
    <glyph glyph-name="zero.idx_P2D" horiz-adv-x="1100" 
d="M550 792c272 0 492 -220 492 -492s-220 -492 -492 -492s-492 220 -492 492s220 492 492 492zM550 758c-253 0 -453 -205 -453 -458s200 -458 453 -458s453 205 453 458s-200 458 -453 458zM549 64c-102 0 -184 98 -184 242c0 146 83 243 186 243c102 0 184 -98 184 -242
c0 -146 -82 -243 -186 -243zM550 113c80 0 131 79 131 193c0 115 -51 194 -131 194c-79 0 -131 -78 -131 -193s52 -194 131 -194z" />
    <glyph glyph-name="one.idx_P2D" horiz-adv-x="1100" 
d="M550 792c272 0 492 -220 492 -492s-220 -492 -492 -492s-492 220 -492 492s220 492 492 492zM550 758c-253 0 -453 -205 -453 -458s200 -458 453 -458s453 205 453 458s-200 458 -453 458zM686 73h-269v47h110v365l-104 -23l-11 47l142 33h25v-422h107v-47z" />
    <glyph glyph-name="two.idx_P2D" horiz-adv-x="1100" 
d="M550 792c272 0 492 -220 492 -492s-220 -492 -492 -492s-492 220 -492 492s220 492 492 492zM550 758c-253 0 -453 -205 -453 -458s200 -458 453 -458s453 205 453 458s-200 458 -453 458zM403 439c0 15 5 31 15 46c23 35 71 64 137 64c78 0 147 -52 147 -129
c0 -76 -49 -112 -118 -160c-58 -40 -110 -88 -129 -142h208v73h47v-118h-305c-1 0 -14 23 -14 23c29 98 99 156 163 201c56 39 94 69 94 123c0 48 -45 82 -96 82c-36 0 -66 -11 -82 -26c-6 -5 -9 -10 -11 -15c15 -7 23 -21 23 -34c0 -21 -17 -37 -37 -37
c-26 0 -42 18 -42 49z" />
    <glyph glyph-name="three.idx_P2D" horiz-adv-x="1100" 
d="M550 792c272 0 492 -220 492 -492s-220 -492 -492 -492s-492 220 -492 492s220 492 492 492zM550 758c-253 0 -453 -205 -453 -458s200 -458 453 -458s453 205 453 458s-200 458 -453 458zM393 166c0 24 17 45 39 45c20 0 36 -17 36 -36c0 -13 -7 -23 -17 -29
c13 -18 53 -33 95 -33c67 0 110 40 110 86c0 35 -19 61 -53 77c-23 11 -52 16 -87 16h-18v47h21c35 0 67 9 90 26c21 16 34 37 34 63c0 48 -39 72 -96 72c-39 0 -69 -11 -83 -27c10 -6 18 -16 18 -29c0 -20 -17 -36 -37 -36c-19 0 -39 17 -39 45c0 13 5 28 16 42
c22 28 66 52 128 52c81 0 146 -46 146 -118c0 -38 -21 -71 -53 -91c-15 -10 -31 -17 -50 -21c18 -3 35 -9 50 -17c37 -20 64 -55 64 -101c0 -78 -68 -133 -161 -133c-54 0 -105 20 -132 50c-13 15 -21 32 -21 50z" />
    <glyph glyph-name="four.idx_P2D" horiz-adv-x="1100" 
d="M550 792c272 0 492 -220 492 -492s-220 -492 -492 -492s-492 220 -492 492s220 492 492 492zM550 758c-253 0 -453 -205 -453 -458s200 -458 453 -458s453 205 453 458s-200 458 -453 458zM494 73v45h84v93h-215l-11 22l244 319l40 -29l-208 -269h150v99l52 22v-121h79
v-44h-79v-92h64v-45h-200z" />
    <glyph glyph-name="five.idx_P2D" horiz-adv-x="1100" 
d="M550 792c272 0 492 -220 492 -492s-220 -492 -492 -492s-492 220 -492 492s220 492 492 492zM550 758c-253 0 -453 -205 -453 -458s200 -458 453 -458s453 205 453 458s-200 458 -453 458zM547 64c-82 0 -155 42 -155 85c0 21 14 40 39 40c20 0 36 -17 36 -36
c0 -9 -4 -18 -9 -22c10 -10 51 -20 89 -20c67 0 106 47 106 111c0 54 -33 99 -104 99c-36 0 -90 -12 -114 -23l-23 12l23 230h242v-50h-199l-14 -133c17 6 56 12 91 12c85 0 151 -54 151 -146c0 -100 -70 -159 -159 -159z" />
    <glyph glyph-name="six.idx_P2D" horiz-adv-x="1100" 
d="M550 792c272 0 492 -220 492 -492s-220 -492 -492 -492s-492 220 -492 492s220 492 492 492zM550 758c-253 0 -453 -205 -453 -458s200 -458 453 -458s453 205 453 458s-200 458 -453 458zM656 428c-23 0 -37 17 -37 36c0 9 3 16 7 22c-8 8 -30 16 -53 16
c-76 0 -135 -83 -138 -209c22 38 71 68 124 68c93 0 158 -63 158 -147s-68 -150 -160 -150c-50 0 -90 18 -119 47c-36 36 -54 91 -54 165c0 192 97 273 191 273c32 0 61 -9 81 -22c23 -15 37 -36 37 -59c0 -26 -17 -40 -37 -40zM443 214c0 -27 13 -53 34 -72s49 -31 81 -31
c60 0 106 43 106 102s-46 101 -108 101c-64 0 -113 -44 -113 -100z" />
    <glyph glyph-name="seven.idx_P2D" horiz-adv-x="1100" 
d="M550 792c272 0 492 -220 492 -492s-220 -492 -492 -492s-492 220 -492 492s220 492 492 492zM550 758c-253 0 -453 -205 -453 -458s200 -458 453 -458s453 205 453 458s-200 458 -453 458zM521 73h-55l195 422h-204v-76h-49v121h308l10 -21z" />
    <glyph glyph-name="eight.idx_P2D" horiz-adv-x="1100" 
d="M550 792c272 0 492 -220 492 -492s-220 -492 -492 -492s-492 220 -492 492s220 492 492 492zM550 758c-253 0 -453 -205 -453 -458s200 -458 453 -458s453 205 453 458s-200 458 -453 458zM550 66c-96 0 -163 55 -163 133c0 58 48 105 95 117c-49 16 -85 59 -85 105
c0 80 69 126 153 126c83 0 152 -46 152 -126c0 -46 -36 -89 -85 -105c47 -12 95 -59 95 -117c0 -78 -67 -133 -162 -133zM550 336c54 0 99 37 99 83c0 47 -42 82 -99 82c-58 0 -100 -35 -100 -82c0 -46 45 -83 100 -83zM550 113c64 0 109 37 109 89c0 49 -49 90 -109 90
c-61 0 -110 -41 -110 -90c0 -52 45 -89 110 -89z" />
    <glyph glyph-name="nine.idx_P2D" horiz-adv-x="1100" 
d="M550 792c272 0 492 -220 492 -492s-220 -492 -492 -492s-492 220 -492 492s220 492 492 492zM550 758c-253 0 -453 -205 -453 -458s200 -458 453 -458s453 205 453 458s-200 458 -453 458zM406 145c0 26 17 40 36 40c22 0 37 -17 37 -36c0 -10 -3 -17 -7 -21
c10 -11 30 -17 58 -17c74 0 135 73 136 204c-22 -38 -72 -66 -124 -66c-92 0 -157 60 -157 148c0 87 68 152 160 152c49 0 89 -18 117 -46c37 -37 55 -93 55 -168c0 -192 -89 -271 -189 -271c-39 0 -79 15 -102 38c-13 13 -20 27 -20 43zM658 395c0 30 -13 57 -33 76
c-21 20 -49 32 -81 32c-60 0 -107 -44 -107 -104c0 -63 46 -104 109 -104s112 44 112 100z" />
    <glyph glyph-name="space" unicode=" " horiz-adv-x="210" 
 />
    <glyph glyph-name="uni00A0" unicode="&#xa0;" horiz-adv-x="210" 
 />
    <glyph glyph-name="emspace" unicode="&#x2003;" horiz-adv-x="1000" 
 />
    <glyph glyph-name="enspace" unicode="&#x2002;" horiz-adv-x="500" 
 />
    <glyph glyph-name="threeperemspace" unicode="&#x2004;" horiz-adv-x="333" 
 />
    <glyph glyph-name="fourperemspace" unicode="&#x2005;" horiz-adv-x="250" 
 />
    <glyph glyph-name="thinspace" unicode="&#x2009;" horiz-adv-x="133" 
 />
    <glyph glyph-name="hairspace" unicode="&#x200a;" horiz-adv-x="75" 
 />
    <glyph glyph-name="space.tab" horiz-adv-x="265" 
 />
    <glyph glyph-name="figurespace" unicode="&#x2007;" horiz-adv-x="530" 
 />
    <glyph glyph-name="NUL" 
 />
    <glyph glyph-name="hfjslug" horiz-adv-x="694" 
d="M644 -200h-208l-8 14h-163l-8 -14h-207v303c18 0 32 14 32 32c0 17 -14 32 -32 32v554h100l30 79h334l29 -79h101v-921zM400 563v-172h15v78h38v14h-38v66h43v14h-58zM184 563v-172h15v79h47v-79h15v172h-15v-79h-47v79h-15zM460 394c5 -2 14 -4 21 -4c20 0 31 11 31 36
v137h-16v-137c0 -16 -5 -22 -16 -22c-6 0 -15 3 -20 5v-15zM371 465l-13 3c-2 -9 -5 -21 -8 -30h-1l-16 31c13 12 23 26 23 42c0 15 -9 31 -27 31c-17 0 -28 -16 -28 -31s6 -24 14 -39c-15 -12 -23 -28 -23 -47c0 -22 12 -37 29 -37c13 0 23 9 29 24h1l12 -24l12 6l-17 32
c5 12 9 25 13 39zM523 323v-46h8v12l8 8l15 -20h10l-20 26l18 20h-10l-20 -24h-1v24h-8zM488 292l10 -15h9l-12 17c5 2 10 6 10 14c0 9 -7 15 -17 15h-20v-46h8v15h12zM426 276c14 0 24 11 24 24c0 12 -10 24 -24 24s-24 -12 -24 -24c0 -13 10 -24 24 -24zM370 301l-13 22
h-9l18 -29v-17h8v17l18 29h-9zM193 323v-46h34v7h-26v13h23v7h-23v12h26v7h-34zM132 323v-46h8v32l25 -32h7v46h-8v-32l-25 32h-7zM241 323l14 -47h8l11 34h1l11 -34h8l14 47h-8l-10 -35h-1l-11 35h-7l-11 -35h-1l-10 35h-8zM327 479c-7 13 -12 22 -12 32s6 19 14 19
s13 -9 13 -19c0 -12 -5 -21 -15 -32zM342 423c-5 -13 -12 -21 -20 -21c-9 0 -16 10 -16 25c0 13 7 26 16 35zM487 299h-11v17h11c6 0 10 -3 10 -8s-4 -9 -10 -9zM426 283c-10 0 -16 8 -16 17c0 8 6 17 16 17s16 -9 16 -17c0 -9 -6 -17 -16 -17z" />
    <glyph glyph-name="i.dot" horiz-adv-x="282" 
d="M201 512c-24 0 -43 20 -43 44s19 44 43 44c23 0 42 -20 42 -44s-19 -44 -42 -44zM142 -6c-44 0 -76 29 -76 71c0 11 4 31 8 45l74 264h-84l12 46h137l-88 -315c-4 -14 -7 -32 -7 -40c0 -20 13 -33 31 -33c22 0 39 20 58 66l31 -10c-20 -59 -50 -94 -96 -94z" />
    <glyph glyph-name="fraction" unicode="&#x2044;" horiz-adv-x="500" 
d="M-6 -12l-27 23c39 47 175 206 269 318s226 273 264 319l27 -23c-39 -47 -175 -206 -269 -318s-226 -273 -264 -319z" />
    <glyph glyph-name="zero.num" horiz-adv-x="353" 
d="M180 274c-71 0 -111 55 -111 137c0 123 67 237 164 237c71 0 111 -55 111 -137c0 -123 -67 -237 -164 -237zM183 313c68 0 116 103 116 195c0 60 -21 101 -69 101c-68 0 -116 -103 -116 -195c0 -60 21 -101 69 -101z" />
    <glyph glyph-name="one.num" horiz-adv-x="353" 
d="M53 280l9 39h102l65 279l-103 -20v40l135 29l20 -10l-73 -318h100l-9 -39h-246z" />
    <glyph glyph-name="two.num" horiz-adv-x="353" 
d="M52 280c-1 0 -8 20 -8 20c31 75 84 119 168 164c59 32 89 57 89 93c0 31 -27 52 -67 52c-43 0 -66 -16 -74 -28c8 -8 12 -16 12 -25c0 -17 -13 -30 -30 -30c-18 0 -31 14 -31 35c0 37 47 88 126 88c65 0 110 -37 110 -92c0 -56 -48 -88 -118 -126
c-67 -37 -107 -70 -129 -114h159l13 57h39l-21 -94h-238z" />
    <glyph glyph-name="three.num" horiz-adv-x="353" 
d="M180 275c-65 0 -118 36 -118 78c0 18 13 35 31 35c17 0 28 -13 28 -28c0 -8 -6 -18 -14 -22c9 -12 36 -25 75 -25c54 0 88 28 88 68c0 36 -40 67 -95 67h-14l9 39h15c69 0 109 30 109 67s-33 55 -74 55c-26 0 -45 -7 -53 -17c6 -3 10 -11 10 -18c0 -17 -14 -28 -29 -28
c-17 0 -30 13 -30 33c0 33 40 69 111 69c65 0 111 -39 111 -90c0 -54 -46 -86 -102 -93c47 -12 77 -44 77 -85c0 -67 -64 -105 -135 -105z" />
    <glyph glyph-name="four.num" horiz-adv-x="353" 
d="M206 315l17 71h-166l-5 19l241 247l27 -25l-205 -207h117l19 77l44 17l-21 -92h61l-9 -36h-61l-16 -71h49l-8 -35h-156l8 35h64z" />
    <glyph glyph-name="five.num" horiz-adv-x="353" 
d="M164 273c-57 0 -107 32 -107 66c0 19 13 33 30 33c16 0 28 -11 28 -27c0 -6 -2 -12 -7 -17c9 -8 28 -17 60 -17c61 0 107 45 107 93c0 41 -25 66 -72 66c-28 0 -57 -7 -79 -17l-21 16l56 173h191l-9 -41h-156l-35 -107c17 7 38 13 67 13c56 0 102 -38 102 -99
c0 -71 -66 -135 -155 -135z" />
    <glyph glyph-name="six.num" horiz-adv-x="353" 
d="M110 305c-23 23 -35 55 -35 100c0 74 31 151 80 197c31 29 66 47 109 47c52 0 91 -30 91 -63c0 -19 -14 -33 -31 -33c-14 0 -28 11 -28 28c0 6 3 14 9 19c-6 6 -19 12 -40 12c-29 0 -58 -13 -82 -36c-30 -28 -54 -76 -63 -124c24 34 60 56 103 56c65 0 108 -44 108 -100
c0 -71 -63 -135 -139 -135c-36 0 -65 15 -82 32zM193 312c52 0 93 43 93 93c0 38 -27 66 -71 66c-52 0 -95 -45 -95 -90c0 -19 7 -36 20 -49c12 -12 30 -20 53 -20z" />
    <glyph glyph-name="seven.num" horiz-adv-x="353" 
d="M104 280l220 325h-162l-14 -61h-41l24 98h241l10 -20l-228 -342h-50z" />
    <glyph glyph-name="eight.num" horiz-adv-x="353" 
d="M192 274c-75 0 -126 46 -126 98c0 56 45 94 96 102c-33 15 -50 44 -50 74c0 49 48 99 126 99c66 0 116 -38 116 -94c0 -47 -37 -79 -85 -91c30 -13 55 -41 55 -79c0 -60 -53 -109 -132 -109zM229 485c45 0 80 29 80 66c0 33 -29 58 -73 58s-79 -27 -79 -64
c0 -35 32 -60 72 -60zM191 313c49 0 88 31 88 71c0 37 -31 65 -79 65c-53 0 -89 -31 -89 -72c0 -35 31 -64 80 -64z" />
    <glyph glyph-name="nine.num" horiz-adv-x="353" 
d="M93 514c0 71 63 135 139 135c36 0 65 -15 82 -32c23 -23 35 -55 35 -100c0 -74 -31 -151 -80 -197c-31 -29 -66 -47 -109 -47c-52 0 -91 30 -91 63c0 19 14 33 31 33c14 0 28 -11 28 -28c0 -6 -3 -14 -9 -19c6 -6 19 -12 40 -12c29 0 58 13 82 36c29 28 54 75 63 123
c-24 -33 -60 -55 -103 -55c-65 0 -108 44 -108 100zM231 610c-52 0 -93 -43 -93 -93c0 -38 27 -66 71 -66c52 0 95 45 95 90c0 19 -7 36 -20 49c-12 12 -30 20 -53 20z" />
    <glyph glyph-name="zero.den" horiz-adv-x="353" 
d="M115 -6c-71 0 -111 55 -111 137c0 123 67 237 164 237c71 0 111 -55 111 -137c0 -123 -67 -237 -164 -237zM118 33c68 0 116 103 116 195c0 60 -21 101 -69 101c-68 0 -116 -103 -116 -195c0 -60 21 -101 69 -101z" />
    <glyph glyph-name="one.den" horiz-adv-x="353" 
d="M-12 0l9 39h102l65 279l-103 -20v40l135 29l20 -10l-73 -318h100l-9 -39h-246z" />
    <glyph glyph-name="two.den" horiz-adv-x="353" 
d="M-13 0c-1 0 -8 20 -8 20c31 75 84 119 168 164c59 32 89 57 89 93c0 31 -27 52 -67 52c-43 0 -66 -16 -74 -28c8 -8 12 -16 12 -25c0 -17 -13 -30 -30 -30c-18 0 -31 14 -31 35c0 37 47 88 126 88c65 0 110 -37 110 -92c0 -56 -48 -88 -118 -126
c-67 -37 -107 -70 -129 -114h159l13 57h39l-21 -94h-238z" />
    <glyph glyph-name="three.den" horiz-adv-x="353" 
d="M115 -5c-65 0 -118 36 -118 78c0 18 13 35 31 35c17 0 28 -13 28 -28c0 -8 -6 -18 -14 -22c9 -12 36 -25 75 -25c54 0 88 28 88 68c0 36 -40 67 -95 67h-14l9 39h15c69 0 109 30 109 67s-33 55 -74 55c-26 0 -45 -7 -53 -17c6 -3 10 -11 10 -18c0 -17 -14 -28 -29 -28
c-17 0 -30 13 -30 33c0 33 40 69 111 69c65 0 111 -39 111 -90c0 -54 -46 -86 -102 -93c47 -12 77 -44 77 -85c0 -67 -64 -105 -135 -105z" />
    <glyph glyph-name="four.den" horiz-adv-x="353" 
d="M141 35l17 71h-166l-5 19l241 247l27 -25l-205 -207h117l19 77l44 17l-21 -92h61l-9 -36h-61l-16 -71h49l-8 -35h-156l8 35h64z" />
    <glyph glyph-name="five.den" horiz-adv-x="353" 
d="M99 -7c-57 0 -107 32 -107 66c0 19 13 33 30 33c16 0 28 -11 28 -27c0 -6 -2 -12 -7 -17c9 -8 28 -17 60 -17c61 0 107 45 107 93c0 41 -25 66 -72 66c-28 0 -57 -7 -79 -17l-21 16l56 173h191l-9 -41h-156l-35 -107c17 7 38 13 67 13c56 0 102 -38 102 -99
c0 -71 -66 -135 -155 -135z" />
    <glyph glyph-name="six.den" horiz-adv-x="353" 
d="M45 25c-23 23 -35 55 -35 100c0 74 31 151 80 197c31 29 66 47 109 47c52 0 91 -30 91 -63c0 -19 -14 -33 -31 -33c-14 0 -28 11 -28 28c0 6 3 14 9 19c-6 6 -19 12 -40 12c-29 0 -58 -13 -82 -36c-30 -28 -54 -76 -63 -124c24 34 60 56 103 56c65 0 108 -44 108 -100
c0 -71 -63 -135 -139 -135c-36 0 -65 15 -82 32zM128 32c52 0 93 43 93 93c0 38 -27 66 -71 66c-52 0 -95 -45 -95 -90c0 -19 7 -36 20 -49c12 -12 30 -20 53 -20z" />
    <glyph glyph-name="seven.den" horiz-adv-x="353" 
d="M39 0l220 325h-162l-14 -61h-41l24 98h241l10 -20l-228 -342h-50z" />
    <glyph glyph-name="eight.den" horiz-adv-x="353" 
d="M127 -6c-75 0 -126 46 -126 98c0 56 45 94 96 102c-33 15 -50 44 -50 74c0 49 48 99 126 99c66 0 116 -38 116 -94c0 -47 -37 -79 -85 -91c30 -13 55 -41 55 -79c0 -60 -53 -109 -132 -109zM164 205c45 0 80 29 80 66c0 33 -29 58 -73 58s-79 -27 -79 -64
c0 -35 32 -60 72 -60zM126 33c49 0 88 31 88 71c0 37 -31 65 -79 65c-53 0 -89 -31 -89 -72c0 -35 31 -64 80 -64z" />
    <glyph glyph-name="nine.den" horiz-adv-x="353" 
d="M28 234c0 71 63 135 139 135c36 0 65 -15 82 -32c23 -23 35 -55 35 -100c0 -74 -31 -151 -80 -197c-31 -29 -66 -47 -109 -47c-52 0 -91 30 -91 63c0 19 14 33 31 33c14 0 28 -11 28 -28c0 -6 -3 -14 -9 -19c6 -6 19 -12 40 -12c29 0 58 13 82 36c29 28 54 75 63 123
c-24 -33 -60 -55 -103 -55c-65 0 -108 44 -108 100zM166 330c-52 0 -93 -43 -93 -93c0 -38 27 -66 71 -66c52 0 95 45 95 90c0 19 -7 36 -20 49c-12 12 -30 20 -53 20z" />
    <glyph glyph-name="acute" unicode="&#xb4;" horiz-adv-x="500" 
d="M225 505l-11 19l166 120c14 11 24 15 38 15c18 0 34 -16 34 -34c0 -22 -16 -35 -37 -43z" />
    <glyph glyph-name="hungarumlaut" unicode="&#x2dd;" horiz-adv-x="500" 
d="M146 507l-12 19l126 115c13 12 25 20 38 20c18 0 34 -12 34 -36c0 -12 -14 -28 -35 -39zM325 512l-10 20l134 106c14 11 26 17 37 17c21 0 33 -15 33 -35c0 -15 -13 -30 -38 -40z" />
    <glyph glyph-name="caron.alt" horiz-adv-x="500" 
d="M189 514l-15 16c32 35 49 59 59 96c6 22 3 44 6 64c3 22 14 38 38 38c19 0 33 -11 33 -34c0 -27 -11 -55 -31 -86c-23 -35 -58 -68 -90 -94z" />
    <glyph glyph-name="grave" unicode="`" horiz-adv-x="500" 
d="M403 504l-118 76c-21 14 -28 27 -28 42c0 20 17 37 37 37c15 0 26 -5 42 -27l83 -112z" />
    <glyph glyph-name="circumflex" unicode="&#x2c6;" horiz-adv-x="500" 
d="M205 504l-23 30l175 133l106 -140l-26 -23l-91 86z" />
    <glyph glyph-name="caron" unicode="&#x2c7;" horiz-adv-x="500" 
d="M317 508l-106 140l26 23l91 -86l141 86l23 -30z" />
    <glyph glyph-name="breve" unicode="&#x2d8;" horiz-adv-x="500" 
d="M319 509c-74 0 -114 57 -124 124l37 13c10 -51 43 -81 95 -81c46 0 90 25 124 80l33 -20c-35 -66 -99 -116 -165 -116z" />
    <glyph glyph-name="tilde" unicode="&#x2dc;" horiz-adv-x="500" 
d="M398 504c-37 0 -60 19 -80 40c-18 18 -30 27 -48 27c-25 0 -43 -22 -57 -61l-37 12c12 57 56 103 98 103c37 0 60 -19 80 -40c17 -18 30 -27 48 -27c25 0 43 22 57 61l37 -12c-12 -57 -56 -103 -98 -103z" />
    <glyph glyph-name="macron" unicode="&#xaf;" horiz-adv-x="500" 
d="M183 540l13 52h287l-11 -52h-289z" />
    <glyph glyph-name="dieresis" unicode="&#xa8;" horiz-adv-x="500" 
d="M416 525c-28 0 -49 23 -49 51s21 51 49 51s49 -23 49 -51s-21 -51 -49 -51zM256 525c-28 0 -49 23 -49 51s21 51 49 51s49 -23 49 -51s-21 -51 -49 -51z" />
    <glyph glyph-name="dotaccent" unicode="&#x2d9;" horiz-adv-x="500" 
d="M334 523c-29 0 -51 24 -51 53s22 53 51 53s51 -24 51 -53s-22 -53 -51 -53z" />
    <glyph glyph-name="ring" unicode="&#x2da;" horiz-adv-x="500" 
d="M326 497c-52 0 -82 37 -82 85c0 63 46 119 109 119c52 0 82 -37 82 -85c0 -63 -46 -119 -109 -119zM330 536c37 0 65 35 65 76c0 28 -19 50 -46 50c-37 0 -65 -35 -65 -76c0 -28 19 -50 46 -50z" />
    <glyph glyph-name="commaaccent" unicode="&#x326;" horiz-adv-x="210" 
d="M28 -267l-10 20c67 29 101 78 103 101c-23 5 -36 27 -36 45c0 25 18 45 45 45s49 -22 49 -54c0 -55 -44 -121 -151 -157z" />
    <glyph glyph-name="cedilla" unicode="&#xb8;" horiz-adv-x="500" 
d="M180 -199c-47 0 -93 24 -115 42l20 28c18 -13 60 -28 92 -28c30 0 45 14 45 34c0 18 -23 36 -64 29l-14 14l55 102l29 -8l-25 -67c50 -6 72 -38 72 -67c0 -51 -46 -79 -95 -79z" />
    <glyph glyph-name="ogonek" unicode="&#x2db;" horiz-adv-x="502" 
d="M262 36l32 -7c-64 -39 -130 -92 -130 -145c0 -25 17 -39 46 -39c21 0 36 4 49 9l-9 -42c-10 -6 -28 -13 -55 -13c-53 0 -80 28 -80 70c0 63 65 123 147 167z" />
    <glyph glyph-name="g.sc" 
 />
    <glyph glyph-name="gbreve.sc" 
 />
    <glyph glyph-name="i.sc" 
 />
    <glyph glyph-name="iacute.sc" 
 />
    <glyph glyph-name="ibreve.sc" 
 />
    <glyph glyph-name="icircumflex.sc" 
 />
    <glyph glyph-name="idieresis.sc" 
 />
    <glyph glyph-name="igrave.sc" 
 />
    <glyph glyph-name="imacron.sc" 
 />
    <glyph glyph-name="iogonek.sc" 
 />
    <glyph glyph-name="S.sc" 
 />
    <glyph glyph-name="Sacute.sc" 
 />
    <glyph glyph-name="Aring.sc" 
 />
    <glyph glyph-name="Aringacute.sc" 
 />
    <glyph glyph-name="E.sc" 
 />
    <glyph glyph-name="Eacute.sc" 
 />
    <glyph glyph-name="Ebreve.sc" 
 />
    <glyph glyph-name="Ecircumflex.sc" 
 />
    <glyph glyph-name="Edieresis.sc" 
 />
    <glyph glyph-name="Egrave.sc" 
 />
    <glyph glyph-name="Emacron.sc" 
 />
    <glyph glyph-name="Eogonek.sc" 
 />
    <glyph glyph-name="N.sc" 
 />
    <glyph glyph-name="Nacute.sc" 
 />
    <glyph glyph-name="Ntilde.sc" 
 />
    <glyph glyph-name="a.sc" 
 />
    <glyph glyph-name="aogonek.sc" 
 />
    <glyph glyph-name="L.sc" 
 />
    <glyph glyph-name="Lacute.sc" 
 />
    <glyph glyph-name="s.sc" 
 />
    <glyph glyph-name="sacute.sc" 
 />
    <glyph glyph-name="aring.sc" 
 />
    <glyph glyph-name="aringacute.sc" 
 />
    <glyph glyph-name="C.sc" 
 />
    <glyph glyph-name="Cacute.sc" 
 />
    <glyph glyph-name="e.sc" 
 />
    <glyph glyph-name="eacute.sc" 
 />
    <glyph glyph-name="ebreve.sc" 
 />
    <glyph glyph-name="ecircumflex.sc" 
 />
    <glyph glyph-name="edieresis.sc" 
 />
    <glyph glyph-name="egrave.sc" 
 />
    <glyph glyph-name="emacron.sc" 
 />
    <glyph glyph-name="eogonek.sc" 
 />
    <glyph glyph-name="n.sc" 
 />
    <glyph glyph-name="nacute.sc" 
 />
    <glyph glyph-name="ntilde.sc" 
 />
    <glyph glyph-name="l.sc" 
 />
    <glyph glyph-name="lacute.sc" 
 />
    <glyph glyph-name="c.sc" 
 />
    <glyph glyph-name="cacute.sc" 
 />
    <glyph glyph-name="R.sc" 
 />
    <glyph glyph-name="Racute.sc" 
 />
    <glyph glyph-name="G.sc" 
 />
    <glyph glyph-name="Gbreve.sc" 
 />
    <glyph glyph-name="I.sc" 
 />
    <glyph glyph-name="Iacute.sc" 
 />
    <glyph glyph-name="Ibreve.sc" 
 />
    <glyph glyph-name="Icircumflex.sc" 
 />
    <glyph glyph-name="Idieresis.sc" 
 />
    <glyph glyph-name="Igrave.sc" 
 />
    <glyph glyph-name="Imacron.sc" 
 />
    <glyph glyph-name="Iogonek.sc" 
 />
    <glyph glyph-name="r.sc" 
 />
    <glyph glyph-name="racute.sc" 
 />
    <glyph glyph-name="A.sc" 
 />
    <glyph glyph-name="Aogonek.sc" 
 />
    </font>
</defs>
</svg>
