<svg xmlns="http://www.w3.org/2000/svg">
<defs>
<font id="ArcherPro-ThinItalic" horiz-adv-x="353" >
  <font-face 
    font-family="ArcherPro"
    font-weight="265"
    font-style="italic"
    font-stretch="normal"
    units-per-em="1000"
    panose-1="2 0 0 0 0 0 0 0 0 0"
    ascent="800"
    descent="-200"
    x-height="408"
    cap-height="658"
    bbox="-112 -220 1015 956"
    underline-thickness="50"
    underline-position="-50"
    slope="-12"
    stemh="12"
    stemv="14"
    unicode-range="U+0009-FB04"
  />
<missing-glyph horiz-adv-x="844" 
d="M804 715c0 -14 -7 -25 -16 -38c-39 -58 -43 -124 -93 -169l-12 14c45 40 42 99 75 143l-75 -30c-28 -11 -44 -32 -51 -61l-19 5c24 98 114 75 157 118c6 6 18 29 25 29s9 -5 9 -11zM712 477c-26 -9 -74 -20 -74 -55c0 -16 5 -35 8 -51c7 -38 10 -75 10 -114
c0 -86 -73 -174 -159 -174c-26 0 -112 -1 -119 -37c-5 -26 -14 -151 -45 -151c-12 0 -22 14 -30 21c-9 -1 -18 -12 -31 -12c-22 0 -23 34 -33 34c-11 0 -21 -9 -34 -9c-32 0 -19 39 -32 38l-25 -2c-8 0 -20 2 -20 12c0 12 12 27 12 36c0 10 -39 8 -39 32c0 11 4 18 15 21
c51 16 123 23 160 64c17 19 29 45 41 67c7 14 30 55 31 70c-50 27 -72 29 -127 35c-10 1 -22 7 -22 19l2 16c0 19 -57 13 -57 45c0 8 7 19 7 25c0 16 -67 12 -67 43l8 38c0 14 -23 24 -32 32c-20 18 -20 63 -20 90v6c57 -33 132 -38 202 -38h13c71 0 173 -22 173 -110
c0 -42 -2 -43 -2 -44c0 -21 10 -44 33 -44c45 0 54 103 65 136c10 33 37 50 73 50c46 0 72 -60 115 -89zM677 482c-30 21 -43 64 -77 64c-107 0 -41 -186 -141 -186c-29 0 -54 26 -54 57l2 51c0 138 -252 71 -344 115v-24l49 -69l-9 -38c0 -11 67 -13 67 -45
c0 -9 -7 -17 -7 -25c0 -13 56 -4 56 -43v-8c0 -3 0 -6 -1 -7c54 -2 107 -20 156 -42c-2 -39 -57 -134 -84 -164c-19 -21 -42 -36 -69 -43c-32 -8 -98 -17 -98 -33c0 -9 37 2 37 -27c0 -6 -7 -22 -10 -28c0 -3 1 -4 4 -4l19 3c34 0 20 -38 33 -38c10 0 21 9 33 9
c22 0 26 -20 33 -37c9 1 16 15 31 15c13 0 21 -14 28 -23c24 41 17 94 29 138c13 50 96 52 136 52c39 0 70 20 95 48c37 41 45 66 45 121c0 16 -3 33 -5 48l-11 87c-1 6 -2 11 -2 17c0 33 32 50 59 59zM635 502c0 -8 -5 -13 -13 -13s-14 5 -14 13c0 9 5 13 14 13
s13 -4 13 -13z" />
    <glyph glyph-name="f_b" unicode="fb" horiz-adv-x="738" 
d="M62 0l92 396h-80l2 12h81l46 200c6 27 16 53 30 73c23 33 58 55 104 55c55 0 95 -34 102 -86l23 77h8l-101 -436c35 66 95 123 176 123c90 0 149 -62 149 -169c0 -125 -82 -251 -210 -251c-86 0 -143 57 -150 147l-32 -141h-14l91 396h-211l-92 -396h-14zM483 6
c120 0 196 122 196 238c0 100 -51 158 -134 158c-119 0 -202 -135 -202 -242c0 -93 56 -154 140 -154zM411 618c0 11 7 18 17 20c-5 52 -39 85 -91 85c-37 0 -70 -17 -90 -45c-15 -20 -24 -45 -30 -71l-46 -199h211l42 182l2 12c-9 0 -15 7 -15 16z" />
    <glyph glyph-name="f_f" unicode="ff" horiz-adv-x="497" 
d="M568 735c32 0 48 -15 48 -29c0 -10 -6 -17 -16 -17c-12 0 -19 9 -19 18c0 5 1 10 3 13c-4 1 -10 2 -17 2c-21 0 -49 -8 -70 -29c-29 -27 -45 -64 -59 -127l-37 -158h114l-2 -12h-115l-91 -396h-14l92 396h-218l-91 -396h-14l92 396h-80l2 12h81l32 138
c15 68 31 106 63 135c23 22 54 32 79 32c30 0 46 -14 46 -28c0 -10 -6 -17 -16 -17c-12 0 -19 8 -19 21c0 3 1 6 2 9c-4 1 -9 2 -16 2c-20 0 -47 -8 -68 -28c-28 -27 -43 -65 -58 -127l-32 -137h218l37 160c15 67 32 105 62 134c24 22 56 33 81 33z" />
    <glyph glyph-name="f_h" unicode="fh" horiz-adv-x="737" 
d="M288 0l91 396h-211l-92 -396h-14l92 396h-80l2 12h81l46 200c6 27 16 53 30 73c23 33 58 55 104 55c55 0 94 -34 102 -86l23 77h8l-107 -465c39 86 106 152 184 152c62 0 100 -35 100 -94c0 -23 -7 -58 -17 -91l-32 -106c-10 -32 -15 -53 -15 -72c0 -26 17 -45 44 -45
c28 0 48 21 69 76l10 -3c-22 -61 -44 -85 -80 -85s-57 24 -57 57c0 21 5 42 15 74l32 106c10 33 17 68 17 89c0 53 -31 82 -87 82c-88 0 -173 -99 -204 -230l-40 -172h-14zM411 618c0 11 6 18 16 20c-4 52 -38 85 -90 85c-37 0 -70 -17 -90 -45c-15 -20 -24 -45 -30 -71
l-46 -199h211l42 182l2 12c-9 0 -15 7 -15 16z" />
    <glyph glyph-name="fi" unicode="fi" horiz-adv-x="464" 
d="M374 396h-206l-92 -396h-14l91 396h-79l2 12h80l37 158c8 35 17 61 30 86c26 55 69 82 121 82s83 -29 83 -53c0 -11 -6 -19 -17 -19c-9 0 -17 7 -17 19c0 7 4 14 10 17c-10 13 -30 24 -59 24c-48 0 -85 -25 -108 -73c-12 -24 -21 -50 -29 -85l-36 -156h220l-83 -285
c-10 -32 -15 -53 -15 -72c0 -27 17 -45 44 -45c28 0 48 21 68 76l11 -3c-22 -61 -44 -85 -80 -85c-35 0 -56 23 -56 58c0 20 5 41 14 73z" />
    <glyph glyph-name="f_j" unicode="fj" horiz-adv-x="428" 
d="M403 698c-10 13 -30 24 -59 24c-48 0 -85 -25 -108 -73c-12 -24 -21 -50 -29 -85l-36 -156h219l-83 -374c-19 -82 -38 -146 -69 -190c-22 -28 -51 -44 -84 -44c-22 0 -35 9 -35 23c0 8 8 15 17 15c12 0 19 -10 19 -22c0 -1 -1 -3 -1 -4c31 0 57 15 75 42
c28 41 48 108 64 182l81 360h-206l-92 -396h-14l91 396h-79l2 12h80l37 158c8 35 17 61 30 86c26 55 69 82 121 82s83 -29 83 -53c0 -11 -6 -19 -17 -19c-9 0 -17 7 -17 19c0 7 4 14 10 17z" />
    <glyph glyph-name="f_k" unicode="fk" horiz-adv-x="684" 
d="M288 0l91 396h-211l-92 -396h-14l92 396h-80l2 12h81l46 200c6 27 16 53 30 73c23 33 58 55 104 55c55 0 94 -34 102 -86l23 77h8l-125 -540c112 46 261 132 274 189c-11 2 -17 12 -17 20c0 11 8 18 17 18s17 -9 17 -25c0 -52 -97 -118 -188 -167l55 -132
c13 -32 25 -54 36 -68c10 -12 19 -16 32 -16c26 0 48 27 63 88l11 -3c-15 -63 -39 -97 -75 -97c-17 0 -31 6 -42 21c-13 15 -25 39 -38 71l-54 130c-34 -17 -68 -33 -94 -44l-40 -172h-14zM411 618c0 11 6 18 16 20c-4 52 -38 85 -90 85c-37 0 -70 -17 -90 -45
c-15 -20 -24 -45 -30 -71l-46 -199h211l42 182c1 4 2 9 2 12c-9 0 -15 7 -15 16z" />
    <glyph glyph-name="fl" unicode="fl" horiz-adv-x="475" 
d="M76 408h81l46 200c6 27 16 53 30 73c23 33 58 55 104 55c55 0 94 -34 102 -86l23 77h8l-143 -622c-7 -25 -9 -40 -9 -53c0 -28 17 -46 44 -46c28 0 48 21 69 76l10 -3c-22 -61 -45 -85 -80 -85s-57 23 -57 58c0 15 3 31 9 55l66 289h-211l-92 -396h-14l92 396h-80z
M217 607l-46 -199h211l42 182l2 12c-9 0 -15 7 -15 16c0 11 6 18 16 20c-4 52 -38 85 -90 85c-37 0 -70 -17 -90 -45c-15 -20 -24 -45 -30 -71z" />
    <glyph glyph-name="f_f_b" unicode="ffb" horiz-adv-x="968" 
d="M76 408h80l44 188c6 24 14 46 26 64c21 32 57 53 103 53c41 0 74 -17 74 -43c0 -10 -6 -18 -15 -18c-10 0 -18 7 -18 21c0 5 2 11 6 15c-9 7 -25 13 -48 13c-39 0 -70 -18 -88 -45c-12 -16 -20 -38 -26 -61l-44 -187h218l46 200c6 29 17 56 31 76c24 31 59 52 103 52
c55 0 94 -34 102 -86l23 77h8l-101 -437c35 67 95 124 176 124c90 0 149 -62 149 -169c0 -125 -82 -251 -210 -251c-85 0 -144 56 -151 144l-31 -138h-14l91 396h-211l-92 -396h-14l92 396h-218l-91 -396h-14l91 396h-79zM714 6c120 0 196 122 196 238
c0 100 -51 158 -135 158c-118 0 -201 -135 -201 -242c0 -93 56 -154 140 -154zM642 618c0 11 6 18 16 20c-4 52 -38 85 -90 85c-37 0 -70 -16 -90 -44c-14 -20 -24 -46 -30 -72l-46 -199h211l42 182l2 12c-9 0 -15 7 -15 16z" />
    <glyph glyph-name="f_f_h" unicode="ffh" horiz-adv-x="967" 
d="M519 0l91 396h-211l-92 -396h-14l92 396h-218l-91 -396h-14l91 396h-79l2 12h80l44 188c6 24 14 46 26 64c21 32 57 53 103 53c41 0 74 -17 74 -43c0 -10 -6 -18 -15 -18c-10 0 -18 7 -18 21c0 5 2 11 6 15c-9 7 -25 13 -48 13c-39 0 -70 -18 -88 -45
c-12 -16 -20 -38 -26 -61l-44 -187h218l46 200c6 29 17 56 31 76c24 31 59 52 103 52c55 0 94 -34 102 -86l23 77h8l-109 -470c39 88 107 157 186 157c62 0 100 -35 100 -94c0 -23 -7 -58 -17 -91l-32 -106c-10 -32 -15 -53 -15 -72c0 -26 17 -45 44 -45c28 0 48 21 69 76
l10 -3c-22 -61 -44 -85 -80 -85s-57 24 -57 57c0 21 5 42 15 74l32 106c10 33 17 68 17 89c0 53 -31 82 -87 82c-88 0 -173 -99 -204 -230l-40 -172h-14zM642 618c0 11 6 18 16 20c-4 52 -38 85 -90 85c-37 0 -70 -16 -90 -44c-14 -20 -24 -46 -30 -72l-46 -199h211l42 182
l2 12c-9 0 -15 7 -15 16z" />
    <glyph glyph-name="f_f_i" unicode="ffi" horiz-adv-x="695" 
d="M293 0l91 396h-217l-91 -396h-14l92 396h-80l2 12h81l35 153c14 58 31 95 62 122c23 21 54 30 79 30c32 0 58 -12 58 -32c0 -10 -6 -17 -15 -17c-11 0 -20 7 -20 21c0 4 1 8 2 12c-6 2 -14 4 -25 4c-23 0 -52 -10 -73 -29c-26 -25 -41 -59 -54 -112l-36 -152h217l37 158
c9 36 18 63 31 90c27 53 69 78 120 78c52 0 83 -29 83 -53c0 -11 -6 -19 -17 -19c-9 0 -17 7 -17 19c0 6 3 14 9 17c-10 13 -29 24 -58 24c-47 0 -84 -25 -107 -71c-13 -24 -22 -51 -30 -87l-36 -156h220l-84 -285c-9 -32 -14 -53 -14 -72c0 -27 16 -45 44 -45s48 21 68 76
l10 -3c-21 -61 -43 -85 -79 -85c-35 0 -56 23 -56 58c0 20 5 41 14 73l79 271h-205l-92 -396h-14z" />
    <glyph glyph-name="f_f_j" unicode="ffj" horiz-adv-x="659" 
d="M658 681c0 -11 -6 -19 -17 -19c-9 0 -17 7 -17 19c0 6 3 14 9 17c-10 13 -29 24 -58 24c-47 0 -84 -25 -107 -71c-13 -24 -22 -51 -30 -87l-36 -156h219l-83 -374c-19 -82 -38 -146 -69 -190c-22 -28 -51 -44 -84 -44c-22 0 -35 9 -35 23c0 8 8 15 17 15
c12 0 19 -10 19 -22c0 -1 -1 -3 -1 -4c31 0 57 15 75 42c28 41 48 108 64 182l80 360h-205l-92 -396h-14l91 396h-217l-91 -396h-14l92 396h-80l2 12h81l35 153c14 58 31 95 62 122c23 21 54 30 79 30c32 0 58 -12 58 -32c0 -10 -6 -17 -15 -17c-11 0 -20 7 -20 21
c0 4 1 8 2 12c-6 2 -14 4 -25 4c-23 0 -52 -10 -73 -29c-26 -25 -41 -59 -54 -112l-36 -152h217l37 158c9 36 18 63 31 90c27 53 69 78 120 78c52 0 83 -29 83 -53z" />
    <glyph glyph-name="f_f_k" unicode="ffk" horiz-adv-x="915" 
d="M519 0l91 396h-211l-92 -396h-14l92 396h-218l-91 -396h-14l91 396h-79l2 12h80l44 188c6 24 14 46 26 64c21 32 57 53 103 53c41 0 74 -17 74 -43c0 -10 -6 -18 -15 -18c-10 0 -18 7 -18 21c0 5 2 11 6 15c-9 7 -25 13 -48 13c-39 0 -70 -18 -88 -45
c-12 -16 -20 -38 -26 -61l-44 -187h218l46 200c6 29 17 56 31 76c24 31 59 52 103 52c55 0 94 -34 102 -86l23 77h8l-125 -540c112 46 261 132 274 189c-11 2 -17 12 -17 20c0 11 8 18 17 18s17 -9 17 -25c0 -52 -97 -118 -188 -167l55 -132c13 -32 25 -54 36 -68
c10 -12 19 -16 32 -16c26 0 48 27 63 88l11 -3c-15 -63 -39 -97 -75 -97c-17 0 -31 6 -43 21s-24 39 -37 71l-54 130c-34 -17 -68 -33 -94 -44l-40 -172h-14zM642 618c0 11 6 18 16 20c-4 52 -38 85 -90 85c-37 0 -70 -16 -90 -44c-14 -20 -24 -46 -30 -72l-46 -199h211
l42 182c1 4 2 10 2 12c-9 0 -15 7 -15 16z" />
    <glyph glyph-name="f_f_l" unicode="ffl" horiz-adv-x="706" 
d="M74 396l2 12h80l44 188c6 24 14 46 26 64c21 32 57 53 103 53c41 0 74 -17 74 -43c0 -10 -6 -18 -15 -18c-10 0 -18 7 -18 21c0 5 2 11 6 15c-9 7 -25 13 -48 13c-39 0 -70 -18 -88 -45c-12 -16 -20 -38 -26 -61l-44 -187h218l46 200c6 29 17 56 31 76
c24 31 59 52 103 52c55 0 94 -34 102 -86l23 77h8l-144 -622c-6 -25 -8 -40 -8 -53c0 -28 17 -46 44 -46c28 0 48 21 69 76l10 -3c-22 -61 -45 -85 -80 -85s-57 23 -57 58c0 15 3 31 8 55l67 289h-211l-92 -396h-14l92 396h-218l-91 -396h-14l91 396h-79zM448 607l-46 -199
h211l42 182l2 12c-9 0 -15 7 -15 16c0 11 6 18 16 20c-4 52 -38 85 -90 85c-37 0 -70 -16 -90 -44c-14 -20 -24 -46 -30 -72z" />
    <glyph glyph-name=".notdef" horiz-adv-x="844" 
d="M804 715c0 -14 -7 -25 -16 -38c-39 -58 -43 -124 -93 -169l-12 14c45 40 42 99 75 143l-75 -30c-28 -11 -44 -32 -51 -61l-19 5c24 98 114 75 157 118c6 6 18 29 25 29s9 -5 9 -11zM712 477c-26 -9 -74 -20 -74 -55c0 -16 5 -35 8 -51c7 -38 10 -75 10 -114
c0 -86 -73 -174 -159 -174c-26 0 -112 -1 -119 -37c-5 -26 -14 -151 -45 -151c-12 0 -22 14 -30 21c-9 -1 -18 -12 -31 -12c-22 0 -23 34 -33 34c-11 0 -21 -9 -34 -9c-32 0 -19 39 -32 38l-25 -2c-8 0 -20 2 -20 12c0 12 12 27 12 36c0 10 -39 8 -39 32c0 11 4 18 15 21
c51 16 123 23 160 64c17 19 29 45 41 67c7 14 30 55 31 70c-50 27 -72 29 -127 35c-10 1 -22 7 -22 19l2 16c0 19 -57 13 -57 45c0 8 7 19 7 25c0 16 -67 12 -67 43l8 38c0 14 -23 24 -32 32c-20 18 -20 63 -20 90v6c57 -33 132 -38 202 -38h13c71 0 173 -22 173 -110
c0 -42 -2 -43 -2 -44c0 -21 10 -44 33 -44c45 0 54 103 65 136c10 33 37 50 73 50c46 0 72 -60 115 -89zM677 482c-30 21 -43 64 -77 64c-107 0 -41 -186 -141 -186c-29 0 -54 26 -54 57l2 51c0 138 -252 71 -344 115v-24l49 -69l-9 -38c0 -11 67 -13 67 -45
c0 -9 -7 -17 -7 -25c0 -13 56 -4 56 -43v-8c0 -3 0 -6 -1 -7c54 -2 107 -20 156 -42c-2 -39 -57 -134 -84 -164c-19 -21 -42 -36 -69 -43c-32 -8 -98 -17 -98 -33c0 -9 37 2 37 -27c0 -6 -7 -22 -10 -28c0 -3 1 -4 4 -4l19 3c34 0 20 -38 33 -38c10 0 21 9 33 9
c22 0 26 -20 33 -37c9 1 16 15 31 15c13 0 21 -14 28 -23c24 41 17 94 29 138c13 50 96 52 136 52c39 0 70 20 95 48c37 41 45 66 45 121c0 16 -3 33 -5 48l-11 87c-1 6 -2 11 -2 17c0 33 32 50 59 59zM635 502c0 -8 -5 -13 -13 -13s-14 5 -14 13c0 9 5 13 14 13
s13 -4 13 -13z" />
    <glyph glyph-name="A" unicode="A" horiz-adv-x="682" 
d="M-16 0l3 13h58l383 632h-95l3 13h217l-3 -13h-92l91 -632h69l-3 -13h-177l3 13h93l-34 241h-292l-146 -241h102l-3 -13h-177zM215 267h283l-54 380z" />
    <glyph glyph-name="B" unicode="B" horiz-adv-x="566" 
d="M-4 0l3 13h95l146 632h-105l3 13h214c52 0 93 -5 130 -24c41 -22 70 -62 70 -123c0 -88 -67 -162 -197 -171c101 -13 151 -72 151 -146c0 -51 -21 -98 -55 -129c-29 -27 -70 -47 -114 -56c-33 -7 -66 -9 -111 -9h-230zM186 347h125c151 0 226 72 226 164
c0 56 -26 93 -65 113c-33 16 -72 21 -122 21h-95zM109 13h119c39 0 75 2 107 9c42 9 80 28 107 54c31 28 49 70 49 118c0 75 -57 141 -187 141h-120z" />
    <glyph glyph-name="C" unicode="C" horiz-adv-x="640" 
d="M342 -9c-167 0 -264 120 -264 278c0 191 145 399 358 399c136 0 206 -80 206 -146c0 -18 -9 -28 -20 -28c-9 0 -17 6 -17 18c0 10 8 20 21 22c-5 55 -69 122 -191 122c-204 0 -342 -204 -342 -387c0 -147 91 -266 250 -266c78 0 163 37 227 98l9 -10
c-65 -63 -154 -100 -237 -100z" />
    <glyph glyph-name="D" unicode="D" horiz-adv-x="666" 
d="M-4 0l3 13h95l146 632h-105l3 13h190c106 0 192 -28 249 -85c44 -44 71 -107 71 -185c0 -108 -38 -199 -109 -270c-75 -76 -194 -118 -338 -118h-205zM109 13h94c139 0 253 42 326 115c67 68 105 155 105 259c0 75 -26 136 -67 177c-54 54 -137 81 -240 81h-72z" />
    <glyph glyph-name="E" unicode="E" horiz-adv-x="546" 
d="M-4 0l3 13h95l146 632h-105l3 13h445l-31 -137h-15l29 124h-311l-69 -302h242l-3 -13h-242l-74 -317h311l28 124h15l-32 -137h-435z" />
    <glyph glyph-name="F" unicode="F" horiz-adv-x="519" 
d="M-4 0l3 13h95l146 632h-105l3 13h435l-31 -137h-15l29 124h-301l-72 -314h241l-3 -13h-241l-71 -305h102l-3 -13h-212z" />
    <glyph glyph-name="G" unicode="G" horiz-adv-x="678" 
d="M533 0l18 73c-54 -46 -134 -82 -219 -82c-163 0 -254 111 -254 261c0 198 150 416 371 416c81 0 140 -30 172 -64c27 -29 35 -58 35 -81c0 -14 -7 -25 -19 -25c-10 0 -18 8 -18 18c0 11 9 21 21 22c-2 17 -10 36 -30 59c-29 31 -87 59 -162 59
c-214 0 -355 -214 -355 -404c0 -140 86 -249 240 -249c85 0 165 37 222 88l47 185h-218l3 13h232l-72 -289h-14z" />
    <glyph glyph-name="H" unicode="H" horiz-adv-x="724" 
d="M-4 0l3 13h95l146 632h-105l3 13h218l-3 -13h-98l-69 -298h418l68 298h-107l2 13h218l-2 -13h-96l-145 -632h104l-3 -13h-213l2 13h95l74 321h-417l-75 -321h104l-3 -13h-214z" />
    <glyph glyph-name="I" unicode="I" horiz-adv-x="301" 
d="M-4 0l3 13h100l146 632h-100l2 13h216l-3 -13h-100l-146 -632h100l-2 -13h-216z" />
    <glyph glyph-name="J" unicode="J" horiz-adv-x="504" 
d="M181 -9c-84 0 -153 52 -153 141c0 25 11 38 24 38c10 0 17 -7 17 -17c0 -13 -11 -22 -27 -22c0 -77 58 -127 140 -127c63 0 108 27 138 77c27 42 45 102 61 174l91 390h-114l3 13h221l-3 -13h-93l-90 -391c-17 -74 -36 -137 -63 -180c-34 -53 -82 -83 -152 -83z" />
    <glyph glyph-name="K" unicode="K" horiz-adv-x="617" 
d="M618 645l-321 -276l177 -356h93l-2 -13h-100l-178 361l-122 -105l-56 -243h104l-3 -13h-214l3 13h95l146 632h-105l3 13h218l-3 -13h-98l-86 -370l429 370h-115l3 13h209l-3 -13h-74z" />
    <glyph glyph-name="L" unicode="L" horiz-adv-x="494" 
d="M-4 0l3 13h95l146 632h-105l3 13h218l-3 -13h-98l-146 -632h285l29 127h14l-32 -140h-409z" />
    <glyph glyph-name="M" unicode="M" horiz-adv-x="811" 
d="M-12 0l3 13h98l168 632h-105l3 13h121l110 -538l357 538h112l-3 -13h-94l-124 -632h106l-2 -13h-212l2 13h92l121 619l-357 -537h-7l-110 537l-164 -619h100l-3 -13h-212z" />
    <glyph glyph-name="N" unicode="N" horiz-adv-x="722" 
d="M538 -5l-288 638l-141 -620h105l-3 -13h-214l2 13h96l144 632h-103l3 13h114l288 -636l142 623h-108l3 13h218l-3 -13h-95l-149 -650h-11z" />
    <glyph glyph-name="O" unicode="O" horiz-adv-x="713" 
d="M340 -9c-165 0 -262 124 -262 276c0 194 145 401 355 401c165 0 263 -124 263 -275c0 -194 -146 -402 -356 -402zM341 4c196 0 340 197 340 388c0 144 -89 264 -249 264c-196 0 -340 -197 -340 -389c0 -144 90 -263 249 -263z" />
    <glyph glyph-name="P" unicode="P" horiz-adv-x="523" 
d="M-4 0l3 13h95l146 632h-118l2 13h210c34 0 64 -3 90 -10c83 -22 125 -86 125 -161c0 -129 -103 -223 -274 -223c-36 0 -80 3 -106 6l-60 -257h104l-3 -13h-214zM276 277c166 0 258 91 258 209c0 68 -37 127 -113 149c-26 7 -55 10 -89 10h-77l-84 -363
c28 -2 68 -5 105 -5z" />
    <glyph glyph-name="Q" unicode="Q" horiz-adv-x="717" 
d="M696 393c0 -192 -144 -398 -350 -402c37 -59 105 -120 193 -120c34 0 60 8 85 21l5 -12c-27 -13 -53 -22 -90 -22c-96 0 -169 69 -208 133c-160 5 -253 127 -253 276c0 194 145 401 355 401c165 0 263 -124 263 -275zM341 4c196 0 340 197 340 388
c0 144 -89 264 -249 264c-196 0 -340 -197 -340 -389c0 -144 90 -263 249 -263z" />
    <glyph glyph-name="Q.alt" horiz-adv-x="713" 
d="M340 -9c-165 0 -262 124 -262 276c0 194 145 401 355 401c165 0 263 -124 263 -275c0 -148 -86 -305 -219 -370l46 -127l-13 -5l-45 126c-39 -17 -80 -26 -125 -26zM341 4c42 0 83 10 119 26l-59 164l13 5l59 -163c125 63 208 211 208 356c0 144 -89 264 -249 264
c-196 0 -340 -197 -340 -389c0 -144 90 -263 249 -263z" />
    <glyph glyph-name="R" unicode="R" horiz-adv-x="569" 
d="M-4 0l3 13h95l146 632h-105l3 13h190c81 0 145 -17 185 -58c26 -25 40 -62 40 -109c0 -104 -81 -180 -223 -194l125 -284h80l-3 -13h-87l-129 295c-3 0 -15 -1 -33 -1c-53 0 -78 1 -108 3l-66 -284h104l-3 -13h-214zM282 307c162 0 256 75 256 184c0 42 -12 77 -36 100
c-37 38 -97 54 -175 54h-72l-77 -335c28 -3 56 -3 104 -3z" />
    <glyph glyph-name="S" unicode="S" horiz-adv-x="490" 
d="M226 -9c-116 0 -193 72 -193 128c0 12 6 24 20 24c10 0 16 -8 16 -17c0 -11 -7 -19 -17 -20c10 -49 78 -102 175 -102c109 0 181 66 181 152c0 74 -47 115 -133 178c-79 57 -127 105 -127 179c0 94 83 155 183 155c102 0 166 -60 166 -117c0 -12 -6 -24 -19 -24
c-10 0 -17 8 -17 18s7 18 18 20c-9 45 -60 91 -149 91c-92 0 -168 -55 -168 -142c0 -70 45 -114 125 -171c87 -63 135 -106 135 -186c0 -94 -75 -166 -196 -166z" />
    <glyph glyph-name="T" unicode="T" horiz-adv-x="573" 
d="M138 0l3 13h94l145 632h-228l-30 -131h-14l33 144h500l-33 -144h-14l30 131h-228l-146 -632h104l-3 -13h-213z" />
    <glyph glyph-name="U" unicode="U" horiz-adv-x="671" 
d="M309 -9c-103 0 -185 54 -185 174c0 31 6 64 15 104l86 376h-104l3 13h218l-3 -13h-99l-87 -378c-9 -40 -15 -70 -15 -101c0 -112 74 -162 172 -162c127 0 194 79 231 242l92 399h-108l3 13h218l-3 -13h-95l-93 -400c-39 -173 -110 -254 -246 -254z" />
    <glyph glyph-name="V" unicode="V" horiz-adv-x="669" 
d="M273 -16l-90 661h-72l3 13h182l-2 -13h-96l86 -636l374 636h-101l2 13h183l-3 -13h-65l-391 -661h-10z" />
    <glyph glyph-name="W" unicode="W" horiz-adv-x="935" 
d="M226 -17l-33 662h-79l3 13h189l-3 -13h-95l30 -633l289 548h9l52 -548l328 633h-95l3 13h189l-3 -13h-77l-347 -662h-9l-51 547l-290 -547h-10z" />
    <glyph glyph-name="X" unicode="X" horiz-adv-x="678" 
d="M-24 0l3 13h83l301 326l-139 306h-85l3 13h196l-2 -13h-96l132 -297l274 297h-95l3 13h196l-3 -13h-84l-285 -308l148 -324h86l-3 -13h-196l2 13h95l-141 315l-290 -315h96l-3 -13h-196z" />
    <glyph glyph-name="Y" unicode="Y" horiz-adv-x="620" 
d="M148 0l3 13h101l64 268l-136 364h-67l3 13h181l-2 -13h-100l130 -352l299 352h-98l3 13h181l-2 -13h-66l-312 -366l-63 -266h105l-2 -13h-222z" />
    <glyph glyph-name="Z" unicode="Z" horiz-adv-x="571" 
d="M-1 0v8l598 637h-418l-29 -125h-14l31 138h453v-8l-598 -637h439l30 125h14l-32 -138h-474z" />
    <glyph glyph-name="a" unicode="a" horiz-adv-x="516" 
d="M185 -6c-82 0 -141 56 -141 160c0 130 86 260 209 260c80 0 139 -58 144 -146l34 140h14l-75 -305c-5 -21 -8 -36 -8 -50c0 -28 15 -47 42 -47c30 0 48 21 70 76l10 -3c-23 -61 -44 -85 -81 -85c-34 0 -54 25 -54 59c0 15 4 34 8 52l3 11c-35 -68 -96 -122 -175 -122z
M186 6c120 0 201 138 201 248c0 87 -56 148 -134 148c-114 0 -195 -124 -195 -247c0 -97 52 -149 128 -149z" />
    <glyph glyph-name="b" unicode="b" horiz-adv-x="498" 
d="M47 0l168 720h-86l2 12h100l-102 -441c35 68 96 123 176 123c90 0 148 -62 148 -169c0 -125 -80 -251 -209 -251c-87 0 -146 60 -150 151l-33 -145h-14zM242 6c121 0 197 122 197 238c0 100 -51 158 -134 158c-120 0 -202 -135 -202 -242c0 -93 56 -154 139 -154z" />
    <glyph glyph-name="c" unicode="c" horiz-adv-x="425" 
d="M210 -6c-91 0 -167 65 -167 176c0 128 95 244 219 244c88 0 137 -54 137 -102c0 -18 -8 -25 -17 -25c-8 0 -15 5 -15 16c0 9 7 18 18 19c-6 40 -49 80 -124 80c-115 0 -204 -111 -204 -232c0 -104 68 -164 154 -164c49 0 92 16 132 47l-2 -15c-36 -27 -79 -44 -131 -44z
" />
    <glyph glyph-name="d" unicode="d" horiz-adv-x="527" 
d="M44 162c0 125 81 252 210 252c84 0 145 -58 149 -149l105 455h-86l2 12h101l-144 -626c-6 -25 -9 -39 -9 -53c0 -28 15 -47 43 -47c29 0 48 21 69 76l10 -3c-23 -61 -44 -85 -80 -85c-35 0 -55 25 -55 59c0 15 4 33 8 52c0 1 3 11 4 16c-35 -70 -97 -127 -179 -127
c-90 0 -148 61 -148 168zM193 6c119 0 202 135 202 242c0 92 -57 154 -140 154c-121 0 -197 -122 -197 -239c0 -100 51 -157 135 -157z" />
    <glyph glyph-name="e" unicode="e" horiz-adv-x="441" 
d="M389 214h-327c-3 -17 -5 -34 -5 -51c0 -100 67 -157 153 -157c52 0 93 12 133 35l-3 -14c-38 -21 -77 -33 -131 -33c-93 0 -167 62 -167 170c0 133 95 250 221 250c82 0 134 -53 134 -142c0 -19 -4 -40 -8 -58zM262 402c-97 0 -175 -77 -198 -176h314c3 15 5 32 5 47
c0 81 -46 129 -121 129z" />
    <glyph glyph-name="f" unicode="f" horiz-adv-x="266" 
d="M62 0l92 396h-80l2 12h81l37 160c15 67 32 105 63 134c24 22 55 33 80 33c32 0 48 -15 48 -29c0 -10 -6 -17 -16 -17c-12 0 -19 9 -19 18c0 5 1 10 3 13c-4 1 -10 2 -17 2c-21 0 -49 -8 -70 -29c-28 -27 -44 -64 -59 -127l-36 -158h113l-2 -12h-114l-92 -396h-14z" />
    <glyph glyph-name="g" unicode="g" horiz-adv-x="486" 
d="M150 -200c-43 0 -93 16 -117 44c-9 10 -13 20 -13 32c0 11 7 20 17 20c9 0 17 -8 17 -18c0 -9 -5 -16 -14 -19c14 -29 67 -47 112 -47c64 0 105 18 137 53c27 31 43 75 56 129l30 130c-35 -69 -98 -128 -179 -128c-91 0 -151 66 -151 169c0 119 84 249 211 249
c89 0 147 -62 152 -147l32 139h14l-95 -413c-14 -59 -31 -104 -61 -137c-33 -37 -78 -56 -148 -56zM197 8c120 0 202 142 202 245c0 85 -57 149 -143 149c-118 0 -196 -125 -196 -237c0 -95 52 -157 137 -157z" />
    <glyph glyph-name="h" unicode="h" horiz-adv-x="497" 
d="M47 0l170 720h-86l2 12h101l-112 -474c39 88 107 156 185 156c63 0 100 -35 100 -94c0 -23 -7 -58 -17 -91l-32 -106c-10 -32 -15 -53 -15 -72c0 -26 17 -45 44 -45c29 0 49 21 69 76l11 -3c-22 -61 -45 -85 -81 -85s-57 24 -57 57c0 21 5 42 15 74l32 106
c10 33 17 68 17 89c0 53 -30 82 -87 82c-88 0 -173 -99 -204 -230l-41 -172h-14z" />
    <glyph glyph-name="i" unicode="i" horiz-adv-x="256" 
d="M192 530c-10 0 -17 8 -17 18c0 9 7 17 17 17s17 -8 17 -17c0 -10 -7 -18 -17 -18zM129 -6c-35 0 -57 23 -57 58c0 20 6 41 15 73l80 271h-89l3 12h102l-82 -285c-10 -32 -15 -53 -15 -72c0 -27 17 -45 44 -45c28 0 47 21 68 76l11 -3c-23 -61 -44 -85 -80 -85z" />
    <glyph glyph-name="j" unicode="j" horiz-adv-x="214" 
d="M-61 -200c-22 0 -34 9 -34 23c0 8 7 15 16 15c12 0 20 -10 20 -22v-4c30 1 56 16 74 42c27 41 47 108 64 182l80 360h-89l2 12h103l-83 -374c-18 -82 -37 -147 -69 -190c-21 -29 -51 -44 -84 -44zM178 530c-9 0 -16 8 -16 18c0 9 7 17 16 17c11 0 18 -8 18 -17
c0 -10 -7 -18 -18 -18z" />
    <glyph glyph-name="k" unicode="k" horiz-adv-x="445" 
d="M62 0h-14l167 720h-84l2 12h98l-126 -546c113 47 262 133 274 190c-10 2 -16 12 -16 20c0 11 8 18 16 18c9 0 18 -9 18 -25c0 -52 -97 -118 -188 -167l54 -132c13 -32 25 -54 36 -68c10 -12 19 -16 33 -16c26 0 47 27 63 88l10 -3c-15 -63 -38 -97 -75 -97
c-17 0 -30 6 -42 21s-24 39 -37 71l-55 130c-34 -17 -68 -33 -94 -43z" />
    <glyph glyph-name="l" unicode="l" horiz-adv-x="237" 
d="M121 -6c-33 0 -56 24 -56 59c0 15 3 31 9 56l141 611h-83l2 12h98l-145 -626c-6 -25 -8 -39 -8 -53c0 -28 16 -47 43 -47c29 0 49 21 69 76l10 -3c-22 -61 -44 -85 -80 -85z" />
    <glyph glyph-name="m" unicode="m" horiz-adv-x="754" 
d="M53 0l99 396h-85l2 12h100l-39 -152c43 93 110 158 182 158c55 0 88 -34 88 -92c0 -16 -3 -37 -7 -58c42 90 111 150 183 150c54 0 90 -35 90 -91c0 -24 -7 -61 -18 -94l-33 -106c-10 -32 -14 -53 -14 -72c0 -26 16 -45 43 -45c28 0 49 21 70 76l10 -3
c-22 -61 -44 -85 -81 -85c-36 0 -56 24 -56 57c0 21 5 43 15 75l32 105c10 33 18 68 18 91c0 51 -28 80 -78 80c-86 0 -168 -96 -203 -227l-47 -175h-14l62 231c9 32 15 67 15 89c0 55 -28 82 -76 82c-85 0 -168 -99 -201 -229l-43 -173h-14z" />
    <glyph glyph-name="n" unicode="n" horiz-adv-x="503" 
d="M392 -6c-36 0 -56 24 -56 57c0 21 5 42 15 74l33 106c11 33 17 68 17 89c0 53 -29 82 -86 82c-87 0 -172 -99 -205 -229l-43 -173h-14l99 396h-85l2 12h100l-39 -152c43 93 111 158 187 158c62 0 98 -35 98 -93c0 -24 -7 -59 -17 -92l-34 -106c-9 -32 -14 -53 -14 -72
c0 -26 16 -45 43 -45c29 0 49 21 70 76l10 -3c-22 -61 -44 -85 -81 -85z" />
    <glyph glyph-name="o" unicode="o" horiz-adv-x="473" 
d="M214 -6c-95 0 -170 66 -170 178c0 123 89 242 214 242c96 0 170 -66 170 -179c0 -123 -88 -241 -214 -241zM214 6c117 0 200 112 200 229c0 105 -66 167 -156 167c-117 0 -200 -112 -200 -230c0 -104 68 -166 156 -166z" />
    <glyph glyph-name="p" unicode="p" horiz-adv-x="508" 
d="M-47 -196l2 12h60l135 580h-86l3 12h99l-28 -122c34 70 98 128 178 128c90 0 148 -62 148 -169c0 -125 -81 -251 -210 -251c-85 0 -144 57 -149 146l-76 -324h88l-3 -12h-161zM254 6c119 0 196 122 196 238c0 100 -52 158 -135 158c-119 0 -202 -136 -202 -242
c0 -93 56 -154 141 -154z" />
    <glyph glyph-name="q" unicode="q" horiz-adv-x="491" 
d="M194 -6c-91 0 -149 61 -149 168c0 125 81 252 210 252c84 0 143 -57 150 -145l32 139h14l-137 -592h86l-2 -12h-101l72 311c-36 -66 -96 -121 -175 -121zM194 6c119 0 202 135 202 242c0 92 -56 154 -140 154c-120 0 -196 -122 -196 -239c0 -100 50 -157 134 -157z" />
    <glyph glyph-name="r" unicode="r" horiz-adv-x="293" 
d="M57 0l98 396h-85l2 12h100l-39 -155c41 106 93 161 138 161c21 0 35 -14 35 -27c0 -10 -7 -17 -16 -17c-12 0 -19 10 -19 20c0 3 1 7 2 8c-2 1 -5 1 -7 1c-53 0 -119 -96 -153 -233l-42 -166h-14z" />
    <glyph glyph-name="s" unicode="s" horiz-adv-x="375" 
d="M170 -6c-58 0 -104 25 -126 52c-11 15 -18 31 -18 44s6 23 17 23c8 0 14 -8 14 -17c0 -12 -7 -18 -15 -20c2 -7 7 -16 14 -24c19 -23 60 -46 115 -46c71 0 119 39 119 95c0 49 -42 75 -103 105c-53 25 -102 54 -102 106c0 60 57 102 125 102c54 0 97 -21 117 -44
c12 -13 17 -27 17 -37c0 -13 -7 -21 -16 -21s-16 7 -16 17c0 9 6 16 14 19c-3 6 -6 12 -13 19c-19 19 -57 35 -103 35c-61 0 -111 -37 -111 -89c0 -45 37 -69 97 -97c57 -28 108 -56 108 -114c0 -66 -56 -108 -134 -108z" />
    <glyph glyph-name="t" unicode="t" horiz-adv-x="280" 
d="M283 396h-133l-71 -285c-4 -18 -8 -37 -8 -51c0 -36 21 -54 52 -54c26 0 56 16 92 47l7 -9c-38 -33 -70 -50 -100 -50c-40 0 -65 23 -65 66c0 15 4 34 9 52l70 284h-80l2 12h81l28 111l15 3l-29 -114h133z" />
    <glyph glyph-name="u" unicode="u" horiz-adv-x="508" 
d="M64 408h99l-55 -224c-12 -49 -16 -76 -16 -96c0 -50 29 -82 82 -82c86 0 170 98 202 228l43 174h14l-75 -305c-5 -21 -8 -36 -8 -50c0 -28 15 -47 43 -47c29 0 48 21 69 76l10 -3c-23 -61 -44 -85 -80 -85c-34 0 -55 24 -55 59c0 15 3 32 8 54c0 1 6 23 11 42
c-41 -89 -109 -155 -184 -155c-59 0 -95 37 -95 94c0 22 6 49 18 97l52 211h-86z" />
    <glyph glyph-name="v" unicode="v" horiz-adv-x="435" 
d="M171 -17l-62 413h-80l3 12h89l60 -404c127 141 209 275 212 373c-3 -1 -4 -1 -7 -1c-11 0 -21 9 -21 21c0 9 7 17 16 17c14 0 24 -13 24 -39c0 -95 -95 -250 -228 -392h-6z" />
    <glyph glyph-name="w" unicode="w" horiz-adv-x="625" 
d="M137 -17l-26 413h-80l2 12h91l24 -396l185 338h7l72 -346c91 134 158 290 158 368v4s-3 -1 -6 -1c-11 0 -22 9 -22 21c0 9 6 17 16 17c15 0 25 -14 25 -41c0 -84 -73 -248 -172 -389h-8l-70 343l-189 -343h-7z" />
    <glyph glyph-name="x" unicode="x" horiz-adv-x="456" 
d="M37 -6c-21 0 -34 12 -34 26c0 11 7 18 16 18c13 0 19 -12 19 -20c0 -4 -1 -8 -4 -11c2 -1 3 -1 6 -1c29 0 61 25 112 96c15 22 57 82 72 106l-73 188h-76l2 12h85l70 -188c14 23 45 72 60 92c54 77 86 102 119 102c22 0 36 -13 36 -28c0 -9 -7 -17 -16 -17
c-14 0 -19 12 -19 20c0 5 1 8 4 11c-2 1 -5 1 -7 1c-28 0 -57 -25 -108 -97c-14 -20 -50 -72 -63 -95l44 -116c28 -72 42 -87 65 -87c20 0 38 19 54 75l10 -3c-17 -62 -36 -84 -65 -84c-30 0 -48 19 -76 93l-41 110c-15 -27 -53 -81 -68 -103c-55 -76 -88 -100 -124 -100z
" />
    <glyph glyph-name="y" unicode="y" horiz-adv-x="440" 
d="M-34 -197c-20 0 -34 10 -34 24c0 9 7 16 16 16c13 0 21 -9 21 -21c0 -2 0 -4 -1 -7c38 2 112 52 214 176l-78 405h-79l2 12h89l77 -405c108 134 200 299 202 374c0 0 -3 -1 -6 -1c-11 0 -22 9 -22 21c0 10 7 17 16 17c14 0 25 -13 25 -36c0 -75 -97 -250 -212 -389
c-113 -138 -189 -186 -230 -186z" />
    <glyph glyph-name="z" unicode="z" horiz-adv-x="400" 
d="M2 -7l-6 8l381 395h-271l-22 -87h-12l24 99h297l4 -8l-374 -387c21 9 44 13 80 13c52 0 107 -22 144 -22c47 0 74 33 94 103l11 -2c-20 -71 -48 -113 -106 -113c-40 0 -92 22 -145 22c-46 0 -69 -5 -99 -21z" />
    <glyph glyph-name="Aacute" unicode="&#xc1;" horiz-adv-x="682" 
d="M-16 0l3 13h58l383 632h-95l3 13h217l-3 -13h-92l91 -632h69l-3 -13h-177l3 13h93l-34 241h-292l-146 -241h102l-3 -13h-177zM215 267h283l-54 380zM412 719l-3 5l129 86c6 4 12 7 16 7c6 0 11 -6 11 -11s-5 -10 -14 -14z" />
    <glyph glyph-name="aacute" unicode="&#xe1;" horiz-adv-x="516" 
d="M185 -6c-82 0 -141 56 -141 160c0 130 86 260 209 260c80 0 139 -58 144 -146l34 140h14l-75 -305c-5 -21 -8 -36 -8 -50c0 -28 15 -47 42 -47c30 0 48 21 70 76l10 -3c-23 -61 -44 -85 -81 -85c-34 0 -54 25 -54 59c0 15 4 34 8 52l3 11c-35 -68 -96 -122 -175 -122z
M186 6c120 0 201 138 201 248c0 87 -56 148 -134 148c-114 0 -195 -124 -195 -247c0 -97 52 -149 128 -149zM257 493l-3 5l129 86c6 4 12 7 16 7c6 0 11 -6 11 -11s-5 -10 -14 -14z" />
    <glyph glyph-name="Abreve" unicode="&#x102;" horiz-adv-x="682" 
d="M-16 0l3 13h58l383 632h-95l3 13h217l-3 -13h-92l91 -632h69l-3 -13h-177l3 13h93l-34 241h-292l-146 -241h102l-3 -13h-177zM215 267h283l-54 380zM456 718c-60 0 -96 41 -108 98l11 4c13 -53 46 -86 99 -86c56 0 103 35 131 84l9 -5c-27 -53 -80 -95 -142 -95z" />
    <glyph glyph-name="abreve" unicode="&#x103;" horiz-adv-x="516" 
d="M185 -6c-82 0 -141 56 -141 160c0 130 86 260 209 260c80 0 139 -58 144 -146l34 140h14l-75 -305c-5 -21 -8 -36 -8 -50c0 -28 15 -47 42 -47c30 0 48 21 70 76l10 -3c-23 -61 -44 -85 -81 -85c-34 0 -54 25 -54 59c0 15 4 34 8 52l3 11c-35 -68 -96 -122 -175 -122z
M186 6c120 0 201 138 201 248c0 87 -56 148 -134 148c-114 0 -195 -124 -195 -247c0 -97 52 -149 128 -149zM302 492c-60 0 -96 41 -108 98l11 4c13 -53 46 -86 99 -86c56 0 103 35 131 84l9 -5c-27 -53 -80 -95 -142 -95z" />
    <glyph glyph-name="Acircumflex" unicode="&#xc2;" horiz-adv-x="682" 
d="M-16 0l3 13h58l383 632h-95l3 13h217l-3 -13h-92l91 -632h69l-3 -13h-177l3 13h93l-34 241h-292l-146 -241h102l-3 -13h-177zM215 267h283l-54 380zM337 712l-5 6l150 105l94 -105l-6 -5l-91 87z" />
    <glyph glyph-name="acircumflex" unicode="&#xe2;" horiz-adv-x="516" 
d="M185 -6c-82 0 -141 56 -141 160c0 130 86 260 209 260c80 0 139 -58 144 -146l34 140h14l-75 -305c-5 -21 -8 -36 -8 -50c0 -28 15 -47 42 -47c30 0 48 21 70 76l10 -3c-23 -61 -44 -85 -81 -85c-34 0 -54 25 -54 59c0 15 4 34 8 52l3 11c-35 -68 -96 -122 -175 -122z
M186 6c120 0 201 138 201 248c0 87 -56 148 -134 148c-114 0 -195 -124 -195 -247c0 -97 52 -149 128 -149zM182 486l-5 6l150 105l94 -105l-6 -5l-91 87z" />
    <glyph glyph-name="Adieresis" unicode="&#xc4;" horiz-adv-x="682" 
d="M-16 0l3 13h58l383 632h-95l3 13h217l-3 -13h-92l91 -632h69l-3 -13h-177l3 13h93l-34 241h-292l-146 -241h102l-3 -13h-177zM215 267h283l-54 380zM519 737c-11 0 -19 8 -19 18c0 11 8 19 19 19c10 0 18 -8 18 -19c0 -10 -8 -18 -18 -18zM412 737c-10 0 -18 8 -18 18
c0 11 8 19 18 19c11 0 19 -8 19 -19c0 -10 -8 -18 -19 -18z" />
    <glyph glyph-name="adieresis" unicode="&#xe4;" horiz-adv-x="516" 
d="M185 -6c-82 0 -141 56 -141 160c0 130 86 260 209 260c80 0 139 -58 144 -146l34 140h14l-75 -305c-5 -21 -8 -36 -8 -50c0 -28 15 -47 42 -47c30 0 48 21 70 76l10 -3c-23 -61 -44 -85 -81 -85c-34 0 -54 25 -54 59c0 15 4 34 8 52l3 11c-35 -68 -96 -122 -175 -122z
M186 6c120 0 201 138 201 248c0 87 -56 148 -134 148c-114 0 -195 -124 -195 -247c0 -97 52 -149 128 -149zM365 511c-11 0 -19 8 -19 18c0 11 8 19 19 19c10 0 18 -8 18 -19c0 -10 -8 -18 -18 -18zM258 511c-10 0 -18 8 -18 18c0 11 8 19 18 19c11 0 19 -8 19 -19
c0 -10 -8 -18 -19 -18z" />
    <glyph glyph-name="AE" unicode="&#xc6;" horiz-adv-x="832" 
d="M-57 0l3 13h63l497 632h-104l3 13h464l-32 -137h-14l29 124h-308l-69 -302h239l-3 -13h-239l-73 -317h307l29 124h14l-32 -137h-432l3 13h96l56 244h-223l-192 -244h98l-3 -13h-177zM227 270h216l87 376h-8z" />
    <glyph glyph-name="ae" unicode="&#xe6;" horiz-adv-x="735" 
d="M683 214h-325c-3 -17 -5 -34 -5 -52c0 -101 66 -156 151 -156c52 0 94 12 133 35l-3 -14c-37 -21 -76 -33 -131 -33c-88 0 -156 55 -162 154c-31 -95 -119 -155 -199 -155c-84 0 -119 49 -119 104c0 81 75 129 196 129h125c-2 92 -38 176 -141 176c-34 0 -54 -8 -68 -18
c-7 -5 -14 -13 -17 -19c8 -4 13 -10 13 -18c0 -9 -7 -18 -16 -18c-11 0 -18 8 -18 20c0 15 10 31 29 44c17 11 40 21 76 21c103 0 145 -75 153 -166c28 95 105 166 202 166c83 0 134 -53 134 -142c0 -19 -3 -40 -8 -58zM142 5c88 0 198 84 202 209h-124
c-114 0 -183 -42 -183 -117c0 -50 33 -92 105 -92zM557 402c-97 0 -173 -77 -197 -176h312c3 15 5 32 5 47c0 81 -46 129 -120 129z" />
    <glyph glyph-name="AEacute" unicode="&#x1fc;" horiz-adv-x="832" 
d="M562 719l-3 5l129 86c6 4 12 7 16 7c6 0 11 -6 11 -11s-5 -10 -14 -14zM-57 0l3 13h63l497 632h-104l3 13h464l-32 -137h-14l29 124h-308l-69 -302h239l-3 -13h-239l-73 -317h307l29 124h14l-32 -137h-432l3 13h96l56 244h-223l-192 -244h98l-3 -13h-177zM227 270h216
l87 376h-8z" />
    <glyph glyph-name="aeacute" unicode="&#x1fd;" horiz-adv-x="735" 
d="M377 493l-3 5l129 86c6 4 12 7 16 7c6 0 11 -6 11 -11s-5 -10 -14 -14zM683 214h-325c-3 -17 -5 -34 -5 -52c0 -101 66 -156 151 -156c52 0 94 12 133 35l-3 -14c-37 -21 -76 -33 -131 -33c-88 0 -156 55 -162 154c-31 -95 -119 -155 -199 -155c-84 0 -119 49 -119 104
c0 81 75 129 196 129h125c-2 92 -38 176 -141 176c-34 0 -54 -8 -68 -18c-7 -5 -14 -13 -17 -19c8 -4 13 -10 13 -18c0 -9 -7 -18 -16 -18c-11 0 -18 8 -18 20c0 15 10 31 29 44c17 11 40 21 76 21c103 0 145 -75 153 -166c28 95 105 166 202 166c83 0 134 -53 134 -142
c0 -19 -3 -40 -8 -58zM142 5c88 0 198 84 202 209h-124c-114 0 -183 -42 -183 -117c0 -50 33 -92 105 -92zM557 402c-97 0 -173 -77 -197 -176h312c3 15 5 32 5 47c0 81 -46 129 -120 129z" />
    <glyph glyph-name="Agrave" unicode="&#xc0;" horiz-adv-x="682" 
d="M-16 0l3 13h58l383 632h-95l3 13h217l-3 -13h-92l91 -632h69l-3 -13h-177l3 13h93l-34 241h-292l-146 -241h102l-3 -13h-177zM215 267h283l-54 380zM502 719l-121 80c-7 4 -11 9 -11 14s4 10 9 10s8 0 15 -7l112 -92z" />
    <glyph glyph-name="agrave" unicode="&#xe0;" horiz-adv-x="516" 
d="M185 -6c-82 0 -141 56 -141 160c0 130 86 260 209 260c80 0 139 -58 144 -146l34 140h14l-75 -305c-5 -21 -8 -36 -8 -50c0 -28 15 -47 42 -47c30 0 48 21 70 76l10 -3c-23 -61 -44 -85 -81 -85c-34 0 -54 25 -54 59c0 15 4 34 8 52l3 11c-35 -68 -96 -122 -175 -122z
M186 6c120 0 201 138 201 248c0 87 -56 148 -134 148c-114 0 -195 -124 -195 -247c0 -97 52 -149 128 -149zM348 493l-121 80c-7 4 -11 9 -11 14s4 10 9 10s8 0 15 -7l112 -92z" />
    <glyph glyph-name="Amacron" unicode="&#x100;" horiz-adv-x="682" 
d="M-16 0l3 13h58l383 632h-95l3 13h217l-3 -13h-92l91 -632h69l-3 -13h-177l3 13h93l-34 241h-292l-146 -241h102l-3 -13h-177zM215 267h283l-54 380zM336 749l3 14h260l-3 -14h-260z" />
    <glyph glyph-name="amacron" unicode="&#x101;" horiz-adv-x="516" 
d="M185 -6c-82 0 -141 56 -141 160c0 130 86 260 209 260c80 0 139 -58 144 -146l34 140h14l-75 -305c-5 -21 -8 -36 -8 -50c0 -28 15 -47 42 -47c30 0 48 21 70 76l10 -3c-23 -61 -44 -85 -81 -85c-34 0 -54 25 -54 59c0 15 4 34 8 52l3 11c-35 -68 -96 -122 -175 -122z
M186 6c120 0 201 138 201 248c0 87 -56 148 -134 148c-114 0 -195 -124 -195 -247c0 -97 52 -149 128 -149zM180 523l3 14h260l-3 -14h-260z" />
    <glyph glyph-name="Aogonek" unicode="&#x104;" horiz-adv-x="682" 
d="M-16 0l3 13h58l383 632h-95l3 13h217l-3 -13h-92l91 -632h69l-3 -13h-67c-62 -48 -94 -90 -94 -133c0 -35 22 -56 57 -56c19 0 36 4 49 9l-4 -12c-11 -5 -27 -9 -47 -9c-42 0 -69 24 -69 66c0 45 31 90 93 135h-95l3 13h93l-34 241h-292l-146 -241h102l-3 -13h-177z
M215 267h283l-54 380z" />
    <glyph glyph-name="aogonek" unicode="&#x105;" horiz-adv-x="516" 
d="M349 53c0 15 4 34 8 52l3 11c-35 -68 -96 -122 -175 -122c-82 0 -141 56 -141 160c0 130 86 260 209 260c80 0 138 -57 144 -145l34 139h14l-75 -305c-5 -21 -8 -36 -8 -50c0 -28 15 -47 42 -47c28 0 48 21 70 76l10 -3c-9 -25 -21 -53 -52 -81c-39 -34 -97 -73 -97 -131
c0 -35 22 -56 57 -56c19 0 35 4 48 9l-3 -12c-12 -5 -27 -9 -47 -9c-42 0 -69 24 -69 66c0 53 46 94 94 130c-5 -1 -9 -1 -12 -1c-33 0 -54 24 -54 59zM186 6c120 0 201 138 201 248c0 87 -56 148 -134 148c-114 0 -195 -124 -195 -247c0 -97 52 -149 128 -149z" />
    <glyph glyph-name="Aring" unicode="&#xc5;" horiz-adv-x="682" 
d="M-16 0l3 13h58l383 632h-95l3 13h82c-20 9 -32 30 -32 53c0 45 34 88 81 88c40 0 63 -29 63 -63c0 -35 -20 -66 -49 -78h72l-3 -13h-92l91 -632h69l-3 -13h-177l3 13h93l-34 241h-292l-146 -241h102l-3 -13h-177zM449 658c38 0 67 37 67 78c0 28 -19 52 -49 52
c-39 0 -67 -38 -67 -78c0 -28 19 -52 49 -52zM215 267h283l-54 380z" />
    <glyph glyph-name="aring" unicode="&#xe5;" horiz-adv-x="516" 
d="M185 -6c-82 0 -141 56 -141 160c0 130 86 260 209 260c80 0 139 -58 144 -146l34 140h14l-75 -305c-5 -21 -8 -36 -8 -50c0 -28 15 -47 42 -47c30 0 48 21 70 76l10 -3c-23 -61 -44 -85 -81 -85c-34 0 -54 25 -54 59c0 15 4 34 8 52l3 11c-35 -68 -96 -122 -175 -122z
M186 6c120 0 201 138 201 248c0 87 -56 148 -134 148c-114 0 -195 -124 -195 -247c0 -97 52 -149 128 -149zM312 491c-39 0 -62 30 -62 63c0 46 34 90 80 90c40 0 63 -30 63 -63c0 -46 -35 -90 -81 -90zM313 502c38 0 66 39 66 79c0 28 -19 51 -49 51c-38 0 -66 -38 -66 -78
c0 -28 19 -52 49 -52z" />
    <glyph glyph-name="Aringacute" unicode="&#x1fa;" horiz-adv-x="682" 
d="M466 858l-3 5l129 86c6 4 12 7 16 7c6 0 11 -6 11 -11s-5 -10 -14 -14zM-16 0l3 13h58l383 632h-95l3 13h82c-20 9 -32 30 -32 53c0 45 34 88 81 88c40 0 63 -29 63 -63c0 -35 -20 -66 -49 -78h72l-3 -13h-92l91 -632h69l-3 -13h-177l3 13h93l-34 241h-292l-146 -241h102
l-3 -13h-177zM449 658c38 0 67 37 67 78c0 28 -19 52 -49 52c-39 0 -67 -38 -67 -78c0 -28 19 -52 49 -52zM215 267h283l-54 380z" />
    <glyph glyph-name="aringacute" unicode="&#x1fb;" horiz-adv-x="516" 
d="M185 -6c-82 0 -141 56 -141 160c0 130 86 260 209 260c80 0 139 -58 144 -146l34 140h14l-75 -305c-5 -21 -8 -36 -8 -50c0 -28 15 -47 42 -47c30 0 48 21 70 76l10 -3c-23 -61 -44 -85 -81 -85c-34 0 -54 25 -54 59c0 15 4 34 8 52l3 11c-35 -68 -96 -122 -175 -122z
M186 6c120 0 201 138 201 248c0 87 -56 148 -134 148c-114 0 -195 -124 -195 -247c0 -97 52 -149 128 -149zM312 491c-39 0 -62 30 -62 63c0 46 34 90 80 90c40 0 63 -30 63 -63c0 -46 -35 -90 -81 -90zM313 502c38 0 66 39 66 79c0 28 -19 51 -49 51c-38 0 -66 -38 -66 -78
c0 -28 19 -52 49 -52zM334 710l-3 5l129 86c6 4 12 7 16 7c6 0 11 -6 11 -11s-5 -10 -14 -14z" />
    <glyph glyph-name="Atilde" unicode="&#xc3;" horiz-adv-x="682" 
d="M-16 0l3 13h58l383 632h-95l3 13h217l-3 -13h-92l91 -632h69l-3 -13h-177l3 13h93l-34 241h-292l-146 -241h102l-3 -13h-177zM215 267h283l-54 380zM536 727c-26 0 -44 11 -73 33c-30 22 -46 31 -65 31c-30 0 -48 -20 -65 -61l-9 4c16 44 40 71 75 71c24 0 43 -11 73 -33
c31 -23 45 -30 66 -30c32 0 49 21 67 62l10 -4c-17 -44 -41 -73 -79 -73z" />
    <glyph glyph-name="atilde" unicode="&#xe3;" horiz-adv-x="516" 
d="M185 -6c-82 0 -141 56 -141 160c0 130 86 260 209 260c80 0 139 -58 144 -146l34 140h14l-75 -305c-5 -21 -8 -36 -8 -50c0 -28 15 -47 42 -47c30 0 48 21 70 76l10 -3c-23 -61 -44 -85 -81 -85c-34 0 -54 25 -54 59c0 15 4 34 8 52l3 11c-35 -68 -96 -122 -175 -122z
M186 6c120 0 201 138 201 248c0 87 -56 148 -134 148c-114 0 -195 -124 -195 -247c0 -97 52 -149 128 -149zM382 501c-26 0 -44 11 -73 33c-30 22 -46 31 -65 31c-30 0 -48 -20 -65 -61l-9 4c16 44 40 71 75 71c24 0 43 -11 73 -33c31 -23 45 -30 66 -30c32 0 49 21 67 62
l10 -4c-17 -44 -41 -73 -79 -73z" />
    <glyph glyph-name="Cacute" unicode="&#x106;" horiz-adv-x="640" 
d="M410 719l-3 5l129 86c6 4 12 7 16 7c6 0 11 -6 11 -11s-5 -10 -14 -14zM342 -9c-167 0 -264 120 -264 278c0 191 145 399 358 399c136 0 206 -80 206 -146c0 -18 -9 -28 -20 -28c-9 0 -17 6 -17 18c0 10 8 20 21 22c-5 55 -69 122 -191 122c-204 0 -342 -204 -342 -387
c0 -147 91 -266 250 -266c78 0 163 37 227 98l9 -10c-65 -63 -154 -100 -237 -100z" />
    <glyph glyph-name="cacute" unicode="&#x107;" horiz-adv-x="425" 
d="M246 493l-3 5l129 86c6 4 12 7 16 7c6 0 11 -6 11 -11s-5 -10 -14 -14zM210 -6c-91 0 -167 65 -167 176c0 128 95 244 219 244c88 0 137 -54 137 -102c0 -18 -8 -25 -17 -25c-8 0 -15 5 -15 16c0 9 7 18 18 19c-6 40 -49 80 -124 80c-115 0 -204 -111 -204 -232
c0 -104 68 -164 154 -164c49 0 92 16 132 47l-2 -15c-36 -27 -79 -44 -131 -44z" />
    <glyph glyph-name="Ccaron" unicode="&#x10c;" horiz-adv-x="640" 
d="M444 713l-94 105l6 5l91 -87l142 88l5 -6zM342 -9c-167 0 -264 120 -264 278c0 191 145 399 358 399c136 0 206 -80 206 -146c0 -18 -9 -28 -20 -28c-9 0 -17 6 -17 18c0 10 8 20 21 22c-5 55 -69 122 -191 122c-204 0 -342 -204 -342 -387c0 -147 91 -266 250 -266
c78 0 163 37 227 98l9 -10c-65 -63 -154 -100 -237 -100z" />
    <glyph glyph-name="ccaron" unicode="&#x10d;" horiz-adv-x="425" 
d="M280 487l-94 105l6 5l91 -87l142 88l5 -6zM210 -6c-91 0 -167 65 -167 176c0 128 95 244 219 244c88 0 137 -54 137 -102c0 -18 -8 -25 -17 -25c-8 0 -15 5 -15 16c0 9 7 18 18 19c-6 40 -49 80 -124 80c-115 0 -204 -111 -204 -232c0 -104 68 -164 154 -164
c49 0 92 16 132 47l-2 -15c-36 -27 -79 -44 -131 -44z" />
    <glyph glyph-name="Ccedilla" unicode="&#xc7;" horiz-adv-x="640" 
d="M273 -200c-37 0 -72 12 -100 29l6 10c27 -15 60 -27 94 -27c47 0 71 26 71 56c0 29 -23 53 -79 51l-2 3l32 72c-138 21 -217 132 -217 275c0 191 145 399 358 399c136 0 206 -80 206 -146c0 -18 -9 -28 -20 -28c-9 0 -17 6 -17 18c0 10 8 20 21 22
c-5 55 -69 122 -191 122c-204 0 -342 -204 -342 -387c0 -147 91 -266 250 -266c78 0 163 37 227 98l9 -10c-65 -63 -154 -100 -237 -100c-13 0 -24 1 -36 2l-26 -63c56 -3 78 -30 78 -61c0 -38 -30 -69 -85 -69z" />
    <glyph glyph-name="ccedilla" unicode="&#xe7;" horiz-adv-x="425" 
d="M147 -200c-37 0 -72 12 -100 29l6 10c27 -15 60 -27 94 -27c47 0 71 26 71 56c0 29 -23 53 -79 51l-2 3l33 76c-72 17 -127 77 -127 172c0 128 95 244 219 244c88 0 137 -54 137 -102c0 -18 -8 -25 -17 -25c-8 0 -15 5 -15 16c0 9 7 18 18 19c-6 40 -49 80 -124 80
c-115 0 -204 -111 -204 -232c0 -104 68 -164 154 -164c49 0 92 16 132 47l-2 -15c-36 -27 -79 -44 -131 -44c-10 0 -20 1 -29 2l-27 -66c56 -3 78 -30 78 -61c0 -38 -30 -69 -85 -69z" />
    <glyph glyph-name="Cdotaccent" unicode="&#x10a;" horiz-adv-x="640" 
d="M342 -9c-167 0 -264 120 -264 278c0 191 145 399 358 399c136 0 206 -80 206 -146c0 -18 -9 -28 -20 -28c-9 0 -17 6 -17 18c0 10 8 20 21 22c-5 55 -69 122 -191 122c-204 0 -342 -204 -342 -387c0 -147 91 -266 250 -266c78 0 163 37 227 98l9 -10
c-65 -63 -154 -100 -237 -100zM467 753c-11 0 -19 8 -19 19s8 20 19 20s19 -9 19 -20s-8 -19 -19 -19z" />
    <glyph glyph-name="cdotaccent" unicode="&#x10b;" horiz-adv-x="425" 
d="M210 -6c-91 0 -167 65 -167 176c0 128 95 244 219 244c88 0 137 -54 137 -102c0 -18 -8 -25 -17 -25c-8 0 -15 5 -15 16c0 9 7 18 18 19c-6 40 -49 80 -124 80c-115 0 -204 -111 -204 -232c0 -104 68 -164 154 -164c49 0 92 16 132 47l-2 -15c-36 -27 -79 -44 -131 -44z
M303 527c-11 0 -19 8 -19 19s8 20 19 20s19 -9 19 -20s-8 -19 -19 -19z" />
    <glyph glyph-name="Dcaron" unicode="&#x10e;" horiz-adv-x="666" 
d="M394 713l-94 105l6 5l91 -87l142 88l5 -6zM-4 0l3 13h95l146 632h-105l3 13h190c106 0 192 -28 249 -85c44 -44 71 -107 71 -185c0 -108 -38 -199 -109 -270c-75 -76 -194 -118 -338 -118h-205zM109 13h94c139 0 253 42 326 115c67 68 105 155 105 259
c0 75 -26 136 -67 177c-54 54 -137 81 -240 81h-72z" />
    <glyph glyph-name="dcaron" unicode="&#x10f;" horiz-adv-x="527" 
d="M542 582l-5 5c18 24 30 46 37 70c7 22 8 49 9 61c1 9 6 13 12 13c7 0 11 -4 11 -12c0 -14 -8 -40 -18 -63c-12 -27 -27 -50 -46 -74zM44 162c0 125 81 252 210 252c84 0 145 -58 149 -149l105 455h-86l2 12h101l-144 -626c-6 -25 -9 -39 -9 -53c0 -28 15 -47 43 -47
c29 0 48 21 69 76l10 -3c-23 -61 -44 -85 -80 -85c-35 0 -55 25 -55 59c0 15 4 33 8 52c0 1 3 11 4 16c-35 -70 -97 -127 -179 -127c-90 0 -148 61 -148 168zM193 6c119 0 202 135 202 242c0 92 -57 154 -140 154c-121 0 -197 -122 -197 -239c0 -100 51 -157 135 -157z" />
    <glyph glyph-name="Dcroat" unicode="&#x110;" horiz-adv-x="683" 
d="M-4 0l3 13h95l73 317h-83l2 13h84l70 302h-105l3 13h190c106 0 192 -28 249 -85c44 -44 71 -107 71 -185c0 -108 -38 -199 -109 -270c-75 -76 -194 -118 -338 -118h-205zM109 13h94c139 0 253 42 326 115c67 68 105 155 105 259c0 75 -26 136 -67 177
c-54 54 -137 81 -240 81h-72l-70 -302h156l-3 -13h-156z" />
    <glyph glyph-name="dcroat" unicode="&#x111;" horiz-adv-x="527" 
d="M305 563l3 12h167l33 145h-86l2 12h101l-36 -157h81l-3 -12h-81l-105 -457c-6 -25 -9 -39 -9 -53c0 -28 15 -47 43 -47c29 0 48 21 69 76l10 -3c-23 -61 -44 -85 -80 -85c-35 0 -55 25 -55 59c0 15 4 33 8 52c0 1 3 11 4 16c-35 -70 -97 -127 -179 -127
c-90 0 -148 61 -148 168c0 125 81 252 210 252c84 0 144 -58 149 -148l69 297h-167zM193 6c119 0 202 135 202 242c0 92 -57 154 -140 154c-121 0 -197 -122 -197 -239c0 -100 51 -157 135 -157z" />
    <glyph glyph-name="Eacute" unicode="&#xc9;" horiz-adv-x="546" 
d="M342 719l-3 5l129 86c6 4 12 7 16 7c6 0 11 -6 11 -11s-5 -10 -14 -14zM-4 0l3 13h95l146 632h-105l3 13h445l-31 -137h-15l29 124h-311l-69 -302h242l-3 -13h-242l-74 -317h311l28 124h15l-32 -137h-435z" />
    <glyph glyph-name="eacute" unicode="&#xe9;" horiz-adv-x="441" 
d="M238 493l-3 5l129 86c6 4 12 7 16 7c6 0 11 -6 11 -11s-5 -10 -14 -14zM389 214h-327c-3 -17 -5 -34 -5 -51c0 -100 67 -157 153 -157c52 0 93 12 133 35l-3 -14c-38 -21 -77 -33 -131 -33c-93 0 -167 62 -167 170c0 133 95 250 221 250c82 0 134 -53 134 -142
c0 -19 -4 -40 -8 -58zM262 402c-97 0 -175 -77 -198 -176h314c3 15 5 32 5 47c0 81 -46 129 -121 129z" />
    <glyph glyph-name="Ebreve" unicode="&#x114;" horiz-adv-x="546" 
d="M-4 0l3 13h95l146 632h-105l3 13h445l-31 -137h-15l29 124h-311l-69 -302h242l-3 -13h-242l-74 -317h311l28 124h15l-32 -137h-435zM386 718c-60 0 -96 41 -108 98l11 4c13 -53 46 -86 99 -86c56 0 103 35 131 84l9 -5c-27 -53 -80 -95 -142 -95z" />
    <glyph glyph-name="ebreve" unicode="&#x115;" horiz-adv-x="441" 
d="M389 214h-327c-3 -17 -5 -34 -5 -51c0 -100 67 -157 153 -157c52 0 93 12 133 35l-3 -14c-38 -21 -77 -33 -131 -33c-93 0 -167 62 -167 170c0 133 95 250 221 250c82 0 134 -53 134 -142c0 -19 -4 -40 -8 -58zM262 402c-97 0 -175 -77 -198 -176h314c3 15 5 32 5 47
c0 81 -46 129 -121 129zM281 492c-60 0 -96 41 -108 98l11 4c13 -53 46 -86 99 -86c56 0 103 35 131 84l9 -5c-27 -53 -80 -95 -142 -95z" />
    <glyph glyph-name="Ecaron" unicode="&#x11a;" horiz-adv-x="546" 
d="M377 713l-94 105l6 5l91 -87l142 88l5 -6zM-4 0l3 13h95l146 632h-105l3 13h445l-31 -137h-15l29 124h-311l-69 -302h242l-3 -13h-242l-74 -317h311l28 124h15l-32 -137h-435z" />
    <glyph glyph-name="ecaron" unicode="&#x11b;" horiz-adv-x="441" 
d="M272 487l-94 105l6 5l91 -87l142 88l5 -6zM389 214h-327c-3 -17 -5 -34 -5 -51c0 -100 67 -157 153 -157c52 0 93 12 133 35l-3 -14c-38 -21 -77 -33 -131 -33c-93 0 -167 62 -167 170c0 133 95 250 221 250c82 0 134 -53 134 -142c0 -19 -4 -40 -8 -58zM262 402
c-97 0 -175 -77 -198 -176h314c3 15 5 32 5 47c0 81 -46 129 -121 129z" />
    <glyph glyph-name="Ecircumflex" unicode="&#xca;" horiz-adv-x="546" 
d="M266 712l-5 6l150 105l94 -105l-6 -5l-91 87zM-4 0l3 13h95l146 632h-105l3 13h445l-31 -137h-15l29 124h-311l-69 -302h242l-3 -13h-242l-74 -317h311l28 124h15l-32 -137h-435z" />
    <glyph glyph-name="ecircumflex" unicode="&#xea;" horiz-adv-x="441" 
d="M162 486l-5 6l150 105l94 -105l-6 -5l-91 87zM389 214h-327c-3 -17 -5 -34 -5 -51c0 -100 67 -157 153 -157c52 0 93 12 133 35l-3 -14c-38 -21 -77 -33 -131 -33c-93 0 -167 62 -167 170c0 133 95 250 221 250c82 0 134 -53 134 -142c0 -19 -4 -40 -8 -58zM262 402
c-97 0 -175 -77 -198 -176h314c3 15 5 32 5 47c0 81 -46 129 -121 129z" />
    <glyph glyph-name="Edieresis" unicode="&#xcb;" horiz-adv-x="546" 
d="M449 737c-11 0 -19 8 -19 18c0 11 8 19 19 19c10 0 18 -8 18 -19c0 -10 -8 -18 -18 -18zM342 737c-10 0 -18 8 -18 18c0 11 8 19 18 19c11 0 19 -8 19 -19c0 -10 -8 -18 -19 -18zM-4 0l3 13h95l146 632h-105l3 13h445l-31 -137h-15l29 124h-311l-69 -302h242l-3 -13h-242
l-74 -317h311l28 124h15l-32 -137h-435z" />
    <glyph glyph-name="edieresis" unicode="&#xeb;" horiz-adv-x="441" 
d="M344 511c-11 0 -19 8 -19 18c0 11 8 19 19 19c10 0 18 -8 18 -19c0 -10 -8 -18 -18 -18zM237 511c-10 0 -18 8 -18 18c0 11 8 19 18 19c11 0 19 -8 19 -19c0 -10 -8 -18 -19 -18zM389 214h-327c-3 -17 -5 -34 -5 -51c0 -100 67 -157 153 -157c52 0 93 12 133 35l-3 -14
c-38 -21 -77 -33 -131 -33c-93 0 -167 62 -167 170c0 133 95 250 221 250c82 0 134 -53 134 -142c0 -19 -4 -40 -8 -58zM262 402c-97 0 -175 -77 -198 -176h314c3 15 5 32 5 47c0 81 -46 129 -121 129z" />
    <glyph glyph-name="Edotaccent" unicode="&#x116;" horiz-adv-x="546" 
d="M-4 0l3 13h95l146 632h-105l3 13h445l-31 -137h-15l29 124h-311l-69 -302h242l-3 -13h-242l-74 -317h311l28 124h15l-32 -137h-435zM400 753c-11 0 -19 8 -19 19s8 20 19 20s19 -9 19 -20s-8 -19 -19 -19z" />
    <glyph glyph-name="edotaccent" unicode="&#x117;" horiz-adv-x="441" 
d="M389 214h-327c-3 -17 -5 -34 -5 -51c0 -100 67 -157 153 -157c52 0 93 12 133 35l-3 -14c-38 -21 -77 -33 -131 -33c-93 0 -167 62 -167 170c0 133 95 250 221 250c82 0 134 -53 134 -142c0 -19 -4 -40 -8 -58zM262 402c-97 0 -175 -77 -198 -176h314c3 15 5 32 5 47
c0 81 -46 129 -121 129zM295 527c-11 0 -19 8 -19 19s8 20 19 20s19 -9 19 -20s-8 -19 -19 -19z" />
    <glyph glyph-name="Egrave" unicode="&#xc8;" horiz-adv-x="546" 
d="M-4 0l3 13h95l146 632h-105l3 13h445l-31 -137h-15l29 124h-311l-69 -302h242l-3 -13h-242l-74 -317h311l28 124h15l-32 -137h-435zM431 719l-121 80c-7 4 -11 9 -11 14s4 10 9 10s8 0 15 -7l112 -92z" />
    <glyph glyph-name="egrave" unicode="&#xe8;" horiz-adv-x="441" 
d="M389 214h-327c-3 -17 -5 -34 -5 -51c0 -100 67 -157 153 -157c52 0 93 12 133 35l-3 -14c-38 -21 -77 -33 -131 -33c-93 0 -167 62 -167 170c0 133 95 250 221 250c82 0 134 -53 134 -142c0 -19 -4 -40 -8 -58zM262 402c-97 0 -175 -77 -198 -176h314c3 15 5 32 5 47
c0 81 -46 129 -121 129zM327 493l-121 80c-7 4 -11 9 -11 14s4 10 9 10s8 0 15 -7l112 -92z" />
    <glyph glyph-name="Emacron" unicode="&#x112;" horiz-adv-x="546" 
d="M-4 0l3 13h95l146 632h-105l3 13h445l-31 -137h-15l29 124h-311l-69 -302h242l-3 -13h-242l-74 -317h311l28 124h15l-32 -137h-435zM265 749l3 14h260l-3 -14h-260z" />
    <glyph glyph-name="emacron" unicode="&#x113;" horiz-adv-x="441" 
d="M389 214h-327c-3 -17 -5 -34 -5 -51c0 -100 67 -157 153 -157c52 0 93 12 133 35l-3 -14c-38 -21 -77 -33 -131 -33c-93 0 -167 62 -167 170c0 133 95 250 221 250c82 0 134 -53 134 -142c0 -19 -4 -40 -8 -58zM262 402c-97 0 -175 -77 -198 -176h314c3 15 5 32 5 47
c0 81 -46 129 -121 129zM161 523l3 14h260l-3 -14h-260z" />
    <glyph glyph-name="Eogonek" unicode="&#x118;" horiz-adv-x="546" 
d="M-4 0l3 13h95l146 632h-105l3 13h445l-31 -137h-15l29 124h-311l-69 -302h242l-3 -13h-242l-74 -317h311l28 124h15l-32 -137h-34c-62 -48 -93 -90 -93 -133c0 -35 22 -56 57 -56c19 0 36 4 49 9l-4 -12c-11 -5 -27 -9 -47 -9c-42 0 -69 24 -69 66c0 45 31 90 93 135
h-387z" />
    <glyph glyph-name="eogonek" unicode="&#x119;" horiz-adv-x="437" 
d="M261 -201c-41 0 -69 24 -69 66c0 49 36 96 106 144c-26 -10 -55 -15 -89 -15c-93 0 -167 62 -167 170c0 133 95 250 221 250c82 0 134 -53 134 -142c0 -19 -4 -40 -8 -58h-327c-3 -17 -5 -34 -5 -51c0 -100 66 -157 153 -157c52 0 93 12 133 35l-3 -14
c-89 -58 -134 -109 -134 -160c0 -35 23 -56 58 -56c19 0 35 4 48 9l-3 -12c-12 -5 -27 -9 -48 -9zM262 402c-97 0 -175 -77 -198 -176h314c3 15 5 32 5 47c0 81 -46 129 -121 129z" />
    <glyph glyph-name="Eth" unicode="&#xd0;" horiz-adv-x="672" 
d="M-4 0l3 13h95l73 317h-83l2 13h84l70 302h-105l3 13h190c106 0 192 -28 249 -85c44 -44 71 -107 71 -185c0 -108 -38 -199 -109 -270c-75 -76 -194 -118 -338 -118h-205zM109 13h94c139 0 253 42 326 115c67 68 105 155 105 259c0 75 -26 136 -67 177
c-54 54 -137 81 -240 81h-72l-70 -302h156l-3 -13h-156z" />
    <glyph glyph-name="eth" unicode="&#xf0;" horiz-adv-x="480" 
d="M210 -6c-85 1 -161 60 -161 173c0 119 87 231 210 231c77 0 148 -48 159 -142c2 21 3 44 3 68c0 111 -26 213 -70 285l-138 -123l-8 9l139 125c-40 60 -96 100 -145 104c-2 -14 -11 -21 -21 -21c-8 0 -15 6 -15 15c0 10 9 19 26 19c55 0 118 -41 164 -110l107 96l8 -9
l-108 -97c47 -73 75 -176 75 -292c0 -110 -18 -205 -81 -270c-36 -37 -83 -62 -144 -61zM211 6c57 0 99 22 134 58c41 42 66 102 66 163c0 103 -71 159 -153 159c-113 0 -195 -106 -195 -219c0 -104 69 -161 148 -161z" />
    <glyph glyph-name="Gbreve" unicode="&#x11e;" horiz-adv-x="678" 
d="M533 0l18 73c-54 -46 -134 -82 -219 -82c-163 0 -254 111 -254 261c0 198 150 416 371 416c81 0 140 -30 172 -64c27 -29 35 -58 35 -81c0 -14 -7 -25 -19 -25c-10 0 -18 8 -18 18c0 11 9 21 21 22c-2 17 -10 36 -30 59c-29 31 -87 59 -162 59
c-214 0 -355 -214 -355 -404c0 -140 86 -249 240 -249c85 0 165 37 222 88l47 185h-218l3 13h232l-72 -289h-14zM462 718c-60 0 -96 41 -108 98l11 4c13 -53 46 -86 99 -86c56 0 103 35 131 84l9 -5c-27 -53 -80 -95 -142 -95z" />
    <glyph glyph-name="gbreve" unicode="&#x11f;" horiz-adv-x="486" 
d="M150 -200c-43 0 -93 16 -117 44c-9 10 -13 20 -13 32c0 11 7 20 17 20c9 0 17 -8 17 -18c0 -9 -5 -16 -14 -19c14 -29 67 -47 112 -47c64 0 105 18 137 53c27 31 43 75 56 129l30 130c-35 -69 -98 -128 -179 -128c-91 0 -151 66 -151 169c0 119 84 249 211 249
c89 0 147 -62 152 -147l32 139h14l-95 -413c-14 -59 -31 -104 -61 -137c-33 -37 -78 -56 -148 -56zM197 8c120 0 202 142 202 245c0 85 -57 149 -143 149c-118 0 -196 -125 -196 -237c0 -95 52 -157 137 -157zM307 492c-60 0 -96 41 -108 98l11 4c13 -53 46 -86 99 -86
c56 0 103 35 131 84l9 -5c-27 -53 -80 -95 -142 -95z" />
    <glyph glyph-name="Gcommaaccent" unicode="&#x122;" horiz-adv-x="678" 
d="M533 0l18 73c-54 -46 -134 -82 -219 -82c-163 0 -254 111 -254 261c0 198 150 416 371 416c81 0 140 -30 172 -64c27 -29 35 -58 35 -81c0 -14 -7 -25 -19 -25c-10 0 -18 8 -18 18c0 11 9 21 21 22c-2 17 -10 36 -30 59c-29 31 -87 59 -162 59
c-214 0 -355 -214 -355 -404c0 -140 86 -249 240 -249c85 0 165 37 222 88l47 185h-218l3 13h232l-72 -289h-14zM227 -195l-4 7c39 25 64 55 68 88c-14 -2 -24 8 -24 20c0 9 7 17 17 17c14 0 22 -12 22 -27c0 -37 -33 -80 -79 -105z" />
    <glyph glyph-name="gcommaaccent" unicode="&#x123;" horiz-adv-x="496" 
d="M150 -200c-43 0 -93 16 -117 44c-9 10 -13 20 -13 32c0 11 7 20 17 20c9 0 17 -8 17 -18c0 -9 -5 -16 -14 -19c14 -29 67 -47 112 -47c64 0 105 18 137 53c27 31 43 75 56 129l30 130c-35 -69 -98 -128 -179 -128c-91 0 -151 66 -151 169c0 119 84 249 211 249
c89 0 147 -62 152 -147l32 139h14l-95 -413c-14 -59 -31 -104 -61 -137c-33 -37 -78 -56 -148 -56zM197 8c120 0 202 142 202 245c0 85 -57 149 -143 149c-118 0 -196 -125 -196 -237c0 -95 52 -157 137 -157zM374 662l4 -7c-39 -25 -64 -55 -68 -88c14 2 24 -8 24 -20
c0 -9 -7 -17 -17 -17c-14 0 -22 12 -22 27c0 37 33 80 79 105z" />
    <glyph glyph-name="Gdotaccent" unicode="&#x120;" horiz-adv-x="678" 
d="M533 0l18 73c-54 -46 -134 -82 -219 -82c-163 0 -254 111 -254 261c0 198 150 416 371 416c81 0 140 -30 172 -64c27 -29 35 -58 35 -81c0 -14 -7 -25 -19 -25c-10 0 -18 8 -18 18c0 11 9 21 21 22c-2 17 -10 36 -30 59c-29 31 -87 59 -162 59
c-214 0 -355 -214 -355 -404c0 -140 86 -249 240 -249c85 0 165 37 222 88l47 185h-218l3 13h232l-72 -289h-14zM475 753c-11 0 -19 8 -19 19s8 20 19 20s19 -9 19 -20s-8 -19 -19 -19z" />
    <glyph glyph-name="gdotaccent" unicode="&#x121;" horiz-adv-x="486" 
d="M150 -200c-43 0 -93 16 -117 44c-9 10 -13 20 -13 32c0 11 7 20 17 20c9 0 17 -8 17 -18c0 -9 -5 -16 -14 -19c14 -29 67 -47 112 -47c64 0 105 18 137 53c27 31 43 75 56 129l30 130c-35 -69 -98 -128 -179 -128c-91 0 -151 66 -151 169c0 119 84 249 211 249
c89 0 147 -62 152 -147l32 139h14l-95 -413c-14 -59 -31 -104 -61 -137c-33 -37 -78 -56 -148 -56zM197 8c120 0 202 142 202 245c0 85 -57 149 -143 149c-118 0 -196 -125 -196 -237c0 -95 52 -157 137 -157zM321 527c-11 0 -19 8 -19 19s8 20 19 20s19 -9 19 -20
s-8 -19 -19 -19z" />
    <glyph glyph-name="Hbar" unicode="&#x126;" horiz-adv-x="724" 
d="M735 501l-2 -12h-82l-109 -476h104l-3 -13h-213l2 13h95l74 321h-417l-75 -321h104l-3 -13h-214l3 13h95l110 476h-82l2 12h83l33 144h-105l3 13h218l-3 -13h-98l-33 -144h417l33 144h-107l2 13h218l-2 -13h-96l-33 -144h81zM186 347h418l32 142h-417z" />
    <glyph glyph-name="hbar" unicode="&#x127;" horiz-adv-x="497" 
d="M47 0l133 563h-82l3 12h82l34 145h-86l2 12h101l-37 -157h166l-3 -12h-166l-72 -305c39 88 107 156 185 156c63 0 100 -35 100 -94c0 -23 -7 -58 -17 -91l-32 -106c-10 -32 -15 -53 -15 -72c0 -26 17 -45 44 -45c29 0 49 21 69 76l11 -3c-22 -61 -45 -85 -81 -85
s-57 24 -57 57c0 21 5 42 15 74l32 106c10 33 17 68 17 89c0 53 -30 82 -87 82c-88 0 -173 -99 -204 -230l-41 -172h-14z" />
    <glyph glyph-name="Iacute" unicode="&#xcd;" horiz-adv-x="301" 
d="M-4 0l3 13h100l146 632h-100l2 13h216l-3 -13h-100l-146 -632h100l-2 -13h-216zM225 719l-3 5l129 86c6 4 12 7 16 7c6 0 11 -6 11 -11s-5 -10 -14 -14z" />
    <glyph glyph-name="iacute" unicode="&#xed;" horiz-adv-x="256" 
d="M153 493l-3 5l129 86c6 4 12 7 16 7c6 0 11 -6 11 -11s-5 -10 -14 -14zM129 -6c-35 0 -57 23 -57 58c0 20 6 41 15 73l80 271h-89l3 12h102l-82 -285c-10 -32 -15 -53 -15 -72c0 -27 17 -45 44 -45c28 0 47 21 68 76l11 -3c-23 -61 -44 -85 -80 -85z" />
    <glyph glyph-name="Ibreve" unicode="&#x12c;" horiz-adv-x="301" 
d="M-4 0l3 13h100l146 632h-100l2 13h216l-3 -13h-100l-146 -632h100l-2 -13h-216zM269 718c-60 0 -96 41 -108 98l11 4c13 -53 46 -86 99 -86c56 0 103 35 131 84l9 -5c-27 -53 -80 -95 -142 -95z" />
    <glyph glyph-name="ibreve" unicode="&#x12d;" horiz-adv-x="256" 
d="M129 -6c-35 0 -57 23 -57 58c0 20 6 41 15 73l80 271h-89l3 12h102l-82 -285c-10 -32 -15 -53 -15 -72c0 -27 17 -45 44 -45c28 0 47 21 68 76l11 -3c-23 -61 -44 -85 -80 -85zM198 492c-60 0 -96 41 -108 98l11 4c13 -53 46 -86 99 -86c56 0 103 35 131 84l9 -5
c-27 -53 -80 -95 -142 -95z" />
    <glyph glyph-name="Icircumflex" unicode="&#xce;" horiz-adv-x="301" 
d="M-4 0l3 13h100l146 632h-100l2 13h216l-3 -13h-100l-146 -632h100l-2 -13h-216zM150 712l-5 6l150 105l94 -105l-6 -5l-91 87z" />
    <glyph glyph-name="icircumflex" unicode="&#xee;" horiz-adv-x="256" 
d="M78 486l-5 6l150 105l94 -105l-6 -5l-91 87zM129 -6c-35 0 -57 23 -57 58c0 20 6 41 15 73l80 271h-89l3 12h102l-82 -285c-10 -32 -15 -53 -15 -72c0 -27 17 -45 44 -45c28 0 47 21 68 76l11 -3c-23 -61 -44 -85 -80 -85z" />
    <glyph glyph-name="Idieresis" unicode="&#xcf;" horiz-adv-x="301" 
d="M-4 0l3 13h100l146 632h-100l2 13h216l-3 -13h-100l-146 -632h100l-2 -13h-216zM332 737c-11 0 -19 8 -19 18c0 11 8 19 19 19c10 0 18 -8 18 -19c0 -10 -8 -18 -18 -18zM225 737c-10 0 -18 8 -18 18c0 11 8 19 18 19c11 0 19 -8 19 -19c0 -10 -8 -18 -19 -18z" />
    <glyph glyph-name="idieresis" unicode="&#xef;" horiz-adv-x="256" 
d="M261 511c-11 0 -19 8 -19 18c0 11 8 19 19 19c10 0 18 -8 18 -19c0 -10 -8 -18 -18 -18zM154 511c-10 0 -18 8 -18 18c0 11 8 19 18 19c11 0 19 -8 19 -19c0 -10 -8 -18 -19 -18zM129 -6c-35 0 -57 23 -57 58c0 20 6 41 15 73l80 271h-89l3 12h102l-82 -285
c-10 -32 -15 -53 -15 -72c0 -27 17 -45 44 -45c28 0 47 21 68 76l11 -3c-23 -61 -44 -85 -80 -85z" />
    <glyph glyph-name="Idotaccent" unicode="&#x130;" horiz-adv-x="301" 
d="M-4 0l3 13h100l146 632h-100l2 13h216l-3 -13h-100l-146 -632h100l-2 -13h-216zM283 753c-11 0 -19 8 -19 19s8 20 19 20s19 -9 19 -20s-8 -19 -19 -19z" />
    <glyph glyph-name="dotlessi" unicode="&#x131;" horiz-adv-x="256" 
d="M129 -6c-35 0 -57 23 -57 58c0 20 6 41 15 73l80 271h-89l3 12h102l-82 -285c-10 -32 -15 -53 -15 -72c0 -27 17 -45 44 -45c28 0 47 21 68 76l11 -3c-23 -61 -44 -85 -80 -85z" />
    <glyph glyph-name="Igrave" unicode="&#xcc;" horiz-adv-x="301" 
d="M-4 0l3 13h100l146 632h-100l2 13h216l-3 -13h-100l-146 -632h100l-2 -13h-216zM315 719l-121 80c-7 4 -11 9 -11 14s4 10 9 10s8 0 15 -7l112 -92z" />
    <glyph glyph-name="igrave" unicode="&#xec;" horiz-adv-x="256" 
d="M129 -6c-35 0 -57 23 -57 58c0 20 6 41 15 73l80 271h-89l3 12h102l-82 -285c-10 -32 -15 -53 -15 -72c0 -27 17 -45 44 -45c28 0 47 21 68 76l11 -3c-23 -61 -44 -85 -80 -85zM236 493l-121 80c-7 4 -11 9 -11 14s4 10 9 10s8 0 15 -7l112 -92z" />
    <glyph glyph-name="Imacron" unicode="&#x12a;" horiz-adv-x="301" 
d="M-4 0l3 13h100l146 632h-100l2 13h216l-3 -13h-100l-146 -632h100l-2 -13h-216zM149 749l3 14h260l-3 -14h-260z" />
    <glyph glyph-name="imacron" unicode="&#x12b;" horiz-adv-x="256" 
d="M129 -6c-35 0 -57 23 -57 58c0 20 6 41 15 73l80 271h-89l3 12h102l-82 -285c-10 -32 -15 -53 -15 -72c0 -27 17 -45 44 -45c28 0 47 21 68 76l11 -3c-23 -61 -44 -85 -80 -85zM77 523l3 14h260l-3 -14h-260z" />
    <glyph glyph-name="Iogonek" unicode="&#x12e;" horiz-adv-x="301" 
d="M-4 0l3 13h100l146 632h-100l2 13h216l-3 -13h-100l-146 -632h100l-2 -13h-99c-62 -48 -94 -90 -94 -133c0 -35 22 -56 57 -56c19 0 36 4 49 9l-4 -12c-11 -5 -27 -9 -47 -9c-42 0 -69 24 -69 66c0 45 32 90 93 135h-102z" />
    <glyph glyph-name="iogonek" unicode="&#x12f;" horiz-adv-x="256" 
d="M198 82l11 -3c-12 -28 -21 -54 -52 -81c-38 -34 -97 -73 -97 -131c0 -35 22 -56 57 -56c19 0 36 4 48 9l-2 -12c-13 -5 -28 -9 -48 -9c-42 0 -69 24 -69 66c0 53 48 95 96 131c-3 -1 -9 -2 -13 -2c-33 0 -57 21 -57 58c0 20 6 41 15 73l80 271h-89l3 12h102l-82 -285
c-9 -32 -15 -53 -15 -72c0 -27 17 -45 43 -45c28 0 48 21 69 76zM192 530c-10 0 -17 8 -17 18c0 9 7 17 17 17s17 -8 17 -17c0 -10 -7 -18 -17 -18z" />
    <glyph glyph-name="Kcommaaccent" unicode="&#x136;" horiz-adv-x="617" 
d="M198 -195l-4 7c39 25 64 55 68 88c-14 -2 -24 8 -24 20c0 9 7 17 17 17c14 0 22 -12 22 -27c0 -37 -33 -80 -79 -105zM618 645l-321 -276l177 -356h93l-2 -13h-100l-178 361l-122 -105l-56 -243h104l-3 -13h-214l3 13h95l146 632h-105l3 13h218l-3 -13h-98l-86 -370
l429 370h-115l3 13h209l-3 -13h-74z" />
    <glyph glyph-name="kcommaaccent" unicode="&#x137;" horiz-adv-x="445" 
d="M102 -195l-4 7c39 25 64 55 68 88c-14 -2 -24 8 -24 20c0 9 7 17 17 17c14 0 22 -12 22 -27c0 -37 -33 -80 -79 -105zM62 0h-14l167 720h-84l2 12h98l-126 -546c113 47 262 133 274 190c-10 2 -16 12 -16 20c0 11 8 18 16 18c9 0 18 -9 18 -25c0 -52 -97 -118 -188 -167
l54 -132c13 -32 25 -54 36 -68c10 -12 19 -16 33 -16c26 0 47 27 63 88l10 -3c-15 -63 -38 -97 -75 -97c-17 0 -30 6 -42 21s-24 39 -37 71l-55 130c-34 -17 -68 -33 -94 -43z" />
    <glyph glyph-name="Lacute" unicode="&#x139;" horiz-adv-x="494" 
d="M245 714l-3 5l129 86c6 4 12 7 16 7c6 0 11 -6 11 -11s-5 -10 -14 -14zM-4 0l3 13h95l146 632h-105l3 13h218l-3 -13h-98l-146 -632h285l29 127h14l-32 -140h-409z" />
    <glyph glyph-name="lacute" unicode="&#x13a;" horiz-adv-x="237" 
d="M206 773l-3 5l129 86c6 4 12 7 16 7c6 0 11 -6 11 -11s-5 -10 -14 -14zM121 -6c-33 0 -56 24 -56 59c0 15 3 31 9 56l141 611h-83l2 12h98l-145 -626c-6 -25 -8 -39 -8 -53c0 -28 16 -47 43 -47c29 0 49 21 69 76l10 -3c-22 -61 -44 -85 -80 -85z" />
    <glyph glyph-name="Lcaron" unicode="&#x13d;" horiz-adv-x="494" 
d="M386 509l-5 5c18 24 30 46 37 70c7 22 8 49 9 61c1 9 6 13 12 13c7 0 11 -4 11 -12c0 -14 -8 -40 -18 -63c-12 -27 -27 -50 -46 -74zM-4 0l3 13h95l146 632h-105l3 13h218l-3 -13h-98l-146 -632h285l29 127h14l-32 -140h-409z" />
    <glyph glyph-name="lcaron" unicode="&#x13e;" horiz-adv-x="240" 
d="M253 582l-5 5c18 24 30 46 37 70c7 22 8 49 9 61c1 9 6 13 12 13c7 0 11 -4 11 -12c0 -14 -8 -40 -18 -63c-12 -27 -27 -50 -46 -74zM124 -6c-33 0 -56 24 -56 59c0 15 3 31 9 56l141 611h-83l2 12h98l-145 -626c-6 -25 -8 -39 -8 -53c0 -28 16 -47 43 -47
c29 0 49 21 69 76l10 -3c-22 -61 -44 -85 -80 -85z" />
    <glyph glyph-name="Lcommaaccent" unicode="&#x13b;" horiz-adv-x="494" 
d="M145 -195l-4 7c39 25 64 55 68 88c-14 -2 -24 8 -24 20c0 9 7 17 17 17c14 0 22 -12 22 -27c0 -37 -33 -80 -79 -105zM-4 0l3 13h95l146 632h-105l3 13h218l-3 -13h-98l-146 -632h285l29 127h14l-32 -140h-409z" />
    <glyph glyph-name="lcommaaccent" unicode="&#x13c;" horiz-adv-x="240" 
d="M39 -195l-4 7c39 25 64 55 68 88c-14 -2 -24 8 -24 20c0 9 7 17 17 17c14 0 22 -12 22 -27c0 -37 -33 -80 -79 -105zM124 -6c-33 0 -56 24 -56 59c0 15 3 31 9 56l141 611h-83l2 12h98l-145 -626c-6 -25 -8 -39 -8 -53c0 -28 16 -47 43 -47c29 0 49 21 69 76l10 -3
c-22 -61 -44 -85 -80 -85z" />
    <glyph glyph-name="Ldot" unicode="&#x13f;" horiz-adv-x="494" 
d="M-4 0l3 13h95l146 632h-105l3 13h218l-3 -13h-98l-146 -632h285l29 127h14l-32 -140h-409zM425 331c-11 0 -19 8 -19 19s8 20 19 20s19 -9 19 -20s-8 -19 -19 -19z" />
    <glyph glyph-name="ldot" unicode="&#x140;" horiz-adv-x="258" 
d="M124 -6c-33 0 -56 24 -56 59c0 15 3 31 9 56l141 611h-83l2 12h98l-145 -626c-6 -25 -8 -39 -8 -53c0 -28 16 -47 43 -47c29 0 49 21 69 76l10 -3c-22 -61 -44 -85 -80 -85zM270 336c-11 0 -19 8 -19 19s8 20 19 20s19 -9 19 -20s-8 -19 -19 -19z" />
    <glyph glyph-name="Lslash" unicode="&#x141;" horiz-adv-x="515" 
d="M-4 0l3 13h95l68 294l-112 -44l-4 12l119 46l75 324h-105l3 13h218l-3 -13h-98l-73 -317l165 65l3 -12l-171 -67l-70 -301h285l29 127h14l-32 -140h-409z" />
    <glyph glyph-name="lslash" unicode="&#x142;" horiz-adv-x="249" 
d="M126 -6c-33 0 -56 24 -56 59c0 15 3 31 9 56l68 295l-117 -50l-4 11l124 53l70 302h-83l2 12h98l-72 -309l124 52l5 -10l-132 -56l-70 -303c-6 -25 -8 -39 -8 -53c0 -28 16 -47 43 -47c29 0 49 21 69 76l10 -3c-22 -61 -44 -85 -80 -85z" />
    <glyph glyph-name="Nacute" unicode="&#x143;" horiz-adv-x="722" 
d="M435 719l-3 5l129 86c6 4 12 7 16 7c6 0 11 -6 11 -11s-5 -10 -14 -14zM538 -5l-288 638l-141 -620h105l-3 -13h-214l2 13h96l144 632h-103l3 13h114l288 -636l142 623h-108l3 13h218l-3 -13h-95l-149 -650h-11z" />
    <glyph glyph-name="nacute" unicode="&#x144;" horiz-adv-x="503" 
d="M270 493l-3 5l129 86c6 4 12 7 16 7c6 0 11 -6 11 -11s-5 -10 -14 -14zM392 -6c-36 0 -56 24 -56 57c0 21 5 42 15 74l33 106c11 33 17 68 17 89c0 53 -29 82 -86 82c-87 0 -172 -99 -205 -229l-43 -173h-14l99 396h-85l2 12h100l-39 -152c43 93 111 158 187 158
c62 0 98 -35 98 -93c0 -24 -7 -59 -17 -92l-34 -106c-9 -32 -14 -53 -14 -72c0 -26 16 -45 43 -45c29 0 49 21 70 76l10 -3c-22 -61 -44 -85 -81 -85z" />
    <glyph glyph-name="Ncaron" unicode="&#x147;" horiz-adv-x="722" 
d="M469 713l-94 105l6 5l91 -87l142 88l5 -6zM538 -5l-288 638l-141 -620h105l-3 -13h-214l2 13h96l144 632h-103l3 13h114l288 -636l142 623h-108l3 13h218l-3 -13h-95l-149 -650h-11z" />
    <glyph glyph-name="ncaron" unicode="&#x148;" horiz-adv-x="503" 
d="M305 487l-94 105l6 5l91 -87l142 88l5 -6zM392 -6c-36 0 -56 24 -56 57c0 21 5 42 15 74l33 106c11 33 17 68 17 89c0 53 -29 82 -86 82c-87 0 -172 -99 -205 -229l-43 -173h-14l99 396h-85l2 12h100l-39 -152c43 93 111 158 187 158c62 0 98 -35 98 -93
c0 -24 -7 -59 -17 -92l-34 -106c-9 -32 -14 -53 -14 -72c0 -26 16 -45 43 -45c29 0 49 21 70 76l10 -3c-22 -61 -44 -85 -81 -85z" />
    <glyph glyph-name="Ncommaaccent" unicode="&#x145;" horiz-adv-x="722" 
d="M246 -195l-4 7c39 25 64 55 68 88c-14 -2 -24 8 -24 20c0 9 7 17 17 17c14 0 22 -12 22 -27c0 -37 -33 -80 -79 -105zM538 -5l-288 638l-141 -620h105l-3 -13h-214l2 13h96l144 632h-103l3 13h114l288 -636l142 623h-108l3 13h218l-3 -13h-95l-149 -650h-11z" />
    <glyph glyph-name="ncommaaccent" unicode="&#x146;" horiz-adv-x="503" 
d="M133 -195l-4 7c39 25 64 55 68 88c-14 -2 -24 8 -24 20c0 9 7 17 17 17c14 0 22 -12 22 -27c0 -37 -33 -80 -79 -105zM392 -6c-36 0 -56 24 -56 57c0 21 5 42 15 74l33 106c11 33 17 68 17 89c0 53 -29 82 -86 82c-87 0 -172 -99 -205 -229l-43 -173h-14l99 396h-85l2 12
h100l-39 -152c43 93 111 158 187 158c62 0 98 -35 98 -93c0 -24 -7 -59 -17 -92l-34 -106c-9 -32 -14 -53 -14 -72c0 -26 16 -45 43 -45c29 0 49 21 70 76l10 -3c-22 -61 -44 -85 -81 -85z" />
    <glyph glyph-name="Ntilde" unicode="&#xd1;" horiz-adv-x="722" 
d="M538 -5l-288 638l-141 -620h105l-3 -13h-214l2 13h96l144 632h-103l3 13h114l288 -636l142 623h-108l3 13h218l-3 -13h-95l-149 -650h-11zM558 727c-26 0 -44 11 -73 33c-30 22 -46 31 -65 31c-30 0 -48 -20 -65 -61l-9 4c16 44 40 71 75 71c24 0 43 -11 73 -33
c31 -23 45 -30 66 -30c32 0 49 21 67 62l10 -4c-17 -44 -41 -73 -79 -73z" />
    <glyph glyph-name="ntilde" unicode="&#xf1;" horiz-adv-x="503" 
d="M392 -6c-36 0 -56 24 -56 57c0 21 5 42 15 74l33 106c11 33 17 68 17 89c0 53 -29 82 -86 82c-87 0 -172 -99 -205 -229l-43 -173h-14l99 396h-85l2 12h100l-39 -152c43 93 111 158 187 158c62 0 98 -35 98 -93c0 -24 -7 -59 -17 -92l-34 -106c-9 -32 -14 -53 -14 -72
c0 -26 16 -45 43 -45c29 0 49 21 70 76l10 -3c-22 -61 -44 -85 -81 -85zM394 501c-26 0 -44 11 -73 33c-30 22 -46 31 -65 31c-30 0 -48 -20 -65 -61l-9 4c16 44 40 71 75 71c24 0 43 -11 73 -33c31 -23 45 -30 66 -30c32 0 49 21 67 62l10 -4c-17 -44 -41 -73 -79 -73z" />
    <glyph glyph-name="Oacute" unicode="&#xd3;" horiz-adv-x="713" 
d="M430 719l-3 5l129 86c6 4 12 7 16 7c6 0 11 -6 11 -11s-5 -10 -14 -14zM340 -9c-165 0 -262 124 -262 276c0 194 145 401 355 401c165 0 263 -124 263 -275c0 -194 -146 -402 -356 -402zM341 4c196 0 340 197 340 388c0 144 -89 264 -249 264c-196 0 -340 -197 -340 -389
c0 -144 90 -263 249 -263z" />
    <glyph glyph-name="oacute" unicode="&#xf3;" horiz-adv-x="473" 
d="M253 493l-3 5l129 86c6 4 12 7 16 7c6 0 11 -6 11 -11s-5 -10 -14 -14zM214 -6c-95 0 -170 66 -170 178c0 123 89 242 214 242c96 0 170 -66 170 -179c0 -123 -88 -241 -214 -241zM214 6c117 0 200 112 200 229c0 105 -66 167 -156 167c-117 0 -200 -112 -200 -230
c0 -104 68 -166 156 -166z" />
    <glyph glyph-name="Obreve" unicode="&#x14e;" horiz-adv-x="713" 
d="M340 -9c-165 0 -262 124 -262 276c0 194 145 401 355 401c165 0 263 -124 263 -275c0 -194 -146 -402 -356 -402zM341 4c196 0 340 197 340 388c0 144 -89 264 -249 264c-196 0 -340 -197 -340 -389c0 -144 90 -263 249 -263zM474 718c-60 0 -96 41 -108 98l11 4
c13 -53 46 -86 99 -86c56 0 103 35 131 84l9 -5c-27 -53 -80 -95 -142 -95z" />
    <glyph glyph-name="obreve" unicode="&#x14f;" horiz-adv-x="473" 
d="M214 -6c-95 0 -170 66 -170 178c0 123 89 242 214 242c96 0 170 -66 170 -179c0 -123 -88 -241 -214 -241zM214 6c117 0 200 112 200 229c0 105 -66 167 -156 167c-117 0 -200 -112 -200 -230c0 -104 68 -166 156 -166zM298 492c-60 0 -96 41 -108 98l11 4
c13 -53 46 -86 99 -86c56 0 103 35 131 84l9 -5c-27 -53 -80 -95 -142 -95z" />
    <glyph glyph-name="Ocircumflex" unicode="&#xd4;" horiz-adv-x="713" 
d="M354 712l-5 6l150 105l94 -105l-6 -5l-91 87zM340 -9c-165 0 -262 124 -262 276c0 194 145 401 355 401c165 0 263 -124 263 -275c0 -194 -146 -402 -356 -402zM341 4c196 0 340 197 340 388c0 144 -89 264 -249 264c-196 0 -340 -197 -340 -389c0 -144 90 -263 249 -263
z" />
    <glyph glyph-name="ocircumflex" unicode="&#xf4;" horiz-adv-x="473" 
d="M179 486l-5 6l150 105l94 -105l-6 -5l-91 87zM214 -6c-95 0 -170 66 -170 178c0 123 89 242 214 242c96 0 170 -66 170 -179c0 -123 -88 -241 -214 -241zM214 6c117 0 200 112 200 229c0 105 -66 167 -156 167c-117 0 -200 -112 -200 -230c0 -104 68 -166 156 -166z" />
    <glyph glyph-name="Odieresis" unicode="&#xd6;" horiz-adv-x="713" 
d="M537 737c-11 0 -19 8 -19 18c0 11 8 19 19 19c10 0 18 -8 18 -19c0 -10 -8 -18 -18 -18zM430 737c-10 0 -18 8 -18 18c0 11 8 19 18 19c11 0 19 -8 19 -19c0 -10 -8 -18 -19 -18zM340 -9c-165 0 -262 124 -262 276c0 194 145 401 355 401c165 0 263 -124 263 -275
c0 -194 -146 -402 -356 -402zM341 4c196 0 340 197 340 388c0 144 -89 264 -249 264c-196 0 -340 -197 -340 -389c0 -144 90 -263 249 -263z" />
    <glyph glyph-name="odieresis" unicode="&#xf6;" horiz-adv-x="473" 
d="M361 511c-11 0 -19 8 -19 18c0 11 8 19 19 19c10 0 18 -8 18 -19c0 -10 -8 -18 -18 -18zM254 511c-10 0 -18 8 -18 18c0 11 8 19 18 19c11 0 19 -8 19 -19c0 -10 -8 -18 -19 -18zM214 -6c-95 0 -170 66 -170 178c0 123 89 242 214 242c96 0 170 -66 170 -179
c0 -123 -88 -241 -214 -241zM214 6c117 0 200 112 200 229c0 105 -66 167 -156 167c-117 0 -200 -112 -200 -230c0 -104 68 -166 156 -166z" />
    <glyph glyph-name="OE" unicode="&#x152;" horiz-adv-x="918" 
d="M403 0c-111 0 -197 28 -253 84c-45 45 -70 108 -70 184c0 110 38 201 109 272c75 76 194 118 338 118h428l-32 -137h-14l29 124h-311l-69 -302h242l-2 -13h-244l-72 -317h310l29 124h14l-32 -137h-400zM404 13h62l146 632h-87c-138 0 -253 -42 -325 -115
c-68 -68 -106 -155 -106 -262c0 -73 25 -133 67 -175c53 -53 135 -80 243 -80z" />
    <glyph glyph-name="oe" unicode="&#x153;" horiz-adv-x="804" 
d="M707 41l-4 -14c-37 -21 -76 -33 -131 -33c-88 0 -155 55 -161 152c-30 -85 -103 -152 -197 -152c-95 0 -170 66 -170 178c0 123 89 242 214 242c90 0 159 -58 167 -159c31 91 105 159 201 159c83 0 134 -53 134 -142c0 -19 -3 -40 -8 -58h-325c-3 -17 -5 -34 -5 -52
c0 -100 65 -156 151 -156c52 0 94 12 134 35zM214 6c117 0 200 112 200 229c0 105 -66 167 -156 167c-117 0 -200 -112 -200 -230c0 -104 68 -166 156 -166zM625 402c-96 0 -172 -77 -196 -176h312c3 15 5 32 5 47c0 81 -46 129 -121 129z" />
    <glyph glyph-name="Ograve" unicode="&#xd2;" horiz-adv-x="713" 
d="M340 -9c-165 0 -262 124 -262 276c0 194 145 401 355 401c165 0 263 -124 263 -275c0 -194 -146 -402 -356 -402zM341 4c196 0 340 197 340 388c0 144 -89 264 -249 264c-196 0 -340 -197 -340 -389c0 -144 90 -263 249 -263zM520 719l-121 80c-7 4 -11 9 -11 14
s4 10 9 10s8 0 15 -7l112 -92z" />
    <glyph glyph-name="ograve" unicode="&#xf2;" horiz-adv-x="473" 
d="M214 -6c-95 0 -170 66 -170 178c0 123 89 242 214 242c96 0 170 -66 170 -179c0 -123 -88 -241 -214 -241zM214 6c117 0 200 112 200 229c0 105 -66 167 -156 167c-117 0 -200 -112 -200 -230c0 -104 68 -166 156 -166zM344 493l-121 80c-7 4 -11 9 -11 14s4 10 9 10
s8 0 15 -7l112 -92z" />
    <glyph glyph-name="Ohungarumlaut" unicode="&#x150;" horiz-adv-x="713" 
d="M375 717l-3 6l123 86c7 5 12 6 16 6c5 0 9 -5 9 -11s-5 -10 -13 -14zM529 718l-4 6l126 84c6 4 11 5 15 5c6 0 10 -4 10 -10s-5 -10 -14 -14zM340 -9c-165 0 -262 124 -262 276c0 194 145 401 355 401c165 0 263 -124 263 -275c0 -194 -146 -402 -356 -402zM341 4
c196 0 340 197 340 388c0 144 -89 264 -249 264c-196 0 -340 -197 -340 -389c0 -144 90 -263 249 -263z" />
    <glyph glyph-name="ohungarumlaut" unicode="&#x151;" horiz-adv-x="473" 
d="M197 491l-3 6l123 86c7 5 12 6 16 6c5 0 9 -5 9 -11s-5 -10 -13 -14zM351 492l-4 6l126 84c6 4 11 5 15 5c6 0 10 -4 10 -10s-5 -10 -14 -14zM214 -6c-95 0 -170 66 -170 178c0 123 89 242 214 242c96 0 170 -66 170 -179c0 -123 -88 -241 -214 -241zM214 6
c117 0 200 112 200 229c0 105 -66 167 -156 167c-117 0 -200 -112 -200 -230c0 -104 68 -166 156 -166z" />
    <glyph glyph-name="Omacron" unicode="&#x14c;" horiz-adv-x="713" 
d="M353 749l3 14h260l-3 -14h-260zM340 -9c-165 0 -262 124 -262 276c0 194 145 401 355 401c165 0 263 -124 263 -275c0 -194 -146 -402 -356 -402zM341 4c196 0 340 197 340 388c0 144 -89 264 -249 264c-196 0 -340 -197 -340 -389c0 -144 90 -263 249 -263z" />
    <glyph glyph-name="omacron" unicode="&#x14d;" horiz-adv-x="473" 
d="M178 523l3 14h260l-3 -14h-260zM214 -6c-95 0 -170 66 -170 178c0 123 89 242 214 242c96 0 170 -66 170 -179c0 -123 -88 -241 -214 -241zM214 6c117 0 200 112 200 229c0 105 -66 167 -156 167c-117 0 -200 -112 -200 -230c0 -104 68 -166 156 -166z" />
    <glyph glyph-name="Oslash" unicode="&#xd8;" horiz-adv-x="713" 
d="M340 -9c-99 0 -173 44 -217 112l-129 -110l-8 9l131 112c-26 44 -39 96 -39 153c0 194 145 401 355 401c94 0 166 -40 211 -103l119 103l8 -9l-120 -104c29 -45 45 -102 45 -162c0 -194 -146 -402 -356 -402zM341 4c196 0 340 197 340 388c0 57 -14 111 -41 154
l-507 -433c41 -66 112 -109 208 -109zM92 267c0 -53 12 -103 35 -144l506 433c-41 60 -110 100 -201 100c-196 0 -340 -197 -340 -389z" />
    <glyph glyph-name="oslash" unicode="&#xf8;" horiz-adv-x="473" 
d="M214 -6c-56 0 -105 23 -136 64l-73 -64l-8 8l75 65c-18 28 -28 63 -28 105c0 123 89 242 214 242c56 0 106 -23 136 -65l76 66l8 -9l-77 -67c17 -28 27 -63 27 -104c0 -123 -88 -241 -214 -241zM58 172c0 -38 9 -70 24 -96l302 264c-27 40 -73 62 -126 62
c-117 0 -200 -112 -200 -230zM214 6c117 0 200 112 200 229c0 37 -9 70 -24 95l-302 -263c28 -40 74 -61 126 -61z" />
    <glyph glyph-name="Oslashacute" unicode="&#x1fe;" horiz-adv-x="713" 
d="M340 -9c-99 0 -173 44 -217 112l-129 -110l-8 9l131 112c-26 44 -39 96 -39 153c0 194 145 401 355 401c94 0 166 -40 211 -103l119 103l8 -9l-120 -104c29 -45 45 -102 45 -162c0 -194 -146 -402 -356 -402zM341 4c196 0 340 197 340 388c0 57 -14 111 -41 154
l-507 -433c41 -66 112 -109 208 -109zM92 267c0 -53 12 -103 35 -144l506 433c-41 60 -110 100 -201 100c-196 0 -340 -197 -340 -389zM421 719l-3 5l129 86c6 4 12 7 16 7c6 0 11 -6 11 -11s-5 -10 -14 -14z" />
    <glyph glyph-name="oslashacute" unicode="&#x1ff;" horiz-adv-x="473" 
d="M214 -6c-56 0 -105 23 -136 64l-73 -64l-8 8l75 65c-18 28 -28 63 -28 105c0 123 89 242 214 242c56 0 106 -23 136 -65l76 66l8 -9l-77 -67c17 -28 27 -63 27 -104c0 -123 -88 -241 -214 -241zM58 172c0 -38 9 -70 24 -96l302 264c-27 40 -73 62 -126 62
c-117 0 -200 -112 -200 -230zM214 6c117 0 200 112 200 229c0 37 -9 70 -24 95l-302 -263c28 -40 74 -61 126 -61zM257 493l-3 5l129 86c6 4 12 7 16 7c6 0 11 -6 11 -11s-5 -10 -14 -14z" />
    <glyph glyph-name="Otilde" unicode="&#xd5;" horiz-adv-x="713" 
d="M340 -9c-165 0 -262 124 -262 276c0 194 145 401 355 401c165 0 263 -124 263 -275c0 -194 -146 -402 -356 -402zM341 4c196 0 340 197 340 388c0 144 -89 264 -249 264c-196 0 -340 -197 -340 -389c0 -144 90 -263 249 -263zM554 727c-26 0 -44 11 -73 33
c-30 22 -46 31 -65 31c-30 0 -48 -20 -65 -61l-9 4c16 44 40 71 75 71c24 0 43 -11 73 -33c31 -23 45 -30 66 -30c32 0 49 21 67 62l10 -4c-17 -44 -41 -73 -79 -73z" />
    <glyph glyph-name="otilde" unicode="&#xf5;" horiz-adv-x="473" 
d="M214 -6c-95 0 -170 66 -170 178c0 123 89 242 214 242c96 0 170 -66 170 -179c0 -123 -88 -241 -214 -241zM214 6c117 0 200 112 200 229c0 105 -66 167 -156 167c-117 0 -200 -112 -200 -230c0 -104 68 -166 156 -166zM378 501c-26 0 -44 11 -73 33
c-30 22 -46 31 -65 31c-30 0 -48 -20 -65 -61l-9 4c16 44 40 71 75 71c24 0 43 -11 73 -33c31 -23 45 -30 66 -30c32 0 49 21 67 62l10 -4c-17 -44 -41 -73 -79 -73z" />
    <glyph glyph-name="Racute" unicode="&#x154;" horiz-adv-x="569" 
d="M336 719l-3 5l129 86c6 4 12 7 16 7c6 0 11 -6 11 -11s-5 -10 -14 -14zM-4 0l3 13h95l146 632h-105l3 13h190c81 0 145 -17 185 -58c26 -25 40 -62 40 -109c0 -104 -81 -180 -223 -194l125 -284h80l-3 -13h-87l-129 295c-3 0 -15 -1 -33 -1c-53 0 -78 1 -108 3l-66 -284
h104l-3 -13h-214zM282 307c162 0 256 75 256 184c0 42 -12 77 -36 100c-37 38 -97 54 -175 54h-72l-77 -335c28 -3 56 -3 104 -3z" />
    <glyph glyph-name="racute" unicode="&#x155;" horiz-adv-x="293" 
d="M193 493l-3 5l129 86c6 4 12 7 16 7c6 0 11 -6 11 -11s-5 -10 -14 -14zM57 0l98 396h-85l2 12h100l-39 -155c41 106 93 161 138 161c21 0 35 -14 35 -27c0 -10 -7 -17 -16 -17c-12 0 -19 10 -19 20c0 3 1 7 2 8c-2 1 -5 1 -7 1c-53 0 -119 -96 -153 -233l-42 -166h-14z
" />
    <glyph glyph-name="Rcaron" unicode="&#x158;" horiz-adv-x="569" 
d="M370 713l-94 105l6 5l91 -87l142 88l5 -6zM-4 0l3 13h95l146 632h-105l3 13h190c81 0 145 -17 185 -58c26 -25 40 -62 40 -109c0 -104 -81 -180 -223 -194l125 -284h80l-3 -13h-87l-129 295c-3 0 -15 -1 -33 -1c-53 0 -78 1 -108 3l-66 -284h104l-3 -13h-214zM282 307
c162 0 256 75 256 184c0 42 -12 77 -36 100c-37 38 -97 54 -175 54h-72l-77 -335c28 -3 56 -3 104 -3z" />
    <glyph glyph-name="rcaron" unicode="&#x159;" horiz-adv-x="293" 
d="M227 487l-94 105l6 5l91 -87l142 88l5 -6zM57 0l98 396h-85l2 12h100l-39 -155c41 106 93 161 138 161c21 0 35 -14 35 -27c0 -10 -7 -17 -16 -17c-12 0 -19 10 -19 20c0 3 1 7 2 8c-2 1 -5 1 -7 1c-53 0 -119 -96 -153 -233l-42 -166h-14z" />
    <glyph glyph-name="Rcommaaccent" unicode="&#x156;" horiz-adv-x="569" 
d="M181 -195l-4 7c39 25 64 55 68 88c-14 -2 -24 8 -24 20c0 9 7 17 17 17c14 0 22 -12 22 -27c0 -37 -33 -80 -79 -105zM-4 0l3 13h95l146 632h-105l3 13h190c81 0 145 -17 185 -58c26 -25 40 -62 40 -109c0 -104 -81 -180 -223 -194l125 -284h80l-3 -13h-87l-129 295
c-3 0 -15 -1 -33 -1c-53 0 -78 1 -108 3l-66 -284h104l-3 -13h-214zM282 307c162 0 256 75 256 184c0 42 -12 77 -36 100c-37 38 -97 54 -175 54h-72l-77 -335c28 -3 56 -3 104 -3z" />
    <glyph glyph-name="rcommaaccent" unicode="&#x157;" horiz-adv-x="287" 
d="M-9 -195l-4 7c39 25 64 55 68 88c-14 -2 -24 8 -24 20c0 9 7 17 17 17c14 0 22 -12 22 -27c0 -37 -33 -80 -79 -105zM54 0l98 396h-85l2 12h100l-39 -155c41 106 93 161 138 161c21 0 35 -14 35 -27c0 -10 -7 -17 -16 -17c-12 0 -19 10 -19 20c0 3 1 7 2 8
c-2 1 -5 1 -7 1c-53 0 -119 -96 -153 -233l-42 -166h-14z" />
    <glyph glyph-name="Sacute" unicode="&#x15a;" horiz-adv-x="490" 
d="M321 719l-3 5l129 86c6 4 12 7 16 7c6 0 11 -6 11 -11s-5 -10 -14 -14zM226 -9c-116 0 -193 72 -193 128c0 12 6 24 20 24c10 0 16 -8 16 -17c0 -11 -7 -19 -17 -20c10 -49 78 -102 175 -102c109 0 181 66 181 152c0 74 -47 115 -133 178c-79 57 -127 105 -127 179
c0 94 83 155 183 155c102 0 166 -60 166 -117c0 -12 -6 -24 -19 -24c-10 0 -17 8 -17 18s7 18 18 20c-9 45 -60 91 -149 91c-92 0 -168 -55 -168 -142c0 -70 45 -114 125 -171c87 -63 135 -106 135 -186c0 -94 -75 -166 -196 -166z" />
    <glyph glyph-name="sacute" unicode="&#x15b;" horiz-adv-x="375" 
d="M216 493l-3 5l129 86c6 4 12 7 16 7c6 0 11 -6 11 -11s-5 -10 -14 -14zM170 -6c-58 0 -104 25 -126 52c-11 15 -18 31 -18 44s6 23 17 23c8 0 14 -8 14 -17c0 -12 -7 -18 -15 -20c2 -7 7 -16 14 -24c19 -23 60 -46 115 -46c71 0 119 39 119 95c0 49 -42 75 -103 105
c-53 25 -102 54 -102 106c0 60 57 102 125 102c54 0 97 -21 117 -44c12 -13 17 -27 17 -37c0 -13 -7 -21 -16 -21s-16 7 -16 17c0 9 6 16 14 19c-3 6 -6 12 -13 19c-19 19 -57 35 -103 35c-61 0 -111 -37 -111 -89c0 -45 37 -69 97 -97c57 -28 108 -56 108 -114
c0 -66 -56 -108 -134 -108z" />
    <glyph glyph-name="Scaron" unicode="&#x160;" horiz-adv-x="490" 
d="M356 713l-94 105l6 5l91 -87l142 88l5 -6zM226 -9c-116 0 -193 72 -193 128c0 12 6 24 20 24c10 0 16 -8 16 -17c0 -11 -7 -19 -17 -20c10 -49 78 -102 175 -102c109 0 181 66 181 152c0 74 -47 115 -133 178c-79 57 -127 105 -127 179c0 94 83 155 183 155
c102 0 166 -60 166 -117c0 -12 -6 -24 -19 -24c-10 0 -17 8 -17 18s7 18 18 20c-9 45 -60 91 -149 91c-92 0 -168 -55 -168 -142c0 -70 45 -114 125 -171c87 -63 135 -106 135 -186c0 -94 -75 -166 -196 -166z" />
    <glyph glyph-name="scaron" unicode="&#x161;" horiz-adv-x="375" 
d="M251 487l-94 105l6 5l91 -87l142 88l5 -6zM170 -6c-58 0 -104 25 -126 52c-11 15 -18 31 -18 44s6 23 17 23c8 0 14 -8 14 -17c0 -12 -7 -18 -15 -20c2 -7 7 -16 14 -24c19 -23 60 -46 115 -46c71 0 119 39 119 95c0 49 -42 75 -103 105c-53 25 -102 54 -102 106
c0 60 57 102 125 102c54 0 97 -21 117 -44c12 -13 17 -27 17 -37c0 -13 -7 -21 -16 -21s-16 7 -16 17c0 9 6 16 14 19c-3 6 -6 12 -13 19c-19 19 -57 35 -103 35c-61 0 -111 -37 -111 -89c0 -45 37 -69 97 -97c57 -28 108 -56 108 -114c0 -66 -56 -108 -134 -108z" />
    <glyph glyph-name="Scedilla" unicode="&#x15e;" horiz-adv-x="490" 
d="M226 -9h-15l-25 -61c56 -3 79 -30 79 -61c0 -38 -30 -69 -86 -69c-37 0 -72 12 -100 29l6 10c27 -15 61 -27 94 -27c47 0 72 26 72 56c0 29 -24 53 -79 51l-3 3l31 70c-101 10 -167 75 -167 127c0 12 6 24 20 24c10 0 16 -8 16 -17c0 -11 -7 -19 -17 -20
c10 -49 78 -102 175 -102c109 0 181 66 181 152c0 74 -47 115 -133 178c-79 57 -127 105 -127 179c0 94 83 155 183 155c102 0 166 -60 166 -117c0 -12 -6 -24 -19 -24c-10 0 -17 8 -17 18s7 18 18 20c-9 45 -60 91 -149 91c-92 0 -168 -55 -168 -142
c0 -70 45 -114 125 -171c87 -63 135 -106 135 -186c0 -94 -75 -166 -196 -166z" />
    <glyph glyph-name="scedilla" unicode="&#x15f;" horiz-adv-x="375" 
d="M132 -200c-37 0 -72 12 -100 29l6 10c27 -15 60 -27 94 -27c47 0 71 26 71 56c0 29 -23 53 -79 51l-2 3l32 74c-50 4 -90 27 -109 52c-12 14 -19 31 -19 44s7 22 17 22c9 0 15 -8 15 -16c0 -12 -8 -19 -16 -20c2 -7 8 -16 15 -25c19 -23 59 -46 114 -46
c71 0 119 38 119 94c0 49 -42 75 -103 105c-53 25 -102 54 -102 106c0 60 57 101 125 101c53 0 96 -21 116 -44c12 -13 17 -27 17 -37c0 -13 -7 -21 -16 -21s-16 7 -16 17c0 9 7 16 14 19c-2 6 -6 12 -13 19c-19 19 -56 35 -103 35c-60 0 -110 -36 -110 -88
c0 -45 37 -69 97 -97c57 -28 108 -56 108 -114c0 -66 -55 -107 -133 -107h-6l-26 -65c56 -3 78 -30 78 -61c0 -38 -30 -69 -85 -69z" />
    <glyph glyph-name="Scommaaccent" unicode="&#x218;" horiz-adv-x="490" 
d="M128 -195l-4 7c39 25 64 55 68 88c-14 -2 -24 8 -24 20c0 9 7 17 17 17c14 0 22 -12 22 -27c0 -37 -33 -80 -79 -105zM226 -9c-116 0 -193 72 -193 128c0 12 6 24 20 24c10 0 16 -8 16 -17c0 -11 -7 -19 -17 -20c10 -49 78 -102 175 -102c109 0 181 66 181 152
c0 74 -47 115 -133 178c-79 57 -127 105 -127 179c0 94 83 155 183 155c102 0 166 -60 166 -117c0 -12 -6 -24 -19 -24c-10 0 -17 8 -17 18s7 18 18 20c-9 45 -60 91 -149 91c-92 0 -168 -55 -168 -142c0 -70 45 -114 125 -171c87 -63 135 -106 135 -186
c0 -94 -75 -166 -196 -166z" />
    <glyph glyph-name="scommaaccent" unicode="&#x219;" horiz-adv-x="375" 
d="M74 -195l-4 7c39 25 64 55 68 88c-14 -2 -24 8 -24 20c0 9 7 17 17 17c14 0 22 -12 22 -27c0 -37 -33 -80 -79 -105zM170 -6c-58 0 -104 25 -126 52c-11 15 -18 31 -18 44s6 23 17 23c8 0 14 -8 14 -17c0 -12 -7 -18 -15 -20c2 -7 7 -16 14 -24c19 -23 60 -46 115 -46
c71 0 119 39 119 95c0 49 -42 75 -103 105c-53 25 -102 54 -102 106c0 60 57 102 125 102c54 0 97 -21 117 -44c12 -13 17 -27 17 -37c0 -13 -7 -21 -16 -21s-16 7 -16 17c0 9 6 16 14 19c-3 6 -6 12 -13 19c-19 19 -57 35 -103 35c-61 0 -111 -37 -111 -89
c0 -45 37 -69 97 -97c57 -28 108 -56 108 -114c0 -66 -56 -108 -134 -108z" />
    <glyph glyph-name="Tcaron" unicode="&#x164;" horiz-adv-x="573" 
d="M393 713l-94 105l6 5l91 -87l142 88l5 -6zM138 0l3 13h94l145 632h-228l-30 -131h-14l33 144h500l-33 -144h-14l30 131h-228l-146 -632h104l-3 -13h-213z" />
    <glyph glyph-name="tcaron" unicode="&#x165;" horiz-adv-x="280" 
d="M225 478l-5 5c18 24 30 46 37 70c7 22 8 49 9 61c1 9 6 13 12 13c7 0 11 -4 11 -12c0 -14 -8 -40 -18 -63c-12 -27 -27 -50 -46 -74zM283 396h-133l-71 -285c-4 -18 -8 -37 -8 -51c0 -36 21 -54 52 -54c26 0 56 16 92 47l7 -9c-38 -33 -70 -50 -100 -50
c-40 0 -65 23 -65 66c0 15 4 34 9 52l70 284h-80l2 12h81l28 111l15 3l-29 -114h133z" />
    <glyph glyph-name="Tcommaaccent" unicode="&#x162;" horiz-adv-x="573" 
d="M165 -195l-4 7c39 25 64 55 68 88c-14 -2 -24 8 -24 20c0 9 7 17 17 17c14 0 22 -12 22 -27c0 -37 -33 -80 -79 -105zM138 0l3 13h94l145 632h-228l-30 -131h-14l33 144h500l-33 -144h-14l30 131h-228l-146 -632h104l-3 -13h-213z" />
    <glyph glyph-name="tcommaaccent" unicode="&#x163;" horiz-adv-x="280" 
d="M40 -195l-4 7c39 25 64 55 68 88c-14 -2 -24 8 -24 20c0 9 7 17 17 17c14 0 22 -12 22 -27c0 -37 -33 -80 -79 -105zM283 396h-133l-71 -285c-4 -18 -8 -37 -8 -51c0 -36 21 -54 52 -54c26 0 56 16 92 47l7 -9c-38 -33 -70 -50 -100 -50c-40 0 -65 23 -65 66
c0 15 4 34 9 52l70 284h-80l2 12h81l28 111l15 3l-29 -114h133z" />
    <glyph glyph-name="Thorn" unicode="&#xde;" horiz-adv-x="526" 
d="M-5 0l3 13h96l146 632h-100l3 13h212l-2 -13h-98l-28 -121h82c72 0 130 -16 170 -58c26 -28 41 -64 41 -111c0 -122 -102 -211 -269 -211c-35 0 -85 3 -110 6l-32 -137h101l-2 -13h-213zM252 157c160 0 253 85 253 197c0 44 -13 77 -37 103c-37 39 -92 54 -160 54h-84
l-80 -349c25 -2 74 -5 108 -5z" />
    <glyph glyph-name="thorn" unicode="&#xfe;" horiz-adv-x="498" 
d="M-58 -196l3 12h59l211 904h-86l2 12h100l-102 -442c35 67 96 124 177 124c90 0 147 -62 147 -169c0 -125 -80 -251 -209 -251c-86 0 -144 57 -151 147l-75 -325h88l-2 -12h-162zM244 6c119 0 195 122 195 238c0 100 -50 158 -134 158c-119 0 -202 -136 -202 -242
c0 -93 56 -154 141 -154z" />
    <glyph glyph-name="Uacute" unicode="&#xda;" horiz-adv-x="671" 
d="M403 719l-3 5l129 86c6 4 12 7 16 7c6 0 11 -6 11 -11s-5 -10 -14 -14zM309 -9c-103 0 -185 54 -185 174c0 31 6 64 15 104l86 376h-104l3 13h218l-3 -13h-99l-87 -378c-9 -40 -15 -70 -15 -101c0 -112 74 -162 172 -162c127 0 194 79 231 242l92 399h-108l3 13h218
l-3 -13h-95l-93 -400c-39 -173 -110 -254 -246 -254z" />
    <glyph glyph-name="uacute" unicode="&#xfa;" horiz-adv-x="508" 
d="M258 493l-3 5l129 86c6 4 12 7 16 7c6 0 11 -6 11 -11s-5 -10 -14 -14zM64 408h99l-55 -224c-12 -49 -16 -76 -16 -96c0 -50 29 -82 82 -82c86 0 170 98 202 228l43 174h14l-75 -305c-5 -21 -8 -36 -8 -50c0 -28 15 -47 43 -47c29 0 48 21 69 76l10 -3
c-23 -61 -44 -85 -80 -85c-34 0 -55 24 -55 59c0 15 3 32 8 54c0 1 6 23 11 42c-41 -89 -109 -155 -184 -155c-59 0 -95 37 -95 94c0 22 6 49 18 97l52 211h-86z" />
    <glyph glyph-name="Ubreve" unicode="&#x16c;" horiz-adv-x="671" 
d="M309 -9c-103 0 -185 54 -185 174c0 31 6 64 15 104l86 376h-104l3 13h218l-3 -13h-99l-87 -378c-9 -40 -15 -70 -15 -101c0 -112 74 -162 172 -162c127 0 194 79 231 242l92 399h-108l3 13h218l-3 -13h-95l-93 -400c-39 -173 -110 -254 -246 -254zM446 718
c-60 0 -96 41 -108 98l11 4c13 -53 46 -86 99 -86c56 0 103 35 131 84l9 -5c-27 -53 -80 -95 -142 -95z" />
    <glyph glyph-name="ubreve" unicode="&#x16d;" horiz-adv-x="508" 
d="M64 408h99l-55 -224c-12 -49 -16 -76 -16 -96c0 -50 29 -82 82 -82c86 0 170 98 202 228l43 174h14l-75 -305c-5 -21 -8 -36 -8 -50c0 -28 15 -47 43 -47c29 0 48 21 69 76l10 -3c-23 -61 -44 -85 -80 -85c-34 0 -55 24 -55 59c0 15 3 32 8 54c0 1 6 23 11 42
c-41 -89 -109 -155 -184 -155c-59 0 -95 37 -95 94c0 22 6 49 18 97l52 211h-86zM304 492c-60 0 -96 41 -108 98l11 4c13 -53 46 -86 99 -86c56 0 103 35 131 84l9 -5c-27 -53 -80 -95 -142 -95z" />
    <glyph glyph-name="Ucircumflex" unicode="&#xdb;" horiz-adv-x="671" 
d="M327 712l-5 6l150 105l94 -105l-6 -5l-91 87zM309 -9c-103 0 -185 54 -185 174c0 31 6 64 15 104l86 376h-104l3 13h218l-3 -13h-99l-87 -378c-9 -40 -15 -70 -15 -101c0 -112 74 -162 172 -162c127 0 194 79 231 242l92 399h-108l3 13h218l-3 -13h-95l-93 -400
c-39 -173 -110 -254 -246 -254z" />
    <glyph glyph-name="ucircumflex" unicode="&#xfb;" horiz-adv-x="508" 
d="M183 486l-5 6l150 105l94 -105l-6 -5l-91 87zM64 408h99l-55 -224c-12 -49 -16 -76 -16 -96c0 -50 29 -82 82 -82c86 0 170 98 202 228l43 174h14l-75 -305c-5 -21 -8 -36 -8 -50c0 -28 15 -47 43 -47c29 0 48 21 69 76l10 -3c-23 -61 -44 -85 -80 -85
c-34 0 -55 24 -55 59c0 15 3 32 8 54c0 1 6 23 11 42c-41 -89 -109 -155 -184 -155c-59 0 -95 37 -95 94c0 22 6 49 18 97l52 211h-86z" />
    <glyph glyph-name="Udieresis" unicode="&#xdc;" horiz-adv-x="671" 
d="M509 737c-11 0 -19 8 -19 18c0 11 8 19 19 19c10 0 18 -8 18 -19c0 -10 -8 -18 -18 -18zM402 737c-10 0 -18 8 -18 18c0 11 8 19 18 19c11 0 19 -8 19 -19c0 -10 -8 -18 -19 -18zM309 -9c-103 0 -185 54 -185 174c0 31 6 64 15 104l86 376h-104l3 13h218l-3 -13h-99
l-87 -378c-9 -40 -15 -70 -15 -101c0 -112 74 -162 172 -162c127 0 194 79 231 242l92 399h-108l3 13h218l-3 -13h-95l-93 -400c-39 -173 -110 -254 -246 -254z" />
    <glyph glyph-name="udieresis" unicode="&#xfc;" horiz-adv-x="508" 
d="M366 511c-11 0 -19 8 -19 18c0 11 8 19 19 19c10 0 18 -8 18 -19c0 -10 -8 -18 -18 -18zM259 511c-10 0 -18 8 -18 18c0 11 8 19 18 19c11 0 19 -8 19 -19c0 -10 -8 -18 -19 -18zM64 408h99l-55 -224c-12 -49 -16 -76 -16 -96c0 -50 29 -82 82 -82c86 0 170 98 202 228
l43 174h14l-75 -305c-5 -21 -8 -36 -8 -50c0 -28 15 -47 43 -47c29 0 48 21 69 76l10 -3c-23 -61 -44 -85 -80 -85c-34 0 -55 24 -55 59c0 15 3 32 8 54c0 1 6 23 11 42c-41 -89 -109 -155 -184 -155c-59 0 -95 37 -95 94c0 22 6 49 18 97l52 211h-86z" />
    <glyph glyph-name="Ugrave" unicode="&#xd9;" horiz-adv-x="671" 
d="M309 -9c-103 0 -185 54 -185 174c0 31 6 64 15 104l86 376h-104l3 13h218l-3 -13h-99l-87 -378c-9 -40 -15 -70 -15 -101c0 -112 74 -162 172 -162c127 0 194 79 231 242l92 399h-108l3 13h218l-3 -13h-95l-93 -400c-39 -173 -110 -254 -246 -254zM492 719l-121 80
c-7 4 -11 9 -11 14s4 10 9 10s8 0 15 -7l112 -92z" />
    <glyph glyph-name="ugrave" unicode="&#xf9;" horiz-adv-x="508" 
d="M64 408h99l-55 -224c-12 -49 -16 -76 -16 -96c0 -50 29 -82 82 -82c86 0 170 98 202 228l43 174h14l-75 -305c-5 -21 -8 -36 -8 -50c0 -28 15 -47 43 -47c29 0 48 21 69 76l10 -3c-23 -61 -44 -85 -80 -85c-34 0 -55 24 -55 59c0 15 3 32 8 54c0 1 6 23 11 42
c-41 -89 -109 -155 -184 -155c-59 0 -95 37 -95 94c0 22 6 49 18 97l52 211h-86zM349 493l-121 80c-7 4 -11 9 -11 14s4 10 9 10s8 0 15 -7l112 -92z" />
    <glyph glyph-name="Uhungarumlaut" unicode="&#x170;" horiz-adv-x="671" 
d="M309 -9c-103 0 -185 54 -185 174c0 31 6 64 15 104l86 376h-104l3 13h218l-3 -13h-99l-87 -378c-9 -40 -15 -70 -15 -101c0 -112 74 -162 172 -162c127 0 194 79 231 242l92 399h-108l3 13h218l-3 -13h-95l-93 -400c-39 -173 -110 -254 -246 -254zM347 717l-3 6l123 86
c7 5 12 6 16 6c5 0 9 -5 9 -11s-5 -10 -13 -14zM501 718l-4 6l126 84c6 4 11 5 15 5c6 0 10 -4 10 -10s-5 -10 -14 -14z" />
    <glyph glyph-name="uhungarumlaut" unicode="&#x171;" horiz-adv-x="508" 
d="M64 408h99l-55 -224c-12 -49 -16 -76 -16 -96c0 -50 29 -82 82 -82c86 0 170 98 202 228l43 174h14l-75 -305c-5 -21 -8 -36 -8 -50c0 -28 15 -47 43 -47c29 0 48 21 69 76l10 -3c-23 -61 -44 -85 -80 -85c-34 0 -55 24 -55 59c0 15 3 32 8 54c0 1 6 23 11 42
c-41 -89 -109 -155 -184 -155c-59 0 -95 37 -95 94c0 22 6 49 18 97l52 211h-86zM203 491l-3 6l123 86c7 5 12 6 16 6c5 0 9 -5 9 -11s-5 -10 -13 -14zM357 492l-4 6l126 84c6 4 11 5 15 5c6 0 10 -4 10 -10s-5 -10 -14 -14z" />
    <glyph glyph-name="Umacron" unicode="&#x16a;" horiz-adv-x="671" 
d="M309 -9c-103 0 -185 54 -185 174c0 31 6 64 15 104l86 376h-104l3 13h218l-3 -13h-99l-87 -378c-9 -40 -15 -70 -15 -101c0 -112 74 -162 172 -162c127 0 194 79 231 242l92 399h-108l3 13h218l-3 -13h-95l-93 -400c-39 -173 -110 -254 -246 -254zM326 749l3 14h260
l-3 -14h-260z" />
    <glyph glyph-name="umacron" unicode="&#x16b;" horiz-adv-x="508" 
d="M64 408h99l-55 -224c-12 -49 -16 -76 -16 -96c0 -50 29 -82 82 -82c86 0 170 98 202 228l43 174h14l-75 -305c-5 -21 -8 -36 -8 -50c0 -28 15 -47 43 -47c29 0 48 21 69 76l10 -3c-23 -61 -44 -85 -80 -85c-34 0 -55 24 -55 59c0 15 3 32 8 54c0 1 6 23 11 42
c-41 -89 -109 -155 -184 -155c-59 0 -95 37 -95 94c0 22 6 49 18 97l52 211h-86zM181 523l3 14h260l-3 -14h-260z" />
    <glyph glyph-name="Uogonek" unicode="&#x172;" horiz-adv-x="671" 
d="M309 -9c-103 0 -185 54 -185 174c0 31 6 64 15 104l86 376h-104l3 13h218l-3 -13h-99l-87 -378c-9 -40 -15 -70 -15 -101c0 -112 74 -162 172 -162c127 0 194 79 231 242l92 399h-108l3 13h218l-3 -13h-95l-93 -400c-37 -165 -104 -246 -228 -254
c-53 -43 -82 -81 -82 -124c0 -35 23 -57 58 -57c18 0 35 5 48 10l-3 -12c-12 -5 -27 -9 -48 -9c-41 0 -68 26 -68 66c0 44 30 87 80 126h-3z" />
    <glyph glyph-name="uogonek" unicode="&#x173;" horiz-adv-x="508" 
d="M462 82l10 -3c-10 -25 -21 -53 -53 -81c-38 -34 -97 -73 -97 -131c0 -35 23 -56 58 -56c19 0 36 4 48 9l-3 -12c-12 -5 -27 -9 -47 -9c-42 0 -69 24 -69 66c0 53 46 94 94 130c-4 -1 -8 -1 -11 -1c-34 0 -55 24 -55 59c0 15 3 32 8 54c0 1 6 24 11 43
c-42 -91 -109 -156 -184 -156c-59 0 -95 37 -95 94c0 22 6 49 18 97l52 211h-86l3 12h99l-55 -224c-12 -49 -16 -76 -16 -96c0 -50 29 -82 82 -82c86 0 170 98 202 228l43 174h14l-75 -305c-5 -21 -8 -36 -8 -50c0 -28 15 -47 42 -47c28 0 48 21 70 76z" />
    <glyph glyph-name="Uring" unicode="&#x16e;" horiz-adv-x="671" 
d="M456 717c-39 0 -62 30 -62 63c0 46 34 90 80 90c40 0 63 -30 63 -63c0 -46 -35 -90 -81 -90zM457 728c38 0 66 39 66 79c0 28 -19 51 -49 51c-38 0 -66 -38 -66 -78c0 -28 19 -52 49 -52zM309 -9c-103 0 -185 54 -185 174c0 31 6 64 15 104l86 376h-104l3 13h218l-3 -13
h-99l-87 -378c-9 -40 -15 -70 -15 -101c0 -112 74 -162 172 -162c127 0 194 79 231 242l92 399h-108l3 13h218l-3 -13h-95l-93 -400c-39 -173 -110 -254 -246 -254z" />
    <glyph glyph-name="uring" unicode="&#x16f;" horiz-adv-x="508" 
d="M312 491c-39 0 -62 30 -62 63c0 46 34 90 80 90c40 0 63 -30 63 -63c0 -46 -35 -90 -81 -90zM313 502c38 0 66 39 66 79c0 28 -19 51 -49 51c-38 0 -66 -38 -66 -78c0 -28 19 -52 49 -52zM64 408h99l-55 -224c-12 -49 -16 -76 -16 -96c0 -50 29 -82 82 -82
c86 0 170 98 202 228l43 174h14l-75 -305c-5 -21 -8 -36 -8 -50c0 -28 15 -47 43 -47c29 0 48 21 69 76l10 -3c-23 -61 -44 -85 -80 -85c-34 0 -55 24 -55 59c0 15 3 32 8 54c0 1 6 23 11 42c-41 -89 -109 -155 -184 -155c-59 0 -95 37 -95 94c0 22 6 49 18 97l52 211h-86z
" />
    <glyph glyph-name="Wacute" unicode="&#x1e82;" horiz-adv-x="935" 
d="M579 719l-3 5l129 86c6 4 12 7 16 7c6 0 11 -6 11 -11s-5 -10 -14 -14zM226 -17l-33 662h-79l3 13h189l-3 -13h-95l30 -633l289 548h9l52 -548l328 633h-95l3 13h189l-3 -13h-77l-347 -662h-9l-51 547l-290 -547h-10z" />
    <glyph glyph-name="wacute" unicode="&#x1e83;" horiz-adv-x="625" 
d="M323 493l-3 5l129 86c6 4 12 7 16 7c6 0 11 -6 11 -11s-5 -10 -14 -14zM137 -17l-26 413h-80l2 12h91l24 -396l185 338h7l72 -346c91 134 158 290 158 368v4s-3 -1 -6 -1c-11 0 -22 9 -22 21c0 9 6 17 16 17c15 0 25 -14 25 -41c0 -84 -73 -248 -172 -389h-8l-70 343
l-189 -343h-7z" />
    <glyph glyph-name="Wcircumflex" unicode="&#x174;" horiz-adv-x="935" 
d="M504 712l-5 6l150 105l94 -105l-6 -5l-91 87zM226 -17l-33 662h-79l3 13h189l-3 -13h-95l30 -633l289 548h9l52 -548l328 633h-95l3 13h189l-3 -13h-77l-347 -662h-9l-51 547l-290 -547h-10z" />
    <glyph glyph-name="wcircumflex" unicode="&#x175;" horiz-adv-x="625" 
d="M247 486l-5 6l150 105l94 -105l-6 -5l-91 87zM137 -17l-26 413h-80l2 12h91l24 -396l185 338h7l72 -346c91 134 158 290 158 368v4s-3 -1 -6 -1c-11 0 -22 9 -22 21c0 9 6 17 16 17c15 0 25 -14 25 -41c0 -84 -73 -248 -172 -389h-8l-70 343l-189 -343h-7z" />
    <glyph glyph-name="Wdieresis" unicode="&#x1e84;" horiz-adv-x="935" 
d="M686 737c-11 0 -19 8 -19 18c0 11 8 19 19 19c10 0 18 -8 18 -19c0 -10 -8 -18 -18 -18zM579 737c-10 0 -18 8 -18 18c0 11 8 19 18 19c11 0 19 -8 19 -19c0 -10 -8 -18 -19 -18zM226 -17l-33 662h-79l3 13h189l-3 -13h-95l30 -633l289 548h9l52 -548l328 633h-95l3 13
h189l-3 -13h-77l-347 -662h-9l-51 547l-290 -547h-10z" />
    <glyph glyph-name="wdieresis" unicode="&#x1e85;" horiz-adv-x="625" 
d="M430 511c-11 0 -19 8 -19 18c0 11 8 19 19 19c10 0 18 -8 18 -19c0 -10 -8 -18 -18 -18zM323 511c-10 0 -18 8 -18 18c0 11 8 19 18 19c11 0 19 -8 19 -19c0 -10 -8 -18 -19 -18zM137 -17l-26 413h-80l2 12h91l24 -396l185 338h7l72 -346c91 134 158 290 158 368v4
s-3 -1 -6 -1c-11 0 -22 9 -22 21c0 9 6 17 16 17c15 0 25 -14 25 -41c0 -84 -73 -248 -172 -389h-8l-70 343l-189 -343h-7z" />
    <glyph glyph-name="Wgrave" unicode="&#x1e80;" horiz-adv-x="935" 
d="M226 -17l-33 662h-79l3 13h189l-3 -13h-95l30 -633l289 548h9l52 -548l328 633h-95l3 13h189l-3 -13h-77l-347 -662h-9l-51 547l-290 -547h-10zM669 719l-121 80c-7 4 -11 9 -11 14s4 10 9 10s8 0 15 -7l112 -92z" />
    <glyph glyph-name="wgrave" unicode="&#x1e81;" horiz-adv-x="625" 
d="M137 -17l-26 413h-80l2 12h91l24 -396l185 338h7l72 -346c91 134 158 290 158 368v4s-3 -1 -6 -1c-11 0 -22 9 -22 21c0 9 6 17 16 17c15 0 25 -14 25 -41c0 -84 -73 -248 -172 -389h-8l-70 343l-189 -343h-7zM414 493l-121 80c-7 4 -11 9 -11 14s4 10 9 10s8 0 15 -7
l112 -92z" />
    <glyph glyph-name="Yacute" unicode="&#xdd;" horiz-adv-x="620" 
d="M148 0l3 13h101l64 268l-136 364h-67l3 13h181l-2 -13h-100l130 -352l299 352h-98l3 13h181l-2 -13h-66l-312 -366l-63 -266h105l-2 -13h-222zM378 719l-3 5l129 86c6 4 12 7 16 7c6 0 11 -6 11 -11s-5 -10 -14 -14z" />
    <glyph glyph-name="yacute" unicode="&#xfd;" horiz-adv-x="440" 
d="M-34 -197c-20 0 -34 10 -34 24c0 9 7 16 16 16c13 0 21 -9 21 -21c0 -2 0 -4 -1 -7c38 2 112 52 214 176l-78 405h-79l2 12h89l77 -405c108 134 200 299 202 374c0 0 -3 -1 -6 -1c-11 0 -22 9 -22 21c0 10 7 17 16 17c14 0 25 -13 25 -36c0 -75 -97 -250 -212 -389
c-113 -138 -189 -186 -230 -186zM234 493l-3 5l129 86c6 4 12 7 16 7c6 0 11 -6 11 -11s-5 -10 -14 -14z" />
    <glyph glyph-name="Ycircumflex" unicode="&#x176;" horiz-adv-x="620" 
d="M148 0l3 13h101l64 268l-136 364h-67l3 13h181l-2 -13h-100l130 -352l299 352h-98l3 13h181l-2 -13h-66l-312 -366l-63 -266h105l-2 -13h-222zM302 712l-5 6l150 105l94 -105l-6 -5l-91 87z" />
    <glyph glyph-name="ycircumflex" unicode="&#x177;" horiz-adv-x="440" 
d="M-34 -197c-20 0 -34 10 -34 24c0 9 7 16 16 16c13 0 21 -9 21 -21c0 -2 0 -4 -1 -7c38 2 112 52 214 176l-78 405h-79l2 12h89l77 -405c108 134 200 299 202 374c0 0 -3 -1 -6 -1c-11 0 -22 9 -22 21c0 10 7 17 16 17c14 0 25 -13 25 -36c0 -75 -97 -250 -212 -389
c-113 -138 -189 -186 -230 -186zM159 486l-5 6l150 105l94 -105l-6 -5l-91 87z" />
    <glyph glyph-name="Ydieresis" unicode="&#x178;" horiz-adv-x="620" 
d="M148 0l3 13h101l64 268l-136 364h-67l3 13h181l-2 -13h-100l130 -352l299 352h-98l3 13h181l-2 -13h-66l-312 -366l-63 -266h105l-2 -13h-222zM485 737c-11 0 -19 8 -19 18c0 11 8 19 19 19c10 0 18 -8 18 -19c0 -10 -8 -18 -18 -18zM378 737c-10 0 -18 8 -18 18
c0 11 8 19 18 19c11 0 19 -8 19 -19c0 -10 -8 -18 -19 -18z" />
    <glyph glyph-name="ydieresis" unicode="&#xff;" horiz-adv-x="440" 
d="M-34 -197c-20 0 -34 10 -34 24c0 9 7 16 16 16c13 0 21 -9 21 -21c0 -2 0 -4 -1 -7c38 2 112 52 214 176l-78 405h-79l2 12h89l77 -405c108 134 200 299 202 374c0 0 -3 -1 -6 -1c-11 0 -22 9 -22 21c0 10 7 17 16 17c14 0 25 -13 25 -36c0 -75 -97 -250 -212 -389
c-113 -138 -189 -186 -230 -186zM341 511c-11 0 -19 8 -19 18c0 11 8 19 19 19c10 0 18 -8 18 -19c0 -10 -8 -18 -18 -18zM234 511c-10 0 -18 8 -18 18c0 11 8 19 18 19c11 0 19 -8 19 -19c0 -10 -8 -18 -19 -18z" />
    <glyph glyph-name="Ygrave" unicode="&#x1ef2;" horiz-adv-x="620" 
d="M148 0l3 13h101l64 268l-136 364h-67l3 13h181l-2 -13h-100l130 -352l299 352h-98l3 13h181l-2 -13h-66l-312 -366l-63 -266h105l-2 -13h-222zM468 719l-121 80c-7 4 -11 9 -11 14s4 10 9 10s8 0 15 -7l112 -92z" />
    <glyph glyph-name="ygrave" unicode="&#x1ef3;" horiz-adv-x="440" 
d="M-34 -197c-20 0 -34 10 -34 24c0 9 7 16 16 16c13 0 21 -9 21 -21c0 -2 0 -4 -1 -7c38 2 112 52 214 176l-78 405h-79l2 12h89l77 -405c108 134 200 299 202 374c0 0 -3 -1 -6 -1c-11 0 -22 9 -22 21c0 10 7 17 16 17c14 0 25 -13 25 -36c0 -75 -97 -250 -212 -389
c-113 -138 -189 -186 -230 -186zM324 493l-121 80c-7 4 -11 9 -11 14s4 10 9 10s8 0 15 -7l112 -92z" />
    <glyph glyph-name="Zacute" unicode="&#x179;" horiz-adv-x="571" 
d="M353 719l-3 5l129 86c6 4 12 7 16 7c6 0 11 -6 11 -11s-5 -10 -14 -14zM-1 0v8l598 637h-418l-29 -125h-14l31 138h453v-8l-598 -637h439l30 125h14l-32 -138h-474z" />
    <glyph glyph-name="zacute" unicode="&#x17a;" horiz-adv-x="400" 
d="M219 493l-3 5l129 86c6 4 12 7 16 7c6 0 11 -6 11 -11s-5 -10 -14 -14zM2 -7l-6 8l381 395h-271l-22 -87h-12l24 99h297l4 -8l-374 -387c21 9 44 13 80 13c52 0 107 -22 144 -22c47 0 74 33 94 103l11 -2c-20 -71 -48 -113 -106 -113c-40 0 -92 22 -145 22
c-46 0 -69 -5 -99 -21z" />
    <glyph glyph-name="Zcaron" unicode="&#x17d;" horiz-adv-x="571" 
d="M387 713l-94 105l6 5l91 -87l142 88l5 -6zM-1 0v8l598 637h-418l-29 -125h-14l31 138h453v-8l-598 -637h439l30 125h14l-32 -138h-474z" />
    <glyph glyph-name="zcaron" unicode="&#x17e;" horiz-adv-x="400" 
d="M253 487l-94 105l6 5l91 -87l142 88l5 -6zM2 -7l-6 8l381 395h-271l-22 -87h-12l24 99h297l4 -8l-374 -387c21 9 44 13 80 13c52 0 107 -22 144 -22c47 0 74 33 94 103l11 -2c-20 -71 -48 -113 -106 -113c-40 0 -92 22 -145 22c-46 0 -69 -5 -99 -21z" />
    <glyph glyph-name="Zdotaccent" unicode="&#x17b;" horiz-adv-x="571" 
d="M-1 0v8l598 637h-418l-29 -125h-14l31 138h453v-8l-598 -637h439l30 125h14l-32 -138h-474zM410 753c-11 0 -19 8 -19 19s8 20 19 20s19 -9 19 -20s-8 -19 -19 -19z" />
    <glyph glyph-name="zdotaccent" unicode="&#x17c;" horiz-adv-x="400" 
d="M2 -7l-6 8l381 395h-271l-22 -87h-12l24 99h297l4 -8l-374 -387c21 9 44 13 80 13c52 0 107 -22 144 -22c47 0 74 33 94 103l11 -2c-20 -71 -48 -113 -106 -113c-40 0 -92 22 -145 22c-46 0 -69 -5 -99 -21zM276 527c-11 0 -19 8 -19 19s8 20 19 20s19 -9 19 -20
s-8 -19 -19 -19z" />
    <glyph glyph-name="schwa" unicode="&#x259;" horiz-adv-x="432" 
d="M41 142c0 19 3 40 8 58h321c3 17 5 34 5 52c0 101 -66 156 -151 156c-50 0 -89 -12 -129 -35l3 14c38 21 74 33 127 33c92 0 165 -61 165 -168c0 -134 -93 -252 -219 -252c-84 0 -130 53 -130 142zM171 12c97 0 173 77 196 176h-307c-3 -15 -5 -32 -5 -47
c0 -80 40 -129 116 -129z" />
    <glyph glyph-name="germandbls" unicode="&#xdf;" horiz-adv-x="475" 
d="M298 -5c-67 0 -113 43 -113 87c0 13 7 23 17 23c8 0 15 -8 15 -17c0 -11 -8 -18 -16 -20c6 -29 40 -62 98 -62c61 0 111 42 111 109c0 56 -36 95 -74 134c-32 33 -64 65 -64 108c0 46 45 86 86 123c47 42 89 86 89 148c0 50 -33 97 -93 97c-77 0 -126 -57 -153 -176
l-128 -549h-14l92 396h-79l2 12h80l33 142c29 126 81 188 167 188c68 0 107 -53 107 -110c0 -66 -43 -112 -92 -155c-42 -38 -84 -75 -84 -116c0 -39 30 -69 62 -101c39 -39 76 -80 76 -141c0 -77 -57 -120 -125 -120z" />
    <glyph glyph-name="zero" unicode="0" horiz-adv-x="494" 
d="M223 -7c-102 0 -175 75 -175 205c0 155 100 304 245 304c99 0 173 -75 173 -205c0 -155 -101 -304 -243 -304zM223 5c134 0 228 145 228 292c0 124 -68 193 -158 193c-136 0 -230 -146 -230 -292c0 -124 67 -193 160 -193z" />
    <glyph glyph-name="one" unicode="1" horiz-adv-x="332" 
d="M2 0l2 12h119l109 473l-127 -33v13l140 36l4 -4l-112 -485h118l-3 -12h-250z" />
    <glyph glyph-name="two" unicode="2" horiz-adv-x="442" 
d="M9 0l-3 8c31 110 130 165 240 224c101 53 142 88 142 153c0 62 -52 105 -131 105c-87 0 -139 -48 -146 -93c11 -2 18 -10 18 -19c0 -11 -8 -17 -17 -17s-17 7 -17 23c0 55 61 118 162 118c85 0 146 -47 146 -116c0 -71 -46 -110 -148 -164c-112 -59 -202 -109 -234 -210
h300c6 27 20 92 27 119h13l-29 -131h-323z" />
    <glyph glyph-name="three" unicode="3" horiz-adv-x="448" 
d="M165 -124c-91 0 -172 54 -172 119c0 18 8 27 19 27c8 0 15 -6 15 -16s-8 -19 -20 -19c5 -52 75 -99 159 -99c114 0 182 76 182 163s-68 144 -178 144h-13l2 13h14c145 0 225 67 225 156c0 67 -51 126 -140 126c-77 0 -132 -40 -143 -83c13 -2 19 -10 19 -20
s-8 -16 -16 -16c-10 0 -18 8 -18 24c1 55 72 107 159 107c95 0 154 -61 154 -138c0 -90 -76 -153 -194 -164c92 -14 144 -71 144 -149c0 -91 -70 -175 -198 -175z" />
    <glyph glyph-name="four" unicode="4" horiz-adv-x="447" 
d="M336 303l-50 -211h121l-3 -13h-121l-46 -199h-13l46 199h-278l-1 5l383 418l9 -8l-369 -402h259l48 205z" />
    <glyph glyph-name="five" unicode="5" horiz-adv-x="425" 
d="M142 -126c-83 0 -154 49 -154 100c0 15 6 24 17 24c8 0 16 -6 16 -16c0 -9 -6 -18 -17 -19c7 -39 69 -77 139 -77c107 0 200 87 200 202c0 88 -55 142 -153 142c-40 0 -74 -7 -116 -24l-7 4l96 286h255l-3 -13h-243c-20 -60 -69 -202 -88 -261c37 14 70 20 109 20
c103 0 164 -60 164 -153c0 -121 -99 -215 -215 -215z" />
    <glyph glyph-name="six" unicode="6" horiz-adv-x="485" 
d="M110 40c-35 34 -50 81 -50 146c0 98 48 272 143 366c47 47 99 73 167 73c78 0 119 -50 119 -87c0 -16 -8 -25 -17 -25s-16 5 -16 15c0 9 7 18 17 21c-6 29 -43 64 -105 64c-59 0 -110 -24 -156 -69c-85 -85 -130 -232 -138 -331c20 84 95 158 198 158
c99 0 167 -66 167 -159c0 -113 -89 -219 -204 -219c-50 0 -94 16 -125 47zM77 163c0 -42 15 -85 42 -113c29 -29 70 -45 117 -45c106 0 189 100 189 208c0 87 -62 147 -153 147c-113 0 -195 -99 -195 -197z" />
    <glyph glyph-name="seven" unicode="7" horiz-adv-x="402" 
d="M38 -120l-10 7l388 597h-309l-29 -123h-13l32 135h332l4 -8z" />
    <glyph glyph-name="eight" unicode="8" horiz-adv-x="453" 
d="M198 -6c-91 0 -162 64 -162 150c0 99 76 175 180 183c-57 18 -95 69 -95 127c0 95 76 171 183 171c82 0 147 -63 147 -141c0 -88 -75 -154 -168 -163c69 -17 116 -77 116 -146c0 -105 -88 -181 -201 -181zM261 329c93 0 175 65 175 154c0 73 -57 130 -133 130
c-98 0 -168 -70 -168 -160c0 -69 57 -124 126 -124zM198 6c106 0 186 71 186 169c0 81 -64 143 -150 143c-106 0 -184 -78 -184 -173c0 -80 64 -139 148 -139z" />
    <glyph glyph-name="nine" unicode="9" horiz-adv-x="485" 
d="M134 -126c-78 0 -120 50 -120 86c0 16 7 26 17 26c9 0 16 -5 16 -15c0 -9 -7 -18 -17 -20c5 -31 43 -66 105 -66s112 25 157 70c81 82 126 224 135 322c-21 -82 -95 -153 -197 -153c-99 0 -167 68 -167 161c0 115 90 217 204 217c51 0 94 -16 125 -47
c34 -34 50 -81 50 -145c0 -99 -47 -270 -142 -364c-47 -47 -99 -72 -166 -72zM425 333c0 42 -15 87 -44 114c-29 28 -69 43 -115 43c-106 0 -188 -96 -188 -206c0 -87 61 -148 152 -148c113 0 195 98 195 197z" />
    <glyph glyph-name="zero.lin" horiz-adv-x="588" 
d="M269 -6c-121 0 -195 90 -195 243c0 217 129 430 303 430c121 0 194 -90 194 -244c0 -216 -128 -429 -302 -429zM269 6c167 0 287 210 287 417c0 145 -66 231 -180 231c-167 0 -287 -209 -287 -417c0 -144 68 -231 180 -231z" />
    <glyph glyph-name="one.lin" 
d="M3 0l3 13h129l148 635l-158 -50v14l170 55l6 -4l-151 -650h130l-3 -13h-274z" />
    <glyph glyph-name="two.lin" horiz-adv-x="497" 
d="M14 0l-4 8c55 163 197 245 300 305c97 57 177 111 177 206c0 77 -58 136 -150 136c-106 0 -180 -69 -189 -126c11 -1 20 -10 20 -20c0 -12 -9 -18 -18 -18c-10 0 -19 8 -19 26c0 65 83 151 207 151c101 0 164 -65 164 -148c0 -101 -87 -161 -181 -216
c-107 -62 -240 -137 -294 -291h361l35 155h14l-38 -168h-385z" />
    <glyph glyph-name="three.lin" horiz-adv-x="484" 
d="M207 -8c-100 0 -186 62 -186 129c0 19 7 28 19 28c9 0 16 -7 16 -17s-8 -19 -20 -19c4 -53 80 -108 172 -108c127 0 202 85 202 178c0 89 -68 153 -179 153h-24l2 13h25c143 0 230 75 230 168c0 74 -55 138 -154 138c-86 0 -148 -44 -157 -90c12 -2 19 -10 19 -20
c0 -11 -8 -17 -17 -17c-10 0 -19 8 -19 25c0 58 78 115 175 115c105 0 168 -67 168 -151c0 -93 -80 -163 -199 -176c90 -15 145 -76 145 -158c0 -101 -81 -191 -218 -191z" />
    <glyph glyph-name="four.lin" horiz-adv-x="516" 
d="M407 438l-50 -212h125l-3 -13h-125l-47 -200h106l-3 -13h-246l3 13h125l47 200h-310l-2 7l445 447l9 -9l-431 -432h292l49 205z" />
    <glyph glyph-name="five.lin" horiz-adv-x="479" 
d="M189 -8c-87 0 -162 53 -162 107c0 16 7 25 18 25c9 0 17 -6 17 -17c0 -10 -7 -18 -18 -19c8 -42 72 -83 146 -83c134 0 221 115 221 226c0 97 -63 149 -163 149c-47 0 -85 -8 -128 -27l-6 6l97 299h281l-3 -14h-269l-89 -274c36 15 76 23 119 23c108 0 176 -59 176 -161
c0 -117 -92 -240 -237 -240z" />
    <glyph glyph-name="six.lin" horiz-adv-x="520" 
d="M123 43c-36 36 -54 85 -54 153c0 116 49 294 146 393c48 49 104 78 172 78c87 0 132 -55 132 -98c0 -18 -8 -27 -19 -27c-9 0 -16 7 -16 16c0 11 8 19 19 22c-4 32 -44 75 -116 75c-63 0 -115 -26 -163 -75c-87 -87 -131 -240 -139 -350c26 90 105 164 211 164
s178 -70 178 -169c0 -121 -97 -233 -220 -233c-54 0 -98 18 -131 51zM255 5c114 0 205 106 205 221c0 92 -67 155 -165 155c-120 0 -208 -104 -208 -211c0 -48 17 -89 46 -118c32 -30 71 -47 122 -47z" />
    <glyph glyph-name="seven.lin" horiz-adv-x="464" 
d="M81 0l435 645h-355l-30 -125h-14l32 138h380l5 -8l-436 -650h-17z" />
    <glyph glyph-name="eight.lin" horiz-adv-x="513" 
d="M253 -8c-108 0 -201 61 -201 166c0 97 81 183 196 189c-69 19 -115 74 -115 143c0 101 86 179 195 179c108 0 182 -64 182 -154c0 -94 -71 -167 -183 -175c84 -19 131 -80 131 -156c0 -115 -98 -192 -205 -192zM305 349c113 0 190 71 190 165c0 84 -68 142 -167 142
c-100 0 -181 -71 -181 -167c0 -80 67 -140 158 -140zM253 5c98 0 191 70 191 178c0 90 -69 155 -181 155c-113 0 -196 -86 -196 -180c0 -98 88 -153 186 -153z" />
    <glyph glyph-name="nine.lin" horiz-adv-x="519" 
d="M104 434c0 121 98 233 221 233c54 0 98 -18 131 -51c36 -36 54 -85 54 -153c0 -116 -49 -293 -146 -392c-48 -49 -104 -79 -172 -79c-87 0 -132 56 -132 98c0 18 8 28 19 28c9 0 16 -8 16 -17c0 -10 -7 -19 -19 -22c4 -31 44 -74 116 -74c63 0 115 26 163 75
c86 88 130 237 139 348c-26 -89 -106 -162 -211 -162c-106 0 -179 69 -179 168zM492 490c0 48 -17 88 -47 117c-31 30 -71 47 -120 47c-115 0 -206 -105 -206 -221c0 -92 67 -155 165 -155c121 0 208 104 208 212z" />
    <glyph glyph-name="period" unicode="." horiz-adv-x="127" 
d="M35 -8c-11 0 -20 9 -20 20s9 20 20 20s20 -9 20 -20s-9 -20 -20 -20z" />
    <glyph glyph-name="comma" unicode="," horiz-adv-x="125" 
d="M-26 -100l-4 7c39 25 63 55 67 88c-13 -2 -23 7 -23 19c0 10 7 19 17 19c14 0 22 -13 22 -28c0 -37 -33 -79 -79 -105z" />
    <glyph glyph-name="colon" unicode=":" horiz-adv-x="140" 
d="M113 293c-11 0 -20 9 -20 20s9 20 20 20s20 -9 20 -20s-9 -20 -20 -20zM44 -8c-11 0 -20 9 -20 20s9 20 20 20s20 -9 20 -20s-9 -20 -20 -20z" />
    <glyph glyph-name="semicolon" unicode=";" horiz-adv-x="139" 
d="M113 293c-11 0 -20 9 -20 20s9 20 20 20s20 -9 20 -20s-9 -20 -20 -20zM-16 -100l-3 7c38 25 63 55 67 88c-14 -2 -24 7 -24 19c0 10 8 19 18 19c14 0 22 -13 22 -28c0 -37 -34 -79 -80 -105z" />
    <glyph glyph-name="ellipsis" unicode="&#x2026;" horiz-adv-x="393" 
d="M294 -8c-11 0 -20 9 -20 20s9 20 20 20s20 -9 20 -20s-9 -20 -20 -20zM166 -8c-11 0 -20 9 -20 20s9 20 20 20s20 -9 20 -20s-9 -20 -20 -20zM38 -8c-11 0 -19 9 -19 20s8 20 19 20c12 0 20 -9 20 -20s-8 -20 -20 -20z" />
    <glyph glyph-name="periodcentered" unicode="&#xb7;" horiz-adv-x="210" 
d="M112 216c-11 0 -19 9 -19 20c0 12 8 20 19 20c12 0 20 -8 20 -20c0 -11 -8 -20 -20 -20z" />
    <glyph glyph-name="periodcentered" unicode="&#x2219;" horiz-adv-x="210" 
d="M112 216c-11 0 -19 9 -19 20c0 12 8 20 19 20c12 0 20 -8 20 -20c0 -11 -8 -20 -20 -20z" />
    <glyph glyph-name="bullet" unicode="&#x2022;" horiz-adv-x="223" 
d="M126 199c-38 0 -70 30 -70 70s32 70 70 70s69 -30 69 -70s-31 -70 -69 -70z" />
    <glyph glyph-name="bullet.alt" horiz-adv-x="603" 
d="M302 -48c-141 0 -256 115 -256 256s115 256 256 256s256 -115 256 -256s-115 -256 -256 -256z" />
    <glyph glyph-name="ampersand" unicode="&#x26;" horiz-adv-x="566" 
d="M25 126c0 116 95 168 188 207c-26 45 -36 83 -36 124c0 86 62 151 138 151c58 0 107 -38 107 -100c0 -103 -98 -141 -189 -180c15 -26 37 -54 63 -87l79 -97c66 88 97 123 148 124c17 0 27 -9 27 -19c0 -8 -5 -14 -15 -14s-19 9 -20 20c-40 -2 -66 -33 -132 -119
l109 -133l-10 -8l-107 130c-51 -67 -112 -134 -209 -134c-80 0 -141 54 -141 135zM167 2c94 0 150 66 200 132l-82 100c-28 34 -49 62 -65 89c-89 -38 -180 -87 -180 -197c0 -73 52 -124 127 -124zM191 458c0 -39 9 -75 35 -119c88 37 181 74 181 168c0 56 -41 88 -92 88
c-70 0 -124 -60 -124 -137z" />
    <glyph glyph-name="exclam" unicode="!" horiz-adv-x="191" 
d="M81 149l110 509h19l-118 -509h-11zM55 -8c-11 0 -19 9 -19 20s8 20 19 20s20 -9 20 -20s-9 -20 -20 -20z" />
    <glyph glyph-name="exclamdown" unicode="&#xa1;" horiz-adv-x="191" 
d="M193 626c-11 0 -19 9 -19 20s8 20 19 20s20 -9 20 -20s-9 -20 -20 -20zM39 0l118 509h10l-109 -509h-19z" />
    <glyph glyph-name="question" unicode="?" horiz-adv-x="414" 
d="M122 151l38 168c192 16 268 100 268 197c0 82 -61 135 -139 135c-92 0 -151 -56 -158 -110c13 -1 21 -10 21 -21s-7 -17 -17 -17c-11 0 -20 9 -20 26c0 63 67 134 174 134c86 0 153 -59 153 -146c0 -103 -79 -189 -271 -209l-39 -157h-10zM95 -8c-11 0 -19 9 -19 20
s8 20 19 20s20 -9 20 -20s-9 -20 -20 -20z" />
    <glyph glyph-name="questiondown" unicode="&#xbf;" horiz-adv-x="414" 
d="M375 626c-11 0 -19 9 -19 20c0 12 8 20 19 20c12 0 20 -8 20 -20c0 -11 -8 -20 -20 -20zM181 -5c-86 0 -153 60 -153 147c0 103 80 188 271 209l40 156h10l-38 -167c-193 -17 -269 -101 -269 -198c0 -81 61 -134 139 -134c93 0 151 55 158 110c-13 0 -21 10 -21 20
c0 11 8 18 18 18s19 -10 19 -26c0 -64 -67 -135 -174 -135z" />
    <glyph glyph-name="quotedblleft" unicode="&#x201c;" horiz-adv-x="225" 
d="M226 533c-14 0 -22 14 -22 29c0 41 31 83 79 110l4 -7c-41 -27 -67 -61 -68 -93c15 2 24 -8 24 -20c0 -10 -7 -19 -17 -19zM132 533c-14 0 -22 14 -22 29c0 41 31 83 79 110l4 -7c-41 -27 -67 -61 -68 -93c15 2 25 -8 25 -20c0 -10 -8 -19 -18 -19z" />
    <glyph glyph-name="quotedblright" unicode="&#x201d;" horiz-adv-x="225" 
d="M178 530l-3 7c41 27 66 61 68 92c-15 -2 -25 8 -25 20c0 11 8 19 18 19c14 0 22 -13 22 -28c0 -41 -32 -83 -80 -110zM84 530l-3 7c41 27 67 61 68 92c-15 -2 -25 8 -25 20c0 11 8 19 18 19c14 0 22 -13 22 -28c0 -41 -31 -83 -80 -110z" />
    <glyph glyph-name="quoteleft" unicode="&#x2018;" horiz-adv-x="131" 
d="M132 533c-14 0 -22 14 -22 29c0 41 31 83 79 110l4 -7c-41 -27 -67 -61 -68 -93c15 2 25 -8 25 -20c0 -10 -8 -19 -18 -19z" />
    <glyph glyph-name="quoteright" unicode="&#x2019;" horiz-adv-x="131" 
d="M84 530l-3 7c41 27 67 61 68 92c-15 -2 -25 8 -25 20c0 11 8 19 18 19c14 0 22 -13 22 -28c0 -41 -31 -83 -80 -110z" />
    <glyph glyph-name="quotedblbase" unicode="&#x201e;" horiz-adv-x="218" 
d="M67 -100l-4 7c38 25 63 55 67 88c-14 -2 -24 7 -24 19c0 10 8 19 18 19c13 0 21 -13 21 -28c0 -37 -33 -79 -78 -105zM-26 -100l-4 7c39 25 63 55 67 88c-13 -2 -23 7 -23 19c0 10 7 19 17 19c14 0 22 -13 22 -28c0 -37 -33 -79 -79 -105z" />
    <glyph glyph-name="quotesinglbase" unicode="&#x201a;" horiz-adv-x="125" 
d="M-26 -100l-4 7c39 25 63 55 67 88c-13 -2 -23 7 -23 19c0 10 7 19 17 19c14 0 22 -13 22 -28c0 -37 -33 -79 -79 -105z" />
    <glyph glyph-name="guillemotleft" unicode="&#xab;" horiz-adv-x="379" 
d="M300 110l-132 156l207 155l7 -9l-196 -148l123 -146zM172 110l-132 156l207 155l7 -9l-196 -148l123 -146z" />
    <glyph glyph-name="guillemotright" unicode="&#xbb;" horiz-adv-x="379" 
d="M160 110l-8 10l197 147l-123 146l9 8l132 -156zM32 110l-8 10l197 147l-123 146l9 8l132 -156z" />
    <glyph glyph-name="guilsinglleft" unicode="&#x2039;" horiz-adv-x="257" 
d="M172 110l-132 156l207 155l7 -9l-196 -148l123 -146z" />
    <glyph glyph-name="guilsinglright" unicode="&#x203a;" horiz-adv-x="251" 
d="M32 110l-8 10l197 147l-123 146l9 8l132 -156z" />
    <glyph glyph-name="hyphen" unicode="-" horiz-adv-x="221" 
d="M43 261l3 14h150l-3 -14h-150z" />
    <glyph glyph-name="endash" unicode="&#x2013;" horiz-adv-x="375" 
d="M30 261l2 14h332l-3 -14h-331z" />
    <glyph glyph-name="emdash" unicode="&#x2014;" horiz-adv-x="606" 
d="M30 261l2 14h563l-3 -14h-562z" />
    <glyph glyph-name="hyphen.lin" horiz-adv-x="221" 
d="M57 321l2 14h150l-2 -14h-150z" />
    <glyph glyph-name="endash.lin" horiz-adv-x="375" 
d="M43 321l3 14h331l-2 -14h-332z" />
    <glyph glyph-name="emdash.lin" horiz-adv-x="606" 
d="M43 321l3 14h562l-2 -14h-563z" />
    <glyph glyph-name="underscore" unicode="_" horiz-adv-x="485" 
d="M-77 -121l2 14h491l-2 -14h-491z" />
    <glyph glyph-name="slash" unicode="/" 
d="M-76 -199l-12 6l510 925l11 -6z" />
    <glyph glyph-name="backslash" unicode="\" horiz-adv-x="405" 
d="M258 -196l-63 926l14 1l63 -926z" />
    <glyph glyph-name="bar" unicode="|" horiz-adv-x="225" 
d="M105 -200v932h14v-932h-14z" />
    <glyph glyph-name="parenleft" unicode="(" horiz-adv-x="296" 
d="M262 -220c-121 103 -192 239 -192 407c0 239 139 451 351 562l7 -10c-208 -110 -344 -317 -344 -552c0 -163 67 -296 186 -398z" />
    <glyph glyph-name="parenright" unicode=")" horiz-adv-x="296" 
d="M-105 -220l-7 11c207 109 343 316 343 551c0 163 -67 297 -185 398l8 9c121 -103 192 -239 192 -407c0 -239 -139 -451 -351 -562z" />
    <glyph glyph-name="parenleft.lin" horiz-adv-x="296" 
d="M276 -160c-121 103 -192 239 -192 407c0 239 139 451 351 562l7 -10c-208 -110 -344 -317 -344 -552c0 -163 67 -296 186 -398z" />
    <glyph glyph-name="parenright.lin" horiz-adv-x="296" 
d="M-91 -160l-7 11c207 109 343 316 343 551c0 163 -67 297 -185 398l8 9c121 -103 192 -239 192 -407c0 -239 -139 -451 -351 -562z" />
    <glyph glyph-name="bracketleft" unicode="[" horiz-adv-x="301" 
d="M16 -200l217 932h182l-3 -13h-168l-210 -906h167l-2 -13h-183z" />
    <glyph glyph-name="bracketright" unicode="]" horiz-adv-x="301" 
d="M-85 -200l2 13h168l211 906h-168l3 13h182l-216 -932h-182z" />
    <glyph glyph-name="bracketleft.lin" horiz-adv-x="301" 
d="M30 -140l217 932h182l-3 -13h-168l-210 -906h167l-2 -13h-183z" />
    <glyph glyph-name="bracketright.lin" horiz-adv-x="301" 
d="M-71 -140l2 13h168l211 906h-168l3 13h182l-216 -932h-182z" />
    <glyph glyph-name="braceleft" unicode="{" horiz-adv-x="272" 
d="M144 -208c-73 22 -121 75 -121 142c0 60 40 103 79 140c39 36 74 74 74 118c0 35 -29 70 -98 70h-31l4 14h32c84 0 129 38 129 95c0 30 -12 67 -31 105c-17 35 -32 77 -32 113c0 86 78 150 206 153l-2 -12c-118 -2 -190 -62 -190 -141c0 -34 15 -76 32 -110
c18 -38 31 -78 31 -109c0 -59 -46 -96 -112 -102c45 -6 76 -37 76 -76c0 -48 -37 -88 -77 -126c-38 -35 -76 -77 -76 -132c0 -60 41 -108 110 -130z" />
    <glyph glyph-name="braceright" unicode="}" horiz-adv-x="272" 
d="M-57 -208l2 12c117 2 190 62 190 141c0 34 -15 76 -32 110c-19 38 -32 78 -32 109c0 59 46 96 113 102c-46 6 -76 37 -76 76c0 48 36 88 76 126c38 35 77 77 77 132c0 60 -42 108 -111 130l4 12c73 -22 120 -75 120 -142c0 -60 -39 -103 -79 -140
c-38 -36 -73 -74 -73 -118c0 -35 28 -70 97 -70h31l-3 -14h-32c-84 0 -130 -38 -130 -95c0 -30 13 -67 31 -105c17 -35 32 -77 32 -113c0 -86 -78 -150 -205 -153z" />
    <glyph glyph-name="braceleft.lin" horiz-adv-x="272" 
d="M158 -148c-73 22 -121 75 -121 142c0 60 40 103 79 140c39 36 74 74 74 118c0 35 -29 70 -98 70h-31l4 14h32c84 0 129 38 129 95c0 30 -12 67 -31 105c-17 35 -32 77 -32 113c0 86 78 150 206 153l-2 -12c-118 -2 -190 -62 -190 -141c0 -34 15 -76 32 -110
c18 -38 31 -78 31 -109c0 -59 -46 -96 -112 -102c45 -6 76 -37 76 -76c0 -48 -37 -88 -77 -126c-38 -35 -76 -77 -76 -132c0 -60 41 -108 110 -130z" />
    <glyph glyph-name="braceright.lin" horiz-adv-x="272" 
d="M-43 -148l2 12c117 2 190 62 190 141c0 34 -15 76 -32 110c-19 38 -32 78 -32 109c0 59 46 96 113 102c-46 6 -76 37 -76 76c0 48 36 88 76 126c38 35 77 77 77 132c0 60 -42 108 -111 130l4 12c73 -22 120 -75 120 -142c0 -60 -39 -103 -79 -140
c-38 -36 -73 -74 -73 -118c0 -35 28 -70 97 -70h31l-3 -14h-32c-84 0 -130 -38 -130 -95c0 -30 13 -67 31 -105c17 -35 32 -77 32 -113c0 -86 -78 -150 -205 -153z" />
    <glyph glyph-name="at" unicode="@" horiz-adv-x="762" 
d="M308 -168c-161 0 -263 118 -263 287c0 262 190 477 411 477c166 0 264 -109 264 -271c0 -147 -76 -279 -164 -279c-58 0 -80 38 -70 95c-24 -55 -78 -102 -142 -102c-74 0 -118 48 -118 134c0 118 81 212 177 212c75 0 111 -57 110 -126l30 123h14l-55 -221
c-16 -63 0 -104 54 -104c82 0 153 129 153 268c0 156 -93 260 -253 260c-217 0 -398 -210 -398 -466c0 -163 95 -276 250 -276c62 0 122 15 172 42l6 -9c-52 -29 -114 -44 -178 -44zM345 50c101 0 160 113 160 208c0 71 -41 116 -102 116c-90 0 -163 -91 -163 -201
c0 -75 38 -123 105 -123z" />
    <glyph glyph-name="copyright" unicode="&#xa9;" horiz-adv-x="582" 
d="M302 -11c-148 0 -255 116 -255 261s107 262 255 262s255 -117 255 -262s-107 -261 -255 -261zM302 -1c142 0 244 113 244 251c0 139 -102 252 -244 252s-244 -114 -244 -252s102 -251 244 -251zM312 122c-80 0 -130 64 -130 131c0 81 61 135 128 135c52 0 95 -33 95 -64
c0 -11 -5 -18 -13 -18c-7 0 -12 6 -12 14c0 7 5 13 12 14c-7 22 -41 44 -82 44c-63 0 -116 -53 -116 -125c0 -62 46 -121 118 -121c31 0 59 12 86 35l6 -8c-27 -24 -59 -37 -92 -37z" />
    <glyph glyph-name="published" unicode="&#x2117;" horiz-adv-x="582" 
d="M302 -11c-148 0 -255 116 -255 261s107 262 255 262s255 -117 255 -262s-107 -261 -255 -261zM302 -1c142 0 244 113 244 251c0 139 -102 252 -244 252s-244 -114 -244 -252s102 -251 244 -251zM221 115v10h41v244h-41v10h99c55 0 96 -32 96 -81c0 -51 -37 -84 -95 -84
c-17 0 -34 1 -47 2v-91h42v-10h-95zM321 224c51 0 84 29 84 74c0 44 -37 71 -85 71h-46v-143c14 -1 30 -2 47 -2z" />
    <glyph glyph-name="registered.alt" horiz-adv-x="582" 
d="M302 -11c-148 0 -255 116 -255 261s107 262 255 262s255 -117 255 -262s-107 -261 -255 -261zM302 -1c142 0 244 113 244 251c0 139 -102 252 -244 252s-244 -114 -244 -252s102 -251 244 -251zM194 124v10h44v243h-44v10h100c54 0 87 -30 87 -73c0 -38 -26 -63 -63 -71
l65 -109h39v-10h-46l-69 116s-8 -1 -13 -1h-44v-105h41v-10h-97zM250 249h41c44 0 79 23 79 65c0 38 -31 63 -78 63h-42v-128z" />
    <glyph glyph-name="registered" unicode="&#xae;" horiz-adv-x="371" 
d="M257 336c-101 0 -172 80 -172 178c0 99 71 179 172 179s172 -80 172 -179c0 -98 -71 -178 -172 -178zM257 683c-93 0 -161 -76 -161 -169c0 -92 68 -168 161 -168c94 0 160 76 160 168c0 93 -66 169 -160 169zM186 427v10h30v162h-30v10h70c40 0 64 -18 64 -53
c0 -26 -20 -43 -43 -49l39 -70h28v-10h-35l-44 77h-38v-67h30v-10h-71zM227 513h26c32 0 56 17 56 43c0 28 -21 43 -54 43h-28v-86z" />
    <glyph glyph-name="copyright.lin" horiz-adv-x="787" 
d="M422 -7c-186 0 -326 148 -326 336c0 187 141 336 326 336c186 0 326 -148 326 -336c0 -187 -141 -336 -326 -336zM422 3c179 0 314 144 314 326s-134 326 -314 326c-178 0 -313 -144 -313 -326s134 -326 313 -326zM434 166c-99 0 -162 80 -162 166c0 98 73 171 161 171
c66 0 119 -42 119 -83c0 -11 -5 -18 -15 -18c-8 0 -14 7 -14 15c0 7 6 14 16 15c-8 29 -51 60 -106 60c-84 0 -148 -70 -148 -160c0 -81 59 -155 149 -155c42 0 81 16 112 45l6 -8c-32 -31 -73 -48 -118 -48z" />
    <glyph glyph-name="published.lin" horiz-adv-x="787" 
d="M422 -7c-186 0 -326 148 -326 336c0 187 141 336 326 336c186 0 326 -148 326 -336c0 -187 -141 -336 -326 -336zM422 3c179 0 314 144 314 326s-134 326 -314 326c-178 0 -313 -144 -313 -326s134 -326 313 -326zM321 165v10h48v309h-48v10h113c73 0 122 -39 122 -99
c0 -62 -47 -102 -119 -102c-19 0 -43 1 -56 2v-120h49v-10h-109zM437 304c66 0 107 36 107 91c0 54 -43 89 -110 89h-53v-178c14 -1 37 -2 56 -2z" />
    <glyph glyph-name="registered.lin" horiz-adv-x="787" 
d="M422 -7c-186 0 -326 148 -326 336c0 187 141 336 326 336c186 0 326 -148 326 -336c0 -187 -141 -336 -326 -336zM422 3c179 0 314 144 314 326s-134 326 -314 326c-178 0 -313 -144 -313 -326s134 -326 313 -326zM302 171v10h49v309h-49v10h120c68 0 111 -38 111 -91
s-43 -86 -88 -92l92 -136h43v-10h-51l-96 144h-71v-134h49v-10h-109zM362 326h65c47 0 94 29 94 83c0 48 -39 81 -100 81h-59v-164z" />
    <glyph glyph-name="servicemark" unicode="&#x2120;" horiz-adv-x="513" 
d="M151 409c-48 0 -76 29 -76 52c0 9 6 15 13 15s12 -6 12 -12s-4 -11 -10 -14c6 -15 28 -32 62 -32c39 0 64 24 64 55c0 26 -19 42 -50 62c-32 21 -53 41 -53 70c0 34 31 58 68 58c40 0 67 -23 67 -47c0 -10 -6 -15 -13 -15s-11 5 -11 12c0 5 3 11 10 13
c-6 14 -25 28 -53 28c-31 0 -57 -19 -57 -49c0 -25 19 -41 48 -61c32 -21 55 -41 55 -71c0 -35 -29 -64 -76 -64zM250 413l2 9h36l61 227h-41l2 9h53l44 -191l132 191h51l-2 -9h-38l-43 -227h38l-2 -9h-84l2 9h36l41 217l-131 -189h-6l-44 188l-58 -216h37l-2 -9h-84z" />
    <glyph glyph-name="trademark" unicode="&#x2122;" horiz-adv-x="557" 
d="M295 413l1 9h36l61 227h-40l2 9h52l45 -191l131 191h52l-3 -9h-38l-42 -227h38l-2 -9h-85l2 9h36l41 217l-131 -189h-5l-45 188l-58 -216h37l-2 -9h-83zM113 413l2 9h37l51 227h-82l-12 -47h-11l14 56h198l-12 -56h-11l10 47h-82l-52 -227h37l-2 -9h-85z" />
    <glyph glyph-name="asterisk" unicode="*" horiz-adv-x="338" 
d="M298 450c-5 0 -10 4 -12 12l-40 103l-75 -78c-5 -6 -9 -8 -13 -8s-8 4 -9 8c0 4 2 9 8 14l86 69l-97 49c-10 4 -12 8 -12 12c0 6 4 10 9 10c4 0 7 -2 12 -5l90 -61l18 108c1 11 5 15 11 15c9 0 10 -9 7 -18l-29 -106l109 17c3 2 7 2 9 2c6 0 9 -4 9 -9
c0 -7 -5 -11 -16 -11l-111 -5l50 -97c4 -6 6 -9 6 -12c0 -5 -5 -9 -10 -9z" />
    <glyph glyph-name="dagger" unicode="&#x2020;" horiz-adv-x="402" 
d="M148 -2l91 407l-123 16c0 -14 -7 -23 -18 -23c-12 0 -18 9 -18 17c0 12 8 22 22 22c3 0 8 -1 15 -2l126 -22l38 197c2 16 7 20 14 20c9 0 13 -6 8 -23l-50 -195l126 22c8 1 12 2 15 2c15 0 22 -9 22 -20c0 -10 -8 -19 -20 -19c-11 0 -18 8 -16 23l-127 -17l-97 -405h-8z
" />
    <glyph glyph-name="daggerdbl" unicode="&#x2021;" horiz-adv-x="402" 
d="M176 64l-33 -167c-3 -17 -7 -20 -13 -20c-9 0 -13 5 -9 20l44 168l-121 -22c-8 -1 -11 -2 -15 -2c-14 0 -21 8 -21 20c0 10 8 19 19 19s18 -9 17 -23l120 16l45 180l37 182l-118 16c0 -14 -7 -23 -18 -23c-12 0 -18 9 -18 17c0 12 8 22 22 22c4 0 8 -1 15 -2l121 -22
l31 167c3 16 7 20 14 20c8 0 13 -5 8 -21l-43 -167l121 22c7 1 12 1 15 1c14 0 21 -8 21 -19c0 -10 -8 -19 -19 -19s-18 8 -17 23l-121 -17l-44 -181l-37 -180l118 -16c0 13 7 22 18 22c12 0 18 -8 18 -17c0 -12 -8 -21 -22 -21c-4 0 -8 0 -15 2z" />
    <glyph glyph-name="asciicircum" unicode="^" horiz-adv-x="409" 
d="M123 397l-5 6l150 105l94 -105l-6 -5l-91 87z" />
    <glyph glyph-name="asciitilde" unicode="~" horiz-adv-x="463" 
d="M311 215c-27 0 -45 11 -74 33c-28 21 -45 31 -64 31c-31 0 -48 -21 -65 -61l-10 3c17 45 41 72 76 72c24 0 44 -10 73 -33c29 -22 43 -31 65 -31c32 0 50 21 68 62l10 -3c-18 -45 -41 -73 -79 -73z" />
    <glyph glyph-name="dollar" unicode="$" horiz-adv-x="408" 
d="M119 -102l-12 4l31 107c-71 14 -120 58 -120 96c0 16 8 26 18 26c8 0 15 -7 15 -17s-7 -19 -16 -20c7 -30 48 -62 106 -73l69 232c-66 36 -109 73 -109 126c0 69 69 113 147 113c11 0 21 -1 31 -2l23 79l12 -4l-23 -77c62 -13 104 -51 104 -84c0 -16 -7 -25 -16 -25
s-17 6 -17 17c0 9 8 17 16 19c-7 25 -41 52 -91 61l-63 -216c71 -39 119 -78 119 -134c0 -70 -64 -121 -160 -121c-11 0 -25 1 -33 2zM329 125c0 50 -41 85 -109 122l-67 -228c7 -1 20 -2 31 -2c88 0 145 48 145 108zM114 380c0 -48 36 -80 99 -114l63 212c-7 1 -19 2 -29 2
c-70 0 -133 -39 -133 -100z" />
    <glyph glyph-name="dollar.lin" horiz-adv-x="507" 
d="M144 -95l32 104c-87 19 -143 76 -143 118c0 16 7 26 19 26c10 0 17 -7 17 -18c0 -10 -7 -19 -18 -21c9 -36 58 -78 129 -93l96 313c-74 42 -145 84 -145 168c0 100 90 154 192 154c18 0 34 -2 50 -5l29 94l11 -4l-28 -93c74 -18 118 -67 118 -105c0 -17 -8 -26 -19 -26
c-9 0 -17 7 -17 18c0 10 7 19 18 21c-7 29 -44 65 -104 80l-91 -295c76 -43 152 -87 152 -176c0 -99 -82 -162 -206 -162c-17 0 -31 1 -48 4l-32 -106zM428 164c0 81 -69 123 -141 164l-95 -310c14 -2 28 -3 44 -3c114 0 192 59 192 149zM145 503c0 -77 65 -117 135 -156
l89 292c-10 2 -30 4 -46 4c-94 0 -178 -47 -178 -140z" />
    <glyph glyph-name="sterling" unicode="&#xa3;" horiz-adv-x="441" 
d="M429 408c0 -18 -7 -26 -17 -26c-9 0 -16 6 -16 16c0 9 7 18 17 19c-5 35 -45 71 -109 71c-115 0 -163 -95 -163 -187c0 -52 10 -96 12 -145h172l-3 -12h-169v-5c0 -79 -37 -146 -109 -202c39 3 77 -8 119 -23c36 -13 66 -22 101 -22c41 0 76 17 111 45l8 -9
c-36 -29 -74 -48 -119 -48c-40 0 -71 10 -108 23c-38 14 -79 28 -123 22c-17 -21 -35 -31 -46 -31c-9 0 -13 6 -13 12c0 12 21 26 54 30c74 58 110 123 110 203v5h-97l3 12h94c-2 48 -11 95 -11 145c0 98 53 199 177 199c78 0 125 -50 125 -92z" />
    <glyph glyph-name="sterling.lin" horiz-adv-x="511" 
d="M396 273h-179c0 -86 -41 -160 -123 -222c47 2 83 -8 131 -25c39 -13 72 -23 111 -23c44 0 83 18 121 48l8 -10c-40 -30 -81 -51 -129 -51c-43 0 -78 11 -118 25c-45 16 -85 29 -135 24c-19 -22 -38 -32 -50 -32c-9 0 -14 5 -14 11c0 14 23 28 58 32
c84 65 125 135 125 223h-105l3 13h102c-2 55 -13 107 -13 167c0 103 55 210 191 210c85 0 136 -54 136 -100c0 -18 -8 -27 -18 -27c-9 0 -18 7 -18 19c0 10 8 18 19 20c-6 36 -49 76 -120 76c-126 0 -176 -101 -176 -198c0 -61 12 -112 14 -167h181z" />
    <glyph glyph-name="Euro" unicode="&#x20ac;" horiz-adv-x="528" 
d="M21 191h74v10c0 34 6 68 16 100h-71l2 12h74c39 104 128 186 241 186c94 0 162 -60 162 -122c0 -18 -8 -26 -18 -26c-9 0 -16 6 -16 16s7 20 19 21c-6 51 -67 100 -148 100c-104 0 -189 -77 -226 -175h214l-2 -12h-217c-10 -32 -16 -66 -16 -99v-11h214l-3 -12h-210
c9 -104 83 -168 180 -168c56 0 114 22 160 59l7 -9c-46 -37 -107 -62 -168 -62c-104 0 -184 69 -193 180h-78z" />
    <glyph glyph-name="Euro.lin" horiz-adv-x="636" 
d="M458 392h-287c-13 -45 -20 -93 -21 -139h276l-3 -12h-273v-2c0 -138 79 -231 207 -231c76 0 151 37 203 90l9 -9c-55 -55 -132 -93 -213 -93c-136 0 -221 96 -221 243v2h-99l3 12h96c1 47 8 94 21 139h-85l3 12h86c44 142 144 258 286 258c106 0 186 -78 186 -148
c0 -17 -9 -27 -20 -27c-9 0 -17 6 -17 18c0 10 8 20 21 22c-6 59 -78 122 -171 122c-134 0 -228 -111 -270 -245h286z" />
    <glyph glyph-name="yen" unicode="&#xa5;" horiz-adv-x="465" 
d="M75 223l3 12h144l-93 251h-64l3 12h169l-3 -12h-90l92 -253l210 253h-88l3 12h169l-3 -12h-65l-211 -251h146l-3 -12h-153l-20 -85h154l-3 -11h-153l-26 -115h92l-2 -12h-198l2 12h92l27 115h-153l3 11h152l20 85h-153z" />
    <glyph glyph-name="yen.lin" horiz-adv-x="626" 
d="M130 277l3 12h172l-129 356h-69l3 13h183l-3 -13h-98l125 -352l301 352h-99l3 13h183l-3 -13h-67l-307 -356h170l-2 -12h-177l-25 -102h177l-2 -12h-178l-37 -150h108l-3 -13h-229l2 13h108l37 150h-174l2 12h175l26 102h-176z" />
    <glyph glyph-name="cent" unicode="&#xa2;" horiz-adv-x="426" 
d="M211 42c-14 0 -27 1 -40 4l-44 -147l-12 3l44 147c-63 19 -108 74 -108 162c0 145 107 254 229 249l33 109l12 -3l-32 -107c74 -8 116 -58 116 -102c0 -17 -8 -25 -17 -25c-8 0 -15 6 -15 16c0 9 7 18 18 20c-5 34 -41 73 -105 80l-116 -391c12 -3 25 -4 38 -4
c41 0 91 17 135 51l-2 -15c-39 -30 -89 -47 -134 -47zM66 211c0 -81 39 -133 96 -151l115 389c-114 3 -211 -102 -211 -238z" />
    <glyph glyph-name="cent.lin" horiz-adv-x="447" 
d="M244 130c-14 0 -26 1 -41 5l-44 -152l-12 4l44 151c-62 21 -108 78 -108 167c0 139 107 255 230 245l36 119l12 -4l-35 -117c71 -10 111 -57 111 -103c0 -19 -8 -26 -17 -26s-16 5 -16 16c0 10 6 19 18 21c-5 36 -40 71 -100 80l-115 -390c13 -3 24 -4 38 -4
c52 0 95 20 134 51l-1 -15c-35 -27 -80 -48 -134 -48zM97 305c0 -83 41 -136 98 -155l115 388c-112 9 -213 -101 -213 -233z" />
    <glyph glyph-name="numbersign" unicode="#" horiz-adv-x="504" 
d="M74 345l3 12h110l38 140h13l-38 -140h163l39 140h13l-38 -140h97l-3 -12h-98l-50 -183h108l-2 -13h-109l-41 -149h-13l40 149h-163l-41 -149h-13l41 149h-98l3 13h98l50 183h-109zM197 345l-51 -183h164l50 183h-163z" />
    <glyph glyph-name="numbersign.lin" horiz-adv-x="520" 
d="M475 658l-58 -207h128l-3 -13h-128l-63 -225h133l-3 -12h-133l-56 -201h-13l55 201h-166l-56 -201h-13l56 201h-128l3 12h128l63 225h-133l3 13h133l58 207h13l-58 -207h167l58 207h13zM233 438l-62 -225h167l62 225h-167z" />
    <glyph glyph-name="paragraph" unicode="&#xb6;" horiz-adv-x="493" 
d="M155 0l3 12h75l47 175c-90 0 -141 13 -173 45c-23 23 -35 53 -35 90c0 104 83 176 207 176h243l-3 -12h-71l-127 -474h71l-3 -12h-234zM247 12h59l128 474h-59z" />
    <glyph glyph-name="paragraph.lin" horiz-adv-x="589" 
d="M215 0l2 13h83l55 234c-13 -1 -26 -1 -47 -1c-132 0 -215 69 -215 183c0 127 107 229 266 229h269l-2 -13h-76l-147 -632h85l-3 -13h-270zM315 13h73l146 632h-73z" />
    <glyph glyph-name="section" unicode="&#xa7;" horiz-adv-x="402" 
d="M250 491c-64 0 -105 -30 -105 -68c0 -43 43 -66 101 -89c59 -23 107 -49 107 -94c0 -41 -47 -72 -132 -84c42 -20 70 -43 70 -81c0 -44 -45 -82 -118 -82c-72 0 -123 40 -123 75c0 11 6 19 16 19c9 0 15 -7 15 -15s-4 -15 -13 -17c8 -25 50 -50 105 -50
c64 0 104 33 104 69c0 45 -44 65 -104 89c-58 24 -103 48 -103 93c0 42 47 71 130 84c-43 21 -69 44 -69 83c0 45 47 80 119 80c73 0 120 -40 120 -73c0 -11 -7 -19 -16 -19s-16 7 -16 15s5 15 13 17c-7 23 -46 48 -101 48zM180 174l26 -11c87 12 133 39 133 77
s-46 62 -101 84l-22 9c-86 -11 -132 -40 -132 -77c0 -38 41 -60 96 -82z" />
    <glyph glyph-name="section.lin" horiz-adv-x="468" 
d="M84 338c0 57 63 95 177 112c-55 26 -100 57 -100 110c0 63 67 108 154 108c67 0 116 -25 140 -53c13 -15 19 -31 19 -44c0 -15 -8 -23 -18 -23c-9 0 -16 7 -16 17s7 18 15 20c-3 9 -8 18 -17 27c-20 22 -63 44 -122 44c-81 0 -141 -41 -141 -96s58 -84 124 -113
c81 -35 149 -65 149 -127c0 -53 -58 -95 -177 -112c60 -28 100 -58 100 -110c0 -56 -58 -106 -153 -106c-65 0 -116 27 -138 54c-12 15 -19 31 -19 44c0 15 7 22 17 22s16 -7 16 -16c0 -11 -7 -19 -15 -20c2 -8 8 -17 16 -26c20 -22 65 -45 122 -45c88 0 140 45 140 93
c0 57 -58 86 -138 119c-75 32 -135 61 -135 121zM291 437l-12 5c-122 -17 -181 -52 -181 -103c0 -54 57 -81 129 -112l28 -12c123 18 179 55 179 104c0 57 -63 82 -143 118z" />
    <glyph glyph-name="ordfeminine" unicode="&#xaa;" horiz-adv-x="303" 
d="M162 410c-51 0 -87 35 -87 99c0 81 54 159 129 159c48 0 83 -33 86 -83l20 79h12l-47 -188c-3 -12 -4 -22 -4 -30c0 -15 9 -26 24 -26c16 0 29 14 42 46l9 -3c-14 -36 -29 -53 -52 -53s-34 15 -34 36c0 9 2 20 5 33c-22 -38 -58 -69 -103 -69zM164 420
c70 0 120 84 120 150c0 51 -33 87 -80 87c-68 0 -117 -74 -117 -148c0 -57 31 -89 77 -89zM56 332l3 10h242l-3 -10h-242z" />
    <glyph glyph-name="ordmasculine" unicode="&#xba;" horiz-adv-x="312" 
d="M210 406c-61 0 -108 44 -108 114c0 77 57 152 137 152c61 0 108 -44 108 -114c0 -78 -58 -152 -137 -152zM73 332l3 10h225l-3 -10h-225zM211 417c71 0 123 69 123 141c0 64 -41 103 -96 103c-71 0 -124 -70 -124 -142c0 -64 43 -102 97 -102z" />
    <glyph glyph-name="ordfeminine.lin" horiz-adv-x="303" 
d="M178 482c-51 0 -87 35 -87 99c0 81 54 159 129 159c48 0 83 -33 86 -83l20 79h12l-47 -188c-3 -12 -4 -22 -4 -30c0 -15 9 -26 24 -26c16 0 29 14 42 46l9 -3c-14 -36 -29 -53 -52 -53s-34 15 -34 36c0 9 2 20 5 33c-22 -38 -58 -69 -103 -69zM180 492
c70 0 120 84 120 150c0 51 -33 87 -80 87c-68 0 -117 -74 -117 -148c0 -57 31 -89 77 -89zM72 404l3 10h242l-3 -10h-242z" />
    <glyph glyph-name="ordmasculine.lin" horiz-adv-x="312" 
d="M226 478c-61 0 -108 44 -108 114c0 77 57 152 137 152c61 0 108 -44 108 -114c0 -78 -58 -152 -137 -152zM89 404l3 10h225l-3 -10h-225zM227 489c71 0 123 69 123 141c0 64 -41 103 -96 103c-71 0 -124 -70 -124 -142c0 -64 43 -102 97 -102z" />
    <glyph glyph-name="degree" unicode="&#xb0;" horiz-adv-x="310" 
d="M187 426c-60 0 -102 42 -102 105c0 69 57 136 132 136c62 0 101 -41 101 -104c0 -69 -55 -137 -131 -137zM188 438c68 0 117 61 117 125c0 59 -37 93 -88 93c-68 0 -118 -61 -118 -125c0 -59 37 -93 89 -93z" />
    <glyph glyph-name="degree.lin" horiz-adv-x="310" 
d="M203 498c-60 0 -102 42 -102 105c0 69 57 136 132 136c62 0 101 -41 101 -104c0 -69 -55 -137 -131 -137zM204 510c68 0 117 61 117 125c0 59 -37 93 -88 93c-68 0 -118 -61 -118 -125c0 -59 37 -93 89 -93z" />
    <glyph glyph-name="percent" unicode="%" horiz-adv-x="598" 
d="M415 8c58 0 102 58 102 121c0 43 -28 81 -76 81c-59 0 -103 -58 -103 -121c0 -43 29 -81 77 -81zM59 -21l-9 8l246 255l247 258l8 -9l-245 -256zM179 287c58 0 102 59 102 121c0 43 -28 81 -76 81c-58 0 -103 -58 -103 -120c0 -44 28 -82 77 -82zM178 276
c-58 0 -90 44 -90 93c0 68 51 132 117 132c58 0 90 -45 90 -93c0 -68 -51 -132 -117 -132zM414 -3c-58 0 -90 44 -90 93c0 68 51 131 117 131c58 0 91 -44 91 -93c0 -68 -52 -131 -118 -131z" />
    <glyph glyph-name="perthousand" unicode="&#x2030;" horiz-adv-x="819" 
d="M59 -21l-9 8l246 255l247 258l8 -9l-245 -256zM179 287c58 0 102 59 102 121c0 43 -28 81 -76 81c-58 0 -103 -58 -103 -120c0 -44 28 -82 77 -82zM178 276c-58 0 -90 44 -90 93c0 68 51 132 117 132c58 0 90 -45 90 -93c0 -68 -51 -132 -117 -132zM415 8
c58 0 102 58 102 121c0 43 -28 81 -76 81c-59 0 -103 -58 -103 -121c0 -43 29 -81 77 -81zM414 -3c-58 0 -90 44 -90 93c0 68 51 131 117 131c58 0 91 -44 91 -93c0 -68 -52 -131 -118 -131zM655 8c58 0 102 58 102 121c0 43 -28 81 -76 81c-58 0 -102 -58 -102 -121
c0 -43 28 -81 76 -81zM655 -3c-58 0 -91 44 -91 93c0 68 52 131 117 131c58 0 91 -44 91 -93c0 -68 -51 -131 -117 -131z" />
    <glyph glyph-name="percent.lin" horiz-adv-x="659" 
d="M215 385c-70 0 -115 50 -115 119c0 82 64 162 151 162c69 0 114 -50 114 -119c0 -82 -64 -162 -150 -162zM52 -4l-9 9l311 327l313 330l9 -9l-312 -328zM466 -8c-69 0 -115 50 -115 119c0 82 65 162 151 162c70 0 115 -50 115 -119c0 -82 -64 -162 -151 -162zM215 398
c78 0 136 72 136 149c0 63 -41 106 -101 106c-77 0 -135 -72 -135 -149c0 -63 41 -106 100 -106zM467 5c77 0 135 72 135 149c0 63 -41 106 -101 106c-77 0 -135 -72 -135 -149c0 -63 42 -106 101 -106z" />
    <glyph glyph-name="perthousand.lin" horiz-adv-x="969" 
d="M52 -4l-9 9l311 327l313 330l9 -9l-312 -328zM215 398c78 0 136 72 136 149c0 63 -41 106 -101 106c-77 0 -135 -72 -135 -149c0 -63 41 -106 100 -106zM215 385c-70 0 -115 50 -115 119c0 82 64 162 151 162c69 0 114 -50 114 -119c0 -82 -64 -162 -150 -162zM467 5
c77 0 135 72 135 149c0 63 -41 106 -101 106c-77 0 -135 -72 -135 -149c0 -63 42 -106 101 -106zM466 -8c-69 0 -115 50 -115 119c0 82 65 162 151 162c70 0 115 -50 115 -119c0 -82 -64 -162 -151 -162zM777 5c77 0 135 72 135 149c0 63 -41 106 -101 106
c-77 0 -135 -72 -135 -149c0 -63 41 -106 101 -106zM776 -8c-70 0 -115 50 -115 119c0 82 64 162 151 162c69 0 115 -50 115 -119c0 -82 -65 -162 -151 -162z" />
    <glyph glyph-name="quotedbl" unicode="&#x22;" horiz-adv-x="218" 
d="M192 517l26 132c2 10 6 17 12 17s12 -4 12 -10c0 -4 -1 -8 -3 -13l-42 -126h-5zM97 517l26 132c2 10 6 17 12 17s13 -4 13 -10c0 -4 -1 -8 -4 -13l-41 -126h-6z" />
    <glyph glyph-name="quotesingle" unicode="'" horiz-adv-x="124" 
d="M97 517l26 132c2 10 6 17 12 17s13 -4 13 -10c0 -4 -1 -8 -4 -13l-41 -126h-6z" />
    <glyph glyph-name="quotedbl.lin" horiz-adv-x="244" 
d="M208 589l26 132c2 10 6 17 12 17s12 -4 12 -10c0 -4 -1 -8 -3 -13l-42 -126h-5zM113 589l26 132c2 10 6 17 12 17s13 -4 13 -10c0 -4 -1 -8 -4 -13l-41 -126h-6z" />
    <glyph glyph-name="quotesingle.lin" horiz-adv-x="122" 
d="M113 589l26 132c2 10 6 17 12 17s13 -4 13 -10c0 -4 -1 -8 -4 -13l-41 -126h-6z" />
    <glyph glyph-name="plus" unicode="+" horiz-adv-x="373" 
d="M241 406l-32 -137h134l-3 -13h-134l-35 -148h-13l34 148h-134l2 13h135l32 137h14z" />
    <glyph glyph-name="plus.lin" horiz-adv-x="373" 
d="M257 478l-32 -137h134l-3 -13h-134l-35 -148h-13l34 148h-134l2 13h135l32 137h14z" />
    <glyph glyph-name="minus" unicode="&#x2212;" horiz-adv-x="373" 
d="M58 256l2 13h283l-3 -13h-282z" />
    <glyph glyph-name="minus.lin" horiz-adv-x="373" 
d="M74 328l2 13h283l-3 -13h-282z" />
    <glyph glyph-name="divide" unicode="&#xf7;" horiz-adv-x="373" 
d="M58 256l2 13h283l-3 -13h-282zM227 358c-11 0 -18 9 -18 19c0 11 7 19 18 19c10 0 18 -8 18 -19c0 -10 -8 -19 -18 -19zM173 127c-11 0 -18 8 -18 18c0 11 7 19 18 19s18 -8 18 -19c0 -10 -7 -18 -18 -18z" />
    <glyph glyph-name="divide.lin" horiz-adv-x="373" 
d="M74 328l2 13h283l-3 -13h-282zM243 430c-11 0 -18 9 -18 19c0 11 7 19 18 19c10 0 18 -8 18 -19c0 -10 -8 -19 -18 -19zM189 199c-11 0 -18 8 -18 18c0 11 7 19 18 19s18 -8 18 -19c0 -10 -7 -18 -18 -18z" />
    <glyph glyph-name="equal" unicode="=" horiz-adv-x="373" 
d="M69 311l3 12h282l-2 -12h-283zM37 175l3 13h282l-2 -13h-283z" />
    <glyph glyph-name="equal.lin" horiz-adv-x="373" 
d="M75 383l3 12h282l-2 -12h-283zM43 247l3 13h282l-2 -13h-283z" />
    <glyph glyph-name="multiply" unicode="&#xd7;" horiz-adv-x="373" 
d="M104 400l98 -128l151 122l8 -11l-151 -122l100 -129l-10 -9l-100 130l-152 -123l-7 11l151 122l-98 128z" />
    <glyph glyph-name="multiply.lin" horiz-adv-x="373" 
d="M107 472l98 -128l151 122l8 -11l-151 -122l100 -129l-10 -9l-100 130l-152 -123l-7 11l151 122l-98 128z" />
    <glyph glyph-name="less" unicode="&#x3c;" horiz-adv-x="354" 
d="M250 97l-190 153l1 5l261 145l7 -11l-249 -138l178 -143z" />
    <glyph glyph-name="less.lin" horiz-adv-x="354" 
d="M266 169l-190 153l1 5l261 145l7 -11l-249 -138l178 -143z" />
    <glyph glyph-name="greater" unicode="&#x3e;" horiz-adv-x="354" 
d="M51 100l-7 11l249 138l-177 143l8 11l189 -153l-1 -5z" />
    <glyph glyph-name="greater.lin" horiz-adv-x="354" 
d="M68 172l-7 11l249 138l-177 143l8 11l189 -153l-1 -5z" />
    <glyph glyph-name="plusminus" unicode="&#xb1;" horiz-adv-x="373" 
d="M250 451l-32 -137h134l-2 -13h-135l-34 -144h-13l34 144h-135l3 13h135l32 137h13zM17 85l2 13h283l-3 -13h-282z" />
    <glyph glyph-name="plusminus.lin" horiz-adv-x="373" 
d="M253 523l-32 -137h134l-2 -13h-135l-34 -144h-13l34 144h-135l3 13h135l32 137h13zM20 157l2 13h283l-3 -13h-282z" />
    <glyph glyph-name="onehalf" unicode="&#xbd;" horiz-adv-x="795" 
d="M436 0l-3 6c32 88 107 132 174 168c55 28 106 62 106 111c0 42 -35 72 -88 72c-61 0 -104 -36 -109 -65c9 -1 15 -8 15 -15c0 -10 -6 -15 -14 -15s-14 7 -14 22c0 37 49 84 122 84c61 0 101 -34 101 -83c0 -54 -53 -88 -113 -120c-59 -32 -134 -73 -164 -154h209l20 82
h11l-21 -93h-232zM79 280l2 11h103l81 341l-115 -35v12l124 38l6 -3l-83 -353h101l-3 -11h-216zM145 -5l-8 7l268 320c103 122 228 272 267 319l8 -6c-40 -48 -165 -198 -268 -320c-103 -123 -228 -272 -267 -320z" />
    <glyph glyph-name="onethird" unicode="&#x2153;" horiz-adv-x="795" 
d="M92 280l2 11h103l81 341l-115 -35v12l124 38l6 -3l-83 -353h101l-3 -11h-216zM144 -5l-8 7l268 320c103 122 228 272 267 319l8 -6c-40 -48 -165 -198 -268 -320c-103 -123 -228 -272 -267 -320zM566 -3c-63 0 -112 38 -112 77c0 14 6 23 15 23c8 0 14 -6 14 -15
c0 -7 -7 -15 -17 -15c6 -30 47 -60 100 -60c71 0 118 44 118 96c0 45 -40 80 -94 80h-22l2 11h19c71 0 124 41 124 90c0 42 -37 73 -95 73c-50 0 -87 -26 -92 -50c10 0 15 -7 15 -14c0 -10 -6 -14 -13 -14c-9 0 -15 7 -15 22c0 32 43 67 107 67c65 0 106 -37 106 -83
c0 -49 -45 -89 -107 -97c47 -8 78 -43 78 -85c0 -59 -54 -106 -131 -106z" />
    <glyph glyph-name="twothirds" unicode="&#x2154;" horiz-adv-x="795" 
d="M85 280l-3 6c32 88 107 132 174 168c55 28 106 62 106 111c0 42 -35 72 -88 72c-61 0 -104 -36 -109 -65c9 -1 15 -8 15 -15c0 -10 -6 -15 -14 -15s-14 7 -14 22c0 37 49 84 122 84c61 0 101 -34 101 -83c0 -54 -53 -88 -113 -120c-59 -32 -134 -73 -164 -154h209l20 82
h11l-21 -93h-232zM161 -5l-8 7l268 320c103 122 228 272 267 319l8 -6c-40 -48 -165 -198 -268 -320c-103 -123 -228 -272 -267 -320zM574 -3c-63 0 -112 38 -112 77c0 14 6 23 15 23c8 0 14 -6 14 -15c0 -7 -7 -15 -17 -15c6 -30 47 -60 100 -60c71 0 118 44 118 96
c0 45 -40 80 -94 80h-22l2 11h19c71 0 124 41 124 90c0 42 -37 73 -95 73c-50 0 -87 -26 -92 -50c10 0 15 -7 15 -14c0 -10 -6 -14 -13 -14c-9 0 -15 7 -15 22c0 32 43 67 107 67c65 0 106 -37 106 -83c0 -49 -45 -89 -107 -97c47 -8 78 -43 78 -85
c0 -59 -54 -106 -131 -106z" />
    <glyph glyph-name="onequarter" unicode="&#xbc;" horiz-adv-x="795" 
d="M601 10l25 106h-181l-2 6l247 246l8 -8l-236 -234h166l26 108l14 7l-27 -114h71l-2 -11h-71l-25 -106h58l-2 -10h-140l3 10h68zM90 280l2 11h103l81 341l-115 -35v12l124 38l6 -3l-83 -353h101l-3 -11h-216zM157 -5l-8 7l268 320c103 122 228 272 267 319l8 -6
c-40 -48 -165 -198 -268 -320c-103 -123 -228 -272 -267 -320z" />
    <glyph glyph-name="threequarters" unicode="&#xbe;" horiz-adv-x="795" 
d="M599 10l25 106h-181l-2 6l247 246l8 -8l-236 -234h166l26 108l14 7l-27 -114h71l-2 -11h-71l-25 -106h58l-2 -10h-140l3 10h68zM171 -5l-8 7l268 320c103 122 228 272 267 319l8 -6c-40 -48 -165 -198 -268 -320c-103 -123 -228 -272 -267 -320zM221 277
c-63 0 -112 38 -112 77c0 14 6 23 15 23c8 0 14 -6 14 -15c0 -7 -7 -15 -17 -15c6 -30 47 -60 100 -60c71 0 118 44 118 96c0 45 -40 80 -94 80h-22l2 11h19c71 0 124 41 124 90c0 42 -37 73 -95 73c-50 0 -87 -26 -92 -50c10 0 15 -7 15 -14c0 -10 -6 -14 -13 -14
c-9 0 -15 7 -15 22c0 32 43 67 107 67c65 0 106 -37 106 -83c0 -49 -45 -89 -107 -97c47 -8 78 -43 78 -85c0 -59 -54 -106 -131 -106z" />
    <glyph glyph-name="onefifth" unicode="&#x2155;" horiz-adv-x="795" 
d="M540 -5c-54 0 -97 33 -97 64c0 12 5 20 14 20c7 0 13 -6 13 -13s-5 -13 -13 -14c6 -22 40 -47 84 -47c79 0 139 56 139 122c0 46 -33 79 -93 79c-35 0 -69 -8 -91 -18l-7 5l56 167h183l-2 -11h-173l-50 -147c19 7 50 15 86 15c66 0 104 -37 104 -89
c0 -73 -65 -133 -153 -133zM85 280l2 11h103l81 341l-115 -35v12l124 38l6 -3l-83 -353h101l-3 -11h-216zM143 -5l-8 7l268 320c103 122 228 272 267 319l8 -6c-40 -48 -165 -198 -268 -320c-103 -123 -228 -272 -267 -320z" />
    <glyph glyph-name="twofifths" unicode="&#x2156;" horiz-adv-x="795" 
d="M96 280l-3 6c32 88 107 132 174 168c55 28 106 62 106 111c0 42 -35 72 -88 72c-61 0 -104 -36 -109 -65c9 -1 15 -8 15 -15c0 -10 -6 -15 -14 -15s-14 7 -14 22c0 37 49 84 122 84c61 0 101 -34 101 -83c0 -54 -53 -88 -113 -120c-59 -32 -134 -73 -164 -154h209l20 82
h11l-21 -93h-232zM553 -5c-54 0 -97 33 -97 64c0 12 5 20 14 20c7 0 13 -6 13 -13s-5 -13 -13 -14c6 -22 40 -47 84 -47c79 0 139 56 139 122c0 46 -33 79 -93 79c-35 0 -69 -8 -91 -18l-7 5l56 167h183l-2 -11h-173l-50 -147c19 7 50 15 86 15c66 0 104 -37 104 -89
c0 -73 -65 -133 -153 -133zM167 -5l-8 7l268 320c103 122 228 272 267 319l8 -6c-40 -48 -165 -198 -268 -320c-103 -123 -228 -272 -267 -320z" />
    <glyph glyph-name="threefifths" unicode="&#x2157;" horiz-adv-x="795" 
d="M552 -5c-54 0 -97 33 -97 64c0 12 5 20 14 20c7 0 13 -6 13 -13s-5 -13 -13 -14c6 -22 40 -47 84 -47c79 0 139 56 139 122c0 46 -33 79 -93 79c-35 0 -69 -8 -91 -18l-7 5l56 167h183l-2 -11h-173l-50 -147c19 7 50 15 86 15c66 0 104 -37 104 -89
c0 -73 -65 -133 -153 -133zM153 -5l-8 7l268 320c103 122 228 272 267 319l8 -6c-40 -48 -165 -198 -268 -320c-103 -123 -228 -272 -267 -320zM218 277c-63 0 -112 38 -112 77c0 14 6 23 15 23c8 0 14 -6 14 -15c0 -7 -7 -15 -17 -15c6 -30 47 -60 100 -60
c71 0 118 44 118 96c0 45 -40 80 -94 80h-22l2 11h19c71 0 124 41 124 90c0 42 -37 73 -95 73c-50 0 -87 -26 -92 -50c10 0 15 -7 15 -14c0 -10 -6 -14 -13 -14c-9 0 -15 7 -15 22c0 32 43 67 107 67c65 0 106 -37 106 -83c0 -49 -45 -89 -107 -97c47 -8 78 -43 78 -85
c0 -59 -54 -106 -131 -106z" />
    <glyph glyph-name="fourfifths" unicode="&#x2158;" horiz-adv-x="795" 
d="M252 290l25 106h-181l-2 6l247 246l8 -8l-236 -234h166l26 108l14 7l-27 -114h71l-2 -11h-71l-25 -106h58l-2 -10h-140l3 10h68zM562 -5c-54 0 -97 33 -97 64c0 12 5 20 14 20c7 0 13 -6 13 -13s-5 -13 -13 -14c6 -22 40 -47 84 -47c79 0 139 56 139 122
c0 46 -33 79 -93 79c-35 0 -69 -8 -91 -18l-7 5l56 167h183l-2 -11h-173l-50 -147c19 7 50 15 86 15c66 0 104 -37 104 -89c0 -73 -65 -133 -153 -133zM162 -5l-8 7l268 320c103 122 228 272 267 319l8 -6c-40 -48 -165 -198 -268 -320c-103 -123 -228 -272 -267 -320z" />
    <glyph glyph-name="onesixth" unicode="&#x2159;" horiz-adv-x="795" 
d="M482 24c-22 21 -32 49 -32 87c0 60 29 158 85 212c28 26 61 44 98 44c52 0 80 -31 80 -54c0 -16 -8 -23 -16 -23c-7 0 -12 4 -12 13c0 7 5 14 13 16c-4 18 -25 38 -65 38c-33 0 -64 -17 -90 -42c-48 -48 -76 -130 -81 -187c17 51 68 91 125 91c60 0 100 -39 100 -94
c0 -66 -60 -129 -131 -129c-31 0 -56 10 -74 28zM556 7c65 0 118 57 118 118c0 49 -35 83 -88 83c-64 0 -121 -55 -121 -115c0 -25 10 -44 25 -60c16 -17 39 -26 66 -26zM87 280l2 11h103l81 341l-115 -35v12l124 38l6 -3l-83 -353h101l-3 -11h-216zM141 -5l-8 7l268 320
c103 122 228 272 267 319l8 -6c-40 -48 -165 -198 -268 -320c-103 -123 -228 -272 -267 -320z" />
    <glyph glyph-name="fivesixths" unicode="&#x215a;" horiz-adv-x="795" 
d="M495 24c-22 21 -32 49 -32 87c0 60 29 158 85 212c28 26 61 44 98 44c52 0 80 -31 80 -54c0 -16 -8 -23 -16 -23c-7 0 -12 4 -12 13c0 7 5 14 13 16c-4 18 -25 38 -65 38c-33 0 -64 -17 -90 -42c-48 -48 -76 -130 -81 -187c17 51 68 91 125 91c60 0 100 -39 100 -94
c0 -66 -60 -129 -131 -129c-31 0 -56 10 -74 28zM569 7c65 0 118 57 118 118c0 49 -35 83 -88 83c-64 0 -121 -55 -121 -115c0 -25 10 -44 25 -60c16 -17 39 -26 66 -26zM199 275c-54 0 -97 33 -97 64c0 12 5 20 14 20c7 0 13 -6 13 -13s-5 -13 -13 -14c6 -22 40 -47 84 -47
c79 0 139 56 139 122c0 46 -33 79 -93 79c-35 0 -69 -8 -91 -18l-7 5l56 167h183l-2 -11h-173l-50 -147c19 7 50 15 86 15c66 0 104 -37 104 -89c0 -73 -65 -133 -153 -133zM158 -5l-8 7l268 320c103 122 228 272 267 319l8 -6c-40 -48 -165 -198 -268 -320
c-103 -123 -228 -272 -267 -320z" />
    <glyph glyph-name="oneeighth" unicode="&#x215b;" horiz-adv-x="795" 
d="M97 280l2 11h103l81 341l-115 -35v12l124 38l6 -3l-83 -353h101l-3 -11h-216zM151 -5l-8 7l268 320c103 122 228 272 267 319l8 -6c-40 -48 -165 -198 -268 -320c-103 -123 -228 -272 -267 -320zM570 -3c-66 0 -117 39 -117 95c0 55 57 99 116 101c-34 10 -67 39 -67 80
c0 52 55 96 123 96c65 0 109 -40 109 -86c0 -53 -48 -88 -106 -96c41 -13 73 -43 73 -87c0 -61 -61 -103 -131 -103zM609 194c60 0 112 39 112 88c0 40 -39 76 -97 76c-59 0 -109 -38 -109 -86c0 -45 46 -78 94 -78zM570 7c61 0 119 38 119 93c0 49 -46 85 -107 85
c-62 0 -116 -42 -116 -92c0 -51 45 -86 104 -86z" />
    <glyph glyph-name="threeeighths" unicode="&#x215c;" horiz-adv-x="795" 
d="M575 -3c-66 0 -117 39 -117 95c0 55 57 99 116 101c-34 10 -67 39 -67 80c0 52 55 96 123 96c65 0 109 -40 109 -86c0 -53 -48 -88 -106 -96c41 -13 73 -43 73 -87c0 -61 -61 -103 -131 -103zM614 194c60 0 112 39 112 88c0 40 -39 76 -97 76c-59 0 -109 -38 -109 -86
c0 -45 46 -78 94 -78zM575 7c61 0 119 38 119 93c0 49 -46 85 -107 85c-62 0 -116 -42 -116 -92c0 -51 45 -86 104 -86zM150 -5l-8 7l268 320c103 122 228 272 267 319l8 -6c-40 -48 -165 -198 -268 -320c-103 -123 -228 -272 -267 -320zM208 277c-63 0 -112 38 -112 77
c0 14 6 23 15 23c8 0 14 -6 14 -15c0 -7 -7 -15 -17 -15c6 -30 47 -60 100 -60c71 0 118 44 118 96c0 45 -40 80 -94 80h-22l2 11h19c71 0 124 41 124 90c0 42 -37 73 -95 73c-50 0 -87 -26 -92 -50c10 0 15 -7 15 -14c0 -10 -6 -14 -13 -14c-9 0 -15 7 -15 22
c0 32 43 67 107 67c65 0 106 -37 106 -83c0 -49 -45 -89 -107 -97c47 -8 78 -43 78 -85c0 -59 -54 -106 -131 -106z" />
    <glyph glyph-name="fiveeighths" unicode="&#x215d;" horiz-adv-x="795" 
d="M189 275c-54 0 -97 33 -97 64c0 12 5 20 14 20c7 0 13 -6 13 -13s-5 -13 -13 -14c6 -22 40 -47 84 -47c79 0 139 56 139 122c0 46 -33 79 -93 79c-35 0 -69 -8 -91 -18l-7 5l56 167h183l-2 -11h-173l-50 -147c19 7 50 15 86 15c66 0 104 -37 104 -89
c0 -73 -65 -133 -153 -133zM144 -5l-8 7l268 320c103 122 228 272 267 319l8 -6c-40 -48 -165 -198 -268 -320c-103 -123 -228 -272 -267 -320zM570 -3c-66 0 -117 39 -117 95c0 55 57 99 116 101c-34 10 -67 39 -67 80c0 52 55 96 123 96c65 0 109 -40 109 -86
c0 -53 -48 -88 -106 -96c41 -13 73 -43 73 -87c0 -61 -61 -103 -131 -103zM609 194c60 0 112 39 112 88c0 40 -39 76 -97 76c-59 0 -109 -38 -109 -86c0 -45 46 -78 94 -78zM570 7c61 0 119 38 119 93c0 49 -46 85 -107 85c-62 0 -116 -42 -116 -92c0 -51 45 -86 104 -86z
" />
    <glyph glyph-name="seveneighths" unicode="&#x215e;" horiz-adv-x="795" 
d="M158 280l239 351h-209l-15 -67h-13l18 78h232l4 -6l-242 -356h-14zM570 -3c-66 0 -117 39 -117 95c0 55 57 99 116 101c-34 10 -67 39 -67 80c0 52 55 96 123 96c65 0 109 -40 109 -86c0 -53 -48 -88 -106 -96c41 -13 73 -43 73 -87c0 -61 -61 -103 -131 -103zM609 194
c60 0 112 39 112 88c0 40 -39 76 -97 76c-59 0 -109 -38 -109 -86c0 -45 46 -78 94 -78zM570 7c61 0 119 38 119 93c0 49 -46 85 -107 85c-62 0 -116 -42 -116 -92c0 -51 45 -86 104 -86zM114 -5l-8 7l268 320c103 122 228 272 267 319l8 -6c-40 -48 -165 -198 -268 -320
c-103 -123 -228 -272 -267 -320z" />
    <glyph glyph-name="zero.sup" unicode="&#x2070;" 
d="M244 427c-66 0 -103 54 -103 133c0 122 62 239 157 239c64 0 103 -54 103 -134c0 -122 -64 -238 -157 -238zM244 437c86 0 144 114 144 228c0 73 -33 123 -91 123c-86 0 -143 -113 -143 -227c0 -73 32 -124 90 -124z" />
    <glyph glyph-name="onesuperior" unicode="&#xb9;" 
d="M136 430l2 11h103l81 341l-115 -35v12l124 38l6 -3l-83 -353h101l-3 -11h-216z" />
    <glyph glyph-name="twosuperior" unicode="&#xb2;" 
d="M119 430l-3 6c32 88 107 132 174 168c55 28 106 62 106 111c0 42 -35 72 -88 72c-61 0 -104 -36 -109 -65c9 -1 15 -8 15 -15c0 -10 -6 -15 -14 -15s-14 7 -14 22c0 37 49 84 122 84c61 0 101 -34 101 -83c0 -54 -53 -88 -113 -120c-59 -32 -134 -73 -164 -154h209l20 82
h11l-21 -93h-232z" />
    <glyph glyph-name="threesuperior" unicode="&#xb3;" 
d="M245 427c-63 0 -112 38 -112 77c0 14 6 23 15 23c8 0 14 -6 14 -15c0 -7 -7 -15 -17 -15c6 -30 47 -60 100 -60c71 0 118 44 118 96c0 45 -40 80 -94 80h-22l2 11h19c71 0 124 41 124 90c0 42 -37 73 -95 73c-50 0 -87 -26 -92 -50c10 0 15 -7 15 -14
c0 -10 -6 -14 -13 -14c-9 0 -15 7 -15 22c0 32 43 67 107 67c65 0 106 -37 106 -83c0 -49 -45 -89 -107 -97c47 -8 78 -43 78 -85c0 -59 -54 -106 -131 -106z" />
    <glyph glyph-name="four.sup" unicode="&#x2074;" 
d="M281 440l25 106h-181l-2 6l247 246l8 -8l-236 -234h166l26 108l14 7l-27 -114h71l-2 -11h-71l-25 -106h58l-2 -10h-140l3 10h68z" />
    <glyph glyph-name="five.sup" unicode="&#x2075;" 
d="M225 425c-54 0 -97 33 -97 64c0 12 5 20 14 20c7 0 13 -6 13 -13s-5 -13 -13 -14c6 -22 40 -47 84 -47c79 0 139 56 139 122c0 46 -33 79 -93 79c-35 0 -69 -8 -91 -18l-7 5l56 167h183l-2 -11h-173l-50 -147c19 7 50 15 86 15c66 0 104 -37 104 -89
c0 -73 -65 -133 -153 -133z" />
    <glyph glyph-name="six.sup" unicode="&#x2076;" 
d="M176 454c-22 21 -32 49 -32 87c0 60 29 158 85 212c28 26 61 44 98 44c52 0 80 -31 80 -54c0 -16 -8 -23 -16 -23c-7 0 -12 4 -12 13c0 7 5 14 13 16c-4 18 -25 38 -65 38c-33 0 -64 -17 -90 -42c-48 -48 -76 -130 -81 -187c17 51 68 91 125 91c60 0 100 -39 100 -94
c0 -66 -60 -129 -131 -129c-31 0 -56 10 -74 28zM250 437c65 0 118 57 118 118c0 49 -35 83 -88 83c-64 0 -121 -55 -121 -115c0 -25 10 -44 25 -60c16 -17 39 -26 66 -26z" />
    <glyph glyph-name="seven.sup" unicode="&#x2077;" 
d="M182 430l239 351h-209l-15 -67h-13l18 78h232l4 -6l-242 -356h-14z" />
    <glyph glyph-name="eight.sup" unicode="&#x2078;" 
d="M250 427c-66 0 -117 39 -117 95c0 55 57 99 116 101c-34 10 -67 39 -67 80c0 52 55 96 123 96c65 0 109 -40 109 -86c0 -53 -48 -88 -106 -96c41 -13 73 -43 73 -87c0 -61 -61 -103 -131 -103zM289 624c60 0 112 39 112 88c0 40 -39 76 -97 76c-59 0 -109 -38 -109 -86
c0 -45 46 -78 94 -78zM250 437c61 0 119 38 119 93c0 49 -46 85 -107 85c-62 0 -116 -42 -116 -92c0 -51 45 -86 104 -86z" />
    <glyph glyph-name="nine.sup" unicode="&#x2079;" 
d="M171 668c0 67 60 129 131 129c31 0 56 -10 74 -28c22 -21 32 -49 32 -87c0 -60 -29 -157 -85 -211c-28 -27 -61 -45 -98 -45c-52 0 -80 32 -80 55c0 15 8 23 16 23c7 0 12 -5 12 -13s-5 -15 -13 -17c4 -17 25 -37 65 -37c33 0 64 17 90 42c47 46 75 128 80 185
c-17 -51 -67 -89 -124 -89c-60 0 -100 39 -100 93zM302 786c-65 0 -118 -57 -118 -117c0 -49 35 -84 88 -84c64 0 121 55 121 116c0 24 -10 44 -25 60c-17 16 -39 25 -66 25z" />
    <glyph glyph-name="zero.inf" unicode="&#x2080;" 
d="M113 -143c-66 0 -103 54 -103 133c0 122 62 239 157 239c64 0 103 -54 103 -134c0 -122 -64 -238 -157 -238zM113 -133c86 0 144 114 144 228c0 73 -33 123 -91 123c-86 0 -143 -113 -143 -227c0 -73 32 -124 90 -124z" />
    <glyph glyph-name="one.inf" unicode="&#x2081;" 
d="M5 -140l2 11h103l81 341l-115 -35v12l124 38l6 -3l-83 -353h101l-3 -11h-216z" />
    <glyph glyph-name="two.inf" unicode="&#x2082;" 
d="M-12 -140l-3 6c32 88 107 132 174 168c55 28 106 62 106 111c0 42 -35 72 -88 72c-61 0 -104 -36 -109 -65c9 -1 15 -8 15 -15c0 -10 -6 -15 -14 -15s-14 7 -14 22c0 37 49 84 122 84c61 0 101 -34 101 -83c0 -54 -53 -88 -113 -120c-59 -32 -134 -73 -164 -154h209
l20 82h11l-21 -93h-232z" />
    <glyph glyph-name="three.inf" unicode="&#x2083;" 
d="M114 -143c-63 0 -112 38 -112 77c0 14 6 23 15 23c8 0 14 -6 14 -15c0 -7 -7 -15 -17 -15c6 -30 47 -60 100 -60c71 0 118 44 118 96c0 45 -40 80 -94 80h-22l2 11h19c71 0 124 41 124 90c0 42 -37 73 -95 73c-50 0 -87 -26 -92 -50c10 0 15 -7 15 -14
c0 -10 -6 -14 -13 -14c-9 0 -15 7 -15 22c0 32 43 67 107 67c65 0 106 -37 106 -83c0 -49 -45 -89 -107 -97c47 -8 78 -43 78 -85c0 -59 -54 -106 -131 -106z" />
    <glyph glyph-name="four.inf" unicode="&#x2084;" 
d="M150 -130l25 106h-181l-2 6l247 246l8 -8l-236 -234h166l26 108l14 7l-27 -114h71l-2 -11h-71l-25 -106h58l-2 -10h-140l3 10h68z" />
    <glyph glyph-name="five.inf" unicode="&#x2085;" 
d="M94 -145c-54 0 -97 33 -97 64c0 12 5 20 14 20c7 0 13 -6 13 -13s-5 -13 -13 -14c6 -22 40 -47 84 -47c79 0 139 56 139 122c0 46 -33 79 -93 79c-35 0 -69 -8 -91 -18l-7 5l56 167h183l-2 -11h-173l-50 -147c19 7 50 15 86 15c66 0 104 -37 104 -89
c0 -73 -65 -133 -153 -133z" />
    <glyph glyph-name="six.inf" unicode="&#x2086;" 
d="M45 -116c-22 21 -32 49 -32 87c0 60 29 158 85 212c28 26 61 44 98 44c52 0 80 -31 80 -54c0 -16 -8 -23 -16 -23c-7 0 -12 4 -12 13c0 7 5 14 13 16c-4 18 -25 38 -65 38c-33 0 -64 -17 -90 -42c-48 -48 -76 -130 -81 -187c17 51 68 91 125 91c60 0 100 -39 100 -94
c0 -66 -60 -129 -131 -129c-31 0 -56 10 -74 28zM119 -133c65 0 118 57 118 118c0 49 -35 83 -88 83c-64 0 -121 -55 -121 -115c0 -25 10 -44 25 -60c16 -17 39 -26 66 -26z" />
    <glyph glyph-name="seven.inf" unicode="&#x2087;" 
d="M51 -140l239 351h-209l-15 -67h-13l18 78h232l4 -6l-242 -356h-14z" />
    <glyph glyph-name="eight.inf" unicode="&#x2088;" 
d="M119 -143c-66 0 -117 39 -117 95c0 55 57 99 116 101c-34 10 -67 39 -67 80c0 52 55 96 123 96c65 0 109 -40 109 -86c0 -53 -48 -88 -106 -96c41 -13 73 -43 73 -87c0 -61 -61 -103 -131 -103zM158 54c60 0 112 39 112 88c0 40 -39 76 -97 76c-59 0 -109 -38 -109 -86
c0 -45 46 -78 94 -78zM119 -133c61 0 119 38 119 93c0 49 -46 85 -107 85c-62 0 -116 -42 -116 -92c0 -51 45 -86 104 -86z" />
    <glyph glyph-name="nine.inf" unicode="&#x2089;" 
d="M40 98c0 67 60 129 131 129c31 0 56 -10 74 -28c22 -21 32 -49 32 -87c0 -60 -29 -157 -85 -211c-28 -27 -61 -45 -98 -45c-52 0 -80 32 -80 55c0 15 8 23 16 23c7 0 12 -5 12 -13s-5 -15 -13 -17c4 -17 25 -37 65 -37c33 0 64 17 90 42c47 46 75 128 80 185
c-17 -51 -67 -89 -124 -89c-60 0 -100 39 -100 93zM171 216c-65 0 -118 -57 -118 -117c0 -49 35 -84 88 -84c64 0 121 55 121 116c0 24 -10 44 -25 60c-17 16 -39 25 -66 25z" />
    <glyph glyph-name="zero.tab" horiz-adv-x="530" 
d="M516 436c-1 -212 -126 -442 -285 -442c-99 0 -160 84 -159 231c1 212 126 442 285 442c99 0 160 -84 159 -231zM88 226c0 -139 53 -219 144 -219c150 0 268 228 268 428c0 140 -53 219 -144 219c-150 0 -268 -228 -268 -428z" />
    <glyph glyph-name="one.tab" horiz-adv-x="530" 
d="M48 0l2 13h173l148 636l-202 -58v13l213 63l7 -5l-151 -649h173l-3 -13h-360z" />
    <glyph glyph-name="two.tab" horiz-adv-x="530" 
d="M37 13h374l34 152h15l-37 -165h-401l-3 8c57 160 192 240 307 305c98 56 182 113 182 206c0 79 -60 136 -157 136c-117 0 -187 -75 -195 -135c12 -1 19 -10 19 -20c0 -11 -8 -17 -17 -17c-10 0 -19 8 -19 26c0 69 80 159 212 159c108 0 173 -64 173 -149
c0 -100 -89 -159 -191 -217c-107 -61 -241 -138 -296 -289z" />
    <glyph glyph-name="three.tab" horiz-adv-x="530" 
d="M302 342c98 -15 156 -77 156 -158c0 -101 -83 -191 -223 -191c-108 0 -194 70 -194 138c0 19 8 28 19 28c9 0 16 -6 16 -17c0 -10 -8 -19 -20 -19c7 -57 82 -117 179 -117c133 0 207 85 207 178c0 87 -68 152 -189 152h-32l2 13h35c147 0 236 77 236 168
c0 79 -63 138 -165 138c-92 0 -162 -49 -170 -99c12 -2 19 -9 19 -20s-8 -17 -17 -17c-10 0 -19 8 -19 25c0 63 81 124 189 124c110 0 178 -66 178 -150c0 -91 -82 -164 -207 -176z" />
    <glyph glyph-name="four.tab" horiz-adv-x="530" 
d="M430 437l-50 -211h123l-2 -13h-124l-46 -200h107l-3 -13h-248l3 13h127l46 200h-320l-2 8l454 447l11 -9l-441 -433h301l47 203z" />
    <glyph glyph-name="five.tab" horiz-adv-x="530" 
d="M216 -8c-99 0 -178 58 -178 116c0 15 7 25 18 25c9 0 17 -7 17 -17s-7 -17 -17 -19c10 -47 76 -92 161 -92c149 0 241 114 241 223c0 98 -72 151 -183 151c-52 0 -97 -9 -145 -26l-7 6l99 299h316l-3 -14h-304l-91 -275c40 14 85 24 135 24c121 0 199 -60 199 -165
c0 -114 -98 -236 -258 -236z" />
    <glyph glyph-name="six.tab" horiz-adv-x="530" 
d="M514 577c-4 32 -37 78 -118 78c-62 0 -116 -26 -163 -73c-89 -89 -137 -248 -143 -355c22 89 106 169 218 169c108 0 180 -70 180 -171c0 -118 -98 -233 -225 -233c-57 0 -101 19 -133 50c-40 39 -56 89 -56 160c0 106 49 288 150 389c48 49 105 76 172 76
c95 0 136 -60 136 -101c0 -18 -9 -28 -20 -28c-9 0 -15 7 -15 17s7 19 17 22zM263 5c118 0 209 107 209 220c0 94 -67 158 -165 158c-123 0 -214 -103 -214 -216c0 -46 18 -86 48 -115c31 -30 71 -47 122 -47z" />
    <glyph glyph-name="seven.tab" horiz-adv-x="530" 
d="M123 0l441 645h-388l-29 -124h-14l31 137h417l4 -7l-444 -651h-18z" />
    <glyph glyph-name="eight.tab" horiz-adv-x="530" 
d="M511 514c0 80 -67 142 -169 142c-108 0 -192 -72 -192 -165c0 -78 71 -141 165 -141c117 0 196 72 196 164zM475 183c0 -112 -104 -190 -219 -190c-110 0 -202 64 -202 166c0 99 88 185 205 189c-72 17 -124 76 -124 144c0 97 89 177 207 177c108 0 184 -66 184 -155
c0 -95 -76 -165 -190 -173c85 -17 139 -80 139 -158zM460 183c0 88 -71 156 -188 156c-118 0 -203 -87 -203 -179c0 -94 85 -154 187 -154c106 0 204 72 204 177z" />
    <glyph glyph-name="nine.tab" horiz-adv-x="530" 
d="M82 83c5 -31 38 -78 119 -78c62 0 115 25 163 72c89 90 138 253 143 360c-20 -90 -104 -174 -219 -174c-107 0 -180 71 -180 171c0 119 98 233 226 233c57 0 100 -19 133 -50c39 -38 55 -88 55 -159c0 -107 -48 -288 -149 -389c-49 -49 -106 -77 -172 -77
c-96 0 -137 60 -137 102c0 18 9 27 20 27c9 0 16 -7 16 -17s-8 -18 -18 -21zM333 654c-118 0 -209 -107 -209 -219c0 -95 68 -159 166 -159c122 0 213 104 213 216c0 47 -17 87 -47 116c-31 30 -71 46 -123 46z" />
    <glyph glyph-name="period.tab" horiz-adv-x="265" 
d="M103 -8c-12 0 -20 9 -20 21c0 11 8 20 20 20s21 -9 21 -20c0 -12 -9 -21 -21 -21z" />
    <glyph glyph-name="comma.tab" horiz-adv-x="265" 
d="M42 -102l-3 7c41 26 66 61 66 90c-12 -3 -23 7 -23 20c0 11 8 19 19 19c14 0 22 -13 22 -28c0 -36 -27 -79 -81 -108z" />
    <glyph glyph-name="colon.tab" horiz-adv-x="265" 
d="M106 -8c-12 0 -20 9 -20 21c0 11 8 20 20 20c13 0 21 -9 21 -20c0 -12 -8 -21 -21 -21zM176 292c-13 0 -21 10 -21 21c0 12 8 21 21 21c12 0 20 -9 20 -21c0 -11 -8 -21 -20 -21z" />
    <glyph glyph-name="semicolon.tab" horiz-adv-x="265" 
d="M47 -102l-3 7c41 26 66 61 66 90c-12 -3 -23 7 -23 20c0 11 8 19 18 19c15 0 23 -13 23 -28c0 -36 -27 -79 -81 -108zM176 292c-12 0 -20 10 -20 21c0 12 8 21 20 21c13 0 21 -9 21 -21c0 -11 -8 -21 -21 -21z" />
    <glyph glyph-name="twodotleader.tab" horiz-adv-x="530" 
d="M103 -8c-12 0 -20 9 -20 21c0 11 8 20 20 20s21 -9 21 -20c0 -12 -9 -21 -21 -21zM368 -8c-12 0 -20 9 -20 21c0 11 8 20 20 20s21 -9 21 -20c0 -12 -9 -21 -21 -21z" />
    <glyph glyph-name="periodcentered.tab" horiz-adv-x="265" 
d="M141 219c-12 0 -20 9 -20 21c0 11 8 20 20 20s20 -9 20 -20c0 -12 -8 -21 -20 -21z" />
    <glyph glyph-name="slash.tab" horiz-adv-x="530" 
d="M-41 -199l-10 8l616 923l11 -8z" />
    <glyph glyph-name="bar.tab" horiz-adv-x="265" 
d="M126 -200v932h14v-932h-14z" />
    <glyph glyph-name="underscore.tab" horiz-adv-x="530" 
d="M-70 -121l3 14h541l-3 -14h-541z" />
    <glyph glyph-name="dollar.tab" horiz-adv-x="530" 
d="M44 132c0 16 7 26 18 26c10 0 17 -7 17 -18c0 -10 -6 -19 -17 -21c8 -38 57 -83 133 -98l95 312c-77 41 -153 84 -153 169c0 98 93 153 202 153c17 0 33 -1 48 -4l28 94l13 -4l-29 -93c79 -19 122 -70 122 -109c0 -17 -7 -25 -18 -25c-9 0 -18 7 -18 18c0 9 7 18 18 20
c-9 30 -46 68 -108 83l-90 -294c79 -42 158 -86 158 -176c0 -98 -85 -162 -215 -162c-16 0 -31 1 -45 3l-32 -105l-12 4l31 104c-90 19 -146 78 -146 123zM448 164c0 81 -71 123 -147 163l-94 -308c13 -2 26 -3 41 -3c120 0 200 59 200 148zM153 503c0 -76 68 -116 141 -156
l89 291c-14 2 -29 4 -45 4c-99 0 -185 -48 -185 -139z" />
    <glyph glyph-name="sterling.tab" horiz-adv-x="530" 
d="M213 454c0 -64 12 -113 14 -168h191l-3 -13h-188v-4c0 -87 -40 -159 -129 -219c50 4 91 -5 140 -23c34 -12 67 -24 114 -24c45 0 83 19 122 47l8 -10c-40 -31 -81 -50 -132 -50c-47 0 -82 12 -117 24c-47 17 -92 30 -147 23c-18 -22 -37 -32 -49 -32c-9 0 -14 5 -14 12
c0 13 22 27 57 31c91 63 133 132 133 220v5h-107l3 13h103c-2 52 -14 106 -14 167c0 104 56 210 196 210c87 0 144 -54 144 -104c0 -18 -8 -26 -19 -26c-9 0 -17 7 -17 18s7 19 19 21c-7 37 -54 77 -127 77c-131 0 -181 -101 -181 -195z" />
    <glyph glyph-name="Euro.tab" horiz-adv-x="530" 
d="M60 393l3 13h70c45 146 144 255 262 255c91 0 142 -72 142 -141c0 -19 -9 -29 -20 -29c-10 0 -17 7 -17 18c0 10 7 20 20 22c-4 56 -46 117 -126 117c-110 0 -201 -104 -244 -242h234l-3 -13h-235c-13 -45 -21 -93 -23 -141h226l-3 -13h-223v-11c0 -139 62 -218 158 -218
c71 0 129 39 175 97l11 -8c-48 -61 -112 -102 -188 -102c-104 0 -172 82 -172 230v12h-81l3 13h78c2 49 10 96 22 141h-69z" />
    <glyph glyph-name="yen.tab" horiz-adv-x="530" 
d="M108 277l2 13h150l-91 355h-70l3 13h187l-3 -13h-102l90 -352l266 352h-104l3 13h187l-3 -13h-66l-270 -355h149l-3 -13h-156l-25 -102h156l-3 -13h-156l-37 -149h101l-3 -13h-217l3 13h101l37 149h-154l3 13h154l25 102h-154z" />
    <glyph glyph-name="cent.tab" horiz-adv-x="530" 
d="M428 194v-16c-38 -27 -85 -48 -145 -48c-14 0 -27 1 -40 4l-44 -150l-12 4l45 149c-69 19 -121 78 -121 168c0 136 110 252 242 244l36 120l11 -4l-35 -117c80 -9 122 -62 122 -104c0 -19 -8 -26 -17 -26s-16 5 -16 16c0 10 6 19 18 21c-7 35 -44 73 -111 81l-115 -390
c13 -3 25 -4 39 -4c60 0 107 22 143 52zM126 305c0 -83 47 -138 109 -156l115 388c-121 8 -224 -104 -224 -232z" />
    <glyph glyph-name="numbersign.tab" horiz-adv-x="530" 
d="M483 658l-58 -207h129l-3 -13h-129l-63 -224h134l-3 -13h-134l-56 -201h-14l56 201h-172l-55 -201h-14l56 201h-129l3 13h129l63 224h-134l3 13h134l58 207h14l-58 -207h171l58 207h14zM236 438l-62 -224h171l63 224h-172z" />
    <glyph glyph-name="paragraph.tab" horiz-adv-x="530" 
d="M259 13l54 233c-9 -1 -14 -1 -22 -1c-119 0 -201 70 -201 182c0 134 115 231 276 231h210l-2 -13h-72l-146 -632h79l-3 -13h-263l3 13h87zM273 13h69l146 632h-68z" />
    <glyph glyph-name="section.tab" horiz-adv-x="530" 
d="M106 337c0 57 67 94 186 112c-61 26 -108 58 -108 110c0 67 75 110 166 110c76 0 128 -29 150 -59c12 -16 17 -33 17 -46c0 -16 -7 -24 -17 -24c-9 0 -16 7 -16 17s7 18 15 20c-2 8 -7 17 -15 27c-19 26 -66 52 -134 52c-84 0 -151 -39 -151 -96c0 -55 62 -85 129 -112
c89 -35 163 -64 163 -127c0 -53 -62 -93 -183 -113c65 -28 106 -59 106 -109c0 -58 -64 -107 -166 -107c-71 0 -125 30 -146 59c-12 16 -19 34 -19 46c0 15 8 23 18 23c9 0 16 -7 16 -17s-7 -19 -15 -20c2 -7 7 -16 15 -26c19 -25 68 -52 132 -52c94 0 150 44 150 93
c0 57 -62 87 -147 119c-81 31 -146 60 -146 120zM322 437l-11 4c-123 -15 -190 -52 -190 -104s61 -80 136 -108l33 -13c123 17 186 55 186 105c0 56 -70 82 -154 116z" />
    <glyph glyph-name="degree.tab" horiz-adv-x="530" 
d="M302 390c-94 0 -148 65 -148 144c0 102 80 202 199 202c94 0 149 -65 149 -145c0 -102 -81 -201 -200 -201zM302 401c111 0 187 94 187 190c0 74 -51 133 -136 133c-111 0 -187 -93 -187 -190c0 -73 51 -133 136 -133z" />
    <glyph glyph-name="percent.tab" horiz-adv-x="530" 
d="M41 -4l-10 8l259 329l261 330l9 -8l-260 -330zM176 385c-55 0 -88 41 -88 102c0 94 61 179 139 179c53 0 86 -41 86 -103c0 -93 -59 -178 -137 -178zM177 397c70 0 123 80 123 165c0 56 -28 92 -74 92c-71 0 -125 -80 -125 -166c0 -54 28 -91 76 -91zM364 -7
c-55 0 -88 40 -88 101c0 95 61 179 139 179c53 0 86 -40 86 -102c0 -94 -59 -178 -137 -178zM365 5c70 0 123 79 123 165c0 55 -27 92 -74 92c-70 0 -125 -81 -125 -166c0 -55 28 -91 76 -91z" />
    <glyph glyph-name="quotedbl.tab" horiz-adv-x="530" 
d="M208 521l39 203c1 11 8 14 14 14s11 -3 11 -10c0 -2 -1 -5 -2 -10l-57 -197h-5zM372 521l39 203c2 11 9 14 15 14s10 -3 10 -10c0 -2 0 -5 -2 -10l-57 -197h-5z" />
    <glyph glyph-name="quotesingle.tab" horiz-adv-x="265" 
d="M173 521l40 203c1 11 8 14 14 14s11 -3 11 -10c0 -2 -1 -5 -2 -10l-57 -197h-6z" />
    <glyph glyph-name="plus.tab" horiz-adv-x="530" 
d="M341 498l-37 -156h155l-3 -13h-155l-39 -169h-14l39 169h-154l3 13h154l37 156h14z" />
    <glyph glyph-name="minus.tab" horiz-adv-x="530" 
d="M133 329l3 13h323l-3 -13h-323z" />
    <glyph glyph-name="divide.tab" horiz-adv-x="530" 
d="M133 329l3 13h323l-3 -13h-323zM328 453c-10 0 -17 8 -17 17c0 10 7 18 17 18s17 -8 17 -18c0 -9 -7 -17 -17 -17zM263 180c-10 0 -17 8 -17 17c0 10 7 18 17 18s17 -8 17 -18c0 -9 -7 -17 -17 -17z" />
    <glyph glyph-name="equal.tab" horiz-adv-x="530" 
d="M143 398l3 12h316l-3 -12h-316zM105 240l3 13h316l-3 -13h-316z" />
    <glyph glyph-name="multiply.tab" horiz-adv-x="530" 
d="M170 495l115 -150l172 140l8 -12l-171 -138l118 -152l-11 -9l-118 152l-174 -141l-8 11l173 140l-115 149z" />
    <glyph glyph-name="less.tab" horiz-adv-x="530" 
d="M363 142l-219 182l1 5l302 164l7 -11l-289 -157l208 -173z" />
    <glyph glyph-name="greater.tab" horiz-adv-x="530" 
d="M220 505l219 -181v-5l-303 -165l-6 11l288 157l-207 174z" />
    <glyph glyph-name="plusminus.tab" horiz-adv-x="530" 
d="M342 551l-37 -157h155l-3 -13h-155l-39 -166h-13l39 166h-155l3 13h155l37 157h13zM78 139l2 13h323l-2 -13h-323z" />
    <glyph glyph-name="zerocircle" unicode="&#x24ea;" horiz-adv-x="1073" 
d="M536 792c270 0 479 -220 479 -492s-209 -492 -479 -492s-478 220 -478 492s208 492 478 492zM536 780c-263 0 -465 -215 -465 -480s202 -480 465 -480c264 0 466 215 466 480s-202 480 -466 480zM534 66c-94 0 -168 96 -168 241c0 146 75 241 170 241s170 -96 170 -241
c0 -146 -76 -241 -172 -241zM534 78c90 0 157 91 157 229c0 137 -67 229 -155 229c-90 0 -156 -91 -156 -229c0 -137 67 -229 154 -229z" />
    <glyph glyph-name="onecircle" unicode="&#x2460;" horiz-adv-x="1073" 
d="M536 792c270 0 479 -220 479 -492s-209 -492 -479 -492s-478 220 -478 492s208 492 478 492zM536 780c-263 0 -465 -215 -465 -480s202 -480 465 -480c264 0 466 215 466 480s-202 480 -466 480zM661 73h-236v12h111v444l-109 -28l-2 12l118 31h7v-459h111v-12z" />
    <glyph glyph-name="twocircle" unicode="&#x2461;" horiz-adv-x="1073" 
d="M536 792c270 0 479 -220 479 -492s-209 -492 -479 -492s-478 220 -478 492s208 492 478 492zM536 780c-263 0 -465 -215 -465 -480s202 -480 465 -480c264 0 466 215 466 480s-202 480 -466 480zM403 439c0 8 3 22 9 35c18 43 64 75 126 75c83 0 135 -52 135 -119
s-48 -110 -114 -159c-66 -48 -129 -103 -156 -186h268v96h14v-108h-294l-4 6c29 95 97 154 163 202c63 44 109 86 109 149c0 61 -47 106 -121 106c-54 0 -95 -24 -114 -64c-3 -7 -5 -15 -6 -21c10 -2 17 -9 17 -18s-6 -16 -15 -16c-10 0 -17 7 -17 22z" />
    <glyph glyph-name="threecircle" unicode="&#x2462;" horiz-adv-x="1073" 
d="M536 792c270 0 479 -220 479 -492s-209 -492 -479 -492s-478 220 -478 492s208 492 478 492zM536 780c-263 0 -465 -215 -465 -480s202 -480 465 -480c264 0 466 215 466 480s-202 480 -466 480zM396 155c0 14 6 21 16 21c8 0 15 -7 15 -15s-5 -16 -16 -18
c2 -7 7 -18 15 -26c21 -24 58 -39 105 -39c81 0 131 52 131 116c0 51 -30 85 -79 103c-23 9 -51 12 -80 12h-10v13h11c32 0 59 6 82 19c42 18 66 51 66 95c0 52 -42 98 -117 98c-48 0 -82 -18 -101 -44c-6 -8 -10 -17 -12 -24c10 -2 16 -9 16 -17c0 -9 -7 -16 -15 -16
c-9 0 -16 8 -16 22c0 12 6 27 15 40c22 30 60 51 113 51c83 0 131 -51 131 -110c0 -48 -27 -85 -74 -105c-14 -7 -25 -11 -42 -14c15 -2 27 -5 41 -10c53 -20 85 -58 85 -113c0 -73 -58 -128 -146 -128c-52 0 -94 18 -118 47c-11 13 -16 29 -16 42z" />
    <glyph glyph-name="fourcircle" unicode="&#x2463;" horiz-adv-x="1073" 
d="M536 792c270 0 479 -220 479 -492s-209 -492 -479 -492s-478 220 -478 492s208 492 478 492zM536 780c-263 0 -465 -215 -465 -480s202 -480 465 -480c264 0 466 215 466 480s-202 480 -466 480zM458 73v12h108v136h-229l-3 5l244 324l11 -7l-235 -310h212v154l14 6v-160
h104v-12h-104v-136h91v-12h-213z" />
    <glyph glyph-name="fivecircle" unicode="&#x2464;" horiz-adv-x="1073" 
d="M536 792c270 0 479 -220 479 -492s-209 -492 -479 -492s-478 220 -478 492s208 492 478 492zM536 780c-263 0 -465 -215 -465 -480s202 -480 465 -480c264 0 466 215 466 480s-202 480 -466 480zM524 67c-73 0 -130 39 -130 79c0 11 5 20 15 20c9 0 14 -7 14 -15
c0 -7 -4 -15 -13 -17c10 -29 56 -55 114 -55c76 0 136 54 136 134c0 82 -55 130 -139 130c-38 0 -73 -9 -101 -23l-7 4l23 217h212v-13h-201l-20 -192c26 12 57 19 95 19c89 0 152 -50 152 -142c0 -87 -67 -146 -150 -146z" />
    <glyph glyph-name="sixcircle" unicode="&#x2465;" horiz-adv-x="1073" 
d="M536 792c270 0 479 -220 479 -492s-209 -492 -479 -492s-478 220 -478 492s208 492 478 492zM536 780c-263 0 -465 -215 -465 -480s202 -480 465 -480c264 0 466 215 466 480s-202 480 -466 480zM646 459c-8 0 -15 7 -15 15c0 7 4 14 12 17c-2 6 -8 14 -14 19
c-15 14 -41 25 -74 25c-85 0 -160 -81 -161 -268v-17c14 61 69 106 142 106c88 0 148 -61 148 -143s-64 -148 -148 -148c-45 0 -81 16 -107 43c-38 38 -48 93 -48 159c0 196 83 280 175 280c36 0 65 -12 82 -28c16 -12 24 -28 24 -41c0 -12 -7 -19 -16 -19zM399 215
c0 -31 11 -70 39 -99c25 -24 57 -39 98 -39c76 0 134 60 134 136c0 75 -54 131 -134 131c-79 0 -137 -57 -137 -129z" />
    <glyph glyph-name="sevencircle" unicode="&#x2466;" horiz-adv-x="1073" 
d="M536 792c270 0 479 -220 479 -492s-209 -492 -479 -492s-478 220 -478 492s208 492 478 492zM536 780c-263 0 -465 -215 -465 -480s202 -480 465 -480c264 0 466 215 466 480s-202 480 -466 480zM500 62h-14l202 455h-269v-90h-14v102h297l3 -4z" />
    <glyph glyph-name="eightcircle" unicode="&#x2467;" horiz-adv-x="1073" 
d="M536 792c270 0 479 -220 479 -492s-209 -492 -479 -492s-478 220 -478 492s208 492 478 492zM536 780c-263 0 -465 -215 -465 -480s202 -480 465 -480c264 0 466 215 466 480s-202 480 -466 480zM536 67c-84 0 -147 54 -147 128c0 60 48 109 110 120
c-59 13 -101 56 -101 112c0 68 59 120 138 120c80 0 138 -52 138 -120c0 -56 -41 -99 -101 -112c64 -11 111 -60 111 -120c0 -74 -63 -128 -148 -128zM536 321c71 0 124 45 124 106c0 60 -52 108 -124 108s-124 -48 -124 -108c0 -61 54 -106 124 -106zM536 79
c77 0 134 48 134 116c0 65 -59 114 -134 114s-133 -49 -133 -114c0 -67 57 -116 133 -116z" />
    <glyph glyph-name="ninecircle" unicode="&#x2468;" horiz-adv-x="1073" 
d="M536 792c270 0 479 -220 479 -492s-209 -492 -479 -492s-478 220 -478 492s208 492 478 492zM536 780c-263 0 -465 -215 -465 -480s202 -480 465 -480c264 0 466 215 466 480s-202 480 -466 480zM412 134c0 13 5 20 15 20c8 0 14 -7 14 -15c0 -7 -3 -14 -11 -17
c2 -6 7 -14 15 -20c17 -15 42 -25 76 -25c84 0 160 79 160 266v17c-13 -59 -67 -106 -143 -106c-88 0 -147 61 -147 144s64 149 147 149c45 0 81 -16 107 -42c39 -38 49 -95 49 -161c0 -200 -82 -279 -174 -279c-37 0 -67 13 -86 30c-15 12 -22 28 -22 39zM676 395
c0 37 -14 75 -41 102c-24 24 -56 38 -97 38c-75 0 -133 -60 -133 -137c0 -75 54 -131 133 -131c80 0 138 57 138 128z" />
    <glyph glyph-name="space" unicode=" " horiz-adv-x="193" 
 />
    <glyph glyph-name="nbspace" unicode="&#xa0;" horiz-adv-x="193" 
 />
    <glyph glyph-name="emspace" unicode="&#x2003;" horiz-adv-x="1000" 
 />
    <glyph glyph-name="enspace" unicode="&#x2002;" horiz-adv-x="500" 
 />
    <glyph glyph-name="threeperemspace" unicode="&#x2004;" horiz-adv-x="333" 
 />
    <glyph glyph-name="fourperemspace" unicode="&#x2005;" horiz-adv-x="250" 
 />
    <glyph glyph-name="thinspace" unicode="&#x2009;" horiz-adv-x="133" 
 />
    <glyph glyph-name="hairspace" unicode="&#x200a;" horiz-adv-x="75" 
 />
    <glyph glyph-name="space.tab" horiz-adv-x="265" 
 />
    <glyph glyph-name="figurespace" unicode="&#x2007;" horiz-adv-x="530" 
 />
    <glyph glyph-name=".null" horiz-adv-x="0" 
 />
    <glyph glyph-name="i.dot" horiz-adv-x="256" 
d="M192 530c-10 0 -17 8 -17 18c0 9 7 17 17 17s17 -8 17 -17c0 -10 -7 -18 -17 -18zM129 -6c-35 0 -57 23 -57 58c0 20 6 41 15 73l80 271h-89l3 12h102l-82 -285c-10 -32 -15 -53 -15 -72c0 -27 17 -45 44 -45c28 0 47 21 68 76l11 -3c-23 -61 -44 -85 -80 -85z" />
    <glyph glyph-name="fraction" unicode="&#x2044;" horiz-adv-x="467" 
d="M-29 -5l-8 7l268 320c103 122 228 272 267 319l8 -6c-40 -48 -165 -198 -268 -320c-103 -123 -228 -272 -267 -320z" />
    <glyph glyph-name="fraction" unicode="&#x2215;" horiz-adv-x="467" 
d="M-29 -5l-8 7l268 320c103 122 228 272 267 319l8 -6c-40 -48 -165 -198 -268 -320c-103 -123 -228 -272 -267 -320z" />
    <glyph glyph-name="zero.num" 
d="M180 277c-66 0 -103 54 -103 133c0 122 62 239 157 239c64 0 103 -54 103 -134c0 -122 -64 -238 -157 -238zM180 287c86 0 144 114 144 228c0 73 -33 123 -91 123c-86 0 -143 -113 -143 -227c0 -73 32 -124 90 -124z" />
    <glyph glyph-name="one.num" 
d="M72 280l2 11h103l81 341l-115 -35v12l124 38l6 -3l-83 -353h101l-3 -11h-216z" />
    <glyph glyph-name="two.num" 
d="M55 280l-3 6c32 88 107 132 174 168c55 28 106 62 106 111c0 42 -35 72 -88 72c-61 0 -104 -36 -109 -65c9 -1 15 -8 15 -15c0 -10 -6 -15 -14 -15s-14 7 -14 22c0 37 49 84 122 84c61 0 101 -34 101 -83c0 -54 -53 -88 -113 -120c-59 -32 -134 -73 -164 -154h209l20 82
h11l-21 -93h-232z" />
    <glyph glyph-name="three.num" 
d="M181 277c-63 0 -112 38 -112 77c0 14 6 23 15 23c8 0 14 -6 14 -15c0 -7 -7 -15 -17 -15c6 -30 47 -60 100 -60c71 0 118 44 118 96c0 45 -40 80 -94 80h-22l2 11h19c71 0 124 41 124 90c0 42 -37 73 -95 73c-50 0 -87 -26 -92 -50c10 0 15 -7 15 -14
c0 -10 -6 -14 -13 -14c-9 0 -15 7 -15 22c0 32 43 67 107 67c65 0 106 -37 106 -83c0 -49 -45 -89 -107 -97c47 -8 78 -43 78 -85c0 -59 -54 -106 -131 -106z" />
    <glyph glyph-name="four.num" 
d="M217 290l25 106h-181l-2 6l247 246l8 -8l-236 -234h166l26 108l14 7l-27 -114h71l-2 -11h-71l-25 -106h58l-2 -10h-140l3 10h68z" />
    <glyph glyph-name="five.num" 
d="M161 275c-54 0 -97 33 -97 64c0 12 5 20 14 20c7 0 13 -6 13 -13s-5 -13 -13 -14c6 -22 40 -47 84 -47c79 0 139 56 139 122c0 46 -33 79 -93 79c-35 0 -69 -8 -91 -18l-7 5l56 167h183l-2 -11h-173l-50 -147c19 7 50 15 86 15c66 0 104 -37 104 -89
c0 -73 -65 -133 -153 -133z" />
    <glyph glyph-name="six.num" 
d="M112 304c-22 21 -32 49 -32 87c0 60 29 158 85 212c28 26 61 44 98 44c52 0 80 -31 80 -54c0 -16 -8 -23 -16 -23c-7 0 -12 4 -12 13c0 7 5 14 13 16c-4 18 -25 38 -65 38c-33 0 -64 -17 -90 -42c-48 -48 -76 -130 -81 -187c17 51 68 91 125 91c60 0 100 -39 100 -94
c0 -66 -60 -129 -131 -129c-31 0 -56 10 -74 28zM186 287c65 0 118 57 118 118c0 49 -35 83 -88 83c-64 0 -121 -55 -121 -115c0 -25 10 -44 25 -60c16 -17 39 -26 66 -26z" />
    <glyph glyph-name="seven.num" 
d="M118 280l239 351h-209l-15 -67h-13l18 78h232l4 -6l-242 -356h-14z" />
    <glyph glyph-name="eight.num" 
d="M186 277c-66 0 -117 39 -117 95c0 55 57 99 116 101c-34 10 -67 39 -67 80c0 52 55 96 123 96c65 0 109 -40 109 -86c0 -53 -48 -88 -106 -96c41 -13 73 -43 73 -87c0 -61 -61 -103 -131 -103zM225 474c60 0 112 39 112 88c0 40 -39 76 -97 76c-59 0 -109 -38 -109 -86
c0 -45 46 -78 94 -78zM186 287c61 0 119 38 119 93c0 49 -46 85 -107 85c-62 0 -116 -42 -116 -92c0 -51 45 -86 104 -86z" />
    <glyph glyph-name="nine.num" 
d="M107 518c0 67 60 129 131 129c31 0 56 -10 74 -28c22 -21 32 -49 32 -87c0 -60 -29 -157 -85 -211c-28 -27 -61 -45 -98 -45c-52 0 -80 32 -80 55c0 15 8 23 16 23c7 0 12 -5 12 -13s-5 -15 -13 -17c4 -17 25 -37 65 -37c33 0 64 17 90 42c47 46 75 128 80 185
c-17 -51 -67 -89 -124 -89c-60 0 -100 39 -100 93zM238 636c-65 0 -118 -57 -118 -117c0 -49 35 -84 88 -84c64 0 121 55 121 116c0 24 -10 44 -25 60c-17 16 -39 25 -66 25z" />
    <glyph glyph-name="zero.den" 
d="M115 -3c-66 0 -103 54 -103 133c0 122 62 239 157 239c64 0 103 -54 103 -134c0 -122 -64 -238 -157 -238zM115 7c86 0 144 114 144 228c0 73 -33 123 -91 123c-86 0 -143 -113 -143 -227c0 -73 32 -124 90 -124z" />
    <glyph glyph-name="one.den" 
d="M7 0l2 11h103l81 341l-115 -35v12l124 38l6 -3l-83 -353h101l-3 -11h-216z" />
    <glyph glyph-name="two.den" 
d="M-10 0l-3 6c32 88 107 132 174 168c55 28 106 62 106 111c0 42 -35 72 -88 72c-61 0 -104 -36 -109 -65c9 -1 15 -8 15 -15c0 -10 -6 -15 -14 -15s-14 7 -14 22c0 37 49 84 122 84c61 0 101 -34 101 -83c0 -54 -53 -88 -113 -120c-59 -32 -134 -73 -164 -154h209l20 82
h11l-21 -93h-232z" />
    <glyph glyph-name="three.den" 
d="M116 -3c-63 0 -112 38 -112 77c0 14 6 23 15 23c8 0 14 -6 14 -15c0 -7 -7 -15 -17 -15c6 -30 47 -60 100 -60c71 0 118 44 118 96c0 45 -40 80 -94 80h-22l2 11h19c71 0 124 41 124 90c0 42 -37 73 -95 73c-50 0 -87 -26 -92 -50c10 0 15 -7 15 -14
c0 -10 -6 -14 -13 -14c-9 0 -15 7 -15 22c0 32 43 67 107 67c65 0 106 -37 106 -83c0 -49 -45 -89 -107 -97c47 -8 78 -43 78 -85c0 -59 -54 -106 -131 -106z" />
    <glyph glyph-name="four.den" 
d="M152 10l25 106h-181l-2 6l247 246l8 -8l-236 -234h166l26 108l14 7l-27 -114h71l-2 -11h-71l-25 -106h58l-2 -10h-140l3 10h68z" />
    <glyph glyph-name="five.den" 
d="M96 -5c-54 0 -97 33 -97 64c0 12 5 20 14 20c7 0 13 -6 13 -13s-5 -13 -13 -14c6 -22 40 -47 84 -47c79 0 139 56 139 122c0 46 -33 79 -93 79c-35 0 -69 -8 -91 -18l-7 5l56 167h183l-2 -11h-173l-50 -147c19 7 50 15 86 15c66 0 104 -37 104 -89
c0 -73 -65 -133 -153 -133z" />
    <glyph glyph-name="six.den" 
d="M47 24c-22 21 -32 49 -32 87c0 60 29 158 85 212c28 26 61 44 98 44c52 0 80 -31 80 -54c0 -16 -8 -23 -16 -23c-7 0 -12 4 -12 13c0 7 5 14 13 16c-4 18 -25 38 -65 38c-33 0 -64 -17 -90 -42c-48 -48 -76 -130 -81 -187c17 51 68 91 125 91c60 0 100 -39 100 -94
c0 -66 -60 -129 -131 -129c-31 0 -56 10 -74 28zM121 7c65 0 118 57 118 118c0 49 -35 83 -88 83c-64 0 -121 -55 -121 -115c0 -25 10 -44 25 -60c16 -17 39 -26 66 -26z" />
    <glyph glyph-name="seven.den" 
d="M53 0l239 351h-209l-15 -67h-13l18 78h232l4 -6l-242 -356h-14z" />
    <glyph glyph-name="eight.den" 
d="M121 -3c-66 0 -117 39 -117 95c0 55 57 99 116 101c-34 10 -67 39 -67 80c0 52 55 96 123 96c65 0 109 -40 109 -86c0 -53 -48 -88 -106 -96c41 -13 73 -43 73 -87c0 -61 -61 -103 -131 -103zM160 194c60 0 112 39 112 88c0 40 -39 76 -97 76c-59 0 -109 -38 -109 -86
c0 -45 46 -78 94 -78zM121 7c61 0 119 38 119 93c0 49 -46 85 -107 85c-62 0 -116 -42 -116 -92c0 -51 45 -86 104 -86z" />
    <glyph glyph-name="nine.den" 
d="M42 238c0 67 60 129 131 129c31 0 56 -10 74 -28c22 -21 32 -49 32 -87c0 -60 -29 -157 -85 -211c-28 -27 -61 -45 -98 -45c-52 0 -80 32 -80 55c0 15 8 23 16 23c7 0 12 -5 12 -13s-5 -15 -13 -17c4 -17 25 -37 65 -37c33 0 64 17 90 42c47 46 75 128 80 185
c-17 -51 -67 -89 -124 -89c-60 0 -100 39 -100 93zM173 356c-65 0 -118 -57 -118 -117c0 -49 35 -84 88 -84c64 0 121 55 121 116c0 24 -10 44 -25 60c-17 16 -39 25 -66 25z" />
    <glyph glyph-name="acute" unicode="&#xb4;" horiz-adv-x="503" 
d="M251 493l-3 5l129 86c6 4 12 7 16 7c6 0 11 -6 11 -11s-5 -10 -14 -14z" />
    <glyph glyph-name="hungarumlaut" unicode="&#x2dd;" horiz-adv-x="503" 
d="M154 491l-3 6l123 86c7 5 12 6 16 6c5 0 9 -5 9 -11s-5 -10 -13 -14zM308 492l-4 6l126 84c6 4 11 5 15 5c6 0 10 -4 10 -10s-5 -10 -14 -14z" />
    <glyph glyph-name="caron.alt" horiz-adv-x="503" 
d="M224 576l-5 5c18 24 30 46 37 70c7 22 8 49 9 61c1 9 6 13 12 13c7 0 11 -4 11 -12c0 -14 -8 -40 -18 -63c-12 -27 -27 -50 -46 -74z" />
    <glyph glyph-name="grave" unicode="`" horiz-adv-x="503" 
d="M425 493l-121 80c-7 4 -11 9 -11 14s4 10 9 10s8 0 15 -7l112 -92z" />
    <glyph glyph-name="circumflex" unicode="&#x2c6;" horiz-adv-x="503" 
d="M200 486l-5 6l150 105l94 -105l-6 -5l-91 87z" />
    <glyph glyph-name="caron" unicode="&#x2c7;" horiz-adv-x="503" 
d="M312 487l-94 105l6 5l91 -87l142 88l5 -6z" />
    <glyph glyph-name="breve" unicode="&#x2d8;" horiz-adv-x="503" 
d="M317 492c-60 0 -96 41 -108 98l11 4c13 -53 46 -86 99 -86c56 0 103 35 131 84l9 -5c-27 -53 -80 -95 -142 -95z" />
    <glyph glyph-name="tilde" unicode="&#x2dc;" horiz-adv-x="503" 
d="M394 501c-26 0 -44 11 -73 33c-30 22 -46 31 -65 31c-30 0 -48 -20 -65 -61l-9 4c16 44 40 71 75 71c24 0 43 -11 73 -33c31 -23 45 -30 66 -30c32 0 49 21 67 62l10 -4c-17 -44 -41 -73 -79 -73z" />
    <glyph glyph-name="macron" unicode="&#xaf;" horiz-adv-x="503" 
d="M180 523l3 14h260l-3 -14h-260z" />
    <glyph glyph-name="macron" unicode="&#x2c9;" horiz-adv-x="503" 
d="M180 523l3 14h260l-3 -14h-260z" />
    <glyph glyph-name="dieresis" unicode="&#xa8;" horiz-adv-x="503" 
d="M371 511c-11 0 -19 8 -19 18c0 11 8 19 19 19c10 0 18 -8 18 -19c0 -10 -8 -18 -18 -18zM264 511c-10 0 -18 8 -18 18c0 11 8 19 18 19c11 0 19 -8 19 -19c0 -10 -8 -18 -19 -18z" />
    <glyph glyph-name="dotaccent" unicode="&#x2d9;" horiz-adv-x="503" 
d="M329 527c-11 0 -19 8 -19 19s8 20 19 20s19 -9 19 -20s-8 -19 -19 -19z" />
    <glyph glyph-name="ring" unicode="&#x2da;" horiz-adv-x="503" 
d="M328 491c-39 0 -62 30 -62 63c0 46 34 90 80 90c40 0 63 -30 63 -63c0 -46 -35 -90 -81 -90zM329 502c38 0 66 39 66 79c0 28 -19 51 -49 51c-38 0 -66 -38 -66 -78c0 -28 19 -52 49 -52z" />
    <glyph glyph-name="commaaccent" unicode="&#x326;" horiz-adv-x="196" 
d="M39 -195l-4 7c39 25 64 55 68 88c-14 -2 -24 8 -24 20c0 9 7 17 17 17c14 0 22 -12 22 -27c0 -37 -33 -80 -79 -105z" />
    <glyph glyph-name="cedilla" unicode="&#xb8;" horiz-adv-x="503" 
d="M177 -200c-37 0 -72 12 -100 29l6 10c27 -15 60 -27 94 -27c47 0 71 26 71 56c0 29 -23 53 -79 51l-2 3l36 83l10 -4l-29 -71c56 -3 78 -30 78 -61c0 -38 -30 -69 -85 -69z" />
    <glyph glyph-name="ogonek" unicode="&#x2db;" horiz-adv-x="503" 
d="M247 10l13 -1c-71 -52 -106 -97 -106 -142c0 -35 22 -56 57 -56c19 0 36 4 49 9l-4 -12c-11 -5 -27 -9 -47 -9c-42 0 -69 24 -69 66c0 48 36 96 107 145z" />
    <glyph glyph-name="softhyphen" unicode="&#xad;" horiz-adv-x="221" 
d="M43 261l3 14h150l-3 -14h-150z" />
    <glyph glyph-name="HT" unicode="&#x9;" horiz-adv-x="193" 
 />
    <glyph glyph-name="CR" unicode="&#xd;" horiz-adv-x="193" 
 />
    </font>
</defs>
</svg>
