<?xml version="1.0" standalone="no"?>
<!DOCTYPE svg PUBLIC "-//W3C//DTD SVG 1.1//EN" "http://www.w3.org/Graphics/SVG/1.1/DTD/svg11.dtd" >
<svg>
<metadata>
Created by FontForge 20110222 at Tue Aug 21 22:24:23 2012
 By Stefan Warting
Copyright (C) 2000, 2007 Hoefler &#38; Frere-Jones. http://www.typography.com
</metadata>
<defs>
<font id="Archer-ExtraLightItalic" horiz-adv-x="0" >
  <font-face 
    font-family="Archer Extra Light"
    font-weight="285"
    font-style="italic"
    font-stretch="normal"
    units-per-em="1000"
    panose-1="0 0 0 0 0 0 0 0 0 0"
    ascent="800"
    descent="-200"
    x-height="412"
    cap-height="658"
    bbox="-104 -222 1019 982"
    underline-thickness="50"
    underline-position="-50"
    slope="-12"
    stemh="20"
    stemv="24"
    unicode-range="U+0020-FB04"
  />
<missing-glyph horiz-adv-x="506" 
d="M3 -200v1000h500v-1000h-500zM74 750l179 -390l179 390h-358zM53 -76l172 376l-172 376v-752zM453 676l-172 -376l172 -376v752zM253 240l-179 -390h358z" />
    <glyph glyph-name="f_b" unicode="fb" horiz-adv-x="752" 
d="M58 0l91 392h-79l4 20h79l47 199c6 27 16 51 31 71c25 34 61 55 109 55c50 0 89 -27 104 -72l25 65h14l-95 -411c35 56 90 99 163 99c91 0 155 -62 155 -172c0 -128 -83 -252 -214 -252c-79 0 -138 48 -151 126l-27 -120h-24l90 392h-207l-91 -392h-24zM490 14
c117 0 191 118 191 231c0 96 -50 153 -132 153c-115 0 -196 -131 -196 -235c0 -89 55 -149 137 -149zM408 625c0 13 7 22 17 26c-11 40 -43 64 -86 64c-36 0 -65 -15 -85 -40c-15 -18 -24 -41 -30 -66l-46 -197h207l40 173l3 16c-11 2 -20 12 -20 24z" />
    <glyph glyph-name="f_f" unicode="ff" horiz-adv-x="517" 
d="M355 656c-18 0 -28 11 -28 33v3h-2c-21 0 -43 -8 -63 -27c-26 -26 -41 -62 -54 -121l-31 -132h213l37 158c15 66 32 102 61 131c24 24 56 36 88 36c34 0 52 -18 52 -36c0 -13 -10 -23 -23 -23c-18 0 -29 11 -29 33v4h-3c-24 0 -48 -8 -68 -29c-26 -26 -42 -61 -55 -120
l-36 -154h113l-4 -20h-113l-91 -392h-24l91 392h-213l-91 -392h-24l91 392h-79l4 20h79l32 136c15 67 31 103 61 132c23 23 54 35 84 35s48 -17 48 -36c0 -13 -9 -23 -23 -23z" />
    <glyph glyph-name="f_h" unicode="fh" horiz-adv-x="751" 
d="M290 0l90 392h-207l-91 -392h-24l91 392h-79l4 20h79l47 199c6 27 16 51 31 71c25 34 61 55 109 55c50 0 89 -27 104 -72l25 65h14l-102 -439c36 67 92 127 170 127c63 0 108 -37 108 -99c0 -23 -6 -58 -15 -89l-34 -115c-9 -28 -13 -48 -13 -63c0 -23 15 -38 38 -38
c25 0 43 17 65 71l17 -5c-24 -64 -47 -86 -83 -86c-38 0 -61 22 -61 58c0 18 5 38 14 67l33 115c9 32 15 64 15 84c0 52 -32 80 -86 80c-85 0 -164 -93 -194 -221l-41 -177h-24zM408 625c0 13 7 22 17 26c-11 40 -43 64 -86 64c-36 0 -65 -15 -85 -40
c-15 -18 -24 -41 -30 -66l-46 -197h207l40 173l3 16c-11 2 -20 12 -20 24z" />
    <glyph glyph-name="fi" unicode="fi" horiz-adv-x="492" 
d="M383 392h-210l-91 -392h-24l90 392h-78l4 20h79l36 154c8 34 18 63 32 88c29 54 72 83 127 83c57 0 90 -31 90 -59c0 -15 -9 -25 -23 -25c-15 0 -28 8 -28 32c0 5 1 12 4 17c-10 7 -24 13 -43 13c-46 0 -81 -24 -105 -67c-13 -24 -23 -52 -31 -86l-35 -150h236l-86 -297
c-8 -28 -12 -48 -12 -64c0 -22 14 -37 39 -37s43 17 64 71l17 -5c-23 -64 -46 -86 -82 -86c-38 0 -61 22 -61 59c0 18 4 37 13 66z" />
    <glyph glyph-name="f_j" unicode="fj" horiz-adv-x="451" 
d="M411 412l-93 -409c-19 -82 -39 -130 -68 -163c-23 -25 -53 -40 -82 -40c-25 0 -43 13 -43 31c0 12 10 22 23 22c17 0 27 -15 28 -32c25 3 44 16 61 36c24 32 43 82 58 151l88 384h-210l-91 -392h-24l90 392h-78l4 20h79l36 154c8 34 18 63 32 88c29 54 72 83 127 83
c57 0 90 -31 90 -59c0 -15 -9 -25 -23 -25c-15 0 -28 8 -28 32c0 5 1 12 4 17c-10 7 -24 13 -43 13c-46 0 -81 -24 -105 -67c-13 -24 -23 -52 -31 -86l-35 -150h234z" />
    <glyph glyph-name="f_k" unicode="fk" horiz-adv-x="690" 
d="M290 0l90 392h-207l-91 -392h-24l91 392h-79l4 20h79l47 199c6 27 16 51 31 71c25 34 61 55 109 55c50 0 89 -27 104 -72l25 65h14l-126 -538c133 58 241 130 259 171c-12 6 -19 19 -19 29c0 16 12 26 25 26c14 0 26 -13 26 -32c0 -52 -96 -117 -187 -166l52 -125
c14 -34 25 -54 34 -66c10 -12 19 -15 31 -15c21 0 40 21 57 83l17 -5c-16 -66 -39 -98 -76 -98c-20 0 -35 5 -49 24c-11 14 -23 37 -36 69l-50 123c-32 -16 -64 -30 -89 -40l-38 -170h-24zM408 625c0 13 7 22 17 26c-11 40 -43 64 -86 64c-36 0 -65 -15 -85 -40
c-15 -18 -24 -41 -30 -66l-46 -197h207l40 173l3 16c-11 2 -20 12 -20 24z" />
    <glyph glyph-name="fl" unicode="fl" horiz-adv-x="487" 
d="M74 412h79l47 199c6 27 16 51 31 71c25 34 61 55 109 55c50 0 89 -27 104 -72l25 65h14l-142 -616c-9 -36 -11 -51 -11 -63c0 -24 15 -37 38 -37c25 0 43 17 65 71l16 -5c-23 -64 -46 -86 -82 -86s-61 20 -61 57c0 15 3 31 11 68l63 273h-207l-91 -392h-24l91 392h-79z
M224 609l-46 -197h207l40 173l3 16c-11 2 -20 12 -20 24c0 13 7 22 17 26c-11 40 -43 64 -86 64c-36 0 -65 -15 -85 -40c-15 -18 -24 -41 -30 -66z" />
    <glyph glyph-name="f_f_b" unicode="ffb" horiz-adv-x="989" 
d="M74 412h79l43 181c6 25 16 48 30 68c24 33 61 54 109 54c37 0 79 -14 79 -48c0 -13 -9 -23 -22 -23c-15 0 -28 9 -28 33c0 3 0 7 1 10c-8 3 -19 6 -32 6c-36 0 -64 -15 -84 -40c-14 -16 -23 -38 -29 -63l-42 -178h212l47 199c6 30 18 57 35 78c25 29 60 48 105 48
c50 0 89 -27 104 -72l25 65h14l-95 -411c35 56 90 99 163 99c91 0 155 -62 155 -172c0 -128 -83 -252 -214 -252c-78 0 -138 48 -151 125l-27 -119h-24l90 392h-207l-91 -392h-24l91 392h-212l-92 -392h-24l91 392h-79zM727 14c117 0 191 118 191 231c0 96 -50 153 -132 153
c-115 0 -196 -131 -196 -235c0 -89 55 -149 137 -149zM645 625c0 13 7 22 17 26c-11 40 -43 64 -86 64c-35 0 -64 -14 -84 -38c-15 -18 -26 -42 -32 -68l-46 -197h208l40 173l3 16c-11 2 -20 12 -20 24z" />
    <glyph glyph-name="f_f_h" unicode="ffh" horiz-adv-x="988" 
d="M527 0l90 392h-207l-91 -392h-24l91 392h-212l-92 -392h-24l91 392h-79l4 20h79l43 181c6 25 16 48 30 68c24 33 61 54 109 54c37 0 79 -14 79 -48c0 -13 -9 -23 -22 -23c-15 0 -28 9 -28 33c0 3 0 7 1 10c-8 3 -19 6 -32 6c-36 0 -64 -15 -84 -40
c-14 -16 -23 -38 -29 -63l-42 -178h212l47 199c6 30 18 57 35 78c25 29 60 48 105 48c50 0 89 -27 104 -72l25 65h14l-102 -439c36 67 92 127 170 127c63 0 108 -37 108 -99c0 -23 -6 -58 -15 -89l-34 -115c-9 -28 -13 -48 -13 -63c0 -23 15 -38 38 -38c25 0 43 17 65 71
l17 -5c-24 -64 -47 -86 -83 -86c-38 0 -61 22 -61 58c0 18 5 38 13 67l34 115c9 32 15 64 15 84c0 52 -32 80 -86 80c-85 0 -164 -93 -194 -221l-41 -177h-24zM645 625c0 13 7 22 17 26c-11 40 -43 64 -86 64c-35 0 -64 -14 -84 -38c-15 -18 -26 -42 -32 -68l-46 -197h208
l40 173l3 16c-11 2 -20 12 -20 24z" />
    <glyph glyph-name="f_f_i" unicode="ffi" horiz-adv-x="729" 
d="M295 0l90 392h-212l-91 -392h-24l91 392h-79l4 20h79l40 169c11 45 29 80 58 104c23 20 54 30 85 30c34 0 74 -12 74 -45c0 -12 -8 -22 -22 -22c-15 0 -29 9 -29 33v9c-6 2 -14 3 -24 3c-28 0 -53 -10 -73 -28c-21 -20 -36 -49 -45 -86l-39 -167h212l36 154
c9 38 20 69 36 96c28 49 71 75 123 75c57 0 90 -31 90 -59c0 -15 -9 -25 -23 -25c-15 0 -28 8 -28 32c0 5 1 12 4 17c-10 8 -25 13 -43 13c-45 0 -79 -23 -103 -63c-14 -24 -25 -53 -33 -90l-35 -150h236l-86 -297c-8 -28 -12 -48 -12 -64c0 -22 14 -37 38 -37
c26 0 44 17 65 71l17 -5c-23 -64 -46 -86 -83 -86s-60 22 -60 59c0 18 4 37 13 66l78 273h-210l-91 -392h-24z" />
    <glyph glyph-name="f_f_j" unicode="ffj" horiz-adv-x="688" 
d="M58 0l91 392h-79l4 20h79l40 169c11 45 29 80 58 104c23 20 54 30 85 30c34 0 74 -12 74 -45c0 -12 -8 -22 -22 -22c-15 0 -29 9 -29 33v9c-6 2 -14 3 -24 3c-28 0 -53 -10 -73 -28c-21 -20 -36 -49 -45 -86l-39 -167h212l36 154c9 38 20 69 36 96c28 49 71 75 123 75
c57 0 90 -31 90 -59c0 -15 -9 -25 -23 -25c-15 0 -28 8 -28 32c0 5 1 12 4 17c-10 8 -25 13 -43 13c-45 0 -79 -23 -103 -63c-14 -24 -25 -53 -33 -90l-35 -150h234l-93 -409c-19 -82 -39 -130 -68 -163c-23 -25 -53 -40 -82 -40c-25 0 -43 13 -43 31c0 12 10 22 23 22
c17 0 27 -15 28 -32c25 3 44 16 61 36c24 32 42 82 58 151l88 384h-210l-91 -392h-24l90 392h-212l-91 -392h-24z" />
    <glyph glyph-name="f_f_k" unicode="ffk" horiz-adv-x="927" 
d="M527 0l90 392h-207l-91 -392h-24l91 392h-212l-92 -392h-24l91 392h-79l4 20h79l43 181c6 25 16 48 30 68c24 33 61 54 109 54c37 0 79 -14 79 -48c0 -13 -9 -23 -22 -23c-15 0 -28 9 -28 33c0 3 0 7 1 10c-8 3 -19 6 -32 6c-36 0 -64 -15 -84 -40
c-14 -16 -23 -38 -29 -63l-42 -178h212l47 199c6 30 18 57 35 78c25 29 60 48 105 48c50 0 89 -27 104 -72l25 65h14l-126 -538c133 58 241 130 259 171c-12 6 -19 19 -19 29c0 16 12 26 25 26c14 0 26 -13 26 -32c0 -52 -96 -117 -187 -166l52 -125c14 -34 25 -54 34 -66
c10 -12 19 -15 30 -15c22 0 40 21 58 83l17 -5c-16 -66 -39 -98 -76 -98c-20 0 -35 5 -49 24c-11 14 -23 37 -36 69l-50 123c-32 -16 -64 -30 -89 -40l-38 -170h-24zM645 625c0 13 7 22 17 26c-11 40 -43 64 -86 64c-35 0 -64 -14 -84 -38c-15 -18 -26 -42 -32 -68l-46 -197
h208l40 173l3 16c-11 2 -20 12 -20 24z" />
    <glyph glyph-name="f_f_l" unicode="ffl" horiz-adv-x="724" 
d="M70 392l4 20h79l43 181c6 25 16 48 30 68c24 33 61 54 109 54c37 0 79 -14 79 -48c0 -13 -9 -23 -22 -23c-15 0 -28 9 -28 33c0 3 0 7 1 10c-8 3 -19 6 -32 6c-36 0 -64 -15 -84 -40c-14 -16 -23 -38 -29 -63l-42 -178h212l47 199c6 30 18 57 35 78c25 29 60 48 105 48
c50 0 89 -27 104 -72l25 65h14l-142 -616c-9 -36 -11 -51 -11 -63c0 -24 15 -37 38 -37c24 0 43 17 65 71l16 -5c-23 -64 -47 -86 -82 -86c-36 0 -61 20 -61 57c0 15 3 31 11 68l63 273h-207l-91 -392h-24l91 392h-212l-92 -392h-24l91 392h-79zM460 609l-46 -197h208
l40 173l3 16c-11 2 -20 12 -20 24c0 13 7 22 17 26c-11 40 -43 64 -86 64c-35 0 -64 -14 -84 -38c-15 -18 -26 -42 -32 -68z" />
    <glyph glyph-name=".notdef" horiz-adv-x="506" 
d="M3 -200v1000h500v-1000h-500zM74 750l179 -390l179 390h-358zM53 -76l172 376l-172 376v-752zM453 676l-172 -376l172 -376v752zM253 240l-179 -390h358z" />
    <glyph glyph-name="A" unicode="A" horiz-adv-x="688" 
d="M-18 0l5 22h58l372 614h-92l5 22h231l-4 -22h-88l88 -614h69l-4 -22h-189l5 22h94l-32 228h-289l-137 -228h101l-5 -22h-188zM224 272h273l-52 367z" />
    <glyph glyph-name="B" unicode="B" horiz-adv-x="577" 
d="M1 0l5 22h90l141 614h-99l5 22h222c50 0 92 -8 126 -27c43 -24 70 -67 70 -123c0 -89 -69 -160 -188 -170c91 -16 141 -68 141 -145c0 -52 -20 -96 -55 -128c-29 -27 -68 -46 -114 -56c-29 -6 -61 -9 -98 -9h-246zM198 351h117c146 0 220 66 220 157c0 46 -21 84 -61 105
c-29 16 -67 23 -113 23h-98zM122 22h128c33 0 64 4 92 10c42 10 76 27 102 53c28 26 44 64 44 108c0 73 -56 136 -182 136h-113z" />
    <glyph glyph-name="C" unicode="C" horiz-adv-x="653" 
d="M345 -10c-171 0 -267 116 -267 282c0 187 146 395 362 395c136 0 208 -85 208 -152c0 -22 -14 -38 -30 -38s-26 10 -26 26c0 14 9 28 27 33c-7 47 -68 109 -181 109c-203 0 -334 -201 -334 -373c0 -146 87 -260 243 -260c75 0 158 36 222 97l15 -17
c-66 -63 -156 -102 -239 -102z" />
    <glyph glyph-name="D" unicode="D" horiz-adv-x="680" 
d="M1 0l5 22h90l141 614h-99l5 22h196c106 0 192 -29 249 -86c44 -44 71 -107 71 -185c0 -108 -38 -197 -109 -268c-75 -76 -194 -119 -338 -119h-211zM122 22h93c135 0 245 42 316 113c64 65 102 151 102 251c0 73 -24 132 -63 171c-53 52 -132 79 -234 79h-73z" />
    <glyph glyph-name="E" unicode="E" horiz-adv-x="560" 
d="M1 0l5 22h90l141 614h-99l5 22h451l-33 -140h-25l27 118h-300l-65 -288h235l-5 -23h-236l-70 -303h300l27 118h25l-32 -140h-441z" />
    <glyph glyph-name="F" unicode="F" horiz-adv-x="533" 
d="M1 0l5 22h90l141 614h-99l5 22h441l-33 -140h-25l27 118h-290l-68 -300h233l-5 -23h-234l-67 -291h103l-5 -22h-219z" />
    <glyph glyph-name="G" unicode="G" horiz-adv-x="686" 
d="M530 0l16 63c-60 -46 -139 -73 -212 -73c-168 0 -258 112 -258 263c0 196 151 414 376 414c83 0 143 -32 176 -66c26 -27 35 -55 35 -79c0 -22 -15 -38 -32 -38c-15 0 -26 12 -26 26c0 15 12 30 30 34c-3 13 -11 28 -27 45c-30 29 -86 56 -158 56
c-213 0 -348 -211 -348 -392c0 -132 80 -241 234 -241c71 0 148 27 217 80l45 180h-211l4 22h237l-73 -294h-25z" />
    <glyph glyph-name="H" unicode="H" horiz-adv-x="737" 
d="M1 0l5 22h90l141 614h-99l5 22h218l-5 -22h-93l-65 -286h408l65 286h-102l5 22h218l-5 -22h-89l-142 -614h99l-5 -22h-216l5 22h91l71 306h-408l-71 -306h101l-5 -22h-217z" />
    <glyph glyph-name="I" unicode="I" horiz-adv-x="312" 
d="M-2 0l5 22h98l141 614h-98l5 22h222l-4 -22h-99l-141 -614h98l-5 -22h-222z" />
    <glyph glyph-name="J" unicode="J" horiz-adv-x="519" 
d="M187 -9c-87 0 -158 58 -158 145c0 34 16 55 37 55c16 0 26 -11 26 -26c0 -18 -16 -30 -39 -30c-1 -66 50 -122 136 -122c60 0 103 26 132 71c27 40 46 97 61 166l89 386h-112l5 22h226l-4 -22h-89l-90 -389c-16 -72 -36 -132 -65 -175c-35 -52 -84 -81 -155 -81z" />
    <glyph glyph-name="K" unicode="K" horiz-adv-x="626" 
d="M622 636l-309 -266l173 -348h92l-5 -22h-104l-174 355l-120 -103l-53 -230h101l-5 -22h-217l5 22h90l141 614h-99l5 22h218l-5 -22h-93l-81 -351l406 351h-104l5 22h214l-5 -22h-76z" />
    <glyph glyph-name="L" unicode="L" horiz-adv-x="511" 
d="M1 0l5 22h90l141 614h-99l5 22h218l-5 -22h-93l-141 -614h274l28 124h25l-33 -146h-415z" />
    <glyph glyph-name="M" unicode="M" horiz-adv-x="823" 
d="M-9 0l4 22h96l163 614h-101l5 22h130l106 -522l348 522h121l-5 -22h-91l-119 -614h103l-5 -22h-212l5 22h84l115 591l-349 -524h-9l-107 526l-158 -593h93l-5 -22h-212z" />
    <glyph glyph-name="N" unicode="N" horiz-adv-x="730" 
d="M542 -3l-286 615l-135 -590h102l-5 -22h-217l5 22h90l141 614h-98l4 22h117l285 -612l135 590h-103l5 22h218l-5 -22h-90l-147 -639h-16z" />
    <glyph glyph-name="O" unicode="O" horiz-adv-x="719" 
d="M341 -9c-166 0 -264 124 -264 275c0 194 147 401 358 401c166 0 264 -124 264 -275c0 -194 -147 -401 -358 -401zM343 13c187 0 330 187 330 378c0 137 -82 254 -240 254c-186 0 -330 -187 -330 -378c0 -137 82 -254 240 -254z" />
    <glyph glyph-name="P" unicode="P" horiz-adv-x="533" 
d="M1 0l5 22h90l141 614h-103l4 22h206c29 0 57 -3 81 -10c81 -22 129 -85 129 -166c0 -132 -107 -223 -271 -223c-31 0 -82 2 -105 4l-56 -241h101l-5 -22h-217zM285 282c156 0 243 87 243 198c0 68 -38 124 -108 145c-24 7 -50 11 -80 11h-77l-80 -351c25 -2 71 -3 102 -3
z" />
    <glyph glyph-name="Q" unicode="Q" horiz-adv-x="720" 
d="M699 392c0 -188 -139 -389 -340 -400c36 -58 99 -112 184 -112c31 0 55 6 82 20l8 -21c-29 -14 -55 -22 -90 -22c-97 0 -171 66 -212 134c-160 5 -254 127 -254 275c0 194 147 401 358 401c166 0 264 -124 264 -275zM343 13c187 0 330 187 330 378
c0 137 -82 254 -240 254c-186 0 -330 -187 -330 -378c0 -137 82 -254 240 -254z" />
    <glyph glyph-name="Q.alt" horiz-adv-x="719" 
d="M341 -9c-166 0 -264 124 -264 275c0 194 147 401 358 401c166 0 264 -124 264 -275c0 -146 -83 -298 -213 -365l47 -128l-22 -8l-45 126c-38 -17 -80 -26 -125 -26zM343 13c41 0 79 9 115 25l-56 156l22 8l55 -154c116 63 194 202 194 343c0 137 -82 254 -240 254
c-186 0 -330 -187 -330 -378c0 -137 82 -254 240 -254z" />
    <glyph glyph-name="R" unicode="R" horiz-adv-x="578" 
d="M1 0l5 22h90l141 614h-99l5 22h192c85 0 146 -20 185 -59c27 -26 41 -64 41 -110c0 -101 -80 -180 -218 -195l124 -272h77l-5 -22h-90l-130 291h-25c-60 0 -81 0 -109 2l-63 -271h101l-5 -22h-217zM293 313c152 0 243 72 243 177c0 38 -11 71 -35 94
c-33 34 -88 52 -170 52h-68l-73 -321c24 -2 53 -2 103 -2z" />
    <glyph glyph-name="S" unicode="S" horiz-adv-x="504" 
d="M238 -9c-120 0 -206 76 -206 131c0 17 10 33 29 33c16 0 26 -12 26 -26s-8 -25 -21 -30c17 -41 86 -86 174 -86c101 0 171 60 171 143c0 74 -51 114 -135 172c-82 55 -135 102 -135 182c0 95 86 157 186 157c99 0 177 -60 177 -119c0 -20 -10 -34 -28 -34
c-14 0 -26 12 -26 27c0 12 8 24 22 30c-15 39 -69 74 -147 74c-86 0 -159 -51 -159 -134c0 -71 48 -111 131 -167c85 -57 139 -102 139 -186c0 -97 -76 -167 -198 -167z" />
    <glyph glyph-name="T" unicode="T" horiz-adv-x="596" 
d="M143 0l5 22h94l141 614h-217l-29 -125h-25l35 147h511l-35 -147h-25l29 125h-217l-142 -614h104l-4 -22h-225z" />
    <glyph glyph-name="U" unicode="U" horiz-adv-x="680" 
d="M314 -9c-109 0 -191 58 -191 173c0 31 6 67 14 102l85 370h-99l5 22h218l-5 -22h-94l-86 -373c-8 -35 -12 -65 -12 -96c0 -104 69 -154 167 -154c122 0 189 80 222 228l91 395h-103l5 22h218l-5 -22h-90l-92 -397c-37 -162 -109 -248 -248 -248z" />
    <glyph glyph-name="V" unicode="V" horiz-adv-x="670" 
d="M265 -14l-90 650h-72l5 22h190l-5 -22h-92l82 -609l359 609h-97l5 22h190l-5 -22h-65l-387 -650h-18z" />
    <glyph glyph-name="W" unicode="W" horiz-adv-x="944" 
d="M219 -15l-30 651h-82l5 22h199l-5 -22h-91l24 -603l283 529h16l53 -529l312 603h-91l5 22h199l-5 -22h-80l-343 -651h-17l-51 527l-283 -527h-18z" />
    <glyph glyph-name="X" unicode="X" horiz-adv-x="696" 
d="M-15 0l5 22h81l296 318l-136 296h-86l5 22h204l-5 -22h-91l125 -281l259 281h-90l5 22h204l-5 -22h-84l-279 -300l145 -314h88l-5 -22h-204l5 22h89l-134 299l-276 -299h93l-5 -22h-204z" />
    <glyph glyph-name="Y" unicode="Y" horiz-adv-x="627" 
d="M139 0l5 22h103l63 258l-131 356h-68l5 22h188l-5 -22h-93l121 -335l283 335h-91l5 22h188l-5 -22h-66l-306 -359l-62 -255h105l-5 -22h-234z" />
    <glyph glyph-name="Z" unicode="Z" horiz-adv-x="580" 
d="M3 0v12l583 624h-398l-27 -119h-25l32 141h459v-12l-583 -624h418l28 119h25l-33 -141h-479z" />
    <glyph glyph-name="a" unicode="a" horiz-adv-x="532" 
d="M193 -6c-83 0 -147 57 -147 163c0 133 88 261 214 261c73 0 132 -48 144 -127l30 121h24l-75 -302c-6 -26 -10 -44 -10 -58c0 -23 14 -38 37 -38c26 0 43 17 65 71l17 -5c-24 -64 -46 -86 -83 -86c-35 0 -57 24 -57 58c0 13 2 29 7 47c-36 -59 -91 -105 -166 -105z
M195 14c117 0 196 133 196 240c0 84 -54 144 -131 144c-111 0 -190 -120 -190 -239c0 -94 51 -145 125 -145z" />
    <glyph glyph-name="b" unicode="b" horiz-adv-x="506" 
d="M43 0l165 712h-84l4 20h109l-96 -413c36 55 90 99 163 99c92 0 155 -62 155 -172c0 -128 -82 -252 -213 -252c-79 0 -139 49 -152 128l-27 -122h-24zM243 14c117 0 191 118 191 231c0 96 -49 153 -131 153c-116 0 -197 -131 -197 -235c0 -89 56 -149 137 -149z" />
    <glyph glyph-name="c" unicode="c" horiz-adv-x="439" 
d="M213 -6c-90 0 -168 64 -168 175c0 135 101 249 221 249c91 0 142 -55 142 -105c0 -22 -11 -33 -24 -33s-22 9 -22 22c0 12 8 23 22 28c-9 35 -50 68 -119 68c-106 0 -196 -105 -196 -229c0 -98 65 -155 146 -155c50 0 92 17 137 52l-2 -25c-36 -27 -80 -47 -137 -47z" />
    <glyph glyph-name="d" unicode="d" horiz-adv-x="541" 
d="M47 165c0 129 82 253 213 253c76 0 137 -47 151 -124l97 418h-85l4 20h110l-142 -615c-9 -37 -11 -51 -11 -65c0 -23 14 -38 37 -38c26 0 43 17 64 71l17 -5c-23 -64 -45 -86 -82 -86c-35 0 -58 24 -58 58c0 14 2 30 7 49c-35 -59 -90 -107 -168 -107
c-91 0 -154 62 -154 171zM203 14c116 0 196 131 196 235c0 89 -55 149 -137 149c-117 0 -191 -118 -191 -231c0 -97 50 -153 132 -153z" />
    <glyph glyph-name="e" unicode="e" horiz-adv-x="455" 
d="M401 210h-329c-3 -15 -4 -31 -4 -47c0 -96 65 -149 150 -149c48 0 92 11 135 36l-6 -24c-38 -21 -78 -32 -131 -32c-96 0 -173 62 -173 171c0 134 99 253 229 253c82 0 139 -50 139 -147c0 -16 -4 -40 -10 -61zM270 398c-93 0 -169 -73 -194 -168h306c3 16 5 31 5 44
c0 80 -46 124 -117 124z" />
    <glyph glyph-name="f" unicode="f" horiz-adv-x="280" 
d="M58 0l91 392h-79l4 20h79l37 158c15 66 32 102 62 131c24 24 55 36 87 36c34 0 52 -18 52 -36c0 -13 -9 -23 -23 -23c-18 0 -29 11 -29 33v4h-3c-24 0 -48 -8 -68 -29c-26 -26 -42 -61 -55 -120l-36 -154h113l-4 -20h-113l-91 -392h-24z" />
    <glyph glyph-name="g" unicode="g" horiz-adv-x="498" 
d="M157 -200c-46 0 -95 17 -120 44c-11 11 -16 22 -16 36c0 18 10 29 24 29s26 -12 26 -26c0 -12 -5 -20 -14 -25c14 -22 61 -38 104 -38c58 0 95 15 127 48c27 27 43 70 56 127c2 8 16 67 25 109c-36 -58 -92 -105 -166 -105c-91 0 -156 66 -156 171c0 121 84 248 213 248
c86 0 140 -55 153 -127c9 41 26 109 28 118h24l-97 -417c-15 -66 -33 -109 -64 -141c-35 -36 -77 -51 -147 -51zM205 19c115 0 195 135 195 236c0 80 -55 143 -139 143c-114 0 -189 -120 -189 -227c0 -92 51 -152 133 -152z" />
    <glyph glyph-name="h" unicode="h" horiz-adv-x="505" 
d="M43 0l166 712h-85l4 20h110l-104 -441c36 67 92 127 170 127c64 0 109 -37 109 -99c0 -23 -6 -58 -16 -89l-34 -115c-8 -28 -13 -48 -13 -63c0 -23 15 -38 38 -38c26 0 44 17 65 71l17 -5c-23 -64 -46 -86 -83 -86c-38 0 -61 22 -61 58c0 18 5 38 14 67l33 115
c10 32 15 64 15 84c0 52 -31 80 -85 80c-86 0 -164 -93 -194 -221l-42 -177h-24z" />
    <glyph glyph-name="i" unicode="i" horiz-adv-x="269" 
d="M193 525c-13 0 -23 12 -23 25s10 24 23 24s24 -11 24 -24s-11 -25 -24 -25zM130 -6c-37 0 -61 22 -61 59c0 18 5 37 13 66l79 273h-90l4 20h115l-85 -297c-8 -28 -12 -48 -12 -64c0 -22 14 -37 38 -37c26 0 43 17 65 71l17 -5c-24 -64 -46 -86 -83 -86z" />
    <glyph glyph-name="j" unicode="j" horiz-adv-x="223" 
d="M-60 -200c-26 0 -43 13 -43 31c0 12 10 22 23 22c18 0 28 -15 28 -32c25 3 45 16 61 36c24 32 42 82 58 151l88 384h-92l4 20h116l-93 -409c-19 -82 -39 -130 -68 -163c-23 -25 -53 -40 -82 -40zM179 525c-13 0 -23 12 -23 25s10 24 23 24c14 0 24 -11 24 -24
s-10 -25 -24 -25z" />
    <glyph glyph-name="k" unicode="k" horiz-adv-x="443" 
d="M67 0h-24l165 712h-84l4 20h109l-125 -539c133 57 240 129 258 170c-12 6 -19 19 -19 29c0 16 12 26 25 26s25 -13 25 -32c0 -52 -95 -117 -187 -166l52 -125c14 -34 25 -54 35 -66c9 -12 18 -15 30 -15c22 0 40 21 57 83l18 -5c-17 -66 -39 -98 -77 -98
c-19 0 -34 5 -48 24c-12 14 -23 37 -36 69l-51 123c-31 -15 -63 -30 -87 -40z" />
    <glyph glyph-name="l" unicode="l" horiz-adv-x="241" 
d="M120 -6c-32 0 -60 21 -60 60c0 13 3 30 12 68l136 590h-83l4 20h108l-142 -615c-9 -37 -11 -51 -11 -63c0 -25 14 -40 37 -40c26 0 44 17 65 71l16 -5c-22 -64 -46 -86 -82 -86z" />
    <glyph glyph-name="m" unicode="m" horiz-adv-x="764" 
d="M52 0l98 392h-84l4 20h109l-33 -128c43 81 101 134 165 134c60 0 96 -36 96 -97c0 -11 -1 -22 -3 -34c42 80 103 131 173 131c59 0 100 -37 100 -94c0 -28 -8 -63 -18 -94l-36 -115c-9 -28 -13 -48 -13 -63c0 -23 15 -38 38 -38c25 0 44 17 65 71l17 -5
c-24 -64 -46 -86 -83 -86c-38 0 -61 22 -61 58c0 18 4 38 14 67l35 115c11 31 17 64 17 89c0 47 -26 75 -77 75c-83 0 -158 -86 -192 -217l-48 -181h-24l61 234c8 31 13 61 13 82c0 57 -27 82 -75 82c-78 0 -157 -93 -189 -218l-45 -180h-24z" />
    <glyph glyph-name="n" unicode="n" horiz-adv-x="512" 
d="M395 -6c-38 0 -60 22 -60 58c0 18 4 38 13 67l36 115c10 31 16 64 16 85c0 51 -29 79 -84 79c-84 0 -163 -92 -195 -218l-45 -180h-24l98 392h-84l4 20h108l-32 -128c43 81 101 134 173 134c64 0 105 -37 105 -98c0 -24 -7 -59 -17 -90l-36 -115c-8 -28 -13 -48 -13 -63
c0 -23 15 -38 38 -38c26 0 44 17 66 71l16 -5c-23 -64 -46 -86 -83 -86z" />
    <glyph glyph-name="o" unicode="o" horiz-adv-x="486" 
d="M220 -6c-97 0 -174 67 -174 180c0 124 91 244 219 244c97 0 174 -67 174 -180c0 -125 -91 -244 -219 -244zM221 14c111 0 194 109 194 224c0 99 -63 160 -151 160c-111 0 -194 -109 -194 -224c0 -99 64 -160 151 -160z" />
    <glyph glyph-name="p" unicode="p" horiz-adv-x="521" 
d="M-46 -196l4 20h59l132 568h-84l4 20h108l-24 -100c36 59 93 106 166 106c91 0 155 -62 155 -172c0 -128 -83 -252 -213 -252c-79 0 -138 47 -152 124l-68 -294h88l-4 -20h-171zM261 14c114 0 188 118 188 231c0 96 -50 153 -131 153c-115 0 -197 -133 -197 -235
c0 -89 55 -149 140 -149z" />
    <glyph glyph-name="q" unicode="q" horiz-adv-x="505" 
d="M202 -6c-92 0 -155 62 -155 171c0 129 82 253 213 253c78 0 138 -48 152 -126l27 120h24l-137 -588h85l-4 -20h-109l66 289c-35 -56 -89 -99 -162 -99zM203 14c116 0 197 131 197 235c0 89 -56 149 -137 149c-117 0 -191 -118 -191 -231c0 -97 49 -153 131 -153z" />
    <glyph glyph-name="r" unicode="r" horiz-adv-x="308" 
d="M54 0l97 392h-84l4 20h108l-34 -137c45 97 99 143 137 143c21 0 36 -15 36 -32c0 -13 -10 -23 -24 -23c-16 0 -26 13 -27 28c-47 -6 -119 -109 -146 -218l-43 -173h-24z" />
    <glyph glyph-name="s" unicode="s" horiz-adv-x="384" 
d="M174 -6c-55 0 -103 22 -128 49c-14 15 -22 32 -22 49s10 30 25 30c11 0 20 -11 20 -22c0 -15 -8 -24 -17 -28c2 -6 8 -14 15 -21c20 -20 58 -37 108 -37c68 0 114 38 114 90c0 47 -42 71 -101 100c-55 26 -104 54 -104 107c0 63 59 107 130 107c51 0 97 -20 120 -44
c13 -14 19 -29 19 -42c0 -18 -10 -28 -22 -28c-13 0 -23 10 -23 23c0 11 6 21 14 27c-3 5 -7 11 -15 17c-20 15 -55 27 -94 27c-59 0 -106 -36 -106 -85c0 -43 35 -63 97 -92c56 -28 108 -57 108 -116c0 -70 -60 -111 -138 -111z" />
    <glyph glyph-name="t" unicode="t" horiz-adv-x="296" 
d="M290 392h-132l-71 -284c-4 -17 -7 -32 -7 -47c0 -32 20 -46 47 -46c23 0 51 13 94 45l10 -15c-44 -36 -77 -51 -105 -51c-41 0 -70 23 -70 67c0 15 4 33 8 50l70 281h-78l4 20h79l27 107l25 6l-28 -113h131z" />
    <glyph glyph-name="u" unicode="u" horiz-adv-x="514" 
d="M63 412h107l-58 -235c-12 -48 -14 -68 -14 -86c0 -46 28 -77 80 -77c82 0 161 92 192 217l45 181h24l-75 -302c-7 -26 -10 -44 -10 -58c0 -23 14 -38 37 -38c26 0 43 17 65 71l17 -5c-24 -64 -46 -86 -83 -86c-33 0 -58 22 -58 58c0 17 5 39 11 66c0 1 1 4 1 7
c-39 -74 -96 -131 -169 -131c-61 0 -102 38 -102 97c0 21 5 42 16 89l53 212h-84z" />
    <glyph glyph-name="v" unicode="v" horiz-adv-x="441" 
d="M170 -17l-62 409h-81l4 20h98l58 -394c109 125 188 255 203 346c-18 0 -33 13 -33 30c0 13 10 24 23 24c19 0 32 -16 32 -40c0 -87 -107 -260 -232 -395h-10z" />
    <glyph glyph-name="w" unicode="w" horiz-adv-x="635" 
d="M137 -17l-26 409h-80l4 20h97l23 -383l181 325h12l70 -335c92 136 145 268 149 344c-19 0 -34 14 -34 31c0 13 10 24 22 24c22 0 34 -18 34 -45c0 -85 -65 -233 -173 -390h-12l-68 330l-187 -330h-12z" />
    <glyph glyph-name="x" unicode="x" horiz-adv-x="453" 
d="M40 -6c-23 0 -40 14 -40 32c0 13 9 24 22 24c19 0 29 -16 31 -35c27 4 55 32 101 96l69 99l-71 182h-78l4 20h91l68 -183c5 8 47 74 52 80c51 77 84 109 123 109c24 0 42 -14 42 -32c0 -13 -9 -24 -22 -24c-21 0 -30 18 -31 34c-25 -4 -51 -34 -96 -98
c-4 -7 -53 -79 -57 -87l45 -117c26 -70 38 -80 57 -80c18 0 36 16 51 71l17 -5c-17 -65 -37 -86 -69 -86c-31 0 -49 16 -76 88l-40 109c-5 -9 -58 -84 -63 -92c-52 -73 -91 -105 -130 -105z" />
    <glyph glyph-name="y" unicode="y" horiz-adv-x="461" 
d="M-28 -199c-23 0 -41 14 -41 33c0 13 9 23 23 23c18 0 29 -14 29 -33v-1c43 9 109 62 201 172l-75 397h-81l4 20h98l72 -395c96 120 188 268 200 347c-18 0 -34 13 -34 30c0 13 11 24 23 24c19 0 33 -16 33 -39c0 -78 -101 -248 -214 -384c-125 -149 -192 -194 -238 -194z
" />
    <glyph glyph-name="z" unicode="z" horiz-adv-x="416" 
d="M9 -7l-10 13l376 386h-258l-22 -86h-21l26 106h304l7 -12l-366 -375c16 6 38 10 71 10c51 0 110 -23 143 -23c41 0 67 28 89 100l17 -4c-20 -73 -49 -116 -107 -116c-41 0 -93 23 -147 23c-48 0 -71 -5 -102 -22z" />
    <glyph glyph-name="Aacute" unicode="&#xc1;" horiz-adv-x="688" 
d="M-18 0l5 22h58l372 614h-92l5 22h231l-4 -22h-88l88 -614h69l-4 -22h-189l5 22h94l-32 228h-289l-137 -228h101l-5 -22h-188zM224 272h273l-52 367zM418 719l-6 10l124 92c11 8 21 13 29 13c10 0 18 -10 18 -19s-8 -18 -24 -25z" />
    <glyph glyph-name="aacute" unicode="&#xe1;" horiz-adv-x="532" 
d="M193 -6c-83 0 -147 57 -147 163c0 133 88 261 214 261c73 0 132 -48 144 -127l30 121h24l-75 -302c-6 -26 -10 -44 -10 -58c0 -23 14 -38 37 -38c26 0 43 17 65 71l17 -5c-24 -64 -46 -86 -83 -86c-35 0 -57 24 -57 58c0 13 2 29 7 47c-36 -59 -91 -105 -166 -105z
M195 14c117 0 196 133 196 240c0 84 -54 144 -131 144c-111 0 -190 -120 -190 -239c0 -94 51 -145 125 -145zM266 497l-6 10l124 92c11 8 21 13 29 13c10 0 18 -10 18 -19s-8 -18 -24 -25z" />
    <glyph glyph-name="Abreve" unicode="&#x102;" horiz-adv-x="688" 
d="M-18 0l5 22h58l372 614h-92l5 22h231l-4 -22h-88l88 -614h69l-4 -22h-189l5 22h94l-32 228h-289l-137 -228h101l-5 -22h-188zM224 272h273l-52 367zM462 718c-63 0 -100 42 -112 101l20 6c14 -51 44 -78 95 -78c55 0 98 30 127 78l16 -9c-26 -55 -83 -98 -146 -98z" />
    <glyph glyph-name="abreve" unicode="&#x103;" horiz-adv-x="532" 
d="M193 -6c-83 0 -147 57 -147 163c0 133 88 261 214 261c73 0 132 -48 144 -127l30 121h24l-75 -302c-6 -26 -10 -44 -10 -58c0 -23 14 -38 37 -38c26 0 43 17 65 71l17 -5c-24 -64 -46 -86 -83 -86c-35 0 -57 24 -57 58c0 13 2 29 7 47c-36 -59 -91 -105 -166 -105z
M195 14c117 0 196 133 196 240c0 84 -54 144 -131 144c-111 0 -190 -120 -190 -239c0 -94 51 -145 125 -145zM310 496c-63 0 -100 42 -112 101l20 6c14 -51 44 -78 95 -78c55 0 98 30 127 78l16 -9c-26 -55 -83 -98 -146 -98z" />
    <glyph glyph-name="Acircumflex" unicode="&#xc2;" horiz-adv-x="688" 
d="M-18 0l5 22h58l372 614h-92l5 22h231l-4 -22h-88l88 -614h69l-4 -22h-189l5 22h94l-32 228h-289l-137 -228h101l-5 -22h-188zM224 272h273l-52 367zM338 712l-8 11l156 119l97 -119l-10 -9l-91 87z" />
    <glyph glyph-name="acircumflex" unicode="&#xe2;" horiz-adv-x="532" 
d="M193 -6c-83 0 -147 57 -147 163c0 133 88 261 214 261c73 0 132 -48 144 -127l30 121h24l-75 -302c-6 -26 -10 -44 -10 -58c0 -23 14 -38 37 -38c26 0 43 17 65 71l17 -5c-24 -64 -46 -86 -83 -86c-35 0 -57 24 -57 58c0 13 2 29 7 47c-36 -59 -91 -105 -166 -105z
M195 14c117 0 196 133 196 240c0 84 -54 144 -131 144c-111 0 -190 -120 -190 -239c0 -94 51 -145 125 -145zM185 490l-8 11l156 119l97 -119l-10 -9l-91 87z" />
    <glyph glyph-name="Adieresis" unicode="&#xc4;" horiz-adv-x="688" 
d="M-18 0l5 22h58l372 614h-92l5 22h231l-4 -22h-88l88 -614h69l-4 -22h-189l5 22h94l-32 228h-289l-137 -228h101l-5 -22h-188zM224 272h273l-52 367zM526 736c-15 0 -26 12 -26 26c0 15 11 27 26 27s26 -12 26 -27c0 -14 -11 -26 -26 -26zM412 736c-15 0 -26 12 -26 26
c0 15 11 27 26 27s26 -12 26 -27c0 -14 -11 -26 -26 -26z" />
    <glyph glyph-name="adieresis" unicode="&#xe4;" horiz-adv-x="532" 
d="M193 -6c-83 0 -147 57 -147 163c0 133 88 261 214 261c73 0 132 -48 144 -127l30 121h24l-75 -302c-6 -26 -10 -44 -10 -58c0 -23 14 -38 37 -38c26 0 43 17 65 71l17 -5c-24 -64 -46 -86 -83 -86c-35 0 -57 24 -57 58c0 13 2 29 7 47c-36 -59 -91 -105 -166 -105z
M195 14c117 0 196 133 196 240c0 84 -54 144 -131 144c-111 0 -190 -120 -190 -239c0 -94 51 -145 125 -145zM374 514c-15 0 -26 12 -26 26c0 15 11 27 26 27s26 -12 26 -27c0 -14 -11 -26 -26 -26zM260 514c-15 0 -26 12 -26 26c0 15 11 27 26 27s26 -12 26 -27
c0 -14 -11 -26 -26 -26z" />
    <glyph glyph-name="AE" unicode="&#xc6;" horiz-adv-x="863" 
d="M-46 0l4 22h69l482 614h-110l5 22h493l-33 -140h-24l26 118h-292l-65 -288h227l-4 -23h-229l-70 -303h292l28 118h24l-32 -140h-433l5 22h90l53 229h-225l-180 -229h92l-5 -22h-188zM252 273h213l84 365h-11z" />
    <glyph glyph-name="ae" unicode="&#xe6;" horiz-adv-x="745" 
d="M691 210h-328c-3 -15 -4 -31 -4 -47c0 -97 64 -149 149 -149c48 0 92 11 135 36l-6 -24c-37 -21 -78 -32 -131 -32c-87 0 -155 51 -166 143c-34 -88 -115 -143 -195 -143c-88 0 -123 50 -123 104c0 82 79 132 201 132h119c-2 90 -37 168 -135 168c-27 0 -44 -5 -57 -11
c-7 -4 -12 -9 -16 -14c6 -5 10 -13 10 -21c0 -13 -9 -28 -23 -28c-16 0 -25 12 -25 26c0 19 14 39 40 52c17 9 39 16 70 16c95 0 140 -62 153 -151c33 88 109 151 203 151c82 0 139 -50 139 -147c0 -16 -4 -40 -10 -61zM145 14c82 0 189 78 196 196h-114
c-110 0 -180 -40 -180 -112c0 -46 31 -84 98 -84zM561 398c-94 0 -169 -73 -194 -168h305c4 16 6 31 6 44c0 80 -46 124 -117 124z" />
    <glyph glyph-name="AEacute" unicode="&#x1fc;" horiz-adv-x="863" 
d="M585 719l-6 10l124 92c11 8 21 13 29 13c10 0 18 -10 18 -19s-8 -18 -24 -25zM-46 0l4 22h69l482 614h-110l5 22h493l-33 -140h-24l26 118h-292l-65 -288h227l-4 -23h-229l-70 -303h292l28 118h24l-32 -140h-433l5 22h90l53 229h-225l-180 -229h92l-5 -22h-188zM252 273
h213l84 365h-11z" />
    <glyph glyph-name="aeacute" unicode="&#x1fd;" horiz-adv-x="745" 
d="M691 210h-328c-3 -15 -4 -31 -4 -47c0 -97 64 -149 149 -149c48 0 92 11 135 36l-6 -24c-37 -21 -78 -32 -131 -32c-87 0 -155 51 -166 143c-34 -88 -115 -143 -195 -143c-88 0 -123 50 -123 104c0 82 79 132 201 132h119c-2 90 -37 168 -135 168c-27 0 -44 -5 -57 -11
c-7 -4 -12 -9 -16 -14c6 -5 10 -13 10 -21c0 -13 -9 -28 -23 -28c-16 0 -25 12 -25 26c0 19 14 39 40 52c17 9 39 16 70 16c95 0 140 -62 153 -151c33 88 109 151 203 151c82 0 139 -50 139 -147c0 -16 -4 -40 -10 -61zM145 14c82 0 189 78 196 196h-114
c-110 0 -180 -40 -180 -112c0 -46 31 -84 98 -84zM561 398c-94 0 -169 -73 -194 -168h305c4 16 6 31 6 44c0 80 -46 124 -117 124zM388 497l-6 10l124 92c11 8 21 13 29 13c10 0 18 -10 18 -19s-8 -18 -24 -25z" />
    <glyph glyph-name="Agrave" unicode="&#xc0;" horiz-adv-x="688" 
d="M-18 0l5 22h58l372 614h-92l5 22h231l-4 -22h-88l88 -614h69l-4 -22h-189l5 22h94l-32 228h-289l-137 -228h101l-5 -22h-188zM224 272h273l-52 367zM500 719l-114 74c-13 8 -19 17 -19 25c0 9 8 18 17 18c10 0 16 -2 27 -14l97 -94z" />
    <glyph glyph-name="agrave" unicode="&#xe0;" horiz-adv-x="532" 
d="M193 -6c-83 0 -147 57 -147 163c0 133 88 261 214 261c73 0 132 -48 144 -127l30 121h24l-75 -302c-6 -26 -10 -44 -10 -58c0 -23 14 -38 37 -38c26 0 43 17 65 71l17 -5c-24 -64 -46 -86 -83 -86c-35 0 -57 24 -57 58c0 13 2 29 7 47c-36 -59 -91 -105 -166 -105z
M195 14c117 0 196 133 196 240c0 84 -54 144 -131 144c-111 0 -190 -120 -190 -239c0 -94 51 -145 125 -145zM348 497l-114 74c-13 8 -19 17 -19 25c0 9 8 18 17 18c10 0 16 -2 27 -14l97 -94z" />
    <glyph glyph-name="Amacron" unicode="&#x100;" horiz-adv-x="688" 
d="M-18 0l5 22h58l372 614h-92l5 22h231l-4 -22h-88l88 -614h69l-4 -22h-189l5 22h94l-32 228h-289l-137 -228h101l-5 -22h-188zM224 272h273l-52 367zM330 750l5 24h273l-5 -24h-273z" />
    <glyph glyph-name="amacron" unicode="&#x101;" horiz-adv-x="532" 
d="M193 -6c-83 0 -147 57 -147 163c0 133 88 261 214 261c73 0 132 -48 144 -127l30 121h24l-75 -302c-6 -26 -10 -44 -10 -58c0 -23 14 -38 37 -38c26 0 43 17 65 71l17 -5c-24 -64 -46 -86 -83 -86c-35 0 -57 24 -57 58c0 13 2 29 7 47c-36 -59 -91 -105 -166 -105z
M195 14c117 0 196 133 196 240c0 84 -54 144 -131 144c-111 0 -190 -120 -190 -239c0 -94 51 -145 125 -145zM178 528l5 24h273l-5 -24h-273z" />
    <glyph glyph-name="Aogonek" unicode="&#x104;" horiz-adv-x="688" 
d="M-18 0l5 22h58l372 614h-92l5 22h231l-4 -22h-88l88 -614h69l-4 -22h-67c-59 -46 -90 -87 -90 -128c0 -32 20 -53 54 -53c20 0 38 4 49 8l-6 -20c-9 -3 -25 -9 -48 -9c-44 0 -73 25 -73 70s33 90 91 132h-99l5 22h94l-32 228h-289l-137 -228h101l-5 -22h-188zM224 272
h273l-52 367z" />
    <glyph glyph-name="aogonek" unicode="&#x105;" horiz-adv-x="532" 
d="M352 52c0 13 2 29 7 47c-36 -59 -91 -105 -166 -105c-83 0 -147 57 -147 163c0 133 88 261 214 261c73 0 131 -47 144 -126l30 120h24l-75 -302c-6 -26 -10 -44 -10 -58c0 -23 13 -38 35 -38c26 0 45 17 67 71l17 -5c-9 -24 -20 -51 -52 -79c-38 -34 -97 -72 -97 -129
c0 -32 20 -53 53 -53c21 0 38 4 49 8l-5 -20c-10 -3 -26 -9 -48 -9c-44 0 -73 25 -73 70c0 47 39 91 92 126h-2c-33 0 -57 22 -57 58zM195 14c117 0 196 133 196 240c0 84 -54 144 -131 144c-111 0 -190 -120 -190 -239c0 -94 51 -145 125 -145z" />
    <glyph glyph-name="Aring" unicode="&#xc5;" horiz-adv-x="688" 
d="M-18 0l5 22h58l372 614h-92l5 22h77c-17 10 -28 31 -28 54c0 48 39 96 92 96c44 0 71 -32 71 -70c0 -35 -19 -65 -46 -80h65l-4 -22h-88l88 -614h69l-4 -22h-189l5 22h94l-32 228h-289l-137 -228h101l-5 -22h-188zM451 657c39 0 67 39 67 81c0 29 -19 51 -48 51
c-39 0 -67 -39 -67 -81c0 -29 19 -51 48 -51zM224 272h273l-52 367z" />
    <glyph glyph-name="aring" unicode="&#xe5;" horiz-adv-x="532" 
d="M193 -6c-83 0 -147 57 -147 163c0 133 88 261 214 261c73 0 132 -48 144 -127l30 121h24l-75 -302c-6 -26 -10 -44 -10 -58c0 -23 14 -38 37 -38c26 0 43 17 65 71l17 -5c-24 -64 -46 -86 -83 -86c-35 0 -57 24 -57 58c0 13 2 29 7 47c-36 -59 -91 -105 -166 -105z
M195 14c117 0 196 133 196 240c0 84 -54 144 -131 144c-111 0 -190 -120 -190 -239c0 -94 51 -145 125 -145zM315 488c-44 0 -71 34 -71 71c0 51 38 100 90 100c44 0 72 -33 72 -71c0 -50 -39 -100 -91 -100zM316 508c39 0 66 40 66 80c0 30 -20 51 -48 51
c-39 0 -66 -39 -66 -80c0 -29 20 -51 48 -51z" />
    <glyph glyph-name="Aringacute" unicode="&#x1fa;" horiz-adv-x="688" 
d="M467 867l-6 10l124 92c11 8 21 13 29 13c10 0 18 -10 18 -19s-8 -18 -24 -25zM-18 0l5 22h58l372 614h-92l5 22h77c-17 10 -28 31 -28 54c0 48 39 96 92 96c44 0 71 -32 71 -70c0 -35 -19 -65 -46 -80h65l-4 -22h-88l88 -614h69l-4 -22h-189l5 22h94l-32 228h-289
l-137 -228h101l-5 -22h-188zM451 657c39 0 67 39 67 81c0 29 -19 51 -48 51c-39 0 -67 -39 -67 -81c0 -29 19 -51 48 -51zM224 272h273l-52 367z" />
    <glyph glyph-name="aringacute" unicode="&#x1fb;" horiz-adv-x="532" 
d="M193 -6c-83 0 -147 57 -147 163c0 133 88 261 214 261c73 0 132 -48 144 -127l30 121h24l-75 -302c-6 -26 -10 -44 -10 -58c0 -23 14 -38 37 -38c26 0 43 17 65 71l17 -5c-24 -64 -46 -86 -83 -86c-35 0 -57 24 -57 58c0 13 2 29 7 47c-36 -59 -91 -105 -166 -105z
M195 14c117 0 196 133 196 240c0 84 -54 144 -131 144c-111 0 -190 -120 -190 -239c0 -94 51 -145 125 -145zM315 488c-44 0 -71 34 -71 71c0 51 38 100 90 100c44 0 72 -33 72 -71c0 -50 -39 -100 -91 -100zM316 508c39 0 66 40 66 80c0 30 -20 51 -48 51
c-39 0 -66 -39 -66 -80c0 -29 20 -51 48 -51zM341 734l-6 10l124 92c11 8 21 13 29 13c10 0 18 -10 18 -19s-8 -18 -24 -25z" />
    <glyph glyph-name="Atilde" unicode="&#xc3;" horiz-adv-x="688" 
d="M-18 0l5 22h58l372 614h-92l5 22h231l-4 -22h-88l88 -614h69l-4 -22h-189l5 22h94l-32 228h-289l-137 -228h101l-5 -22h-188zM224 272h273l-52 367zM537 721c-28 0 -48 14 -74 36c-29 24 -42 31 -61 31c-30 0 -47 -19 -64 -61l-17 5c15 48 44 82 83 82
c27 0 47 -14 74 -35c30 -25 41 -32 61 -32c31 0 47 20 65 62l17 -5c-15 -48 -44 -83 -84 -83z" />
    <glyph glyph-name="atilde" unicode="&#xe3;" horiz-adv-x="532" 
d="M193 -6c-83 0 -147 57 -147 163c0 133 88 261 214 261c73 0 132 -48 144 -127l30 121h24l-75 -302c-6 -26 -10 -44 -10 -58c0 -23 14 -38 37 -38c26 0 43 17 65 71l17 -5c-24 -64 -46 -86 -83 -86c-35 0 -57 24 -57 58c0 13 2 29 7 47c-36 -59 -91 -105 -166 -105z
M195 14c117 0 196 133 196 240c0 84 -54 144 -131 144c-111 0 -190 -120 -190 -239c0 -94 51 -145 125 -145zM385 499c-28 0 -48 14 -74 36c-29 24 -42 31 -61 31c-30 0 -47 -19 -64 -61l-17 5c15 48 44 82 83 82c27 0 47 -14 74 -35c30 -25 41 -32 61 -32c31 0 47 20 65 62
l17 -5c-15 -48 -44 -83 -84 -83z" />
    <glyph glyph-name="Cacute" unicode="&#x106;" horiz-adv-x="653" 
d="M421 719l-6 10l124 92c11 8 21 13 29 13c10 0 18 -10 18 -19s-8 -18 -24 -25zM345 -10c-171 0 -267 116 -267 282c0 187 146 395 362 395c136 0 208 -85 208 -152c0 -22 -14 -38 -30 -38s-26 10 -26 26c0 14 9 28 27 33c-7 47 -68 109 -181 109
c-203 0 -334 -201 -334 -373c0 -146 87 -260 243 -260c75 0 158 36 222 97l15 -17c-66 -63 -156 -102 -239 -102z" />
    <glyph glyph-name="cacute" unicode="&#x107;" horiz-adv-x="439" 
d="M259 497l-6 10l124 92c11 8 21 13 29 13c10 0 18 -10 18 -19s-8 -18 -24 -25zM213 -6c-90 0 -168 64 -168 175c0 135 101 249 221 249c91 0 142 -55 142 -105c0 -22 -11 -33 -24 -33s-22 9 -22 22c0 12 8 23 22 28c-9 35 -50 68 -119 68c-106 0 -196 -105 -196 -229
c0 -98 65 -155 146 -155c50 0 92 17 137 52l-2 -25c-36 -27 -80 -47 -137 -47z" />
    <glyph glyph-name="Ccaron" unicode="&#x10c;" horiz-adv-x="653" 
d="M456 714l-97 119l10 9l91 -87l144 89l8 -11zM345 -10c-171 0 -267 116 -267 282c0 187 146 395 362 395c136 0 208 -85 208 -152c0 -22 -14 -38 -30 -38s-26 10 -26 26c0 14 9 28 27 33c-7 47 -68 109 -181 109c-203 0 -334 -201 -334 -373c0 -146 87 -260 243 -260
c75 0 158 36 222 97l15 -17c-66 -63 -156 -102 -239 -102z" />
    <glyph glyph-name="ccaron" unicode="&#x10d;" horiz-adv-x="439" 
d="M295 492l-97 119l10 9l91 -87l144 89l8 -11zM213 -6c-90 0 -168 64 -168 175c0 135 101 249 221 249c91 0 142 -55 142 -105c0 -22 -11 -33 -24 -33s-22 9 -22 22c0 12 8 23 22 28c-9 35 -50 68 -119 68c-106 0 -196 -105 -196 -229c0 -98 65 -155 146 -155
c50 0 92 17 137 52l-2 -25c-36 -27 -80 -47 -137 -47z" />
    <glyph glyph-name="Ccedilla" unicode="&#xc7;" horiz-adv-x="653" 
d="M279 -200c-35 0 -73 11 -102 31l11 16c28 -16 62 -27 92 -27c44 0 64 25 64 50c0 29 -26 49 -79 45l-5 5l35 74c-140 20 -217 129 -217 278c0 187 146 395 362 395c136 0 208 -85 208 -152c0 -22 -14 -38 -30 -38s-26 10 -26 26c0 14 9 28 27 33c-7 47 -68 109 -181 109
c-203 0 -334 -201 -334 -373c0 -146 87 -260 243 -260c75 0 158 36 222 97l15 -17c-66 -63 -156 -102 -239 -102c-11 0 -22 1 -33 2l-23 -59c56 -3 79 -30 79 -62c0 -39 -30 -71 -89 -71z" />
    <glyph glyph-name="ccedilla" unicode="&#xe7;" horiz-adv-x="439" 
d="M155 -200c-35 0 -73 11 -102 31l11 16c28 -16 62 -27 92 -27c44 0 64 25 64 50c0 29 -26 49 -79 45l-5 5l37 79c-72 15 -128 76 -128 170c0 135 101 249 221 249c91 0 142 -55 142 -105c0 -22 -11 -33 -24 -33s-22 9 -22 22c0 12 8 23 22 28c-9 35 -50 68 -119 68
c-106 0 -196 -105 -196 -229c0 -98 65 -155 146 -155c50 0 92 17 137 52l-2 -25c-36 -27 -80 -47 -137 -47c-8 0 -16 1 -23 2l-25 -63c56 -3 79 -30 79 -62c0 -39 -30 -71 -89 -71z" />
    <glyph glyph-name="Cdotaccent" unicode="&#x10a;" horiz-adv-x="653" 
d="M345 -10c-171 0 -267 116 -267 282c0 187 146 395 362 395c136 0 208 -85 208 -152c0 -22 -14 -38 -30 -38s-26 10 -26 26c0 14 9 28 27 33c-7 47 -68 109 -181 109c-203 0 -334 -201 -334 -373c0 -146 87 -260 243 -260c75 0 158 36 222 97l15 -17
c-66 -63 -156 -102 -239 -102zM472 740c-16 0 -28 12 -28 28s12 29 28 29s28 -13 28 -29s-12 -28 -28 -28z" />
    <glyph glyph-name="cdotaccent" unicode="&#x10b;" horiz-adv-x="439" 
d="M213 -6c-90 0 -168 64 -168 175c0 135 101 249 221 249c91 0 142 -55 142 -105c0 -22 -11 -33 -24 -33s-22 9 -22 22c0 12 8 23 22 28c-9 35 -50 68 -119 68c-106 0 -196 -105 -196 -229c0 -98 65 -155 146 -155c50 0 92 17 137 52l-2 -25c-36 -27 -80 -47 -137 -47z
M311 518c-16 0 -28 12 -28 28s12 29 28 29s28 -13 28 -29s-12 -28 -28 -28z" />
    <glyph glyph-name="Dcaron" unicode="&#x10e;" horiz-adv-x="680" 
d="M413 714l-97 119l10 9l91 -87l144 89l8 -11zM1 0l5 22h90l141 614h-99l5 22h196c106 0 192 -29 249 -86c44 -44 71 -107 71 -185c0 -108 -38 -197 -109 -268c-75 -76 -194 -119 -338 -119h-211zM122 22h93c135 0 245 42 316 113c64 65 102 151 102 251
c0 73 -24 132 -63 171c-53 52 -132 79 -234 79h-73z" />
    <glyph glyph-name="dcaron" unicode="&#x10f;" horiz-adv-x="541" 
d="M47 165c0 129 82 253 213 253c76 0 137 -47 151 -124l97 418h-85l4 20h110l-142 -615c-9 -37 -11 -51 -11 -65c0 -23 14 -38 37 -38c26 0 43 17 64 71l17 -5c-23 -64 -45 -86 -82 -86c-35 0 -58 24 -58 58c0 14 2 30 7 49c-35 -59 -90 -107 -168 -107
c-91 0 -154 62 -154 171zM203 14c116 0 196 131 196 235c0 89 -55 149 -137 149c-117 0 -191 -118 -191 -231c0 -97 50 -153 132 -153zM549 561l-9 8c22 27 38 51 45 78c7 25 6 47 9 63c2 13 10 21 21 21c12 0 17 -8 17 -20c0 -21 -11 -47 -23 -71c-16 -29 -37 -55 -60 -79z
" />
    <glyph glyph-name="Dcroat" unicode="&#x110;" horiz-adv-x="686" 
d="M1 0l5 22h90l70 304h-79l5 22h79l66 288h-99l5 22h196c106 0 192 -29 249 -86c44 -44 71 -107 71 -185c0 -108 -38 -197 -109 -268c-75 -76 -194 -119 -338 -119h-211zM122 22h93c135 0 245 42 316 113c64 65 102 151 102 251c0 73 -24 132 -63 171
c-53 52 -132 79 -234 79h-73l-66 -288h157l-5 -22h-157z" />
    <glyph glyph-name="dcroat" unicode="&#x111;" horiz-adv-x="541" 
d="M306 556l5 20h165l32 136h-85l4 20h110l-36 -156h75l-5 -20h-75l-101 -439c-9 -37 -11 -51 -11 -65c0 -23 14 -38 37 -38c26 0 43 17 64 71l17 -5c-23 -64 -45 -86 -82 -86c-35 0 -58 24 -58 58c0 14 2 30 7 49c-35 -59 -90 -107 -168 -107c-91 0 -154 62 -154 171
c0 129 82 253 213 253c76 0 137 -47 151 -124l61 262h-166zM203 14c116 0 196 131 196 235c0 89 -55 149 -137 149c-117 0 -191 -118 -191 -231c0 -97 50 -153 132 -153z" />
    <glyph glyph-name="Eacute" unicode="&#xc9;" horiz-adv-x="560" 
d="M349 719l-6 10l124 92c11 8 21 13 29 13c10 0 18 -10 18 -19s-8 -18 -24 -25zM1 0l5 22h90l141 614h-99l5 22h451l-33 -140h-25l27 118h-300l-65 -288h235l-5 -23h-236l-70 -303h300l27 118h25l-32 -140h-441z" />
    <glyph glyph-name="eacute" unicode="&#xe9;" horiz-adv-x="455" 
d="M401 210h-329c-3 -15 -4 -31 -4 -47c0 -96 65 -149 150 -149c48 0 92 11 135 36l-6 -24c-38 -21 -78 -32 -131 -32c-96 0 -173 62 -173 171c0 134 99 253 229 253c82 0 139 -50 139 -147c0 -16 -4 -40 -10 -61zM270 398c-93 0 -169 -73 -194 -168h306c3 16 5 31 5 44
c0 80 -46 124 -117 124zM253 497l-6 10l124 92c11 8 21 13 29 13c10 0 18 -10 18 -19s-8 -18 -24 -25z" />
    <glyph glyph-name="Ebreve" unicode="&#x114;" horiz-adv-x="560" 
d="M1 0l5 22h90l141 614h-99l5 22h451l-33 -140h-25l27 118h-300l-65 -288h235l-5 -23h-236l-70 -303h300l27 118h25l-32 -140h-441zM393 718c-63 0 -100 42 -112 101l20 6c14 -51 44 -78 95 -78c55 0 98 30 127 78l16 -9c-26 -55 -83 -98 -146 -98z" />
    <glyph glyph-name="ebreve" unicode="&#x115;" horiz-adv-x="455" 
d="M401 210h-329c-3 -15 -4 -31 -4 -47c0 -96 65 -149 150 -149c48 0 92 11 135 36l-6 -24c-38 -21 -78 -32 -131 -32c-96 0 -173 62 -173 171c0 134 99 253 229 253c82 0 139 -50 139 -147c0 -16 -4 -40 -10 -61zM270 398c-93 0 -169 -73 -194 -168h306c3 16 5 31 5 44
c0 80 -46 124 -117 124zM296 496c-63 0 -100 42 -112 101l20 6c14 -51 44 -78 95 -78c55 0 98 30 127 78l16 -9c-26 -55 -83 -98 -146 -98z" />
    <glyph glyph-name="Ecaron" unicode="&#x11a;" horiz-adv-x="560" 
d="M385 714l-97 119l10 9l91 -87l144 89l8 -11zM1 0l5 22h90l141 614h-99l5 22h451l-33 -140h-25l27 118h-300l-65 -288h235l-5 -23h-236l-70 -303h300l27 118h25l-32 -140h-441z" />
    <glyph glyph-name="ecaron" unicode="&#x11b;" horiz-adv-x="455" 
d="M401 210h-329c-3 -15 -4 -31 -4 -47c0 -96 65 -149 150 -149c48 0 92 11 135 36l-6 -24c-38 -21 -78 -32 -131 -32c-96 0 -173 62 -173 171c0 134 99 253 229 253c82 0 139 -50 139 -147c0 -16 -4 -40 -10 -61zM270 398c-93 0 -169 -73 -194 -168h306c3 16 5 31 5 44
c0 80 -46 124 -117 124zM288 492l-97 119l10 9l91 -87l144 89l8 -11z" />
    <glyph glyph-name="Ecircumflex" unicode="&#xca;" horiz-adv-x="560" 
d="M268 712l-8 11l156 119l97 -119l-10 -9l-91 87zM1 0l5 22h90l141 614h-99l5 22h451l-33 -140h-25l27 118h-300l-65 -288h235l-5 -23h-236l-70 -303h300l27 118h25l-32 -140h-441z" />
    <glyph glyph-name="ecircumflex" unicode="&#xea;" horiz-adv-x="455" 
d="M401 210h-329c-3 -15 -4 -31 -4 -47c0 -96 65 -149 150 -149c48 0 92 11 135 36l-6 -24c-38 -21 -78 -32 -131 -32c-96 0 -173 62 -173 171c0 134 99 253 229 253c82 0 139 -50 139 -147c0 -16 -4 -40 -10 -61zM270 398c-93 0 -169 -73 -194 -168h306c3 16 5 31 5 44
c0 80 -46 124 -117 124zM172 490l-8 11l156 119l97 -119l-10 -9l-91 87z" />
    <glyph glyph-name="Edieresis" unicode="&#xcb;" horiz-adv-x="560" 
d="M456 736c-15 0 -26 12 -26 26c0 15 11 27 26 27s26 -12 26 -27c0 -14 -11 -26 -26 -26zM342 736c-15 0 -26 12 -26 26c0 15 11 27 26 27s26 -12 26 -27c0 -14 -11 -26 -26 -26zM1 0l5 22h90l141 614h-99l5 22h451l-33 -140h-25l27 118h-300l-65 -288h235l-5 -23h-236
l-70 -303h300l27 118h25l-32 -140h-441z" />
    <glyph glyph-name="edieresis" unicode="&#xeb;" horiz-adv-x="455" 
d="M401 210h-329c-3 -15 -4 -31 -4 -47c0 -96 65 -149 150 -149c48 0 92 11 135 36l-6 -24c-38 -21 -78 -32 -131 -32c-96 0 -173 62 -173 171c0 134 99 253 229 253c82 0 139 -50 139 -147c0 -16 -4 -40 -10 -61zM270 398c-93 0 -169 -73 -194 -168h306c3 16 5 31 5 44
c0 80 -46 124 -117 124zM246 514c-15 0 -26 12 -26 26c0 15 11 27 26 27s26 -12 26 -27c0 -14 -11 -26 -26 -26zM360 514c-15 0 -26 12 -26 26c0 15 11 27 26 27s26 -12 26 -27c0 -14 -11 -26 -26 -26z" />
    <glyph glyph-name="Edotaccent" unicode="&#x116;" horiz-adv-x="560" 
d="M1 0l5 22h90l141 614h-99l5 22h451l-33 -140h-25l27 118h-300l-65 -288h235l-5 -23h-236l-70 -303h300l27 118h25l-32 -140h-441zM401 740c-16 0 -28 12 -28 28s12 29 28 29s28 -13 28 -29s-12 -28 -28 -28z" />
    <glyph glyph-name="edotaccent" unicode="&#x117;" horiz-adv-x="455" 
d="M401 210h-329c-3 -15 -4 -31 -4 -47c0 -96 65 -149 150 -149c48 0 92 11 135 36l-6 -24c-38 -21 -78 -32 -131 -32c-96 0 -173 62 -173 171c0 134 99 253 229 253c82 0 139 -50 139 -147c0 -16 -4 -40 -10 -61zM270 398c-93 0 -169 -73 -194 -168h306c3 16 5 31 5 44
c0 80 -46 124 -117 124zM305 518c-16 0 -28 12 -28 28s12 29 28 29s28 -13 28 -29s-12 -28 -28 -28z" />
    <glyph glyph-name="Egrave" unicode="&#xc8;" horiz-adv-x="560" 
d="M1 0l5 22h90l141 614h-99l5 22h451l-33 -140h-25l27 118h-300l-65 -288h235l-5 -23h-236l-70 -303h300l27 118h25l-32 -140h-441zM430 719l-114 74c-13 8 -19 17 -19 25c0 9 8 18 17 18c10 0 16 -2 27 -14l97 -94z" />
    <glyph glyph-name="egrave" unicode="&#xe8;" horiz-adv-x="455" 
d="M401 210h-329c-3 -15 -4 -31 -4 -47c0 -96 65 -149 150 -149c48 0 92 11 135 36l-6 -24c-38 -21 -78 -32 -131 -32c-96 0 -173 62 -173 171c0 134 99 253 229 253c82 0 139 -50 139 -147c0 -16 -4 -40 -10 -61zM270 398c-93 0 -169 -73 -194 -168h306c3 16 5 31 5 44
c0 80 -46 124 -117 124zM335 497l-114 74c-13 8 -19 17 -19 25c0 9 8 18 17 18c10 0 16 -2 27 -14l97 -94z" />
    <glyph glyph-name="Emacron" unicode="&#x112;" horiz-adv-x="560" 
d="M1 0l5 22h90l141 614h-99l5 22h451l-33 -140h-25l27 118h-300l-65 -288h235l-5 -23h-236l-70 -303h300l27 118h25l-32 -140h-441zM260 750l5 24h273l-5 -24h-273z" />
    <glyph glyph-name="emacron" unicode="&#x113;" horiz-adv-x="455" 
d="M401 210h-329c-3 -15 -4 -31 -4 -47c0 -96 65 -149 150 -149c48 0 92 11 135 36l-6 -24c-38 -21 -78 -32 -131 -32c-96 0 -173 62 -173 171c0 134 99 253 229 253c82 0 139 -50 139 -147c0 -16 -4 -40 -10 -61zM270 398c-93 0 -169 -73 -194 -168h306c3 16 5 31 5 44
c0 80 -46 124 -117 124zM165 528l5 24h273l-5 -24h-273z" />
    <glyph glyph-name="Eogonek" unicode="&#x118;" horiz-adv-x="560" 
d="M1 0l5 22h90l141 614h-99l5 22h451l-33 -140h-25l27 118h-300l-65 -288h235l-5 -23h-236l-70 -303h300l27 118h25l-32 -140h-39c-59 -46 -90 -87 -90 -128c0 -32 20 -53 54 -53c20 0 38 4 49 8l-6 -20c-9 -3 -25 -9 -48 -9c-44 0 -73 25 -73 70s33 90 91 132h-379z" />
    <glyph glyph-name="eogonek" unicode="&#x119;" horiz-adv-x="455" 
d="M267 -202c-44 0 -73 25 -73 70c0 46 35 93 96 135c-22 -6 -47 -9 -74 -9c-96 0 -173 62 -173 171c0 134 99 253 229 253c82 0 139 -50 139 -147c0 -16 -4 -40 -10 -61h-329c-3 -15 -4 -31 -4 -47c0 -94 63 -149 150 -149c48 0 92 11 135 36l-6 -24
c-82 -54 -129 -105 -129 -154c0 -32 20 -53 54 -53c20 0 38 4 48 8l-5 -20c-10 -3 -25 -9 -48 -9zM270 398c-93 0 -169 -73 -194 -168h306c3 16 5 31 5 44c0 80 -46 124 -117 124z" />
    <glyph glyph-name="Eth" unicode="&#xd0;" horiz-adv-x="682" 
d="M1 0l5 22h90l70 304h-79l5 22h79l66 288h-99l5 22h196c106 0 192 -29 249 -86c44 -44 71 -107 71 -185c0 -108 -38 -197 -109 -268c-75 -76 -194 -119 -338 -119h-211zM122 22h93c135 0 245 42 316 113c64 65 102 151 102 251c0 73 -24 132 -63 171
c-53 52 -132 79 -234 79h-73l-66 -288h157l-5 -22h-157z" />
    <glyph glyph-name="eth" unicode="&#xf0;" horiz-adv-x="483" 
d="M211 -6c-88 0 -165 62 -165 174c0 120 91 233 215 233c68 0 135 -35 156 -110c1 14 2 29 2 44c0 108 -28 201 -69 267l-134 -121l-14 15l137 123c-39 54 -87 88 -129 95c-2 -17 -14 -30 -29 -30c-13 0 -24 10 -24 23c0 17 13 31 36 31c50 0 112 -39 161 -105l105 95
l13 -15l-107 -97c47 -69 78 -166 78 -279c0 -119 -22 -216 -86 -281c-36 -37 -85 -62 -146 -62zM213 14c50 0 95 23 130 58c41 42 67 101 67 162c0 93 -67 147 -151 147c-107 0 -188 -102 -188 -213c0 -97 63 -154 142 -154z" />
    <glyph glyph-name="Gbreve" unicode="&#x11e;" horiz-adv-x="686" 
d="M530 0l16 63c-60 -46 -139 -73 -212 -73c-168 0 -258 112 -258 263c0 196 151 414 376 414c83 0 143 -32 176 -66c26 -27 35 -55 35 -79c0 -22 -15 -38 -32 -38c-15 0 -26 12 -26 26c0 15 12 30 30 34c-3 13 -11 28 -27 45c-30 29 -86 56 -158 56
c-213 0 -348 -211 -348 -392c0 -132 80 -241 234 -241c71 0 148 27 217 80l45 180h-211l4 22h237l-73 -294h-25zM468 718c-63 0 -100 42 -112 101l20 6c14 -51 44 -78 95 -78c55 0 98 30 127 78l16 -9c-26 -55 -83 -98 -146 -98z" />
    <glyph glyph-name="gbreve" unicode="&#x11f;" horiz-adv-x="498" 
d="M157 -200c-46 0 -95 17 -120 44c-11 11 -16 22 -16 36c0 18 10 29 24 29s26 -12 26 -26c0 -12 -5 -20 -14 -25c14 -22 61 -38 104 -38c58 0 95 15 127 48c27 27 43 70 56 127c2 8 16 67 25 109c-36 -58 -92 -105 -166 -105c-91 0 -156 66 -156 171c0 121 84 248 213 248
c86 0 140 -55 153 -127c9 41 26 109 28 118h24l-97 -417c-15 -66 -33 -109 -64 -141c-35 -36 -77 -51 -147 -51zM205 19c115 0 195 135 195 236c0 80 -55 143 -139 143c-114 0 -189 -120 -189 -227c0 -92 51 -152 133 -152zM318 496c-63 0 -100 42 -112 101l20 6
c14 -51 44 -78 95 -78c55 0 98 30 127 78l16 -9c-26 -55 -83 -98 -146 -98z" />
    <glyph glyph-name="Gcommaaccent" unicode="&#x122;" horiz-adv-x="686" 
d="M530 0l16 63c-60 -46 -139 -73 -212 -73c-168 0 -258 112 -258 263c0 196 151 414 376 414c83 0 143 -32 176 -66c26 -27 35 -55 35 -79c0 -22 -15 -38 -32 -38c-15 0 -26 12 -26 26c0 15 12 30 30 34c-3 13 -11 28 -27 45c-30 29 -86 56 -158 56
c-213 0 -348 -211 -348 -392c0 -132 80 -241 234 -241c71 0 148 27 217 80l45 180h-211l4 22h237l-73 -294h-25zM218 -222l-6 11c44 26 72 57 81 94c-18 2 -30 14 -30 30c0 14 11 26 26 26c19 0 31 -16 31 -37c0 -46 -48 -100 -102 -124z" />
    <glyph glyph-name="gcommaaccent" unicode="&#x123;" horiz-adv-x="501" 
d="M157 -200c-46 0 -95 17 -120 44c-11 11 -16 22 -16 36c0 18 10 29 24 29s26 -12 26 -26c0 -12 -5 -20 -14 -25c14 -22 61 -38 104 -38c58 0 95 15 127 48c27 27 43 70 56 127c2 8 16 67 25 109c-36 -58 -92 -105 -166 -105c-91 0 -156 66 -156 171c0 121 84 248 213 248
c86 0 140 -55 153 -127c9 41 26 109 28 118h24l-97 -417c-15 -66 -33 -109 -64 -141c-35 -36 -77 -51 -147 -51zM205 19c115 0 195 135 195 236c0 80 -55 143 -139 143c-114 0 -189 -120 -189 -227c0 -92 51 -152 133 -152zM392 688l6 -11c-44 -26 -72 -57 -81 -94
c18 -2 30 -14 30 -30c0 -14 -11 -26 -26 -26c-19 0 -31 16 -31 37c0 46 48 100 102 124z" />
    <glyph glyph-name="Gdotaccent" unicode="&#x120;" horiz-adv-x="686" 
d="M530 0l16 63c-60 -46 -139 -73 -212 -73c-168 0 -258 112 -258 263c0 196 151 414 376 414c83 0 143 -32 176 -66c26 -27 35 -55 35 -79c0 -22 -15 -38 -32 -38c-15 0 -26 12 -26 26c0 15 12 30 30 34c-3 13 -11 28 -27 45c-30 29 -86 56 -158 56
c-213 0 -348 -211 -348 -392c0 -132 80 -241 234 -241c71 0 148 27 217 80l45 180h-211l4 22h237l-73 -294h-25zM476 740c-16 0 -28 12 -28 28s12 29 28 29s28 -13 28 -29s-12 -28 -28 -28z" />
    <glyph glyph-name="gdotaccent" unicode="&#x121;" horiz-adv-x="498" 
d="M157 -200c-46 0 -95 17 -120 44c-11 11 -16 22 -16 36c0 18 10 29 24 29s26 -12 26 -26c0 -12 -5 -20 -14 -25c14 -22 61 -38 104 -38c58 0 95 15 127 48c27 27 43 70 56 127c2 8 16 67 25 109c-36 -58 -92 -105 -166 -105c-91 0 -156 66 -156 171c0 121 84 248 213 248
c86 0 140 -55 153 -127c9 41 26 109 28 118h24l-97 -417c-15 -66 -33 -109 -64 -141c-35 -36 -77 -51 -147 -51zM205 19c115 0 195 135 195 236c0 80 -55 143 -139 143c-114 0 -189 -120 -189 -227c0 -92 51 -152 133 -152zM326 518c-16 0 -28 12 -28 28s12 29 28 29
s28 -13 28 -29s-12 -28 -28 -28z" />
    <glyph glyph-name="Hbar" unicode="&#x126;" horiz-adv-x="737" 
d="M745 504l-5 -22h-78l-106 -460h99l-5 -22h-216l5 22h91l71 306h-408l-71 -306h101l-5 -22h-217l5 22h90l105 460h-78l5 22h78l31 132h-99l5 22h218l-5 -22h-93l-30 -132h408l30 132h-102l5 22h218l-5 -22h-89l-31 -132h78zM198 350h408l30 132h-408z" />
    <glyph glyph-name="hbar" unicode="&#x127;" horiz-adv-x="505" 
d="M43 0l129 556h-75l5 20h75l32 136h-85l4 20h110l-37 -156h166l-5 -20h-165l-63 -265c36 67 92 127 170 127c64 0 109 -37 109 -99c0 -23 -6 -58 -16 -89l-34 -115c-8 -28 -13 -48 -13 -63c0 -23 15 -38 38 -38c26 0 44 17 65 71l17 -5c-23 -64 -46 -86 -83 -86
c-38 0 -61 22 -61 58c0 18 5 38 14 67l33 115c10 32 15 64 15 84c0 52 -31 80 -85 80c-86 0 -164 -93 -194 -221l-42 -177h-24z" />
    <glyph glyph-name="Iacute" unicode="&#xcd;" horiz-adv-x="312" 
d="M-2 0l5 22h98l141 614h-98l5 22h222l-4 -22h-99l-141 -614h98l-5 -22h-222zM234 719l-6 10l124 92c11 8 21 13 29 13c10 0 18 -10 18 -19s-8 -18 -24 -25z" />
    <glyph glyph-name="iacute" unicode="&#xed;" horiz-adv-x="269" 
d="M158 497l-6 10l124 92c11 8 21 13 29 13c10 0 18 -10 18 -19s-8 -18 -24 -25zM130 -6c-37 0 -61 22 -61 59c0 18 5 37 13 66l79 273h-90l4 20h115l-85 -297c-8 -28 -12 -48 -12 -64c0 -22 14 -37 38 -37c26 0 43 17 65 71l17 -5c-24 -64 -46 -86 -83 -86z" />
    <glyph glyph-name="Ibreve" unicode="&#x12c;" horiz-adv-x="312" 
d="M-2 0l5 22h98l141 614h-98l5 22h222l-4 -22h-99l-141 -614h98l-5 -22h-222zM278 718c-63 0 -100 42 -112 101l20 6c14 -51 44 -78 95 -78c55 0 98 30 127 78l16 -9c-26 -55 -83 -98 -146 -98z" />
    <glyph glyph-name="ibreve" unicode="&#x12d;" horiz-adv-x="269" 
d="M130 -6c-37 0 -61 22 -61 59c0 18 5 37 13 66l79 273h-90l4 20h115l-85 -297c-8 -28 -12 -48 -12 -64c0 -22 14 -37 38 -37c26 0 43 17 65 71l17 -5c-24 -64 -46 -86 -83 -86zM203 496c-63 0 -100 42 -112 101l20 6c14 -51 44 -78 95 -78c55 0 98 30 127 78l16 -9
c-26 -55 -83 -98 -146 -98z" />
    <glyph glyph-name="Icircumflex" unicode="&#xce;" horiz-adv-x="312" 
d="M-2 0l5 22h98l141 614h-98l5 22h222l-4 -22h-99l-141 -614h98l-5 -22h-222zM154 712l-8 11l156 119l97 -119l-10 -9l-91 87z" />
    <glyph glyph-name="icircumflex" unicode="&#xee;" horiz-adv-x="269" 
d="M78 490l-8 11l156 119l97 -119l-10 -9l-91 87zM130 -6c-37 0 -61 22 -61 59c0 18 5 37 13 66l79 273h-90l4 20h115l-85 -297c-8 -28 -12 -48 -12 -64c0 -22 14 -37 38 -37c26 0 43 17 65 71l17 -5c-24 -64 -46 -86 -83 -86z" />
    <glyph glyph-name="Idieresis" unicode="&#xcf;" horiz-adv-x="312" 
d="M-2 0l5 22h98l141 614h-98l5 22h222l-4 -22h-99l-141 -614h98l-5 -22h-222zM342 736c-15 0 -26 12 -26 26c0 15 11 27 26 27s26 -12 26 -27c0 -14 -11 -26 -26 -26zM228 736c-15 0 -26 12 -26 26c0 15 11 27 26 27s26 -12 26 -27c0 -14 -11 -26 -26 -26z" />
    <glyph glyph-name="idieresis" unicode="&#xef;" horiz-adv-x="269" 
d="M266 514c-15 0 -26 12 -26 26c0 15 11 27 26 27s26 -12 26 -27c0 -14 -11 -26 -26 -26zM152 514c-15 0 -26 12 -26 26c0 15 11 27 26 27s26 -12 26 -27c0 -14 -11 -26 -26 -26zM130 -6c-37 0 -61 22 -61 59c0 18 5 37 13 66l79 273h-90l4 20h115l-85 -297
c-8 -28 -12 -48 -12 -64c0 -22 14 -37 38 -37c26 0 43 17 65 71l17 -5c-24 -64 -46 -86 -83 -86z" />
    <glyph glyph-name="Idotaccent" unicode="&#x130;" horiz-adv-x="312" 
d="M-2 0l5 22h98l141 614h-98l5 22h222l-4 -22h-99l-141 -614h98l-5 -22h-222zM287 740c-16 0 -28 12 -28 28s12 29 28 29s28 -13 28 -29s-12 -28 -28 -28z" />
    <glyph glyph-name="dotlessi" unicode="&#x131;" horiz-adv-x="269" 
d="M130 -6c-37 0 -61 22 -61 59c0 18 5 37 13 66l79 273h-90l4 20h115l-85 -297c-8 -28 -12 -48 -12 -64c0 -22 14 -37 38 -37c26 0 43 17 65 71l17 -5c-24 -64 -46 -86 -83 -86z" />
    <glyph glyph-name="Igrave" unicode="&#xcc;" horiz-adv-x="312" 
d="M-2 0l5 22h98l141 614h-98l5 22h222l-4 -22h-99l-141 -614h98l-5 -22h-222zM316 719l-114 74c-13 8 -19 17 -19 25c0 9 8 18 17 18c10 0 16 -2 27 -14l97 -94z" />
    <glyph glyph-name="igrave" unicode="&#xec;" horiz-adv-x="269" 
d="M130 -6c-37 0 -61 22 -61 59c0 18 5 37 13 66l79 273h-90l4 20h115l-85 -297c-8 -28 -12 -48 -12 -64c0 -22 14 -37 38 -37c26 0 43 17 65 71l17 -5c-24 -64 -46 -86 -83 -86zM224 497l-114 74c-13 8 -19 17 -19 25c0 9 8 18 17 18c10 0 16 -2 27 -14l97 -94z" />
    <glyph glyph-name="Imacron" unicode="&#x12a;" horiz-adv-x="312" 
d="M-2 0l5 22h98l141 614h-98l5 22h222l-4 -22h-99l-141 -614h98l-5 -22h-222zM146 750l5 24h273l-5 -24h-273z" />
    <glyph glyph-name="imacron" unicode="&#x12b;" horiz-adv-x="269" 
d="M130 -6c-37 0 -61 22 -61 59c0 18 5 37 13 66l79 273h-90l4 20h115l-85 -297c-8 -28 -12 -48 -12 -64c0 -22 14 -37 38 -37c26 0 43 17 65 71l17 -5c-24 -64 -46 -86 -83 -86zM70 528l5 24h273l-5 -24h-273z" />
    <glyph glyph-name="Iogonek" unicode="&#x12e;" horiz-adv-x="312" 
d="M-2 0l5 22h98l141 614h-98l5 22h222l-4 -22h-99l-141 -614h98l-5 -22h-98c-59 -46 -90 -87 -90 -128c0 -32 20 -53 54 -53c20 0 38 4 49 8l-6 -20c-9 -3 -25 -9 -48 -9c-44 0 -73 25 -73 70s33 90 91 132h-101z" />
    <glyph glyph-name="iogonek" unicode="&#x12f;" horiz-adv-x="269" 
d="M196 85l17 -5c-10 -25 -20 -51 -52 -79c-38 -34 -97 -72 -97 -129c0 -32 20 -53 54 -53c20 0 38 4 48 8l-5 -20c-10 -3 -25 -9 -48 -9c-44 0 -73 25 -73 70c0 47 39 91 92 126h-2c-33 0 -61 18 -61 59c0 18 5 37 13 66l79 273h-90l4 20h115l-85 -297
c-8 -28 -12 -48 -12 -64c0 -23 14 -37 37 -37c25 0 44 17 66 71zM193 525c-13 0 -23 12 -23 25s10 24 23 24s24 -11 24 -24s-11 -25 -24 -25z" />
    <glyph glyph-name="Kcommaaccent" unicode="&#x136;" horiz-adv-x="626" 
d="M622 636l-309 -266l173 -348h92l-5 -22h-104l-174 355l-120 -103l-53 -230h101l-5 -22h-217l5 22h90l141 614h-99l5 22h218l-5 -22h-93l-81 -351l406 351h-104l5 22h214l-5 -22h-76zM188 -222l-6 11c44 26 72 57 81 94c-18 2 -30 14 -30 30c0 14 11 26 26 26
c19 0 31 -16 31 -37c0 -46 -48 -100 -102 -124z" />
    <glyph glyph-name="kcommaaccent" unicode="&#x137;" horiz-adv-x="443" 
d="M67 0h-24l165 712h-84l4 20h109l-125 -539c133 57 240 129 258 170c-12 6 -19 19 -19 29c0 16 12 26 25 26s25 -13 25 -32c0 -52 -95 -117 -187 -166l52 -125c14 -34 25 -54 35 -66c9 -12 18 -15 30 -15c22 0 40 21 57 83l18 -5c-17 -66 -39 -98 -77 -98
c-19 0 -34 5 -48 24c-12 14 -23 37 -36 69l-51 123c-31 -15 -63 -30 -87 -40zM80 -222l-6 11c44 26 72 57 81 94c-18 2 -30 14 -30 30c0 14 11 26 26 26c19 0 31 -16 31 -37c0 -46 -48 -100 -102 -124z" />
    <glyph glyph-name="Lacute" unicode="&#x139;" horiz-adv-x="511" 
d="M256 720l-6 10l124 92c11 8 21 13 29 13c10 0 18 -10 18 -19s-8 -18 -24 -25zM1 0l5 22h90l141 614h-99l5 22h218l-5 -22h-93l-141 -614h274l28 124h25l-33 -146h-415z" />
    <glyph glyph-name="lacute" unicode="&#x13a;" horiz-adv-x="241" 
d="M210 777l-6 10l124 92c11 8 21 13 29 13c10 0 18 -10 18 -19s-8 -18 -24 -25zM120 -6c-32 0 -60 21 -60 60c0 13 3 30 12 68l136 590h-83l4 20h108l-142 -615c-9 -37 -11 -51 -11 -63c0 -25 14 -40 37 -40c26 0 44 17 65 71l16 -5c-22 -64 -46 -86 -82 -86z" />
    <glyph glyph-name="Lcaron" unicode="&#x13d;" horiz-adv-x="511" 
d="M397 488l-9 8c22 27 38 51 45 78c7 25 6 47 9 63c2 13 10 21 21 21c12 0 17 -8 17 -20c0 -21 -11 -47 -23 -71c-16 -29 -37 -55 -60 -79zM1 0l5 22h90l141 614h-99l5 22h218l-5 -22h-93l-141 -614h274l28 124h25l-33 -146h-415z" />
    <glyph glyph-name="lcaron" unicode="&#x13e;" horiz-adv-x="242" 
d="M250 561l-9 8c22 27 38 51 45 78c7 25 6 47 9 63c2 13 10 21 21 21c12 0 17 -8 17 -20c0 -21 -11 -47 -23 -71c-16 -29 -37 -55 -60 -79zM121 -6c-32 0 -60 21 -60 60c0 13 3 30 12 68l136 590h-83l4 20h108l-142 -615c-9 -37 -11 -51 -11 -63c0 -25 14 -40 37 -40
c26 0 44 17 65 71l16 -5c-22 -64 -46 -86 -82 -86z" />
    <glyph glyph-name="Lcommaaccent" unicode="&#x13b;" horiz-adv-x="511" 
d="M139 -222l-6 11c44 26 72 57 81 94c-18 2 -30 14 -30 30c0 14 11 26 26 26c19 0 31 -16 31 -37c0 -46 -48 -100 -102 -124zM1 0l5 22h90l141 614h-99l5 22h218l-5 -22h-93l-141 -614h274l28 124h25l-33 -146h-415z" />
    <glyph glyph-name="lcommaaccent" unicode="&#x13c;" horiz-adv-x="242" 
d="M26 -222l-6 11c44 26 72 57 81 94c-18 2 -30 14 -30 30c0 14 11 26 26 26c19 0 31 -16 31 -37c0 -46 -48 -100 -102 -124zM121 -6c-32 0 -60 21 -60 60c0 13 3 30 12 68l136 590h-83l4 20h108l-142 -615c-9 -37 -11 -51 -11 -63c0 -25 14 -40 37 -40c26 0 44 17 65 71
l16 -5c-22 -64 -46 -86 -82 -86z" />
    <glyph glyph-name="Ldot" unicode="&#x13f;" horiz-adv-x="511" 
d="M1 0l5 22h90l141 614h-99l5 22h218l-5 -22h-93l-141 -614h274l28 124h25l-33 -146h-415zM438 322c-16 0 -28 12 -28 28s12 29 28 29s28 -13 28 -29s-12 -28 -28 -28z" />
    <glyph glyph-name="ldot" unicode="&#x140;" horiz-adv-x="268" 
d="M121 -6c-32 0 -60 21 -60 60c0 13 3 30 12 68l136 590h-83l4 20h108l-142 -615c-9 -37 -11 -51 -11 -63c0 -25 14 -40 37 -40c26 0 44 17 65 71l16 -5c-22 -64 -46 -86 -82 -86zM270 324c-16 0 -28 12 -28 28s12 29 28 29s28 -13 28 -29s-12 -28 -28 -28z" />
    <glyph glyph-name="Lslash" unicode="&#x141;" horiz-adv-x="518" 
d="M1 0l5 22h90l64 281l-112 -40l-7 21l125 44l71 308h-99l5 22h218l-5 -22h-93l-69 -298l153 54l6 -20l-164 -59l-67 -291h274l28 124h25l-33 -146h-415z" />
    <glyph glyph-name="lslash" unicode="&#x142;" horiz-adv-x="261" 
d="M125 -6c-32 0 -60 21 -60 60c0 13 3 30 12 68l63 274l-117 -49l-8 18l130 55l68 292h-83l4 20h108l-70 -301l123 51l9 -18l-137 -57l-67 -290c-9 -37 -11 -51 -11 -63c0 -25 14 -40 37 -40c26 0 44 17 65 71l16 -5c-22 -64 -46 -86 -82 -86z" />
    <glyph glyph-name="Nacute" unicode="&#x143;" horiz-adv-x="730" 
d="M446 719l-6 10l124 92c11 8 21 13 29 13c10 0 18 -10 18 -19s-8 -18 -24 -25zM542 -3l-286 615l-135 -590h102l-5 -22h-217l5 22h90l141 614h-98l4 22h117l285 -612l135 590h-103l5 22h218l-5 -22h-90l-147 -639h-16z" />
    <glyph glyph-name="nacute" unicode="&#x144;" horiz-adv-x="512" 
d="M281 497l-6 10l124 92c11 8 21 13 29 13c10 0 18 -10 18 -19s-8 -18 -24 -25zM395 -6c-38 0 -60 22 -60 58c0 18 4 38 13 67l36 115c10 31 16 64 16 85c0 51 -29 79 -84 79c-84 0 -163 -92 -195 -218l-45 -180h-24l98 392h-84l4 20h108l-32 -128c43 81 101 134 173 134
c64 0 105 -37 105 -98c0 -24 -7 -59 -17 -90l-36 -115c-8 -28 -13 -48 -13 -63c0 -23 15 -38 38 -38c26 0 44 17 66 71l16 -5c-23 -64 -46 -86 -83 -86z" />
    <glyph glyph-name="Ncaron" unicode="&#x147;" horiz-adv-x="730" 
d="M482 714l-97 119l10 9l91 -87l144 89l8 -11zM542 -3l-286 615l-135 -590h102l-5 -22h-217l5 22h90l141 614h-98l4 22h117l285 -612l135 590h-103l5 22h218l-5 -22h-90l-147 -639h-16z" />
    <glyph glyph-name="ncaron" unicode="&#x148;" horiz-adv-x="512" 
d="M317 492l-97 119l10 9l91 -87l144 89l8 -11zM395 -6c-38 0 -60 22 -60 58c0 18 4 38 13 67l36 115c10 31 16 64 16 85c0 51 -29 79 -84 79c-84 0 -163 -92 -195 -218l-45 -180h-24l98 392h-84l4 20h108l-32 -128c43 81 101 134 173 134c64 0 105 -37 105 -98
c0 -24 -7 -59 -17 -90l-36 -115c-8 -28 -13 -48 -13 -63c0 -23 15 -38 38 -38c26 0 44 17 66 71l16 -5c-23 -64 -46 -86 -83 -86z" />
    <glyph glyph-name="Ncommaaccent" unicode="&#x145;" horiz-adv-x="730" 
d="M234 -222l-6 11c44 26 72 57 81 94c-18 2 -30 14 -30 30c0 14 11 26 26 26c19 0 31 -16 31 -37c0 -46 -48 -100 -102 -124zM542 -3l-286 615l-135 -590h102l-5 -22h-217l5 22h90l141 614h-98l4 22h117l285 -612l135 590h-103l5 22h218l-5 -22h-90l-147 -639h-16z" />
    <glyph glyph-name="ncommaaccent" unicode="&#x146;" horiz-adv-x="512" 
d="M120 -222l-6 11c44 26 72 57 81 94c-18 2 -30 14 -30 30c0 14 11 26 26 26c19 0 31 -16 31 -37c0 -46 -48 -100 -102 -124zM395 -6c-38 0 -60 22 -60 58c0 18 4 38 13 67l36 115c10 31 16 64 16 85c0 51 -29 79 -84 79c-84 0 -163 -92 -195 -218l-45 -180h-24l98 392h-84
l4 20h108l-32 -128c43 81 101 134 173 134c64 0 105 -37 105 -98c0 -24 -7 -59 -17 -90l-36 -115c-8 -28 -13 -48 -13 -63c0 -23 15 -38 38 -38c26 0 44 17 66 71l16 -5c-23 -64 -46 -86 -83 -86z" />
    <glyph glyph-name="Ntilde" unicode="&#xd1;" horiz-adv-x="730" 
d="M542 -3l-286 615l-135 -590h102l-5 -22h-217l5 22h90l141 614h-98l4 22h117l285 -612l135 590h-103l5 22h218l-5 -22h-90l-147 -639h-16zM564 721c-28 0 -48 14 -74 36c-29 24 -42 31 -61 31c-30 0 -47 -19 -64 -61l-17 5c15 48 44 82 83 82c27 0 47 -14 74 -35
c30 -25 41 -32 61 -32c31 0 47 20 65 62l17 -5c-15 -48 -44 -83 -84 -83z" />
    <glyph glyph-name="ntilde" unicode="&#xf1;" horiz-adv-x="512" 
d="M395 -6c-38 0 -60 22 -60 58c0 18 4 38 13 67l36 115c10 31 16 64 16 85c0 51 -29 79 -84 79c-84 0 -163 -92 -195 -218l-45 -180h-24l98 392h-84l4 20h108l-32 -128c43 81 101 134 173 134c64 0 105 -37 105 -98c0 -24 -7 -59 -17 -90l-36 -115c-8 -28 -13 -48 -13 -63
c0 -23 15 -38 38 -38c26 0 44 17 66 71l16 -5c-23 -64 -46 -86 -83 -86zM399 499c-28 0 -48 14 -74 36c-29 24 -42 31 -61 31c-30 0 -47 -19 -64 -61l-17 5c15 48 44 82 83 82c27 0 47 -14 74 -35c30 -25 41 -32 61 -32c31 0 47 20 65 62l17 -5c-15 -48 -44 -83 -84 -83z
" />
    <glyph glyph-name="Oacute" unicode="&#xd3;" horiz-adv-x="719" 
d="M437 719l-6 10l124 92c11 8 21 13 29 13c10 0 18 -10 18 -19s-8 -18 -24 -25zM341 -9c-166 0 -264 124 -264 275c0 194 147 401 358 401c166 0 264 -124 264 -275c0 -194 -147 -401 -358 -401zM343 13c187 0 330 187 330 378c0 137 -82 254 -240 254
c-186 0 -330 -187 -330 -378c0 -137 82 -254 240 -254z" />
    <glyph glyph-name="oacute" unicode="&#xf3;" horiz-adv-x="486" 
d="M268 497l-6 10l124 92c11 8 21 13 29 13c10 0 18 -10 18 -19s-8 -18 -24 -25zM220 -6c-97 0 -174 67 -174 180c0 124 91 244 219 244c97 0 174 -67 174 -180c0 -125 -91 -244 -219 -244zM221 14c111 0 194 109 194 224c0 99 -63 160 -151 160c-111 0 -194 -109 -194 -224
c0 -99 64 -160 151 -160z" />
    <glyph glyph-name="Obreve" unicode="&#x14e;" horiz-adv-x="719" 
d="M341 -9c-166 0 -264 124 -264 275c0 194 147 401 358 401c166 0 264 -124 264 -275c0 -194 -147 -401 -358 -401zM343 13c187 0 330 187 330 378c0 137 -82 254 -240 254c-186 0 -330 -187 -330 -378c0 -137 82 -254 240 -254zM481 718c-63 0 -100 42 -112 101l20 6
c14 -51 44 -78 95 -78c55 0 98 30 127 78l16 -9c-26 -55 -83 -98 -146 -98z" />
    <glyph glyph-name="obreve" unicode="&#x14f;" horiz-adv-x="486" 
d="M220 -6c-97 0 -174 67 -174 180c0 124 91 244 219 244c97 0 174 -67 174 -180c0 -125 -91 -244 -219 -244zM221 14c111 0 194 109 194 224c0 99 -63 160 -151 160c-111 0 -194 -109 -194 -224c0 -99 64 -160 151 -160zM312 496c-63 0 -100 42 -112 101l20 6
c14 -51 44 -78 95 -78c55 0 98 30 127 78l16 -9c-26 -55 -83 -98 -146 -98z" />
    <glyph glyph-name="Ocircumflex" unicode="&#xd4;" horiz-adv-x="719" 
d="M356 712l-8 11l156 119l97 -119l-10 -9l-91 87zM341 -9c-166 0 -264 124 -264 275c0 194 147 401 358 401c166 0 264 -124 264 -275c0 -194 -147 -401 -358 -401zM343 13c187 0 330 187 330 378c0 137 -82 254 -240 254c-186 0 -330 -187 -330 -378
c0 -137 82 -254 240 -254z" />
    <glyph glyph-name="ocircumflex" unicode="&#xf4;" horiz-adv-x="486" 
d="M188 490l-8 11l156 119l97 -119l-10 -9l-91 87zM220 -6c-97 0 -174 67 -174 180c0 124 91 244 219 244c97 0 174 -67 174 -180c0 -125 -91 -244 -219 -244zM221 14c111 0 194 109 194 224c0 99 -63 160 -151 160c-111 0 -194 -109 -194 -224c0 -99 64 -160 151 -160z" />
    <glyph glyph-name="Odieresis" unicode="&#xd6;" horiz-adv-x="719" 
d="M544 736c-15 0 -26 12 -26 26c0 15 11 27 26 27s26 -12 26 -27c0 -14 -11 -26 -26 -26zM430 736c-15 0 -26 12 -26 26c0 15 11 27 26 27s26 -12 26 -27c0 -14 -11 -26 -26 -26zM341 -9c-166 0 -264 124 -264 275c0 194 147 401 358 401c166 0 264 -124 264 -275
c0 -194 -147 -401 -358 -401zM343 13c187 0 330 187 330 378c0 137 -82 254 -240 254c-186 0 -330 -187 -330 -378c0 -137 82 -254 240 -254z" />
    <glyph glyph-name="odieresis" unicode="&#xf6;" horiz-adv-x="486" 
d="M376 514c-15 0 -26 12 -26 26c0 15 11 27 26 27s26 -12 26 -27c0 -14 -11 -26 -26 -26zM262 514c-15 0 -26 12 -26 26c0 15 11 27 26 27s26 -12 26 -27c0 -14 -11 -26 -26 -26zM220 -6c-97 0 -174 67 -174 180c0 124 91 244 219 244c97 0 174 -67 174 -180
c0 -125 -91 -244 -219 -244zM221 14c111 0 194 109 194 224c0 99 -63 160 -151 160c-111 0 -194 -109 -194 -224c0 -99 64 -160 151 -160z" />
    <glyph glyph-name="OE" unicode="&#x152;" horiz-adv-x="923" 
d="M406 0c-116 0 -203 29 -257 83c-46 47 -70 109 -70 182c0 114 38 203 109 274c75 76 194 119 338 119h431l-33 -140h-24l27 118h-300l-66 -288h236l-5 -23h-237l-69 -303h299l28 118h25l-33 -140h-399zM409 22h50l142 614h-78c-134 0 -244 -42 -315 -113
c-65 -65 -103 -151 -103 -257c0 -68 22 -126 63 -167c49 -49 129 -77 241 -77z" />
    <glyph glyph-name="oe" unicode="&#x153;" horiz-adv-x="817" 
d="M715 50l-6 -24c-38 -21 -78 -32 -131 -32c-86 0 -152 49 -165 137c-33 -78 -104 -137 -193 -137c-97 0 -174 67 -174 180c0 124 91 244 219 244c87 0 153 -53 167 -144c35 83 109 144 202 144c82 0 138 -50 138 -147c0 -16 -3 -40 -9 -61h-329c-3 -15 -4 -31 -4 -47
c0 -94 63 -149 150 -149c48 0 91 11 135 36zM221 14c111 0 194 109 194 224c0 99 -63 160 -151 160c-111 0 -194 -109 -194 -224c0 -99 64 -160 151 -160zM632 398c-94 0 -169 -73 -194 -168h306c3 16 5 31 5 44c0 80 -46 124 -117 124z" />
    <glyph glyph-name="Ograve" unicode="&#xd2;" horiz-adv-x="719" 
d="M341 -9c-166 0 -264 124 -264 275c0 194 147 401 358 401c166 0 264 -124 264 -275c0 -194 -147 -401 -358 -401zM343 13c187 0 330 187 330 378c0 137 -82 254 -240 254c-186 0 -330 -187 -330 -378c0 -137 82 -254 240 -254zM518 719l-114 74c-13 8 -19 17 -19 25
c0 9 8 18 17 18c10 0 16 -2 27 -14l97 -94z" />
    <glyph glyph-name="ograve" unicode="&#xf2;" horiz-adv-x="486" 
d="M220 -6c-97 0 -174 67 -174 180c0 124 91 244 219 244c97 0 174 -67 174 -180c0 -125 -91 -244 -219 -244zM221 14c111 0 194 109 194 224c0 99 -63 160 -151 160c-111 0 -194 -109 -194 -224c0 -99 64 -160 151 -160zM350 497l-114 74c-13 8 -19 17 -19 25
c0 9 8 18 17 18c10 0 16 -2 27 -14l97 -94z" />
    <glyph glyph-name="Ohungarumlaut" unicode="&#x150;" horiz-adv-x="719" 
d="M373 718l-6 10l119 87c11 8 19 11 28 11c8 0 16 -8 16 -19c0 -10 -9 -17 -24 -24zM531 721l-6 10l124 82c10 7 19 9 26 9c10 0 17 -8 17 -18s-6 -17 -25 -24zM341 -9c-166 0 -264 124 -264 275c0 194 147 401 358 401c166 0 264 -124 264 -275
c0 -194 -147 -401 -358 -401zM343 13c187 0 330 187 330 378c0 137 -82 254 -240 254c-186 0 -330 -187 -330 -378c0 -137 82 -254 240 -254z" />
    <glyph glyph-name="ohungarumlaut" unicode="&#x151;" horiz-adv-x="486" 
d="M203 496l-6 10l119 87c11 8 19 11 28 11c8 0 16 -8 16 -19c0 -10 -9 -17 -24 -24zM361 499l-6 10l124 82c10 7 19 9 26 9c10 0 17 -8 17 -18s-6 -17 -25 -24zM220 -6c-97 0 -174 67 -174 180c0 124 91 244 219 244c97 0 174 -67 174 -180c0 -125 -91 -244 -219 -244z
M221 14c111 0 194 109 194 224c0 99 -63 160 -151 160c-111 0 -194 -109 -194 -224c0 -99 64 -160 151 -160z" />
    <glyph glyph-name="Omacron" unicode="&#x14c;" horiz-adv-x="719" 
d="M348 750l5 24h273l-5 -24h-273zM341 -9c-166 0 -264 124 -264 275c0 194 147 401 358 401c166 0 264 -124 264 -275c0 -194 -147 -401 -358 -401zM343 13c187 0 330 187 330 378c0 137 -82 254 -240 254c-186 0 -330 -187 -330 -378c0 -137 82 -254 240 -254z" />
    <glyph glyph-name="omacron" unicode="&#x14d;" horiz-adv-x="486" 
d="M180 528l5 24h273l-5 -24h-273zM220 -6c-97 0 -174 67 -174 180c0 124 91 244 219 244c97 0 174 -67 174 -180c0 -125 -91 -244 -219 -244zM221 14c111 0 194 109 194 224c0 99 -63 160 -151 160c-111 0 -194 -109 -194 -224c0 -99 64 -160 151 -160z" />
    <glyph glyph-name="Oslash" unicode="&#xd8;" horiz-adv-x="719" 
d="M341 -9c-97 0 -171 42 -215 107l-124 -106l-13 16l125 108c-24 43 -37 95 -37 150c0 194 147 401 358 401c92 0 163 -39 208 -99l117 101l14 -16l-119 -102c29 -45 44 -100 44 -159c0 -194 -147 -401 -358 -401zM343 13c187 0 330 187 330 378c0 53 -13 103 -37 144
l-492 -421c39 -61 106 -101 199 -101zM103 267c0 -49 10 -96 31 -135l491 420c-40 56 -104 93 -192 93c-186 0 -330 -187 -330 -378z" />
    <glyph glyph-name="oslash" unicode="&#xf8;" horiz-adv-x="486" 
d="M220 -6c-55 0 -103 21 -135 60l-68 -61l-13 15l70 61c-18 28 -28 63 -28 105c0 124 91 244 219 244c56 0 105 -23 136 -63l70 61l14 -15l-73 -62c17 -27 27 -61 27 -101c0 -125 -91 -244 -219 -244zM70 174c0 -35 8 -65 22 -89l293 255c-27 37 -70 58 -121 58
c-111 0 -194 -109 -194 -224zM221 14c111 0 194 109 194 224c0 33 -7 62 -20 86l-293 -256c27 -35 69 -54 119 -54z" />
    <glyph glyph-name="Oslashacute" unicode="&#x1fe;" horiz-adv-x="719" 
d="M341 -9c-97 0 -171 42 -215 107l-124 -106l-13 16l125 108c-24 43 -37 95 -37 150c0 194 147 401 358 401c92 0 163 -39 208 -99l117 101l14 -16l-119 -102c29 -45 44 -100 44 -159c0 -194 -147 -401 -358 -401zM343 13c187 0 330 187 330 378c0 53 -13 103 -37 144
l-492 -421c39 -61 106 -101 199 -101zM103 267c0 -49 10 -96 31 -135l491 420c-40 56 -104 93 -192 93c-186 0 -330 -187 -330 -378zM429 719l-6 10l124 92c11 8 21 13 29 13c10 0 18 -10 18 -19s-8 -18 -24 -25z" />
    <glyph glyph-name="oslashacute" unicode="&#x1ff;" horiz-adv-x="486" 
d="M220 -6c-55 0 -103 21 -135 60l-68 -61l-13 15l70 61c-18 28 -28 63 -28 105c0 124 91 244 219 244c56 0 105 -23 136 -63l70 61l14 -15l-73 -62c17 -27 27 -61 27 -101c0 -125 -91 -244 -219 -244zM70 174c0 -35 8 -65 22 -89l293 255c-27 37 -70 58 -121 58
c-111 0 -194 -109 -194 -224zM221 14c111 0 194 109 194 224c0 33 -7 62 -20 86l-293 -256c27 -35 69 -54 119 -54zM270 497l-6 10l124 92c11 8 21 13 29 13c10 0 18 -10 18 -19s-8 -18 -24 -25z" />
    <glyph glyph-name="Otilde" unicode="&#xd5;" horiz-adv-x="719" 
d="M341 -9c-166 0 -264 124 -264 275c0 194 147 401 358 401c166 0 264 -124 264 -275c0 -194 -147 -401 -358 -401zM343 13c187 0 330 187 330 378c0 137 -82 254 -240 254c-186 0 -330 -187 -330 -378c0 -137 82 -254 240 -254zM555 721c-28 0 -48 14 -74 36
c-29 24 -42 31 -61 31c-30 0 -47 -19 -64 -61l-17 5c15 48 44 82 83 82c27 0 47 -14 74 -35c30 -25 41 -32 61 -32c31 0 47 20 65 62l17 -5c-15 -48 -44 -83 -84 -83z" />
    <glyph glyph-name="otilde" unicode="&#xf5;" horiz-adv-x="486" 
d="M220 -6c-97 0 -174 67 -174 180c0 124 91 244 219 244c97 0 174 -67 174 -180c0 -125 -91 -244 -219 -244zM221 14c111 0 194 109 194 224c0 99 -63 160 -151 160c-111 0 -194 -109 -194 -224c0 -99 64 -160 151 -160zM387 499c-28 0 -48 14 -74 36c-29 24 -42 31 -61 31
c-30 0 -47 -19 -64 -61l-17 5c15 48 44 82 83 82c27 0 47 -14 74 -35c30 -25 41 -32 61 -32c31 0 47 20 65 62l17 -5c-15 -48 -44 -83 -84 -83z" />
    <glyph glyph-name="Racute" unicode="&#x154;" horiz-adv-x="578" 
d="M1 0l5 22h90l141 614h-99l5 22h192c85 0 146 -20 185 -59c27 -26 41 -64 41 -110c0 -101 -80 -180 -218 -195l124 -272h77l-5 -22h-90l-130 291h-25c-60 0 -81 0 -109 2l-63 -271h101l-5 -22h-217zM293 313c152 0 243 72 243 177c0 38 -11 71 -35 94
c-33 34 -88 52 -170 52h-68l-73 -321c24 -2 53 -2 103 -2zM354 719l-6 10l124 92c11 8 21 13 29 13c10 0 18 -10 18 -19s-8 -18 -24 -25z" />
    <glyph glyph-name="racute" unicode="&#x155;" horiz-adv-x="308" 
d="M54 0l97 392h-84l4 20h108l-34 -137c45 97 99 143 137 143c21 0 36 -15 36 -32c0 -13 -10 -23 -24 -23c-16 0 -26 13 -27 28c-47 -6 -119 -109 -146 -218l-43 -173h-24zM204 497l-6 10l124 92c11 8 21 13 29 13c10 0 18 -10 18 -19s-8 -18 -24 -25z" />
    <glyph glyph-name="Rcaron" unicode="&#x158;" horiz-adv-x="578" 
d="M1 0l5 22h90l141 614h-99l5 22h192c85 0 146 -20 185 -59c27 -26 41 -64 41 -110c0 -101 -80 -180 -218 -195l124 -272h77l-5 -22h-90l-130 291h-25c-60 0 -81 0 -109 2l-63 -271h101l-5 -22h-217zM293 313c152 0 243 72 243 177c0 38 -11 71 -35 94
c-33 34 -88 52 -170 52h-68l-73 -321c24 -2 53 -2 103 -2zM390 714l-97 119l10 9l91 -87l144 89l8 -11z" />
    <glyph glyph-name="rcaron" unicode="&#x159;" horiz-adv-x="308" 
d="M54 0l97 392h-84l4 20h108l-34 -137c45 97 99 143 137 143c21 0 36 -15 36 -32c0 -13 -10 -23 -24 -23c-16 0 -26 13 -27 28c-47 -6 -119 -109 -146 -218l-43 -173h-24zM239 492l-97 119l10 9l91 -87l144 89l8 -11z" />
    <glyph glyph-name="Rcommaaccent" unicode="&#x156;" horiz-adv-x="578" 
d="M1 0l5 22h90l141 614h-99l5 22h192c85 0 146 -20 185 -59c27 -26 41 -64 41 -110c0 -101 -80 -180 -218 -195l124 -272h77l-5 -22h-90l-130 291h-25c-60 0 -81 0 -109 2l-63 -271h101l-5 -22h-217zM293 313c152 0 243 72 243 177c0 38 -11 71 -35 94
c-33 34 -88 52 -170 52h-68l-73 -321c24 -2 53 -2 103 -2zM167 -222l-6 11c44 26 72 57 81 94c-18 2 -30 14 -30 30c0 14 11 26 26 26c19 0 31 -16 31 -37c0 -46 -48 -100 -102 -124z" />
    <glyph glyph-name="rcommaaccent" unicode="&#x157;" horiz-adv-x="306" 
d="M53 0l97 392h-84l4 20h108l-34 -137c45 97 99 143 137 143c21 0 36 -15 36 -32c0 -13 -10 -23 -24 -23c-16 0 -26 13 -27 28c-47 -6 -119 -109 -146 -218l-43 -173h-24zM-19 -222l-6 11c44 26 72 57 81 94c-18 2 -30 14 -30 30c0 14 11 26 26 26c19 0 31 -16 31 -37
c0 -46 -48 -100 -102 -124z" />
    <glyph glyph-name="Sacute" unicode="&#x15a;" horiz-adv-x="504" 
d="M334 719l-6 10l124 92c11 8 21 13 29 13c10 0 18 -10 18 -19s-8 -18 -24 -25zM238 -9c-120 0 -206 76 -206 131c0 17 10 33 29 33c16 0 26 -12 26 -26s-8 -25 -21 -30c17 -41 86 -86 174 -86c101 0 171 60 171 143c0 74 -51 114 -135 172c-82 55 -135 102 -135 182
c0 95 86 157 186 157c99 0 177 -60 177 -119c0 -20 -10 -34 -28 -34c-14 0 -26 12 -26 27c0 12 8 24 22 30c-15 39 -69 74 -147 74c-86 0 -159 -51 -159 -134c0 -71 48 -111 131 -167c85 -57 139 -102 139 -186c0 -97 -76 -167 -198 -167z" />
    <glyph glyph-name="sacute" unicode="&#x15b;" horiz-adv-x="384" 
d="M225 497l-6 10l124 92c11 8 21 13 29 13c10 0 18 -10 18 -19s-8 -18 -24 -25zM174 -6c-55 0 -103 22 -128 49c-14 15 -22 32 -22 49s10 30 25 30c11 0 20 -11 20 -22c0 -15 -8 -24 -17 -28c2 -6 8 -14 15 -21c20 -20 58 -37 108 -37c68 0 114 38 114 90
c0 47 -42 71 -101 100c-55 26 -104 54 -104 107c0 63 59 107 130 107c51 0 97 -20 120 -44c13 -14 19 -29 19 -42c0 -18 -10 -28 -22 -28c-13 0 -23 10 -23 23c0 11 6 21 14 27c-3 5 -7 11 -15 17c-20 15 -55 27 -94 27c-59 0 -106 -36 -106 -85c0 -43 35 -63 97 -92
c56 -28 108 -57 108 -116c0 -70 -60 -111 -138 -111z" />
    <glyph glyph-name="Scaron" unicode="&#x160;" horiz-adv-x="504" 
d="M371 714l-97 119l10 9l91 -87l144 89l8 -11zM238 -9c-120 0 -206 76 -206 131c0 17 10 33 29 33c16 0 26 -12 26 -26s-8 -25 -21 -30c17 -41 86 -86 174 -86c101 0 171 60 171 143c0 74 -51 114 -135 172c-82 55 -135 102 -135 182c0 95 86 157 186 157
c99 0 177 -60 177 -119c0 -20 -10 -34 -28 -34c-14 0 -26 12 -26 27c0 12 8 24 22 30c-15 39 -69 74 -147 74c-86 0 -159 -51 -159 -134c0 -71 48 -111 131 -167c85 -57 139 -102 139 -186c0 -97 -76 -167 -198 -167z" />
    <glyph glyph-name="scaron" unicode="&#x161;" horiz-adv-x="384" 
d="M261 492l-97 119l10 9l91 -87l144 89l8 -11zM174 -6c-55 0 -103 22 -128 49c-14 15 -22 32 -22 49s10 30 25 30c11 0 20 -11 20 -22c0 -15 -8 -24 -17 -28c2 -6 8 -14 15 -21c20 -20 58 -37 108 -37c68 0 114 38 114 90c0 47 -42 71 -101 100c-55 26 -104 54 -104 107
c0 63 59 107 130 107c51 0 97 -20 120 -44c13 -14 19 -29 19 -42c0 -18 -10 -28 -22 -28c-13 0 -23 10 -23 23c0 11 6 21 14 27c-3 5 -7 11 -15 17c-20 15 -55 27 -94 27c-59 0 -106 -36 -106 -85c0 -43 35 -63 97 -92c56 -28 108 -57 108 -116c0 -70 -60 -111 -138 -111z
" />
    <glyph glyph-name="Scedilla" unicode="&#x15e;" horiz-adv-x="504" 
d="M238 -9c-9 0 -17 0 -26 1l-23 -59c56 -3 79 -30 79 -62c0 -39 -30 -71 -89 -71c-35 0 -73 11 -102 31l11 16c28 -16 62 -27 92 -27c44 0 64 25 64 50c0 29 -26 49 -79 45l-5 5l35 75c-97 14 -163 79 -163 127c0 17 10 33 29 33c16 0 26 -12 26 -26s-8 -25 -21 -30
c17 -41 86 -86 174 -86c101 0 171 60 171 143c0 74 -51 114 -135 172c-82 55 -135 102 -135 182c0 95 86 157 186 157c99 0 177 -60 177 -119c0 -20 -10 -34 -28 -34c-14 0 -26 12 -26 27c0 12 8 24 22 30c-15 39 -69 74 -147 74c-86 0 -159 -51 -159 -134
c0 -71 48 -111 131 -167c85 -57 139 -102 139 -186c0 -97 -76 -167 -198 -167z" />
    <glyph glyph-name="scedilla" unicode="&#x15f;" horiz-adv-x="384" 
d="M138 -200c-35 0 -73 11 -102 31l11 16c28 -16 62 -27 92 -27c44 0 64 25 64 50c0 29 -26 49 -79 45l-5 5l35 75c-47 5 -86 24 -108 48c-14 15 -22 32 -22 49s10 30 25 30c11 0 20 -11 20 -22c0 -15 -8 -24 -17 -28c2 -6 8 -14 15 -21c20 -20 58 -37 108 -37
c68 0 114 38 114 90c0 47 -42 71 -101 100c-55 26 -104 54 -104 107c0 63 59 107 130 107c51 0 97 -20 120 -44c13 -14 19 -29 19 -42c0 -18 -10 -28 -22 -28c-13 0 -23 10 -23 23c0 11 6 21 14 27c-3 5 -7 11 -15 17c-20 15 -55 27 -94 27c-59 0 -106 -36 -106 -85
c0 -43 35 -63 97 -92c56 -28 108 -57 108 -116c0 -70 -60 -111 -138 -111h-2l-24 -61c56 -3 79 -30 79 -62c0 -39 -30 -71 -89 -71z" />
    <glyph glyph-name="Scommaaccent" unicode="&#x218;" horiz-adv-x="504" 
d="M121 -222l-6 11c44 26 72 57 81 94c-18 2 -30 14 -30 30c0 14 11 26 26 26c19 0 31 -16 31 -37c0 -46 -48 -100 -102 -124zM238 -9c-120 0 -206 76 -206 131c0 17 10 33 29 33c16 0 26 -12 26 -26s-8 -25 -21 -30c17 -41 86 -86 174 -86c101 0 171 60 171 143
c0 74 -51 114 -135 172c-82 55 -135 102 -135 182c0 95 86 157 186 157c99 0 177 -60 177 -119c0 -20 -10 -34 -28 -34c-14 0 -26 12 -26 27c0 12 8 24 22 30c-15 39 -69 74 -147 74c-86 0 -159 -51 -159 -134c0 -71 48 -111 131 -167c85 -57 139 -102 139 -186
c0 -97 -76 -167 -198 -167z" />
    <glyph glyph-name="scommaaccent" unicode="&#x219;" horiz-adv-x="384" 
d="M62 -222l-6 11c44 26 72 57 81 94c-18 2 -30 14 -30 30c0 14 11 26 26 26c19 0 31 -16 31 -37c0 -46 -48 -100 -102 -124zM174 -6c-55 0 -103 22 -128 49c-14 15 -22 32 -22 49s10 30 25 30c11 0 20 -11 20 -22c0 -15 -8 -24 -17 -28c2 -6 8 -14 15 -21
c20 -20 58 -37 108 -37c68 0 114 38 114 90c0 47 -42 71 -101 100c-55 26 -104 54 -104 107c0 63 59 107 130 107c51 0 97 -20 120 -44c13 -14 19 -29 19 -42c0 -18 -10 -28 -22 -28c-13 0 -23 10 -23 23c0 11 6 21 14 27c-3 5 -7 11 -15 17c-20 15 -55 27 -94 27
c-59 0 -106 -36 -106 -85c0 -43 35 -63 97 -92c56 -28 108 -57 108 -116c0 -70 -60 -111 -138 -111z" />
    <glyph glyph-name="Tcaron" unicode="&#x164;" horiz-adv-x="596" 
d="M410 714l-97 119l10 9l91 -87l144 89l8 -11zM143 0l5 22h94l141 614h-217l-29 -125h-25l35 147h511l-35 -147h-25l29 125h-217l-142 -614h104l-4 -22h-225z" />
    <glyph glyph-name="tcaron" unicode="&#x165;" horiz-adv-x="296" 
d="M290 392h-132l-71 -284c-4 -17 -7 -32 -7 -47c0 -32 20 -46 47 -46c23 0 51 13 94 45l10 -15c-44 -36 -77 -51 -105 -51c-41 0 -70 23 -70 67c0 15 4 33 8 50l70 281h-78l4 20h79l27 107l25 6l-28 -113h131zM231 477l-9 8c22 27 38 51 45 78c7 25 6 47 9 63
c2 13 10 21 21 21c12 0 17 -8 17 -20c0 -21 -11 -47 -23 -71c-16 -29 -37 -55 -60 -79z" />
    <glyph glyph-name="Tcommaaccent" unicode="&#x162;" horiz-adv-x="596" 
d="M161 -222l-6 11c44 26 72 57 81 94c-18 2 -30 14 -30 30c0 14 11 26 26 26c19 0 31 -16 31 -37c0 -46 -48 -100 -102 -124zM143 0l5 22h94l141 614h-217l-29 -125h-25l35 147h511l-35 -147h-25l29 125h-217l-142 -614h104l-4 -22h-225z" />
    <glyph glyph-name="tcommaaccent" unicode="&#x163;" horiz-adv-x="296" 
d="M290 392h-132l-71 -284c-4 -17 -7 -32 -7 -47c0 -32 20 -46 47 -46c23 0 51 13 94 45l10 -15c-44 -36 -77 -51 -105 -51c-41 0 -70 23 -70 67c0 15 4 33 8 50l70 281h-78l4 20h79l27 107l25 6l-28 -113h131zM27 -222l-6 11c44 26 72 57 81 94c-18 2 -30 14 -30 30
c0 14 11 26 26 26c19 0 31 -16 31 -37c0 -46 -48 -100 -102 -124z" />
    <glyph glyph-name="Thorn" unicode="&#xde;" horiz-adv-x="540" 
d="M1 0l5 22h90l141 614h-97l5 22h216l-5 -22h-93l-25 -111h78c72 0 129 -20 166 -58c29 -30 44 -67 44 -111c0 -121 -100 -213 -268 -213c-31 0 -84 2 -106 4l-30 -125h100l-5 -22h-216zM260 166c159 0 240 87 240 189c0 37 -13 70 -37 95c-33 34 -84 52 -151 52h-79
l-77 -333c25 -2 74 -3 104 -3z" />
    <glyph glyph-name="thorn" unicode="&#xfe;" horiz-adv-x="506" 
d="M-61 -196l5 20h58l206 888h-84l4 20h109l-97 -418c35 58 91 104 166 104c91 0 153 -62 153 -172c0 -128 -82 -252 -213 -252c-78 0 -139 47 -152 125l-68 -295h88l-4 -20h-171zM246 14c114 0 188 118 188 231c0 96 -48 153 -130 153c-115 0 -198 -133 -198 -235
c0 -89 56 -149 140 -149z" />
    <glyph glyph-name="Uacute" unicode="&#xda;" horiz-adv-x="680" 
d="M413 719l-6 10l124 92c11 8 21 13 29 13c10 0 18 -10 18 -19s-8 -18 -24 -25zM314 -9c-109 0 -191 58 -191 173c0 31 6 67 14 102l85 370h-99l5 22h218l-5 -22h-94l-86 -373c-8 -35 -12 -65 -12 -96c0 -104 69 -154 167 -154c122 0 189 80 222 228l91 395h-103l5 22h218
l-5 -22h-90l-92 -397c-37 -162 -109 -248 -248 -248z" />
    <glyph glyph-name="uacute" unicode="&#xfa;" horiz-adv-x="514" 
d="M63 412h107l-58 -235c-12 -48 -14 -68 -14 -86c0 -46 28 -77 80 -77c82 0 161 92 192 217l45 181h24l-75 -302c-7 -26 -10 -44 -10 -58c0 -23 14 -38 37 -38c26 0 43 17 65 71l17 -5c-24 -64 -46 -86 -83 -86c-33 0 -58 22 -58 58c0 17 5 39 11 66c0 1 1 4 1 7
c-39 -74 -96 -131 -169 -131c-61 0 -102 38 -102 97c0 21 5 42 16 89l53 212h-84zM265 497l-6 10l124 92c11 8 21 13 29 13c10 0 18 -10 18 -19s-8 -18 -24 -25z" />
    <glyph glyph-name="Ubreve" unicode="&#x16c;" horiz-adv-x="680" 
d="M314 -9c-109 0 -191 58 -191 173c0 31 6 67 14 102l85 370h-99l5 22h218l-5 -22h-94l-86 -373c-8 -35 -12 -65 -12 -96c0 -104 69 -154 167 -154c122 0 189 80 222 228l91 395h-103l5 22h218l-5 -22h-90l-92 -397c-37 -162 -109 -248 -248 -248zM456 718
c-63 0 -100 42 -112 101l20 6c14 -51 44 -78 95 -78c55 0 98 30 127 78l16 -9c-26 -55 -83 -98 -146 -98z" />
    <glyph glyph-name="ubreve" unicode="&#x16d;" horiz-adv-x="514" 
d="M63 412h107l-58 -235c-12 -48 -14 -68 -14 -86c0 -46 28 -77 80 -77c82 0 161 92 192 217l45 181h24l-75 -302c-7 -26 -10 -44 -10 -58c0 -23 14 -38 37 -38c26 0 43 17 65 71l17 -5c-24 -64 -46 -86 -83 -86c-33 0 -58 22 -58 58c0 17 5 39 11 66c0 1 1 4 1 7
c-39 -74 -96 -131 -169 -131c-61 0 -102 38 -102 97c0 21 5 42 16 89l53 212h-84zM310 496c-63 0 -100 42 -112 101l20 6c14 -51 44 -78 95 -78c55 0 98 30 127 78l16 -9c-26 -55 -83 -98 -146 -98z" />
    <glyph glyph-name="Ucircumflex" unicode="&#xdb;" horiz-adv-x="680" 
d="M332 712l-8 11l156 119l97 -119l-10 -9l-91 87zM314 -9c-109 0 -191 58 -191 173c0 31 6 67 14 102l85 370h-99l5 22h218l-5 -22h-94l-86 -373c-8 -35 -12 -65 -12 -96c0 -104 69 -154 167 -154c122 0 189 80 222 228l91 395h-103l5 22h218l-5 -22h-90l-92 -397
c-37 -162 -109 -248 -248 -248z" />
    <glyph glyph-name="ucircumflex" unicode="&#xfb;" horiz-adv-x="514" 
d="M63 412h107l-58 -235c-12 -48 -14 -68 -14 -86c0 -46 28 -77 80 -77c82 0 161 92 192 217l45 181h24l-75 -302c-7 -26 -10 -44 -10 -58c0 -23 14 -38 37 -38c26 0 43 17 65 71l17 -5c-24 -64 -46 -86 -83 -86c-33 0 -58 22 -58 58c0 17 5 39 11 66c0 1 1 4 1 7
c-39 -74 -96 -131 -169 -131c-61 0 -102 38 -102 97c0 21 5 42 16 89l53 212h-84zM185 490l-8 11l156 119l97 -119l-10 -9l-91 87z" />
    <glyph glyph-name="Udieresis" unicode="&#xdc;" horiz-adv-x="680" 
d="M520 736c-15 0 -26 12 -26 26c0 15 11 27 26 27s26 -12 26 -27c0 -14 -11 -26 -26 -26zM406 736c-15 0 -26 12 -26 26c0 15 11 27 26 27s26 -12 26 -27c0 -14 -11 -26 -26 -26zM314 -9c-109 0 -191 58 -191 173c0 31 6 67 14 102l85 370h-99l5 22h218l-5 -22h-94
l-86 -373c-8 -35 -12 -65 -12 -96c0 -104 69 -154 167 -154c122 0 189 80 222 228l91 395h-103l5 22h218l-5 -22h-90l-92 -397c-37 -162 -109 -248 -248 -248z" />
    <glyph glyph-name="udieresis" unicode="&#xfc;" horiz-adv-x="514" 
d="M63 412h107l-58 -235c-12 -48 -14 -68 -14 -86c0 -46 28 -77 80 -77c82 0 161 92 192 217l45 181h24l-75 -302c-7 -26 -10 -44 -10 -58c0 -23 14 -38 37 -38c26 0 43 17 65 71l17 -5c-24 -64 -46 -86 -83 -86c-33 0 -58 22 -58 58c0 17 5 39 11 66c0 1 1 4 1 7
c-39 -74 -96 -131 -169 -131c-61 0 -102 38 -102 97c0 21 5 42 16 89l53 212h-84zM259 514c-15 0 -26 12 -26 26c0 15 11 27 26 27s26 -12 26 -27c0 -14 -11 -26 -26 -26zM373 514c-15 0 -26 12 -26 26c0 15 11 27 26 27s26 -12 26 -27c0 -14 -11 -26 -26 -26z" />
    <glyph glyph-name="Ugrave" unicode="&#xd9;" horiz-adv-x="680" 
d="M314 -9c-109 0 -191 58 -191 173c0 31 6 67 14 102l85 370h-99l5 22h218l-5 -22h-94l-86 -373c-8 -35 -12 -65 -12 -96c0 -104 69 -154 167 -154c122 0 189 80 222 228l91 395h-103l5 22h218l-5 -22h-90l-92 -397c-37 -162 -109 -248 -248 -248zM494 719l-114 74
c-13 8 -19 17 -19 25c0 9 8 18 17 18c10 0 16 -2 27 -14l97 -94z" />
    <glyph glyph-name="ugrave" unicode="&#xf9;" horiz-adv-x="514" 
d="M63 412h107l-58 -235c-12 -48 -14 -68 -14 -86c0 -46 28 -77 80 -77c82 0 161 92 192 217l45 181h24l-75 -302c-7 -26 -10 -44 -10 -58c0 -23 14 -38 37 -38c26 0 43 17 65 71l17 -5c-24 -64 -46 -86 -83 -86c-33 0 -58 22 -58 58c0 17 5 39 11 66c0 1 1 4 1 7
c-39 -74 -96 -131 -169 -131c-61 0 -102 38 -102 97c0 21 5 42 16 89l53 212h-84zM347 497l-114 74c-13 8 -19 17 -19 25c0 9 8 18 17 18c10 0 16 -2 27 -14l97 -94z" />
    <glyph glyph-name="Uhungarumlaut" unicode="&#x170;" horiz-adv-x="680" 
d="M314 -9c-109 0 -191 58 -191 173c0 31 6 67 14 102l85 370h-99l5 22h218l-5 -22h-94l-86 -373c-8 -35 -12 -65 -12 -96c0 -104 69 -154 167 -154c122 0 189 80 222 228l91 395h-103l5 22h218l-5 -22h-90l-92 -397c-37 -162 -109 -248 -248 -248zM348 718l-6 10l119 87
c11 8 19 11 28 11c8 0 16 -8 16 -19c0 -10 -9 -17 -24 -24zM506 721l-6 10l124 82c10 7 19 9 26 9c10 0 17 -8 17 -18s-6 -17 -25 -24z" />
    <glyph glyph-name="uhungarumlaut" unicode="&#x171;" horiz-adv-x="514" 
d="M63 412h107l-58 -235c-12 -48 -14 -68 -14 -86c0 -46 28 -77 80 -77c82 0 161 92 192 217l45 181h24l-75 -302c-7 -26 -10 -44 -10 -58c0 -23 14 -38 37 -38c26 0 43 17 65 71l17 -5c-24 -64 -46 -86 -83 -86c-33 0 -58 22 -58 58c0 17 5 39 11 66c0 1 1 4 1 7
c-39 -74 -96 -131 -169 -131c-61 0 -102 38 -102 97c0 21 5 42 16 89l53 212h-84zM201 496l-6 10l119 87c11 8 19 11 28 11c8 0 16 -8 16 -19c0 -10 -9 -17 -24 -24zM359 499l-6 10l124 82c10 7 19 9 26 9c10 0 17 -8 17 -18s-6 -17 -25 -24z" />
    <glyph glyph-name="Umacron" unicode="&#x16a;" horiz-adv-x="680" 
d="M314 -9c-109 0 -191 58 -191 173c0 31 6 67 14 102l85 370h-99l5 22h218l-5 -22h-94l-86 -373c-8 -35 -12 -65 -12 -96c0 -104 69 -154 167 -154c122 0 189 80 222 228l91 395h-103l5 22h218l-5 -22h-90l-92 -397c-37 -162 -109 -248 -248 -248zM324 750l5 24h273l-5 -24
h-273z" />
    <glyph glyph-name="umacron" unicode="&#x16b;" horiz-adv-x="514" 
d="M63 412h107l-58 -235c-12 -48 -14 -68 -14 -86c0 -46 28 -77 80 -77c82 0 161 92 192 217l45 181h24l-75 -302c-7 -26 -10 -44 -10 -58c0 -23 14 -38 37 -38c26 0 43 17 65 71l17 -5c-24 -64 -46 -86 -83 -86c-33 0 -58 22 -58 58c0 17 5 39 11 66c0 1 1 4 1 7
c-39 -74 -96 -131 -169 -131c-61 0 -102 38 -102 97c0 21 5 42 16 89l53 212h-84zM177 528l5 24h273l-5 -24h-273z" />
    <glyph glyph-name="Uogonek" unicode="&#x172;" horiz-adv-x="680" 
d="M235 -132c0 44 31 90 74 123c-106 2 -186 59 -186 173c0 31 6 67 14 102l85 370h-99l5 22h218l-5 -22h-94l-86 -373c-8 -35 -12 -65 -12 -96c0 -104 69 -154 167 -154c122 0 189 80 222 228l91 395h-103l5 22h218l-5 -22h-90l-92 -397c-35 -154 -102 -239 -227 -247
c-48 -38 -78 -76 -78 -120c0 -32 20 -54 54 -54c19 0 36 5 48 10l-5 -21c-10 -3 -25 -9 -48 -9c-44 0 -71 29 -71 70z" />
    <glyph glyph-name="uogonek" unicode="&#x173;" horiz-adv-x="514" 
d="M456 85l17 -5c-10 -24 -20 -51 -53 -79c-37 -34 -97 -72 -97 -129c0 -32 21 -53 54 -53c21 0 38 4 49 8l-6 -20c-9 -3 -25 -9 -47 -9c-44 0 -73 25 -73 70c0 47 38 91 91 126h-1c-33 0 -58 22 -58 58c0 17 5 39 11 66c0 1 1 4 1 7c-39 -74 -96 -131 -169 -131
c-61 0 -102 38 -102 97c0 21 5 42 16 89l53 212h-84l5 20h107l-58 -235c-12 -48 -14 -68 -14 -86c0 -46 28 -77 80 -77c82 0 161 92 192 217l45 181h24l-75 -302c-7 -26 -10 -44 -10 -58c0 -23 13 -38 35 -38c26 0 45 17 67 71z" />
    <glyph glyph-name="Uring" unicode="&#x16e;" horiz-adv-x="680" 
d="M461 710c-44 0 -71 34 -71 71c0 51 38 100 90 100c44 0 72 -33 72 -71c0 -50 -39 -100 -91 -100zM462 730c39 0 66 40 66 80c0 30 -20 51 -48 51c-39 0 -66 -39 -66 -80c0 -29 20 -51 48 -51zM314 -9c-109 0 -191 58 -191 173c0 31 6 67 14 102l85 370h-99l5 22h218
l-5 -22h-94l-86 -373c-8 -35 -12 -65 -12 -96c0 -104 69 -154 167 -154c122 0 189 80 222 228l91 395h-103l5 22h218l-5 -22h-90l-92 -397c-37 -162 -109 -248 -248 -248z" />
    <glyph glyph-name="uring" unicode="&#x16f;" horiz-adv-x="514" 
d="M63 412h107l-58 -235c-12 -48 -14 -68 -14 -86c0 -46 28 -77 80 -77c82 0 161 92 192 217l45 181h24l-75 -302c-7 -26 -10 -44 -10 -58c0 -23 14 -38 37 -38c26 0 43 17 65 71l17 -5c-24 -64 -46 -86 -83 -86c-33 0 -58 22 -58 58c0 17 5 39 11 66c0 1 1 4 1 7
c-39 -74 -96 -131 -169 -131c-61 0 -102 38 -102 97c0 21 5 42 16 89l53 212h-84zM314 488c-44 0 -71 34 -71 71c0 51 38 100 90 100c44 0 72 -33 72 -71c0 -50 -39 -100 -91 -100zM315 508c39 0 66 40 66 80c0 30 -20 51 -48 51c-39 0 -66 -39 -66 -80c0 -29 20 -51 48 -51
z" />
    <glyph glyph-name="Wacute" unicode="&#x1e82;" horiz-adv-x="944" 
d="M545 719l-6 10l124 92c11 8 21 13 29 13c10 0 18 -10 18 -19s-8 -18 -24 -25zM219 -15l-30 651h-82l5 22h199l-5 -22h-91l24 -603l283 529h16l53 -529l312 603h-91l5 22h199l-5 -22h-80l-343 -651h-17l-51 527l-283 -527h-18z" />
    <glyph glyph-name="wacute" unicode="&#x1e83;" horiz-adv-x="635" 
d="M137 -17l-26 409h-80l4 20h97l23 -383l181 325h12l70 -335c92 136 145 268 149 344c-19 0 -34 14 -34 31c0 13 10 24 22 24c22 0 34 -18 34 -45c0 -85 -65 -233 -173 -390h-12l-68 330l-187 -330h-12zM335 497l-6 10l124 92c11 8 21 13 29 13c10 0 18 -10 18 -19
s-8 -18 -24 -25z" />
    <glyph glyph-name="Wcircumflex" unicode="&#x174;" horiz-adv-x="944" 
d="M465 712l-8 11l156 119l97 -119l-10 -9l-91 87zM219 -15l-30 651h-82l5 22h199l-5 -22h-91l24 -603l283 529h16l53 -529l312 603h-91l5 22h199l-5 -22h-80l-343 -651h-17l-51 527l-283 -527h-18z" />
    <glyph glyph-name="wcircumflex" unicode="&#x175;" horiz-adv-x="635" 
d="M137 -17l-26 409h-80l4 20h97l23 -383l181 325h12l70 -335c92 136 145 268 149 344c-19 0 -34 14 -34 31c0 13 10 24 22 24c22 0 34 -18 34 -45c0 -85 -65 -233 -173 -390h-12l-68 330l-187 -330h-12zM254 490l-8 11l156 119l97 -119l-10 -9l-91 87z" />
    <glyph glyph-name="Wdieresis" unicode="&#x1e84;" horiz-adv-x="944" 
d="M653 736c-15 0 -26 12 -26 26c0 15 11 27 26 27s26 -12 26 -27c0 -14 -11 -26 -26 -26zM539 736c-15 0 -26 12 -26 26c0 15 11 27 26 27s26 -12 26 -27c0 -14 -11 -26 -26 -26zM219 -15l-30 651h-82l5 22h199l-5 -22h-91l24 -603l283 529h16l53 -529l312 603h-91l5 22
h199l-5 -22h-80l-343 -651h-17l-51 527l-283 -527h-18z" />
    <glyph glyph-name="wdieresis" unicode="&#x1e85;" horiz-adv-x="635" 
d="M137 -17l-26 409h-80l4 20h97l23 -383l181 325h12l70 -335c92 136 145 268 149 344c-19 0 -34 14 -34 31c0 13 10 24 22 24c22 0 34 -18 34 -45c0 -85 -65 -233 -173 -390h-12l-68 330l-187 -330h-12zM329 514c-15 0 -26 12 -26 26c0 15 11 27 26 27s26 -12 26 -27
c0 -14 -11 -26 -26 -26zM443 514c-15 0 -26 12 -26 26c0 15 11 27 26 27s26 -12 26 -27c0 -14 -11 -26 -26 -26z" />
    <glyph glyph-name="Wgrave" unicode="&#x1e80;" horiz-adv-x="944" 
d="M219 -15l-30 651h-82l5 22h199l-5 -22h-91l24 -603l283 529h16l53 -529l312 603h-91l5 22h199l-5 -22h-80l-343 -651h-17l-51 527l-283 -527h-18zM627 719l-114 74c-13 8 -19 17 -19 25c0 9 8 18 17 18c10 0 16 -2 27 -14l97 -94z" />
    <glyph glyph-name="wgrave" unicode="&#x1e81;" horiz-adv-x="635" 
d="M137 -17l-26 409h-80l4 20h97l23 -383l181 325h12l70 -335c92 136 145 268 149 344c-19 0 -34 14 -34 31c0 13 10 24 22 24c22 0 34 -18 34 -45c0 -85 -65 -233 -173 -390h-12l-68 330l-187 -330h-12zM417 497l-114 74c-13 8 -19 17 -19 25c0 9 8 18 17 18
c10 0 16 -2 27 -14l97 -94z" />
    <glyph glyph-name="Yacute" unicode="&#xdd;" horiz-adv-x="627" 
d="M139 0l5 22h103l63 258l-131 356h-68l5 22h188l-5 -22h-93l121 -335l283 335h-91l5 22h188l-5 -22h-66l-306 -359l-62 -255h105l-5 -22h-234zM383 719l-6 10l124 92c11 8 21 13 29 13c10 0 18 -10 18 -19s-8 -18 -24 -25z" />
    <glyph glyph-name="yacute" unicode="&#xfd;" horiz-adv-x="461" 
d="M-28 -199c-23 0 -41 14 -41 33c0 13 9 23 23 23c18 0 29 -14 29 -33v-1c43 9 109 62 201 172l-75 397h-81l4 20h98l72 -395c96 120 188 268 200 347c-18 0 -34 13 -34 30c0 13 11 24 23 24c19 0 33 -16 33 -39c0 -78 -101 -248 -214 -384c-125 -149 -192 -194 -238 -194z
M253 497l-6 10l124 92c11 8 21 13 29 13c10 0 18 -10 18 -19s-8 -18 -24 -25z" />
    <glyph glyph-name="Ycircumflex" unicode="&#x176;" horiz-adv-x="627" 
d="M139 0l5 22h103l63 258l-131 356h-68l5 22h188l-5 -22h-93l121 -335l283 335h-91l5 22h188l-5 -22h-66l-306 -359l-62 -255h105l-5 -22h-234zM302 712l-8 11l156 119l97 -119l-10 -9l-91 87z" />
    <glyph glyph-name="ycircumflex" unicode="&#x177;" horiz-adv-x="461" 
d="M-28 -199c-23 0 -41 14 -41 33c0 13 9 23 23 23c18 0 29 -14 29 -33v-1c43 9 109 62 201 172l-75 397h-81l4 20h98l72 -395c96 120 188 268 200 347c-18 0 -34 13 -34 30c0 13 11 24 23 24c19 0 33 -16 33 -39c0 -78 -101 -248 -214 -384c-125 -149 -192 -194 -238 -194z
M172 490l-8 11l156 119l97 -119l-10 -9l-91 87z" />
    <glyph glyph-name="Ydieresis" unicode="&#x178;" horiz-adv-x="627" 
d="M139 0l5 22h103l63 258l-131 356h-68l5 22h188l-5 -22h-93l121 -335l283 335h-91l5 22h188l-5 -22h-66l-306 -359l-62 -255h105l-5 -22h-234zM490 736c-15 0 -26 12 -26 26c0 15 11 27 26 27s26 -12 26 -27c0 -14 -11 -26 -26 -26zM376 736c-15 0 -26 12 -26 26
c0 15 11 27 26 27s26 -12 26 -27c0 -14 -11 -26 -26 -26z" />
    <glyph glyph-name="ydieresis" unicode="&#xff;" horiz-adv-x="461" 
d="M-28 -199c-23 0 -41 14 -41 33c0 13 9 23 23 23c18 0 29 -14 29 -33v-1c43 9 109 62 201 172l-75 397h-81l4 20h98l72 -395c96 120 188 268 200 347c-18 0 -34 13 -34 30c0 13 11 24 23 24c19 0 33 -16 33 -39c0 -78 -101 -248 -214 -384c-125 -149 -192 -194 -238 -194z
M246 514c-15 0 -26 12 -26 26c0 15 11 27 26 27s26 -12 26 -27c0 -14 -11 -26 -26 -26zM360 514c-15 0 -26 12 -26 26c0 15 11 27 26 27s26 -12 26 -27c0 -14 -11 -26 -26 -26z" />
    <glyph glyph-name="Ygrave" unicode="&#x1ef2;" horiz-adv-x="627" 
d="M139 0l5 22h103l63 258l-131 356h-68l5 22h188l-5 -22h-93l121 -335l283 335h-91l5 22h188l-5 -22h-66l-306 -359l-62 -255h105l-5 -22h-234zM464 719l-114 74c-13 8 -19 17 -19 25c0 9 8 18 17 18c10 0 16 -2 27 -14l97 -94z" />
    <glyph glyph-name="ygrave" unicode="&#x1ef3;" horiz-adv-x="461" 
d="M-28 -199c-23 0 -41 14 -41 33c0 13 9 23 23 23c18 0 29 -14 29 -33v-1c43 9 109 62 201 172l-75 397h-81l4 20h98l72 -395c96 120 188 268 200 347c-18 0 -34 13 -34 30c0 13 11 24 23 24c19 0 33 -16 33 -39c0 -78 -101 -248 -214 -384c-125 -149 -192 -194 -238 -194z
M334 497l-114 74c-13 8 -19 17 -19 25c0 9 8 18 17 18c10 0 16 -2 27 -14l97 -94z" />
    <glyph glyph-name="Zacute" unicode="&#x179;" horiz-adv-x="580" 
d="M364 719l-6 10l124 92c11 8 21 13 29 13c10 0 18 -10 18 -19s-8 -18 -24 -25zM3 0v12l583 624h-398l-27 -119h-25l32 141h459v-12l-583 -624h418l28 119h25l-33 -141h-479z" />
    <glyph glyph-name="zacute" unicode="&#x17a;" horiz-adv-x="416" 
d="M233 497l-6 10l124 92c11 8 21 13 29 13c10 0 18 -10 18 -19s-8 -18 -24 -25zM9 -7l-10 13l376 386h-258l-22 -86h-21l26 106h304l7 -12l-366 -375c16 6 38 10 71 10c51 0 110 -23 143 -23c41 0 67 28 89 100l17 -4c-20 -73 -49 -116 -107 -116c-41 0 -93 23 -147 23
c-48 0 -71 -5 -102 -22z" />
    <glyph glyph-name="Zcaron" unicode="&#x17d;" horiz-adv-x="580" 
d="M400 714l-97 119l10 9l91 -87l144 89l8 -11zM3 0v12l583 624h-398l-27 -119h-25l32 141h459v-12l-583 -624h418l28 119h25l-33 -141h-479z" />
    <glyph glyph-name="zcaron" unicode="&#x17e;" horiz-adv-x="416" 
d="M268 492l-97 119l10 9l91 -87l144 89l8 -11zM9 -7l-10 13l376 386h-258l-22 -86h-21l26 106h304l7 -12l-366 -375c16 6 38 10 71 10c51 0 110 -23 143 -23c41 0 67 28 89 100l17 -4c-20 -73 -49 -116 -107 -116c-41 0 -93 23 -147 23c-48 0 -71 -5 -102 -22z" />
    <glyph glyph-name="Zdotaccent" unicode="&#x17b;" horiz-adv-x="580" 
d="M3 0v12l583 624h-398l-27 -119h-25l32 141h459v-12l-583 -624h418l28 119h25l-33 -141h-479zM416 740c-16 0 -28 12 -28 28s12 29 28 29s28 -13 28 -29s-12 -28 -28 -28z" />
    <glyph glyph-name="zdotaccent" unicode="&#x17c;" horiz-adv-x="416" 
d="M9 -7l-10 13l376 386h-258l-22 -86h-21l26 106h304l7 -12l-366 -375c16 6 38 10 71 10c51 0 110 -23 143 -23c41 0 67 28 89 100l17 -4c-20 -73 -49 -116 -107 -116c-41 0 -93 23 -147 23c-48 0 -71 -5 -102 -22zM284 518c-16 0 -28 12 -28 28s12 29 28 29s28 -13 28 -29
s-12 -28 -28 -28z" />
    <glyph glyph-name="schwa" unicode="&#x259;" horiz-adv-x="452" 
d="M44 143c0 16 3 40 9 61h327c2 15 4 31 4 47c0 97 -64 149 -149 149c-47 0 -90 -11 -133 -36l5 24c38 21 77 32 130 32c96 0 172 -62 172 -170c0 -135 -98 -254 -228 -254c-83 0 -137 50 -137 147zM182 16c94 0 169 72 193 168h-303c-3 -16 -5 -31 -5 -44
c0 -80 44 -124 115 -124z" />
    <glyph glyph-name="germandbls" unicode="&#xdf;" horiz-adv-x="484" 
d="M305 -4c-60 0 -116 39 -116 88c0 17 11 30 25 30c12 0 21 -10 21 -22c0 -14 -8 -24 -17 -28c10 -25 40 -49 88 -49c59 0 105 42 105 105c0 53 -35 93 -71 129c-33 34 -65 66 -65 109c0 45 39 82 80 118c45 40 89 85 89 146c0 48 -35 94 -92 94c-71 0 -118 -55 -144 -168
l-127 -548h-24l91 392h-79l4 20h80l32 140c29 125 82 186 168 186c70 0 114 -56 114 -116c0 -67 -46 -115 -92 -156c-40 -36 -77 -70 -77 -108c0 -36 29 -65 61 -97c38 -37 75 -80 75 -140c0 -82 -60 -125 -129 -125z" />
    <glyph glyph-name="zero" unicode="0" horiz-adv-x="517" 
d="M237 -8c-106 0 -184 81 -184 214c0 149 98 297 247 297c105 0 183 -80 183 -213c0 -149 -98 -298 -246 -298zM237 13c134 0 221 142 221 277c0 123 -68 193 -158 193c-135 0 -221 -143 -221 -277c0 -123 68 -193 158 -193z" />
    <glyph glyph-name="one" unicode="1" horiz-adv-x="344" 
d="M1 0l5 21h119l104 453l-123 -33v23l147 39l7 -5l-111 -477h118l-4 -21h-262z" />
    <glyph glyph-name="two" unicode="2" horiz-adv-x="445" 
d="M7 0l-5 13c37 110 131 162 239 220c105 55 144 86 144 150c0 57 -49 100 -124 100c-79 0 -128 -40 -139 -78c13 -4 20 -14 20 -26c0 -15 -10 -25 -24 -25s-25 11 -25 29c0 56 66 120 169 120c84 0 149 -47 149 -119c0 -73 -48 -112 -155 -168
c-112 -59 -191 -103 -227 -195h293c2 9 22 97 25 106h22l-29 -127h-333z" />
    <glyph glyph-name="three" unicode="3" horiz-adv-x="455" 
d="M172 -125c-93 0 -180 54 -180 121c0 22 11 36 28 36c13 0 22 -10 22 -23s-10 -24 -26 -26c5 -41 74 -87 158 -87c103 0 171 69 171 152c0 87 -72 143 -172 143h-18l5 21h17c140 0 218 66 218 150c0 62 -47 121 -136 121c-70 0 -116 -31 -133 -68c16 -4 22 -14 22 -27
s-10 -23 -23 -23c-14 0 -26 11 -26 30c0 56 76 108 162 108c96 0 159 -61 159 -141c0 -92 -80 -150 -185 -163c86 -17 135 -75 135 -151c0 -89 -69 -173 -198 -173z" />
    <glyph glyph-name="four" unicode="4" horiz-adv-x="475" 
d="M356 299l-48 -203h120l-5 -21h-120l-45 -195h-22l45 195h-282l-1 7l389 421l16 -14l-365 -393h248l45 194z" />
    <glyph glyph-name="five" unicode="5" horiz-adv-x="447" 
d="M151 -125c-86 0 -159 49 -159 101c0 16 9 30 25 30c13 0 24 -10 24 -23c0 -12 -6 -22 -20 -26c11 -31 65 -62 132 -62c99 0 192 82 192 194c0 86 -52 135 -148 135c-43 0 -75 -7 -119 -25l-10 6l98 292h265l-5 -23h-245c-7 -20 -77 -227 -83 -247c34 12 67 19 104 19
c105 0 168 -63 168 -155c0 -122 -103 -216 -219 -216z" />
    <glyph glyph-name="six" unicode="6" horiz-adv-x="500" 
d="M111 42c-34 35 -52 83 -52 147c0 102 50 273 143 365c47 47 98 75 170 75c79 0 124 -52 124 -91c0 -19 -12 -31 -26 -31c-13 0 -22 8 -22 22c0 11 7 21 19 28c-9 27 -48 52 -98 52c-56 0 -107 -24 -153 -69c-72 -73 -116 -196 -130 -292c27 68 94 129 192 129
c100 0 169 -69 169 -164c0 -115 -91 -221 -209 -221c-51 0 -95 19 -127 50zM85 167c0 -42 15 -80 41 -108c28 -29 68 -46 114 -46c102 0 183 96 183 203c0 83 -59 141 -147 141c-113 0 -191 -99 -191 -190z" />
    <glyph glyph-name="seven" unicode="7" horiz-adv-x="430" 
d="M45 -121l-18 11l388 587h-303l-27 -116h-22l32 136h344l6 -12z" />
    <glyph glyph-name="eight" unicode="8" horiz-adv-x="462" 
d="M204 -7c-88 0 -168 62 -168 153c0 96 73 169 170 182c-54 24 -87 75 -87 128c0 95 80 173 188 173c85 0 152 -66 152 -144c0 -86 -69 -151 -158 -166c68 -19 109 -79 109 -143c0 -101 -88 -183 -206 -183zM265 333c90 0 169 63 169 149c0 71 -56 126 -128 126
c-95 0 -162 -68 -162 -154c0 -68 55 -121 121 -121zM205 14c104 0 180 72 180 163c0 78 -61 137 -149 137c-103 0 -175 -78 -175 -166c0 -81 66 -134 144 -134z" />
    <glyph glyph-name="nine" unicode="9" horiz-adv-x="500" 
d="M148 -125c-78 0 -124 51 -124 89c0 19 9 33 25 33c13 0 22 -9 22 -22c0 -11 -7 -21 -19 -27c9 -29 48 -54 99 -54c60 0 110 27 153 70c69 70 113 189 128 283c-27 -67 -94 -128 -192 -128c-101 0 -170 70 -170 164c0 116 92 220 209 220c52 0 96 -18 127 -49
c35 -35 53 -83 53 -147c0 -102 -49 -267 -141 -359c-47 -47 -99 -73 -170 -73zM432 329c0 44 -16 85 -45 112c-28 27 -66 42 -109 42c-102 0 -183 -95 -183 -202c0 -84 58 -142 146 -142c113 0 191 98 191 190z" />
    <glyph glyph-name="zero.lin" horiz-adv-x="592" 
d="M272 -8c-125 0 -199 94 -199 241c0 227 128 434 303 434c125 0 198 -94 198 -241c0 -227 -127 -434 -302 -434zM272 14c163 0 276 201 276 412c0 130 -61 219 -173 219c-163 0 -275 -201 -275 -412c0 -130 61 -219 172 -219z" />
    <glyph glyph-name="one.lin" horiz-adv-x="381" 
d="M9 0l5 22h132l141 612l-155 -47v25l180 56l7 -6l-147 -640h132l-5 -22h-290z" />
    <glyph glyph-name="two.lin" horiz-adv-x="506" 
d="M17 0l-5 13c54 157 191 241 300 303c104 61 176 111 176 201c0 72 -58 128 -144 128c-94 0 -167 -57 -183 -107c15 -3 26 -16 26 -30c0 -15 -12 -26 -26 -26c-16 0 -29 12 -29 35c0 64 90 150 213 150c101 0 169 -67 169 -148c0 -101 -85 -162 -183 -218
c-120 -69 -239 -140 -290 -279h350l33 144h24l-38 -166h-393z" />
    <glyph glyph-name="three.lin" horiz-adv-x="493" 
d="M211 -9c-95 0 -187 58 -187 129c0 24 11 39 29 39c14 0 24 -11 24 -24c0 -14 -11 -26 -27 -28c4 -45 79 -93 162 -93c122 0 199 79 199 166c0 90 -74 151 -184 151h-22l5 22h22c148 0 233 71 233 161c0 66 -51 131 -151 131c-79 0 -129 -33 -147 -73c17 -4 24 -15 24 -29
s-11 -24 -25 -24c-15 0 -28 12 -28 32c0 59 83 116 179 116c107 0 174 -67 174 -153c0 -98 -85 -161 -199 -175c89 -17 145 -75 145 -159c0 -101 -89 -189 -226 -189z" />
    <glyph glyph-name="four.lin" horiz-adv-x="533" 
d="M424 435l-49 -204h124l-5 -22h-125l-45 -187h103l-5 -22h-251l5 22h123l44 187h-310l-3 9l446 450l16 -16l-421 -421h277l47 194z" />
    <glyph glyph-name="five.lin" horiz-adv-x="504" 
d="M199 -9c-91 0 -167 53 -167 108c0 18 10 33 26 33c14 0 26 -11 26 -24c0 -14 -8 -24 -21 -28c11 -33 67 -66 138 -66c130 0 214 110 214 217c0 96 -59 144 -156 144c-51 0 -87 -9 -131 -28l-10 9l98 302h291l-6 -26h-269l-84 -255c34 13 72 20 114 20
c110 0 180 -61 180 -164c0 -117 -94 -242 -243 -242z" />
    <glyph glyph-name="six.lin" horiz-adv-x="528" 
d="M500 587c-6 27 -54 59 -109 59c-63 0 -110 -27 -160 -77c-74 -75 -119 -194 -133 -311c33 75 106 137 206 137c106 0 181 -72 181 -171c0 -123 -99 -233 -224 -233c-54 0 -101 20 -135 53c-35 36 -55 84 -55 152c0 133 51 296 144 390c49 49 104 81 176 81
c80 0 139 -51 139 -100c0 -22 -13 -36 -29 -36c-14 0 -24 11 -24 24s8 25 23 32zM263 14c109 0 196 99 196 212c0 88 -63 146 -157 146c-119 0 -204 -101 -204 -196c0 -48 17 -88 46 -116c30 -29 71 -46 119 -46z" />
    <glyph glyph-name="seven.lin" horiz-adv-x="486" 
d="M82 0l430 636h-342l-28 -121h-24l33 143h385l7 -13l-433 -645h-28z" />
    <glyph glyph-name="eight.lin" horiz-adv-x="521" 
d="M260 -9c-114 0 -206 63 -206 168c0 95 73 176 183 188c-63 22 -105 75 -105 141c0 101 89 180 201 180c111 0 188 -66 188 -156c0 -89 -66 -161 -173 -174c79 -24 121 -83 121 -153c0 -115 -98 -194 -209 -194zM309 352c110 0 185 68 185 158c0 81 -65 136 -162 136
c-96 0 -174 -68 -174 -160c0 -76 64 -134 151 -134zM260 13c94 0 183 67 183 171c0 86 -67 148 -176 148s-187 -82 -187 -172c0 -94 85 -147 180 -147z" />
    <glyph glyph-name="nine.lin" horiz-adv-x="528" 
d="M85 71c7 -26 55 -58 109 -58c63 0 111 27 160 76c75 76 118 193 133 309c-34 -74 -106 -134 -205 -134c-107 0 -182 71 -182 171c0 122 99 232 224 232c55 0 102 -19 135 -53c35 -36 55 -84 55 -152c0 -133 -50 -295 -143 -389c-49 -49 -104 -82 -177 -82
c-79 0 -138 52 -138 100c0 22 13 36 29 36c14 0 24 -11 24 -24s-8 -25 -24 -32zM487 483c0 48 -17 87 -46 115c-30 30 -71 47 -118 47c-109 0 -197 -99 -197 -213c0 -88 64 -146 157 -146c120 0 204 101 204 197z" />
    <glyph glyph-name="period" unicode="." horiz-adv-x="150" 
d="M49 -8c-16 0 -29 13 -29 30s13 30 29 30c17 0 30 -13 30 -30s-13 -30 -30 -30z" />
    <glyph glyph-name="comma" unicode="," horiz-adv-x="149" 
d="M-25 -109l-6 11c44 26 72 57 81 94c-18 2 -30 13 -30 29c0 15 12 27 26 27c19 0 31 -16 31 -37c0 -46 -48 -100 -102 -124z" />
    <glyph glyph-name="colon" unicode=":" horiz-adv-x="168" 
d="M125 283c-16 0 -29 13 -29 30s13 30 29 30c17 0 30 -13 30 -30s-13 -30 -30 -30zM59 -8c-16 0 -29 13 -29 30s13 30 29 30c17 0 29 -13 29 -30s-12 -30 -29 -30z" />
    <glyph glyph-name="semicolon" unicode=";" horiz-adv-x="167" 
d="M125 283c-16 0 -29 13 -29 30s13 30 29 30c17 0 30 -13 30 -30s-13 -30 -30 -30zM-15 -109l-5 11c43 26 71 57 80 94c-18 2 -30 13 -30 29c0 15 12 27 26 27c19 0 32 -16 32 -37c0 -46 -49 -100 -103 -124z" />
    <glyph glyph-name="ellipsis" unicode="&#x2026;" horiz-adv-x="457" 
d="M348 -8c-17 0 -30 13 -30 30s13 30 30 30c16 0 29 -13 29 -30s-13 -30 -29 -30zM202 -8c-16 0 -29 13 -29 30s13 30 29 30c17 0 30 -13 30 -30s-13 -30 -30 -30zM57 -8c-16 0 -29 13 -29 30s13 30 29 30c17 0 29 -13 29 -30s-12 -30 -29 -30z" />
    <glyph glyph-name="periodcentered" unicode="&#xb7;" horiz-adv-x="230" 
d="M123 212c-16 0 -29 13 -29 30s13 30 29 30c17 0 30 -13 30 -30s-13 -30 -30 -30z" />
    <glyph glyph-name="bullet" unicode="&#x2022;" horiz-adv-x="235" 
d="M132 193c-40 0 -75 32 -75 76s35 76 75 76s74 -32 74 -76s-34 -76 -74 -76z" />
    <glyph glyph-name="bullet.alt" horiz-adv-x="606" 
d="M304 -48c-141 0 -256 115 -256 256s115 256 256 256s256 -115 256 -256s-115 -256 -256 -256z" />
    <glyph glyph-name="ampersand" unicode="&#x26;" horiz-adv-x="578" 
d="M22 129c0 115 92 165 186 204c-26 44 -36 81 -36 123c0 89 65 156 143 156c61 0 114 -41 114 -105c0 -103 -96 -142 -189 -182c15 -24 34 -49 59 -78l76 -93c59 79 95 124 151 124c21 0 37 -14 37 -28s-9 -22 -21 -22c-14 0 -25 13 -28 27c-37 -4 -60 -30 -126 -117
l109 -131l-16 -13l-107 127c-49 -64 -110 -128 -207 -128c-82 0 -145 56 -145 136zM169 13c90 0 144 61 193 124l-80 96c-27 31 -47 58 -63 83c-87 -38 -171 -83 -171 -187c0 -65 47 -116 121 -116zM197 457c0 -36 7 -69 33 -114c88 37 174 74 174 163c0 53 -39 85 -90 85
c-67 0 -117 -60 -117 -134z" />
    <glyph glyph-name="exclam" unicode="!" horiz-adv-x="211" 
d="M94 152l102 506h33l-118 -506h-17zM73 -8c-17 0 -29 13 -29 30s12 30 29 30c16 0 29 -13 29 -30s-13 -30 -29 -30z" />
    <glyph glyph-name="exclamdown" unicode="&#xa1;" horiz-adv-x="211" 
d="M195 606c-16 0 -29 13 -29 30s13 30 29 30s29 -13 29 -30s-13 -30 -29 -30zM39 0l118 506h17l-102 -506h-33z" />
    <glyph glyph-name="question" unicode="?" horiz-adv-x="417" 
d="M121 153l37 170c190 13 265 99 265 192c0 80 -59 129 -134 129c-80 0 -135 -43 -148 -92c19 -3 28 -15 28 -31c0 -15 -10 -25 -26 -25c-17 0 -30 15 -30 35c0 64 72 135 177 135c89 0 158 -61 158 -150c0 -104 -82 -191 -270 -211l-42 -152h-15zM99 -8
c-16 0 -29 13 -29 30s13 30 29 30s29 -13 29 -30s-13 -30 -29 -30z" />
    <glyph glyph-name="questiondown" unicode="&#xbf;" horiz-adv-x="417" 
d="M374 607c-16 0 -29 13 -29 30s13 30 29 30c17 0 29 -13 29 -30s-12 -30 -29 -30zM184 -7c-90 0 -159 61 -159 150c0 104 82 191 271 211l42 152h15l-38 -170c-190 -14 -265 -100 -265 -193c0 -79 59 -128 134 -128c81 0 135 43 148 92c-19 3 -28 15 -28 30s11 26 27 26
s29 -15 29 -35c0 -65 -71 -135 -176 -135z" />
    <glyph glyph-name="quotedblleft" unicode="&#x201c;" horiz-adv-x="279" 
d="M278 499c-19 0 -32 17 -32 39c0 54 45 108 104 136l6 -12c-50 -30 -80 -71 -83 -105c21 -1 32 -14 32 -30s-11 -28 -27 -28zM154 499c-19 0 -32 17 -32 39c0 54 45 108 104 136l6 -12c-50 -30 -80 -71 -83 -105c21 -1 33 -14 33 -30s-12 -28 -28 -28z" />
    <glyph glyph-name="quotedblright" unicode="&#x201d;" horiz-adv-x="279" 
d="M215 498l-6 12c51 30 80 71 84 105c-21 1 -33 14 -33 30s12 28 27 28c19 0 33 -17 33 -39c0 -54 -46 -108 -105 -136zM91 498l-6 12c51 30 81 71 84 105c-21 1 -33 14 -33 30s12 28 27 28c19 0 33 -17 33 -39c0 -54 -45 -108 -105 -136z" />
    <glyph glyph-name="quoteleft" unicode="&#x2018;" horiz-adv-x="155" 
d="M154 499c-19 0 -32 17 -32 39c0 54 45 108 104 136l6 -12c-50 -30 -80 -71 -83 -105c21 -1 33 -14 33 -30s-12 -28 -28 -28z" />
    <glyph glyph-name="quoteright" unicode="&#x2019;" horiz-adv-x="155" 
d="M91 498l-6 12c51 30 81 71 84 105c-21 1 -33 14 -33 30s12 28 27 28c19 0 33 -17 33 -39c0 -54 -45 -108 -105 -136z" />
    <glyph glyph-name="quotedblbase" unicode="&#x201e;" horiz-adv-x="270" 
d="M96 -109l-6 11c43 26 72 57 81 94c-19 2 -31 13 -31 29c0 15 12 27 27 27c18 0 31 -16 31 -37c0 -46 -48 -100 -102 -124zM-25 -109l-6 11c44 26 72 57 81 94c-18 2 -30 13 -30 29c0 15 12 27 26 27c19 0 31 -16 31 -37c0 -46 -48 -100 -102 -124z" />
    <glyph glyph-name="quotesinglbase" unicode="&#x201a;" horiz-adv-x="149" 
d="M-25 -109l-6 11c44 26 72 57 81 94c-18 2 -30 13 -30 29c0 15 12 27 26 27c19 0 31 -16 31 -37c0 -46 -48 -100 -102 -124z" />
    <glyph glyph-name="guillemotleft" unicode="&#xab;" horiz-adv-x="397" 
d="M311 113l-131 156l206 155l13 -15l-188 -143l116 -141zM173 113l-131 156l206 155l13 -15l-188 -143l116 -141z" />
    <glyph glyph-name="guillemotright" unicode="&#xbb;" horiz-adv-x="397" 
d="M177 113l-14 15l189 142l-116 141l16 13l131 -156zM39 113l-14 15l189 142l-116 141l16 13l131 -156z" />
    <glyph glyph-name="guilsinglleft" unicode="&#x2039;" horiz-adv-x="261" 
d="M173 113l-131 156l206 155l13 -15l-188 -143l116 -141z" />
    <glyph glyph-name="guilsinglright" unicode="&#x203a;" horiz-adv-x="259" 
d="M39 113l-14 15l189 142l-116 141l16 13l131 -156z" />
    <glyph glyph-name="hyphen" unicode="-" horiz-adv-x="224" 
d="M42 258l5 24h150l-5 -24h-150z" />
    <glyph glyph-name="endash" unicode="&#x2013;" horiz-adv-x="369" 
d="M25 258l4 24h331l-5 -24h-330z" />
    <glyph glyph-name="emdash" unicode="&#x2014;" horiz-adv-x="583" 
d="M25 258l4 24h545l-5 -24h-544z" />
    <glyph glyph-name="hyphen.lin" horiz-adv-x="224" 
d="M56 318l5 24h150l-5 -24h-150z" />
    <glyph glyph-name="endash.lin" horiz-adv-x="369" 
d="M38 318l5 24h331l-5 -24h-331z" />
    <glyph glyph-name="emdash.lin" horiz-adv-x="583" 
d="M38 318l5 24h544l-4 -24h-545z" />
    <glyph glyph-name="underscore" unicode="_" horiz-adv-x="497" 
d="M-78 -126l5 24h500l-5 -24h-500z" />
    <glyph glyph-name="slash" unicode="/" horiz-adv-x="359" 
d="M-69 -202l-20 12l509 924l20 -11z" />
    <glyph glyph-name="backslash" unicode="\" horiz-adv-x="417" 
d="M257 -196l-63 926l24 2l63 -926z" />
    <glyph glyph-name="bar" unicode="|" horiz-adv-x="237" 
d="M106 -200v932h24v-932h-24z" />
    <glyph glyph-name="parenleft" unicode="(" horiz-adv-x="304" 
d="M260 -220c-121 103 -192 237 -192 405c0 239 140 453 351 564l12 -18c-206 -109 -338 -315 -338 -546c0 -160 64 -288 181 -389z" />
    <glyph glyph-name="parenright" unicode=")" horiz-adv-x="304" 
d="M-91 -219l-13 18c206 109 338 315 338 546c0 159 -63 288 -180 388l14 17c121 -103 192 -237 192 -405c0 -239 -140 -453 -351 -564z" />
    <glyph glyph-name="parenleft.lin" horiz-adv-x="304" 
d="M274 -160c-121 103 -192 237 -192 405c0 239 140 453 351 564l12 -18c-206 -109 -338 -315 -338 -546c0 -160 64 -288 181 -389z" />
    <glyph glyph-name="parenright.lin" horiz-adv-x="304" 
d="M-77 -159l-13 18c206 109 338 315 338 546c0 159 -63 288 -180 388l14 17c121 -103 192 -237 192 -405c0 -239 -140 -453 -351 -564z" />
    <glyph glyph-name="bracketleft" unicode="[" horiz-adv-x="313" 
d="M20 -200l217 932h190l-5 -22h-166l-204 -888h165l-5 -22h-192z" />
    <glyph glyph-name="bracketright" unicode="]" horiz-adv-x="313" 
d="M-86 -200l5 22h165l205 888h-165l5 22h191l-216 -932h-190z" />
    <glyph glyph-name="bracketleft.lin" horiz-adv-x="313" 
d="M34 -140l217 932h190l-5 -22h-166l-204 -888h165l-5 -22h-192z" />
    <glyph glyph-name="bracketright.lin" horiz-adv-x="313" 
d="M-72 -140l5 22h165l205 888h-165l5 22h191l-216 -932h-190z" />
    <glyph glyph-name="braceleft" unicode="{" horiz-adv-x="281" 
d="M161 -211c-78 20 -128 76 -128 147c0 61 39 104 79 140c37 34 71 69 71 111c0 32 -25 69 -96 69h-35l7 26h38c83 0 123 39 123 91c0 30 -13 66 -30 101c-16 35 -31 76 -31 113c0 87 80 155 216 158l-5 -20c-120 -3 -187 -64 -187 -138c0 -34 14 -75 31 -110
s30 -75 30 -105c0 -60 -46 -99 -116 -105c47 -8 79 -39 79 -80c0 -48 -36 -87 -75 -123c-38 -35 -75 -76 -75 -128c0 -58 37 -105 109 -127z" />
    <glyph glyph-name="braceright" unicode="}" horiz-adv-x="281" 
d="M-66 -211l4 20c120 3 188 64 188 138c0 34 -15 75 -32 110s-30 75 -30 105c0 60 46 99 116 105c-47 8 -78 39 -78 80c0 48 35 87 74 123c38 35 76 76 76 128c0 58 -38 105 -110 127l5 20c79 -20 128 -76 128 -147c0 -61 -39 -104 -79 -140c-36 -34 -70 -69 -70 -111
c0 -32 24 -69 95 -69h35l-6 -26h-38c-84 0 -124 -39 -124 -91c0 -30 13 -66 30 -101c16 -34 31 -76 31 -113c0 -87 -80 -155 -215 -158z" />
    <glyph glyph-name="braceleft.lin" horiz-adv-x="281" 
d="M175 -151c-78 20 -128 76 -128 147c0 61 39 104 79 140c37 34 71 69 71 111c0 32 -25 69 -96 69h-35l7 26h38c83 0 123 39 123 91c0 30 -13 66 -30 101c-16 35 -31 76 -31 113c0 87 80 155 216 158l-5 -20c-120 -3 -187 -64 -187 -138c0 -34 14 -75 31 -110
s30 -75 30 -105c0 -60 -46 -99 -116 -105c47 -8 79 -39 79 -80c0 -48 -36 -87 -75 -123c-38 -35 -75 -76 -75 -128c0 -58 37 -105 109 -127z" />
    <glyph glyph-name="braceright.lin" horiz-adv-x="281" 
d="M-52 -151l4 20c120 3 188 64 188 138c0 34 -15 75 -32 110s-30 75 -30 105c0 60 46 99 116 105c-47 8 -78 39 -78 80c0 48 35 87 74 123c38 35 76 76 76 128c0 58 -38 105 -110 127l5 20c79 -20 128 -76 128 -147c0 -61 -39 -104 -79 -140c-36 -34 -70 -69 -70 -111
c0 -32 24 -69 95 -69h35l-6 -26h-38c-84 0 -124 -39 -124 -91c0 -30 13 -66 30 -101c16 -34 31 -76 31 -113c0 -87 -80 -155 -215 -158z" />
    <glyph glyph-name="at" unicode="@" horiz-adv-x="774" 
d="M314 -172c-163 0 -268 119 -268 291c0 265 193 481 416 481c168 0 269 -110 269 -275c0 -151 -79 -284 -169 -284c-60 0 -85 38 -77 89c-19 -45 -74 -93 -136 -93c-73 0 -122 46 -122 137c0 119 84 211 179 211c68 0 105 -46 111 -109l27 107h23l-56 -223
c-17 -61 -2 -100 51 -100c80 0 150 128 150 265c0 154 -90 257 -250 257c-217 0 -396 -209 -396 -463c0 -161 93 -273 248 -273c62 0 122 15 171 42l9 -16c-53 -29 -115 -44 -180 -44zM352 56c96 0 152 108 152 199c0 68 -39 111 -98 111c-86 0 -155 -86 -155 -192
c0 -72 36 -118 101 -118z" />
    <glyph glyph-name="copyright" unicode="&#xa9;" horiz-adv-x="594" 
d="M307 -9c-146 0 -252 115 -252 259s106 260 252 260c147 0 253 -116 253 -259c0 -144 -106 -260 -253 -260zM307 7c136 0 236 112 236 244s-100 243 -236 243s-235 -112 -235 -244s99 -243 235 -243zM318 122c-80 0 -131 64 -131 131c0 81 62 135 129 135
c52 0 95 -33 95 -64c0 -12 -8 -21 -18 -21c-9 0 -16 7 -16 16s6 15 13 16c-7 16 -36 36 -74 36c-63 0 -110 -54 -110 -118c0 -59 45 -114 112 -114c31 0 56 10 83 33l10 -13c-27 -25 -60 -37 -93 -37z" />
    <glyph glyph-name="published" unicode="&#x2117;" horiz-adv-x="594" 
d="M307 -9c-146 0 -252 115 -252 259s106 260 252 260c147 0 253 -116 253 -259c0 -144 -106 -260 -253 -260zM307 7c136 0 236 112 236 244s-100 243 -236 243s-235 -112 -235 -244s99 -243 235 -243zM226 115v16h38v232h-38v16h99c55 0 96 -32 96 -81
c0 -51 -37 -84 -95 -84c-15 0 -33 1 -44 1v-84h39v-16h-95zM327 230c46 0 76 26 76 67c0 42 -34 66 -77 66h-44v-132c12 0 29 -1 45 -1z" />
    <glyph glyph-name="registered.alt" horiz-adv-x="594" 
d="M307 -9c-146 0 -252 115 -252 259s106 260 252 260c147 0 253 -116 253 -259c0 -144 -106 -260 -253 -260zM307 7c136 0 236 112 236 244s-100 243 -236 243s-235 -112 -235 -244s99 -243 235 -243zM201 124v16h38v231h-38v16h99c56 0 90 -31 90 -74
c0 -38 -24 -63 -61 -72l63 -101h34v-16h-46l-69 112h-53v-96h37v-16h-94zM258 252h37c43 0 77 21 77 61c0 36 -30 58 -74 58h-40v-119z" />
    <glyph glyph-name="registered" unicode="&#xae;" horiz-adv-x="378" 
d="M261 336c-101 0 -172 80 -172 178c0 99 71 179 172 179s172 -80 172 -179c0 -98 -71 -178 -172 -178zM261 676c-89 0 -154 -72 -154 -161c0 -90 65 -162 154 -162s153 72 153 162c0 89 -64 161 -153 161zM190 427v16h27v150h-27v16h70c40 0 65 -19 65 -54
c0 -24 -18 -41 -39 -49l37 -63h24v-16h-36l-43 75h-34v-59h26v-16h-70zM234 517h23c29 0 51 15 51 38c0 25 -19 38 -50 38h-24v-76z" />
    <glyph glyph-name="copyright.lin" horiz-adv-x="791" 
d="M424 -8c-187 0 -327 148 -327 337c0 188 141 337 327 337c187 0 327 -148 327 -337c0 -188 -141 -337 -327 -337zM424 9c176 0 307 139 307 320c0 180 -131 320 -307 320s-307 -139 -307 -320c0 -180 131 -320 307 -320zM436 165c-100 0 -163 80 -163 167
c0 99 73 172 162 172c67 0 120 -42 120 -83c0 -14 -8 -23 -21 -23c-10 0 -18 8 -18 18c0 9 8 17 17 19c-7 23 -46 51 -98 51c-83 0 -142 -70 -142 -154c0 -78 58 -149 143 -149c42 0 78 15 109 44l10 -14c-32 -31 -74 -48 -119 -48z" />
    <glyph glyph-name="published.lin" horiz-adv-x="791" 
d="M424 -8c-187 0 -327 148 -327 337c0 188 141 337 327 337c187 0 327 -148 327 -337c0 -188 -141 -337 -327 -337zM424 9c176 0 307 139 307 320c0 180 -131 320 -307 320s-307 -139 -307 -320c0 -180 131 -320 307 -320zM323 165v17h46v295h-46v17h118
c70 0 120 -40 120 -100c0 -63 -46 -103 -117 -103c-19 0 -44 1 -56 1v-110h48v-17h-113zM444 309c61 0 98 33 98 85c0 50 -41 83 -100 83h-54v-167c13 -1 37 -1 56 -1z" />
    <glyph glyph-name="registered.lin" horiz-adv-x="791" 
d="M424 -8c-187 0 -327 148 -327 337c0 188 141 337 327 337c187 0 327 -148 327 -337c0 -188 -141 -337 -327 -337zM424 9c176 0 307 139 307 320c0 180 -131 320 -307 320s-307 -139 -307 -320c0 -180 131 -320 307 -320zM303 171v17h46v295h-46v17h122
c68 0 112 -39 112 -92c0 -49 -35 -82 -81 -91l84 -129h41v-17h-54l-91 141h-68v-124h46v-17h-111zM368 330h54c53 0 95 26 95 78c0 46 -36 75 -94 75h-55v-153z" />
    <glyph glyph-name="servicemark" unicode="&#x2120;" horiz-adv-x="540" 
d="M161 408c-50 0 -79 29 -79 53c0 12 7 20 17 20c9 0 15 -7 15 -14s-4 -13 -11 -17c7 -12 27 -27 61 -27c32 0 59 22 59 51c0 24 -20 39 -45 55c-32 20 -56 38 -56 70c0 35 31 63 73 63c40 0 70 -21 70 -47c0 -12 -9 -19 -17 -19s-14 6 -14 14c0 6 3 12 11 15
c-8 11 -24 23 -50 23c-31 0 -55 -20 -55 -48c0 -24 17 -37 46 -55c29 -19 54 -38 54 -70c0 -38 -34 -67 -79 -67zM259 413l4 15h37l60 215h-40l3 15h58l42 -184l125 184h60l-3 -15h-39l-41 -215h39l-3 -15h-91l3 15h36l38 202l-126 -183h-7l-43 182l-54 -201h36l-4 -15h-90z
" />
    <glyph glyph-name="trademark" unicode="&#x2122;" horiz-adv-x="575" 
d="M294 413l3 15h38l59 215h-39l3 15h57l43 -184l125 184h60l-4 -15h-38l-41 -215h39l-3 -15h-91l3 15h36l38 202l-126 -183h-7l-44 182l-53 -201h35l-3 -15h-90zM108 413l4 15h39l50 216h-76l-11 -47h-17l15 61h202l-14 -61h-16l10 47h-75l-50 -216h39l-3 -15h-97z" />
    <glyph glyph-name="asterisk" unicode="*" horiz-adv-x="350" 
d="M301 444c-10 0 -17 8 -22 23l-31 91l-61 -73c-10 -12 -17 -15 -25 -15c-7 0 -13 7 -14 15c0 8 6 15 17 23l77 57l-88 36c-18 7 -23 13 -23 22s7 16 16 16c7 0 12 -3 21 -10l78 -57l8 97c1 19 6 28 18 28c16 0 18 -16 12 -34l-29 -92l94 23c7 3 14 4 18 4
c10 0 15 -6 15 -17c0 -12 -9 -17 -30 -17l-96 -1l51 -81c6 -9 10 -16 10 -22c0 -9 -7 -16 -16 -16z" />
    <glyph glyph-name="dagger" unicode="&#x2020;" horiz-adv-x="440" 
d="M162 -2l89 404l-114 10c0 -18 -10 -32 -26 -32c-17 0 -27 14 -27 26c0 17 10 32 34 32c5 0 13 -1 21 -2l119 -22l28 179c4 32 12 38 23 38c17 0 24 -10 14 -44l-50 -175l113 23c8 2 16 3 21 3c24 0 33 -15 33 -32c0 -13 -10 -26 -27 -26c-16 0 -26 13 -25 32l-114 -13
l-99 -401h-13z" />
    <glyph glyph-name="daggerdbl" unicode="&#x2021;" horiz-adv-x="440" 
d="M199 63l-24 -150c-4 -32 -12 -37 -22 -37c-15 0 -23 8 -14 38l43 150l-101 -22c-8 -2 -15 -3 -20 -3c-24 0 -33 14 -33 31c0 13 10 26 27 26c15 0 25 -13 25 -32l101 13l44 177l33 178l-102 10c0 -18 -10 -31 -25 -31c-18 0 -27 13 -27 25c0 17 9 32 33 32
c5 0 13 -1 20 -3l107 -21l23 149c4 32 12 38 22 38c15 0 23 -9 15 -39l-43 -150l101 23c7 1 15 2 20 2c24 0 33 -14 33 -31c0 -13 -10 -26 -27 -26c-16 0 -25 13 -25 32l-102 -13l-44 -178l-33 -176l103 -11c0 18 9 31 25 31c17 0 27 -12 27 -25c0 -17 -10 -31 -34 -31
c-5 0 -12 0 -20 2z" />
    <glyph glyph-name="asciicircum" unicode="^" horiz-adv-x="412" 
d="M122 390l-8 11l157 118l96 -118l-10 -9l-91 86z" />
    <glyph glyph-name="asciitilde" unicode="~" horiz-adv-x="466" 
d="M310 206c-29 0 -48 13 -74 36c-25 22 -40 32 -60 32c-31 0 -47 -20 -65 -62l-16 5c15 48 43 83 83 83c28 0 48 -13 73 -36c26 -23 40 -32 61 -32c31 0 48 20 66 62l16 -5c-15 -48 -43 -83 -84 -83z" />
    <glyph glyph-name="dollar" unicode="$" horiz-adv-x="419" 
d="M128 -103l-20 6l31 105c-68 16 -116 60 -116 99c0 18 11 32 26 32c12 0 23 -11 23 -23c0 -14 -9 -26 -19 -29c10 -24 44 -49 92 -60l66 223c-66 36 -111 72 -111 127c0 72 71 119 151 119c11 0 21 -1 31 -2l23 76l20 -6l-22 -75c60 -14 103 -52 103 -88
c0 -18 -10 -31 -24 -31c-13 0 -24 11 -24 24c0 11 8 22 17 28c-10 19 -38 39 -77 48l-63 -209c72 -37 122 -76 122 -134c0 -77 -69 -125 -162 -125c-12 0 -24 1 -35 2zM335 125c0 48 -40 80 -106 116l-64 -218c10 -2 21 -2 32 -2c79 0 138 45 138 104zM122 379
c0 -44 33 -76 94 -109l61 204c-9 1 -18 2 -27 2c-67 0 -128 -39 -128 -97z" />
    <glyph glyph-name="dollar.lin" horiz-adv-x="510" 
d="M140 -94l32 103c-87 22 -146 79 -146 122c0 19 10 34 28 34c16 0 26 -12 26 -26s-8 -25 -21 -31c12 -30 59 -62 120 -77l93 300c-73 40 -143 83 -143 168c0 101 93 158 195 158c16 0 32 -2 47 -5l30 94l19 -7l-28 -91c70 -20 121 -67 121 -110c0 -21 -11 -34 -28 -34
c-14 0 -27 12 -27 27c0 12 9 24 23 30c-12 26 -47 53 -96 66l-88 -284c76 -41 152 -85 152 -176c0 -102 -83 -166 -207 -166c-17 0 -34 2 -50 4l-32 -105zM425 165c0 76 -65 116 -135 155l-91 -294c14 -2 29 -3 44 -3c104 0 182 54 182 142zM153 501c0 -72 60 -112 126 -148
l86 278c-13 3 -27 4 -42 4c-88 0 -170 -46 -170 -134z" />
    <glyph glyph-name="sterling" unicode="&#xa3;" horiz-adv-x="467" 
d="M447 407c0 -21 -11 -34 -26 -34c-12 0 -22 10 -22 22c0 11 8 23 19 28c-7 30 -44 59 -102 59c-109 0 -156 -95 -156 -190c0 -45 8 -87 10 -132h168l-5 -20h-162c0 -73 -37 -143 -101 -197c35 -2 70 -13 104 -24c42 -15 69 -22 101 -22c40 0 74 15 110 44l12 -16
c-36 -30 -76 -48 -121 -48c-40 0 -70 8 -114 23c-35 13 -73 25 -110 24c-20 -25 -46 -38 -59 -38c-14 0 -21 8 -21 18c0 20 31 41 75 41c67 58 99 121 99 195h-100l5 20h94c-2 45 -10 87 -10 132c0 105 57 211 182 211c80 0 130 -52 130 -96z" />
    <glyph glyph-name="sterling.lin" horiz-adv-x="523" 
d="M395 269h-174c-3 -79 -41 -149 -110 -207c40 -4 73 -13 113 -27c45 -15 75 -22 109 -22c43 0 80 15 118 46l13 -17c-39 -32 -82 -51 -130 -51c-43 0 -75 8 -123 25c-39 14 -78 26 -119 25c-21 -26 -48 -40 -64 -40c-13 0 -22 8 -22 19c0 21 35 43 82 43
c69 62 104 128 107 206h-107l5 22h102c-2 54 -12 103 -12 156c0 112 62 219 196 219c85 0 139 -56 139 -104c0 -23 -12 -35 -28 -35c-14 0 -27 11 -27 27c0 14 10 25 24 30c-9 28 -47 60 -110 60c-116 0 -168 -95 -168 -197c0 -52 10 -104 12 -156h178z" />
    <glyph glyph-name="Euro" unicode="&#x20ac;" horiz-adv-x="536" 
d="M22 196h70v6c0 32 5 65 15 96h-68l4 20h72c41 102 132 184 245 184c100 0 166 -64 166 -126c0 -22 -13 -34 -27 -34s-23 9 -23 23c0 13 8 26 23 30c-8 44 -62 87 -140 87c-99 0 -182 -71 -220 -164h212l-5 -20h-215c-10 -31 -15 -63 -15 -95v-7h214l-5 -21h-207
c11 -99 83 -159 176 -159c54 0 113 21 160 60l12 -16c-47 -38 -111 -64 -174 -64c-107 0 -188 68 -199 179h-76z" />
    <glyph glyph-name="Euro.lin" horiz-adv-x="648" 
d="M469 388h-285c-12 -43 -19 -87 -20 -131h274l-4 -22h-270c2 -130 80 -221 204 -221c74 0 148 37 200 91l16 -17c-58 -57 -135 -96 -217 -96c-138 0 -226 96 -229 243h-101l5 22h96c1 44 8 88 20 131h-85l5 22h87c46 141 150 255 295 255c109 0 188 -83 188 -152
c0 -21 -14 -37 -30 -37s-26 10 -26 26c0 14 9 28 27 33c-8 50 -74 108 -161 108c-133 0 -225 -105 -267 -233h283z" />
    <glyph glyph-name="yen" unicode="&#xa5;" horiz-adv-x="483" 
d="M83 222l5 20h133l-87 235h-63l5 21h169l-5 -21h-80l84 -241l198 241h-78l5 21h169l-5 -21h-64l-197 -235h135l-5 -20h-148l-18 -77h149l-5 -20h-148l-24 -104h88l-5 -21h-198l5 21h87l24 104h-148l5 20h147l18 77h-148z" />
    <glyph glyph-name="yen.lin" horiz-adv-x="629" 
d="M131 274l5 20h168l-126 342h-69l5 22h189l-5 -22h-93l119 -336l284 336h-92l5 22h189l-5 -22h-67l-295 -342h166l-4 -20h-175l-24 -94h176l-4 -21h-177l-34 -137h107l-4 -22h-237l5 22h106l34 137h-174l4 21h175l23 94h-175z" />
    <glyph glyph-name="cent" unicode="&#xa2;" horiz-adv-x="450" 
d="M220 39c-14 0 -27 1 -39 4l-43 -146l-20 6l42 145c-61 21 -106 77 -106 164c0 142 108 253 229 250l33 108l20 -6l-31 -104c73 -10 113 -59 113 -104c0 -21 -11 -33 -24 -33s-22 10 -22 23c0 12 8 23 22 28c-8 30 -41 59 -95 67l-113 -380c12 -2 23 -3 36 -3
c42 0 92 17 138 54l-2 -25c-38 -29 -89 -48 -138 -48zM79 212c0 -76 35 -125 87 -145l111 376c-105 2 -198 -102 -198 -231z" />
    <glyph glyph-name="cent.lin" horiz-adv-x="450" 
d="M247 128c-14 0 -27 1 -40 4l-44 -150l-20 6l44 150c-62 21 -107 77 -107 165c0 140 108 254 229 249l36 118l20 -6l-34 -114c72 -11 112 -59 112 -104c0 -24 -12 -35 -25 -35c-14 0 -23 9 -23 23s7 25 22 30c-7 30 -39 58 -92 66l-112 -379c11 -2 23 -3 35 -3
c46 0 93 18 138 54l-1 -25c-37 -28 -86 -49 -138 -49zM105 303c0 -77 35 -126 88 -146l110 375c-104 4 -198 -102 -198 -229z" />
    <glyph glyph-name="numbersign" unicode="#" horiz-adv-x="507" 
d="M71 340l5 21h108l38 137h22l-38 -137h157l38 137h22l-38 -137h96l-5 -21h-97l-47 -174h106l-5 -21h-107l-40 -145h-22l39 145h-156l-40 -145h-22l40 145h-97l5 21h98l47 174h-107zM200 340l-48 -174h157l48 174h-157z" />
    <glyph glyph-name="numbersign.lin" horiz-adv-x="523" 
d="M482 658l-57 -203h126l-5 -21h-127l-60 -217h131l-5 -21h-132l-54 -196h-23l54 196h-156l-54 -196h-23l54 196h-125l5 21h126l61 217h-131l5 21h132l56 203h23l-57 -203h157l56 203h23zM240 434l-60 -217h156l60 217h-156z" />
    <glyph glyph-name="paragraph" unicode="&#xb6;" horiz-adv-x="498" 
d="M145 0l5 21h75l45 166c-90 0 -141 13 -173 45c-23 23 -35 53 -35 90c0 104 83 176 207 176h263l-5 -21h-71l-123 -456h71l-5 -21h-254zM250 21h58l123 456h-58z" />
    <glyph glyph-name="paragraph.lin" horiz-adv-x="604" 
d="M209 0l5 22h83l52 225c-13 -1 -26 -1 -47 -1c-132 0 -215 69 -215 183c0 127 107 229 266 229h292l-5 -22h-76l-142 -614h85l-5 -22h-293zM323 22h73l141 614h-73z" />
    <glyph glyph-name="section" unicode="&#xa7;" horiz-adv-x="404" 
d="M250 485c-61 0 -99 -28 -99 -62c0 -40 44 -62 99 -84c59 -24 107 -49 107 -96c0 -43 -49 -76 -127 -87c39 -20 63 -43 63 -78c0 -47 -48 -86 -121 -86c-75 0 -127 42 -127 78c0 16 9 26 22 26c12 0 21 -9 21 -20c0 -9 -4 -18 -13 -23c8 -19 47 -40 97 -40
c60 0 97 31 97 63c0 42 -43 60 -100 84c-59 24 -106 48 -106 96c0 45 52 74 125 86c-38 20 -61 44 -61 80c0 47 50 84 123 84c74 0 124 -42 124 -77c0 -16 -9 -26 -22 -26s-22 10 -22 21c0 9 5 18 13 22c-6 18 -45 39 -93 39zM182 178l24 -11c82 13 127 39 127 76
c0 36 -45 58 -98 80l-22 8c-79 -11 -126 -39 -126 -75c0 -35 41 -57 95 -78z" />
    <glyph glyph-name="section.lin" horiz-adv-x="480" 
d="M80 339c0 58 64 99 170 113c-51 25 -89 55 -89 106c0 60 65 109 157 109c61 0 112 -22 139 -50c16 -15 25 -34 25 -50c0 -21 -12 -32 -25 -32c-14 0 -24 11 -24 24c0 12 7 23 16 28c-4 9 -11 18 -22 26c-23 18 -61 32 -108 32c-81 0 -133 -41 -133 -87
c0 -54 56 -81 129 -112c78 -33 143 -63 143 -127c0 -53 -56 -97 -171 -114c53 -26 90 -56 90 -105c0 -57 -62 -109 -157 -109c-62 0 -114 25 -141 53c-14 16 -22 32 -22 48c0 21 12 31 25 31c14 0 24 -10 24 -23c0 -12 -7 -24 -16 -28c2 -8 9 -16 17 -23
c22 -19 64 -35 112 -35c84 0 133 42 133 86c0 54 -56 81 -134 114c-76 32 -138 62 -138 125zM299 430l-22 9c-117 -16 -172 -51 -172 -99c0 -53 56 -79 129 -110l26 -12c119 16 173 52 173 100c0 54 -58 79 -134 112z" />
    <glyph glyph-name="ordfeminine" unicode="&#xaa;" horiz-adv-x="325" 
d="M165 409c-53 0 -92 37 -92 102c0 83 57 158 132 158c48 0 79 -30 86 -75l17 72h20l-47 -187c-3 -13 -4 -24 -4 -32c0 -12 7 -21 21 -21s27 12 40 43l12 -5c-14 -36 -30 -54 -54 -54c-26 0 -38 16 -38 37c0 5 0 12 2 19c-22 -32 -56 -57 -95 -57zM168 427
c67 0 114 80 114 142c0 48 -30 82 -77 82c-65 0 -112 -69 -112 -139c0 -53 29 -85 75 -85zM53 325l4 17h247l-4 -17h-247z" />
    <glyph glyph-name="ordmasculine" unicode="&#xba;" horiz-adv-x="324" 
d="M203 408c-62 0 -106 45 -106 111c0 77 59 152 138 152c62 0 107 -45 107 -111c0 -78 -60 -152 -139 -152zM66 325l4 17h225l-4 -17h-225zM205 426c66 0 116 65 116 134c0 57 -37 94 -87 94c-66 0 -117 -66 -117 -136c0 -56 38 -92 88 -92z" />
    <glyph glyph-name="ordfeminine.lin" horiz-adv-x="325" 
d="M181 481c-53 0 -92 37 -92 102c0 83 57 158 132 158c48 0 79 -30 86 -75l17 72h20l-47 -187c-3 -13 -4 -24 -4 -32c0 -12 7 -21 21 -21s27 12 40 43l12 -5c-14 -36 -30 -54 -54 -54c-26 0 -38 16 -38 37c0 5 0 12 2 19c-22 -32 -56 -57 -95 -57zM184 499
c67 0 114 80 114 142c0 48 -30 82 -77 82c-65 0 -112 -69 -112 -139c0 -53 29 -85 75 -85zM69 397l4 17h247l-4 -17h-247z" />
    <glyph glyph-name="ordmasculine.lin" horiz-adv-x="324" 
d="M219 480c-62 0 -106 45 -106 111c0 77 59 152 138 152c62 0 107 -45 107 -111c0 -78 -60 -152 -139 -152zM82 397l4 17h225l-4 -17h-225zM221 498c66 0 116 65 116 134c0 57 -37 94 -87 94c-66 0 -117 -66 -117 -136c0 -56 38 -92 88 -92z" />
    <glyph glyph-name="degree" unicode="&#xb0;" horiz-adv-x="313" 
d="M188 424c-62 0 -102 45 -102 105c0 72 58 141 134 141c63 0 101 -45 101 -105c0 -72 -57 -141 -133 -141zM189 444c63 0 109 57 109 121c0 54 -33 85 -79 85c-63 0 -109 -57 -109 -121c0 -54 33 -85 79 -85z" />
    <glyph glyph-name="degree.lin" horiz-adv-x="313" 
d="M204 496c-62 0 -102 45 -102 105c0 72 58 141 134 141c63 0 101 -45 101 -105c0 -72 -57 -141 -133 -141zM205 516c63 0 109 57 109 121c0 54 -33 85 -79 85c-63 0 -109 -57 -109 -121c0 -54 33 -85 79 -85z" />
    <glyph glyph-name="percent" unicode="%" horiz-adv-x="581" 
d="M407 15c53 0 94 54 94 115c0 41 -26 73 -68 73c-54 0 -94 -54 -94 -115c0 -41 26 -73 68 -73zM50 -20l-14 14l249 252l249 255l14 -14l-248 -253zM168 294c54 0 94 55 94 115c0 41 -26 74 -68 74c-53 0 -94 -55 -94 -115c0 -41 26 -74 68 -74zM167 275
c-59 0 -92 44 -92 94c0 69 53 134 120 134c59 0 92 -45 92 -94c0 -70 -52 -134 -120 -134zM406 -5c-59 0 -92 45 -92 94c0 70 52 134 120 134c59 0 92 -45 92 -94c0 -70 -53 -134 -120 -134z" />
    <glyph glyph-name="perthousand" unicode="&#x2030;" horiz-adv-x="802" 
d="M50 -20l-14 14l249 252l249 255l14 -14l-248 -253zM168 294c54 0 94 55 94 115c0 41 -26 74 -68 74c-53 0 -94 -55 -94 -115c0 -41 26 -74 68 -74zM167 275c-59 0 -92 44 -92 94c0 69 53 134 120 134c59 0 92 -45 92 -94c0 -70 -52 -134 -120 -134zM407 15
c53 0 94 54 94 115c0 41 -26 73 -68 73c-54 0 -94 -54 -94 -115c0 -41 26 -73 68 -73zM406 -5c-59 0 -92 45 -92 94c0 70 52 134 120 134c59 0 92 -45 92 -94c0 -70 -53 -134 -120 -134zM650 15c54 0 94 54 94 115c0 41 -26 73 -68 73c-53 0 -94 -54 -94 -115
c0 -41 26 -73 68 -73zM650 -5c-60 0 -93 45 -93 94c0 70 53 134 120 134c59 0 92 -45 92 -94c0 -70 -52 -134 -119 -134z" />
    <glyph glyph-name="percent.lin" horiz-adv-x="665" 
d="M217 384c-70 0 -116 50 -116 120c0 83 65 163 152 163c70 0 115 -50 115 -120c0 -83 -64 -163 -151 -163zM56 -5l-16 15l312 325l314 328l16 -14l-312 -326zM468 -9c-70 0 -116 50 -116 120c0 83 65 163 152 163c70 0 116 -50 116 -120c0 -83 -65 -163 -152 -163z
M218 406c71 0 125 67 125 141c0 60 -39 98 -92 98c-70 0 -124 -67 -124 -141c0 -60 39 -98 91 -98zM470 13c70 0 124 67 124 141c0 60 -39 98 -92 98c-70 0 -124 -67 -124 -141c0 -60 39 -98 92 -98z" />
    <glyph glyph-name="perthousand.lin" horiz-adv-x="980" 
d="M56 -5l-16 15l312 325l314 328l16 -14l-312 -326zM218 406c71 0 125 67 125 141c0 60 -39 98 -92 98c-70 0 -124 -67 -124 -141c0 -60 39 -98 91 -98zM217 384c-70 0 -116 50 -116 120c0 83 65 163 152 163c70 0 115 -50 115 -120c0 -83 -64 -163 -151 -163zM470 13
c70 0 124 67 124 141c0 60 -39 98 -92 98c-70 0 -124 -67 -124 -141c0 -60 39 -98 92 -98zM468 -9c-70 0 -116 50 -116 120c0 83 65 163 152 163c70 0 116 -50 116 -120c0 -83 -65 -163 -152 -163zM785 13c70 0 124 67 124 141c0 60 -39 98 -91 98c-71 0 -125 -67 -125 -141
c0 -60 39 -98 92 -98zM783 -9c-70 0 -115 50 -115 120c0 83 64 163 151 163c70 0 116 -50 116 -120c0 -83 -65 -163 -152 -163z" />
    <glyph glyph-name="quotedbl" unicode="&#x22;" horiz-adv-x="238" 
d="M199 491l29 146c3 18 10 30 21 30s21 -7 21 -18c0 -6 -2 -13 -6 -22l-55 -136h-10zM86 491l29 146c3 18 10 30 21 30s21 -7 21 -18c0 -6 -2 -13 -6 -22l-55 -136h-10z" />
    <glyph glyph-name="quotesingle" unicode="'" horiz-adv-x="126" 
d="M86 491l29 146c3 18 10 30 21 30s21 -7 21 -18c0 -6 -2 -13 -6 -22l-55 -136h-10z" />
    <glyph glyph-name="quotedbl.lin" horiz-adv-x="247" 
d="M215 563l29 146c3 18 10 30 21 30s21 -7 21 -18c0 -6 -2 -13 -6 -22l-55 -136h-10zM102 563l29 146c3 18 10 30 21 30s21 -7 21 -18c0 -6 -2 -13 -6 -22l-55 -136h-10z" />
    <glyph glyph-name="quotesingle.lin" horiz-adv-x="125" 
d="M102 563l29 146c3 18 10 30 21 30s21 -7 21 -18c0 -6 -2 -13 -6 -22l-55 -136h-10z" />
    <glyph glyph-name="plus" unicode="+" horiz-adv-x="385" 
d="M252 411l-32 -137h134l-5 -23h-135l-34 -148h-23l34 148h-134l5 23h135l32 137h23z" />
    <glyph glyph-name="plus.lin" horiz-adv-x="385" 
d="M268 483l-32 -137h134l-5 -23h-135l-34 -148h-23l34 148h-134l5 23h135l32 137h23z" />
    <glyph glyph-name="minus" unicode="&#x2212;" horiz-adv-x="385" 
d="M57 251l5 23h292l-5 -23h-292z" />
    <glyph glyph-name="minus.lin" horiz-adv-x="385" 
d="M73 323l5 23h292l-5 -23h-292z" />
    <glyph glyph-name="divide" unicode="&#xf7;" horiz-adv-x="385" 
d="M57 251l5 23h292l-5 -23h-292zM233 354c-15 0 -26 12 -26 27s11 27 26 27s26 -12 26 -27s-11 -27 -26 -27zM178 116c-15 0 -26 12 -26 27s11 27 26 27s26 -12 26 -27s-11 -27 -26 -27z" />
    <glyph glyph-name="divide.lin" horiz-adv-x="385" 
d="M73 323l5 23h292l-5 -23h-292zM249 426c-15 0 -26 12 -26 27s11 27 26 27s26 -12 26 -27s-11 -27 -26 -27zM194 188c-15 0 -26 12 -26 27s11 27 26 27s26 -12 26 -27s-11 -27 -26 -27z" />
    <glyph glyph-name="equal" unicode="=" horiz-adv-x="385" 
d="M69 308l5 22h292l-5 -22h-292zM37 170l5 23h292l-5 -23h-292z" />
    <glyph glyph-name="equal.lin" horiz-adv-x="385" 
d="M75 380l5 22h292l-5 -22h-292zM43 242l5 23h292l-5 -23h-292z" />
    <glyph glyph-name="multiply" unicode="&#xd7;" horiz-adv-x="385" 
d="M113 402l95 -123l145 117l14 -18l-145 -118l95 -123l-18 -15l-96 123l-144 -116l-14 18l144 117l-94 123z" />
    <glyph glyph-name="multiply.lin" horiz-adv-x="385" 
d="M116 474l95 -123l145 117l14 -18l-145 -118l95 -123l-18 -15l-96 123l-144 -116l-14 18l144 117l-94 123z" />
    <glyph glyph-name="less" unicode="&#x3c;" horiz-adv-x="366" 
d="M252 93l-196 154l2 9l266 150l12 -19l-245 -138l175 -138z" />
    <glyph glyph-name="less.lin" horiz-adv-x="366" 
d="M268 165l-196 154l2 9l266 150l12 -19l-245 -138l175 -138z" />
    <glyph glyph-name="greater" unicode="&#x3e;" horiz-adv-x="366" 
d="M62 94l-12 19l245 138l-175 138l14 18l196 -154l-2 -9z" />
    <glyph glyph-name="greater.lin" horiz-adv-x="366" 
d="M79 166l-12 19l245 138l-175 138l14 18l196 -154l-2 -9z" />
    <glyph glyph-name="plusminus" unicode="&#xb1;" horiz-adv-x="385" 
d="M262 456l-32 -137h134l-5 -23h-135l-32 -140h-23l32 140h-133l5 23h134l32 137h23zM16 72l4 23h292l-5 -23h-291z" />
    <glyph glyph-name="plusminus.lin" horiz-adv-x="385" 
d="M265 528l-32 -137h134l-5 -23h-135l-32 -140h-23l32 140h-133l5 23h134l32 137h23zM19 144l4 23h292l-5 -23h-291z" />
    <glyph glyph-name="onehalf" unicode="&#xbd;" horiz-adv-x="795" 
d="M442 0l-4 10c32 84 101 128 172 167c56 29 102 60 102 106c0 39 -33 66 -83 66c-56 0 -93 -30 -99 -55c9 -2 14 -10 14 -17c0 -12 -8 -19 -18 -19c-11 0 -19 9 -19 25c0 37 49 85 123 85c62 0 104 -35 104 -85c0 -55 -52 -88 -115 -122c-61 -33 -126 -72 -154 -143h195
l18 75h19l-21 -93h-234zM74 280l4 19h103l76 324l-111 -31v19l126 36l10 -5l-80 -343h100l-4 -19h-224zM150 -7l-13 11l268 320c101 119 228 272 267 319l13 -11l-268 -319c-101 -120 -228 -272 -267 -320z" />
    <glyph glyph-name="onethird" unicode="&#x2153;" horiz-adv-x="795" 
d="M480 64c7 -25 45 -50 93 -50c67 0 110 40 110 88c0 43 -40 77 -94 77h-20l4 18h18c70 0 120 39 120 84c0 41 -36 68 -89 68c-44 0 -76 -20 -82 -41c10 -2 15 -9 15 -17c0 -11 -9 -17 -18 -17c-12 0 -20 10 -20 26c0 33 43 68 108 68s108 -38 108 -85
c0 -50 -46 -88 -106 -96c47 -9 78 -43 78 -85c0 -61 -57 -106 -132 -106c-64 0 -114 38 -114 78c0 15 8 27 21 27c11 0 18 -8 18 -18c0 -9 -7 -17 -18 -19zM87 280l4 19h103l76 324l-111 -31v19l126 36l10 -5l-80 -343h100l-4 -19h-224zM153 -7l-13 11l268 320
c101 119 228 272 267 319l13 -11l-268 -319c-101 -120 -228 -272 -267 -320z" />
    <glyph glyph-name="twothirds" unicode="&#x2154;" horiz-adv-x="795" 
d="M82 280l-4 10c32 84 101 128 172 167c56 29 102 60 102 106c0 39 -33 66 -83 66c-56 0 -93 -30 -99 -55c9 -2 14 -10 14 -17c0 -12 -8 -19 -18 -19c-11 0 -19 9 -19 25c0 37 49 85 123 85c62 0 104 -35 104 -85c0 -55 -52 -88 -115 -122c-61 -33 -126 -72 -154 -143h195
l18 75h19l-21 -93h-234zM485 64c7 -25 45 -50 93 -50c67 0 110 40 110 88c0 43 -40 77 -94 77h-20l4 18h18c70 0 120 39 120 84c0 41 -36 68 -89 68c-44 0 -76 -20 -82 -41c10 -2 15 -9 15 -17c0 -11 -9 -17 -18 -17c-12 0 -20 10 -20 26c0 33 43 68 108 68s108 -38 108 -85
c0 -50 -46 -88 -106 -96c47 -9 78 -43 78 -85c0 -61 -57 -106 -132 -106c-64 0 -114 38 -114 78c0 15 8 27 21 27c11 0 18 -8 18 -18c0 -9 -7 -17 -18 -19zM165 -7l-13 11l268 320c101 119 228 272 267 319l13 -11l-268 -319c-101 -120 -228 -272 -267 -320z" />
    <glyph glyph-name="onequarter" unicode="&#xbc;" horiz-adv-x="795" 
d="M601 17l23 96h-177l-3 10l246 246l13 -12l-228 -227h153l24 100l22 9l-26 -108h69l-4 -18h-69l-22 -96h56l-4 -17h-144l4 17h67zM85 280l4 19h103l76 324l-111 -31v19l126 36l10 -5l-80 -343h100l-4 -19h-224zM163 -7l-13 11l268 320c101 119 228 272 267 319l13 -11
l-268 -319c-101 -120 -228 -272 -267 -320z" />
    <glyph glyph-name="threequarters" unicode="&#xbe;" horiz-adv-x="795" 
d="M124 344c7 -25 45 -50 93 -50c67 0 110 40 110 88c0 43 -40 77 -94 77h-20l4 18h18c70 0 120 39 120 84c0 41 -36 68 -89 68c-44 0 -76 -20 -82 -41c10 -2 15 -9 15 -17c0 -11 -9 -17 -18 -17c-12 0 -20 10 -20 26c0 33 43 68 108 68s108 -38 108 -85
c0 -50 -46 -88 -106 -96c47 -9 78 -43 78 -85c0 -61 -57 -106 -132 -106c-64 0 -114 38 -114 78c0 15 8 27 21 27c11 0 18 -8 18 -18c0 -9 -7 -17 -18 -19zM598 17l23 96h-177l-3 10l246 246l13 -12l-228 -227h153l24 100l22 9l-26 -108h69l-4 -18h-69l-22 -96h56l-4 -17
h-144l4 17h67zM171 -7l-13 11l268 320c101 119 228 272 267 319l13 -11l-268 -319c-101 -120 -228 -272 -267 -320z" />
    <glyph glyph-name="onefifth" unicode="&#x2155;" horiz-adv-x="795" 
d="M474 49c8 -18 37 -37 77 -37c74 0 130 53 130 114c0 45 -31 76 -87 76c-33 0 -66 -8 -88 -18l-11 8l56 169h185l-4 -20h-168l-46 -136c19 7 47 15 81 15c63 0 103 -38 103 -92c0 -72 -65 -134 -153 -134c-55 0 -100 33 -100 65c0 13 7 23 19 23c9 0 17 -7 17 -17
c0 -7 -4 -13 -11 -16zM81 280l4 19h103l76 324l-111 -31v19l126 36l10 -5l-80 -343h100l-4 -19h-224zM151 -7l-13 11l268 320c101 119 228 272 267 319l13 -11l-268 -319c-101 -120 -228 -272 -267 -320z" />
    <glyph glyph-name="twofifths" unicode="&#x2156;" horiz-adv-x="795" 
d="M95 280l-4 10c32 84 101 128 172 167c56 29 102 60 102 106c0 39 -33 66 -83 66c-56 0 -93 -30 -99 -55c9 -2 14 -10 14 -17c0 -12 -8 -19 -18 -19c-11 0 -19 9 -19 25c0 37 49 85 123 85c62 0 104 -35 104 -85c0 -55 -52 -88 -115 -122c-61 -33 -126 -72 -154 -143h195
l18 75h19l-21 -93h-234zM484 49c8 -18 37 -37 77 -37c74 0 130 53 130 114c0 45 -31 76 -87 76c-33 0 -66 -8 -88 -18l-11 8l56 169h185l-4 -20h-168l-46 -136c19 7 47 15 81 15c63 0 103 -38 103 -92c0 -72 -65 -134 -153 -134c-55 0 -100 33 -100 65c0 13 7 23 19 23
c9 0 17 -7 17 -17c0 -7 -4 -13 -11 -16zM173 -7l-13 11l268 320c101 119 228 272 267 319l13 -11l-268 -319c-101 -120 -228 -272 -267 -320z" />
    <glyph glyph-name="threefifths" unicode="&#x2157;" horiz-adv-x="795" 
d="M122 344c7 -25 45 -50 93 -50c67 0 110 40 110 88c0 43 -40 77 -94 77h-20l4 18h18c70 0 120 39 120 84c0 41 -36 68 -89 68c-44 0 -76 -20 -82 -41c10 -2 15 -9 15 -17c0 -11 -9 -17 -18 -17c-12 0 -20 10 -20 26c0 33 43 68 108 68s108 -38 108 -85
c0 -50 -46 -88 -106 -96c47 -9 78 -43 78 -85c0 -61 -57 -106 -132 -106c-64 0 -114 38 -114 78c0 15 8 27 21 27c11 0 18 -8 18 -18c0 -9 -7 -17 -18 -19zM481 49c8 -18 37 -37 77 -37c74 0 130 53 130 114c0 45 -31 76 -87 76c-33 0 -66 -8 -88 -18l-11 8l56 169h185
l-4 -20h-168l-46 -136c19 7 47 15 81 15c63 0 103 -38 103 -92c0 -72 -65 -134 -153 -134c-55 0 -100 33 -100 65c0 13 7 23 19 23c9 0 17 -7 17 -17c0 -7 -4 -13 -11 -16zM157 -7l-13 11l268 320c101 119 228 272 267 319l13 -11l-268 -319c-101 -120 -228 -272 -267 -320z
" />
    <glyph glyph-name="fourfifths" unicode="&#x2158;" horiz-adv-x="795" 
d="M491 49c8 -18 37 -37 77 -37c74 0 130 53 130 114c0 45 -31 76 -87 76c-33 0 -66 -8 -88 -18l-11 8l56 169h185l-4 -20h-168l-46 -136c19 7 47 15 81 15c63 0 103 -38 103 -92c0 -72 -65 -134 -153 -134c-55 0 -100 33 -100 65c0 13 7 23 19 23c9 0 17 -7 17 -17
c0 -7 -4 -13 -11 -16zM247 297l23 96h-177l-3 10l246 246l13 -12l-228 -227h153l24 100l22 9l-26 -108h69l-4 -18h-69l-22 -96h56l-4 -17h-144l4 17h67zM166 -7l-13 11l268 320c101 119 228 272 267 319l13 -11l-268 -319c-101 -120 -228 -272 -267 -320z" />
    <glyph glyph-name="onesixth" unicode="&#x2159;" horiz-adv-x="795" 
d="M698 321c-5 14 -23 29 -57 29c-32 0 -63 -16 -88 -40c-41 -41 -68 -109 -75 -164c21 44 66 75 118 75c61 0 102 -40 102 -95c0 -68 -61 -131 -133 -131c-33 0 -59 12 -77 30c-22 21 -32 50 -32 90c0 64 29 156 83 208c29 27 63 45 101 45c52 0 83 -31 83 -58
c0 -17 -10 -26 -20 -26c-9 0 -17 6 -17 17c0 7 3 15 12 20zM565 14c61 0 111 53 111 111c0 46 -33 79 -83 79c-61 0 -114 -53 -114 -109c0 -23 9 -42 24 -57s36 -24 62 -24zM81 280l4 19h103l76 324l-111 -31v19l126 36l10 -5l-80 -343h100l-4 -19h-224zM149 -7l-13 11
l268 320c101 119 228 272 267 319l13 -11l-268 -319c-101 -120 -228 -272 -267 -320z" />
    <glyph glyph-name="fivesixths" unicode="&#x215a;" horiz-adv-x="795" 
d="M706 321c-5 14 -23 29 -57 29c-32 0 -63 -16 -88 -40c-41 -41 -68 -109 -75 -164c21 44 66 75 118 75c61 0 102 -40 102 -95c0 -68 -61 -131 -133 -131c-33 0 -59 12 -77 30c-22 21 -32 50 -32 90c0 64 29 156 83 208c29 27 63 45 101 45c52 0 83 -31 83 -58
c0 -17 -10 -26 -20 -26c-9 0 -17 6 -17 17c0 7 3 15 12 20zM573 14c61 0 111 53 111 111c0 46 -33 79 -83 79c-61 0 -114 -53 -114 -109c0 -23 9 -42 24 -57s36 -24 62 -24zM121 329c8 -18 37 -37 77 -37c74 0 130 53 130 114c0 45 -31 76 -87 76c-33 0 -66 -8 -88 -18
l-11 8l56 169h185l-4 -20h-168l-46 -136c19 7 47 15 81 15c63 0 103 -38 103 -92c0 -72 -65 -134 -153 -134c-55 0 -100 33 -100 65c0 13 7 23 19 23c9 0 17 -7 17 -17c0 -7 -4 -13 -11 -16zM158 -7l-13 11l268 320c101 119 228 272 267 319l13 -11l-268 -319
c-101 -120 -228 -272 -267 -320z" />
    <glyph glyph-name="oneeighth" unicode="&#x215b;" horiz-adv-x="795" 
d="M575 -4c-69 0 -120 41 -120 96s54 98 111 101c-34 12 -63 41 -63 79c0 51 54 96 124 96c65 0 111 -39 111 -88c0 -51 -45 -85 -100 -94c38 -13 68 -43 68 -85c0 -61 -59 -105 -131 -105zM574 14c58 0 111 36 111 87c0 46 -42 80 -99 80c-60 0 -109 -39 -109 -87
c0 -46 41 -80 97 -80zM613 197c56 0 103 36 103 82c0 38 -36 71 -90 71c-55 0 -101 -35 -101 -80c0 -42 42 -73 88 -73zM89 280l4 19h103l76 324l-111 -31v19l126 36l10 -5l-80 -343h100l-4 -19h-224zM154 -7l-13 11l268 320c101 119 228 272 267 319l13 -11l-268 -319
c-101 -120 -228 -272 -267 -320z" />
    <glyph glyph-name="threeeighths" unicode="&#x215c;" horiz-adv-x="795" 
d="M581 -4c-69 0 -120 41 -120 96s54 98 111 101c-34 12 -63 41 -63 79c0 51 54 96 124 96c65 0 111 -39 111 -88c0 -51 -45 -85 -100 -94c38 -13 68 -43 68 -85c0 -61 -59 -105 -131 -105zM580 14c58 0 111 36 111 87c0 46 -42 80 -99 80c-60 0 -109 -39 -109 -87
c0 -46 41 -80 97 -80zM619 197c56 0 103 36 103 82c0 38 -36 71 -90 71c-55 0 -101 -35 -101 -80c0 -42 42 -73 88 -73zM115 344c7 -25 45 -50 93 -50c67 0 110 40 110 88c0 43 -40 77 -94 77h-20l4 18h18c70 0 120 39 120 84c0 41 -36 68 -89 68c-44 0 -76 -20 -82 -41
c10 -2 15 -9 15 -17c0 -11 -9 -17 -18 -17c-12 0 -20 10 -20 26c0 33 43 68 108 68s108 -38 108 -85c0 -50 -46 -88 -106 -96c47 -9 78 -43 78 -85c0 -61 -57 -106 -132 -106c-64 0 -114 38 -114 78c0 15 8 27 21 27c11 0 18 -8 18 -18c0 -9 -7 -17 -18 -19zM154 -7l-13 11
l268 320c101 119 228 272 267 319l13 -11l-268 -319c-101 -120 -228 -272 -267 -320z" />
    <glyph glyph-name="fiveeighths" unicode="&#x215d;" horiz-adv-x="795" 
d="M574 -4c-69 0 -120 41 -120 96s54 98 111 101c-34 12 -63 41 -63 79c0 51 54 96 124 96c65 0 111 -39 111 -88c0 -51 -45 -85 -100 -94c38 -13 68 -43 68 -85c0 -61 -59 -105 -131 -105zM573 14c58 0 111 36 111 87c0 46 -42 80 -99 80c-60 0 -109 -39 -109 -87
c0 -46 41 -80 97 -80zM612 197c56 0 103 36 103 82c0 38 -36 71 -90 71c-55 0 -101 -35 -101 -80c0 -42 42 -73 88 -73zM114 329c8 -18 37 -37 77 -37c74 0 130 53 130 114c0 45 -31 76 -87 76c-33 0 -66 -8 -88 -18l-11 8l56 169h185l-4 -20h-168l-46 -136
c19 7 47 15 81 15c63 0 103 -38 103 -92c0 -72 -65 -134 -153 -134c-55 0 -100 33 -100 65c0 13 7 23 19 23c9 0 17 -7 17 -17c0 -7 -4 -13 -11 -16zM147 -7l-13 11l268 320c101 119 228 272 267 319l13 -11l-268 -319c-101 -120 -228 -272 -267 -320z" />
    <glyph glyph-name="seveneighths" unicode="&#x215e;" horiz-adv-x="795" 
d="M573 -4c-69 0 -120 41 -120 96s54 98 111 101c-34 12 -63 41 -63 79c0 51 54 96 124 96c65 0 111 -39 111 -88c0 -51 -45 -85 -100 -94c38 -13 68 -43 68 -85c0 -61 -59 -105 -131 -105zM572 14c58 0 111 36 111 87c0 46 -42 80 -99 80c-60 0 -109 -39 -109 -87
c0 -46 41 -80 97 -80zM611 197c56 0 103 36 103 82c0 38 -36 71 -90 71c-55 0 -101 -35 -101 -80c0 -42 42 -73 88 -73zM153 280l234 344h-196l-15 -66h-20l19 84h235l5 -10l-238 -352h-24zM118 -7l-13 11l268 320c101 119 228 272 267 319l13 -11l-268 -319
c-101 -120 -228 -272 -267 -320z" />
    <glyph glyph-name="zero.sup" unicode="&#x2070;" horiz-adv-x="353" 
d="M243 426c-67 0 -105 54 -105 134c0 123 63 239 159 239c66 0 105 -55 105 -135c0 -122 -65 -238 -159 -238zM244 444c81 0 136 111 136 219c0 69 -29 117 -85 117c-81 0 -135 -110 -135 -218c0 -70 28 -118 84 -118z" />
    <glyph glyph-name="one.sup" unicode="&#xb9;" horiz-adv-x="353" 
d="M130 430l4 19h103l76 324l-111 -31v19l126 36l10 -5l-80 -343h100l-4 -19h-224z" />
    <glyph glyph-name="two.sup" unicode="&#xb2;" horiz-adv-x="353" 
d="M117 430l-4 10c32 84 101 128 172 167c56 29 102 60 102 106c0 39 -33 66 -83 66c-56 0 -93 -30 -99 -55c9 -2 14 -10 14 -17c0 -12 -8 -19 -18 -19c-11 0 -19 9 -19 25c0 37 49 85 123 85c62 0 104 -35 104 -85c0 -55 -52 -88 -115 -122c-61 -33 -126 -72 -154 -143h195
l18 75h19l-21 -93h-234z" />
    <glyph glyph-name="three.sup" unicode="&#xb3;" horiz-adv-x="353" 
d="M151 494c7 -25 45 -50 93 -50c67 0 110 40 110 88c0 43 -40 77 -94 77h-20l4 18h18c70 0 120 39 120 84c0 41 -36 68 -89 68c-44 0 -76 -20 -82 -41c10 -2 15 -9 15 -17c0 -11 -9 -17 -18 -17c-12 0 -20 10 -20 26c0 33 43 68 108 68s108 -38 108 -85
c0 -50 -46 -88 -106 -96c47 -9 78 -43 78 -85c0 -61 -57 -106 -132 -106c-64 0 -114 38 -114 78c0 15 8 27 21 27c11 0 18 -8 18 -18c0 -9 -7 -17 -18 -19z" />
    <glyph glyph-name="four.sup" unicode="&#x2074;" horiz-adv-x="353" 
d="M277 447l23 96h-177l-3 10l246 246l13 -12l-228 -227h153l24 100l22 9l-26 -108h69l-4 -18h-69l-22 -96h56l-4 -17h-144l4 17h67z" />
    <glyph glyph-name="five.sup" unicode="&#x2075;" horiz-adv-x="353" 
d="M150 479c8 -18 37 -37 77 -37c74 0 130 53 130 114c0 45 -31 76 -87 76c-33 0 -66 -8 -88 -18l-11 8l56 169h185l-4 -20h-168l-46 -136c19 7 47 15 81 15c63 0 103 -38 103 -92c0 -72 -65 -134 -153 -134c-55 0 -100 33 -100 65c0 13 7 23 19 23c9 0 17 -7 17 -17
c0 -7 -4 -13 -11 -16z" />
    <glyph glyph-name="six.sup" unicode="&#x2076;" horiz-adv-x="353" 
d="M384 751c-5 14 -23 29 -57 29c-32 0 -63 -16 -88 -40c-41 -41 -68 -109 -75 -164c21 44 66 75 118 75c61 0 102 -40 102 -95c0 -68 -61 -131 -133 -131c-33 0 -59 12 -77 30c-22 21 -32 50 -32 90c0 64 29 156 83 208c29 27 63 45 101 45c52 0 83 -31 83 -58
c0 -17 -10 -26 -20 -26c-9 0 -17 6 -17 17c0 7 3 15 12 20zM251 444c61 0 111 53 111 111c0 46 -33 79 -83 79c-61 0 -114 -53 -114 -109c0 -23 9 -42 24 -57s36 -24 62 -24z" />
    <glyph glyph-name="seven.sup" unicode="&#x2077;" horiz-adv-x="353" 
d="M177 430l234 344h-196l-15 -66h-20l19 84h235l5 -10l-238 -352h-24z" />
    <glyph glyph-name="eight.sup" unicode="&#x2078;" horiz-adv-x="353" 
d="M251 426c-69 0 -120 41 -120 96s54 98 111 101c-34 12 -63 41 -63 79c0 51 54 96 124 96c65 0 111 -39 111 -88c0 -51 -45 -85 -100 -94c38 -13 68 -43 68 -85c0 -61 -59 -105 -131 -105zM289 627c56 0 103 36 103 82c0 38 -36 71 -90 71c-55 0 -101 -35 -101 -80
c0 -42 42 -73 88 -73zM250 444c58 0 111 36 111 87c0 46 -42 80 -99 80c-60 0 -109 -39 -109 -87c0 -46 41 -80 97 -80z" />
    <glyph glyph-name="nine.sup" unicode="&#x2079;" horiz-adv-x="353" 
d="M166 472c5 -14 23 -29 57 -29c32 0 63 16 88 40c41 41 68 109 75 164c-21 -44 -66 -75 -118 -75c-61 0 -102 40 -102 95c0 68 61 131 133 131c33 0 59 -12 77 -30c22 -21 32 -50 32 -90c0 -64 -29 -156 -83 -208c-29 -27 -63 -45 -101 -45c-52 0 -83 31 -83 58
c0 17 10 26 20 26c9 0 17 -6 17 -17c0 -7 -3 -15 -12 -20zM299 779c-61 0 -111 -53 -111 -111c0 -46 33 -79 83 -79c61 0 114 53 114 109c0 23 -9 42 -24 57s-36 24 -62 24z" />
    <glyph glyph-name="zero.inf" unicode="&#x2080;" horiz-adv-x="353" 
d="M112 -144c-67 0 -105 54 -105 134c0 123 63 239 159 239c66 0 105 -55 105 -135c0 -122 -65 -238 -159 -238zM113 -126c81 0 136 111 136 219c0 69 -29 117 -85 117c-81 0 -135 -110 -135 -218c0 -70 28 -118 84 -118z" />
    <glyph glyph-name="one.inf" unicode="&#x2081;" horiz-adv-x="353" 
d="M-1 -140l4 19h103l76 324l-111 -31v19l126 36l10 -5l-80 -343h100l-4 -19h-224z" />
    <glyph glyph-name="two.inf" unicode="&#x2082;" horiz-adv-x="353" 
d="M-14 -140l-4 10c32 84 101 128 172 167c56 29 102 60 102 106c0 39 -33 66 -83 66c-56 0 -93 -30 -99 -55c9 -2 14 -10 14 -17c0 -12 -8 -19 -18 -19c-11 0 -19 9 -19 25c0 37 49 85 123 85c62 0 104 -35 104 -85c0 -55 -52 -88 -115 -122c-61 -33 -126 -72 -154 -143
h195l18 75h19l-21 -93h-234z" />
    <glyph glyph-name="three.inf" unicode="&#x2083;" horiz-adv-x="353" 
d="M20 -76c7 -25 45 -50 93 -50c67 0 110 40 110 88c0 43 -40 77 -94 77h-20l4 18h18c70 0 120 39 120 84c0 41 -36 68 -89 68c-44 0 -76 -20 -82 -41c10 -2 15 -9 15 -17c0 -11 -9 -17 -18 -17c-12 0 -20 10 -20 26c0 33 43 68 108 68s108 -38 108 -85
c0 -50 -46 -88 -106 -96c47 -9 78 -43 78 -85c0 -61 -57 -106 -132 -106c-64 0 -114 38 -114 78c0 15 8 27 21 27c11 0 18 -8 18 -18c0 -9 -7 -17 -18 -19z" />
    <glyph glyph-name="four.inf" unicode="&#x2084;" horiz-adv-x="353" 
d="M146 -123l23 96h-177l-3 10l246 246l13 -12l-228 -227h153l24 100l22 9l-26 -108h69l-4 -18h-69l-22 -96h56l-4 -17h-144l4 17h67z" />
    <glyph glyph-name="five.inf" unicode="&#x2085;" horiz-adv-x="353" 
d="M19 -91c8 -18 37 -37 77 -37c74 0 130 53 130 114c0 45 -31 76 -87 76c-33 0 -66 -8 -88 -18l-11 8l56 169h185l-4 -20h-168l-46 -136c19 7 47 15 81 15c63 0 103 -38 103 -92c0 -72 -65 -134 -153 -134c-55 0 -100 33 -100 65c0 13 7 23 19 23c9 0 17 -7 17 -17
c0 -7 -4 -13 -11 -16z" />
    <glyph glyph-name="six.inf" unicode="&#x2086;" horiz-adv-x="353" 
d="M253 181c-5 14 -23 29 -57 29c-32 0 -63 -16 -88 -40c-41 -41 -68 -109 -75 -164c21 44 66 75 118 75c61 0 102 -40 102 -95c0 -68 -61 -131 -133 -131c-33 0 -59 12 -77 30c-22 21 -32 50 -32 90c0 64 29 156 83 208c29 27 63 45 101 45c52 0 83 -31 83 -58
c0 -17 -10 -26 -20 -26c-9 0 -17 6 -17 17c0 7 3 15 12 20zM120 -126c61 0 111 53 111 111c0 46 -33 79 -83 79c-61 0 -114 -53 -114 -109c0 -23 9 -42 24 -57s36 -24 62 -24z" />
    <glyph glyph-name="seven.inf" unicode="&#x2087;" horiz-adv-x="353" 
d="M46 -140l234 344h-196l-15 -66h-20l19 84h235l5 -10l-238 -352h-24z" />
    <glyph glyph-name="eight.inf" unicode="&#x2088;" horiz-adv-x="353" 
d="M120 -144c-69 0 -120 41 -120 96s54 98 111 101c-34 12 -63 41 -63 79c0 51 54 96 124 96c65 0 111 -39 111 -88c0 -51 -45 -85 -100 -94c38 -13 68 -43 68 -85c0 -61 -59 -105 -131 -105zM158 57c56 0 103 36 103 82c0 38 -36 71 -90 71c-55 0 -101 -35 -101 -80
c0 -42 42 -73 88 -73zM119 -126c58 0 111 36 111 87c0 46 -42 80 -99 80c-60 0 -109 -39 -109 -87c0 -46 41 -80 97 -80z" />
    <glyph glyph-name="nine.inf" unicode="&#x2089;" horiz-adv-x="353" 
d="M35 -98c5 -14 23 -29 57 -29c32 0 63 16 88 40c41 41 68 109 75 164c-21 -44 -66 -75 -118 -75c-61 0 -102 40 -102 95c0 68 61 131 133 131c33 0 59 -12 77 -30c22 -21 32 -50 32 -90c0 -64 -29 -156 -83 -208c-29 -27 -63 -45 -101 -45c-52 0 -83 31 -83 58
c0 17 10 26 20 26c9 0 17 -6 17 -17c0 -7 -3 -15 -12 -20zM168 209c-61 0 -111 -53 -111 -111c0 -46 33 -79 83 -79c61 0 114 53 114 109c0 23 -9 42 -24 57s-36 24 -62 24z" />
    <glyph glyph-name="zero.tab" horiz-adv-x="530" 
d="M518 436c-1 -219 -127 -444 -286 -444c-102 0 -164 87 -163 232c1 219 127 444 286 444c102 0 164 -87 163 -232zM97 226c0 -130 49 -210 138 -210c143 0 255 222 255 418c0 130 -49 210 -138 210c-143 0 -255 -222 -255 -418z" />
    <glyph glyph-name="one.tab" horiz-adv-x="530" 
d="M41 0l5 23h172l143 613l-193 -54v24l213 60l12 -6l-149 -637h171l-5 -23h-369z" />
    <glyph glyph-name="two.tab" horiz-adv-x="530" 
d="M167 531c14 -4 24 -16 24 -29c0 -15 -12 -26 -26 -26c-16 0 -29 12 -29 35c0 68 81 158 213 158c109 0 175 -66 175 -152c0 -100 -84 -158 -194 -221c-116 -67 -229 -140 -279 -273h352l31 138h26l-36 -161h-401l-5 12c55 151 170 230 300 304c104 59 178 114 178 200
c0 75 -57 129 -148 129c-106 0 -170 -64 -181 -114z" />
    <glyph glyph-name="three.tab" horiz-adv-x="530" 
d="M168 565c15 -5 23 -14 23 -28c0 -15 -11 -25 -25 -25c-15 0 -28 12 -28 32c0 64 82 124 190 124c109 0 182 -66 182 -152c0 -94 -85 -161 -201 -175c93 -17 152 -77 152 -158c0 -104 -90 -190 -227 -190c-109 0 -197 68 -197 136c0 24 11 39 29 39c14 0 24 -11 24 -24
c0 -14 -11 -25 -26 -27c10 -48 80 -101 171 -101c126 0 198 78 198 167c0 86 -70 148 -189 148h-29l5 23h32c146 0 230 73 230 160c0 77 -63 131 -158 131c-80 0 -142 -39 -156 -80z" />
    <glyph glyph-name="four.tab" horiz-adv-x="530" 
d="M432 434l-47 -203h120l-5 -22h-120l-43 -186h104l-5 -23h-255l5 23h125l43 186h-313l-3 11l448 449l18 -16l-423 -422h278l44 190z" />
    <glyph glyph-name="five.tab" horiz-adv-x="530" 
d="M69 89c15 -39 72 -75 148 -75c143 0 232 108 232 214c0 94 -69 145 -172 145c-53 0 -98 -9 -145 -27l-11 10l100 302h318l-5 -25h-297l-86 -259c36 13 78 23 127 23c120 0 198 -63 198 -168c0 -116 -99 -238 -261 -238c-97 0 -179 57 -179 115c0 18 10 33 26 33
c14 0 26 -11 26 -24s-8 -22 -19 -26z" />
    <glyph glyph-name="six.tab" horiz-adv-x="530" 
d="M502 585c-8 27 -39 61 -107 61c-59 0 -112 -25 -157 -71c-76 -77 -126 -214 -137 -319c28 72 104 144 209 144c110 0 182 -73 182 -173c0 -119 -100 -236 -228 -236c-59 0 -103 21 -134 52c-41 40 -57 91 -57 166c0 111 50 283 149 382c48 48 105 77 174 77
c91 0 138 -57 138 -102c0 -22 -13 -36 -29 -36c-14 0 -24 11 -24 24s8 24 21 31zM265 14c110 0 198 102 198 212c0 90 -62 151 -154 151c-117 0 -205 -100 -205 -207c0 -44 16 -83 45 -111s67 -45 116 -45z" />
    <glyph glyph-name="seven.tab" horiz-adv-x="530" 
d="M114 0l433 635h-369l-27 -117h-25l32 140h421l6 -10l-440 -648h-31z" />
    <glyph glyph-name="eight.tab" horiz-adv-x="530" 
d="M501 510c0 76 -62 135 -161 135c-102 0 -180 -67 -180 -154c0 -76 68 -137 158 -137c108 0 183 69 183 156zM477 183c0 -111 -101 -191 -219 -191c-114 0 -204 68 -204 170c0 100 86 180 195 187c-66 19 -115 78 -115 144c0 94 86 176 206 176c108 0 188 -67 188 -158
c0 -95 -75 -160 -180 -172c76 -18 129 -79 129 -156zM451 182c0 86 -68 151 -178 151c-113 0 -193 -80 -193 -170c0 -88 77 -148 178 -148s193 69 193 167z" />
    <glyph glyph-name="nine.tab" horiz-adv-x="530" 
d="M94 75c8 -26 39 -61 107 -61c59 0 111 24 157 70c78 78 127 217 137 323c-26 -73 -103 -148 -210 -148c-109 0 -181 73 -181 173c0 119 100 236 228 236c59 0 103 -21 134 -52c40 -39 56 -91 56 -166c0 -111 -49 -283 -148 -382c-48 -48 -106 -77 -174 -77
c-92 0 -139 57 -139 102c0 22 13 36 29 36c14 0 24 -11 24 -24s-8 -23 -20 -30zM331 645c-110 0 -199 -102 -199 -212c0 -90 63 -151 157 -151c114 0 203 100 203 207c0 44 -16 83 -45 111c-29 29 -67 45 -116 45z" />
    <glyph glyph-name="period.tab" horiz-adv-x="265" 
d="M105 -9c-18 0 -30 14 -30 31s12 30 30 30c17 0 30 -13 30 -30s-13 -31 -30 -31z" />
    <glyph glyph-name="comma.tab" horiz-adv-x="265" 
d="M29 -112l-5 11c50 28 78 69 79 97c-16 -1 -28 13 -28 28c0 16 12 28 28 28c19 0 31 -16 31 -37c0 -43 -34 -95 -105 -127z" />
    <glyph glyph-name="colon.tab" horiz-adv-x="265" 
d="M107 -9c-17 0 -30 14 -30 31s13 30 30 30c18 0 30 -13 30 -30s-12 -31 -30 -31zM174 281c-18 0 -30 14 -30 31s12 31 30 31c17 0 30 -14 30 -31s-13 -31 -30 -31z" />
    <glyph glyph-name="semicolon.tab" horiz-adv-x="265" 
d="M174 281c-17 0 -29 14 -29 31s12 31 29 31c18 0 30 -14 30 -31s-12 -31 -30 -31zM33 -112l-6 11c51 28 79 69 80 97c-16 -1 -29 13 -29 28c0 16 12 28 28 28c20 0 32 -16 32 -37c0 -43 -34 -95 -105 -127z" />
    <glyph glyph-name="twodotleader.tab" horiz-adv-x="530" 
d="M105 -9c-18 0 -30 14 -30 31s12 30 30 30c17 0 30 -13 30 -30s-13 -31 -30 -31zM370 -9c-18 0 -30 14 -30 31s12 30 30 30c17 0 30 -13 30 -30s-13 -31 -30 -31z" />
    <glyph glyph-name="periodcentered.tab" horiz-adv-x="265" 
d="M142 218c-17 0 -29 14 -29 31s12 30 29 30c18 0 30 -13 30 -30s-12 -31 -30 -31z" />
    <glyph glyph-name="slash.tab" horiz-adv-x="530" 
d="M-40 -202l-19 14l625 923l19 -14z" />
    <glyph glyph-name="bar.tab" horiz-adv-x="265" 
d="M122 -200v932h22v-932h-22z" />
    <glyph glyph-name="underscore.tab" horiz-adv-x="530" 
d="M-61 -126l6 24h543l-5 -24h-544z" />
    <glyph glyph-name="dollar.tab" horiz-adv-x="530" 
d="M494 560c-15 26 -48 53 -96 65l-85 -281c76 -41 153 -85 153 -177c0 -100 -86 -165 -215 -165c-15 0 -29 1 -43 3l-31 -105l-21 6l30 103c-89 21 -145 80 -145 126c0 19 10 34 28 34c16 0 26 -12 26 -26s-8 -25 -21 -31c12 -32 56 -67 120 -81l92 298
c-75 40 -147 84 -147 170c0 97 90 157 203 157c15 0 30 -1 44 -4l27 94l22 -6l-28 -92c75 -19 121 -69 121 -111c0 -21 -11 -34 -28 -34c-14 0 -27 12 -27 27c0 12 8 24 21 30zM440 165c0 77 -66 116 -136 155l-89 -293c11 -1 24 -2 37 -2c112 0 188 55 188 140zM166 501
c0 -72 61 -111 128 -147l84 276c-12 2 -25 3 -39 3c-93 0 -173 -47 -173 -132z" />
    <glyph glyph-name="sterling.tab" horiz-adv-x="530" 
d="M504 582c-11 28 -52 59 -113 59c-122 0 -174 -97 -174 -193c0 -57 11 -106 14 -158h183l-5 -21h-177v-1c0 -84 -36 -153 -118 -209c46 2 81 -7 122 -22c34 -12 64 -24 114 -24c37 0 77 16 118 45l13 -18c-41 -33 -87 -51 -135 -51s-84 13 -120 26c-41 15 -81 27 -133 22
c-21 -26 -47 -40 -63 -40c-13 0 -22 8 -22 19c0 21 34 42 79 43c84 60 120 124 120 207v3h-107l5 21h101c-3 49 -14 100 -14 157c0 114 63 218 200 218c83 0 143 -53 143 -105c0 -23 -12 -35 -28 -35c-14 0 -27 11 -27 27c0 14 10 25 24 30z" />
    <glyph glyph-name="Euro.tab" horiz-adv-x="530" 
d="M507 541c-6 47 -42 99 -115 99c-102 0 -187 -100 -229 -230h212l-5 -22h-213c-12 -42 -19 -86 -21 -130h204l-6 -22h-199v-9c0 -133 58 -209 149 -209c67 0 122 38 165 95l19 -15c-48 -62 -112 -104 -187 -104c-104 0 -174 82 -174 231v11h-79l5 22h75c2 45 9 89 20 130
h-66l5 22h68c46 145 143 253 259 253c92 0 142 -71 142 -141c0 -24 -13 -40 -30 -40c-16 0 -26 10 -26 26c0 14 9 28 27 33z" />
    <glyph glyph-name="yen.tab" horiz-adv-x="530" 
d="M102 274l5 23h143l-87 338h-68l6 23h192l-5 -23h-98l85 -335l249 335h-99l5 23h193l-5 -23h-64l-254 -338h140l-5 -23h-154l-22 -93h154l-5 -23h-155l-32 -135h100l-5 -23h-227l5 23h100l33 135h-152l5 23h152l23 93h-153z" />
    <glyph glyph-name="cent.tab" horiz-adv-x="530" 
d="M462 464c-13 30 -47 58 -104 64l-111 -376c11 -2 23 -3 35 -3c59 0 109 22 148 54l-1 -26c-40 -29 -90 -49 -151 -49c-13 0 -25 1 -37 3l-43 -147l-19 6l43 146c-69 20 -120 79 -120 167c0 134 110 252 243 248l35 119l19 -6l-34 -114c80 -10 123 -63 123 -104
c0 -24 -12 -35 -25 -35c-14 0 -23 9 -23 23s7 25 22 30zM127 304c0 -77 42 -128 102 -147l110 372c-116 1 -212 -106 -212 -225z" />
    <glyph glyph-name="numbersign.tab" horiz-adv-x="530" 
d="M486 658l-57 -203h125l-5 -22h-126l-59 -215h129l-5 -21h-130l-55 -197h-24l55 197h-158l-54 -197h-24l55 197h-125l5 21h126l59 215h-129l5 22h130l57 203h24l-57 -203h157l57 203h24zM243 433l-61 -215h157l60 215h-156z" />
    <glyph glyph-name="paragraph.tab" horiz-adv-x="530" 
d="M252 23l52 223c-7 -1 -12 -1 -19 -1c-119 0 -201 70 -201 182c0 134 115 231 276 231h222l-5 -23h-72l-142 -612h78l-5 -23h-275l5 23h86zM275 22h64l142 614h-63z" />
    <glyph glyph-name="section.tab" horiz-adv-x="530" 
d="M108 76c3 -6 7 -11 15 -20c19 -21 65 -43 123 -43c89 0 144 42 144 87c0 55 -61 83 -144 114c-82 30 -149 59 -149 122c0 58 71 96 179 114c-58 26 -96 57 -96 106c0 68 77 113 172 113c75 0 127 -27 151 -57c13 -16 20 -34 20 -48c0 -24 -12 -35 -25 -35
c-14 0 -23 11 -23 24c0 12 7 23 16 28c-3 7 -8 14 -17 24c-19 21 -63 42 -123 42c-82 0 -145 -38 -145 -89c0 -54 61 -82 130 -108c88 -34 162 -62 162 -128c0 -55 -65 -95 -177 -115c59 -27 95 -57 95 -105c0 -62 -69 -111 -172 -111c-73 0 -126 28 -149 57
c-13 16 -20 35 -20 48c0 21 12 31 25 31c14 0 24 -10 24 -23c0 -12 -7 -24 -16 -28zM325 431c-6 2 -12 4 -18 7c-115 -14 -183 -52 -183 -102s61 -77 133 -103l34 -13c114 15 180 54 180 102c0 53 -68 79 -146 109z" />
    <glyph glyph-name="degree.tab" horiz-adv-x="530" 
d="M302 389c-94 0 -149 66 -149 146c0 103 81 204 200 204c95 0 150 -66 150 -146c0 -103 -82 -204 -201 -204zM303 408c104 0 178 91 178 184c0 72 -50 128 -128 128c-105 0 -179 -91 -179 -185c0 -71 50 -127 129 -127z" />
    <glyph glyph-name="percent.tab" horiz-adv-x="530" 
d="M45 -5l-16 13l258 328l259 329l16 -14l-259 -328zM179 384c-55 0 -89 42 -89 103c0 95 60 180 138 180c54 0 88 -41 88 -103c0 -95 -59 -180 -137 -180zM181 405c64 0 113 77 113 156c0 51 -25 85 -69 85c-64 0 -113 -77 -113 -156c0 -50 25 -85 69 -85zM362 -7
c-55 0 -89 41 -89 102c0 95 61 180 138 180c54 0 88 -41 88 -103c0 -95 -59 -179 -137 -179zM365 13c63 0 112 77 112 156c0 51 -24 86 -69 86c-63 0 -113 -78 -113 -157c0 -50 25 -85 70 -85z" />
    <glyph glyph-name="quotedbl.tab" horiz-adv-x="530" 
d="M205 509l36 206c3 19 14 25 24 25c11 0 18 -7 18 -18c0 -4 -1 -9 -3 -16l-66 -197h-9zM375 509l37 206c2 19 14 25 23 25c11 0 18 -7 18 -18c0 -4 0 -9 -3 -16l-66 -197h-9z" />
    <glyph glyph-name="quotesingle.tab" horiz-adv-x="265" 
d="M169 509l37 206c2 19 14 25 23 25c11 0 18 -7 18 -18c0 -4 -1 -9 -3 -16l-66 -197h-9z" />
    <glyph glyph-name="plus.tab" horiz-adv-x="530" 
d="M347 502l-37 -154h155l-5 -22h-155l-40 -170h-23l40 170h-155l5 22h155l36 154h24z" />
    <glyph glyph-name="minus.tab" horiz-adv-x="530" 
d="M127 326l5 22h333l-5 -22h-333z" />
    <glyph glyph-name="divide.tab" horiz-adv-x="530" 
d="M127 326l5 22h333l-5 -22h-333zM329 452c-14 0 -24 11 -24 24s10 24 24 24c13 0 23 -11 23 -24s-10 -24 -23 -24zM262 171c-13 0 -24 11 -24 24s11 24 24 24s24 -11 24 -24s-11 -24 -24 -24z" />
    <glyph glyph-name="equal.tab" horiz-adv-x="530" 
d="M144 396l5 22h317l-5 -22h-317zM106 235l5 22h317l-5 -22h-317z" />
    <glyph glyph-name="multiply.tab" horiz-adv-x="530" 
d="M174 498l112 -144l165 134l15 -19l-165 -134l113 -145l-19 -16l-114 145l-166 -134l-15 19l166 135l-111 143z" />
    <glyph glyph-name="less.tab" horiz-adv-x="530" 
d="M359 141l-226 183l1 7l310 170l11 -18l-284 -157l204 -168z" />
    <glyph glyph-name="greater.tab" horiz-adv-x="530" 
d="M225 511l226 -183l-1 -7l-310 -170l-10 18l284 157l-205 168z" />
    <glyph glyph-name="plusminus.tab" horiz-adv-x="530" 
d="M350 555l-37 -156h156l-5 -22h-156l-38 -164h-23l38 164h-154l5 22h154l37 156h23zM71 122l5 22h333l-5 -22h-333z" />
    <glyph glyph-name="zero.idx_P2D" horiz-adv-x="1076" 
d="M538 792c271 0 481 -220 481 -492s-210 -492 -481 -492s-481 220 -481 492s210 492 481 492zM538 772c-261 0 -459 -211 -459 -472s198 -472 459 -472s459 211 459 472s-198 472 -459 472zM536 66c-97 0 -171 96 -171 241c0 146 76 241 173 241c96 0 172 -96 172 -241
c0 -146 -77 -241 -174 -241zM536 87c88 0 149 89 149 220c0 130 -62 220 -148 220c-88 0 -148 -89 -148 -220c0 -130 62 -220 147 -220z" />
    <glyph glyph-name="one.idx_P2D" horiz-adv-x="1076" 
d="M538 792c271 0 481 -220 481 -492s-210 -492 -481 -492s-481 220 -481 492s210 492 481 492zM538 772c-261 0 -459 -211 -459 -472s198 -472 459 -472s459 211 459 472s-198 472 -459 472zM665 73h-243v21h111v424l-109 -26l-4 21l126 31h11v-450h108v-21z" />
    <glyph glyph-name="two.idx_P2D" horiz-adv-x="1076" 
d="M538 792c271 0 481 -220 481 -492s-210 -492 -481 -492s-481 220 -481 492s210 492 481 492zM538 772c-261 0 -459 -211 -459 -472s198 -472 459 -472s459 211 459 472s-198 472 -459 472zM401 439c0 10 3 23 9 36c18 39 63 73 128 73c83 0 140 -54 140 -121
c0 -69 -48 -110 -116 -159c-66 -49 -124 -97 -147 -174h249v90h23v-111h-293l-7 10c27 97 93 153 161 201c63 44 106 82 106 143c0 57 -48 100 -116 100c-53 0 -91 -24 -107 -57c-3 -5 -5 -11 -6 -16c14 -3 22 -13 22 -24c0 -13 -9 -22 -21 -22c-14 0 -25 11 -25 31z" />
    <glyph glyph-name="three.idx_P2D" horiz-adv-x="1076" 
d="M538 792c271 0 481 -220 481 -492s-210 -492 -481 -492s-481 220 -481 492s210 492 481 492zM538 772c-261 0 -459 -211 -459 -472s198 -472 459 -472s459 211 459 472s-198 472 -459 472zM392 158c0 17 9 29 23 29c12 0 22 -10 22 -22c0 -10 -7 -19 -19 -22
c2 -8 8 -17 17 -25c21 -18 57 -31 98 -31c82 0 126 50 126 108c0 43 -23 75 -64 93c-24 11 -55 17 -90 17h-12v21h14c37 0 69 10 93 27c30 19 47 47 47 81c0 52 -40 92 -112 92c-46 0 -80 -17 -97 -39c-4 -6 -7 -12 -9 -18c11 -2 19 -11 19 -22c0 -12 -10 -21 -21 -21
c-13 0 -23 11 -23 28c0 14 5 29 15 42c22 29 64 51 117 51c83 0 135 -50 135 -113c0 -42 -23 -76 -61 -97c-15 -9 -31 -15 -50 -19c18 -3 34 -8 49 -14c47 -21 74 -59 74 -109c0 -74 -60 -128 -151 -128c-50 0 -96 18 -121 46c-13 13 -19 30 -19 45z" />
    <glyph glyph-name="four.idx_P2D" horiz-adv-x="1076" 
d="M538 792c271 0 481 -220 481 -492s-210 -492 -481 -492s-481 220 -481 492s210 492 481 492zM538 772c-261 0 -459 -211 -459 -472s198 -472 459 -472s459 211 459 472s-198 472 -459 472zM462 73v21h105v124h-227l-5 9l245 323l18 -12l-228 -299h197v138l24 11v-149h96
v-21h-96v-124h83v-21h-212z" />
    <glyph glyph-name="five.idx_P2D" horiz-adv-x="1076" 
d="M538 792c271 0 481 -220 481 -492s-210 -492 -481 -492s-481 220 -481 492s210 492 481 492zM538 772c-261 0 -459 -211 -459 -472s198 -472 459 -472s459 211 459 472s-198 472 -459 472zM523 66c-74 0 -131 37 -131 79c0 13 8 26 21 26s22 -9 22 -20
c0 -9 -5 -18 -14 -21c10 -24 49 -43 103 -43c74 0 131 51 131 127c0 75 -48 123 -131 123c-38 0 -74 -9 -102 -23l-11 7l23 220h220v-24h-201l-19 -176c23 10 51 17 91 17c90 0 154 -50 154 -143c0 -90 -70 -149 -156 -149z" />
    <glyph glyph-name="six.idx_P2D" horiz-adv-x="1076" 
d="M538 792c271 0 481 -220 481 -492s-210 -492 -481 -492s-481 220 -481 492s210 492 481 492zM538 772c-261 0 -459 -211 -459 -472s198 -472 459 -472s459 211 459 472s-198 472 -459 472zM644 451c-12 0 -22 9 -22 21c0 8 5 16 12 20c-2 6 -8 12 -15 17
c-13 9 -35 17 -63 17c-85 0 -153 -77 -155 -260v-4c18 55 71 93 138 93c92 0 151 -61 151 -143s-64 -146 -151 -146c-46 0 -83 17 -111 45c-34 34 -49 85 -49 155c0 200 82 282 178 282c33 0 60 -10 78 -23c20 -13 31 -31 31 -49c0 -16 -10 -25 -22 -25zM407 215
c0 -32 14 -66 38 -91c24 -23 56 -38 94 -38c73 0 127 54 127 126c0 70 -49 123 -127 123c-74 0 -132 -55 -132 -120z" />
    <glyph glyph-name="seven.idx_P2D" horiz-adv-x="1076" 
d="M538 792c271 0 481 -220 481 -492s-210 -492 -481 -492s-481 220 -481 492s210 492 481 492zM538 772c-261 0 -459 -211 -459 -472s198 -472 459 -472s459 211 459 472s-198 472 -459 472zM507 63h-24l197 447h-252v-84h-23v104h300l4 -7z" />
    <glyph glyph-name="eight.idx_P2D" horiz-adv-x="1076" 
d="M538 792c271 0 481 -220 481 -492s-210 -492 -481 -492s-481 220 -481 492s210 492 481 492zM538 772c-261 0 -459 -211 -459 -472s198 -472 459 -472s459 211 459 472s-198 472 -459 472zM538 67c-87 0 -152 52 -152 129c0 58 47 107 105 120c-56 15 -96 56 -96 109
c0 72 63 122 143 122s142 -50 142 -122c0 -53 -39 -94 -96 -109c60 -13 106 -62 106 -120c0 -77 -65 -129 -152 -129zM538 326c69 0 118 42 118 99c0 56 -51 101 -118 101c-68 0 -119 -44 -119 -101c0 -56 51 -99 119 -99zM538 87c73 0 128 43 128 109
c0 60 -56 109 -128 109c-73 0 -128 -49 -128 -109c0 -65 56 -109 128 -109z" />
    <glyph glyph-name="nine.idx_P2D" horiz-adv-x="1076" 
d="M538 792c271 0 481 -220 481 -492s-210 -492 -481 -492s-481 220 -481 492s210 492 481 492zM538 772c-261 0 -459 -211 -459 -472s198 -472 459 -472s459 211 459 472s-198 472 -459 472zM409 137c0 17 9 26 21 26s22 -9 22 -21c0 -9 -5 -16 -12 -20c3 -6 9 -13 18 -19
c16 -10 38 -17 67 -17c83 0 153 73 153 256v3c-16 -49 -67 -92 -139 -92c-92 0 -150 60 -150 146c0 84 64 149 150 149c45 0 83 -18 109 -44c35 -34 52 -88 52 -159c0 -210 -80 -279 -176 -279c-35 0 -66 11 -87 26c-17 13 -28 30 -28 45zM671 392c0 39 -15 74 -40 98
c-23 23 -55 36 -92 36c-72 0 -126 -53 -126 -127c0 -72 49 -124 126 -124c74 0 132 53 132 117z" />
    <glyph glyph-name="space" unicode=" " horiz-adv-x="193" 
 />
    <glyph glyph-name="uni00A0" unicode="&#xa0;" horiz-adv-x="193" 
 />
    <glyph glyph-name="emspace" unicode="&#x2003;" horiz-adv-x="1000" 
 />
    <glyph glyph-name="enspace" unicode="&#x2002;" horiz-adv-x="500" 
 />
    <glyph glyph-name="threeperemspace" unicode="&#x2004;" horiz-adv-x="333" 
 />
    <glyph glyph-name="fourperemspace" unicode="&#x2005;" horiz-adv-x="250" 
 />
    <glyph glyph-name="thinspace" unicode="&#x2009;" horiz-adv-x="133" 
 />
    <glyph glyph-name="hairspace" unicode="&#x200a;" horiz-adv-x="75" 
 />
    <glyph glyph-name="space.tab" horiz-adv-x="265" 
 />
    <glyph glyph-name="figurespace" unicode="&#x2007;" horiz-adv-x="530" 
 />
    <glyph glyph-name="NUL" 
 />
    <glyph glyph-name="hfjslug" horiz-adv-x="700" 
d="M647 -200h-208l-8 14h-163l-8 -14h-207v303c18 0 32 14 32 32c0 17 -14 32 -32 32v554h100l30 79h334l29 -79h101v-921zM403 563v-172h15v78h38v14h-38v66h43v14h-58zM187 563v-172h15v79h47v-79h15v172h-15v-79h-47v79h-15zM463 394c5 -2 14 -4 21 -4c20 0 31 11 31 36
v137h-16v-137c0 -16 -5 -22 -16 -22c-6 0 -15 3 -20 5v-15zM374 465l-13 3c-2 -9 -5 -21 -8 -30h-1l-16 31c13 12 23 26 23 42c0 15 -9 31 -27 31c-17 0 -28 -16 -28 -31s6 -24 14 -39c-15 -12 -23 -28 -23 -47c0 -22 12 -37 29 -37c13 0 23 9 29 24h1l12 -24l12 6l-17 32
c5 12 9 25 13 39zM526 323v-46h8v12l8 8l15 -20h10l-20 26l18 20h-10l-20 -24h-1v24h-8zM491 292l10 -15h9l-12 17c5 2 10 6 10 14c0 9 -7 15 -17 15h-20v-46h8v15h12zM429 276c14 0 24 11 24 24c0 12 -10 24 -24 24s-24 -12 -24 -24c0 -13 10 -24 24 -24zM373 301l-13 22
h-9l18 -29v-17h8v17l18 29h-9zM196 323v-46h34v7h-26v13h23v7h-23v12h26v7h-34zM135 323v-46h8v32l25 -32h7v46h-8v-32l-25 32h-7zM244 323l14 -47h8l11 34h1l11 -34h8l14 47h-8l-10 -35h-1l-11 35h-7l-11 -35h-1l-10 35h-8zM330 479c-7 13 -12 22 -12 32s6 19 14 19
s13 -9 13 -19c0 -12 -5 -21 -15 -32zM345 423c-5 -13 -12 -21 -20 -21c-9 0 -16 10 -16 25c0 13 7 26 16 35zM490 299h-11v17h11c6 0 10 -3 10 -8s-4 -9 -10 -9zM429 283c-10 0 -16 8 -16 17c0 8 6 17 16 17s16 -9 16 -17c0 -9 -6 -17 -16 -17z" />
    <glyph glyph-name="i.dot" horiz-adv-x="269" 
d="M193 525c-13 0 -23 12 -23 25s10 24 23 24s24 -11 24 -24s-11 -25 -24 -25zM130 -6c-37 0 -61 22 -61 59c0 18 5 37 13 66l79 273h-90l4 20h115l-85 -297c-8 -28 -12 -48 -12 -64c0 -22 14 -37 38 -37c26 0 43 17 65 71l17 -5c-24 -64 -46 -86 -83 -86z" />
    <glyph glyph-name="fraction" unicode="&#x2044;" horiz-adv-x="476" 
d="M-23 -7l-13 11l268 320c101 119 228 272 267 319l13 -11l-268 -319c-101 -120 -228 -272 -267 -320z" />
    <glyph glyph-name="zero.num" horiz-adv-x="353" 
d="M180 276c-67 0 -105 54 -105 134c0 123 63 239 159 239c66 0 105 -55 105 -135c0 -122 -65 -238 -159 -238zM181 294c81 0 136 111 136 219c0 69 -29 117 -85 117c-81 0 -135 -110 -135 -218c0 -70 28 -118 84 -118z" />
    <glyph glyph-name="one.num" horiz-adv-x="353" 
d="M67 280l4 19h103l76 324l-111 -31v19l126 36l10 -5l-80 -343h100l-4 -19h-224z" />
    <glyph glyph-name="two.num" horiz-adv-x="353" 
d="M54 280l-4 10c32 84 101 128 172 167c56 29 102 60 102 106c0 39 -33 66 -83 66c-56 0 -93 -30 -99 -55c9 -2 14 -10 14 -17c0 -12 -8 -19 -18 -19c-11 0 -19 9 -19 25c0 37 49 85 123 85c62 0 104 -35 104 -85c0 -55 -52 -88 -115 -122c-61 -33 -126 -72 -154 -143h195
l18 75h19l-21 -93h-234z" />
    <glyph glyph-name="three.num" horiz-adv-x="353" 
d="M88 344c7 -25 45 -50 93 -50c67 0 110 40 110 88c0 43 -40 77 -94 77h-20l4 18h18c70 0 120 39 120 84c0 41 -36 68 -89 68c-44 0 -76 -20 -82 -41c10 -2 15 -9 15 -17c0 -11 -9 -17 -18 -17c-12 0 -20 10 -20 26c0 33 43 68 108 68s108 -38 108 -85
c0 -50 -46 -88 -106 -96c47 -9 78 -43 78 -85c0 -61 -57 -106 -132 -106c-64 0 -114 38 -114 78c0 15 8 27 21 27c11 0 18 -8 18 -18c0 -9 -7 -17 -18 -19z" />
    <glyph glyph-name="four.num" horiz-adv-x="353" 
d="M214 297l23 96h-177l-3 10l246 246l13 -12l-228 -227h153l24 100l22 9l-26 -108h69l-4 -18h-69l-22 -96h56l-4 -17h-144l4 17h67z" />
    <glyph glyph-name="five.num" horiz-adv-x="353" 
d="M87 329c8 -18 37 -37 77 -37c74 0 130 53 130 114c0 45 -31 76 -87 76c-33 0 -66 -8 -88 -18l-11 8l56 169h185l-4 -20h-168l-46 -136c19 7 47 15 81 15c63 0 103 -38 103 -92c0 -72 -65 -134 -153 -134c-55 0 -100 33 -100 65c0 13 7 23 19 23c9 0 17 -7 17 -17
c0 -7 -4 -13 -11 -16z" />
    <glyph glyph-name="six.num" horiz-adv-x="353" 
d="M321 601c-5 14 -23 29 -57 29c-32 0 -63 -16 -88 -40c-41 -41 -68 -109 -75 -164c21 44 66 75 118 75c61 0 102 -40 102 -95c0 -68 -61 -131 -133 -131c-33 0 -59 12 -77 30c-22 21 -32 50 -32 90c0 64 29 156 83 208c29 27 63 45 101 45c52 0 83 -31 83 -58
c0 -17 -10 -26 -20 -26c-9 0 -17 6 -17 17c0 7 3 15 12 20zM188 294c61 0 111 53 111 111c0 46 -33 79 -83 79c-61 0 -114 -53 -114 -109c0 -23 9 -42 24 -57s36 -24 62 -24z" />
    <glyph glyph-name="seven.num" horiz-adv-x="353" 
d="M114 280l234 344h-196l-15 -66h-20l19 84h235l5 -10l-238 -352h-24z" />
    <glyph glyph-name="eight.num" horiz-adv-x="353" 
d="M188 276c-69 0 -120 41 -120 96s54 98 111 101c-34 12 -63 41 -63 79c0 51 54 96 124 96c65 0 111 -39 111 -88c0 -51 -45 -85 -100 -94c38 -13 68 -43 68 -85c0 -61 -59 -105 -131 -105zM226 477c56 0 103 36 103 82c0 38 -36 71 -90 71c-55 0 -101 -35 -101 -80
c0 -42 42 -73 88 -73zM187 294c58 0 111 36 111 87c0 46 -42 80 -99 80c-60 0 -109 -39 -109 -87c0 -46 41 -80 97 -80z" />
    <glyph glyph-name="nine.num" horiz-adv-x="353" 
d="M103 322c5 -14 23 -29 57 -29c32 0 63 16 88 40c41 41 68 109 75 164c-21 -44 -66 -75 -118 -75c-61 0 -102 40 -102 95c0 68 61 131 133 131c33 0 59 -12 77 -30c22 -21 32 -50 32 -90c0 -64 -29 -156 -83 -208c-29 -27 -63 -45 -101 -45c-52 0 -83 31 -83 58
c0 17 10 26 20 26c9 0 17 -6 17 -17c0 -7 -3 -15 -12 -20zM236 629c-61 0 -111 -53 -111 -111c0 -46 33 -79 83 -79c61 0 114 53 114 109c0 23 -9 42 -24 57s-36 24 -62 24z" />
    <glyph glyph-name="zero.den" horiz-adv-x="353" 
d="M115 -4c-67 0 -105 54 -105 134c0 123 63 239 159 239c66 0 105 -55 105 -135c0 -122 -65 -238 -159 -238zM116 14c81 0 136 111 136 219c0 69 -29 117 -85 117c-81 0 -135 -110 -135 -218c0 -70 28 -118 84 -118z" />
    <glyph glyph-name="one.den" horiz-adv-x="353" 
d="M2 0l4 19h103l76 324l-111 -31v19l126 36l10 -5l-80 -343h100l-4 -19h-224z" />
    <glyph glyph-name="two.den" horiz-adv-x="353" 
d="M-11 0l-4 10c32 84 101 128 172 167c56 29 102 60 102 106c0 39 -33 66 -83 66c-56 0 -93 -30 -99 -55c9 -2 14 -10 14 -17c0 -12 -8 -19 -18 -19c-11 0 -19 9 -19 25c0 37 49 85 123 85c62 0 104 -35 104 -85c0 -55 -52 -88 -115 -122c-61 -33 -126 -72 -154 -143h195
l18 75h19l-21 -93h-234z" />
    <glyph glyph-name="three.den" horiz-adv-x="353" 
d="M23 64c7 -25 45 -50 93 -50c67 0 110 40 110 88c0 43 -40 77 -94 77h-20l4 18h18c70 0 120 39 120 84c0 41 -36 68 -89 68c-44 0 -76 -20 -82 -41c10 -2 15 -9 15 -17c0 -11 -9 -17 -18 -17c-12 0 -20 10 -20 26c0 33 43 68 108 68s108 -38 108 -85
c0 -50 -46 -88 -106 -96c47 -9 78 -43 78 -85c0 -61 -57 -106 -132 -106c-64 0 -114 38 -114 78c0 15 8 27 21 27c11 0 18 -8 18 -18c0 -9 -7 -17 -18 -19z" />
    <glyph glyph-name="four.den" horiz-adv-x="353" 
d="M149 17l23 96h-177l-3 10l246 246l13 -12l-228 -227h153l24 100l22 9l-26 -108h69l-4 -18h-69l-22 -96h56l-4 -17h-144l4 17h67z" />
    <glyph glyph-name="five.den" horiz-adv-x="353" 
d="M22 49c8 -18 37 -37 77 -37c74 0 130 53 130 114c0 45 -31 76 -87 76c-33 0 -66 -8 -88 -18l-11 8l56 169h185l-4 -20h-168l-46 -136c19 7 47 15 81 15c63 0 103 -38 103 -92c0 -72 -65 -134 -153 -134c-55 0 -100 33 -100 65c0 13 7 23 19 23c9 0 17 -7 17 -17
c0 -7 -4 -13 -11 -16z" />
    <glyph glyph-name="six.den" horiz-adv-x="353" 
d="M256 321c-5 14 -23 29 -57 29c-32 0 -63 -16 -88 -40c-41 -41 -68 -109 -75 -164c21 44 66 75 118 75c61 0 102 -40 102 -95c0 -68 -61 -131 -133 -131c-33 0 -59 12 -77 30c-22 21 -32 50 -32 90c0 64 29 156 83 208c29 27 63 45 101 45c52 0 83 -31 83 -58
c0 -17 -10 -26 -20 -26c-9 0 -17 6 -17 17c0 7 3 15 12 20zM123 14c61 0 111 53 111 111c0 46 -33 79 -83 79c-61 0 -114 -53 -114 -109c0 -23 9 -42 24 -57s36 -24 62 -24z" />
    <glyph glyph-name="seven.den" horiz-adv-x="353" 
d="M49 0l234 344h-196l-15 -66h-20l19 84h235l5 -10l-238 -352h-24z" />
    <glyph glyph-name="eight.den" horiz-adv-x="353" 
d="M123 -4c-69 0 -120 41 -120 96s54 98 111 101c-34 12 -63 41 -63 79c0 51 54 96 124 96c65 0 111 -39 111 -88c0 -51 -45 -85 -100 -94c38 -13 68 -43 68 -85c0 -61 -59 -105 -131 -105zM161 197c56 0 103 36 103 82c0 38 -36 71 -90 71c-55 0 -101 -35 -101 -80
c0 -42 42 -73 88 -73zM122 14c58 0 111 36 111 87c0 46 -42 80 -99 80c-60 0 -109 -39 -109 -87c0 -46 41 -80 97 -80z" />
    <glyph glyph-name="nine.den" horiz-adv-x="353" 
d="M38 42c5 -14 23 -29 57 -29c32 0 63 16 88 40c41 41 68 109 75 164c-21 -44 -66 -75 -118 -75c-61 0 -102 40 -102 95c0 68 61 131 133 131c33 0 59 -12 77 -30c22 -21 32 -50 32 -90c0 -64 -29 -156 -83 -208c-29 -27 -63 -45 -101 -45c-52 0 -83 31 -83 58
c0 17 10 26 20 26c9 0 17 -6 17 -17c0 -7 -3 -15 -12 -20zM171 349c-61 0 -111 -53 -111 -111c0 -46 33 -79 83 -79c61 0 114 53 114 109c0 23 -9 42 -24 57s-36 24 -62 24z" />
    <glyph glyph-name="acute" unicode="&#xb4;" horiz-adv-x="506" 
d="M258 497l-6 10l124 92c11 8 21 13 29 13c10 0 18 -10 18 -19s-8 -18 -24 -25z" />
    <glyph glyph-name="hungarumlaut" unicode="&#x2dd;" horiz-adv-x="506" 
d="M163 496l-6 10l119 87c11 8 19 11 28 11c8 0 16 -8 16 -19c0 -10 -9 -17 -24 -24zM321 499l-6 10l124 82c10 7 19 9 26 9c10 0 17 -8 17 -18s-6 -17 -25 -24z" />
    <glyph glyph-name="caron.alt" horiz-adv-x="506" 
d="M213 557l-9 8c22 27 38 51 45 78c7 25 6 47 9 63c2 13 10 21 21 21c12 0 17 -8 17 -20c0 -21 -11 -47 -23 -71c-16 -29 -37 -55 -60 -79z" />
    <glyph glyph-name="grave" unicode="`" horiz-adv-x="506" 
d="M413 497l-114 74c-13 8 -19 17 -19 25c0 9 8 18 17 18c10 0 16 -2 27 -14l97 -94z" />
    <glyph glyph-name="circumflex" unicode="&#x2c6;" horiz-adv-x="506" 
d="M201 490l-8 11l156 119l97 -119l-10 -9l-91 87z" />
    <glyph glyph-name="caron" unicode="&#x2c7;" horiz-adv-x="506" 
d="M315 492l-97 119l10 9l91 -87l144 89l8 -11z" />
    <glyph glyph-name="breve" unicode="&#x2d8;" horiz-adv-x="506" 
d="M320 496c-63 0 -100 42 -112 101l20 6c14 -51 44 -78 95 -78c55 0 98 30 127 78l16 -9c-26 -55 -83 -98 -146 -98z" />
    <glyph glyph-name="tilde" unicode="&#x2dc;" horiz-adv-x="506" 
d="M397 499c-28 0 -48 14 -74 36c-29 24 -42 31 -61 31c-30 0 -47 -19 -64 -61l-17 5c15 48 44 82 83 82c27 0 47 -14 74 -35c30 -25 41 -32 61 -32c31 0 47 20 65 62l17 -5c-15 -48 -44 -83 -84 -83z" />
    <glyph glyph-name="macron" unicode="&#xaf;" horiz-adv-x="506" 
d="M186 528l5 24h273l-5 -24h-273z" />
    <glyph glyph-name="dieresis" unicode="&#xa8;" horiz-adv-x="506" 
d="M384 514c-15 0 -26 12 -26 26c0 15 11 27 26 27s26 -12 26 -27c0 -14 -11 -26 -26 -26zM270 514c-15 0 -26 12 -26 26c0 15 11 27 26 27s26 -12 26 -27c0 -14 -11 -26 -26 -26z" />
    <glyph glyph-name="dotaccent" unicode="&#x2d9;" horiz-adv-x="506" 
d="M331 518c-16 0 -28 12 -28 28s12 29 28 29s28 -13 28 -29s-12 -28 -28 -28z" />
    <glyph glyph-name="ring" unicode="&#x2da;" horiz-adv-x="506" 
d="M330 488c-44 0 -71 34 -71 71c0 51 38 100 90 100c44 0 72 -33 72 -71c0 -50 -39 -100 -91 -100zM331 508c39 0 66 40 66 80c0 30 -20 51 -48 51c-39 0 -66 -39 -66 -80c0 -29 20 -51 48 -51z" />
    <glyph glyph-name="commaaccent" unicode="&#x326;" horiz-adv-x="199" 
d="M27 -222l-6 11c44 26 72 57 81 94c-18 2 -30 14 -30 30c0 14 11 26 26 26c19 0 31 -16 31 -37c0 -46 -48 -100 -102 -124z" />
    <glyph glyph-name="cedilla" unicode="&#xb8;" horiz-adv-x="506" 
d="M179 -200c-35 0 -73 11 -102 31l11 16c28 -16 62 -27 92 -27c44 0 64 25 64 50c0 29 -26 49 -79 45l-5 5l44 93l15 -5l-30 -75c56 -3 79 -30 79 -62c0 -39 -30 -71 -89 -71z" />
    <glyph glyph-name="ogonek" unicode="&#x2db;" horiz-adv-x="506" 
d="M259 21l19 -1c-76 -55 -117 -101 -117 -148c0 -32 20 -53 54 -53c20 0 38 4 49 8l-6 -20c-9 -3 -25 -9 -48 -9c-44 0 -73 25 -73 70c0 52 46 105 122 153z" />
    <glyph glyph-name="g.sc" 
 />
    <glyph glyph-name="gbreve.sc" 
 />
    <glyph glyph-name="i.sc" 
 />
    <glyph glyph-name="iacute.sc" 
 />
    <glyph glyph-name="ibreve.sc" 
 />
    <glyph glyph-name="icircumflex.sc" 
 />
    <glyph glyph-name="idieresis.sc" 
 />
    <glyph glyph-name="igrave.sc" 
 />
    <glyph glyph-name="imacron.sc" 
 />
    <glyph glyph-name="iogonek.sc" 
 />
    <glyph glyph-name="S.sc" 
 />
    <glyph glyph-name="Sacute.sc" 
 />
    <glyph glyph-name="Aring.sc" 
 />
    <glyph glyph-name="Aringacute.sc" 
 />
    <glyph glyph-name="E.sc" 
 />
    <glyph glyph-name="Eacute.sc" 
 />
    <glyph glyph-name="Ebreve.sc" 
 />
    <glyph glyph-name="Ecircumflex.sc" 
 />
    <glyph glyph-name="Edieresis.sc" 
 />
    <glyph glyph-name="Egrave.sc" 
 />
    <glyph glyph-name="Emacron.sc" 
 />
    <glyph glyph-name="Eogonek.sc" 
 />
    <glyph glyph-name="N.sc" 
 />
    <glyph glyph-name="Nacute.sc" 
 />
    <glyph glyph-name="Ntilde.sc" 
 />
    <glyph glyph-name="a.sc" 
 />
    <glyph glyph-name="aogonek.sc" 
 />
    <glyph glyph-name="L.sc" 
 />
    <glyph glyph-name="Lacute.sc" 
 />
    <glyph glyph-name="s.sc" 
 />
    <glyph glyph-name="sacute.sc" 
 />
    <glyph glyph-name="aring.sc" 
 />
    <glyph glyph-name="aringacute.sc" 
 />
    <glyph glyph-name="C.sc" 
 />
    <glyph glyph-name="Cacute.sc" 
 />
    <glyph glyph-name="e.sc" 
 />
    <glyph glyph-name="eacute.sc" 
 />
    <glyph glyph-name="ebreve.sc" 
 />
    <glyph glyph-name="ecircumflex.sc" 
 />
    <glyph glyph-name="edieresis.sc" 
 />
    <glyph glyph-name="egrave.sc" 
 />
    <glyph glyph-name="emacron.sc" 
 />
    <glyph glyph-name="eogonek.sc" 
 />
    <glyph glyph-name="n.sc" 
 />
    <glyph glyph-name="nacute.sc" 
 />
    <glyph glyph-name="ntilde.sc" 
 />
    <glyph glyph-name="l.sc" 
 />
    <glyph glyph-name="lacute.sc" 
 />
    <glyph glyph-name="c.sc" 
 />
    <glyph glyph-name="cacute.sc" 
 />
    <glyph glyph-name="R.sc" 
 />
    <glyph glyph-name="Racute.sc" 
 />
    <glyph glyph-name="G.sc" 
 />
    <glyph glyph-name="Gbreve.sc" 
 />
    <glyph glyph-name="I.sc" 
 />
    <glyph glyph-name="Iacute.sc" 
 />
    <glyph glyph-name="Ibreve.sc" 
 />
    <glyph glyph-name="Icircumflex.sc" 
 />
    <glyph glyph-name="Idieresis.sc" 
 />
    <glyph glyph-name="Igrave.sc" 
 />
    <glyph glyph-name="Imacron.sc" 
 />
    <glyph glyph-name="Iogonek.sc" 
 />
    <glyph glyph-name="r.sc" 
 />
    <glyph glyph-name="racute.sc" 
 />
    <glyph glyph-name="A.sc" 
 />
    <glyph glyph-name="Aogonek.sc" 
 />
    </font>
</defs>
</svg>
